<svg xmlns="http://www.w3.org/2000/svg" xmlns:xlink="http://www.w3.org/1999/xlink" width="70" zoomAndPan="magnify" viewBox="0 0 52.5 52.499999" height="70" preserveAspectRatio="xMidYMid meet" version="1.0"><defs><clipPath id="bc993f6a09"><path d="M 3.429688 1.640625 L 48.75 1.640625 L 48.75 48.445312 L 3.429688 48.445312 Z M 3.429688 1.640625 " clip-rule="nonzero"/></clipPath></defs><path fill="#769a8c" d="M 38.0625 42.597656 L 38.0625 44.902344 C 38.0625 45.097656 38.21875 45.257812 38.417969 45.257812 L 41.957031 45.257812 C 42.15625 45.257812 42.3125 45.097656 42.3125 44.902344 L 42.3125 42.597656 C 42.3125 41.507812 41.425781 40.621094 40.339844 40.621094 L 40.035156 40.621094 C 38.945312 40.621094 38.0625 41.507812 38.0625 42.597656 Z M 38.773438 42.597656 C 38.773438 41.898438 39.339844 41.332031 40.035156 41.332031 L 40.339844 41.332031 C 41.035156 41.332031 41.601562 41.898438 41.601562 42.597656 L 41.601562 44.546875 L 38.773438 44.546875 Z M 38.773438 42.597656 " fill-opacity="1" fill-rule="nonzero"/><path fill="#769a8c" d="M 11.867188 40.621094 L 11.5625 40.621094 C 10.472656 40.621094 9.589844 41.507812 9.589844 42.597656 L 9.589844 44.902344 C 9.589844 45.097656 9.746094 45.257812 9.945312 45.257812 L 13.484375 45.257812 C 13.683594 45.257812 13.839844 45.097656 13.839844 44.902344 L 13.839844 42.597656 C 13.839844 41.507812 12.953125 40.621094 11.867188 40.621094 Z M 13.128906 44.546875 L 10.300781 44.546875 L 10.300781 42.597656 C 10.300781 41.898438 10.867188 41.332031 11.5625 41.332031 L 11.867188 41.332031 C 12.5625 41.332031 13.128906 41.898438 13.128906 42.597656 Z M 13.128906 44.546875 " fill-opacity="1" fill-rule="nonzero"/><g clip-path="url(#bc993f6a09)"><path fill="#769a8c" d="M 4.019531 32.1875 L 6.796875 30.527344 L 6.796875 48.019531 C 6.796875 48.214844 6.957031 48.375 7.152344 48.375 L 44.699219 48.375 C 44.894531 48.375 45.054688 48.214844 45.054688 48.019531 L 45.054688 30.449219 L 47.980469 32.1875 C 48.039062 32.222656 48.101562 32.238281 48.160156 32.238281 C 48.28125 32.238281 48.402344 32.175781 48.46875 32.0625 C 48.566406 31.894531 48.511719 31.675781 48.34375 31.578125 L 33.941406 23.023438 L 33.941406 14.695312 L 36.914062 16.554688 C 36.972656 16.589844 37.035156 16.609375 37.101562 16.609375 C 37.21875 16.609375 37.335938 16.550781 37.402344 16.441406 C 37.507812 16.273438 37.457031 16.054688 37.289062 15.953125 L 33.773438 13.75 L 32.269531 12.808594 L 26.300781 9.074219 L 26.300781 4.738281 L 28.5 4.738281 C 28.695312 4.738281 28.851562 4.578125 28.851562 4.382812 C 28.851562 4.183594 28.695312 4.027344 28.5 4.027344 L 26.300781 4.027344 L 26.300781 1.996094 C 26.300781 1.800781 26.140625 1.640625 25.945312 1.640625 C 25.75 1.640625 25.589844 1.800781 25.589844 1.996094 L 25.589844 4.027344 L 23.394531 4.027344 C 23.195312 4.027344 23.039062 4.183594 23.039062 4.382812 C 23.039062 4.578125 23.195312 4.738281 23.394531 4.738281 L 25.589844 4.738281 L 25.589844 9.121094 L 14.628906 15.875 C 14.460938 15.980469 14.410156 16.199219 14.511719 16.363281 C 14.613281 16.53125 14.832031 16.582031 15 16.480469 L 17.910156 14.6875 L 17.910156 23.054688 L 3.65625 31.578125 C 3.484375 31.679688 3.429688 31.898438 3.53125 32.066406 C 3.632812 32.234375 3.851562 32.289062 4.019531 32.1875 Z M 25.628906 47.664062 L 22.445312 47.664062 L 22.445312 44.339844 C 22.445312 42.582031 23.871094 41.148438 25.628906 41.136719 Z M 29.523438 47.664062 L 26.339844 47.664062 L 26.339844 41.136719 C 28.097656 41.148438 29.523438 42.582031 29.523438 44.339844 Z M 33.941406 23.886719 L 44.34375 30.105469 L 44.34375 47.664062 L 36.023438 47.664062 L 36.023438 31.761719 L 38.496094 33.238281 C 38.554688 33.273438 38.617188 33.289062 38.679688 33.289062 C 38.800781 33.289062 38.917969 33.230469 38.984375 33.117188 C 39.085938 32.949219 39.03125 32.730469 38.863281 32.628906 L 35.851562 30.828125 L 33.941406 29.6875 Z M 18.621094 14.25 L 25.808594 9.820312 L 25.984375 9.714844 L 32.21875 13.613281 L 33.230469 14.25 L 33.230469 29.261719 L 26.109375 25 C 25.996094 24.933594 25.855469 24.933594 25.742188 25 L 18.621094 29.261719 Z M 21.605469 28.304688 L 25.925781 25.71875 L 30.246094 28.304688 L 35.3125 31.335938 L 35.3125 47.664062 L 30.234375 47.664062 L 30.234375 44.339844 C 30.234375 42.179688 28.476562 40.425781 26.316406 40.425781 L 25.652344 40.425781 C 23.492188 40.425781 21.738281 42.179688 21.738281 44.339844 L 21.738281 47.664062 L 16.539062 47.664062 L 16.539062 31.335938 Z M 7.507812 30.105469 L 17.910156 23.886719 L 17.910156 29.6875 L 16 30.828125 L 12.988281 32.628906 C 12.820312 32.730469 12.765625 32.949219 12.867188 33.117188 C 12.964844 33.285156 13.183594 33.339844 13.351562 33.238281 L 15.828125 31.761719 L 15.828125 47.664062 L 7.507812 47.664062 Z M 7.507812 30.105469 " fill-opacity="1" fill-rule="nonzero"/></g><path fill="#769a8c" d="M 24.101562 32.183594 L 25.589844 32.183594 L 25.589844 35.378906 C 25.589844 35.578125 25.75 35.734375 25.945312 35.734375 C 26.140625 35.734375 26.300781 35.578125 26.300781 35.378906 L 26.300781 32.183594 L 27.789062 32.183594 C 27.984375 32.183594 28.144531 32.027344 28.144531 31.828125 C 28.144531 31.632812 27.984375 31.472656 27.789062 31.472656 L 26.300781 31.472656 L 26.300781 30.105469 C 26.300781 29.910156 26.140625 29.75 25.945312 29.75 C 25.75 29.75 25.589844 29.910156 25.589844 30.105469 L 25.589844 31.472656 L 24.101562 31.472656 C 23.90625 31.472656 23.746094 31.632812 23.746094 31.828125 C 23.746094 32.027344 23.90625 32.183594 24.101562 32.183594 Z M 24.101562 32.183594 " fill-opacity="1" fill-rule="nonzero"/><path fill="#769a8c" d="M 25.9375 22.480469 C 26.042969 22.480469 26.144531 22.457031 26.242188 22.417969 C 26.414062 22.34375 26.578125 22.261719 26.773438 22.152344 C 27.007812 22.027344 27.234375 21.878906 27.449219 21.722656 C 28.792969 20.734375 29.441406 19.609375 29.328125 18.472656 C 29.238281 17.558594 28.496094 16.839844 27.605469 16.796875 C 27.203125 16.777344 26.789062 16.917969 26.410156 17.203125 C 26.230469 17.339844 26.066406 17.496094 25.925781 17.660156 C 25.785156 17.496094 25.621094 17.339844 25.4375 17.203125 C 25.058594 16.917969 24.644531 16.777344 24.242188 16.796875 C 23.351562 16.839844 22.613281 17.558594 22.523438 18.472656 C 22.40625 19.609375 23.058594 20.734375 24.398438 21.722656 C 24.613281 21.878906 24.839844 22.027344 25.074219 22.152344 C 25.273438 22.261719 25.4375 22.34375 25.605469 22.417969 C 25.707031 22.460938 25.816406 22.480469 25.925781 22.480469 C 25.929688 22.480469 25.933594 22.480469 25.9375 22.480469 Z M 25.417969 21.53125 C 25.210938 21.417969 25.011719 21.289062 24.820312 21.152344 C 24.035156 20.570312 23.117188 19.648438 23.230469 18.542969 C 23.285156 17.988281 23.746094 17.53125 24.277344 17.507812 C 24.289062 17.507812 24.300781 17.507812 24.3125 17.507812 C 24.597656 17.507812 24.847656 17.648438 25.011719 17.773438 C 25.203125 17.917969 25.371094 18.085938 25.496094 18.261719 C 25.59375 18.402344 25.753906 18.484375 25.925781 18.484375 C 26.097656 18.484375 26.257812 18.398438 26.355469 18.261719 C 26.480469 18.085938 26.648438 17.917969 26.839844 17.773438 C 27.007812 17.644531 27.277344 17.492188 27.574219 17.507812 C 28.105469 17.53125 28.566406 17.988281 28.621094 18.542969 C 28.730469 19.648438 27.816406 20.570312 27.027344 21.152344 C 26.839844 21.289062 26.640625 21.417969 26.429688 21.53125 C 26.253906 21.628906 26.113281 21.699219 25.96875 21.761719 C 25.953125 21.765625 25.941406 21.769531 25.925781 21.769531 C 25.910156 21.769531 25.898438 21.765625 25.882812 21.761719 C 25.738281 21.699219 25.59375 21.628906 25.417969 21.53125 Z M 25.417969 21.53125 " fill-opacity="1" fill-rule="nonzero"/></svg>