<svg xmlns="http://www.w3.org/2000/svg" xmlns:xlink="http://www.w3.org/1999/xlink" width="70" zoomAndPan="magnify" viewBox="0 0 52.5 52.499999" height="70" preserveAspectRatio="xMidYMid meet" version="1.0"><defs><clipPath id="01fd08615e"><path d="M 0 0 L 52.003906 0 L 52.003906 52.003906 L 0 52.003906 Z M 0 0 " clip-rule="nonzero"/></clipPath><clipPath id="2149c6beb6"><path d="M 2.140625 12.757812 L 51.175781 12.757812 L 51.175781 40.246094 L 2.140625 40.246094 Z M 2.140625 12.757812 " clip-rule="nonzero"/></clipPath></defs><g clip-path="url(#01fd08615e)"><path fill="#ffffff" d="M 0 0 L 52.003906 0 L 52.003906 52.003906 L 0 52.003906 Z M 0 0 " fill-opacity="1" fill-rule="nonzero"/><path fill="#ffffff" d="M 0 0 L 52.003906 0 L 52.003906 52.003906 L 0 52.003906 Z M 0 0 " fill-opacity="1" fill-rule="nonzero"/></g><g clip-path="url(#2149c6beb6)"><path fill="#ffffff" d="M 50.75 23.046875 C 50.742188 23.050781 49.238281 23.527344 47.019531 22.875 C 46.320312 22.671875 45.625 22.550781 44.953125 22.515625 L 44.816406 22.507812 L 44.882812 22.386719 C 45.289062 21.65625 45.886719 20.136719 45.367188 18.175781 L 45.332031 18.054688 L 45.207031 18.050781 C 44.90625 18.039062 42.210938 18.011719 40.835938 19.933594 L 40.714844 20.101562 L 40.679688 19.894531 C 40.203125 17 39.125 14.558594 39.082031 14.453125 L 38.9375 14.132812 L 38.773438 14.441406 C 38.769531 14.453125 38.101562 15.664062 36.03125 16.707031 C 35.765625 16.839844 35.515625 16.992188 35.234375 17.191406 L 35.113281 17.273438 L 35.097656 17.125 C 34.875 14.910156 31.976562 12.988281 31.855469 12.90625 L 31.761719 12.847656 L 31.675781 12.925781 C 29.433594 14.382812 28.769531 15.589844 28.605469 16.351562 L 28.574219 16.5 L 28.464844 16.394531 C 27.554688 15.542969 26.921875 15.003906 26.894531 14.980469 L 26.804688 14.902344 L 26.699219 14.964844 C 26.695312 14.96875 25.785156 15.519531 24.59375 16.460938 L 24.484375 16.546875 L 24.457031 16.410156 C 24.347656 15.777344 23.796875 14.492188 21.347656 12.996094 L 21.253906 12.933594 L 21.164062 13 C 21.042969 13.082031 18.191406 15.089844 18.03125 17.316406 L 18.019531 17.464844 L 17.898438 17.382812 C 17.609375 17.191406 17.355469 17.042969 17.09375 16.910156 C 14.996094 15.894531 14.289062 14.726562 14.285156 14.714844 L 14.109375 14.425781 L 13.976562 14.738281 C 13.9375 14.835938 12.992188 17.140625 12.566406 19.925781 L 12.550781 20.128906 L 12.429688 19.960938 C 10.902344 17.839844 8.039062 18.328125 8.011719 18.335938 L 7.898438 18.355469 L 7.871094 18.464844 C 7.378906 20.460938 7.976562 22.0625 8.375 22.84375 L 8.4375 22.953125 L 8.3125 22.964844 C 7.652344 23.019531 6.972656 23.164062 6.289062 23.382812 C 4.109375 24.09375 2.578125 23.664062 2.5625 23.65625 L 2.261719 23.570312 L 2.34375 23.871094 C 2.398438 24.058594 3.734375 28.472656 9.0625 31.519531 C 9.964844 32.039062 10.980469 32.449219 12.074219 32.730469 L 12.386719 32.8125 L 12.074219 32.894531 C 11.332031 33.097656 10.5625 33.441406 9.796875 33.917969 C 8.589844 34.671875 7.257812 34.765625 7.25 34.765625 L 6.886719 34.785156 L 7.136719 35.050781 C 7.171875 35.082031 10.097656 38.085938 14.734375 38.085938 C 16.277344 38.085938 17.851562 37.738281 19.417969 37.058594 L 19.488281 37.03125 L 19.527344 37.097656 C 19.785156 37.546875 20.167969 37.976562 20.660156 38.367188 L 20.726562 38.417969 L 20.726562 38.421875 C 20.742188 38.433594 20.765625 38.453125 20.792969 38.472656 C 22.238281 39.542969 24.320312 40.164062 26.523438 40.175781 L 26.628906 40.175781 C 28.484375 40.175781 32.960938 39.882812 34.425781 37.164062 L 34.460938 37.097656 L 34.535156 37.128906 C 36.0625 37.789062 37.589844 38.125 39.082031 38.125 C 39.082031 38.125 39.082031 38.125 39.085938 38.125 C 43.726562 38.125 46.585938 34.972656 46.613281 34.941406 L 46.84375 34.683594 L 46.5 34.660156 C 46.488281 34.660156 45.15625 34.566406 43.953125 33.8125 C 43.09375 33.28125 42.238281 32.910156 41.410156 32.726562 L 41.109375 32.660156 L 41.398438 32.566406 C 42.46875 32.214844 43.503906 31.71875 44.472656 31.101562 C 49.65625 27.820312 50.921875 23.453125 50.972656 23.273438 L 51.054688 22.964844 Z M 50.75 23.046875 " fill-opacity="1" fill-rule="nonzero"/><path fill="#c09b48" d="M 50.722656 22.96875 C 50.707031 22.976562 49.246094 23.441406 47.042969 22.800781 C 46.28125 22.578125 45.589844 22.464844 44.960938 22.429688 C 45.347656 21.734375 45.984375 20.171875 45.449219 18.164062 L 45.398438 17.984375 L 45.210938 17.976562 C 45.074219 17.972656 42.203125 17.890625 40.769531 19.894531 C 40.292969 17.007812 39.234375 14.59375 39.164062 14.4375 L 38.949219 13.964844 L 38.703125 14.425781 C 38.699219 14.4375 38.046875 15.625 35.996094 16.65625 C 35.699219 16.804688 35.4375 16.964844 35.191406 17.140625 C 34.957031 14.894531 32.035156 12.957031 31.902344 12.867188 L 31.765625 12.757812 L 31.628906 12.847656 C 29.308594 14.359375 28.675781 15.617188 28.523438 16.332031 C 27.609375 15.476562 26.96875 14.929688 26.957031 14.921875 L 26.820312 14.800781 L 26.660156 14.894531 C 26.644531 14.902344 25.734375 15.453125 24.550781 16.394531 C 24.425781 15.683594 23.824219 14.402344 21.402344 12.925781 L 21.257812 12.835938 L 21.121094 12.929688 C 20.988281 13.023438 18.117188 15.042969 17.953125 17.300781 C 17.707031 17.136719 17.4375 16.976562 17.136719 16.832031 C 15.066406 15.828125 14.371094 14.683594 14.367188 14.671875 L 14.109375 14.234375 L 13.910156 14.707031 C 13.84375 14.863281 12.917969 17.140625 12.496094 19.90625 C 10.9375 17.746094 8.019531 18.242188 7.992188 18.246094 L 7.828125 18.273438 L 7.789062 18.433594 C 7.28125 20.496094 7.933594 22.152344 8.300781 22.867188 C 7.679688 22.921875 7.007812 23.050781 6.261719 23.289062 C 4.09375 23.992188 2.601562 23.570312 2.585938 23.5625 L 2.140625 23.4375 L 2.273438 23.882812 C 2.328125 24.070312 3.671875 28.519531 9.027344 31.582031 C 10.003906 32.136719 11.027344 32.53125 12.058594 32.800781 C 11.421875 32.972656 10.644531 33.285156 9.761719 33.835938 C 8.585938 34.574219 7.265625 34.667969 7.25 34.667969 L 6.699219 34.703125 L 7.078125 35.101562 C 7.117188 35.140625 10.082031 38.15625 14.726562 38.15625 C 16.152344 38.15625 17.734375 37.871094 19.445312 37.136719 C 20.464844 38.910156 23.308594 40.230469 26.519531 40.246094 C 26.550781 40.246094 26.589844 40.246094 26.628906 40.246094 C 28.621094 40.246094 33.023438 39.921875 34.496094 37.191406 C 36.160156 37.910156 37.695312 38.191406 39.074219 38.191406 C 43.738281 38.191406 46.632812 35.023438 46.671875 34.980469 L 47.019531 34.589844 L 46.5 34.554688 C 46.488281 34.554688 45.167969 34.460938 43.984375 33.726562 C 42.972656 33.09375 42.101562 32.78125 41.425781 32.625 C 42.433594 32.289062 43.46875 31.816406 44.511719 31.15625 C 49.722656 27.859375 51 23.464844 51.046875 23.277344 L 51.171875 22.816406 Z M 45.003906 18.484375 C 45.46875 20.511719 44.621094 22.03125 44.367188 22.421875 C 43.300781 22.453125 42.441406 22.722656 41.773438 23.0625 C 41.808594 23.03125 41.84375 22.996094 41.882812 22.964844 C 42.210938 22.644531 42.511719 22.304688 42.785156 21.941406 C 43.066406 21.585938 43.300781 21.195312 43.507812 20.792969 C 43.722656 20.398438 43.863281 19.960938 43.992188 19.535156 C 43.828125 19.953125 43.644531 20.359375 43.398438 20.726562 C 43.164062 21.101562 42.894531 21.453125 42.59375 21.777344 C 42.296875 22.101562 41.972656 22.398438 41.628906 22.671875 C 41.421875 22.839844 41.203125 22.996094 40.976562 23.144531 C 41.019531 22.328125 40.976562 21.503906 40.878906 20.695312 C 41.835938 18.71875 44.304688 18.5 45.003906 18.484375 Z M 36.226562 17.097656 C 37.699219 16.355469 38.5 15.542969 38.878906 15.0625 C 39.476562 16.5625 41.300781 21.699219 40.074219 25.402344 C 39.3125 27.695312 37.125 29.921875 34.363281 31.207031 C 32.835938 31.921875 31.378906 32.226562 30.207031 32.097656 C 30.492188 32.011719 30.765625 31.910156 31.027344 31.808594 C 32.457031 31.566406 33.757812 30.960938 34.882812 30.113281 C 36.019531 29.261719 36.917969 28.121094 37.53125 26.863281 C 38.148438 25.597656 38.472656 24.21875 38.621094 22.832031 C 38.769531 21.445312 38.714844 20.050781 38.554688 18.671875 C 38.671875 20.050781 38.679688 21.445312 38.496094 22.816406 C 38.308594 24.183594 37.949219 25.53125 37.304688 26.746094 C 36.671875 27.957031 35.773438 29.023438 34.660156 29.804688 C 34.039062 30.246094 33.355469 30.609375 32.644531 30.871094 C 33.011719 30.585938 33.335938 30.265625 33.613281 29.914062 C 33.71875 29.832031 33.765625 29.777344 33.84375 29.710938 L 34.074219 29.480469 C 34.214844 29.320312 34.363281 29.160156 34.496094 28.992188 C 34.769531 28.660156 35.015625 28.308594 35.25 27.953125 C 35.710938 27.230469 36.085938 26.457031 36.351562 25.648438 C 36.632812 24.839844 36.769531 23.992188 36.792969 23.144531 C 36.839844 22.300781 36.683594 21.457031 36.496094 20.640625 C 36.636719 21.464844 36.753906 22.304688 36.664062 23.136719 C 36.597656 23.964844 36.425781 24.789062 36.117188 25.558594 C 35.816406 26.335938 35.421875 27.066406 34.9375 27.738281 C 34.800781 27.925781 34.664062 28.105469 34.523438 28.289062 C 35.277344 26.121094 34.773438 23.394531 33.1875 21.320312 C 33.179688 21.308594 33.167969 21.296875 33.164062 21.292969 C 33.230469 20.769531 33.738281 18.347656 36.226562 17.097656 Z M 31.761719 13.371094 C 32.363281 13.796875 34.785156 15.628906 34.691406 17.503906 C 33.410156 18.617188 32.910156 19.988281 32.730469 20.753906 C 32.691406 20.710938 32.660156 20.667969 32.621094 20.621094 C 32.660156 20.195312 32.65625 19.785156 32.628906 19.375 C 32.601562 18.921875 32.546875 18.472656 32.472656 18.027344 C 32.390625 17.585938 32.304688 17.148438 32.179688 16.710938 C 32.0625 16.277344 31.914062 15.859375 31.761719 15.441406 C 31.875 15.871094 31.980469 16.304688 32.050781 16.738281 C 32.132812 17.175781 32.183594 17.613281 32.214844 18.054688 C 32.25 18.496094 32.261719 18.933594 32.242188 19.375 C 32.234375 19.621094 32.214844 19.867188 32.1875 20.109375 C 31.125 18.875 29.953125 17.691406 28.984375 16.769531 C 28.972656 16.488281 29.058594 15.171875 31.761719 13.371094 Z M 26.765625 15.429688 C 27.464844 16.042969 30.636719 18.855469 32.765625 21.625 C 34.375 23.71875 34.800781 26.523438 33.832031 28.589844 C 33.351562 29.613281 32.398438 30.785156 30.5 31.464844 C 30.796875 30.945312 31.023438 30.40625 31.207031 29.839844 C 31.460938 29.058594 31.625 28.242188 31.683594 27.429688 C 31.703125 27.226562 31.703125 27.023438 31.707031 26.820312 L 31.71875 26.511719 L 31.703125 26.203125 L 31.667969 25.59375 L 31.585938 24.988281 C 31.546875 24.582031 31.433594 24.191406 31.355469 23.796875 C 31.257812 23.40625 31.125 23.019531 31.015625 22.636719 C 31.109375 23.03125 31.21875 23.414062 31.296875 23.8125 C 31.351562 24.214844 31.449219 24.601562 31.460938 25.003906 L 31.507812 25.605469 L 31.507812 26.507812 L 31.488281 26.804688 C 31.472656 27 31.460938 27.203125 31.433594 27.398438 C 31.335938 28.1875 31.132812 28.964844 30.851562 29.699219 C 30.578125 30.410156 30.210938 31.109375 29.765625 31.6875 C 29.460938 31.761719 29.132812 31.835938 28.785156 31.890625 C 29.109375 31.125 29.308594 30.34375 29.453125 29.542969 C 29.628906 28.589844 29.695312 27.628906 29.703125 26.671875 C 29.683594 26.191406 29.679688 25.714844 29.628906 25.234375 C 29.597656 24.757812 29.527344 24.285156 29.453125 23.8125 C 29.390625 23.339844 29.269531 22.875 29.175781 22.410156 C 29.058594 21.949219 28.929688 21.484375 28.808594 21.027344 C 28.914062 21.496094 29.023438 21.957031 29.113281 22.425781 C 29.1875 22.898438 29.285156 23.359375 29.328125 23.832031 C 29.378906 24.304688 29.433594 24.78125 29.445312 25.253906 C 29.476562 25.726562 29.460938 26.199219 29.453125 26.671875 C 29.410156 27.617188 29.300781 28.558594 29.09375 29.46875 C 28.890625 30.332031 28.617188 31.210938 28.214844 31.964844 C 27.925781 32 27.625 32.015625 27.300781 32.03125 C 27.300781 31.542969 27.273438 31.085938 27.253906 30.613281 L 27.164062 28.9375 L 26.976562 25.585938 L 26.617188 18.890625 L 26.726562 25.597656 L 26.785156 28.953125 L 26.808594 30.628906 C 26.808594 31.097656 26.820312 31.585938 26.804688 32.042969 C 26.589844 32.039062 26.316406 32.027344 26.003906 31.992188 C 25.574219 31.230469 25.242188 30.378906 24.976562 29.519531 C 24.703125 28.613281 24.496094 27.683594 24.390625 26.738281 C 24.289062 25.792969 24.234375 24.835938 24.300781 23.882812 C 24.308594 23.40625 24.382812 22.933594 24.429688 22.453125 C 24.492188 21.980469 24.601562 21.511719 24.683594 21.039062 C 24.578125 21.507812 24.453125 21.96875 24.371094 22.449219 C 24.300781 22.921875 24.207031 23.394531 24.171875 23.878906 C 24.0625 24.835938 24.074219 25.800781 24.140625 26.765625 C 24.207031 27.730469 24.375 28.6875 24.613281 29.628906 C 24.8125 30.414062 25.066406 31.175781 25.40625 31.921875 C 25.125 31.878906 24.832031 31.824219 24.519531 31.746094 C 23.953125 31.222656 23.457031 30.574219 23.050781 29.894531 C 22.632812 29.179688 22.300781 28.410156 22.097656 27.605469 C 21.898438 26.796875 21.769531 25.960938 21.804688 25.125 C 21.789062 24.703125 21.867188 24.289062 21.90625 23.871094 C 21.960938 23.453125 22.070312 23.046875 22.152344 22.628906 C 22.050781 23.035156 21.921875 23.441406 21.84375 23.859375 C 21.785156 24.277344 21.691406 24.695312 21.683594 25.121094 C 21.609375 25.96875 21.691406 26.824219 21.855469 27.667969 C 22.019531 28.507812 22.328125 29.320312 22.726562 30.085938 C 22.984375 30.574219 23.28125 31.042969 23.621094 31.480469 C 21.679688 30.789062 19.648438 29.265625 19.355469 25.972656 C 18.871094 20.726562 25.648438 16.144531 26.765625 15.429688 Z M 21.28125 13.453125 C 24.003906 15.160156 24.089844 16.480469 24.070312 16.785156 C 23.582031 17.1875 23.066406 17.648438 22.5625 18.152344 C 21.960938 18.746094 21.433594 19.351562 20.972656 19.953125 C 20.953125 19.742188 20.933594 19.523438 20.925781 19.3125 C 20.90625 18.894531 20.914062 18.472656 20.941406 18.050781 C 20.972656 17.625 21.015625 17.203125 21.082031 16.785156 C 21.148438 16.359375 21.234375 15.941406 21.335938 15.53125 C 21.199219 15.9375 21.066406 16.34375 20.957031 16.761719 C 20.847656 17.179688 20.757812 17.597656 20.683594 18.027344 C 20.613281 18.457031 20.5625 18.882812 20.535156 19.320312 C 20.511719 19.71875 20.507812 20.109375 20.546875 20.535156 C 20.484375 20.628906 20.417969 20.714844 20.363281 20.808594 C 20.195312 20.027344 19.730469 18.753906 18.457031 17.695312 C 18.304688 15.804688 20.683594 13.898438 21.28125 13.453125 Z M 14.21875 15.328125 C 14.605469 15.789062 15.433594 16.574219 16.914062 17.296875 C 19.664062 18.632812 19.925781 21.0625 19.953125 21.472656 C 19.082031 23.019531 18.699219 24.546875 18.824219 26 C 18.886719 26.6875 19.015625 27.296875 19.203125 27.847656 C 18.957031 27.582031 18.738281 27.296875 18.523438 27 C 18.074219 26.367188 17.71875 25.671875 17.457031 24.933594 C 17.308594 24.570312 17.230469 24.183594 17.132812 23.804688 C 17.070312 23.421875 16.988281 23.03125 16.984375 22.640625 C 16.914062 21.855469 17.007812 21.0625 17.121094 20.28125 C 16.960938 21.058594 16.824219 21.847656 16.851562 22.644531 C 16.84375 23.046875 16.902344 23.441406 16.941406 23.839844 C 17.015625 24.230469 17.078125 24.632812 17.210938 25.011719 C 17.4375 25.78125 17.769531 26.523438 18.199219 27.210938 C 18.421875 27.550781 18.648438 27.878906 18.914062 28.195312 C 19.039062 28.355469 19.175781 28.503906 19.320312 28.652344 L 19.539062 28.863281 C 19.601562 28.925781 19.652344 28.96875 19.734375 29.035156 C 20.019531 29.519531 20.347656 29.9375 20.714844 30.300781 C 20.058594 29.976562 19.433594 29.5625 18.863281 29.101562 C 17.828125 28.253906 16.984375 27.175781 16.367188 25.976562 C 16.054688 25.378906 15.8125 24.742188 15.609375 24.097656 C 15.417969 23.449219 15.265625 22.785156 15.171875 22.105469 C 14.96875 20.757812 14.945312 19.386719 15.042969 18.019531 C 14.902344 19.378906 14.878906 20.757812 15.042969 22.125 C 15.117188 22.804688 15.257812 23.480469 15.429688 24.148438 C 15.621094 24.808594 15.839844 25.460938 16.140625 26.089844 C 16.738281 27.335938 17.570312 28.480469 18.621094 29.394531 C 19.660156 30.289062 20.839844 31 22.195312 31.390625 C 22.628906 31.628906 23.078125 31.816406 23.515625 31.972656 C 22.289062 32.195312 20.6875 31.9375 19.054688 31.234375 C 16.316406 30.046875 14.113281 27.925781 13.308594 25.699219 C 11.976562 22.03125 13.667969 16.832031 14.21875 15.328125 Z M 8.246094 18.730469 C 8.898438 18.660156 11.308594 18.558594 12.394531 20.714844 C 12.292969 21.628906 12.261719 22.574219 12.339844 23.503906 C 12.152344 23.351562 11.964844 23.191406 11.789062 23.023438 C 11.46875 22.71875 11.160156 22.394531 10.875 22.046875 C 10.585938 21.707031 10.328125 21.335938 10.097656 20.953125 C 9.855469 20.574219 9.671875 20.160156 9.5 19.738281 C 9.632812 20.171875 9.78125 20.605469 9.988281 21.011719 C 10.183594 21.425781 10.414062 21.820312 10.679688 22.199219 C 10.9375 22.578125 11.21875 22.941406 11.523438 23.289062 C 11.585938 23.359375 11.652344 23.433594 11.71875 23.503906 C 11.007812 23.128906 10.070312 22.839844 8.875 22.84375 C 8.617188 22.410156 7.800781 20.792969 8.246094 18.730469 Z M 6.421875 23.785156 C 8.855469 22.996094 11.011719 23.316406 12.496094 24.675781 C 12.578125 25.085938 12.6875 25.488281 12.824219 25.878906 C 13.652344 28.167969 15.851562 30.339844 18.59375 31.597656 C 18.117188 31.519531 17.640625 31.417969 17.183594 31.285156 C 16.117188 30.988281 15.101562 30.535156 14.164062 29.953125 L 13.804688 29.738281 C 13.691406 29.664062 13.582031 29.574219 13.472656 29.492188 C 13.253906 29.320312 13.023438 29.167969 12.816406 28.984375 L 12.203125 28.417969 L 12.046875 28.277344 L 11.910156 28.117188 L 11.636719 27.804688 C 11.246094 27.402344 10.945312 26.929688 10.625 26.472656 C 10.453125 26.253906 10.339844 25.996094 10.195312 25.753906 L 9.789062 25.015625 L 10.164062 25.769531 C 10.292969 26.015625 10.398438 26.28125 10.5625 26.511719 C 10.871094 26.984375 11.15625 27.46875 11.53125 27.890625 L 11.800781 28.222656 L 11.933594 28.386719 L 12.082031 28.535156 L 12.683594 29.132812 C 12.886719 29.332031 13.117188 29.496094 13.335938 29.679688 C 13.445312 29.765625 13.554688 29.859375 13.664062 29.941406 L 14.015625 30.179688 C 14.953125 30.816406 15.980469 31.316406 17.0625 31.664062 L 17.878906 31.898438 C 18.15625 31.960938 18.429688 32.03125 18.710938 32.082031 C 19.253906 32.179688 19.796875 32.253906 20.363281 32.269531 C 20.46875 32.296875 20.574219 32.324219 20.675781 32.351562 C 19.707031 32.550781 18.238281 32.773438 16.558594 32.800781 C 15.355469 32.699219 13.9375 32.351562 12.21875 30.046875 C 10.84375 28.210938 9.242188 27.308594 7.332031 27.304688 C 5.222656 27.292969 3.867188 26.015625 3.851562 26 L 3.839844 26.015625 C 3.347656 25.230469 3.050781 24.570312 2.890625 24.175781 C 3.550781 24.246094 4.804688 24.304688 6.421875 23.785156 Z M 4.632812 27.117188 C 5.292969 27.460938 6.21875 27.792969 7.347656 27.796875 C 9.089844 27.804688 10.558594 28.640625 11.828125 30.339844 C 12.722656 31.539062 13.550781 32.257812 14.367188 32.691406 C 12.660156 32.515625 10.886719 32.066406 9.28125 31.148438 C 7.128906 29.910156 5.636719 28.429688 4.632812 27.117188 Z M 7.839844 35.105469 C 8.375 35.007812 9.226562 34.777344 10.03125 34.277344 C 11.867188 33.132812 13.199219 33.097656 13.605469 33.121094 C 14.523438 33.257812 15.433594 33.3125 16.292969 33.3125 C 17.679688 33.3125 18.941406 33.171875 19.925781 33.003906 C 19.476562 33.285156 19 33.542969 18.523438 33.773438 C 17.757812 34.144531 16.960938 34.472656 16.144531 34.726562 C 15.328125 34.980469 14.496094 35.195312 13.648438 35.324219 C 12.804688 35.480469 11.945312 35.539062 11.078125 35.578125 C 11.9375 35.585938 12.804688 35.5625 13.664062 35.453125 C 14.523438 35.363281 15.375 35.183594 16.21875 34.96875 C 17.0625 34.753906 17.882812 34.460938 18.683594 34.121094 C 19.109375 33.941406 19.527344 33.742188 19.933594 33.523438 C 19.375 34.121094 18.96875 34.925781 19.066406 35.964844 C 19.089844 36.207031 19.148438 36.441406 19.238281 36.667969 C 13.429688 39.179688 9.121094 36.183594 7.839844 35.105469 Z M 26.527344 39.742188 C 25.328125 39.734375 24.179688 39.53125 23.164062 39.191406 C 24.195312 39.175781 25.511719 38.839844 27.054688 37.777344 C 27.515625 38.121094 28.945312 39.058594 30.902344 39.191406 C 29.300781 39.675781 27.542969 39.753906 26.527344 39.742188 Z M 32.289062 38.621094 C 29.40625 39.046875 27.246094 37.277344 27.226562 37.261719 L 27.070312 37.136719 L 26.914062 37.25 C 23.558594 39.640625 21.410156 38.378906 20.996094 38.085938 C 20.171875 37.464844 19.648438 36.71875 19.570312 35.917969 C 19.351562 33.683594 22.003906 32.707031 22.414062 32.570312 C 22.46875 32.570312 22.523438 32.570312 22.578125 32.570312 C 22.785156 32.570312 22.996094 32.558594 23.191406 32.539062 C 23.160156 32.570312 23.125 32.597656 23.089844 32.632812 C 22.730469 32.96875 22.414062 33.347656 22.15625 33.757812 C 21.894531 34.164062 21.691406 34.617188 21.566406 35.082031 C 21.421875 35.546875 21.390625 36.03125 21.378906 36.507812 C 21.433594 36.035156 21.503906 35.5625 21.683594 35.128906 C 21.851562 34.6875 22.078125 34.277344 22.363281 33.90625 C 22.644531 33.539062 22.972656 33.207031 23.339844 32.921875 C 23.679688 32.660156 24.0625 32.417969 24.4375 32.242188 C 24.546875 32.269531 24.648438 32.289062 24.753906 32.3125 C 24.519531 32.578125 24.332031 32.863281 24.15625 33.160156 C 23.90625 33.59375 23.707031 34.0625 23.554688 34.535156 C 23.40625 35.011719 23.308594 35.496094 23.246094 35.984375 C 23.207031 36.226562 23.207031 36.476562 23.1875 36.722656 L 23.179688 37.460938 L 23.253906 36.726562 C 23.296875 36.484375 23.316406 36.246094 23.378906 36.007812 C 23.476562 35.535156 23.621094 35.066406 23.800781 34.621094 C 23.988281 34.175781 24.210938 33.753906 24.484375 33.367188 C 24.738281 33.015625 25.039062 32.671875 25.355469 32.421875 C 25.554688 32.449219 25.738281 32.476562 25.914062 32.492188 C 25.75 32.785156 25.621094 33.082031 25.5 33.386719 C 25.328125 33.820312 25.207031 34.277344 25.132812 34.730469 C 25.050781 35.1875 25.035156 35.65625 25.070312 36.117188 C 25.09375 36.578125 25.226562 37.023438 25.363281 37.460938 C 25.261719 37.015625 25.179688 36.570312 25.199219 36.117188 C 25.203125 35.667969 25.257812 35.222656 25.378906 34.792969 C 25.492188 34.363281 25.652344 33.945312 25.847656 33.542969 C 26.023438 33.191406 26.238281 32.839844 26.46875 32.539062 C 26.59375 32.542969 26.710938 32.550781 26.8125 32.550781 C 26.960938 34.023438 27.058594 35.511719 27.109375 37.003906 C 27.21875 35.523438 27.28125 34.039062 27.296875 32.550781 C 27.476562 32.542969 27.652344 32.53125 27.828125 32.523438 C 28.101562 32.785156 28.355469 33.125 28.550781 33.476562 C 28.765625 33.859375 28.933594 34.269531 29.027344 34.699219 C 29.121094 35.128906 29.175781 35.578125 29.140625 36.023438 C 29.140625 36.25 29.09375 36.46875 29.066406 36.695312 C 29.027344 36.914062 28.957031 37.136719 28.90625 37.355469 C 28.976562 37.140625 29.070312 36.929688 29.132812 36.710938 C 29.179688 36.492188 29.253906 36.273438 29.273438 36.039062 C 29.351562 35.585938 29.339844 35.117188 29.285156 34.65625 C 29.226562 34.191406 29.085938 33.738281 28.894531 33.308594 C 28.765625 33.011719 28.605469 32.734375 28.417969 32.464844 C 28.636719 32.4375 28.859375 32.40625 29.066406 32.367188 C 29.382812 32.636719 29.683594 32.984375 29.921875 33.347656 C 30.1875 33.746094 30.402344 34.1875 30.535156 34.65625 C 30.671875 35.121094 30.753906 35.613281 30.738281 36.105469 C 30.746094 36.355469 30.710938 36.601562 30.6875 36.847656 C 30.65625 37.097656 30.589844 37.339844 30.539062 37.582031 C 30.605469 37.339844 30.691406 37.101562 30.746094 36.859375 C 30.792969 36.613281 30.859375 36.363281 30.863281 36.113281 C 30.921875 35.605469 30.878906 35.09375 30.773438 34.59375 C 30.675781 34.089844 30.492188 33.605469 30.238281 33.148438 C 30.125 32.945312 30.003906 32.746094 29.867188 32.558594 C 30.132812 32.605469 30.417969 32.625 30.714844 32.632812 C 31.023438 32.863281 31.3125 33.160156 31.558594 33.472656 C 31.820312 33.8125 32.035156 34.199219 32.179688 34.609375 C 32.324219 35.023438 32.402344 35.464844 32.386719 35.910156 C 32.390625 36.355469 32.277344 36.792969 32.152344 37.226562 C 32.320312 36.8125 32.472656 36.375 32.511719 35.917969 C 32.574219 35.464844 32.539062 34.996094 32.425781 34.546875 C 32.316406 34.09375 32.125 33.660156 31.871094 33.257812 C 31.722656 33.027344 31.5625 32.808594 31.382812 32.605469 C 31.480469 32.59375 31.574219 32.582031 31.675781 32.570312 C 32.167969 32.839844 35.070312 34.554688 34.210938 36.644531 C 33.839844 37.527344 33.136719 38.164062 32.289062 38.621094 Z M 40.039062 33.015625 C 40.199219 32.996094 41.632812 32.855469 43.722656 34.160156 C 44.542969 34.671875 45.410156 34.898438 45.945312 34.996094 C 44.746094 36.113281 40.625 39.285156 34.71875 36.726562 C 35.1875 35.464844 34.59375 34.367188 33.820312 33.554688 C 34.03125 33.664062 34.238281 33.769531 34.453125 33.867188 C 35.304688 34.277344 36.195312 34.617188 37.105469 34.871094 C 38.007812 35.128906 38.9375 35.320312 39.875 35.414062 C 40.808594 35.53125 41.753906 35.511719 42.6875 35.46875 C 41.75 35.472656 40.8125 35.445312 39.890625 35.289062 C 38.964844 35.15625 38.0625 34.925781 37.179688 34.628906 C 36.296875 34.335938 35.445312 33.960938 34.628906 33.527344 C 34.277344 33.339844 33.9375 33.144531 33.597656 32.933594 C 34.453125 33.136719 35.617188 33.328125 36.984375 33.335938 L 36.984375 33.339844 C 36.992188 33.339844 37.003906 33.335938 37.015625 33.335938 C 37.015625 33.335938 37.019531 33.335938 37.019531 33.335938 C 37.953125 33.335938 38.972656 33.246094 40.046875 33.011719 Z M 44.242188 30.730469 C 42.347656 31.925781 40.460938 32.5 38.765625 32.714844 C 40.03125 32.085938 41.183594 31.125 41.957031 30.003906 C 43.195312 28.210938 43.96875 27.574219 46.105469 27.320312 C 47.273438 27.183594 48.171875 26.8125 48.8125 26.445312 C 47.84375 27.804688 46.386719 29.371094 44.242188 30.730469 Z M 49.617188 25.195312 C 49.414062 25.410156 48.246094 26.550781 46.046875 26.8125 C 43.726562 27.089844 42.851562 27.816406 41.535156 29.710938 C 40.269531 31.542969 38.292969 32.527344 36.9375 32.824219 C 35.230469 32.820312 33.84375 32.5 33.03125 32.257812 C 33.113281 32.230469 33.203125 32.207031 33.285156 32.179688 C 34.441406 32.179688 35.542969 31.964844 36.605469 31.601562 C 37.683594 31.234375 38.714844 30.710938 39.613281 30.015625 C 39.855469 29.859375 40.050781 29.65625 40.269531 29.476562 C 40.484375 29.289062 40.703125 29.105469 40.882812 28.886719 L 41.460938 28.261719 C 41.632812 28.039062 41.792969 27.804688 41.964844 27.578125 L 42.214844 27.238281 C 42.296875 27.121094 42.359375 26.996094 42.433594 26.875 L 42.855469 26.144531 C 43.121094 25.644531 43.324219 25.113281 43.558594 24.609375 C 43.304688 25.109375 43.082031 25.625 42.800781 26.117188 L 42.351562 26.824219 C 42.277344 26.941406 42.210938 27.066406 42.121094 27.175781 L 41.859375 27.507812 C 41.683594 27.726562 41.515625 27.945312 41.339844 28.160156 L 40.753906 28.753906 C 40.566406 28.964844 40.339844 29.128906 40.128906 29.304688 C 39.910156 29.476562 39.707031 29.667969 39.464844 29.8125 C 38.5625 30.453125 37.542969 30.921875 36.488281 31.242188 C 35.902344 31.417969 35.289062 31.542969 34.683594 31.613281 C 37.515625 30.261719 39.753906 27.945312 40.550781 25.558594 C 40.679688 25.167969 40.773438 24.761719 40.847656 24.351562 C 42.292969 22.949219 44.441406 22.570312 46.894531 23.289062 C 48.515625 23.761719 49.765625 23.675781 50.40625 23.5625 C 50.269531 23.925781 50.023438 24.5 49.617188 25.195312 Z M 49.617188 25.195312 " fill-opacity="1" fill-rule="nonzero"/></g></svg>