<svg xmlns="http://www.w3.org/2000/svg" xmlns:xlink="http://www.w3.org/1999/xlink" width="70" zoomAndPan="magnify" viewBox="0 0 52.5 52.499999" height="70" preserveAspectRatio="xMidYMid meet" version="1.0"><defs><clipPath id="edfd27bdeb"><path d="M 1.820312 2 L 50.113281 2 L 50.113281 50.417969 L 1.820312 50.417969 Z M 1.820312 2 " clip-rule="nonzero"/></clipPath></defs><g clip-path="url(#edfd27bdeb)"><path fill="#769a8c" d="M 14.394531 2.671875 C 14.085938 2.777344 14.054688 2.824219 14.027344 3.214844 C 14.007812 3.476562 13.925781 3.699219 13.820312 3.792969 C 13.722656 3.878906 13.5625 4.1875 13.472656 4.480469 C 13.332031 4.917969 13.140625 5.179688 12.417969 5.933594 C 10.214844 8.226562 9.832031 9.015625 10.179688 10.507812 C 10.265625 10.871094 10.332031 11.183594 10.332031 11.203125 C 10.332031 11.21875 10.152344 11.265625 9.929688 11.304688 C 9.707031 11.339844 9.222656 11.476562 8.847656 11.601562 C 8.476562 11.730469 7.796875 11.902344 7.34375 11.988281 C 6.886719 12.074219 6.378906 12.199219 6.210938 12.265625 C 5.828125 12.425781 5.46875 12.898438 5.136719 13.679688 C 4.894531 14.246094 4.871094 14.417969 4.855469 15.675781 L 4.839844 17.054688 L 4.273438 17.484375 C 3.363281 18.171875 2.632812 19.3125 2.898438 19.632812 C 2.957031 19.703125 3.066406 19.761719 3.136719 19.761719 C 3.375 19.761719 3.933594 20.347656 4.472656 21.15625 C 4.765625 21.597656 5.148438 22.054688 5.324219 22.175781 L 5.644531 22.394531 L 5.554688 23.320312 C 5.34375 25.46875 5.882812 27.421875 7.257812 29.511719 C 7.761719 30.273438 7.863281 30.511719 7.964844 31.105469 C 8.027344 31.492188 8.109375 31.871094 8.140625 31.949219 C 8.183594 32.054688 7.972656 32.230469 7.355469 32.597656 C 6.03125 33.386719 5.625 33.546875 3.5625 34.085938 C 2.527344 34.355469 2.527344 34.355469 2.207031 34.625 C 1.960938 34.832031 1.917969 34.9375 1.921875 35.320312 C 1.921875 35.566406 2.035156 36.117188 2.175781 36.542969 C 2.414062 37.265625 2.433594 37.484375 2.503906 39.832031 C 2.589844 42.839844 2.652344 43.128906 3.402344 43.921875 C 3.753906 44.296875 4.132812 44.566406 4.675781 44.832031 C 5.621094 45.289062 5.914062 45.289062 5.980469 44.820312 C 6.019531 44.550781 6.089844 44.46875 6.367188 44.371094 C 6.898438 44.179688 7.914062 44.203125 8.230469 44.410156 L 8.496094 44.585938 L 7.554688 44.957031 C 7.035156 45.160156 6.355469 45.453125 6.042969 45.609375 C 4.835938 46.210938 3.664062 47.691406 3.964844 48.230469 C 4.089844 48.453125 4.328125 48.433594 4.855469 48.152344 L 5.304688 47.914062 L 5.304688 48.199219 C 5.304688 48.355469 5.175781 48.6875 5.015625 48.933594 C 4.605469 49.585938 4.382812 50.292969 4.53125 50.476562 C 4.785156 50.78125 5.042969 50.667969 6.292969 49.714844 C 6.976562 49.195312 7.070312 49.148438 7.386719 49.207031 C 7.679688 49.261719 7.722656 49.304688 7.667969 49.46875 C 7.578125 49.757812 7.703125 50.300781 7.875 50.363281 C 8.109375 50.457031 8.535156 50.183594 9.015625 49.628906 C 9.5 49.078125 9.773438 48.574219 10.234375 47.378906 C 10.554688 46.550781 10.910156 45.984375 11.539062 45.3125 C 11.753906 45.082031 12.050781 44.714844 12.203125 44.492188 C 12.542969 43.988281 12.519531 43.804688 11.949219 42.472656 C 11.261719 40.878906 11.117188 40.113281 10.964844 37.28125 C 10.835938 34.929688 10.816406 34.765625 10.542969 34.058594 L 10.257812 33.316406 L 10.804688 33.261719 C 11.101562 33.230469 11.558594 33.160156 11.816406 33.109375 C 12.074219 33.058594 12.40625 33.015625 12.558594 33.015625 C 12.964844 33.015625 13.769531 32.828125 13.957031 32.691406 C 14.078125 32.601562 14.164062 32.21875 14.304688 31.125 C 14.695312 28.058594 14.652344 26.773438 14.097656 25.148438 C 13.640625 23.800781 13.320312 23.320312 11.960938 21.933594 C 11.277344 21.238281 10.71875 20.644531 10.71875 20.617188 C 10.71875 20.585938 10.957031 20.535156 11.25 20.5 C 11.914062 20.425781 12.664062 20.144531 13.289062 19.75 C 13.6875 19.496094 13.851562 19.449219 14.277344 19.464844 C 14.691406 19.480469 14.972656 19.402344 15.78125 19.054688 L 16.777344 18.628906 L 17.398438 18.757812 C 18.371094 18.960938 19.101562 18.929688 19.683594 18.65625 C 20.816406 18.132812 21.261719 16.742188 20.675781 15.589844 L 20.488281 15.226562 L 21.320312 15.609375 C 22.277344 16.046875 22.402344 16.066406 22.75 15.789062 C 23 15.59375 23.066406 15.304688 22.941406 14.980469 C 22.863281 14.777344 22.019531 14.347656 21.699219 14.347656 C 21.449219 14.347656 21.453125 14.34375 21.792969 14.046875 C 22.234375 13.660156 22.234375 13.414062 21.792969 13.230469 C 21.5 13.105469 21.414062 13.105469 21.128906 13.222656 C 20.949219 13.300781 20.773438 13.410156 20.734375 13.46875 C 20.667969 13.582031 19.710938 14.09375 19.675781 14.039062 C 19.484375 13.773438 19.292969 13.511719 19.105469 13.246094 C 18.800781 12.828125 18.554688 12.421875 18.554688 12.34375 C 18.554688 12.269531 18.746094 11.894531 18.976562 11.511719 C 20.273438 9.371094 20.835938 7.351562 20.601562 5.65625 C 20.421875 4.382812 19.824219 3.808594 18.582031 3.726562 C 17.972656 3.6875 17.785156 3.632812 17.398438 3.375 C 16.558594 2.808594 15.023438 2.449219 14.394531 2.671875 M 35.027344 6.136719 C 34.714844 6.226562 34.222656 6.71875 34.222656 6.945312 C 34.222656 7.070312 33.078125 7.90625 32.53125 8.179688 C 32.371094 8.257812 31.945312 8.347656 31.585938 8.375 C 30.859375 8.429688 30.539062 8.59375 30.246094 9.058594 C 30.078125 9.328125 30.058594 9.46875 30.109375 10.160156 C 30.15625 10.753906 30.132812 11.070312 30.019531 11.398438 C 29.726562 12.261719 29.871094 13.039062 30.402344 13.457031 L 30.644531 13.648438 L 30.25 14.242188 C 30.03125 14.566406 29.375 15.28125 28.789062 15.824219 C 27.433594 17.085938 26.601562 18.125 26.007812 19.28125 C 25.417969 20.429688 25.246094 21.011719 25.128906 22.226562 C 24.925781 24.320312 25.28125 26.027344 26.46875 28.6875 C 26.785156 29.390625 27.183594 30.402344 27.351562 30.933594 C 27.523438 31.464844 27.738281 32.03125 27.835938 32.191406 C 27.933594 32.351562 28.046875 32.632812 28.089844 32.820312 C 28.246094 33.511719 28.71875 35.074219 29.335938 36.933594 C 29.851562 38.488281 30.539062 40.871094 30.585938 41.269531 C 30.597656 41.382812 30.644531 41.59375 30.683594 41.734375 C 30.808594 42.164062 30.433594 42.546875 29.433594 43.023438 C 27.742188 43.832031 26.652344 44.246094 25.226562 44.621094 C 24.429688 44.828125 23.652344 45.066406 23.492188 45.148438 C 23.097656 45.355469 21.992188 46.132812 21.84375 46.3125 C 21.675781 46.511719 21.878906 46.75 22.214844 46.75 C 22.453125 46.75 22.449219 46.761719 22.082031 47.007812 C 21.601562 47.328125 21.542969 47.417969 21.660156 47.636719 C 21.773438 47.851562 22.214844 47.867188 22.476562 47.671875 C 22.960938 47.304688 22.914062 47.605469 22.402344 48.160156 C 21.953125 48.652344 21.972656 48.898438 22.464844 48.957031 C 22.714844 48.984375 22.84375 48.914062 23.921875 48.164062 C 24.027344 48.089844 24.238281 48 24.390625 47.964844 L 24.667969 47.902344 L 24.453125 48.199219 C 24.191406 48.570312 24.320312 48.78125 24.804688 48.78125 C 25.082031 48.78125 25.253906 48.664062 25.882812 48.070312 C 26.324219 47.648438 26.847656 47.257812 27.164062 47.113281 C 27.476562 46.96875 28.035156 46.550781 28.527344 46.097656 C 28.984375 45.671875 29.839844 44.972656 30.421875 44.539062 C 31.515625 43.734375 32.289062 42.988281 32.289062 42.746094 C 32.289062 42.667969 32.183594 42.15625 32.054688 41.605469 C 31.867188 40.792969 31.808594 40.226562 31.761719 38.585938 C 31.65625 35.21875 31.335938 34.089844 30.074219 32.695312 C 29.648438 32.226562 29.210938 31.65625 29.101562 31.425781 C 28.894531 31.003906 28.730469 30.210938 28.671875 29.355469 C 28.5625 27.828125 28.246094 25.203125 28.082031 24.453125 L 28.019531 24.164062 L 28.230469 24.40625 C 28.503906 24.71875 28.824219 25.363281 29.097656 26.148438 C 29.582031 27.542969 30.140625 28.390625 31.597656 29.945312 C 32.855469 31.28125 32.90625 31.378906 33.339844 33.207031 C 33.8125 35.210938 34.273438 35.808594 38.417969 39.78125 C 39.570312 40.882812 39.945312 41.4375 40.261719 42.519531 L 40.535156 43.4375 L 42.339844 45.171875 C 43.488281 46.277344 44.316406 46.992188 44.613281 47.140625 C 44.875 47.269531 45.21875 47.527344 45.382812 47.710938 C 46.371094 48.8125 46.550781 48.917969 46.996094 48.679688 C 47.246094 48.542969 47.230469 48.40625 46.929688 48.089844 L 46.675781 47.824219 L 47.03125 47.757812 C 47.539062 47.664062 47.875 47.757812 48.605469 48.195312 C 49.0625 48.472656 49.359375 48.585938 49.621094 48.585938 C 50.207031 48.585938 50.214844 48.34375 49.640625 47.847656 C 49.148438 47.414062 49.152344 47.394531 49.675781 47.421875 C 50.015625 47.441406 50.1875 47.226562 50.003906 47.007812 C 49.945312 46.9375 49.925781 46.789062 49.953125 46.671875 C 50.042969 46.339844 48.875 45.09375 48.222656 44.816406 C 47.957031 44.703125 47.691406 44.585938 47.425781 44.472656 C 47.265625 44.398438 46.765625 44.203125 46.3125 44.039062 C 44.164062 43.242188 42.679688 42.511719 42.042969 41.9375 C 41.648438 41.582031 40.582031 40.167969 39.539062 38.625 C 39.199219 38.117188 38.890625 37.683594 38.859375 37.65625 C 38.777344 37.589844 35.238281 32.371094 34.574219 31.339844 C 33.921875 30.324219 33.492188 29.5 33.007812 28.324219 C 32.34375 26.699219 31.59375 25.0625 31.269531 24.515625 C 31.089844 24.214844 30.617188 23.578125 30.214844 23.101562 C 29.8125 22.621094 29.484375 22.195312 29.484375 22.15625 C 29.480469 21.917969 30.777344 20.996094 32.546875 19.980469 C 33.191406 19.605469 33.972656 19.136719 34.277344 18.933594 C 34.816406 18.574219 34.851562 18.566406 35.757812 18.554688 C 36.789062 18.542969 37.289062 18.367188 38.398438 17.632812 L 38.949219 17.265625 L 39.320312 17.539062 C 39.527344 17.691406 39.800781 17.839844 39.933594 17.875 C 40.277344 17.957031 40.808594 17.636719 41.0625 17.191406 C 41.316406 16.75 41.359375 15.925781 41.148438 15.523438 C 41.078125 15.382812 40.945312 15.027344 40.863281 14.738281 C 40.714844 14.230469 40.714844 14.203125 40.90625 14.027344 C 41.15625 13.796875 41.109375 13.558594 40.78125 13.402344 C 40.613281 13.324219 40.5 13.171875 40.457031 12.96875 C 40.375 12.582031 40.152344 12.316406 39.914062 12.316406 C 39.816406 12.316406 39.535156 12.222656 39.296875 12.109375 C 38.9375 11.941406 38.78125 11.917969 38.449219 11.988281 C 38.097656 12.0625 38.019531 12.128906 37.851562 12.484375 C 37.734375 12.742188 37.597656 12.894531 37.488281 12.894531 C 37.238281 12.894531 37.273438 12.789062 37.675781 12.320312 C 38.082031 11.84375 38.257812 11.558594 38.683594 10.695312 C 38.960938 10.128906 38.980469 10.035156 38.949219 9.1875 C 38.917969 8.378906 38.886719 8.25 38.648438 7.9375 C 38.480469 7.71875 38.136719 7.472656 37.730469 7.277344 C 37.371094 7.101562 36.851562 6.792969 36.578125 6.589844 C 36.160156 6.273438 35.574219 6.003906 35.382812 6.039062 C 35.355469 6.042969 35.199219 6.085938 35.027344 6.136719 M 8.882812 13.296875 C 8.433594 13.414062 7.816406 13.683594 7.824219 13.757812 C 7.828125 13.789062 7.925781 14.023438 8.042969 14.28125 L 8.253906 14.742188 L 9.074219 13.96875 L 9.898438 13.195312 L 9.558594 13.199219 C 9.375 13.203125 9.070312 13.246094 8.882812 13.296875 M 17.453125 13.835938 C 17.410156 13.878906 17.316406 14.058594 17.242188 14.234375 C 17.125 14.515625 17.125 14.59375 17.253906 14.839844 C 17.417969 15.160156 17.398438 15.152344 17.722656 15.027344 L 17.964844 14.933594 L 17.816406 14.421875 C 17.652344 13.863281 17.566406 13.722656 17.453125 13.835938 M 37.367188 14.292969 C 37.632812 14.523438 37.859375 14.707031 37.871094 14.695312 C 37.960938 14.613281 37.734375 14.253906 37.476562 14.078125 C 36.933594 13.707031 36.859375 13.847656 37.367188 14.292969 M 36.585938 15.847656 L 36.492188 16.363281 L 36.832031 16.21875 C 37.019531 16.136719 37.226562 16.046875 37.296875 16.019531 C 37.445312 15.957031 37.324219 15.789062 36.933594 15.511719 L 36.679688 15.328125 Z M 16.730469 16.605469 C 16.398438 17.003906 16.628906 17.410156 17.085938 17.238281 C 17.265625 17.167969 17.304688 17.09375 17.277344 16.839844 C 17.257812 16.605469 17.195312 16.515625 17.046875 16.496094 C 16.9375 16.480469 16.792969 16.527344 16.730469 16.605469 M 14.878906 18.359375 C 14.617188 18.640625 14.671875 18.664062 15.082031 18.453125 C 15.238281 18.371094 15.34375 18.261719 15.3125 18.210938 C 15.222656 18.066406 15.125 18.101562 14.878906 18.359375 M 10.101562 27.601562 C 10.003906 27.882812 9.65625 30.144531 9.65625 30.488281 C 9.660156 31.238281 9.640625 31.226562 10.847656 31.226562 C 11.441406 31.226562 12.050781 31.257812 12.195312 31.300781 C 12.34375 31.339844 12.460938 31.335938 12.460938 31.285156 C 12.460938 31.238281 12.070312 30.609375 11.589844 29.886719 C 11.113281 29.164062 10.71875 28.554688 10.71875 28.535156 C 10.71875 28.515625 10.59375 28.265625 10.433594 27.976562 C 10.253906 27.644531 10.132812 27.507812 10.101562 27.601562 M 7.769531 33.90625 C 6.222656 34.429688 5.003906 34.914062 4.738281 35.117188 L 4.414062 35.359375 L 4.46875 36.242188 C 4.53125 37.214844 4.640625 37.894531 4.929688 39.058594 C 5.300781 40.578125 5.359375 40.691406 5.835938 40.925781 C 6.074219 41.039062 6.5625 41.179688 6.921875 41.238281 C 7.722656 41.363281 8.804688 41.855469 9.300781 42.324219 C 9.769531 42.765625 9.75 43.011719 9.246094 43.054688 C 9.046875 43.070312 8.882812 43.117188 8.882812 43.15625 C 8.882812 43.195312 9.03125 43.371094 9.210938 43.546875 L 9.535156 43.863281 L 9.753906 43.636719 C 10.183594 43.1875 10.527344 42.558594 10.527344 42.207031 C 10.527344 42.019531 10.28125 41.167969 9.984375 40.316406 C 8.90625 37.230469 8.570312 35.980469 8.441406 34.535156 C 8.367188 33.722656 8.351562 33.710938 7.769531 33.90625 " fill-opacity="1" fill-rule="evenodd"/></g></svg>