<svg xmlns="http://www.w3.org/2000/svg" xmlns:xlink="http://www.w3.org/1999/xlink" width="70" zoomAndPan="magnify" viewBox="0 0 52.5 52.499999" height="70" preserveAspectRatio="xMidYMid meet" version="1.0"><defs><clipPath id="810d7ebb46"><path d="M 9 5.199219 L 34 5.199219 L 34 26 L 9 26 Z M 9 5.199219 " clip-rule="nonzero"/></clipPath><clipPath id="1d641d983a"><path d="M 41 26 L 46.0625 26 L 46.0625 33 L 41 33 Z M 41 26 " clip-rule="nonzero"/></clipPath><clipPath id="1ade9125f3"><path d="M 23 44 L 27 44 L 27 49.777344 L 23 49.777344 Z M 23 44 " clip-rule="nonzero"/></clipPath><clipPath id="6c841a46a8"><path d="M 5.199219 14 L 13 14 L 13 20 L 5.199219 20 Z M 5.199219 14 " clip-rule="nonzero"/></clipPath><clipPath id="8e6f27878a"><path d="M 5.199219 33 L 8 33 L 8 37 L 5.199219 37 Z M 5.199219 33 " clip-rule="nonzero"/></clipPath><clipPath id="2162f1e0fb"><path d="M 27 47 L 30 47 L 30 49.777344 L 27 49.777344 Z M 27 47 " clip-rule="nonzero"/></clipPath><clipPath id="18a38a7a86"><path d="M 5.199219 22 L 7 22 L 7 25 L 5.199219 25 Z M 5.199219 22 " clip-rule="nonzero"/></clipPath><clipPath id="79f90897fc"><path d="M 20 48 L 22 48 L 22 49.777344 L 20 49.777344 Z M 20 48 " clip-rule="nonzero"/></clipPath><clipPath id="97af163228"><path d="M 5.199219 31 L 7 31 L 7 33 L 5.199219 33 Z M 5.199219 31 " clip-rule="nonzero"/></clipPath></defs><path fill="#769a8c" d="M 35.175781 32.554688 C 35.375 31.925781 35.546875 31.332031 35.746094 30.746094 C 36.601562 28.234375 37.464844 25.726562 38.320312 23.214844 C 38.417969 22.925781 38.488281 22.625 38.558594 22.324219 C 38.621094 22.058594 38.730469 21.984375 38.996094 22.039062 C 39.167969 22.074219 39.34375 22.105469 39.511719 22.160156 C 39.902344 22.28125 40.175781 22.609375 40.175781 23.015625 C 40.175781 23.347656 40.148438 23.683594 40.082031 24.007812 C 39.835938 25.164062 39.398438 26.257812 38.996094 27.367188 C 38.039062 30.015625 37.027344 32.648438 36.203125 35.34375 C 35.882812 36.378906 35.652344 37.433594 35.554688 38.515625 C 35.535156 38.75 35.539062 38.996094 35.585938 39.226562 C 35.792969 40.191406 36.839844 40.707031 37.828125 40.347656 C 38.332031 40.164062 38.746094 39.84375 39.109375 39.460938 C 39.757812 38.78125 40.195312 37.984375 40.320312 37.046875 C 40.457031 36.027344 39.648438 35.578125 38.960938 35.671875 C 38.871094 35.683594 38.777344 35.6875 38.6875 35.6875 C 38.429688 35.6875 38.308594 35.566406 38.378906 35.316406 C 38.441406 35.101562 38.527344 34.871094 38.675781 34.714844 C 39.402344 33.929688 40.777344 33.996094 41.332031 34.914062 C 41.75 35.605469 41.867188 36.320312 41.675781 37.089844 C 41.269531 38.734375 40.347656 40.007812 38.871094 40.847656 C 37.878906 41.410156 36.816406 41.460938 35.761719 41.023438 C 34.753906 40.601562 34.222656 39.769531 33.992188 38.726562 C 33.964844 38.601562 33.953125 38.472656 33.925781 38.296875 C 33.875 38.378906 33.847656 38.429688 33.808594 38.472656 C 33.515625 38.832031 33.242188 39.214844 32.914062 39.539062 C 32.488281 39.957031 31.945312 40.179688 31.355469 40.25 C 30.597656 40.34375 30.054688 39.972656 29.636719 39.382812 C 29.484375 39.167969 29.382812 38.917969 29.257812 38.683594 C 29.105469 38.894531 28.957031 39.113281 28.789062 39.320312 C 28.535156 39.636719 28.242188 39.910156 27.898438 40.132812 C 26.613281 40.972656 25.035156 40.246094 24.945312 38.617188 C 24.902344 37.863281 25.070312 37.144531 25.308594 36.441406 C 25.734375 35.1875 26.292969 33.984375 26.90625 32.808594 C 27.050781 32.527344 27.167969 32.230469 27.28125 31.933594 C 27.347656 31.746094 27.414062 31.523438 27.238281 31.375 C 27.0625 31.222656 26.851562 31.332031 26.683594 31.429688 C 26.4375 31.570312 26.199219 31.726562 25.984375 31.914062 C 25.324219 32.488281 24.785156 33.167969 24.324219 33.914062 C 23.523438 35.222656 22.941406 36.625 22.453125 38.074219 C 22.257812 38.660156 22.039062 39.242188 21.84375 39.828125 C 21.792969 39.976562 21.769531 40.136719 21.742188 40.292969 C 21.71875 40.425781 21.648438 40.519531 21.511719 40.53125 C 21.21875 40.554688 20.921875 40.546875 20.644531 40.410156 C 20.394531 40.289062 20.246094 40.085938 20.148438 39.792969 C 20.101562 39.882812 20.066406 39.941406 20.03125 40.007812 C 19.558594 40.941406 19.058594 41.859375 18.382812 42.667969 C 17.285156 43.980469 15.984375 45.015625 14.339844 45.558594 C 11.542969 46.480469 8.722656 44.625 8.457031 41.691406 C 8.320312 40.152344 8.671875 38.707031 9.347656 37.332031 C 9.976562 36.0625 10.839844 34.984375 12.003906 34.160156 C 12.023438 34.140625 12.046875 34.125 12.082031 34.09375 C 11.269531 33.191406 10.925781 32.144531 11.074219 30.933594 C 11.21875 29.75 11.710938 28.75 12.644531 27.964844 C 12.582031 27.910156 12.535156 27.863281 12.484375 27.820312 C 11.675781 27.082031 11.179688 26.183594 11.140625 25.078125 C 11.097656 23.929688 11.441406 22.898438 12.210938 22.035156 C 12.648438 21.542969 13.207031 21.21875 13.859375 21.097656 C 14.109375 21.054688 14.378906 21.085938 14.632812 21.117188 C 14.707031 21.125 14.8125 21.234375 14.824219 21.3125 C 14.835938 21.367188 14.734375 21.484375 14.660156 21.507812 C 13.039062 22 12.3125 23.953125 12.488281 25.367188 C 12.566406 26.003906 12.910156 26.488281 13.375 26.914062 C 13.621094 27.144531 13.8125 27.1875 14.136719 27.027344 C 15.253906 26.476562 16.441406 26.222656 17.695312 26.363281 C 18.296875 26.433594 18.882812 26.566406 19.378906 26.953125 C 19.945312 27.394531 20.027344 28.050781 19.585938 28.617188 C 19.28125 29.007812 18.867188 29.21875 18.398438 29.339844 C 17.191406 29.648438 16.007812 29.523438 14.835938 29.148438 C 14.609375 29.074219 14.390625 28.984375 14.167969 28.890625 C 14.089844 28.859375 14.042969 28.851562 13.984375 28.9375 C 13.464844 29.703125 13.113281 30.53125 13.046875 31.464844 C 13 32.105469 13.105469 32.722656 13.410156 33.296875 C 13.472656 33.410156 13.535156 33.441406 13.664062 33.402344 C 14.59375 33.113281 15.539062 32.929688 16.519531 32.984375 C 17.003906 33.007812 17.480469 33.085938 17.914062 33.328125 C 18.414062 33.609375 18.648438 34.050781 18.566406 34.550781 C 18.523438 34.832031 18.351562 35.035156 18.148438 35.214844 C 17.789062 35.535156 17.347656 35.679688 16.878906 35.757812 C 15.707031 35.945312 14.609375 35.710938 13.5625 35.179688 C 13.429688 35.109375 13.359375 35.128906 13.261719 35.234375 C 11.921875 36.6875 11.152344 38.417969 10.859375 40.359375 C 10.730469 41.222656 10.820312 42.085938 11.191406 42.894531 C 11.617188 43.832031 12.402344 44.269531 13.386719 44.367188 C 14.132812 44.441406 14.816406 44.203125 15.449219 43.828125 C 16.308594 43.316406 17.050781 42.667969 17.707031 41.917969 C 18.476562 41.035156 19.175781 40.109375 19.78125 39.105469 C 20.121094 38.539062 20.296875 37.925781 20.457031 37.296875 C 20.753906 36.128906 21.09375 34.972656 21.40625 33.808594 C 21.5 33.457031 21.5625 33.101562 21.632812 32.742188 C 21.664062 32.574219 21.746094 32.460938 21.921875 32.429688 C 22.074219 32.40625 22.222656 32.363281 22.375 32.355469 C 22.894531 32.316406 23.265625 32.6875 23.1875 33.203125 C 23.125 33.617188 23.007812 34.023438 22.914062 34.433594 C 22.835938 34.757812 22.753906 35.082031 22.675781 35.40625 C 22.6875 35.410156 22.703125 35.417969 22.71875 35.421875 C 22.742188 35.363281 22.769531 35.308594 22.792969 35.253906 C 23.207031 34.265625 23.667969 33.300781 24.265625 32.410156 C 24.660156 31.820312 25.097656 31.269531 25.671875 30.84375 C 26.246094 30.421875 26.878906 30.195312 27.601562 30.25 C 28.546875 30.328125 29.207031 31.003906 29.261719 31.949219 C 29.296875 32.550781 29.117188 33.109375 28.882812 33.648438 C 28.5 34.535156 28.085938 35.40625 27.691406 36.289062 C 27.417969 36.910156 27.136719 37.527344 27.019531 38.199219 C 26.988281 38.398438 26.96875 38.609375 26.988281 38.808594 C 27.027344 39.175781 27.265625 39.332031 27.617188 39.203125 C 27.816406 39.128906 28.023438 39.007812 28.167969 38.851562 C 28.472656 38.527344 28.738281 38.171875 29.007812 37.820312 C 29.050781 37.769531 29.050781 37.671875 29.046875 37.597656 C 28.984375 35.585938 29.507812 33.769531 30.839844 32.230469 C 31.34375 31.644531 31.984375 31.242188 32.761719 31.109375 C 33.835938 30.921875 34.710938 31.417969 35.121094 32.429688 C 35.132812 32.460938 35.148438 32.492188 35.175781 32.554688 Z M 34.636719 33.890625 C 34.65625 33.523438 34.613281 33.171875 34.476562 32.835938 C 34.214844 32.195312 33.722656 32.0625 33.226562 32.539062 C 32.957031 32.800781 32.71875 33.109375 32.53125 33.433594 C 31.804688 34.6875 31.441406 36.0625 31.269531 37.492188 C 31.222656 37.878906 31.21875 38.277344 31.363281 38.652344 C 31.46875 38.933594 31.667969 39.0625 31.964844 39.058594 C 32.34375 39.054688 32.640625 38.882812 32.894531 38.621094 C 33.242188 38.257812 33.492188 37.835938 33.722656 37.394531 C 34.058594 36.746094 34.195312 36.035156 34.367188 35.335938 C 34.484375 34.859375 34.683594 34.394531 34.636719 33.890625 Z M 14.359375 34.3125 C 14.441406 34.363281 14.515625 34.414062 14.59375 34.457031 C 15.25 34.832031 15.96875 34.945312 16.710938 34.929688 C 16.921875 34.925781 17.132812 34.890625 17.332031 34.839844 C 17.464844 34.804688 17.597656 34.730469 17.707031 34.648438 C 18.121094 34.335938 18.0625 33.878906 17.578125 33.703125 C 16.398438 33.273438 15.335938 33.511719 14.359375 34.3125 Z M 14.945312 27.886719 C 14.992188 27.910156 15.027344 27.929688 15.0625 27.945312 C 15.738281 28.242188 16.449219 28.410156 17.183594 28.472656 C 17.621094 28.507812 18.046875 28.464844 18.449219 28.277344 C 18.660156 28.183594 18.855469 28.054688 18.855469 27.800781 C 18.855469 27.550781 18.664062 27.414062 18.460938 27.308594 C 18.15625 27.152344 17.824219 27.105469 17.484375 27.117188 C 16.621094 27.144531 15.832031 27.429688 15.0625 27.800781 C 15.023438 27.820312 14.992188 27.851562 14.945312 27.886719 Z M 14.945312 27.886719 " fill-opacity="1" fill-rule="nonzero"/><path fill="#769a8c" d="M 23.152344 41.429688 C 24.394531 41.460938 25.644531 41.746094 26.867188 42.15625 C 28.339844 42.644531 29.726562 43.332031 31.089844 44.058594 C 32.207031 44.65625 33.332031 45.242188 34.472656 45.792969 C 35.519531 46.300781 36.644531 46.523438 37.804688 46.566406 C 39.5625 46.628906 41.078125 45.472656 41.539062 43.695312 C 41.707031 43.039062 41.730469 42.382812 41.570312 41.71875 C 41.488281 41.398438 41.347656 41.117188 41.078125 40.902344 C 40.890625 40.75 40.902344 40.609375 41.097656 40.457031 C 41.8125 39.917969 42.902344 40.183594 43.3125 41.003906 C 43.535156 41.453125 43.640625 41.9375 43.640625 42.4375 C 43.640625 44.457031 42.808594 46.019531 41.070312 47.066406 C 40.207031 47.585938 39.242188 47.742188 38.246094 47.714844 C 37.144531 47.6875 36.09375 47.378906 35.058594 47.039062 C 33.464844 46.515625 31.957031 45.789062 30.441406 45.085938 C 29.277344 44.546875 28.125 43.976562 26.890625 43.59375 C 25.914062 43.292969 24.914062 43.117188 23.882812 43.199219 C 23.054688 43.265625 22.28125 43.507812 21.585938 43.984375 C 20.746094 44.5625 20.375 45.382812 20.3125 46.375 C 20.308594 46.425781 20.304688 46.476562 20.296875 46.527344 C 20.289062 46.632812 20.222656 46.6875 20.125 46.652344 C 19.949219 46.59375 19.761719 46.542969 19.613281 46.4375 C 19.058594 46.054688 18.765625 45.515625 18.726562 44.84375 C 18.667969 43.832031 19.074219 43.046875 19.871094 42.445312 C 20.828125 41.726562 21.914062 41.429688 23.152344 41.429688 Z M 23.152344 41.429688 " fill-opacity="1" fill-rule="nonzero"/><g clip-path="url(#810d7ebb46)"><path fill="#769a8c" d="M 29.929688 5.199219 C 30.191406 5.234375 30.449219 5.25 30.707031 5.300781 C 31.460938 5.445312 32.152344 5.746094 32.742188 6.246094 C 33.691406 7.054688 34.035156 8.117188 33.960938 9.328125 C 33.867188 10.871094 33.265625 12.1875 32.121094 13.238281 C 31.636719 13.683594 31.085938 14.003906 30.429688 14.09375 C 29.789062 14.183594 29.175781 14.109375 28.652344 13.683594 C 28.347656 13.4375 28.144531 13.128906 28.1875 12.714844 C 28.199219 12.632812 28.234375 12.492188 28.277344 12.484375 C 28.363281 12.472656 28.484375 12.503906 28.546875 12.566406 C 28.84375 12.863281 29.214844 12.984375 29.613281 13.054688 C 29.988281 13.117188 30.335938 13.03125 30.664062 12.855469 C 31.046875 12.652344 31.363281 12.367188 31.625 12.023438 C 32.175781 11.292969 32.566406 10.480469 32.652344 9.566406 C 32.765625 8.375 32.242188 7.085938 30.507812 6.605469 C 29.46875 6.316406 28.449219 6.433594 27.429688 6.71875 C 25.972656 7.121094 24.734375 7.910156 23.621094 8.90625 C 22.945312 9.507812 22.28125 10.125 21.617188 10.738281 C 21.574219 10.777344 21.523438 10.855469 21.53125 10.902344 C 21.628906 11.402344 21.523438 11.890625 21.445312 12.378906 C 21.097656 14.613281 20.523438 16.804688 20.09375 19.023438 C 19.785156 20.613281 19.546875 22.21875 19.300781 23.816406 C 19.242188 24.179688 19.261719 24.554688 19.253906 24.925781 C 19.246094 25.199219 19.191406 25.269531 18.914062 25.285156 C 18.757812 25.296875 18.59375 25.296875 18.441406 25.269531 C 18.148438 25.222656 17.949219 25.042969 17.839844 24.773438 C 17.695312 24.429688 17.652344 24.070312 17.671875 23.703125 C 17.726562 22.78125 17.890625 21.875 18.082031 20.972656 C 18.496094 19.003906 18.898438 17.03125 19.3125 15.0625 C 19.496094 14.195312 19.707031 13.335938 19.902344 12.46875 C 19.914062 12.421875 19.921875 12.371094 19.941406 12.273438 C 19.859375 12.34375 19.808594 12.386719 19.761719 12.429688 C 18.707031 13.386719 17.601562 14.28125 16.351562 14.976562 C 15.605469 15.398438 14.832031 15.742188 13.96875 15.863281 C 11.53125 16.214844 9.503906 14.347656 9.667969 11.878906 C 9.785156 10.160156 10.601562 8.851562 12.117188 8.03125 C 12.859375 7.628906 13.683594 7.480469 14.53125 7.65625 C 14.917969 7.738281 15.257812 7.929688 15.492188 8.257812 C 15.566406 8.363281 15.617188 8.503906 15.628906 8.632812 C 15.648438 8.847656 15.484375 8.9375 15.289062 8.835938 C 15.253906 8.820312 15.21875 8.796875 15.191406 8.773438 C 14.382812 8.117188 12.921875 8.207031 12.054688 9.003906 C 10.722656 10.230469 10.707031 12.492188 12.03125 13.726562 C 12.625 14.28125 13.335938 14.40625 14.109375 14.261719 C 14.816406 14.128906 15.460938 13.832031 16.085938 13.484375 C 17.390625 12.753906 18.566406 11.839844 19.714844 10.886719 C 21.515625 9.394531 23.347656 7.945312 25.347656 6.71875 C 26.253906 6.164062 27.1875 5.667969 28.230469 5.429688 C 28.675781 5.328125 29.140625 5.292969 29.59375 5.226562 C 29.648438 5.21875 29.703125 5.210938 29.761719 5.199219 C 29.816406 5.199219 29.875 5.199219 29.929688 5.199219 Z M 29.929688 5.199219 " fill-opacity="1" fill-rule="nonzero"/></g><path fill="#769a8c" d="M 28.695312 23.585938 C 28.308594 24.0625 27.894531 24.476562 27.390625 24.789062 C 26.949219 25.066406 26.476562 25.210938 25.949219 25.113281 C 25.152344 24.96875 24.742188 24.550781 24.601562 23.761719 C 24.449219 22.894531 24.628906 22.074219 24.929688 21.269531 C 25.300781 20.277344 25.855469 19.371094 26.394531 18.464844 C 26.59375 18.132812 26.773438 17.789062 26.953125 17.449219 C 27.015625 17.328125 27.0625 17.199219 27.109375 17.070312 C 27.160156 16.933594 27.195312 16.785156 27.078125 16.671875 C 26.953125 16.550781 26.808594 16.613281 26.675781 16.660156 C 26.328125 16.792969 26.035156 17.003906 25.777344 17.265625 C 25.097656 17.945312 24.515625 18.703125 24.042969 19.539062 C 23.394531 20.679688 22.691406 21.792969 22.203125 23.015625 C 22.167969 23.101562 22.140625 23.1875 22.105469 23.269531 C 22.003906 23.492188 21.953125 23.714844 21.980469 23.964844 C 22.003906 24.1875 21.925781 24.285156 21.707031 24.347656 C 21.574219 24.382812 21.441406 24.410156 21.304688 24.417969 C 20.878906 24.457031 20.582031 24.269531 20.421875 23.871094 C 20.226562 23.386719 20.246094 22.878906 20.289062 22.375 C 20.449219 20.351562 20.941406 18.394531 21.511719 16.457031 C 21.917969 15.089844 22.386719 13.753906 23.105469 12.515625 C 23.472656 11.882812 23.863281 11.269531 24.414062 10.777344 C 24.789062 10.441406 25.214844 10.21875 25.734375 10.210938 C 26.523438 10.199219 27.027344 10.652344 27.097656 11.445312 C 27.148438 12.007812 27.046875 12.546875 26.859375 13.070312 C 26.28125 14.683594 25.328125 16.023438 23.9375 17.03125 C 23.59375 17.28125 23.183594 17.441406 22.796875 17.632812 C 22.703125 17.679688 22.648438 17.722656 22.617188 17.832031 C 22.289062 19.082031 22.09375 20.359375 21.953125 21.640625 C 21.945312 21.71875 21.953125 21.800781 21.953125 21.929688 C 21.996094 21.828125 22.023438 21.769531 22.046875 21.710938 C 22.671875 20.1875 23.457031 18.753906 24.433594 17.429688 C 24.859375 16.84375 25.378906 16.335938 26.019531 15.976562 C 26.570312 15.667969 27.152344 15.488281 27.785156 15.601562 C 28.386719 15.707031 28.742188 16.140625 28.777344 16.753906 C 28.804688 17.253906 28.667969 17.71875 28.46875 18.160156 C 28.105469 18.957031 27.714844 19.738281 27.328125 20.523438 C 27.011719 21.160156 26.679688 21.792969 26.511719 22.488281 C 26.441406 22.792969 26.414062 23.117188 26.425781 23.433594 C 26.441406 23.890625 26.789062 24.074219 27.191406 23.855469 C 27.710938 23.574219 28.042969 23.113281 28.34375 22.625 C 28.367188 22.589844 28.367188 22.527344 28.359375 22.476562 C 28.171875 21.222656 28.410156 20.023438 28.820312 18.84375 C 29.144531 17.914062 29.59375 17.0625 30.28125 16.347656 C 30.730469 15.875 31.238281 15.5 31.898438 15.394531 C 32.71875 15.269531 33.929688 15.53125 34.367188 16.738281 C 34.839844 18.023438 34.660156 19.257812 34.035156 20.441406 C 33.660156 21.152344 33.113281 21.703125 32.371094 22.042969 C 31.828125 22.292969 31.269531 22.355469 30.691406 22.191406 C 30.65625 22.183594 30.617188 22.175781 30.578125 22.167969 C 30.402344 22.925781 30.800781 23.863281 31.425781 24.191406 C 31.796875 24.386719 32.183594 24.371094 32.574219 24.296875 C 33.351562 24.152344 33.90625 23.679688 34.363281 23.078125 C 34.894531 22.378906 35.171875 21.566406 35.324219 20.710938 C 35.34375 20.601562 35.359375 20.488281 35.394531 20.378906 C 35.417969 20.300781 35.460938 20.21875 35.515625 20.160156 C 35.679688 19.988281 35.917969 20.050781 35.976562 20.28125 C 36.0625 20.601562 36.019531 20.929688 35.9375 21.242188 C 35.605469 22.582031 34.984375 23.753906 33.917969 24.660156 C 32.726562 25.671875 31.167969 25.640625 30.015625 25.03125 C 29.523438 24.769531 29.167969 24.367188 28.875 23.902344 C 28.816406 23.808594 28.761719 23.707031 28.695312 23.585938 Z M 30.636719 21.3125 C 30.90625 21.339844 31.140625 21.394531 31.371094 21.382812 C 32.035156 21.339844 32.515625 20.976562 32.894531 20.460938 C 33.515625 19.621094 33.765625 18.660156 33.769531 17.628906 C 33.773438 17.371094 33.699219 17.101562 33.605469 16.855469 C 33.492188 16.558594 33.253906 16.496094 32.960938 16.628906 C 32.660156 16.765625 32.429688 16.992188 32.230469 17.25 C 31.320312 18.433594 30.957031 19.832031 30.636719 21.3125 Z M 22.960938 16.648438 C 22.972656 16.652344 22.984375 16.660156 22.996094 16.667969 C 23.042969 16.636719 23.089844 16.609375 23.140625 16.582031 C 24.246094 15.929688 25.023438 14.972656 25.660156 13.882812 C 25.929688 13.425781 26.136719 12.941406 26.257812 12.421875 C 26.316406 12.15625 26.375 11.886719 26.285156 11.617188 C 26.226562 11.441406 26.136719 11.378906 25.976562 11.460938 C 25.757812 11.570312 25.523438 11.691406 25.359375 11.867188 C 25.089844 12.148438 24.847656 12.460938 24.636719 12.789062 C 24.042969 13.703125 23.640625 14.714844 23.269531 15.734375 C 23.15625 16.035156 23.0625 16.34375 22.960938 16.648438 Z M 22.960938 16.648438 " fill-opacity="1" fill-rule="nonzero"/><path fill="#769a8c" d="M 31.789062 30.199219 C 30.90625 30.214844 30.078125 29.945312 29.269531 29.589844 C 28.402344 29.210938 27.542969 28.804688 26.667969 28.433594 C 26.019531 28.15625 25.335938 27.980469 24.621094 27.957031 C 23.941406 27.933594 23.296875 28.058594 22.710938 28.417969 C 22.285156 28.675781 21.976562 29.039062 21.769531 29.492188 C 21.660156 29.742188 21.523438 29.773438 21.34375 29.570312 C 20.90625 29.078125 20.8125 28.503906 20.972656 27.878906 C 21.125 27.273438 21.496094 26.847656 22.050781 26.570312 C 22.898438 26.144531 23.789062 26.109375 24.699219 26.28125 C 25.5625 26.441406 26.363281 26.777344 27.144531 27.164062 C 28.019531 27.601562 28.890625 28.039062 29.777344 28.457031 C 30.257812 28.6875 30.769531 28.863281 31.3125 28.886719 C 32.328125 28.929688 33.242188 28.199219 33.472656 27.15625 C 33.523438 26.910156 33.515625 26.648438 33.507812 26.394531 C 33.5 26.066406 33.625 25.9375 33.957031 25.976562 C 34.425781 26.035156 34.867188 26.421875 34.984375 26.882812 C 35.242188 27.871094 34.820312 29.128906 33.703125 29.734375 C 33.113281 30.054688 32.480469 30.214844 31.789062 30.199219 Z M 31.789062 30.199219 " fill-opacity="1" fill-rule="nonzero"/><g clip-path="url(#1d641d983a)"><path fill="#769a8c" d="M 46.101562 29.089844 C 46.117188 29.136719 46.097656 29.191406 46.054688 29.21875 C 46.003906 29.25 45.949219 29.28125 45.894531 29.296875 C 45.621094 29.351562 45.339844 29.367188 45.074219 29.4375 C 44.226562 29.667969 44.183594 29.871094 44.183594 30.558594 C 44.179688 30.972656 44.183594 31.386719 44.183594 31.800781 C 44.1875 31.925781 44.171875 32.046875 44.027344 32.058594 C 43.863281 32.074219 43.839844 31.9375 43.832031 31.816406 C 43.796875 31.304688 43.765625 30.792969 43.730469 30.285156 C 43.726562 30.207031 43.703125 30.128906 43.691406 30.054688 C 43.648438 29.8125 43.460938 29.628906 43.214844 29.613281 C 42.757812 29.582031 42.296875 29.574219 41.835938 29.554688 C 41.796875 29.554688 41.757812 29.566406 41.714844 29.5625 C 41.601562 29.558594 41.496094 29.523438 41.480469 29.390625 C 41.464844 29.25 41.558594 29.179688 41.683594 29.164062 C 42.003906 29.128906 42.328125 29.101562 42.648438 29.058594 C 42.800781 29.039062 42.949219 29 43.097656 28.96875 C 43.394531 28.910156 43.570312 28.722656 43.625 28.433594 C 43.679688 28.128906 43.71875 27.816406 43.757812 27.507812 C 43.792969 27.222656 43.820312 26.933594 43.851562 26.644531 C 43.863281 26.535156 43.886719 26.417969 44.039062 26.433594 C 44.175781 26.449219 44.167969 26.5625 44.171875 26.667969 C 44.195312 27.234375 44.210938 27.804688 44.242188 28.371094 C 44.265625 28.769531 44.363281 28.871094 44.757812 28.90625 C 45.132812 28.9375 45.507812 28.941406 45.882812 28.953125 C 45.980469 28.957031 46.0625 28.976562 46.101562 29.089844 Z M 46.101562 29.089844 " fill-opacity="1" fill-rule="nonzero"/></g><path fill="#769a8c" d="M 10.089844 27.902344 C 10.257812 27.890625 10.410156 27.878906 10.566406 27.871094 C 10.664062 27.867188 10.769531 27.875 10.785156 28.003906 C 10.800781 28.132812 10.703125 28.160156 10.601562 28.179688 C 10.292969 28.246094 9.976562 28.296875 9.671875 28.382812 C 9.144531 28.535156 9.003906 28.722656 8.980469 29.273438 C 8.964844 29.683594 8.953125 30.09375 8.9375 30.5 C 8.9375 30.546875 8.949219 30.601562 8.925781 30.636719 C 8.886719 30.699219 8.824219 30.75 8.773438 30.804688 C 8.722656 30.746094 8.640625 30.6875 8.632812 30.625 C 8.589844 30.183594 8.566406 29.742188 8.527344 29.300781 C 8.515625 29.171875 8.496094 29.039062 8.457031 28.917969 C 8.363281 28.605469 8.148438 28.449219 7.824219 28.453125 C 7.476562 28.453125 7.128906 28.460938 6.78125 28.464844 C 6.671875 28.464844 6.550781 28.472656 6.542969 28.320312 C 6.535156 28.171875 6.660156 28.160156 6.769531 28.144531 C 7.160156 28.082031 7.554688 28.019531 7.949219 27.96875 C 8.234375 27.929688 8.421875 27.785156 8.476562 27.496094 C 8.546875 27.132812 8.609375 26.769531 8.660156 26.40625 C 8.695312 26.164062 8.707031 25.917969 8.726562 25.675781 C 8.734375 25.582031 8.738281 25.476562 8.867188 25.484375 C 8.996094 25.488281 9.003906 25.601562 9 25.699219 C 8.992188 25.996094 8.980469 26.289062 8.960938 26.585938 C 8.9375 26.9375 8.933594 27.285156 9.074219 27.625 C 9.125 27.757812 9.199219 27.835938 9.339844 27.84375 C 9.59375 27.867188 9.851562 27.882812 10.089844 27.902344 Z M 10.089844 27.902344 " fill-opacity="1" fill-rule="nonzero"/><g clip-path="url(#1ade9125f3)"><path fill="#769a8c" d="M 25.351562 46.359375 C 25.390625 46.628906 25.460938 46.6875 25.726562 46.707031 C 25.953125 46.722656 26.183594 46.730469 26.410156 46.742188 C 26.636719 46.730469 26.671875 46.839844 26.671875 46.882812 C 26.667969 46.945312 26.605469 47.035156 26.546875 47.050781 C 26.386719 47.105469 26.214844 47.121094 26.046875 47.160156 C 25.515625 47.277344 25.320312 47.507812 25.300781 48.054688 C 25.289062 48.34375 25.285156 48.632812 25.277344 48.925781 C 25.273438 49.042969 25.257812 49.167969 25.101562 49.171875 C 24.941406 49.175781 24.914062 49.054688 24.90625 48.925781 C 24.886719 48.546875 24.878906 48.164062 24.847656 47.785156 C 24.8125 47.394531 24.691406 47.296875 24.296875 47.296875 C 24.097656 47.296875 23.898438 47.296875 23.699219 47.296875 C 23.644531 47.296875 23.578125 47.304688 23.535156 47.277344 C 23.480469 47.242188 23.410156 47.175781 23.410156 47.125 C 23.410156 47.074219 23.484375 46.996094 23.539062 46.980469 C 23.726562 46.9375 23.921875 46.921875 24.113281 46.890625 C 24.710938 46.792969 24.867188 46.617188 24.914062 46.011719 C 24.933594 45.746094 24.957031 45.480469 24.980469 45.214844 C 24.988281 45.140625 24.988281 45.058594 25.023438 45 C 25.054688 44.941406 25.128906 44.882812 25.1875 44.878906 C 25.226562 44.878906 25.296875 44.972656 25.304688 45.03125 C 25.320312 45.183594 25.3125 46.070312 25.351562 46.359375 Z M 25.351562 46.359375 " fill-opacity="1" fill-rule="nonzero"/></g><path fill="#769a8c" d="M 40.058594 9.402344 C 40.089844 9.542969 40.066406 9.691406 40.019531 9.828125 C 39.96875 9.964844 39.90625 10.140625 39.816406 10.304688 C 39.421875 11.050781 38.910156 11.71875 38.378906 12.375 C 37.59375 13.34375 36.699219 14.210938 35.785156 15.058594 C 35.730469 15.109375 35.675781 15.167969 35.609375 15.195312 C 35.550781 15.222656 35.449219 15.246094 35.410156 15.214844 C 35.359375 15.175781 35.335938 15.078125 35.335938 15.007812 C 35.335938 14.9375 35.367188 14.863281 35.398438 14.796875 C 36.148438 13.09375 36.996094 11.449219 38.230469 10.035156 C 38.488281 9.746094 38.792969 9.492188 39.097656 9.25 C 39.230469 9.144531 39.414062 9.085938 39.582031 9.058594 C 39.839844 9.023438 40.003906 9.125 40.058594 9.402344 Z M 40.058594 9.402344 " fill-opacity="1" fill-rule="nonzero"/><path fill="#769a8c" d="M 41.222656 13.558594 C 41.570312 13.558594 41.75 13.757812 41.683594 14.046875 C 41.652344 14.191406 41.582031 14.335938 41.492188 14.457031 C 41.101562 14.988281 40.589844 15.394531 40.023438 15.707031 C 39.109375 16.210938 38.171875 16.671875 37.238281 17.140625 C 37.179688 17.171875 37.046875 17.167969 37.015625 17.125 C 36.976562 17.078125 37.054688 16.839844 37.074219 16.8125 C 37.953125 15.816406 38.875 14.867188 40.007812 14.152344 C 40.328125 13.949219 40.671875 13.785156 41.007812 13.609375 C 41.085938 13.570312 41.183594 13.570312 41.222656 13.558594 Z M 41.222656 13.558594 " fill-opacity="1" fill-rule="nonzero"/><path fill="#769a8c" d="M 41.875 18.953125 C 41.578125 18.980469 41.28125 18.980469 40.984375 18.949219 C 40.46875 18.894531 39.917969 18.835938 39.371094 18.777344 C 38.953125 18.730469 38.539062 18.675781 38.121094 18.625 C 38.085938 18.621094 37.84375 18.625 37.820312 18.445312 C 37.804688 18.335938 37.9375 18.3125 38.007812 18.296875 C 38.449219 18.195312 38.890625 18.085938 39.339844 18.019531 C 40.113281 17.902344 40.894531 17.871094 41.660156 18.074219 C 41.898438 18.136719 42.128906 18.242188 42.351562 18.351562 C 42.472656 18.40625 42.554688 18.519531 42.535156 18.671875 C 42.511719 18.828125 42.382812 18.890625 42.253906 18.910156 C 42.132812 18.929688 42.007812 18.941406 41.875 18.953125 Z M 41.875 18.953125 " fill-opacity="1" fill-rule="nonzero"/><g clip-path="url(#6c841a46a8)"><path fill="#769a8c" d="M 5.816406 14.566406 C 5.972656 14.539062 6.136719 14.554688 6.292969 14.597656 C 6.46875 14.648438 6.710938 14.714844 6.9375 14.808594 C 7.769531 15.148438 8.519531 15.625 9.253906 16.140625 C 10.199219 16.800781 11.097656 17.527344 11.9375 18.320312 C 12.085938 18.460938 12.21875 18.617188 12.347656 18.777344 C 12.386719 18.824219 12.414062 18.925781 12.386719 18.96875 C 12.359375 19.011719 12.257812 19.035156 12.195312 19.027344 C 12.046875 19 11.890625 18.96875 11.753906 18.90625 C 10.335938 18.242188 8.910156 17.585938 7.507812 16.890625 C 7 16.640625 6.542969 16.289062 6.074219 15.972656 C 5.914062 15.867188 5.78125 15.722656 5.644531 15.582031 C 5.570312 15.507812 5.507812 15.417969 5.457031 15.320312 C 5.261719 14.953125 5.382812 14.648438 5.816406 14.566406 Z M 5.816406 14.566406 " fill-opacity="1" fill-rule="nonzero"/></g><path fill="#769a8c" d="M 7.691406 20.148438 C 7.542969 20.136719 7.402344 20.128906 7.269531 20.054688 C 7.144531 19.988281 7.070312 19.808594 7.082031 19.652344 C 7.097656 19.5 7.214844 19.339844 7.339844 19.308594 C 7.554688 19.253906 7.761719 19.269531 7.976562 19.277344 C 9.019531 19.320312 10.039062 19.492188 11.039062 19.804688 C 11.152344 19.839844 11.257812 19.894531 11.363281 19.949219 C 11.449219 20 11.46875 20.070312 11.351562 20.097656 C 11.097656 20.148438 10.839844 20.207031 10.582031 20.21875 C 10.21875 20.242188 8.289062 20.199219 7.691406 20.148438 Z M 7.691406 20.148438 " fill-opacity="1" fill-rule="nonzero"/><path fill="#769a8c" d="M 11.253906 21.050781 C 11.296875 21.164062 11.128906 21.25 11.050781 21.304688 C 10.34375 21.8125 9.589844 22.242188 8.785156 22.582031 C 8.636719 22.644531 8.46875 22.675781 8.308594 22.675781 C 8.074219 22.675781 7.933594 22.449219 8.042969 22.242188 C 8.109375 22.113281 8.21875 21.984375 8.34375 21.90625 C 8.613281 21.746094 8.894531 21.578125 9.191406 21.480469 C 9.75 21.304688 10.320312 21.175781 10.882812 21.03125 C 10.910156 21.023438 11.210938 20.9375 11.253906 21.050781 Z M 11.253906 21.050781 " fill-opacity="1" fill-rule="nonzero"/><g clip-path="url(#8e6f27878a)"><path fill="#769a8c" d="M 5.4375 35.121094 C 5.445312 34.496094 5.902344 33.953125 6.480469 33.902344 C 6.617188 33.886719 6.765625 33.902344 6.898438 33.945312 C 7.390625 34.097656 7.785156 34.785156 7.695312 35.300781 C 7.597656 35.859375 7.074219 36.296875 6.515625 36.289062 C 5.898438 36.285156 5.429688 35.773438 5.4375 35.121094 Z M 5.4375 35.121094 " fill-opacity="1" fill-rule="nonzero"/></g><path fill="#769a8c" d="M 45.359375 37.835938 C 45.355469 38.457031 44.71875 39.058594 44.101562 39.027344 C 43.828125 39.011719 43.609375 38.890625 43.445312 38.679688 C 43.171875 38.328125 43.167969 37.820312 43.429688 37.398438 C 43.691406 36.984375 44.136719 36.78125 44.578125 36.875 C 45.039062 36.972656 45.363281 37.371094 45.359375 37.835938 Z M 45.359375 37.835938 " fill-opacity="1" fill-rule="nonzero"/><g clip-path="url(#2162f1e0fb)"><path fill="#769a8c" d="M 29.898438 48.074219 C 29.898438 48.828125 29.070312 49.347656 28.40625 49.003906 C 27.851562 48.71875 27.742188 47.996094 28.183594 47.5625 C 28.253906 47.492188 28.335938 47.429688 28.414062 47.363281 C 28.695312 47.117188 29.011719 47.066406 29.351562 47.21875 C 29.6875 47.367188 29.898438 47.707031 29.898438 48.074219 Z M 29.898438 48.074219 " fill-opacity="1" fill-rule="nonzero"/></g><path fill="#769a8c" d="M 44.199219 23.820312 C 43.695312 23.816406 43.296875 23.417969 43.296875 22.921875 C 43.296875 22.433594 43.703125 22.019531 44.179688 22.023438 C 44.699219 22.027344 45.132812 22.441406 45.125 22.925781 C 45.121094 23.421875 44.707031 23.820312 44.199219 23.820312 Z M 44.199219 23.820312 " fill-opacity="1" fill-rule="nonzero"/><g clip-path="url(#18a38a7a86)"><path fill="#769a8c" d="M 6.09375 22.703125 C 6.601562 22.707031 6.964844 23.050781 6.964844 23.53125 C 6.960938 24.007812 6.566406 24.390625 6.078125 24.382812 C 5.597656 24.378906 5.207031 23.988281 5.207031 23.515625 C 5.207031 23.035156 5.574219 22.699219 6.09375 22.703125 Z M 6.09375 22.703125 " fill-opacity="1" fill-rule="nonzero"/></g><path fill="#769a8c" d="M 15.234375 11.148438 C 15.234375 11.585938 14.894531 11.921875 14.453125 11.921875 C 14.015625 11.921875 13.671875 11.574219 13.675781 11.140625 C 13.683594 10.710938 14.03125 10.363281 14.460938 10.359375 C 14.890625 10.359375 15.238281 10.710938 15.234375 11.148438 Z M 15.234375 11.148438 " fill-opacity="1" fill-rule="nonzero"/><g clip-path="url(#79f90897fc)"><path fill="#769a8c" d="M 21.394531 48.988281 C 21.390625 49.277344 21.160156 49.507812 20.875 49.507812 C 20.578125 49.507812 20.335938 49.261719 20.339844 48.964844 C 20.347656 48.675781 20.574219 48.445312 20.859375 48.441406 C 21.15625 48.441406 21.394531 48.6875 21.394531 48.988281 Z M 21.394531 48.988281 " fill-opacity="1" fill-rule="nonzero"/></g><g clip-path="url(#97af163228)"><path fill="#769a8c" d="M 6.894531 31.707031 C 6.898438 31.996094 6.664062 32.226562 6.375 32.226562 C 6.085938 32.222656 5.855469 31.988281 5.851562 31.703125 C 5.847656 31.410156 6.074219 31.175781 6.363281 31.175781 C 6.65625 31.171875 6.894531 31.410156 6.894531 31.707031 Z M 6.894531 31.707031 " fill-opacity="1" fill-rule="nonzero"/></g><path fill="#769a8c" d="M 42.699219 21.234375 C 42.695312 21.488281 42.480469 21.6875 42.21875 21.683594 C 41.960938 21.679688 41.753906 21.472656 41.753906 21.21875 C 41.757812 20.960938 41.964844 20.757812 42.222656 20.757812 C 42.488281 20.757812 42.703125 20.972656 42.699219 21.234375 Z M 42.699219 21.234375 " fill-opacity="1" fill-rule="nonzero"/><path fill="#769a8c" d="M 17.152344 10.59375 C 16.898438 10.59375 16.699219 10.386719 16.703125 10.136719 C 16.703125 9.882812 16.910156 9.683594 17.160156 9.679688 C 17.417969 9.679688 17.636719 9.890625 17.636719 10.144531 C 17.640625 10.386719 17.414062 10.597656 17.152344 10.59375 Z M 17.152344 10.59375 " fill-opacity="1" fill-rule="nonzero"/><path fill="#769a8c" d="M 22.0625 45.382812 C 22.066406 45.140625 22.269531 44.9375 22.507812 44.945312 C 22.730469 44.949219 22.902344 45.125 22.902344 45.351562 C 22.90625 45.601562 22.695312 45.820312 22.457031 45.8125 C 22.234375 45.804688 22.0625 45.617188 22.0625 45.382812 Z M 22.0625 45.382812 " fill-opacity="1" fill-rule="nonzero"/></svg>