<svg xmlns="http://www.w3.org/2000/svg" xmlns:xlink="http://www.w3.org/1999/xlink" width="70" zoomAndPan="magnify" viewBox="0 0 52.5 52.499999" height="70" preserveAspectRatio="xMidYMid meet" version="1.0"><defs><clipPath id="7bda570871"><path d="M 2.140625 10.3125 L 49.6875 10.3125 L 49.6875 41.515625 L 2.140625 41.515625 Z M 2.140625 10.3125 " clip-rule="nonzero"/></clipPath><clipPath id="554035a382"><path d="M 2.140625 11 L 49.6875 11 L 49.6875 29 L 2.140625 29 Z M 2.140625 11 " clip-rule="nonzero"/></clipPath></defs><g clip-path="url(#7bda570871)"><path fill="#8bac67" d="M 46.101562 11.804688 L 5.910156 11.804688 C 5.289062 11.804688 4.726562 12.058594 4.316406 12.464844 C 3.910156 12.875 3.65625 13.4375 3.65625 14.058594 L 3.65625 37.949219 C 3.65625 38.566406 3.910156 39.128906 4.316406 39.539062 C 4.726562 39.945312 5.289062 40.199219 5.910156 40.199219 L 46.101562 40.199219 C 46.71875 40.199219 47.28125 39.945312 47.691406 39.539062 C 48.101562 39.128906 48.355469 38.566406 48.355469 37.949219 L 48.355469 14.058594 C 48.355469 13.4375 48.101562 12.875 47.691406 12.464844 C 47.28125 12.058594 46.71875 11.804688 46.101562 11.804688 Z M 5.910156 10.3125 L 46.101562 10.3125 C 47.128906 10.3125 48.066406 10.734375 48.746094 11.414062 C 49.421875 12.089844 49.84375 13.027344 49.84375 14.058594 L 49.84375 37.949219 C 49.84375 38.976562 49.421875 39.914062 48.746094 40.59375 C 48.066406 41.269531 47.128906 41.691406 46.101562 41.691406 L 5.910156 41.691406 C 4.878906 41.691406 3.941406 41.269531 3.265625 40.59375 C 2.585938 39.914062 2.164062 38.976562 2.164062 37.949219 L 2.164062 14.058594 C 2.164062 13.027344 2.585938 12.089844 3.265625 11.414062 C 3.941406 10.734375 4.878906 10.3125 5.910156 10.3125 " fill-opacity="1" fill-rule="nonzero"/></g><g clip-path="url(#554035a382)"><path fill="#8bac67" d="M 25.582031 28.554688 L 25.566406 28.542969 C 25.515625 28.515625 25.46875 28.480469 25.425781 28.445312 L 3.117188 12.832031 C 2.78125 12.597656 2.699219 12.132812 2.933594 11.796875 C 3.167969 11.460938 3.628906 11.378906 3.964844 11.613281 L 26.019531 27.050781 L 48.054688 11.625 C 48.390625 11.390625 48.851562 11.476562 49.085938 11.808594 C 49.320312 12.144531 49.238281 12.609375 48.902344 12.84375 L 26.492188 28.53125 C 26.488281 28.535156 26.484375 28.535156 26.476562 28.539062 L 26.476562 28.542969 L 26.472656 28.542969 L 26.46875 28.546875 L 26.453125 28.558594 L 26.449219 28.558594 C 26.417969 28.582031 26.382812 28.601562 26.347656 28.621094 L 26.332031 28.628906 L 26.320312 28.632812 L 26.316406 28.632812 C 26.257812 28.660156 26.195312 28.679688 26.128906 28.6875 C 26.082031 28.699219 26.03125 28.699219 25.976562 28.699219 C 25.921875 28.699219 25.867188 28.6875 25.820312 28.667969 C 25.785156 28.660156 25.753906 28.648438 25.71875 28.632812 L 25.703125 28.628906 L 25.699219 28.625 L 25.691406 28.621094 C 25.652344 28.601562 25.617188 28.578125 25.582031 28.554688 L 25.570312 28.546875 L 25.582031 28.554688 " fill-opacity="1" fill-rule="nonzero"/></g></svg>