<svg xmlns="http://www.w3.org/2000/svg" xmlns:xlink="http://www.w3.org/1999/xlink" width="70" zoomAndPan="magnify" viewBox="0 0 52.5 52.499999" height="70" preserveAspectRatio="xMidYMid meet" version="1.0"><defs><clipPath id="a617822ed1"><path d="M 0 0 L 52.003906 0 L 52.003906 52.003906 L 0 52.003906 Z M 0 0 " clip-rule="nonzero"/></clipPath><clipPath id="87ad55bc72"><path d="M 2.058594 9.214844 L 49.605469 9.214844 L 49.605469 42.644531 L 2.058594 42.644531 Z M 2.058594 9.214844 " clip-rule="nonzero"/></clipPath><clipPath id="efba996055"><path d="M 2.058594 11 L 49.605469 11 L 49.605469 30 L 2.058594 30 Z M 2.058594 11 " clip-rule="nonzero"/></clipPath><clipPath id="3e2a0a517b"><path d="M 2.058594 25 L 23 25 L 23 42 L 2.058594 42 Z M 2.058594 25 " clip-rule="nonzero"/></clipPath><clipPath id="91e273a9f9"><path d="M 30 25 L 49.605469 25 L 49.605469 42 L 30 42 Z M 30 25 " clip-rule="nonzero"/></clipPath></defs><g clip-path="url(#a617822ed1)"><path fill="#ffffff" d="M 0 0 L 52.003906 0 L 52.003906 52.003906 L 0 52.003906 Z M 0 0 " fill-opacity="1" fill-rule="nonzero"/><path fill="#ffffff" d="M 0 0 L 52.003906 0 L 52.003906 52.003906 L 0 52.003906 Z M 0 0 " fill-opacity="1" fill-rule="nonzero"/></g><g clip-path="url(#87ad55bc72)"><path fill="#d1b7a0" d="M 5.542969 11.027344 C 4.628906 11.027344 3.882812 11.773438 3.882812 12.691406 L 3.882812 39.3125 C 3.882812 40.230469 4.628906 40.972656 5.542969 40.972656 L 46.457031 40.972656 C 47.371094 40.972656 48.117188 40.230469 48.117188 39.3125 L 48.117188 12.691406 C 48.117188 11.773438 47.371094 11.027344 46.457031 11.027344 Z M 46.457031 42.785156 L 5.542969 42.785156 C 3.628906 42.785156 2.070312 41.226562 2.070312 39.3125 L 2.070312 12.691406 C 2.070312 10.773438 3.628906 9.214844 5.542969 9.214844 L 46.457031 9.214844 C 48.371094 9.214844 49.929688 10.773438 49.929688 12.691406 L 49.929688 39.3125 C 49.929688 41.226562 48.371094 42.785156 46.457031 42.785156 " fill-opacity="1" fill-rule="nonzero"/></g><g clip-path="url(#efba996055)"><path fill="#d1b7a0" d="M 26.300781 29.753906 C 25.59375 29.753906 24.890625 29.542969 24.335938 29.121094 L 2.589844 12.59375 L 3.6875 11.152344 L 25.433594 27.679688 C 25.898438 28.03125 26.734375 28.023438 27.191406 27.664062 L 48.300781 11.050781 L 49.421875 12.472656 L 28.3125 29.089844 C 27.753906 29.53125 27.027344 29.753906 26.300781 29.753906 " fill-opacity="1" fill-rule="nonzero"/></g><g clip-path="url(#3e2a0a517b)"><path fill="#d1b7a0" d="M 3.6875 41.128906 L 2.589844 39.6875 L 21.363281 25.417969 L 22.460938 26.863281 L 3.6875 41.128906 " fill-opacity="1" fill-rule="nonzero"/></g><g clip-path="url(#91e273a9f9)"><path fill="#d1b7a0" d="M 48.300781 41.234375 L 30.03125 26.851562 L 31.152344 25.429688 L 49.421875 39.808594 L 48.300781 41.234375 " fill-opacity="1" fill-rule="nonzero"/></g></svg>