<svg xmlns="http://www.w3.org/2000/svg" xmlns:xlink="http://www.w3.org/1999/xlink" width="70" zoomAndPan="magnify" viewBox="0 0 52.5 52.499999" height="70" preserveAspectRatio="xMidYMid meet" version="1.0"><defs><clipPath id="874fc4245e"><path d="M 3.640625 2.859375 L 48.214844 2.859375 L 48.214844 48.921875 L 3.640625 48.921875 Z M 3.640625 2.859375 " clip-rule="nonzero"/></clipPath></defs><path fill="#d1b7a0" d="M 37.941406 43.417969 L 37.941406 45.699219 C 37.941406 45.894531 38.097656 46.054688 38.292969 46.054688 L 41.800781 46.054688 C 41.992188 46.054688 42.152344 45.894531 42.152344 45.699219 L 42.152344 43.417969 C 42.152344 42.339844 41.273438 41.460938 40.195312 41.460938 L 39.894531 41.460938 C 38.816406 41.460938 37.941406 42.339844 37.941406 43.417969 Z M 38.644531 43.417969 C 38.644531 42.726562 39.207031 42.167969 39.894531 42.167969 L 40.195312 42.167969 C 40.886719 42.167969 41.449219 42.726562 41.449219 43.417969 L 41.449219 45.347656 L 38.644531 45.347656 Z M 38.644531 43.417969 " fill-opacity="1" fill-rule="nonzero"/><path fill="#d1b7a0" d="M 12 41.460938 L 11.699219 41.460938 C 10.621094 41.460938 9.742188 42.339844 9.742188 43.417969 L 9.742188 45.699219 C 9.742188 45.894531 9.902344 46.054688 10.09375 46.054688 L 13.601562 46.054688 C 13.796875 46.054688 13.953125 45.894531 13.953125 45.699219 L 13.953125 43.417969 C 13.953125 42.339844 13.078125 41.460938 12 41.460938 Z M 13.25 45.347656 L 10.445312 45.347656 L 10.445312 43.417969 C 10.445312 42.726562 11.007812 42.167969 11.699219 42.167969 L 12 42.167969 C 12.6875 42.167969 13.25 42.726562 13.25 43.417969 Z M 13.25 45.347656 " fill-opacity="1" fill-rule="nonzero"/><g clip-path="url(#874fc4245e)"><path fill="#d1b7a0" d="M 4.226562 33.109375 L 6.980469 31.464844 L 6.980469 48.789062 C 6.980469 48.984375 7.136719 49.140625 7.332031 49.140625 L 44.511719 49.140625 C 44.707031 49.140625 44.863281 48.984375 44.863281 48.789062 L 44.863281 31.390625 L 47.761719 33.113281 C 47.820312 33.144531 47.882812 33.160156 47.941406 33.160156 C 48.0625 33.160156 48.179688 33.101562 48.246094 32.988281 C 48.34375 32.820312 48.289062 32.605469 48.121094 32.507812 L 33.859375 24.035156 L 33.859375 15.785156 L 36.804688 17.628906 C 36.863281 17.664062 36.925781 17.683594 36.988281 17.683594 C 37.105469 17.683594 37.222656 17.625 37.289062 17.515625 C 37.390625 17.351562 37.339844 17.136719 37.175781 17.03125 L 33.695312 14.851562 L 32.207031 13.921875 L 26.292969 10.222656 L 26.292969 5.925781 L 28.46875 5.925781 C 28.664062 5.925781 28.820312 5.769531 28.820312 5.574219 C 28.820312 5.378906 28.664062 5.222656 28.46875 5.222656 L 26.292969 5.222656 L 26.292969 3.210938 C 26.292969 3.015625 26.136719 2.859375 25.941406 2.859375 C 25.746094 2.859375 25.589844 3.015625 25.589844 3.210938 L 25.589844 5.222656 L 23.414062 5.222656 C 23.21875 5.222656 23.0625 5.378906 23.0625 5.574219 C 23.0625 5.769531 23.21875 5.925781 23.414062 5.925781 L 25.589844 5.925781 L 25.589844 10.269531 L 14.734375 16.957031 C 14.566406 17.058594 14.515625 17.277344 14.617188 17.441406 C 14.71875 17.605469 14.9375 17.660156 15.101562 17.554688 L 17.984375 15.78125 L 17.984375 24.066406 L 3.867188 32.507812 C 3.699219 32.605469 3.644531 32.824219 3.746094 32.988281 C 3.84375 33.15625 4.0625 33.210938 4.226562 33.109375 Z M 25.628906 48.4375 L 22.476562 48.4375 L 22.476562 45.148438 C 22.476562 43.402344 23.890625 41.984375 25.628906 41.972656 Z M 29.484375 48.4375 L 26.332031 48.4375 L 26.332031 41.972656 C 28.074219 41.984375 29.484375 43.402344 29.484375 45.148438 Z M 33.859375 24.890625 L 44.160156 31.050781 L 44.160156 48.4375 L 35.921875 48.4375 L 35.921875 32.6875 L 38.371094 34.152344 C 38.429688 34.1875 38.492188 34.203125 38.550781 34.203125 C 38.671875 34.203125 38.789062 34.140625 38.855469 34.03125 C 38.953125 33.863281 38.902344 33.648438 38.734375 33.550781 L 35.75 31.765625 L 33.859375 30.632812 Z M 18.6875 15.347656 L 25.808594 10.960938 L 25.980469 10.855469 L 32.152344 14.71875 L 33.15625 15.347656 L 33.15625 30.214844 L 26.101562 25.992188 C 25.992188 25.925781 25.851562 25.925781 25.742188 25.992188 L 18.6875 30.214844 Z M 21.644531 29.265625 L 25.921875 26.707031 L 30.199219 29.265625 L 35.21875 32.265625 L 35.21875 48.4375 L 30.1875 48.4375 L 30.1875 45.148438 C 30.1875 43.007812 28.449219 41.265625 26.308594 41.265625 L 25.652344 41.265625 C 23.515625 41.265625 21.773438 43.007812 21.773438 45.148438 L 21.773438 48.4375 L 16.625 48.4375 L 16.625 32.265625 Z M 7.683594 31.050781 L 17.984375 24.890625 L 17.984375 30.632812 L 16.09375 31.765625 L 13.109375 33.550781 C 12.941406 33.648438 12.886719 33.863281 12.988281 34.03125 C 13.089844 34.199219 13.304688 34.253906 13.472656 34.152344 L 15.921875 32.6875 L 15.921875 48.4375 L 7.683594 48.4375 Z M 7.683594 31.050781 " fill-opacity="1" fill-rule="nonzero"/></g><path fill="#d1b7a0" d="M 24.113281 33.109375 L 25.589844 33.109375 L 25.589844 36.273438 C 25.589844 36.46875 25.746094 36.625 25.941406 36.625 C 26.136719 36.625 26.292969 36.46875 26.292969 36.273438 L 26.292969 33.109375 L 27.769531 33.109375 C 27.964844 33.109375 28.121094 32.949219 28.121094 32.757812 C 28.121094 32.5625 27.964844 32.40625 27.769531 32.40625 L 26.292969 32.40625 L 26.292969 31.050781 C 26.292969 30.855469 26.136719 30.699219 25.941406 30.699219 C 25.746094 30.699219 25.589844 30.855469 25.589844 31.050781 L 25.589844 32.40625 L 24.113281 32.40625 C 23.921875 32.40625 23.761719 32.5625 23.761719 32.757812 C 23.761719 32.949219 23.921875 33.109375 24.113281 33.109375 Z M 24.113281 33.109375 " fill-opacity="1" fill-rule="nonzero"/><path fill="#d1b7a0" d="M 25.933594 23.496094 C 26.039062 23.496094 26.140625 23.476562 26.238281 23.433594 C 26.40625 23.363281 26.570312 23.28125 26.761719 23.175781 C 26.996094 23.046875 27.21875 22.902344 27.433594 22.746094 C 28.761719 21.769531 29.40625 20.65625 29.292969 19.527344 C 29.203125 18.625 28.46875 17.910156 27.585938 17.871094 C 27.1875 17.851562 26.777344 17.992188 26.402344 18.273438 C 26.222656 18.40625 26.0625 18.558594 25.921875 18.722656 C 25.78125 18.558594 25.621094 18.40625 25.441406 18.273438 C 25.0625 17.992188 24.65625 17.851562 24.257812 17.871094 C 23.375 17.910156 22.640625 18.625 22.550781 19.527344 C 22.4375 20.65625 23.082031 21.769531 24.410156 22.746094 C 24.625 22.902344 24.847656 23.046875 25.078125 23.171875 C 25.273438 23.28125 25.4375 23.363281 25.605469 23.433594 C 25.707031 23.476562 25.8125 23.496094 25.921875 23.496094 C 25.925781 23.496094 25.929688 23.496094 25.933594 23.496094 Z M 25.417969 22.558594 C 25.214844 22.445312 25.015625 22.316406 24.828125 22.179688 C 24.050781 21.605469 23.140625 20.695312 23.25 19.597656 C 23.308594 19.046875 23.761719 18.597656 24.289062 18.574219 C 24.300781 18.570312 24.3125 18.570312 24.328125 18.570312 C 24.605469 18.570312 24.855469 18.714844 25.019531 18.835938 C 25.207031 18.976562 25.371094 19.144531 25.496094 19.320312 C 25.59375 19.457031 25.753906 19.539062 25.921875 19.539062 C 26.09375 19.539062 26.253906 19.457031 26.347656 19.320312 C 26.472656 19.144531 26.636719 18.976562 26.824219 18.835938 C 26.996094 18.707031 27.257812 18.558594 27.554688 18.574219 C 28.082031 18.597656 28.535156 19.046875 28.589844 19.597656 C 28.699219 20.695312 27.792969 21.605469 27.015625 22.179688 C 26.828125 22.316406 26.628906 22.445312 26.421875 22.558594 C 26.25 22.65625 26.109375 22.726562 25.964844 22.785156 C 25.953125 22.789062 25.9375 22.792969 25.921875 22.792969 C 25.910156 22.792969 25.894531 22.792969 25.878906 22.785156 C 25.734375 22.726562 25.59375 22.65625 25.417969 22.558594 Z M 25.417969 22.558594 " fill-opacity="1" fill-rule="nonzero"/></svg>