<svg xmlns="http://www.w3.org/2000/svg" xmlns:xlink="http://www.w3.org/1999/xlink" width="70" zoomAndPan="magnify" viewBox="0 0 52.5 52.499999" height="70" preserveAspectRatio="xMidYMid meet" version="1.0"><defs><clipPath id="1fe96d9091"><path d="M 7.746094 36 L 18 36 L 18 46 L 7.746094 46 Z M 7.746094 36 " clip-rule="nonzero"/></clipPath><clipPath id="63d62cab51"><path d="M 17 42 L 34 42 L 34 47.753906 L 17 47.753906 Z M 17 42 " clip-rule="nonzero"/></clipPath><clipPath id="f5adbabcef"><path d="M 18 44 L 24 44 L 24 47.753906 L 18 47.753906 Z M 18 44 " clip-rule="nonzero"/></clipPath><clipPath id="ce598b20b5"><path d="M 26 30 L 44 30 L 44 47.753906 L 26 47.753906 Z M 26 30 " clip-rule="nonzero"/></clipPath><clipPath id="15efc4bdf7"><path d="M 38 40 L 44.152344 40 L 44.152344 47.753906 L 38 47.753906 Z M 38 40 " clip-rule="nonzero"/></clipPath></defs><path fill="#dbbf97" d="M 12.375 6.363281 C 12.464844 6.160156 12.683594 5.953125 13.042969 5.769531 C 13.464844 5.558594 14.105469 5.359375 14.914062 5.1875 C 20.105469 4.082031 32.441406 3.925781 37.242188 5.222656 C 38.046875 5.4375 38.648438 5.703125 39 6 C 39.226562 6.191406 39.359375 6.402344 39.410156 6.617188 C 39.460938 6.851562 39.425781 7.097656 39.269531 7.359375 C 39.050781 7.726562 38.660156 7.976562 38.125 8.132812 C 37.445312 8.328125 36.519531 8.390625 35.496094 8.484375 C 33.898438 8.632812 32.382812 8.582031 25.367188 8.582031 C 19.679688 8.582031 15.820312 8.835938 13.886719 8.507812 C 12.960938 8.351562 12.433594 8.027344 12.25 7.582031 C 12.125 7.265625 12.144531 6.863281 12.375 6.363281 Z M 12.976562 6.636719 C 12.84375 6.925781 12.789062 7.152344 12.863281 7.332031 C 12.914062 7.449219 13.019531 7.539062 13.167969 7.613281 C 13.375 7.722656 13.652344 7.796875 13.996094 7.855469 C 15.914062 8.179688 19.738281 7.921875 25.367188 7.921875 C 32.339844 7.921875 33.847656 7.972656 35.433594 7.824219 C 36.410156 7.734375 37.292969 7.683594 37.9375 7.496094 C 38.285156 7.394531 38.558594 7.261719 38.703125 7.019531 C 38.753906 6.933594 38.78125 6.851562 38.765625 6.773438 C 38.734375 6.621094 38.59375 6.5 38.390625 6.375 C 37.664062 5.921875 36.222656 5.601562 34.386719 5.371094 C 29.246094 4.722656 21.066406 4.878906 16.363281 5.597656 C 15.179688 5.78125 14.21875 5.996094 13.59375 6.246094 C 13.40625 6.324219 13.253906 6.398438 13.136719 6.480469 C 13.058594 6.535156 13 6.582031 12.976562 6.636719 Z M 12.976562 6.636719 " fill-opacity="1" fill-rule="evenodd"/><path fill="#dbbf97" d="M 16.570312 11.390625 C 17.238281 10.945312 18.410156 10.597656 19.855469 10.359375 C 23.113281 9.820312 27.8125 9.789062 31.113281 10.09375 C 32.550781 10.230469 33.730469 10.429688 34.421875 10.671875 C 34.785156 10.800781 35.03125 10.957031 35.15625 11.105469 C 35.335938 11.328125 35.402344 11.542969 35.390625 11.734375 C 35.382812 11.929688 35.296875 12.113281 35.128906 12.28125 C 34.953125 12.460938 34.65625 12.628906 34.261719 12.769531 C 31.011719 13.941406 20.171875 13.730469 18.460938 13.320312 C 17.75 13.148438 17.144531 12.988281 16.78125 12.78125 C 16.519531 12.628906 16.363281 12.441406 16.304688 12.238281 C 16.246094 12.027344 16.28125 11.773438 16.484375 11.480469 C 16.507812 11.445312 16.535156 11.414062 16.570312 11.390625 Z M 16.992188 11.90625 C 16.953125 11.964844 16.929688 12.011719 16.945312 12.058594 C 16.957031 12.117188 17.023438 12.152344 17.097656 12.199219 C 17.21875 12.269531 17.378906 12.332031 17.5625 12.394531 C 17.859375 12.492188 18.222656 12.578125 18.617188 12.675781 C 20.285156 13.078125 30.863281 13.289062 34.039062 12.148438 C 34.25 12.070312 34.421875 11.992188 34.554688 11.902344 C 34.644531 11.839844 34.714844 11.785156 34.730469 11.714844 C 34.742188 11.652344 34.699219 11.597656 34.640625 11.527344 C 34.539062 11.398438 34.273438 11.308594 33.90625 11.203125 C 33.226562 11.015625 32.230469 10.863281 31.050781 10.753906 C 27.800781 10.453125 23.171875 10.480469 19.960938 11.011719 C 18.671875 11.222656 17.613281 11.511719 16.992188 11.90625 Z M 16.992188 11.90625 " fill-opacity="1" fill-rule="evenodd"/><path fill="#dbbf97" d="M 12.253906 7.472656 C 12.207031 7.296875 12.308594 7.113281 12.484375 7.0625 C 12.660156 7.011719 12.84375 7.117188 12.890625 7.292969 C 13.121094 8.101562 15.015625 11.429688 15.28125 11.890625 C 16.992188 14.886719 18.828125 18.105469 19.242188 18.878906 C 21.988281 24.058594 23.472656 24.632812 25.066406 24.894531 C 25.246094 24.921875 25.371094 25.09375 25.339844 25.273438 C 25.3125 25.453125 25.140625 25.574219 24.960938 25.546875 C 23.257812 25.265625 21.59375 24.726562 18.65625 19.191406 C 18.246094 18.417969 16.414062 15.207031 14.707031 12.21875 C 14.433594 11.742188 12.492188 8.304688 12.253906 7.472656 Z M 12.253906 7.472656 " fill-opacity="1" fill-rule="evenodd"/><path fill="#dbbf97" d="M 38.808594 6.882812 C 38.859375 6.707031 39.046875 6.609375 39.222656 6.664062 C 39.394531 6.71875 39.492188 6.902344 39.4375 7.078125 C 38.863281 8.941406 35.835938 13.992188 33.179688 18.160156 C 32.488281 19.242188 30.871094 22.417969 29.265625 24.203125 C 28.5 25.054688 27.714844 25.582031 27.035156 25.558594 C 26.851562 25.550781 26.710938 25.398438 26.714844 25.214844 C 26.722656 25.035156 26.875 24.890625 27.058594 24.894531 C 27.300781 24.90625 27.554688 24.796875 27.820312 24.621094 C 28.132812 24.414062 28.453125 24.117188 28.773438 23.761719 C 30.355469 22.003906 31.941406 18.871094 32.621094 17.804688 C 35.242188 13.695312 38.238281 8.71875 38.808594 6.882812 Z M 38.808594 6.882812 " fill-opacity="1" fill-rule="evenodd"/><path fill="#dbbf97" d="M 16.359375 12.40625 C 16.265625 12.25 16.3125 12.042969 16.46875 11.949219 C 16.625 11.855469 16.828125 11.902344 16.925781 12.058594 C 18.398438 14.476562 18.261719 14.808594 20.214844 18.242188 C 20.421875 18.605469 21.265625 20.1875 21.367188 20.386719 C 21.46875 20.59375 22.488281 22.394531 24.378906 23.40625 C 25.273438 23.886719 26.710938 23.65625 27.199219 23.445312 C 28.082031 23.066406 28.664062 22.371094 29.167969 21.53125 C 30.371094 19.527344 30.957031 18.507812 31.957031 16.824219 C 31.992188 16.765625 34.082031 13.140625 34.730469 11.625 C 34.800781 11.457031 34.996094 11.378906 35.164062 11.449219 C 35.332031 11.523438 35.410156 11.714844 35.335938 11.882812 C 34.683594 13.421875 32.5625 17.101562 32.523438 17.160156 C 31.523438 18.847656 30.941406 19.867188 29.734375 21.871094 C 29.15625 22.835938 28.476562 23.617188 27.460938 24.054688 C 26.871094 24.308594 25.144531 24.566406 24.066406 23.988281 C 22 22.878906 20.886719 20.90625 20.773438 20.683594 C 20.675781 20.484375 19.84375 18.925781 19.636719 18.566406 C 17.691406 15.144531 17.828125 14.816406 16.359375 12.40625 Z M 16.359375 12.40625 " fill-opacity="1" fill-rule="evenodd"/><path fill="#dbbf97" d="M 25.867188 28.742188 C 25.898438 28.671875 25.953125 28.613281 26.03125 28.578125 C 26.335938 28.4375 26.597656 28.441406 26.8125 28.527344 C 27.109375 28.644531 27.335938 28.941406 27.453125 29.34375 C 27.597656 29.835938 27.582031 30.480469 27.425781 30.976562 C 27.300781 31.371094 27.078125 31.664062 26.8125 31.785156 C 26.207031 32.058594 25.253906 32.058594 24.65625 31.542969 C 24.253906 31.195312 23.988281 30.621094 24.117188 29.726562 C 24.144531 29.535156 24.28125 29.164062 24.5 28.890625 C 24.679688 28.667969 24.90625 28.511719 25.15625 28.480469 C 25.371094 28.457031 25.613281 28.511719 25.867188 28.742188 Z M 26.226562 29.207031 C 26.304688 29.335938 26.386719 29.488281 26.464844 29.667969 C 26.539062 29.832031 26.464844 30.027344 26.296875 30.101562 C 26.128906 30.175781 25.933594 30.101562 25.859375 29.9375 C 25.707031 29.59375 25.566406 29.367188 25.425781 29.238281 C 25.355469 29.171875 25.296875 29.132812 25.234375 29.136719 C 25.148438 29.148438 25.082031 29.226562 25.019531 29.304688 C 24.878906 29.472656 24.789062 29.699219 24.769531 29.820312 C 24.6875 30.417969 24.820312 30.808594 25.085938 31.039062 C 25.488281 31.386719 26.132812 31.367188 26.539062 31.183594 C 26.667969 31.125 26.738281 30.960938 26.796875 30.777344 C 26.914062 30.398438 26.929688 29.90625 26.816406 29.53125 C 26.765625 29.351562 26.699219 29.195312 26.566406 29.144531 C 26.496094 29.113281 26.410156 29.132812 26.304688 29.179688 C 26.28125 29.191406 26.253906 29.199219 26.226562 29.207031 Z M 26.226562 29.207031 " fill-opacity="1" fill-rule="evenodd"/><path fill="#dbbf97" d="M 23.183594 24.964844 C 23.054688 24.835938 23.054688 24.625 23.183594 24.496094 C 23.3125 24.367188 23.519531 24.367188 23.648438 24.496094 C 24.132812 24.976562 24.480469 25.695312 24.71875 26.40625 C 25.066406 27.449219 25.179688 28.472656 25.175781 28.648438 C 25.167969 28.832031 25.019531 28.976562 24.835938 28.972656 C 24.652344 28.96875 24.507812 28.816406 24.511719 28.632812 C 24.515625 28.476562 24.40625 27.554688 24.089844 26.613281 C 23.886719 26.003906 23.597656 25.378906 23.183594 24.964844 Z M 23.183594 24.964844 " fill-opacity="1" fill-rule="evenodd"/><path fill="#dbbf97" d="M 27.542969 24.796875 C 27.671875 24.671875 27.882812 24.675781 28.007812 24.804688 C 28.136719 24.9375 28.132812 25.148438 28.003906 25.273438 C 27.644531 25.621094 27.40625 26.1875 27.238281 26.761719 C 26.972656 27.679688 26.890625 28.617188 26.875 28.839844 C 26.859375 29.023438 26.703125 29.160156 26.519531 29.144531 C 26.335938 29.132812 26.199219 28.972656 26.214844 28.789062 C 26.234375 28.554688 26.320312 27.550781 26.605469 26.574219 C 26.804688 25.886719 27.109375 25.214844 27.542969 24.796875 Z M 27.542969 24.796875 " fill-opacity="1" fill-rule="evenodd"/><path fill="#dbbf97" d="M 24.386719 28.898438 C 24.566406 28.933594 24.683594 29.105469 24.652344 29.285156 C 24.617188 29.464844 24.445312 29.582031 24.265625 29.550781 C 23.308594 29.375 20.21875 28.242188 17.84375 27.777344 C 16.898438 27.59375 16.074219 27.507812 15.578125 27.671875 C 14.558594 28.011719 13.527344 29.335938 13.089844 30.480469 C 12.953125 30.84375 12.871094 31.1875 12.886719 31.476562 C 12.898438 31.679688 12.953125 31.851562 13.101562 31.945312 C 14.753906 32.984375 16.21875 32.640625 17.832031 32.011719 C 19.570312 31.332031 21.46875 30.332031 23.894531 30.128906 C 24.078125 30.113281 24.238281 30.25 24.253906 30.433594 C 24.269531 30.613281 24.132812 30.773438 23.949219 30.789062 C 21.597656 30.984375 19.757812 31.96875 18.070312 32.628906 C 16.257812 33.335938 14.609375 33.675781 12.75 32.507812 C 12.289062 32.21875 12.132812 31.625 12.28125 30.894531 C 12.449219 30.046875 13.019531 29.003906 13.746094 28.207031 C 14.242188 27.660156 14.8125 27.230469 15.367188 27.046875 C 15.9375 26.855469 16.882812 26.917969 17.972656 27.128906 C 20.34375 27.589844 23.425781 28.722656 24.386719 28.898438 Z M 24.386719 28.898438 " fill-opacity="1" fill-rule="evenodd"/><path fill="#dbbf97" d="M 24.195312 30.035156 C 24.359375 30.117188 24.429688 30.3125 24.351562 30.476562 C 24.269531 30.640625 24.074219 30.710938 23.910156 30.632812 C 23.453125 30.410156 22.640625 30.402344 21.710938 30.476562 C 19.394531 30.65625 16.398438 31.425781 15.957031 31.539062 C 15.679688 31.609375 15.125 31.773438 14.769531 32.023438 C 14.664062 32.097656 14.566406 32.167969 14.554688 32.265625 C 14.550781 32.304688 14.574219 32.34375 14.605469 32.386719 C 14.648438 32.449219 14.714844 32.511719 14.800781 32.578125 C 14.945312 32.691406 14.96875 32.898438 14.859375 33.042969 C 14.746094 33.1875 14.539062 33.210938 14.394531 33.101562 C 13.980469 32.777344 13.871094 32.460938 13.898438 32.199219 C 13.925781 31.933594 14.105469 31.683594 14.386719 31.484375 C 14.804688 31.183594 15.460938 30.980469 15.792969 30.898438 C 16.242188 30.78125 19.300781 30 21.660156 29.816406 C 22.734375 29.730469 23.667969 29.78125 24.195312 30.035156 Z M 24.195312 30.035156 " fill-opacity="1" fill-rule="evenodd"/><path fill="#dbbf97" d="M 24.714844 31.160156 C 24.878906 31.082031 25.078125 31.152344 25.15625 31.316406 C 25.234375 31.484375 25.164062 31.679688 25 31.757812 C 24.636719 31.929688 23.871094 32.613281 22.882812 33.421875 C 21.328125 34.695312 19.246094 36.277344 17.304688 36.875 C 16.277344 37.191406 15.5 37.390625 14.910156 37.617188 C 14.390625 37.8125 14.03125 38.019531 13.789062 38.378906 C 13.445312 38.890625 13.335938 39.671875 13.285156 41.023438 C 13.265625 41.59375 12.957031 42.402344 12.425781 43.207031 C 11.644531 44.378906 10.390625 45.542969 8.949219 45.941406 C 8.773438 45.988281 8.589844 45.886719 8.539062 45.707031 C 8.492188 45.53125 8.597656 45.351562 8.773438 45.300781 C 10.0625 44.945312 11.175781 43.890625 11.875 42.839844 C 12.324219 42.160156 12.609375 41.484375 12.625 41 C 12.679688 39.46875 12.851562 38.589844 13.242188 38.007812 C 13.554688 37.546875 14.003906 37.253906 14.675781 37 C 15.273438 36.769531 16.066406 36.5625 17.109375 36.242188 C 18.976562 35.667969 20.96875 34.132812 22.464844 32.910156 C 23.511719 32.050781 24.328125 31.34375 24.714844 31.160156 Z M 24.714844 31.160156 " fill-opacity="1" fill-rule="evenodd"/><path fill="#dbbf97" d="M 24.183594 30.710938 C 24.363281 30.707031 24.515625 30.847656 24.523438 31.03125 C 24.527344 31.214844 24.386719 31.367188 24.203125 31.375 C 23.71875 31.390625 21.554688 31.914062 19.191406 34.257812 C 18.082031 35.355469 17.203125 35.695312 16.359375 36.09375 C 15.582031 36.460938 14.839844 36.886719 13.960938 38.128906 C 13.855469 38.277344 13.648438 38.3125 13.5 38.207031 C 13.351562 38.101562 13.316406 37.894531 13.421875 37.746094 C 14.394531 36.371094 15.214844 35.902344 16.074219 35.496094 C 16.863281 35.125 17.691406 34.8125 18.722656 33.789062 C 21.285156 31.25 23.65625 30.730469 24.183594 30.710938 Z M 24.183594 30.710938 " fill-opacity="1" fill-rule="evenodd"/><g clip-path="url(#1fe96d9091)"><path fill="#dbbf97" d="M 9.285156 44.398438 C 9.503906 44.089844 9.65625 43.792969 9.832031 43.488281 C 9.5 43.472656 9.585938 43.472656 9.523438 43.46875 C 9.238281 43.453125 8.371094 43.347656 8.082031 43.332031 C 7.929688 43.324219 7.800781 43.210938 7.773438 43.058594 C 7.75 42.90625 7.832031 42.757812 7.972656 42.699219 C 8.269531 42.574219 9.984375 42.003906 11.589844 41.171875 C 12.613281 40.636719 13.597656 40.003906 14.09375 39.300781 C 14.277344 39.042969 14.585938 38.429688 15.054688 37.824219 C 15.554688 37.167969 16.230469 36.527344 17.101562 36.269531 C 17.273438 36.21875 17.460938 36.316406 17.511719 36.492188 C 17.5625 36.667969 17.464844 36.851562 17.289062 36.90625 C 16.558594 37.121094 16 37.675781 15.578125 38.226562 C 15.117188 38.824219 14.8125 39.425781 14.632812 39.683594 C 14.089844 40.453125 13.019531 41.171875 11.894531 41.757812 C 11.074219 42.183594 10.226562 42.539062 9.550781 42.808594 C 9.554688 42.808594 9.558594 42.808594 9.558594 42.808594 C 9.644531 42.8125 9.449219 42.8125 10.429688 42.855469 C 10.550781 42.859375 10.660156 42.929688 10.714844 43.042969 C 10.765625 43.152344 10.753906 43.28125 10.683594 43.378906 C 10.335938 43.859375 10.15625 44.324219 9.808594 44.800781 C 9.785156 44.835938 9.269531 45.300781 8.980469 45.71875 C 8.875 45.867188 8.667969 45.90625 8.519531 45.800781 C 8.367188 45.695312 8.332031 45.488281 8.4375 45.339844 C 8.714844 44.945312 9.175781 44.507812 9.285156 44.398438 Z M 9.285156 44.398438 " fill-opacity="1" fill-rule="evenodd"/></g><path fill="#dbbf97" d="M 24.484375 31.683594 C 24.5 31.5 24.65625 31.363281 24.839844 31.375 C 25.019531 31.386719 25.15625 31.546875 25.144531 31.730469 C 25.074219 32.734375 24.777344 38.492188 24.433594 39.9375 C 23.902344 42.191406 23.242188 43.125 22.320312 44.355469 C 22.210938 44.5 22.003906 44.53125 21.855469 44.421875 C 21.710938 44.3125 21.683594 44.101562 21.792969 43.957031 C 22.660156 42.796875 23.285156 41.914062 23.792969 39.785156 C 24.128906 38.359375 24.414062 32.675781 24.484375 31.683594 Z M 24.484375 31.683594 " fill-opacity="1" fill-rule="evenodd"/><path fill="#dbbf97" d="M 26.222656 31.617188 C 26.226562 31.433594 26.378906 31.289062 26.5625 31.296875 C 26.746094 31.300781 26.886719 31.457031 26.882812 31.636719 C 26.839844 33.042969 26.660156 37.949219 26.8125 39.296875 C 26.945312 40.5 27.371094 41.71875 27.574219 42.109375 C 27.835938 42.613281 28.15625 43.019531 28.71875 43.523438 C 28.855469 43.648438 28.867188 43.855469 28.746094 43.992188 C 28.625 44.128906 28.414062 44.140625 28.277344 44.015625 C 27.640625 43.445312 27.28125 42.984375 26.988281 42.414062 C 26.769531 41.988281 26.300781 40.671875 26.152344 39.371094 C 26 38.007812 26.175781 33.039062 26.222656 31.617188 Z M 26.222656 31.617188 " fill-opacity="1" fill-rule="evenodd"/><g clip-path="url(#63d62cab51)"><path fill="#dbbf97" d="M 22.625 42.867188 C 22.808594 42.875 22.949219 43.027344 22.941406 43.210938 C 22.933594 43.394531 22.78125 43.535156 22.597656 43.527344 C 21.199219 43.472656 19.773438 43.867188 18.972656 44.492188 C 18.636719 44.75 18.410156 45.042969 18.40625 45.367188 C 18.398438 45.699219 18.621094 46.03125 19.085938 46.375 C 19.40625 46.613281 20.011719 46.804688 20.796875 46.96875 C 22.046875 47.226562 23.726562 47.382812 25.4375 47.402344 C 27.144531 47.417969 28.882812 47.292969 30.261719 46.984375 C 31.136719 46.789062 31.859375 46.519531 32.316406 46.15625 C 32.808594 45.765625 32.972656 45.113281 32.488281 44.570312 C 31.890625 43.902344 30.496094 43.414062 27.953125 43.46875 C 27.769531 43.472656 27.617188 43.328125 27.613281 43.144531 C 27.609375 42.964844 27.753906 42.8125 27.9375 42.808594 C 29.953125 42.761719 31.304688 43.066406 32.152344 43.507812 C 32.78125 43.835938 33.144531 44.246094 33.320312 44.660156 C 33.632812 45.394531 33.363281 46.171875 32.730469 46.675781 C 32.210938 47.085938 31.398438 47.40625 30.40625 47.628906 C 28.984375 47.949219 27.191406 48.078125 25.429688 48.0625 C 23.375 48.042969 21.367188 47.820312 20.050781 47.472656 C 19.441406 47.308594 18.972656 47.117188 18.695312 46.910156 C 17.996094 46.390625 17.734375 45.851562 17.742188 45.355469 C 17.753906 44.851562 18.046875 44.371094 18.566406 43.96875 C 19.464844 43.269531 21.058594 42.804688 22.625 42.867188 Z M 22.625 42.867188 " fill-opacity="1" fill-rule="evenodd"/></g><path fill="#dbbf97" d="M 23.398438 45.332031 C 23.21875 45.289062 23.113281 45.109375 23.15625 44.929688 C 23.203125 44.753906 23.382812 44.648438 23.558594 44.691406 C 23.878906 44.773438 26.050781 45.6875 27.855469 44.785156 C 28.015625 44.707031 28.214844 44.769531 28.296875 44.933594 C 28.378906 45.097656 28.3125 45.296875 28.148438 45.378906 C 26.152344 46.375 23.75 45.421875 23.398438 45.332031 Z M 23.398438 45.332031 " fill-opacity="1" fill-rule="evenodd"/><g clip-path="url(#f5adbabcef)"><path fill="#dbbf97" d="M 18.847656 45.046875 C 18.835938 44.863281 18.976562 44.707031 19.160156 44.695312 C 19.339844 44.6875 19.496094 44.824219 19.507812 45.007812 C 19.527344 45.3125 19.601562 45.535156 19.75 45.699219 C 19.902344 45.867188 20.128906 45.964844 20.414062 46.03125 C 21.476562 46.289062 21.816406 46.289062 23.179688 46.371094 C 23.363281 46.382812 23.5 46.539062 23.492188 46.722656 C 23.480469 46.902344 23.324219 47.042969 23.140625 47.03125 C 21.71875 46.945312 21.367188 46.941406 20.261719 46.675781 C 19.824219 46.570312 19.492188 46.398438 19.261719 46.144531 C 19.023438 45.886719 18.878906 45.535156 18.847656 45.046875 Z M 18.847656 45.046875 " fill-opacity="1" fill-rule="evenodd"/></g><path fill="#dbbf97" d="M 31.722656 45.0625 C 31.664062 44.890625 31.757812 44.703125 31.929688 44.644531 C 32.101562 44.585938 32.289062 44.675781 32.351562 44.847656 C 32.523438 45.355469 32.277344 45.777344 31.765625 46.078125 C 30.894531 46.597656 29.179688 46.769531 28.992188 46.796875 C 28.8125 46.820312 28.644531 46.695312 28.617188 46.515625 C 28.59375 46.335938 28.71875 46.167969 28.898438 46.140625 C 29.046875 46.121094 30.234375 46.011719 31.074219 45.679688 C 31.273438 45.601562 31.449219 45.511719 31.578125 45.40625 C 31.695312 45.3125 31.773438 45.203125 31.722656 45.0625 Z M 31.722656 45.0625 " fill-opacity="1" fill-rule="evenodd"/><path fill="#dbbf97" d="M 27.558594 29.542969 C 27.46875 29.671875 27.296875 29.722656 27.148438 29.652344 L 27.035156 29.566406 L 26.988281 29.496094 L 26.960938 29.414062 L 26.957031 29.289062 L 26.980469 29.210938 L 27.019531 29.140625 C 27.050781 29.097656 27.148438 29.003906 27.3125 28.914062 C 27.574219 28.769531 28.035156 28.578125 28.503906 28.519531 C 31.460938 28.152344 33.449219 27.40625 34.945312 27.167969 C 35.765625 27.039062 36.449219 27.058594 37.0625 27.328125 C 37.671875 27.59375 38.222656 28.113281 38.753906 29.019531 C 39.214844 29.800781 39.558594 31.203125 39.375 32.21875 C 39.234375 33.011719 38.800781 33.585938 37.96875 33.632812 C 35.394531 33.78125 32.652344 32.117188 31.757812 31.730469 C 29.730469 30.851562 29.726562 30.6875 27.511719 30.875 C 27.328125 30.890625 27.167969 30.753906 27.152344 30.574219 C 27.136719 30.390625 27.273438 30.230469 27.453125 30.214844 C 29.835938 30.011719 29.839844 30.179688 32.023438 31.125 C 32.875 31.492188 35.476562 33.113281 37.929688 32.972656 C 38.421875 32.945312 38.640625 32.574219 38.726562 32.105469 C 38.878906 31.230469 38.578125 30.027344 38.183594 29.355469 C 37.742188 28.601562 37.300781 28.15625 36.796875 27.933594 C 36.289062 27.710938 35.726562 27.714844 35.046875 27.824219 C 33.550781 28.0625 31.554688 28.808594 28.585938 29.179688 C 28.183594 29.226562 27.6875 29.476562 27.558594 29.542969 Z M 27.511719 29.109375 C 27.488281 29.085938 27.460938 29.066406 27.429688 29.054688 C 27.460938 29.066406 27.488281 29.085938 27.511719 29.109375 Z M 27.511719 29.109375 " fill-opacity="1" fill-rule="evenodd"/><path fill="#dbbf97" d="M 27.519531 30.785156 C 27.351562 30.855469 27.15625 30.78125 27.085938 30.613281 C 27.011719 30.445312 27.089844 30.25 27.253906 30.175781 C 28.105469 29.804688 29.609375 29.730469 31.21875 29.867188 C 33.597656 30.066406 36.207031 30.722656 37.210938 31.425781 C 37.347656 31.519531 37.835938 31.945312 38.007812 32.351562 C 38.121094 32.613281 38.117188 32.871094 37.972656 33.085938 C 37.820312 33.304688 37.441406 33.519531 36.625 33.519531 C 36.441406 33.519531 36.292969 33.371094 36.292969 33.1875 C 36.292969 33.007812 36.441406 32.859375 36.625 32.859375 C 36.90625 32.859375 37.113281 32.835938 37.265625 32.789062 C 37.34375 32.765625 37.398438 32.75 37.425781 32.710938 C 37.4375 32.695312 37.421875 32.679688 37.417969 32.660156 C 37.402344 32.613281 37.378906 32.558594 37.347656 32.507812 C 37.191406 32.257812 36.914062 32.027344 36.832031 31.96875 C 35.882812 31.304688 33.410156 30.714844 31.164062 30.523438 C 29.683594 30.398438 28.300781 30.441406 27.519531 30.785156 Z M 27.519531 30.785156 " fill-opacity="1" fill-rule="evenodd"/><g clip-path="url(#ce598b20b5)"><path fill="#dbbf97" d="M 26.84375 31.273438 C 26.785156 31.101562 26.878906 30.914062 27.054688 30.855469 C 27.226562 30.796875 27.414062 30.894531 27.472656 31.066406 C 27.613281 31.5 27.988281 31.875 28.390625 32.269531 C 28.851562 32.71875 29.359375 33.1875 29.714844 33.738281 C 31.261719 36.140625 33.019531 36.320312 34.578125 36.402344 C 35.746094 36.464844 36.808594 36.5 37.648438 37.171875 C 38.941406 38.207031 39.09375 39.492188 39.25 40.871094 C 39.355469 41.796875 39.46875 42.769531 40.054688 43.71875 C 40.640625 44.667969 41.703125 45.589844 43.683594 46.433594 C 43.851562 46.507812 43.929688 46.703125 43.855469 46.871094 C 43.785156 47.039062 43.589844 47.117188 43.421875 47.042969 C 41.269531 46.125 40.128906 45.101562 39.492188 44.066406 C 38.847656 43.023438 38.710938 41.960938 38.59375 40.945312 C 38.457031 39.738281 38.367188 38.59375 37.234375 37.6875 C 36.503906 37.101562 35.5625 37.117188 34.542969 37.0625 C 32.816406 36.96875 30.875 36.761719 29.160156 34.09375 C 28.761719 33.476562 28.148438 32.980469 27.660156 32.476562 C 27.289062 32.089844 26.984375 31.699219 26.84375 31.273438 Z M 26.84375 31.273438 " fill-opacity="1" fill-rule="evenodd"/></g><path fill="#dbbf97" d="M 27.425781 31.136719 C 27.242188 31.125 27.105469 30.96875 27.113281 30.785156 C 27.125 30.605469 27.285156 30.464844 27.464844 30.476562 C 28.28125 30.527344 28.886719 30.925781 29.425781 31.488281 C 29.910156 32 30.332031 32.648438 30.828125 33.265625 C 31.566406 34.191406 32.660156 34.671875 33.789062 35.125 C 35.007812 35.609375 36.269531 36.058594 37.257812 36.875 C 37.398438 36.992188 37.417969 37.199219 37.304688 37.34375 C 37.1875 37.484375 36.976562 37.503906 36.835938 37.386719 C 35.898438 36.613281 34.695312 36.199219 33.542969 35.738281 C 32.304688 35.246094 31.121094 34.695312 30.308594 33.679688 C 29.828125 33.078125 29.417969 32.441406 28.945312 31.945312 C 28.527344 31.503906 28.058594 31.175781 27.425781 31.136719 Z M 27.425781 31.136719 " fill-opacity="1" fill-rule="evenodd"/><path fill="#dbbf97" d="M 34.386719 37.082031 C 34.238281 36.976562 34.199219 36.769531 34.304688 36.621094 C 34.410156 36.472656 34.617188 36.4375 34.765625 36.542969 C 35.472656 37.042969 36.757812 37.75 39.804688 43.273438 C 39.890625 43.433594 39.832031 43.636719 39.671875 43.722656 C 39.515625 43.8125 39.3125 43.753906 39.226562 43.59375 C 36.285156 38.261719 35.066406 37.566406 34.386719 37.082031 Z M 34.386719 37.082031 " fill-opacity="1" fill-rule="evenodd"/><g clip-path="url(#15efc4bdf7)"><path fill="#dbbf97" d="M 38.566406 40.617188 C 38.5 40.445312 38.589844 40.253906 38.757812 40.191406 C 38.929688 40.128906 39.121094 40.214844 39.183594 40.382812 C 39.320312 40.738281 39.761719 41.183594 40.363281 41.691406 C 41.339844 42.511719 42.730469 43.449219 44.070312 44.304688 C 44.195312 44.382812 44.253906 44.53125 44.210938 44.671875 C 44.175781 44.8125 44.046875 44.910156 43.902344 44.914062 C 43.40625 44.925781 43.027344 44.894531 42.59375 44.808594 C 43.445312 45.9375 43.808594 46.414062 43.917969 46.585938 C 44.019531 46.742188 43.972656 46.945312 43.820312 47.042969 C 43.664062 47.140625 43.460938 47.097656 43.363281 46.941406 C 43.234375 46.742188 42.742188 46.109375 41.511719 44.46875 C 41.425781 44.355469 41.421875 44.203125 41.5 44.085938 C 41.582031 43.96875 41.726562 43.914062 41.863281 43.949219 C 42.140625 44.027344 42.378906 44.085938 42.597656 44.132812 C 41.375 43.324219 40.222656 42.488281 39.46875 41.78125 C 39.003906 41.34375 38.6875 40.941406 38.566406 40.617188 Z M 38.566406 40.617188 " fill-opacity="1" fill-rule="evenodd"/></g></svg>