<svg xmlns="http://www.w3.org/2000/svg" xmlns:xlink="http://www.w3.org/1999/xlink" width="70" zoomAndPan="magnify" viewBox="0 0 52.5 52.499999" height="70" preserveAspectRatio="xMidYMid meet" version="1.0"><defs><clipPath id="058911202b"><path d="M 13.160156 1.828125 L 39 1.828125 L 39 50.117188 L 13.160156 50.117188 Z M 13.160156 1.828125 " clip-rule="nonzero"/></clipPath></defs><g clip-path="url(#058911202b)"><path fill="#dbbf97" d="M 16.574219 9.507812 C 16.445312 8.4375 17.179688 7.699219 18.03125 7.429688 C 18.429688 7.304688 18.816406 7.140625 19.144531 6.878906 C 19.375 6.707031 19.628906 6.589844 19.90625 6.53125 C 20.042969 6.503906 20.167969 6.523438 20.285156 6.597656 C 20.449219 6.707031 20.605469 6.832031 20.757812 6.945312 C 20.796875 6.976562 20.835938 7.003906 20.84375 7.042969 C 20.933594 7.332031 21.210938 7.382812 21.453125 7.527344 C 21.433594 7.371094 21.425781 7.207031 21.40625 7.054688 C 21.398438 7.015625 21.359375 6.976562 21.328125 6.957031 C 21.066406 6.800781 20.960938 6.550781 20.902344 6.269531 C 20.855469 6.019531 20.777344 5.769531 20.730469 5.507812 C 20.699219 5.382812 20.625 5.324219 20.507812 5.304688 C 20.34375 5.273438 20.226562 5.167969 20.179688 5.03125 C 20.070312 4.761719 20.023438 4.472656 20.109375 4.183594 C 20.140625 4.09375 20.207031 4.019531 20.265625 3.949219 C 20.496094 3.707031 20.730469 3.476562 20.960938 3.234375 C 21.414062 2.761719 21.898438 2.34375 22.507812 2.074219 C 22.855469 1.929688 23.222656 1.871094 23.589844 1.851562 C 23.871094 1.832031 24.121094 1.929688 24.296875 2.160156 C 24.304688 2.179688 24.324219 2.199219 24.34375 2.199219 C 24.5 2.230469 24.65625 2.257812 24.808594 2.277344 C 24.953125 2.304688 25.117188 2.296875 25.253906 2.355469 C 25.757812 2.566406 26.085938 2.945312 26.152344 3.503906 C 26.210938 4 26.269531 4.5 26.328125 4.996094 C 26.347656 5.121094 26.347656 5.253906 26.394531 5.382812 C 26.480469 5.640625 26.480469 5.902344 26.472656 6.164062 C 26.460938 6.308594 26.53125 6.347656 26.675781 6.347656 C 26.90625 6.339844 27.140625 6.339844 27.363281 6.367188 C 27.671875 6.40625 27.96875 6.484375 28.269531 6.550781 C 28.289062 6.550781 28.300781 6.550781 28.320312 6.558594 C 28.636719 6.558594 28.957031 6.550781 29.265625 6.558594 C 29.527344 6.570312 29.769531 6.550781 30.019531 6.464844 C 30.28125 6.375 30.5625 6.328125 30.832031 6.289062 C 30.929688 6.28125 31.042969 6.339844 31.140625 6.375 C 31.21875 6.40625 31.285156 6.445312 31.363281 6.492188 C 31.808594 6.742188 32.15625 7.09375 32.476562 7.488281 C 32.523438 7.554688 32.582031 7.625 32.621094 7.691406 C 32.785156 7.953125 33.015625 8.144531 33.335938 8.222656 C 33.363281 8.136719 33.394531 8.050781 33.421875 7.960938 C 33.480469 7.757812 33.546875 7.566406 33.597656 7.363281 C 33.617188 7.296875 33.597656 7.207031 33.558594 7.140625 C 33.5 7.035156 33.421875 6.945312 33.355469 6.859375 C 33.171875 6.609375 33.105469 6.328125 33.179688 6.019531 C 33.238281 5.777344 33.289062 5.535156 33.328125 5.292969 C 33.335938 5.265625 33.316406 5.226562 33.308594 5.195312 C 33.25 5.070312 33.191406 4.945312 33.132812 4.820312 C 33.046875 4.636719 33.085938 4.519531 33.257812 4.355469 C 33.402344 4.222656 33.539062 4.191406 33.695312 4.296875 C 33.839844 4.394531 33.953125 4.53125 34.101562 4.664062 C 34.207031 4.609375 34.351562 4.53125 34.488281 4.453125 C 34.496094 4.441406 34.507812 4.433594 34.507812 4.421875 C 34.601562 4.171875 34.816406 4.046875 35.066406 3.980469 C 35.183594 3.941406 35.289062 3.910156 35.40625 3.882812 C 35.53125 3.851562 35.65625 3.851562 35.753906 3.96875 C 35.839844 4.074219 35.867188 4.203125 35.8125 4.335938 C 35.8125 4.347656 35.800781 4.355469 35.800781 4.355469 C 35.839844 4.511719 35.851562 4.664062 35.8125 4.828125 C 35.8125 4.839844 35.839844 4.867188 35.859375 4.878906 C 36.070312 4.957031 36.101562 5.140625 36.109375 5.324219 C 36.109375 5.429688 36.128906 5.496094 36.207031 5.582031 C 36.273438 5.652344 36.3125 5.769531 36.3125 5.863281 C 36.324219 6.125 36.324219 6.394531 36.304688 6.65625 C 36.292969 6.792969 36.226562 6.917969 36.1875 7.042969 C 36.34375 7.148438 36.507812 7.265625 36.660156 7.382812 C 36.914062 7.566406 37.046875 7.816406 37.097656 8.136719 C 37.164062 8.628906 37.269531 9.113281 37.359375 9.597656 C 37.40625 9.894531 37.492188 10.1875 37.503906 10.484375 C 37.53125 11.046875 37.339844 11.550781 36.972656 11.972656 C 36.863281 12.101562 36.691406 12.195312 36.535156 12.234375 C 35.820312 12.410156 35.085938 12.417969 34.359375 12.324219 C 34.253906 12.304688 34.15625 12.265625 34.042969 12.226562 C 33.933594 12.507812 33.808594 12.785156 33.714844 13.078125 C 33.578125 13.472656 33.363281 13.8125 33.027344 14.0625 C 32.996094 14.082031 32.976562 14.128906 32.976562 14.160156 C 33.074219 14.710938 33.199219 15.25 33.277344 15.800781 C 33.441406 16.867188 33.566406 17.9375 33.734375 19.011719 C 33.820312 19.574219 33.984375 20.125 34.070312 20.683594 C 34.214844 21.59375 34.332031 22.511719 34.476562 23.421875 C 34.542969 23.828125 34.417969 24.15625 34.15625 24.457031 C 34.0625 24.570312 34.03125 24.675781 34.042969 24.824219 C 34.070312 25.316406 34.070312 25.816406 34.070312 26.3125 C 34.0625 27.035156 34.042969 27.761719 34.011719 28.488281 C 34.003906 28.652344 34.011719 28.816406 33.898438 28.960938 C 33.878906 28.988281 33.898438 29.058594 33.917969 29.105469 C 34.023438 29.453125 34.167969 29.78125 34.246094 30.140625 C 34.457031 31.066406 34.875 31.917969 35.242188 32.789062 C 35.628906 33.707031 36.015625 34.625 36.273438 35.59375 C 36.34375 35.84375 36.449219 36.09375 36.574219 36.328125 C 36.941406 37.050781 37.328125 37.757812 37.695312 38.472656 C 38.160156 39.390625 38.296875 40.347656 37.984375 41.34375 C 37.871094 41.703125 37.878906 42.03125 37.976562 42.390625 C 38.082031 42.777344 38.316406 43.105469 38.507812 43.453125 C 38.585938 43.585938 38.664062 43.722656 38.730469 43.867188 C 38.835938 44.101562 38.835938 44.351562 38.722656 44.574219 C 38.613281 44.777344 38.5 45 38.324219 45.152344 C 37.472656 45.925781 36.515625 46.488281 35.347656 46.59375 C 34.929688 46.632812 34.515625 46.625 34.101562 46.660156 C 33.859375 46.679688 33.605469 46.75 33.375 46.828125 C 33.085938 46.921875 32.863281 47.125 32.738281 47.40625 C 32.535156 47.871094 32.175781 48.09375 31.710938 48.207031 C 30.929688 48.402344 30.15625 48.421875 29.363281 48.199219 C 29.101562 48.121094 28.800781 48.132812 28.523438 48.132812 C 27.933594 48.140625 27.363281 48.226562 26.808594 48.429688 C 26.5 48.546875 26.230469 48.730469 26.035156 49 C 25.601562 49.621094 24.953125 49.871094 24.257812 50.015625 C 24.046875 50.066406 23.824219 50.027344 23.609375 50.035156 C 23.15625 50.054688 22.703125 50.105469 22.238281 50.113281 C 21.492188 50.132812 20.75 50.171875 20.003906 50.140625 C 19.289062 50.113281 18.59375 49.929688 17.945312 49.609375 C 17.566406 49.417969 17.230469 49.175781 16.949219 48.855469 C 16.582031 48.449219 16.542969 48.160156 16.804688 47.589844 C 16.863281 47.472656 16.949219 47.367188 17.015625 47.261719 C 17.074219 47.175781 17.144531 47.097656 17.191406 47 C 17.308594 46.796875 17.230469 46.554688 17.007812 46.496094 C 16.765625 46.429688 16.515625 46.390625 16.261719 46.371094 C 15.875 46.34375 15.507812 46.246094 15.140625 46.121094 C 14.917969 46.042969 14.726562 45.898438 14.570312 45.714844 C 14.386719 45.472656 14.164062 45.28125 13.902344 45.125 C 13.449219 44.863281 13.257812 44.429688 13.207031 43.917969 C 13.160156 43.363281 13.304688 42.871094 13.535156 42.378906 C 13.886719 41.664062 14.4375 41.121094 15.035156 40.621094 C 15.441406 40.28125 15.835938 39.921875 16.234375 39.566406 C 16.371094 39.441406 16.484375 39.296875 16.589844 39.148438 C 17.164062 38.394531 17.585938 37.574219 17.808594 36.65625 C 17.984375 35.949219 18.128906 35.246094 18.304688 34.546875 C 18.554688 33.523438 18.902344 32.539062 19.425781 31.617188 C 19.433594 31.609375 19.433594 31.589844 19.445312 31.5625 C 19.25 31.597656 19.066406 31.636719 18.882812 31.675781 C 18.3125 31.792969 17.75 31.800781 17.179688 31.6875 C 16.5625 31.570312 15.992188 31.019531 15.914062 30.457031 C 15.886719 30.246094 15.886719 30.023438 15.914062 29.8125 C 15.972656 29.347656 15.835938 28.988281 15.421875 28.738281 C 15.113281 28.542969 14.84375 28.3125 14.65625 27.984375 C 14.28125 27.316406 14.144531 26.628906 14.425781 25.894531 C 14.589844 25.46875 14.765625 25.046875 14.890625 24.609375 C 15.054688 24.050781 15.179688 23.46875 15.316406 22.898438 C 15.488281 22.136719 15.585938 21.351562 15.625 20.570312 C 15.632812 20.269531 15.566406 19.960938 15.519531 19.660156 C 15.480469 19.378906 15.429688 19.089844 15.363281 18.808594 C 15.285156 18.507812 15.210938 18.199219 15.09375 17.910156 C 14.910156 17.457031 14.917969 16.980469 14.929688 16.507812 C 14.9375 16.257812 14.929688 15.996094 14.9375 15.746094 C 14.957031 15.320312 15.074219 14.921875 15.21875 14.527344 C 15.441406 13.886719 15.652344 13.25 15.710938 12.574219 C 15.769531 11.90625 15.855469 11.25 15.808594 10.582031 C 15.769531 10.011719 15.964844 9.710938 16.503906 9.488281 C 16.542969 9.527344 16.5625 9.519531 16.574219 9.507812 Z M 14.503906 45.019531 C 15.5 43.363281 16.601562 41.789062 17.566406 40.117188 C 17.585938 40.195312 17.585938 40.261719 17.578125 40.328125 C 17.511719 40.824219 17.316406 41.277344 17.09375 41.710938 C 16.574219 42.746094 15.867188 43.664062 15.152344 44.574219 C 14.996094 44.765625 14.84375 44.960938 14.667969 45.183594 C 14.890625 45.347656 15.074219 45.53125 15.296875 45.628906 C 15.585938 45.742188 15.914062 45.792969 16.222656 45.867188 C 16.484375 45.925781 16.757812 45.957031 17.015625 46.035156 C 17.164062 46.070312 17.277344 46.167969 17.421875 46.246094 C 17.511719 45.898438 17.617188 45.550781 17.695312 45.203125 C 17.917969 44.234375 18.136719 43.269531 18.332031 42.292969 C 18.632812 40.773438 18.882812 39.246094 19.183594 37.738281 C 19.570312 35.816406 20.265625 33.96875 20.84375 32.101562 C 20.855469 32.0625 20.882812 32.035156 20.902344 32.003906 C 20.933594 32.042969 20.933594 32.0625 20.933594 32.09375 C 20.84375 32.605469 20.777344 33.117188 20.652344 33.621094 C 20.054688 35.960938 19.589844 38.320312 19.230469 40.707031 C 19.066406 41.769531 18.910156 42.832031 18.601562 43.867188 C 18.351562 44.726562 18.050781 45.578125 17.78125 46.441406 C 17.664062 46.808594 17.511719 47.144531 17.277344 47.453125 C 17.21875 47.53125 17.164062 47.617188 17.132812 47.714844 C 17.074219 47.917969 17.015625 48.140625 17.191406 48.316406 C 17.617188 48.75 18.101562 49.089844 18.679688 49.273438 C 19 49.367188 19.328125 49.464844 19.65625 49.515625 C 20.441406 49.640625 21.230469 49.609375 22.015625 49.570312 C 22.652344 49.542969 23.28125 49.496094 23.917969 49.589844 C 24.074219 49.609375 24.25 49.589844 24.394531 49.550781 C 24.636719 49.484375 24.886719 49.398438 25.109375 49.28125 C 25.273438 49.195312 25.429688 49.050781 25.554688 48.90625 C 25.632812 48.816406 25.640625 48.683594 25.6875 48.574219 C 25.910156 48.09375 26.132812 47.609375 26.367188 47.136719 C 26.9375 45.976562 27.398438 44.765625 27.710938 43.511719 C 27.980469 42.40625 28.152344 41.285156 28.078125 40.144531 C 27.988281 38.957031 27.855469 37.777344 27.738281 36.589844 C 27.730469 36.480469 27.71875 36.386719 27.710938 36.277344 C 27.71875 36.277344 27.738281 36.269531 27.75 36.269531 C 27.757812 36.296875 27.777344 36.328125 27.785156 36.355469 C 27.84375 36.539062 27.914062 36.722656 27.96875 36.917969 C 28.222656 37.796875 28.355469 38.695312 28.492188 39.59375 C 28.617188 40.386719 28.667969 41.179688 28.558594 41.972656 C 28.355469 43.566406 27.875 45.085938 27.148438 46.527344 C 26.867188 47.066406 26.558594 47.589844 26.269531 48.132812 C 26.25 48.160156 26.238281 48.1875 26.210938 48.246094 C 26.695312 47.957031 27.1875 47.8125 27.699219 47.726562 C 28.328125 47.628906 28.945312 47.5625 29.574219 47.734375 C 30.058594 47.871094 30.550781 47.890625 31.035156 47.800781 C 31.324219 47.753906 31.605469 47.6875 31.875 47.589844 C 32.117188 47.503906 32.195312 47.328125 32.175781 47.078125 C 32.167969 47 32.167969 46.933594 32.167969 46.855469 C 32.15625 46.273438 32.175781 45.695312 32.148438 45.113281 C 32.078125 43.734375 31.984375 42.351562 32.039062 40.96875 C 32.039062 40.929688 32.050781 40.878906 32.050781 40.824219 C 32.089844 40.84375 32.097656 40.851562 32.109375 40.859375 C 32.425781 42.824219 32.648438 44.796875 32.496094 46.816406 C 32.535156 46.789062 32.554688 46.777344 32.5625 46.757812 C 32.851562 46.488281 33.191406 46.3125 33.578125 46.265625 C 33.984375 46.21875 34.398438 46.1875 34.816406 46.199219 C 35.617188 46.207031 36.34375 46.003906 36.980469 45.53125 C 37.300781 45.296875 37.609375 45.046875 37.890625 44.765625 C 38.21875 44.429688 38.21875 44.226562 37.984375 43.820312 C 37.96875 43.78125 37.9375 43.742188 37.917969 43.703125 C 37.734375 43.289062 37.503906 42.890625 37.484375 42.425781 C 37.484375 42.390625 37.464844 42.339844 37.445312 42.300781 C 37.175781 41.816406 36.902344 41.324219 36.632812 40.84375 C 35.761719 39.3125 34.863281 37.796875 34.195312 36.164062 C 33.898438 35.429688 33.617188 34.691406 33.328125 33.957031 C 33.316406 33.929688 33.328125 33.890625 33.328125 33.851562 C 33.355469 33.871094 33.394531 33.890625 33.414062 33.917969 C 33.511719 34.085938 33.605469 34.25 33.695312 34.421875 C 34.246094 35.464844 34.796875 36.511719 35.355469 37.546875 C 36.023438 38.773438 36.710938 39.992188 37.398438 41.210938 C 37.414062 41.238281 37.433594 41.257812 37.453125 41.296875 C 37.5625 40.792969 37.582031 40.308594 37.523438 39.816406 C 37.464844 39.246094 37.359375 38.695312 37.097656 38.183594 C 36.816406 37.632812 36.515625 37.082031 36.226562 36.53125 C 36.109375 36.296875 35.996094 36.066406 35.898438 35.824219 C 35.8125 35.613281 35.753906 35.390625 35.667969 35.1875 C 35.28125 34.269531 34.882812 33.347656 34.488281 32.441406 C 34.1875 31.746094 33.867188 31.066406 33.722656 30.324219 C 33.695312 30.1875 33.644531 30.054688 33.597656 29.90625 C 33.433594 29.328125 33.210938 28.757812 33.25 28.136719 C 33.25 28.109375 33.238281 28.089844 33.238281 28.0625 C 33.09375 27.664062 32.96875 27.269531 32.792969 26.890625 C 32.515625 26.253906 32.195312 25.632812 31.90625 25.007812 C 31.652344 24.464844 31.363281 23.953125 31.007812 23.480469 C 30.523438 22.832031 30.039062 22.183594 29.652344 21.46875 C 29.402344 20.996094 29.082031 20.570312 28.742188 20.152344 C 28.523438 19.882812 28.300781 19.613281 28.097656 19.320312 C 27.894531 19.03125 27.71875 18.730469 27.699219 18.363281 C 27.691406 18.09375 27.699219 17.824219 27.730469 17.5625 C 27.785156 17.019531 27.757812 16.519531 27.34375 16.113281 C 27.234375 16.003906 27.148438 15.957031 26.992188 16.003906 C 26.800781 16.054688 26.605469 16.074219 26.421875 16.101562 C 26.40625 16.1875 26.40625 16.277344 26.367188 16.335938 C 26.191406 16.59375 26.035156 16.886719 25.804688 17.097656 C 25.128906 17.734375 24.289062 18.113281 23.40625 18.382812 C 23.109375 18.480469 22.789062 18.527344 22.46875 18.605469 C 22.730469 19.484375 23 20.375 23.273438 21.292969 C 23.386719 21.1875 23.476562 21.121094 23.542969 21.042969 C 23.667969 20.898438 23.8125 20.78125 23.996094 20.703125 C 24.21875 20.609375 24.421875 20.472656 24.636719 20.347656 C 24.984375 20.132812 25.300781 19.890625 25.660156 19.707031 C 25.921875 19.574219 26.222656 19.515625 26.5 19.4375 C 26.742188 19.359375 26.898438 19.484375 26.867188 19.746094 C 26.859375 19.835938 26.820312 19.929688 26.761719 20.007812 C 26.675781 20.125 26.570312 20.230469 26.460938 20.335938 C 26.347656 20.453125 26.222656 20.550781 26.085938 20.675781 C 26.441406 20.578125 26.734375 20.414062 27.023438 20.222656 C 27.253906 20.066406 27.507812 19.910156 27.804688 19.96875 C 28.105469 20.019531 28.191406 20.230469 28.007812 20.480469 C 27.960938 20.550781 27.894531 20.597656 27.835938 20.65625 C 27.804688 20.683594 27.765625 20.714844 27.710938 20.773438 C 27.855469 20.734375 27.96875 20.695312 28.078125 20.675781 C 28.191406 20.65625 28.320312 20.636719 28.445312 20.636719 C 28.695312 20.625 28.839844 20.722656 28.898438 20.925781 C 28.957031 21.140625 28.859375 21.351562 28.65625 21.449219 C 28.492188 21.527344 28.308594 21.59375 28.144531 21.671875 C 28.046875 21.710938 27.960938 21.769531 27.882812 21.804688 C 28.066406 21.855469 28.25 21.875 28.40625 21.941406 C 28.609375 22.027344 28.628906 22.222656 28.453125 22.355469 C 28.355469 22.433594 28.230469 22.492188 28.117188 22.542969 C 28.039062 22.570312 27.941406 22.570312 27.863281 22.597656 C 27.699219 22.648438 27.546875 22.707031 27.378906 22.761719 C 27.566406 22.839844 27.710938 22.917969 27.796875 23.082031 C 27.863281 23.207031 27.84375 23.3125 27.738281 23.410156 C 27.59375 23.554688 27.410156 23.574219 27.214844 23.554688 C 27.089844 23.535156 26.964844 23.515625 26.839844 23.507812 C 26.269531 23.480469 25.707031 23.390625 25.195312 23.101562 C 25.117188 23.0625 25.023438 23.042969 24.933594 23.042969 C 24.664062 23.0625 24.394531 23.09375 24.121094 23.128906 C 24.085938 23.128906 24.054688 23.160156 24.007812 23.167969 C 24.046875 23.277344 24.085938 23.371094 24.113281 23.46875 C 24.179688 23.664062 24.238281 23.855469 24.304688 24.050781 C 24.335938 24.144531 24.355469 24.253906 24.414062 24.339844 C 24.617188 24.667969 24.769531 25.007812 24.828125 25.382812 C 24.894531 25.855469 24.859375 26.3125 24.617188 26.726562 C 24.324219 27.230469 23.929688 27.644531 23.457031 27.984375 C 23.273438 28.109375 23.078125 28.226562 22.894531 28.339844 C 22.703125 28.46875 22.585938 28.632812 22.574219 28.863281 C 22.574219 29.058594 22.585938 29.25 22.574219 29.433594 C 22.574219 29.589844 22.605469 29.761719 22.539062 29.878906 C 22.363281 30.1875 22.1875 30.527344 21.859375 30.710938 C 21.503906 30.914062 21.136719 31.097656 20.757812 31.261719 C 20.457031 31.386719 20.140625 31.464844 19.851562 31.5625 C 19.820312 31.667969 19.800781 31.765625 19.761719 31.851562 C 19.433594 32.539062 19.164062 33.253906 18.949219 33.988281 C 18.757812 34.683594 18.601562 35.390625 18.417969 36.085938 C 18.128906 37.160156 17.644531 38.144531 17.046875 39.074219 C 16.863281 39.363281 16.679688 39.652344 16.464844 39.921875 C 16.011719 40.523438 15.441406 41.015625 14.878906 41.519531 C 14.40625 41.945312 14.078125 42.464844 13.828125 43.035156 C 13.613281 43.511719 13.625 43.992188 13.796875 44.476562 C 13.855469 44.632812 13.953125 44.785156 14.078125 44.894531 C 14.214844 44.921875 14.367188 44.949219 14.503906 45.019531 Z M 16.28125 15.203125 C 16.292969 15.214844 16.3125 15.214844 16.320312 15.222656 C 16.320312 15.25 16.332031 15.28125 16.332031 15.308594 C 16.351562 17.476562 16.28125 19.648438 16.03125 21.804688 C 15.90625 22.910156 15.597656 23.960938 15.121094 24.96875 C 14.976562 25.265625 14.851562 25.578125 14.714844 25.886719 C 14.4375 26.496094 14.628906 27.054688 14.929688 27.585938 C 15.035156 27.769531 15.179688 27.9375 15.335938 28.070312 C 15.605469 28.3125 15.90625 28.515625 16.195312 28.738281 C 16.195312 28.707031 16.203125 28.671875 16.214844 28.621094 C 16.28125 28.109375 16.332031 27.597656 16.40625 27.09375 C 16.648438 25.644531 16.882812 24.195312 17.007812 22.726562 C 17.085938 21.769531 17.21875 20.820312 17.335938 19.871094 C 17.355469 19.71875 17.402344 19.5625 17.441406 19.410156 C 17.460938 19.410156 17.472656 19.410156 17.492188 19.417969 C 17.492188 19.464844 17.5 19.515625 17.5 19.5625 C 17.480469 20.644531 17.460938 21.71875 17.421875 22.800781 C 17.402344 23.410156 17.382812 24.03125 17.289062 24.640625 C 17.074219 26.003906 16.8125 27.355469 16.5625 28.707031 C 16.464844 29.242188 16.339844 29.773438 16.332031 30.324219 C 16.332031 30.496094 16.359375 30.660156 16.464844 30.808594 C 16.667969 31.058594 16.910156 31.269531 17.238281 31.289062 C 17.605469 31.320312 17.984375 31.347656 18.339844 31.289062 C 19.308594 31.144531 20.238281 30.875 21.136719 30.507812 C 21.28125 30.449219 21.414062 30.382812 21.550781 30.324219 C 21.511719 30.148438 21.472656 29.984375 21.433594 29.820312 C 21.425781 29.792969 21.414062 29.753906 21.398438 29.722656 C 20.992188 28.894531 20.789062 28.003906 20.710938 27.09375 C 20.625 26.148438 20.625 25.199219 20.59375 24.253906 C 20.585938 24.125 20.605469 23.992188 20.585938 23.867188 C 20.527344 23.351562 20.457031 22.839844 20.382812 22.328125 C 20.253906 21.457031 20.023438 20.609375 19.65625 19.804688 C 19.53125 19.535156 19.394531 19.273438 19.28125 19.003906 C 18.339844 16.808594 17.539062 14.566406 17.171875 12.1875 C 17.113281 11.800781 17.125 11.402344 17.113281 11.015625 C 17.113281 10.976562 17.132812 10.941406 17.164062 10.871094 C 17.199219 11.144531 17.210938 11.363281 17.269531 11.578125 C 17.492188 12.390625 17.695312 13.210938 17.972656 14.003906 C 18.523438 15.53125 19.125 17.039062 19.703125 18.558594 C 19.9375 19.167969 20.167969 19.777344 20.285156 20.421875 C 20.402344 21.070312 20.496094 21.71875 20.585938 22.367188 C 20.660156 22.925781 20.738281 23.5 20.808594 24.058594 C 20.863281 24.523438 20.882812 24.996094 20.953125 25.460938 C 21.058594 26.1875 21.164062 26.921875 21.300781 27.636719 C 21.398438 28.167969 21.523438 28.699219 21.65625 29.230469 C 21.726562 29.5 21.820312 29.761719 21.910156 30.0625 C 21.984375 29.976562 22.035156 29.917969 22.09375 29.867188 C 22.285156 29.734375 22.304688 29.539062 22.296875 29.328125 C 22.285156 29.09375 22.316406 28.863281 22.324219 28.640625 C 22.335938 28.457031 22.410156 28.304688 22.539062 28.175781 C 22.632812 28.082031 22.730469 27.972656 22.847656 27.898438 C 23.320312 27.566406 23.6875 27.132812 24.015625 26.660156 C 24.441406 26.03125 24.460938 25.363281 24.152344 24.675781 C 24.046875 24.445312 23.9375 24.214844 23.882812 23.972656 C 23.84375 23.828125 23.824219 23.683594 23.753906 23.554688 C 23.726562 23.507812 23.707031 23.449219 23.6875 23.390625 C 23.445312 22.6875 23.203125 21.980469 22.972656 21.273438 C 22.652344 20.296875 22.421875 19.300781 22.074219 18.335938 C 21.753906 17.464844 21.289062 16.691406 20.730469 15.976562 C 20.140625 15.222656 19.558594 14.46875 19.171875 13.589844 C 19.144531 13.519531 19.125 13.453125 19.09375 13.394531 C 19.105469 13.386719 19.125 13.367188 19.132812 13.355469 C 19.191406 13.386719 19.261719 13.40625 19.308594 13.453125 C 19.414062 13.570312 19.519531 13.695312 19.617188 13.820312 C 19.859375 14.128906 20.101562 14.449219 20.34375 14.757812 C 20.363281 14.789062 20.390625 14.816406 20.421875 14.84375 C 20.410156 14.730469 20.371094 14.625 20.34375 14.527344 C 20.140625 13.820312 19.8125 13.183594 19.328125 12.632812 C 19.152344 12.429688 19 12.1875 18.855469 11.953125 C 18.582031 11.53125 18.320312 11.085938 18.050781 10.660156 C 17.839844 10.3125 17.566406 10.03125 17.230469 9.800781 C 17.015625 9.644531 16.84375 9.683594 16.648438 9.769531 C 16.332031 9.90625 16.109375 10.117188 16.089844 10.484375 C 16.058594 10.902344 16.039062 11.316406 16.003906 11.734375 C 15.953125 12.292969 15.90625 12.863281 15.816406 13.414062 C 15.742188 13.878906 15.625 14.34375 15.507812 14.796875 C 15.316406 15.53125 15.296875 16.285156 15.296875 17.039062 C 15.296875 17.195312 15.335938 17.347656 15.394531 17.496094 C 15.527344 17.804688 15.683594 18.105469 15.835938 18.414062 C 15.835938 18.394531 15.847656 18.363281 15.847656 18.335938 C 15.90625 17.648438 15.964844 16.960938 16.039062 16.277344 C 16.070312 15.984375 16.128906 15.695312 16.175781 15.414062 C 16.195312 15.347656 16.242188 15.28125 16.28125 15.203125 Z M 21.832031 10.476562 C 21.800781 10.757812 21.628906 10.96875 21.164062 10.929688 C 21.164062 10.949219 21.164062 10.96875 21.164062 10.996094 C 21.210938 11.492188 21.085938 11.945312 20.855469 12.378906 C 20.75 12.582031 20.605469 12.738281 20.390625 12.835938 C 20.238281 12.902344 20.1875 13.09375 20.273438 13.25 C 20.363281 13.40625 20.46875 13.570312 20.507812 13.742188 C 20.605469 14.1875 20.671875 14.652344 20.75 15.105469 C 20.757812 15.183594 20.789062 15.261719 20.835938 15.320312 C 21.511719 16.113281 22.015625 17.011719 22.324219 18.007812 C 22.421875 18.304688 22.421875 18.296875 22.722656 18.238281 C 23.832031 18.035156 24.808594 17.589844 25.582031 16.742188 C 25.746094 16.566406 25.882812 16.363281 26.027344 16.179688 C 26.019531 16.171875 26.007812 16.160156 26 16.152344 C 25.816406 16.207031 25.632812 16.257812 25.449219 16.316406 C 25.410156 16.324219 25.371094 16.304688 25.332031 16.304688 C 25.339844 16.265625 25.332031 16.207031 25.351562 16.1875 C 25.398438 16.140625 25.457031 16.082031 25.523438 16.054688 C 25.738281 15.96875 25.949219 15.871094 26.171875 15.820312 C 26.609375 15.734375 27.050781 15.6875 27.488281 15.601562 C 28 15.492188 28.503906 15.359375 29.003906 15.242188 C 29.953125 15.019531 30.898438 14.808594 31.789062 14.390625 C 32.195312 14.199219 32.582031 13.996094 32.890625 13.675781 C 33.027344 13.53125 33.160156 13.375 33.25 13.203125 C 33.394531 12.910156 33.519531 12.621094 33.625 12.3125 C 34.089844 10.882812 34.507812 9.429688 34.785156 7.953125 C 34.804688 7.835938 34.84375 7.71875 34.921875 7.632812 C 35.183594 7.324219 35.308594 6.976562 35.28125 6.550781 C 35.210938 6.570312 35.152344 6.589844 35.09375 6.609375 C 34.949219 6.648438 34.804688 6.707031 34.660156 6.734375 C 34.378906 6.78125 34.234375 6.617188 34.304688 6.347656 C 34.3125 6.320312 34.3125 6.28125 34.292969 6.261719 C 34.195312 6.144531 34.195312 6.027344 34.253906 5.894531 C 34.265625 5.863281 34.273438 5.835938 34.253906 5.816406 C 34.148438 5.601562 34.148438 5.546875 34.292969 5.363281 C 34.4375 5.179688 34.574219 4.996094 34.738281 4.773438 C 34.640625 4.773438 34.5625 4.753906 34.507812 4.773438 C 34.234375 4.90625 33.972656 5.042969 33.714844 5.195312 C 33.578125 5.273438 33.460938 5.382812 33.453125 5.566406 C 33.441406 5.785156 33.414062 6.019531 33.382812 6.242188 C 33.355469 6.445312 33.433594 6.609375 33.578125 6.726562 C 33.886719 6.957031 33.992188 7.3125 33.847656 7.664062 C 33.511719 8.472656 33.171875 9.285156 32.824219 10.089844 C 32.554688 10.707031 32.273438 11.316406 31.984375 11.925781 C 31.835938 12.226562 31.632812 12.476562 31.382812 12.691406 C 31.238281 12.804688 31.09375 12.863281 30.890625 12.875 C 30.386719 12.902344 29.875 12.929688 29.390625 13.078125 C 28.386719 13.367188 27.398438 13.335938 26.394531 13.125 C 26.238281 13.09375 26.074219 13.09375 25.921875 13.132812 C 25.464844 13.230469 25.03125 13.367188 24.578125 13.472656 C 24.21875 13.550781 23.851562 13.628906 23.484375 13.675781 C 23.183594 13.714844 22.816406 13.492188 22.722656 13.230469 C 22.632812 13.019531 22.558594 12.796875 22.480469 12.582031 C 22.257812 11.9375 22.257812 11.296875 22.625 10.699219 C 22.703125 10.5625 22.789062 10.4375 22.886719 10.3125 C 23.019531 10.128906 23.144531 9.945312 23.203125 9.710938 C 22.980469 9.632812 22.867188 9.480469 22.808594 9.265625 C 22.769531 9.140625 22.683594 9.0625 22.585938 8.976562 C 22.460938 8.859375 22.363281 8.726562 22.199219 8.648438 C 22.171875 8.640625 22.160156 8.582031 22.152344 8.542969 C 22.132812 8.484375 22.101562 8.417969 22.082031 8.359375 C 22.0625 8.28125 22.015625 8.253906 21.929688 8.242188 C 21.800781 8.234375 21.667969 8.195312 21.570312 8.125 C 21.425781 8.03125 21.308594 7.894531 21.175781 7.777344 C 21.117188 7.730469 21.046875 7.691406 20.992188 7.644531 C 21.203125 8.03125 21.308594 8.4375 21.339844 8.871094 C 21.347656 9.074219 21.398438 9.277344 21.523438 9.449219 C 21.542969 9.480469 21.550781 9.519531 21.5625 9.546875 C 21.609375 9.691406 21.570312 9.800781 21.433594 9.855469 C 21.347656 9.894531 21.25 9.90625 21.15625 9.90625 C 21.058594 9.914062 20.953125 9.886719 20.855469 9.886719 C 20.710938 9.886719 20.585938 10.058594 20.632812 10.203125 C 20.710938 10.40625 20.835938 10.5625 21.039062 10.660156 C 21.269531 10.765625 21.464844 10.6875 21.5625 10.445312 C 21.617188 10.300781 21.746094 10.242188 21.898438 10.28125 C 21.984375 10.300781 22.074219 10.320312 22.152344 10.351562 C 22.199219 10.371094 22.265625 10.417969 22.265625 10.4375 C 22.257812 10.484375 22.21875 10.5625 22.179688 10.574219 C 22.113281 10.589844 22.023438 10.574219 21.957031 10.554688 C 21.917969 10.542969 21.878906 10.503906 21.832031 10.476562 Z M 33.664062 24.988281 C 33.585938 25.035156 33.539062 25.074219 33.492188 25.113281 C 33.308594 25.238281 33.113281 25.304688 32.890625 25.277344 C 32.792969 25.265625 32.660156 25.265625 32.640625 25.140625 C 32.621094 25.007812 32.757812 24.976562 32.851562 24.9375 C 32.976562 24.890625 33.125 24.871094 33.21875 24.785156 C 33.492188 24.570312 33.742188 24.339844 33.992188 24.105469 C 34.023438 24.085938 34.03125 24.03125 34.03125 23.992188 C 34.023438 23.847656 33.992188 23.710938 33.972656 23.566406 C 33.878906 22.636719 33.808594 21.699219 33.695312 20.773438 C 33.617188 20.183594 33.472656 19.601562 33.375 19.011719 C 33.160156 17.734375 32.96875 16.449219 32.765625 15.164062 C 32.726562 14.894531 32.699219 14.625 32.667969 14.351562 C 31.992188 14.730469 31.296875 15.039062 30.550781 15.242188 C 29.921875 15.414062 29.277344 15.542969 28.628906 15.675781 C 28.328125 15.746094 28.027344 15.792969 27.71875 15.851562 C 27.710938 15.859375 27.710938 15.871094 27.699219 15.878906 C 27.738281 15.910156 27.777344 15.929688 27.804688 15.957031 C 28.058594 16.207031 28.222656 16.5 28.230469 16.855469 C 28.230469 17.15625 28.222656 17.464844 28.164062 17.765625 C 28.066406 18.296875 28.144531 18.75 28.511719 19.15625 C 28.761719 19.429688 29.003906 19.707031 29.226562 20.007812 C 29.46875 20.328125 29.71875 20.644531 29.921875 21.003906 C 30.253906 21.566406 30.589844 22.117188 30.988281 22.636719 C 31.429688 23.21875 31.847656 23.816406 32.136719 24.492188 C 32.253906 24.765625 32.378906 25.027344 32.496094 25.285156 C 32.8125 26.019531 33.132812 26.757812 33.453125 27.492188 C 33.480469 27.550781 33.5 27.605469 33.53125 27.65625 C 33.605469 26.777344 33.519531 25.886719 33.664062 24.988281 Z M 25.300781 7.351562 C 25.097656 7.304688 25.023438 7.148438 24.953125 7.015625 C 24.867188 6.839844 24.925781 6.742188 25.128906 6.742188 C 25.378906 6.742188 25.535156 6.617188 25.582031 6.367188 C 25.660156 6 25.582031 5.660156 25.398438 5.34375 C 25.359375 5.273438 25.273438 5.226562 25.207031 5.167969 C 25.1875 5.148438 25.136719 5.148438 25.109375 5.160156 C 24.808594 5.304688 24.585938 5.691406 24.605469 6.027344 C 24.617188 6.203125 24.644531 6.375 24.644531 6.550781 C 24.65625 6.6875 24.597656 6.792969 24.472656 6.839844 C 24.355469 6.890625 24.191406 6.851562 24.101562 6.742188 C 24.066406 6.707031 24.035156 6.648438 24.015625 6.597656 C 23.9375 6.453125 23.863281 6.308594 23.792969 6.15625 C 23.746094 6.046875 23.679688 5.96875 23.550781 5.941406 C 23.367188 5.894531 23.234375 5.769531 23.164062 5.582031 C 23.136719 5.496094 23.109375 5.410156 23.089844 5.324219 C 23.050781 5.148438 23.019531 5.121094 22.835938 5.089844 C 22.613281 5.050781 22.390625 5.109375 22.179688 5.167969 C 21.765625 5.285156 21.359375 5.4375 20.902344 5.410156 C 20.953125 5.640625 21 5.863281 21.027344 6.085938 C 21.058594 6.367188 21.175781 6.578125 21.445312 6.695312 C 21.582031 6.753906 21.667969 6.871094 21.675781 7.015625 C 21.695312 7.296875 21.714844 7.574219 21.726562 7.855469 C 21.726562 7.933594 21.746094 7.972656 21.820312 7.972656 C 21.917969 7.972656 22.015625 7.960938 22.101562 7.960938 C 22.171875 7.960938 22.296875 7.941406 22.265625 8.039062 C 22.226562 8.195312 22.316406 8.289062 22.355469 8.398438 C 22.371094 8.445312 22.429688 8.492188 22.480469 8.492188 C 22.59375 8.503906 22.644531 8.5625 22.652344 8.667969 C 22.664062 8.707031 22.671875 8.753906 22.703125 8.765625 C 22.886719 8.851562 22.960938 9.027344 23.03125 9.199219 C 23.117188 9.414062 23.253906 9.488281 23.476562 9.421875 C 23.570312 9.394531 23.679688 9.355469 23.753906 9.296875 C 23.917969 9.171875 24.074219 9.035156 24.21875 8.890625 C 24.441406 8.667969 24.644531 8.425781 24.847656 8.195312 C 24.925781 8.105469 24.992188 8.011719 25.0625 7.921875 C 25.097656 7.867188 25.136719 7.796875 25.175781 7.730469 C 25.1875 7.730469 25.207031 7.730469 25.214844 7.738281 C 25.234375 7.816406 25.253906 7.886719 25.261719 7.960938 C 25.273438 8.144531 25.136719 8.242188 25.023438 8.359375 C 24.859375 8.542969 24.691406 8.734375 24.527344 8.917969 C 24.539062 8.929688 24.539062 8.949219 24.546875 8.957031 C 24.800781 8.988281 25.050781 9.015625 25.292969 9.046875 C 25.457031 9.0625 25.582031 9.007812 25.6875 8.871094 C 26.007812 8.472656 26.238281 8.039062 26.367188 7.546875 C 26.460938 7.160156 26.421875 6.78125 26.203125 6.445312 C 26.183594 6.414062 26.132812 6.386719 26.09375 6.375 C 26 6.355469 25.902344 6.355469 25.796875 6.339844 C 25.699219 6.628906 25.621094 6.945312 25.253906 7.015625 C 25.292969 7.148438 25.292969 7.246094 25.300781 7.351562 Z M 33.230469 8.582031 C 32.804688 8.386719 32.535156 8.039062 32.242188 7.710938 C 31.945312 7.371094 31.605469 7.074219 31.285156 6.753906 C 31.179688 6.648438 31.054688 6.597656 30.890625 6.589844 C 30.628906 6.589844 30.359375 6.558594 30.117188 6.675781 C 29.757812 6.859375 29.390625 6.851562 29.003906 6.8125 C 28.820312 6.792969 28.628906 6.78125 28.425781 6.773438 C 28.445312 6.8125 28.445312 6.820312 28.453125 6.832031 C 28.472656 6.859375 28.492188 6.890625 28.523438 6.910156 C 28.773438 7.160156 28.8125 7.441406 28.648438 7.769531 C 28.558594 7.953125 28.492188 8.15625 28.40625 8.367188 C 28.609375 8.347656 28.792969 8.328125 28.964844 8.308594 C 29.1875 8.28125 29.351562 8.367188 29.480469 8.550781 C 29.699219 8.878906 29.867188 9.246094 29.953125 9.632812 C 30.105469 10.339844 30.183594 11.054688 30.164062 11.78125 C 30.15625 12.042969 30.164062 12.304688 30.164062 12.574219 C 30.417969 12.554688 30.648438 12.535156 30.878906 12.507812 C 30.949219 12.496094 31.035156 12.46875 31.082031 12.417969 C 31.46875 12.011719 31.769531 11.550781 32.039062 11.054688 C 32.058594 11.027344 32.058594 10.96875 32.050781 10.929688 C 31.972656 10.589844 31.90625 10.242188 31.800781 9.90625 C 31.5 8.976562 31.296875 8.03125 31.09375 7.082031 C 31.082031 7.042969 31.113281 6.996094 31.121094 6.957031 C 31.160156 6.984375 31.210938 6.996094 31.230469 7.035156 C 31.296875 7.179688 31.355469 7.324219 31.402344 7.46875 C 31.703125 8.417969 32.003906 9.363281 32.292969 10.320312 C 32.3125 10.371094 32.320312 10.417969 32.351562 10.496094 C 32.660156 9.828125 33.027344 9.246094 33.230469 8.582031 Z M 26.191406 6.136719 C 26.210938 6.125 26.222656 6.117188 26.238281 6.105469 C 26.210938 5.953125 26.183594 5.785156 26.152344 5.632812 C 26.105469 5.410156 26.027344 5.195312 26.007812 4.976562 C 25.96875 4.550781 25.96875 4.113281 25.949219 3.6875 C 25.929688 3.359375 25.882812 3.070312 25.582031 2.839844 C 25.261719 2.585938 24.914062 2.519531 24.539062 2.558594 C 24.382812 2.578125 24.296875 2.539062 24.210938 2.402344 C 24.191406 2.382812 24.171875 2.355469 24.140625 2.34375 C 24.035156 2.304688 23.929688 2.25 23.824219 2.238281 C 23.261719 2.199219 22.722656 2.269531 22.238281 2.597656 C 21.820312 2.878906 21.453125 3.214844 21.117188 3.59375 C 20.921875 3.804688 20.710938 4 20.421875 4.074219 C 20.382812 4.085938 20.34375 4.132812 20.3125 4.183594 C 20.226562 4.328125 20.285156 4.472656 20.304688 4.625 C 20.371094 5.050781 20.625 5.195312 21.011719 5.160156 C 21.359375 5.121094 21.707031 5.011719 22.054688 4.9375 C 22.324219 4.867188 22.59375 4.792969 22.886719 4.847656 C 23.164062 4.898438 23.261719 4.996094 23.3125 5.273438 C 23.339844 5.476562 23.40625 5.671875 23.640625 5.738281 C 23.804688 5.785156 23.917969 5.894531 23.996094 6.039062 C 24.09375 6.210938 24.179688 6.394531 24.289062 6.570312 C 24.304688 6.597656 24.34375 6.617188 24.382812 6.648438 C 24.402344 6.617188 24.433594 6.578125 24.453125 6.539062 C 24.460938 6.503906 24.460938 6.464844 24.460938 6.425781 C 24.453125 6.28125 24.433594 6.136719 24.421875 5.980469 C 24.394531 5.496094 24.585938 5.179688 25.003906 5.003906 C 25.234375 4.90625 25.449219 4.964844 25.613281 5.179688 C 25.757812 5.382812 25.835938 5.613281 25.863281 5.855469 C 25.871094 5.902344 25.871094 5.96875 25.902344 5.988281 C 25.980469 6.039062 26.085938 6.085938 26.191406 6.136719 Z M 19.203125 8.675781 C 19 9.382812 18.757812 9.742188 18.507812 9.710938 C 18.601562 9.539062 18.707031 9.363281 18.796875 9.179688 C 18.960938 8.84375 19.078125 8.484375 19.046875 8.097656 C 19.027344 7.875 18.988281 7.652344 18.960938 7.441406 C 18.863281 7.46875 18.746094 7.515625 18.621094 7.546875 C 18.195312 7.632812 17.828125 7.835938 17.472656 8.085938 C 17.144531 8.320312 16.949219 8.640625 16.851562 9.027344 C 16.8125 9.160156 16.792969 9.304688 16.757812 9.460938 C 16.824219 9.460938 16.871094 9.460938 16.910156 9.460938 C 17.113281 9.488281 17.335938 9.441406 17.519531 9.566406 C 17.644531 9.652344 17.761719 9.742188 17.867188 9.835938 C 18.195312 10.167969 18.410156 10.574219 18.632812 10.96875 C 18.949219 11.539062 19.296875 12.101562 19.742188 12.59375 C 19.773438 12.621094 19.800781 12.660156 19.851562 12.707031 C 19.792969 12.195312 19.609375 11.761719 19.414062 11.316406 C 19.492188 11.328125 19.558594 11.347656 19.609375 11.382812 C 19.839844 11.566406 19.964844 11.820312 20.070312 12.089844 C 20.140625 12.253906 20.1875 12.417969 20.246094 12.59375 C 20.410156 12.488281 20.546875 12.359375 20.632812 12.195312 C 20.835938 11.800781 20.941406 11.382812 20.941406 10.941406 C 20.941406 10.902344 20.933594 10.851562 20.902344 10.824219 C 20.757812 10.679688 20.613281 10.542969 20.46875 10.40625 C 20.46875 10.40625 20.449219 10.425781 20.429688 10.445312 C 20.273438 10.707031 20.128906 10.960938 19.976562 11.21875 C 19.9375 11.277344 19.898438 11.335938 19.839844 11.414062 C 19.800781 11.316406 19.773438 11.257812 19.761719 11.199219 C 19.695312 10.902344 19.761719 10.621094 19.9375 10.371094 C 20.035156 10.234375 20.160156 10.109375 20.265625 9.984375 C 20.46875 9.75 20.59375 9.488281 20.625 9.171875 C 20.632812 9.074219 20.660156 8.976562 20.679688 8.871094 C 20.691406 8.871094 20.710938 8.871094 20.71875 8.871094 C 20.808594 9.09375 20.808594 9.324219 20.816406 9.546875 C 21.019531 9.566406 21.203125 9.578125 21.386719 9.597656 C 21.398438 9.585938 21.40625 9.566406 21.414062 9.558594 C 21.183594 9.316406 21.15625 9.007812 21.078125 8.707031 C 21.046875 8.582031 21.019531 8.457031 20.980469 8.328125 C 20.863281 7.933594 20.625 7.605469 20.371094 7.285156 C 20.332031 7.238281 20.265625 7.167969 20.273438 7.121094 C 20.304688 6.9375 20.148438 6.871094 20.0625 6.773438 C 20.035156 6.734375 19.945312 6.726562 19.898438 6.734375 C 19.628906 6.773438 19.367188 7.054688 19.328125 7.324219 C 19.296875 7.535156 19.347656 7.730469 19.425781 7.921875 C 19.742188 8.746094 19.609375 9.507812 19.078125 10.214844 C 19.027344 10.28125 18.949219 10.320312 18.882812 10.378906 C 18.875 10.371094 18.863281 10.359375 18.855469 10.351562 C 19.132812 9.847656 19.367188 9.316406 19.203125 8.675781 Z M 34.109375 11.953125 C 34.207031 11.972656 34.285156 11.992188 34.371094 12.003906 C 35 12.070312 35.628906 12.023438 36.253906 11.964844 C 36.566406 11.9375 36.816406 11.78125 36.933594 11.472656 C 36.953125 11.421875 36.972656 11.382812 37 11.347656 C 37.195312 10.988281 37.242188 10.601562 37.195312 10.203125 C 37.175781 10.03125 37.136719 9.855469 37.105469 9.671875 C 37.011719 9.171875 36.921875 8.667969 36.816406 8.164062 C 36.789062 8.039062 36.777344 7.902344 36.699219 7.816406 C 36.515625 7.613281 36.265625 7.5 35.984375 7.363281 C 36.054688 7.644531 36.101562 7.894531 36.160156 8.144531 C 36.238281 8.085938 36.304688 8.050781 36.371094 8.011719 C 36.457031 7.960938 36.515625 8 36.507812 8.085938 C 36.488281 8.195312 36.449219 8.300781 36.390625 8.378906 C 36.226562 8.5625 36.003906 8.660156 35.773438 8.714844 C 35.53125 8.773438 35.296875 8.726562 35.085938 8.648438 C 34.757812 9.75 34.4375 10.84375 34.109375 11.953125 Z M 26.683594 19.632812 C 26.675781 19.621094 26.664062 19.613281 26.65625 19.601562 C 26.597656 19.632812 26.550781 19.660156 26.492188 19.679688 C 26.386719 19.726562 26.277344 19.765625 26.183594 19.804688 C 26.054688 19.851562 25.929688 19.871094 25.816406 19.929688 C 25.542969 20.074219 25.273438 20.238281 25.003906 20.40625 C 24.730469 20.578125 24.453125 20.734375 24.132812 20.800781 C 23.929688 20.839844 23.832031 21.003906 23.726562 21.167969 C 23.660156 21.285156 23.589844 21.410156 23.53125 21.527344 C 23.515625 21.566406 23.484375 21.601562 23.496094 21.640625 C 23.628906 22.027344 23.773438 22.414062 23.917969 22.792969 C 24.085938 22.753906 24.21875 22.6875 24.375 22.675781 C 24.78125 22.648438 25.175781 22.695312 25.554688 22.851562 C 26.152344 23.09375 26.792969 23.113281 27.410156 23.238281 C 27.476562 23.257812 27.566406 23.21875 27.632812 23.207031 C 27.632812 23.1875 27.640625 23.167969 27.640625 23.160156 C 27.574219 23.113281 27.527344 23.042969 27.449219 23.015625 C 27.226562 22.917969 27.011719 22.820312 26.753906 22.898438 C 26.617188 22.9375 26.441406 22.890625 26.296875 22.851562 C 26.238281 22.832031 26.152344 22.734375 26.152344 22.675781 C 26.152344 22.578125 26.257812 22.550781 26.347656 22.550781 C 26.386719 22.550781 26.433594 22.550781 26.472656 22.558594 C 26.683594 22.617188 26.886719 22.589844 27.089844 22.523438 C 27.449219 22.40625 27.804688 22.308594 28.164062 22.191406 C 28.222656 22.171875 28.28125 22.136719 28.375 22.085938 C 28.289062 22.058594 28.242188 22.027344 28.191406 22.019531 C 27.84375 22 27.507812 22.058594 27.1875 22.183594 C 26.945312 22.28125 26.714844 22.320312 26.460938 22.289062 C 26.40625 22.28125 26.316406 22.222656 26.296875 22.171875 C 26.269531 22.085938 26.335938 22.019531 26.421875 21.988281 C 26.492188 21.960938 26.570312 21.933594 26.636719 21.941406 C 26.992188 21.96875 27.273438 21.796875 27.574219 21.632812 C 27.816406 21.496094 28.066406 21.398438 28.308594 21.285156 C 28.394531 21.246094 28.511719 21.214844 28.570312 21.148438 C 28.628906 21.089844 28.636719 20.976562 28.636719 20.886719 C 28.636719 20.867188 28.503906 20.820312 28.445312 20.828125 C 28.117188 20.898438 27.785156 20.984375 27.457031 21.082031 C 27.34375 21.121094 27.234375 21.207031 27.128906 21.285156 C 27.03125 21.351562 26.945312 21.429688 26.847656 21.488281 C 26.714844 21.574219 26.570312 21.652344 26.433594 21.730469 C 26.375 21.769531 26.316406 21.816406 26.25 21.824219 C 26.183594 21.835938 26.113281 21.796875 26.035156 21.777344 C 26.054688 21.710938 26.054688 21.613281 26.09375 21.574219 C 26.171875 21.507812 26.277344 21.46875 26.375 21.417969 C 26.519531 21.34375 26.703125 21.285156 26.808594 21.167969 C 27.089844 20.859375 27.398438 20.597656 27.730469 20.367188 C 27.785156 20.328125 27.835938 20.257812 27.882812 20.203125 C 27.875 20.183594 27.875 20.171875 27.863281 20.152344 C 27.785156 20.152344 27.710938 20.144531 27.640625 20.152344 C 27.332031 20.183594 27.082031 20.316406 26.839844 20.5 C 26.277344 20.925781 25.660156 21.140625 24.953125 21.0625 C 24.90625 21.050781 24.867188 21.023438 24.820312 21.003906 C 24.859375 20.957031 24.886719 20.886719 24.925781 20.878906 C 25.078125 20.820312 25.253906 20.78125 25.410156 20.734375 C 25.449219 20.722656 25.496094 20.703125 25.523438 20.683594 C 25.632812 20.609375 25.726562 20.53125 25.835938 20.441406 C 26.054688 20.25 26.277344 20.054688 26.5 19.851562 C 26.589844 19.804688 26.625 19.707031 26.683594 19.632812 Z M 26.847656 6.609375 C 26.839844 6.617188 26.839844 6.628906 26.828125 6.636719 C 26.886719 6.726562 26.9375 6.800781 26.992188 6.890625 C 27.3125 7.402344 27.601562 7.933594 27.796875 8.511719 C 28.046875 9.285156 28.328125 10.058594 28.570312 10.832031 C 28.761719 11.460938 28.925781 12.109375 29.113281 12.757812 C 29.226562 12.738281 29.371094 12.707031 29.507812 12.691406 C 29.867188 12.632812 29.867188 12.632812 29.875 12.273438 C 29.894531 11.519531 29.835938 10.765625 29.738281 10.011719 C 29.683594 9.558594 29.554688 9.121094 29.304688 8.726562 C 29.226562 8.609375 29.140625 8.570312 29.015625 8.589844 C 28.839844 8.621094 28.65625 8.628906 28.484375 8.640625 C 28.191406 8.660156 28.078125 8.472656 28.210938 8.222656 C 28.261719 8.125 28.320312 8.050781 28.375 7.953125 C 28.453125 7.808594 28.53125 7.664062 28.597656 7.507812 C 28.617188 7.460938 28.617188 7.371094 28.589844 7.332031 C 28.484375 7.179688 28.355469 7.042969 28.230469 6.898438 C 28.203125 6.871094 28.152344 6.839844 28.117188 6.839844 C 27.902344 6.800781 27.699219 6.78125 27.488281 6.742188 C 27.253906 6.695312 27.050781 6.648438 26.847656 6.609375 Z M 27.371094 8.289062 C 27.363281 8.667969 27.351562 9.027344 27.332031 9.382812 C 27.324219 9.507812 27.3125 9.644531 27.285156 9.769531 C 27.234375 10.003906 27.050781 10.109375 26.820312 10.039062 C 26.714844 10.011719 26.597656 9.964844 26.492188 9.933594 C 26.472656 10.089844 26.460938 10.234375 26.414062 10.378906 C 26.375 10.496094 26.386719 10.589844 26.441406 10.699219 C 26.742188 11.316406 27.03125 11.945312 27.332031 12.574219 C 27.371094 12.660156 27.417969 12.757812 27.46875 12.84375 C 27.488281 12.875 27.527344 12.902344 27.554688 12.910156 C 27.941406 12.941406 28.328125 12.902344 28.726562 12.84375 C 28.597656 11.210938 27.894531 9.78125 27.371094 8.289062 Z M 23.03125 10.5625 C 23.183594 10.589844 23.347656 10.609375 23.484375 10.667969 C 23.746094 10.777344 23.785156 10.921875 23.648438 11.171875 C 23.550781 11.347656 23.4375 11.5 23.347656 11.675781 C 23.320312 11.734375 23.3125 11.828125 23.347656 11.878906 C 23.621094 12.304688 23.902344 12.71875 24.171875 13.144531 C 24.210938 13.210938 24.269531 13.222656 24.335938 13.191406 C 24.597656 13.105469 24.859375 13.019531 25.117188 12.941406 C 25.136719 12.929688 25.15625 12.910156 25.1875 12.902344 C 24.789062 11.769531 24.296875 10.679688 23.996094 9.539062 C 23.824219 9.597656 23.660156 9.644531 23.496094 9.703125 C 23.464844 9.710938 23.445312 9.761719 23.425781 9.789062 C 23.386719 9.914062 23.367188 10.050781 23.300781 10.167969 C 23.242188 10.300781 23.128906 10.425781 23.03125 10.5625 Z M 24.617188 10.398438 C 24.730469 10.203125 24.828125 10.03125 24.945312 9.855469 C 25.246094 9.421875 25.890625 9.296875 26.328125 9.527344 C 26.5 9.617188 26.675781 9.703125 26.859375 9.78125 C 27.003906 9.835938 27.070312 9.808594 27.089844 9.644531 C 27.109375 9.460938 27.128906 9.277344 27.121094 9.101562 C 27.089844 8.640625 27.070312 8.164062 27.011719 7.699219 C 26.992188 7.527344 26.878906 7.371094 26.800781 7.207031 C 26.792969 7.21875 26.78125 7.21875 26.773438 7.226562 C 26.773438 7.632812 26.636719 8.011719 26.460938 8.359375 C 26.335938 8.621094 26.164062 8.851562 25.988281 9.09375 C 25.882812 9.246094 25.71875 9.324219 25.535156 9.34375 C 25.167969 9.382812 24.800781 9.335938 24.460938 9.210938 C 24.34375 9.160156 24.316406 9.238281 24.257812 9.285156 C 24.191406 9.335938 24.21875 9.382812 24.25 9.441406 C 24.324219 9.632812 24.414062 9.828125 24.488281 10.019531 C 24.519531 10.136719 24.558594 10.261719 24.617188 10.398438 Z M 27.167969 12.875 C 27.140625 12.804688 27.128906 12.765625 27.109375 12.726562 C 26.925781 12.351562 26.742188 11.972656 26.558594 11.585938 C 26.421875 11.308594 26.289062 11.015625 26.171875 10.738281 C 26.132812 10.660156 26.113281 10.554688 26.132812 10.476562 C 26.171875 10.242188 26.238281 10.019531 26.289062 9.789062 C 26.105469 9.671875 25.902344 9.566406 25.660156 9.671875 C 25.613281 9.691406 25.554688 9.710938 25.496094 9.710938 C 25.292969 9.722656 25.207031 9.847656 25.148438 10.019531 C 25.175781 10.03125 25.207031 10.039062 25.234375 10.058594 C 25.496094 10.175781 25.707031 10.339844 25.765625 10.640625 C 25.84375 11.027344 25.921875 11.414062 25.980469 11.800781 C 26.027344 12.101562 26.035156 12.398438 26.054688 12.671875 C 26.257812 12.746094 26.421875 12.816406 26.597656 12.875 C 26.617188 12.882812 26.644531 12.894531 26.675781 12.894531 C 26.828125 12.875 26.984375 12.875 27.167969 12.875 Z M 35.511719 6.570312 C 35.597656 7.0625 35.578125 7.265625 35.316406 7.605469 C 35.113281 7.855469 35.183594 8.144531 35.09375 8.425781 C 35.367188 8.464844 35.609375 8.472656 35.839844 8.359375 C 35.90625 8.320312 35.925781 8.28125 35.917969 8.214844 C 35.886719 8.03125 35.878906 7.855469 35.851562 7.671875 C 35.820312 7.410156 35.734375 7.140625 35.945312 6.898438 C 35.957031 6.890625 35.957031 6.871094 35.957031 6.859375 C 36.015625 6.609375 36.070312 6.355469 36.121094 6.097656 C 36.140625 6.019531 36.128906 5.941406 36.121094 5.863281 C 36.109375 5.804688 36.082031 5.757812 35.996094 5.769531 C 35.78125 5.796875 35.570312 5.816406 35.355469 5.824219 C 35.164062 5.835938 35.007812 5.914062 34.875 6.046875 C 34.765625 6.15625 34.660156 6.261719 34.554688 6.375 C 34.523438 6.40625 34.515625 6.445312 34.496094 6.484375 C 34.542969 6.503906 34.59375 6.523438 34.632812 6.523438 C 34.671875 6.523438 34.707031 6.492188 34.757812 6.472656 C 34.894531 6.425781 35.027344 6.355469 35.164062 6.339844 C 35.335938 6.308594 35.519531 6.320312 35.695312 6.328125 C 35.734375 6.328125 35.773438 6.40625 35.8125 6.445312 C 35.773438 6.484375 35.742188 6.53125 35.695312 6.550781 C 35.648438 6.578125 35.589844 6.570312 35.511719 6.570312 Z M 25.464844 12.804688 C 25.796875 12.777344 25.804688 12.765625 25.785156 12.488281 C 25.785156 12.46875 25.785156 12.449219 25.785156 12.4375 C 25.746094 11.800781 25.632812 11.164062 25.476562 10.542969 C 25.464844 10.503906 25.4375 10.445312 25.410156 10.425781 C 25.292969 10.359375 25.167969 10.300781 25.050781 10.234375 C 24.964844 10.359375 24.886719 10.496094 24.78125 10.601562 C 24.730469 10.660156 24.722656 10.6875 24.742188 10.757812 C 24.839844 11.046875 24.933594 11.335938 25.042969 11.617188 C 25.175781 12.011719 25.320312 12.417969 25.464844 12.804688 Z M 23.890625 13.28125 C 23.804688 13.152344 23.726562 13.046875 23.660156 12.941406 C 23.464844 12.621094 23.28125 12.304688 23.097656 11.972656 C 23.011719 11.828125 23.011719 11.664062 23.109375 11.519531 C 23.214844 11.363281 23.320312 11.210938 23.417969 11.054688 C 23.445312 11.015625 23.476562 10.976562 23.523438 10.902344 C 23.300781 10.882812 23.117188 10.871094 22.933594 10.851562 C 22.855469 10.84375 22.828125 10.871094 22.789062 10.929688 C 22.632812 11.230469 22.585938 11.550781 22.644531 11.867188 C 22.722656 12.234375 22.828125 12.601562 22.933594 12.960938 C 22.953125 13.039062 23.019531 13.113281 23.078125 13.164062 C 23.320312 13.375 23.589844 13.355469 23.890625 13.28125 Z M 35.859375 5.101562 C 35.636719 5.167969 35.40625 5.1875 35.222656 5.292969 C 34.941406 5.476562 34.691406 5.710938 34.4375 5.933594 C 34.351562 6.007812 34.390625 6.078125 34.496094 6.117188 C 34.582031 6.144531 34.621094 6.085938 34.671875 6.046875 C 34.816406 5.933594 34.949219 5.796875 35.113281 5.71875 C 35.347656 5.613281 35.609375 5.566406 35.851562 5.496094 C 35.859375 5.382812 35.859375 5.253906 35.859375 5.101562 Z M 35.683594 4.519531 C 35.261719 4.625 34.875 4.683594 34.691406 5.121094 C 34.660156 5.195312 34.601562 5.253906 34.554688 5.324219 C 34.496094 5.398438 34.4375 5.476562 34.378906 5.554688 C 34.390625 5.566406 34.398438 5.582031 34.410156 5.59375 C 34.457031 5.574219 34.507812 5.566406 34.542969 5.527344 C 34.785156 5.304688 35.027344 5.082031 35.355469 4.984375 C 35.445312 4.964844 35.558594 4.925781 35.597656 4.859375 C 35.65625 4.792969 35.65625 4.664062 35.683594 4.519531 Z M 34.777344 4.558594 C 35.039062 4.460938 35.308594 4.355469 35.578125 4.257812 C 35.609375 4.09375 35.519531 4.007812 35.347656 4.054688 C 35.183594 4.105469 35.027344 4.171875 34.875 4.238281 C 34.765625 4.289062 34.726562 4.421875 34.777344 4.558594 Z M 33.789062 4.847656 C 33.714844 4.761719 33.644531 4.65625 33.546875 4.578125 C 33.511719 4.550781 33.414062 4.578125 33.355469 4.597656 C 33.335938 4.609375 33.308594 4.675781 33.316406 4.703125 C 33.375 4.820312 33.441406 4.9375 33.5 5.050781 C 33.625 4.976562 33.722656 4.90625 33.789062 4.847656 Z M 33.789062 4.847656 " fill-opacity="1" fill-rule="nonzero"/></g></svg>