<svg xmlns="http://www.w3.org/2000/svg" xmlns:xlink="http://www.w3.org/1999/xlink" width="70" zoomAndPan="magnify" viewBox="0 0 52.5 52.499999" height="70" preserveAspectRatio="xMidYMid meet" version="1.0"><defs><clipPath id="45c6d776fc"><path d="M 2.210938 4.027344 L 49.75 4.027344 L 49.75 46.800781 L 2.210938 46.800781 Z M 2.210938 4.027344 " clip-rule="nonzero"/></clipPath></defs><g clip-path="url(#45c6d776fc)"><path fill="#dbbf97" d="M 49.191406 30.628906 C 49.089844 30.832031 48.945312 30.980469 48.71875 31.011719 C 48.46875 31.046875 48.214844 31.074219 47.964844 31.074219 C 45.894531 31.0625 43.824219 31.035156 41.757812 31.023438 C 40.578125 31.015625 39.398438 31.019531 38.21875 31.019531 C 38.128906 31.019531 38.035156 31.019531 37.90625 31.019531 C 38.132812 30.070312 38.101562 29.128906 38.15625 28.175781 C 38.277344 28.175781 38.378906 28.175781 38.480469 28.175781 C 41.175781 28.183594 43.871094 28.191406 46.570312 28.199219 C 47.027344 28.203125 47.488281 28.183594 47.941406 28.226562 C 48.21875 28.253906 48.496094 28.371094 48.761719 28.472656 C 48.988281 28.5625 49.109375 28.773438 49.199219 28.980469 C 49.433594 29.527344 49.464844 30.078125 49.191406 30.628906 Z M 47.78125 31.777344 C 47.730469 32.265625 47.691406 32.753906 47.628906 33.242188 C 47.539062 33.980469 47.445312 34.722656 47.335938 35.457031 C 47.242188 36.074219 46.894531 36.492188 46.3125 36.714844 C 45.753906 36.929688 45.167969 37.015625 44.570312 37.03125 C 44.539062 37.03125 44.507812 37.023438 44.464844 37.015625 C 44.460938 36.757812 44.476562 36.503906 44.292969 36.257812 C 44.085938 36.484375 44.117188 36.765625 44.066406 37.03125 C 43.828125 37.03125 43.589844 37.050781 43.355469 37.027344 C 42.765625 36.972656 42.179688 36.910156 41.589844 36.835938 C 41.007812 36.761719 40.710938 36.386719 40.621094 35.84375 C 40.515625 35.21875 40.421875 34.585938 40.367188 33.957031 C 40.304688 33.230469 40.296875 32.5 40.265625 31.773438 C 40.261719 31.6875 40.261719 31.605469 40.261719 31.507812 C 40.8125 31.507812 41.332031 31.507812 41.886719 31.507812 C 41.871094 31.609375 41.867188 31.675781 41.855469 31.742188 C 41.800781 32.054688 41.808594 32.367188 41.84375 32.679688 C 41.847656 32.730469 41.863281 32.777344 41.878906 32.824219 C 41.910156 32.914062 41.972656 32.96875 42.070312 32.964844 C 42.171875 32.957031 42.222656 32.890625 42.242188 32.800781 C 42.304688 32.46875 42.320312 32.128906 42.273438 31.789062 C 42.261719 31.707031 42.25 31.625 42.238281 31.523438 C 42.910156 31.523438 43.566406 31.523438 44.210938 31.523438 C 44.210938 31.734375 44.210938 31.929688 44.214844 32.121094 C 44.21875 32.40625 44.222656 32.695312 44.230469 32.980469 C 44.230469 33.015625 44.230469 33.058594 44.25 33.078125 C 44.289062 33.128906 44.339844 33.207031 44.386719 33.203125 C 44.449219 33.203125 44.539062 33.152344 44.5625 33.101562 C 44.609375 33.003906 44.632812 32.890625 44.632812 32.78125 C 44.640625 32.375 44.636719 31.96875 44.636719 31.527344 C 45.167969 31.496094 45.726562 31.519531 46.320312 31.507812 C 46.3125 31.664062 46.300781 31.792969 46.296875 31.925781 C 46.289062 32.152344 46.28125 32.382812 46.277344 32.609375 C 46.273438 32.644531 46.285156 32.679688 46.289062 32.710938 C 46.308594 32.808594 46.347656 32.894531 46.460938 32.898438 C 46.582031 32.902344 46.621094 32.820312 46.636719 32.71875 C 46.691406 32.417969 46.742188 32.117188 46.699219 31.8125 C 46.6875 31.730469 46.683594 31.644531 46.671875 31.527344 C 47.050781 31.546875 47.410156 31.566406 47.78125 31.585938 C 47.78125 31.660156 47.785156 31.71875 47.78125 31.777344 Z M 37.34375 27.46875 C 37.257812 27.574219 37.175781 27.589844 37.058594 27.589844 C 35.667969 27.578125 34.277344 27.566406 32.886719 27.554688 C 29.765625 27.53125 26.644531 27.503906 23.519531 27.476562 C 20.636719 27.453125 17.753906 27.429688 14.867188 27.402344 C 14.835938 27.402344 14.800781 27.402344 14.757812 27.402344 C 14.449219 26.933594 14.183594 26.929688 13.839844 27.382812 C 13.515625 27.382812 13.1875 27.386719 12.855469 27.378906 C 12.796875 27.375 12.730469 27.339844 12.679688 27.300781 C 12.582031 27.230469 12.488281 27.152344 12.414062 27.0625 C 11.847656 26.410156 11.285156 25.75 10.722656 25.097656 C 10.617188 24.976562 10.59375 24.863281 10.617188 24.703125 C 10.792969 23.558594 10.140625 22.429688 9.058594 22.019531 C 8.910156 21.960938 8.832031 21.875 8.769531 21.734375 C 8.136719 20.289062 7.894531 18.777344 8.035156 17.210938 C 8.171875 15.632812 8.878906 14.332031 10.03125 13.265625 C 10.113281 13.1875 10.230469 13.128906 10.339844 13.097656 C 11.191406 12.835938 12.035156 12.558594 12.894531 12.335938 C 14.671875 11.878906 16.480469 11.609375 18.304688 11.402344 C 21.25 11.070312 24.207031 10.945312 27.167969 11.019531 C 28.574219 11.058594 29.984375 11.140625 31.386719 11.253906 C 32.636719 11.359375 33.882812 11.496094 35.125 11.679688 C 37.367188 12.011719 39.566406 12.523438 41.714844 13.261719 C 42.175781 13.421875 42.507812 13.675781 42.796875 14.042969 C 43.707031 15.207031 44.105469 16.535156 44.101562 18 C 44.101562 19.28125 43.847656 20.507812 43.351562 21.6875 C 43.28125 21.847656 43.191406 21.945312 43.023438 22.003906 C 41.9375 22.394531 41.265625 23.558594 41.464844 24.707031 C 41.492188 24.859375 41.472656 24.976562 41.371094 25.105469 C 40.8125 25.808594 40.226562 26.488281 39.570312 27.105469 C 39.433594 27.230469 39.304688 27.367188 39.179688 27.507812 C 39.113281 27.585938 39.035156 27.613281 38.9375 27.609375 C 38.714844 27.601562 38.496094 27.601562 38.273438 27.605469 C 38.164062 27.605469 38.09375 27.570312 38.015625 27.480469 C 37.8125 27.242188 37.53125 27.234375 37.34375 27.46875 Z M 37.140625 31.007812 C 37.066406 31.011719 36.992188 31.019531 36.917969 31.019531 C 35.339844 31.011719 33.761719 31.003906 32.1875 31.003906 C 32.046875 31.003906 31.953125 30.960938 31.871094 30.84375 C 31.226562 29.917969 30.40625 29.175781 29.460938 28.570312 C 29.195312 28.398438 28.898438 28.265625 28.617188 28.117188 C 28.617188 28.105469 28.617188 28.09375 28.617188 28.085938 C 31.480469 28.113281 34.34375 28.144531 37.238281 28.175781 C 37.246094 29.121094 37.265625 30.054688 37.140625 31.007812 Z M 29.625 30.980469 C 29.5 29.875 28.964844 29.011719 28.082031 28.355469 C 28.09375 28.339844 28.105469 28.324219 28.117188 28.308594 C 28.234375 28.355469 28.351562 28.390625 28.464844 28.441406 C 28.882812 28.628906 29.265625 28.882812 29.621094 29.167969 C 30.207031 29.636719 30.738281 30.15625 31.199219 30.746094 C 31.25 30.8125 31.296875 30.882812 31.367188 30.980469 C 30.761719 30.980469 30.207031 30.980469 29.625 30.980469 Z M 27.789062 30.96875 C 27.832031 30.046875 27.847656 29.136719 27.390625 28.292969 C 28.246094 28.550781 29.222656 29.949219 29.253906 30.96875 C 28.757812 30.96875 28.285156 30.96875 27.789062 30.96875 Z M 27.363281 30.960938 C 26.765625 30.960938 26.175781 30.960938 25.542969 30.960938 C 25.589844 30.867188 25.628906 30.785156 25.667969 30.710938 C 25.953125 30.195312 26.179688 29.65625 26.273438 29.074219 C 26.320312 28.785156 26.351562 28.488281 26.390625 28.175781 C 26.4375 28.171875 26.5 28.175781 26.5625 28.164062 C 26.875 28.101562 27.027344 28.277344 27.140625 28.53125 C 27.285156 28.851562 27.367188 29.1875 27.394531 29.535156 C 27.433594 30.007812 27.449219 30.480469 27.363281 30.960938 Z M 25.015625 30.957031 C 24.539062 30.957031 24.074219 30.957031 23.605469 30.957031 C 24.082031 30.136719 25.574219 28.160156 26.011719 28.074219 C 26.125 28.542969 25.566406 30.164062 25.015625 30.957031 Z M 23.09375 30.792969 C 23 30.925781 22.894531 30.96875 22.734375 30.96875 C 20.84375 30.957031 18.953125 30.953125 17.0625 30.949219 C 16.382812 30.945312 15.703125 30.945312 15.027344 30.941406 C 14.941406 30.941406 14.859375 30.933594 14.78125 30.929688 C 14.78125 29.929688 14.78125 28.964844 14.78125 28.003906 C 15.015625 27.949219 24.75 28.015625 25.367188 28.074219 C 25.351562 28.105469 25.34375 28.140625 25.324219 28.15625 C 24.792969 28.613281 24.347656 29.144531 23.921875 29.695312 C 23.640625 30.058594 23.359375 30.421875 23.09375 30.792969 Z M 13.492188 30.933594 C 10.34375 30.929688 7.195312 30.925781 4.046875 30.917969 C 3.898438 30.917969 3.738281 30.929688 3.597656 30.890625 C 3.109375 30.75 2.902344 30.367188 2.84375 29.902344 C 2.78125 29.386719 2.886719 28.890625 3.109375 28.417969 C 3.171875 28.289062 3.261719 28.203125 3.390625 28.140625 C 3.832031 27.925781 4.304688 27.839844 4.792969 27.847656 C 6.414062 27.867188 8.035156 27.890625 9.65625 27.910156 C 10.910156 27.925781 12.167969 27.9375 13.421875 27.953125 C 13.511719 27.953125 13.605469 27.953125 13.714844 27.953125 C 13.613281 28.96875 13.714844 29.929688 13.769531 30.921875 C 13.671875 30.925781 13.582031 30.933594 13.492188 30.933594 Z M 11.636719 35.667969 C 11.59375 35.882812 11.519531 36.09375 11.433594 36.292969 C 11.34375 36.503906 11.175781 36.660156 10.953125 36.714844 C 10.664062 36.789062 10.375 36.863281 10.082031 36.894531 C 9.511719 36.953125 8.933594 36.984375 8.359375 37.023438 C 8.292969 37.027344 8.226562 37.015625 8.140625 37.011719 C 8.125 36.734375 8.132812 36.476562 7.945312 36.246094 C 7.722656 36.457031 7.777344 36.730469 7.757812 37.003906 C 7.554688 36.996094 7.359375 36.996094 7.167969 36.976562 C 6.71875 36.933594 6.28125 36.839844 5.863281 36.667969 C 5.34375 36.457031 5.007812 36.082031 4.914062 35.53125 C 4.800781 34.863281 4.707031 34.191406 4.625 33.519531 C 4.542969 32.863281 4.484375 32.207031 4.417969 31.546875 C 4.414062 31.515625 4.417969 31.484375 4.417969 31.441406 C 4.796875 31.441406 5.164062 31.441406 5.519531 31.441406 C 5.519531 31.65625 5.511719 31.859375 5.523438 32.058594 C 5.53125 32.261719 5.558594 32.464844 5.578125 32.667969 C 5.59375 32.773438 5.628906 32.871094 5.761719 32.875 C 5.863281 32.875 5.9375 32.796875 5.9375 32.636719 C 5.9375 32.316406 5.921875 31.996094 5.910156 31.671875 C 5.910156 31.605469 5.898438 31.539062 5.886719 31.433594 C 6.46875 31.425781 7.039062 31.429688 7.621094 31.429688 C 7.601562 31.753906 7.578125 32.046875 7.574219 32.339844 C 7.570312 32.542969 7.597656 32.746094 7.617188 32.949219 C 7.621094 32.996094 7.636719 33.054688 7.667969 33.089844 C 7.710938 33.132812 7.78125 33.195312 7.828125 33.183594 C 7.886719 33.171875 7.964844 33.097656 7.972656 33.042969 C 8 32.773438 8.023438 32.503906 8.023438 32.234375 C 8.023438 31.980469 7.992188 31.726562 7.976562 31.472656 C 8.148438 31.421875 9.601562 31.40625 9.988281 31.457031 C 9.976562 31.570312 9.972656 31.6875 9.949219 31.796875 C 9.890625 32.085938 9.929688 32.371094 9.960938 32.660156 C 9.984375 32.851562 10.050781 32.941406 10.15625 32.945312 C 10.269531 32.949219 10.359375 32.859375 10.371094 32.675781 C 10.386719 32.390625 10.382812 32.101562 10.378906 31.816406 C 10.378906 31.699219 10.351562 31.582031 10.332031 31.449219 C 10.867188 31.449219 11.386719 31.449219 11.925781 31.449219 C 11.933594 31.5 11.953125 31.546875 11.953125 31.59375 C 11.960938 32.960938 11.890625 34.324219 11.636719 35.667969 Z M 8.230469 22.160156 C 9.394531 22.191406 10.300781 23.128906 10.273438 24.285156 C 10.28125 25.371094 9.363281 26.4375 8.066406 26.390625 C 6.925781 26.347656 6.011719 25.382812 6.039062 24.210938 C 6.066406 23.054688 7.050781 22.132812 8.230469 22.160156 Z M 3.558594 23.066406 C 3.691406 22.410156 3.851562 21.757812 4.097656 21.132812 C 4.460938 20.222656 4.996094 19.445312 5.832031 18.898438 C 6.234375 18.632812 6.664062 18.445312 7.160156 18.441406 C 7.214844 18.441406 7.273438 18.441406 7.363281 18.441406 C 7.421875 19.609375 7.644531 20.734375 8.09375 21.828125 C 6.582031 21.988281 5.871094 23.039062 5.746094 24.039062 C 5.628906 25.015625 6.125 26.035156 7.125 26.523438 C 7.949219 26.929688 9.28125 26.957031 10.285156 25.65625 C 10.769531 26.210938 11.253906 26.761719 11.734375 27.308594 C 11.726562 27.328125 11.726562 27.335938 11.722656 27.34375 C 11.714844 27.351562 11.710938 27.359375 11.703125 27.359375 C 8.980469 27.351562 6.257812 27.34375 3.535156 27.335938 C 3.492188 27.335938 3.453125 27.320312 3.386719 27.308594 C 3.351562 27.007812 3.3125 26.707031 3.289062 26.402344 C 3.199219 25.277344 3.335938 24.167969 3.558594 23.066406 Z M 12.898438 11.675781 C 14.125 11.277344 15.378906 10.980469 16.65625 10.800781 C 18.050781 10.601562 19.445312 10.425781 20.84375 10.257812 C 21.507812 10.179688 22.179688 10.136719 22.847656 10.097656 C 23.8125 10.042969 24.78125 9.988281 25.746094 9.96875 C 26.984375 9.949219 28.222656 10 29.457031 10.121094 C 30.164062 10.1875 30.878906 10.214844 31.585938 10.296875 C 32.824219 10.4375 34.0625 10.601562 35.296875 10.773438 C 36.386719 10.921875 37.464844 11.167969 38.523438 11.46875 C 39.464844 11.730469 40.382812 12.0625 41.210938 12.597656 C 41.277344 12.644531 41.347656 12.691406 41.398438 12.777344 C 41.25 12.726562 41.097656 12.679688 40.949219 12.628906 C 39.191406 12.046875 37.386719 11.648438 35.558594 11.371094 C 34.257812 11.171875 32.953125 10.992188 31.648438 10.867188 C 29.0625 10.613281 26.464844 10.523438 23.867188 10.597656 C 22.636719 10.628906 21.40625 10.671875 20.179688 10.765625 C 18.03125 10.921875 15.898438 11.207031 13.789062 11.671875 C 13.152344 11.8125 12.523438 11.984375 11.890625 12.140625 C 11.835938 12.152344 11.78125 12.160156 11.730469 12.171875 C 11.722656 12.15625 11.71875 12.140625 11.714844 12.125 C 12.109375 11.972656 12.496094 11.804688 12.898438 11.675781 Z M 38.164062 10.703125 C 37.839844 10.628906 37.527344 10.554688 37.21875 10.484375 C 36.097656 10.238281 34.96875 10.058594 33.832031 9.929688 C 33.066406 9.84375 32.300781 9.738281 31.53125 9.675781 C 30.542969 9.59375 29.550781 9.542969 28.5625 9.480469 C 27.976562 9.441406 27.394531 9.410156 26.808594 9.363281 C 26.011719 9.296875 25.214844 9.332031 24.421875 9.390625 C 23.269531 9.472656 22.117188 9.542969 20.96875 9.636719 C 20.148438 9.703125 19.332031 9.789062 18.515625 9.898438 C 17.535156 10.027344 16.550781 10.164062 15.578125 10.347656 C 14.753906 10.503906 13.945312 10.734375 13.128906 10.933594 C 13.035156 10.957031 12.9375 10.984375 12.804688 11.023438 C 13.015625 9.574219 13.300781 8.175781 13.667969 6.792969 C 14.269531 6.703125 14.855469 6.609375 15.441406 6.527344 C 16.296875 6.410156 17.152344 6.289062 18.011719 6.199219 C 18.949219 6.101562 19.886719 6.023438 20.828125 5.96875 C 22.242188 5.890625 23.65625 5.824219 25.070312 5.773438 C 26.53125 5.722656 27.988281 5.726562 29.445312 5.800781 C 31.058594 5.882812 32.652344 6.105469 34.230469 6.441406 C 35.339844 6.679688 36.453125 6.914062 37.5625 7.152344 C 37.636719 7.167969 37.710938 7.1875 37.8125 7.214844 C 37.941406 8.375 38.15625 9.515625 38.164062 10.703125 Z M 12.980469 6.085938 C 13.804688 5.863281 14.632812 5.621094 15.472656 5.414062 C 16.667969 5.117188 17.882812 4.929688 19.101562 4.78125 C 20.535156 4.609375 21.972656 4.511719 23.414062 4.464844 C 24.898438 4.410156 26.382812 4.429688 27.867188 4.496094 C 29.894531 4.589844 31.910156 4.789062 33.914062 5.101562 C 35.480469 5.347656 37.03125 5.667969 38.566406 6.070312 C 38.632812 6.089844 38.695312 6.109375 38.78125 6.132812 C 38.898438 6.9375 39.042969 7.738281 39.089844 8.546875 C 39.132812 9.347656 39.148438 10.148438 39.175781 10.988281 C 38.925781 10.914062 38.707031 10.851562 38.53125 10.800781 C 38.488281 10.207031 38.453125 9.652344 38.398438 9.097656 C 38.355469 8.625 38.292969 8.152344 38.21875 7.683594 C 38.1875 7.476562 38.109375 7.277344 38.058594 7.074219 C 38.023438 6.933594 37.933594 6.859375 37.796875 6.828125 C 37.402344 6.730469 37.011719 6.617188 36.613281 6.535156 C 35.339844 6.277344 34.070312 6.015625 32.796875 5.785156 C 31.71875 5.589844 30.628906 5.488281 29.535156 5.429688 C 28.128906 5.355469 26.71875 5.324219 25.3125 5.386719 C 23.980469 5.449219 22.648438 5.484375 21.320312 5.5625 C 19.6875 5.660156 18.054688 5.789062 16.4375 6.050781 C 15.5 6.207031 14.5625 6.363281 13.628906 6.515625 C 13.523438 6.53125 13.480469 6.59375 13.453125 6.671875 C 13.320312 7.039062 13.167969 7.398438 13.070312 7.777344 C 12.792969 8.875 12.550781 9.988281 12.453125 11.148438 C 12.222656 11.238281 12.003906 11.324219 11.761719 11.417969 C 12.070312 9.617188 12.550781 7.875 12.980469 6.085938 Z M 41.734375 24.214844 C 41.757812 23.058594 42.742188 22.132812 43.917969 22.160156 C 45.085938 22.1875 45.992188 23.125 45.96875 24.28125 C 45.980469 25.367188 45.054688 26.4375 43.765625 26.390625 C 42.621094 26.347656 41.710938 25.386719 41.734375 24.214844 Z M 44.730469 18.449219 C 45.089844 18.429688 45.429688 18.46875 45.753906 18.617188 C 46.570312 18.988281 47.175781 19.582031 47.621094 20.351562 C 48.011719 21.027344 48.242188 21.761719 48.417969 22.515625 C 48.65625 23.542969 48.839844 24.578125 48.832031 25.636719 C 48.828125 26.160156 48.757812 26.683594 48.71875 27.207031 C 48.699219 27.492188 48.519531 27.648438 48.269531 27.730469 C 48.164062 27.761719 48.050781 27.78125 47.945312 27.777344 C 45.535156 27.730469 43.125 27.675781 40.71875 27.625 C 40.539062 27.621094 40.363281 27.621094 40.1875 27.621094 C 40.171875 27.601562 40.160156 27.582031 40.148438 27.5625 C 40.695312 26.933594 41.246094 26.300781 41.8125 25.65625 C 41.871094 25.726562 41.929688 25.792969 41.984375 25.863281 C 43.039062 27.144531 45.015625 27.050781 45.941406 25.667969 C 46.808594 24.375 46.207031 22.546875 44.730469 22.007812 C 44.511719 21.929688 44.277344 21.882812 44.011719 21.8125 C 44.441406 20.75 44.679688 19.628906 44.730469 18.449219 Z M 41.644531 40.851562 C 41.875 40.808594 42.109375 40.761719 42.339844 40.722656 C 42.414062 40.707031 42.488281 40.703125 42.5625 40.691406 C 42.308594 40.949219 42.109375 41.207031 41.988281 41.519531 C 41.941406 41.644531 41.839844 41.644531 41.742188 41.660156 C 41.25 41.730469 40.753906 41.792969 40.261719 41.867188 C 39.96875 41.910156 39.679688 41.960938 39.367188 42.007812 C 39.386719 41.710938 39.515625 41.46875 39.699219 41.257812 C 39.753906 41.199219 39.859375 41.167969 39.949219 41.152344 C 40.511719 41.046875 41.078125 40.949219 41.644531 40.851562 Z M 44.222656 41.148438 C 44.453125 41.476562 44.523438 41.714844 44.539062 42.242188 C 44.585938 42.65625 44.394531 43.042969 44.03125 43.335938 C 43.640625 43.652344 43.253906 43.691406 42.859375 43.359375 C 42.292969 42.890625 41.949219 41.957031 42.601562 41.109375 C 43.058594 40.511719 43.792969 40.53125 44.222656 41.148438 Z M 42.605469 43.738281 C 41.792969 43.78125 40.980469 43.820312 40.167969 43.863281 C 40.160156 43.863281 40.152344 43.863281 40.140625 43.863281 C 39.75 43.863281 39.683594 43.8125 39.542969 43.402344 C 40.402344 43.238281 41.277344 43.21875 42.117188 43.101562 C 42.3125 43.308594 42.5 43.503906 42.691406 43.707031 C 42.660156 43.71875 42.632812 43.738281 42.605469 43.738281 Z M 39.417969 43.167969 C 39.265625 42.886719 39.246094 42.59375 39.304688 42.300781 C 40.167969 42.164062 41.015625 42.027344 41.847656 41.898438 C 41.902344 42.222656 41.953125 42.550781 42.011719 42.902344 C 41.15625 42.941406 40.285156 42.960938 39.417969 43.167969 Z M 33.421875 41.992188 C 33.480469 42.054688 33.539062 42.125 33.613281 42.15625 C 33.671875 42.179688 33.769531 42.171875 33.820312 42.140625 C 33.890625 42.09375 33.882812 42.003906 33.835938 41.933594 C 33.769531 41.84375 33.699219 41.757812 33.628906 41.671875 C 33.515625 41.53125 33.398438 41.386719 33.265625 41.222656 C 33.390625 41.15625 33.496094 41.105469 33.601562 41.050781 C 33.78125 41.3125 33.9375 41.566406 34.113281 41.804688 C 34.289062 42.039062 34.480469 42.265625 34.671875 42.507812 C 34.3125 42.632812 34.035156 42.835938 33.835938 43.148438 C 33.425781 42.683594 33.03125 42.242188 32.621094 41.78125 C 32.714844 41.679688 32.8125 41.578125 32.921875 41.464844 C 33.097656 41.652344 33.257812 41.824219 33.421875 41.992188 Z M 34.21875 41.089844 C 34.542969 41.46875 34.875 41.839844 35.207031 42.21875 C 35.261719 42.28125 35.308594 42.347656 35.390625 42.449219 C 35.21875 42.449219 35.101562 42.449219 34.960938 42.449219 C 34.574219 41.984375 34.175781 41.507812 33.773438 41.023438 C 34.050781 40.894531 34.054688 40.902344 34.21875 41.089844 Z M 35.996094 44.121094 C 35.839844 44.367188 35.628906 44.539062 35.371094 44.664062 C 34.675781 44.996094 33.878906 44.359375 33.933594 43.722656 C 33.910156 43.515625 33.996094 43.332031 34.113281 43.164062 C 34.378906 42.777344 34.777344 42.636719 35.214844 42.640625 C 35.875 42.648438 36.402344 43.492188 35.996094 44.121094 Z M 33.652344 44.011719 C 33.167969 43.417969 32.722656 42.867188 32.269531 42.304688 C 32.351562 42.171875 32.429688 42.042969 32.519531 41.898438 C 32.929688 42.394531 33.324219 42.875 33.71875 43.351562 C 33.699219 43.546875 33.679688 43.75 33.652344 44.011719 Z M 28.484375 43.203125 C 28.726562 43.175781 28.914062 43.234375 29.074219 43.414062 C 29.195312 43.554688 29.308594 43.699219 29.378906 43.875 C 28.847656 43.9375 28.335938 43.996094 27.828125 44.058594 C 27.53125 44.09375 27.238281 44.132812 26.945312 44.15625 C 26.875 44.164062 26.777344 44.152344 26.738281 44.105469 C 26.519531 43.832031 26.257812 43.613281 25.9375 43.441406 C 26.027344 43.425781 26.117188 43.410156 26.207031 43.402344 C 26.96875 43.335938 27.726562 43.277344 28.484375 43.203125 Z M 29.515625 44.144531 C 29.648438 44.402344 29.6875 44.6875 29.640625 45.011719 C 28.757812 45.046875 27.902344 45.226562 27.023438 45.441406 C 27.023438 45.261719 27.035156 45.09375 27.019531 44.933594 C 27.003906 44.765625 26.957031 44.601562 26.921875 44.421875 C 27.773438 44.332031 28.625 44.238281 29.515625 44.144531 Z M 29.453125 45.710938 C 29.417969 45.773438 29.320312 45.8125 29.242188 45.835938 C 28.90625 45.921875 28.570312 46.007812 28.230469 46.078125 C 27.742188 46.183594 27.253906 46.277344 26.761719 46.375 C 26.707031 46.386719 26.652344 46.390625 26.59375 46.394531 C 26.730469 46.148438 26.859375 45.914062 27.003906 45.652344 C 27.828125 45.523438 28.6875 45.386719 29.566406 45.25 C 29.578125 45.441406 29.523438 45.585938 29.453125 45.710938 Z M 26.332031 46.117188 C 26.0625 46.464844 25.738281 46.574219 25.324219 46.417969 C 24.886719 46.253906 24.574219 45.964844 24.449219 45.496094 C 24.335938 45.078125 24.308594 44.664062 24.480469 44.25 C 24.589844 43.992188 24.757812 43.792969 25.023438 43.675781 C 25.335938 43.539062 25.632812 43.605469 25.894531 43.769531 C 26.375 44.074219 26.652344 44.511719 26.667969 45.085938 C 26.65625 45.46875 26.5625 45.8125 26.332031 46.117188 Z M 18.984375 42.234375 C 18.972656 42.246094 18.964844 42.261719 18.957031 42.273438 C 18.8125 42.21875 18.664062 42.164062 18.507812 42.101562 C 18.542969 42.027344 18.574219 41.957031 18.605469 41.890625 C 18.625 41.847656 18.652344 41.804688 18.691406 41.726562 C 18.800781 41.910156 18.890625 42.074219 18.984375 42.234375 Z M 19.277344 43.574219 C 19.277344 44.292969 18.648438 44.984375 17.992188 44.960938 C 17.179688 44.9375 16.605469 44.261719 16.617188 43.632812 C 16.625 43.023438 17.136719 42.324219 17.964844 42.328125 C 18.6875 42.332031 19.277344 42.894531 19.277344 43.574219 Z M 15.75 40.929688 C 15.867188 40.847656 15.996094 40.757812 16.128906 40.664062 C 16.335938 41.316406 16.53125 41.941406 16.742188 42.601562 C 16.640625 42.746094 16.523438 42.910156 16.390625 43.089844 C 16.175781 42.363281 15.964844 41.660156 15.75 40.929688 Z M 17.089844 40.300781 C 17.257812 40.886719 17.429688 41.476562 17.601562 42.074219 C 17.386719 42.175781 17.171875 42.28125 16.953125 42.386719 C 16.75 41.777344 16.546875 41.171875 16.34375 40.558594 C 16.5625 40.410156 16.800781 40.339844 17.089844 40.300781 Z M 18.042969 40.441406 C 18.070312 40.449219 18.09375 40.480469 18.113281 40.507812 C 18.132812 40.53125 18.140625 40.566406 18.152344 40.597656 C 18.238281 40.792969 18.378906 40.980469 18.386719 41.179688 C 18.398438 41.375 18.277344 41.578125 18.214844 41.777344 C 18.183594 41.867188 18.160156 41.953125 18.128906 42.058594 C 18.046875 42.058594 17.96875 42.058594 17.914062 42.058594 C 17.703125 41.46875 17.496094 40.890625 17.28125 40.300781 C 17.566406 40.273438 17.800781 40.375 18.042969 40.441406 Z M 13.582031 41.523438 C 13.820312 41.5 14.011719 41.542969 14.175781 41.726562 C 14.296875 41.867188 14.40625 42.011719 14.488281 42.191406 C 13.734375 42.28125 13.011719 42.367188 12.289062 42.453125 C 12.1875 42.464844 12.085938 42.484375 11.988281 42.480469 C 11.933594 42.480469 11.867188 42.457031 11.835938 42.417969 C 11.621094 42.140625 11.351562 41.933594 10.976562 41.769531 C 11.132812 41.746094 11.234375 41.730469 11.332031 41.722656 C 12.082031 41.65625 12.835938 41.597656 13.582031 41.523438 Z M 14.617188 42.464844 C 14.761719 42.71875 14.78125 43.007812 14.742188 43.328125 C 13.859375 43.367188 12.996094 43.554688 12.15625 43.75 C 12.121094 43.40625 12.089844 43.082031 12.054688 42.738281 C 12.886719 42.648438 13.746094 42.558594 14.617188 42.464844 Z M 14.683594 43.652344 C 14.65625 43.984375 14.488281 44.152344 14.152344 44.21875 C 13.363281 44.367188 12.578125 44.546875 11.792969 44.710938 C 11.769531 44.71875 11.742188 44.714844 11.703125 44.714844 C 11.835938 44.464844 11.964844 44.226562 12.105469 43.972656 C 12.945312 43.863281 13.792969 43.660156 14.675781 43.59375 C 14.679688 43.636719 14.683594 43.644531 14.683594 43.652344 Z M 11.296875 44.597656 C 11.15625 44.742188 10.988281 44.804688 10.789062 44.796875 C 10.3125 44.777344 9.929688 44.5625 9.703125 44.152344 C 9.425781 43.652344 9.359375 43.109375 9.59375 42.5625 C 9.695312 42.316406 9.851562 42.128906 10.09375 42.011719 C 10.417969 41.851562 10.734375 41.917969 11.011719 42.097656 C 11.996094 42.726562 11.960938 43.917969 11.296875 44.597656 Z M 49.753906 29.558594 C 49.65625 29.058594 49.507812 28.570312 49.203125 28.148438 C 49.152344 28.078125 49.128906 28.011719 49.160156 27.914062 C 49.414062 27.113281 49.46875 26.285156 49.445312 25.453125 C 49.417969 24.480469 49.265625 23.527344 49.054688 22.582031 C 48.875 21.777344 48.640625 20.988281 48.242188 20.261719 C 47.777344 19.417969 47.152344 18.734375 46.300781 18.261719 C 45.839844 18.007812 45.355469 17.890625 44.832031 18.023438 C 44.808594 18.027344 44.785156 18.019531 44.730469 18.015625 C 44.730469 17.878906 44.734375 17.746094 44.726562 17.613281 C 44.722656 17.476562 44.707031 17.34375 44.695312 17.207031 C 44.550781 15.457031 43.796875 14.007812 42.523438 12.820312 C 41.730469 12.082031 40.796875 11.574219 39.78125 11.203125 C 39.695312 11.171875 39.609375 11.136719 39.539062 11.109375 C 39.554688 10.78125 39.582031 10.480469 39.582031 10.175781 C 39.59375 9.367188 39.527344 8.566406 39.429688 7.765625 C 39.351562 7.144531 39.253906 6.523438 39.066406 5.925781 C 39.046875 5.855469 38.976562 5.785156 38.914062 5.742188 C 38.855469 5.699219 38.773438 5.6875 38.699219 5.667969 C 37.277344 5.308594 35.839844 5.019531 34.394531 4.78125 C 32.769531 4.511719 31.136719 4.316406 29.492188 4.195312 C 27.589844 4.050781 25.679688 3.980469 23.769531 4.058594 C 22.832031 4.097656 21.890625 4.148438 20.953125 4.226562 C 20.175781 4.289062 19.402344 4.398438 18.628906 4.488281 C 17.429688 4.632812 16.238281 4.796875 15.070312 5.09375 C 14.417969 5.257812 13.777344 5.4375 13.148438 5.675781 C 12.875 5.78125 12.722656 5.953125 12.648438 6.226562 C 12.410156 7.066406 12.144531 7.898438 11.9375 8.746094 C 11.71875 9.648438 11.558594 10.566406 11.378906 11.484375 C 11.355469 11.59375 11.296875 11.636719 11.214844 11.683594 C 10.914062 11.863281 10.605469 12.027344 10.324219 12.226562 C 8.621094 13.441406 7.609375 15.066406 7.40625 17.164062 C 7.378906 17.449219 7.363281 17.734375 7.34375 18.03125 C 7.230469 18.011719 7.132812 17.996094 7.03125 17.980469 C 6.554688 17.914062 6.125 18.070312 5.722656 18.304688 C 4.835938 18.816406 4.199219 19.5625 3.746094 20.472656 C 3.378906 21.207031 3.167969 21.992188 3 22.789062 C 2.671875 24.34375 2.488281 25.90625 2.816406 27.484375 C 2.84375 27.605469 2.808594 27.6875 2.722656 27.777344 C 2.46875 28.039062 2.285156 28.34375 2.242188 28.710938 C 2.175781 29.316406 2.210938 29.925781 2.449219 30.488281 C 2.683594 31.035156 3.089844 31.402344 3.734375 31.402344 C 3.835938 31.402344 3.933594 31.417969 4.050781 31.425781 C 4.050781 31.554688 4.046875 31.671875 4.054688 31.789062 C 4.105469 32.601562 4.144531 33.414062 4.222656 34.222656 C 4.269531 34.710938 4.359375 35.199219 4.464844 35.675781 C 4.605469 36.328125 4.976562 36.824219 5.597656 37.089844 C 5.9375 37.234375 6.296875 37.34375 6.65625 37.433594 C 7.203125 37.570312 7.765625 37.570312 8.328125 37.578125 C 9.1875 37.585938 10.035156 37.511719 10.871094 37.296875 C 11.5 37.132812 11.878906 36.738281 12.054688 36.125 C 12.3125 35.210938 12.402344 34.273438 12.441406 33.335938 C 12.464844 32.785156 12.445312 32.230469 12.445312 31.679688 C 12.445312 31.605469 12.453125 31.535156 12.457031 31.472656 C 15.820312 31.472656 19.164062 31.472656 22.550781 31.472656 C 22.488281 31.5625 22.457031 31.609375 22.421875 31.65625 C 21.839844 32.394531 21.261719 33.140625 20.675781 33.878906 C 20.152344 34.535156 19.566406 35.140625 18.960938 35.722656 C 18.023438 36.625 16.984375 37.40625 15.941406 38.175781 C 14.898438 38.945312 13.921875 39.78125 13.132812 40.816406 C 13.019531 40.964844 12.921875 41.148438 12.769531 41.230469 C 12.617188 41.3125 12.402344 41.28125 12.21875 41.3125 C 11.570312 41.425781 10.914062 41.523438 10.269531 41.667969 C 9.761719 41.78125 9.4375 42.113281 9.285156 42.628906 C 9.136719 43.113281 9.207031 43.578125 9.34375 44.050781 C 9.503906 44.613281 10.257812 45.167969 10.894531 45.117188 C 11.121094 45.101562 11.351562 45.089844 11.578125 45.046875 C 12.25 44.925781 12.925781 44.792969 13.597656 44.660156 C 13.90625 44.597656 14.214844 44.535156 14.511719 44.445312 C 14.636719 44.410156 14.785156 44.332031 14.839844 44.226562 C 15.070312 43.804688 15.214844 43.347656 15.171875 42.863281 C 15.113281 42.234375 14.78125 41.753906 14.296875 41.371094 C 14.117188 41.230469 13.90625 41.171875 13.675781 41.195312 C 13.578125 41.203125 13.476562 41.226562 13.371094 41.164062 C 13.5625 40.96875 13.734375 40.78125 13.914062 40.605469 C 14.335938 40.1875 14.738281 39.742188 15.195312 39.367188 C 15.914062 38.777344 16.675781 38.234375 17.417969 37.667969 C 18.746094 36.65625 19.964844 35.527344 21.023438 34.234375 C 21.714844 33.386719 22.378906 32.515625 23.046875 31.648438 C 23.152344 31.511719 23.261719 31.460938 23.425781 31.464844 C 23.792969 31.476562 24.15625 31.46875 24.523438 31.472656 C 24.574219 31.472656 24.628906 31.484375 24.699219 31.496094 C 24.644531 31.59375 24.605469 31.667969 24.558594 31.738281 C 24.238281 32.207031 23.929688 32.683594 23.589844 33.140625 C 22.628906 34.433594 21.640625 35.707031 20.6875 37.007812 C 19.847656 38.152344 19.148438 39.382812 18.601562 40.699219 C 18.585938 40.730469 18.5625 40.757812 18.519531 40.820312 C 18.457031 40.667969 18.414062 40.550781 18.351562 40.441406 C 18.304688 40.355469 18.246094 40.253906 18.164062 40.214844 C 17.421875 39.84375 16.386719 39.941406 15.738281 40.664062 C 15.582031 40.839844 15.523438 41.027344 15.59375 41.265625 C 15.738281 41.777344 15.863281 42.300781 16 42.816406 C 16.117188 43.246094 16.234375 43.679688 16.363281 44.109375 C 16.628906 45.023438 17.570312 45.429688 18.230469 45.3125 C 19.09375 45.15625 19.746094 44.296875 19.617188 43.429688 C 19.542969 42.929688 19.445312 42.425781 19.1875 41.976562 C 19.097656 41.820312 19.023438 41.65625 18.933594 41.503906 C 18.871094 41.398438 18.867188 41.308594 18.921875 41.199219 C 19.101562 40.832031 19.269531 40.460938 19.445312 40.09375 C 20.179688 38.546875 21.132812 37.136719 22.152344 35.765625 C 23.179688 34.394531 24.257812 33.058594 25.15625 31.59375 C 25.21875 31.492188 25.296875 31.46875 25.410156 31.46875 C 25.96875 31.472656 26.527344 31.472656 27.089844 31.472656 C 27.144531 31.472656 27.203125 31.484375 27.273438 31.488281 C 27.261719 31.558594 27.257812 31.617188 27.242188 31.675781 C 27.109375 32.21875 26.988281 32.765625 26.832031 33.300781 C 26.40625 34.785156 25.992188 36.265625 25.824219 37.808594 C 25.707031 38.867188 25.738281 39.90625 25.976562 40.945312 C 26.125 41.59375 26.417969 42.1875 26.679688 42.796875 C 26.710938 42.871094 26.738281 42.941406 26.777344 43.03125 C 26.628906 43.054688 26.511719 43.066406 26.394531 43.089844 C 25.980469 43.175781 25.5625 43.242188 25.152344 43.347656 C 24.644531 43.480469 24.320312 43.808594 24.175781 44.320312 C 24.035156 44.804688 24.097656 45.269531 24.238281 45.746094 C 24.402344 46.289062 25.144531 46.84375 25.777344 46.800781 C 26.015625 46.785156 26.25 46.765625 26.484375 46.726562 C 27.152344 46.605469 27.816406 46.476562 28.480469 46.34375 C 28.796875 46.28125 29.109375 46.203125 29.421875 46.125 C 29.613281 46.078125 29.753906 45.960938 29.816406 45.761719 C 29.867188 45.59375 29.9375 45.429688 29.980469 45.257812 C 30.207031 44.40625 29.90625 43.570312 29.199219 43.054688 C 29.023438 42.925781 28.828125 42.859375 28.605469 42.875 C 28.308594 42.894531 28.011719 42.910156 27.714844 42.929688 C 27.523438 42.945312 27.332031 42.964844 27.132812 42.984375 C 26.980469 42.539062 26.824219 42.113281 26.691406 41.675781 C 26.378906 40.671875 26.191406 39.652344 26.242188 38.59375 C 26.296875 37.503906 26.488281 36.4375 26.746094 35.382812 C 26.988281 34.40625 27.257812 33.433594 27.507812 32.457031 C 27.585938 32.136719 27.644531 31.8125 27.710938 31.496094 C 28.042969 31.449219 29.167969 31.464844 29.371094 31.527344 C 29.417969 32.269531 29.46875 33.023438 29.515625 33.777344 C 29.566406 34.605469 29.632812 35.433594 29.820312 36.246094 C 30.082031 37.410156 30.5 38.511719 31.214844 39.46875 C 31.644531 40.046875 32.140625 40.570312 32.609375 41.121094 C 32.667969 41.1875 32.726562 41.253906 32.785156 41.316406 C 32.554688 41.582031 32.320312 41.804688 32.203125 42.113281 C 32.144531 42.261719 32.148438 42.378906 32.242188 42.519531 C 32.746094 43.253906 33.292969 43.957031 33.917969 44.59375 C 34.578125 45.261719 35.359375 45.171875 35.957031 44.683594 C 36.574219 44.175781 36.550781 43.433594 36.144531 42.9375 C 35.792969 42.507812 35.40625 42.097656 35.03125 41.6875 C 34.773438 41.40625 34.496094 41.140625 34.238281 40.859375 C 34.136719 40.753906 34.019531 40.722656 33.890625 40.761719 C 33.636719 40.839844 33.386719 40.933594 33.113281 41.023438 C 32.894531 40.765625 32.65625 40.488281 32.429688 40.207031 C 32.066406 39.753906 31.683594 39.320312 31.367188 38.839844 C 30.511719 37.566406 30.109375 36.128906 29.96875 34.609375 C 29.910156 33.996094 29.875 33.375 29.828125 32.757812 C 29.796875 32.34375 29.757812 31.933594 29.722656 31.476562 C 29.824219 31.476562 29.90625 31.476562 29.988281 31.476562 C 30.472656 31.476562 30.957031 31.484375 31.441406 31.46875 C 31.640625 31.460938 31.75 31.527344 31.835938 31.703125 C 32.195312 32.460938 32.570312 33.210938 32.929688 33.972656 C 33.257812 34.660156 33.609375 35.335938 34.054688 35.960938 C 34.808594 37.027344 35.757812 37.894531 36.808594 38.652344 C 37.859375 39.40625 38.980469 40.039062 40.144531 40.597656 C 40.199219 40.625 40.25 40.664062 40.335938 40.71875 C 40.140625 40.765625 39.988281 40.785156 39.851562 40.839844 C 39.695312 40.898438 39.519531 40.960938 39.414062 41.078125 C 38.976562 41.558594 38.785156 42.136719 38.863281 42.785156 C 38.914062 43.175781 39.132812 43.492188 39.332031 43.820312 C 39.511719 44.109375 39.757812 44.21875 40.078125 44.199219 C 40.121094 44.195312 40.164062 44.195312 40.207031 44.195312 C 40.722656 44.167969 41.242188 44.15625 41.757812 44.109375 C 42.347656 44.058594 42.941406 44 43.523438 43.902344 C 44.183594 43.789062 44.601562 43.347656 44.757812 42.722656 C 44.917969 42.082031 44.796875 41.453125 44.386719 40.914062 C 44.191406 40.660156 43.941406 40.464844 43.601562 40.441406 C 43.316406 40.421875 43.027344 40.398438 42.746094 40.417969 C 42.3125 40.441406 41.882812 40.488281 41.453125 40.550781 C 41.222656 40.585938 41.019531 40.550781 40.820312 40.4375 C 40.761719 40.402344 40.699219 40.378906 40.640625 40.34375 C 39.824219 39.863281 38.996094 39.394531 38.191406 38.894531 C 37.683594 38.582031 37.199219 38.242188 36.726562 37.882812 C 35.382812 36.863281 34.339844 35.601562 33.609375 34.082031 C 33.214844 33.265625 32.796875 32.457031 32.390625 31.648438 C 32.363281 31.597656 32.347656 31.546875 32.328125 31.5 C 34.816406 31.5 37.292969 31.5 39.777344 31.5 C 39.78125 31.570312 39.789062 31.621094 39.789062 31.667969 C 39.78125 32 39.75 32.332031 39.765625 32.660156 C 39.804688 33.414062 39.839844 34.167969 39.917969 34.917969 C 39.96875 35.425781 40.070312 35.925781 40.261719 36.402344 C 40.425781 36.820312 40.722656 37.113281 41.148438 37.253906 C 41.382812 37.328125 41.625 37.386719 41.863281 37.4375 C 42.734375 37.617188 43.617188 37.613281 44.5 37.585938 C 45.171875 37.566406 45.828125 37.453125 46.460938 37.199219 C 47.207031 36.894531 47.640625 36.347656 47.796875 35.5625 C 47.992188 34.578125 48.082031 33.585938 48.140625 32.585938 C 48.15625 32.265625 48.167969 31.945312 48.1875 31.605469 C 48.300781 31.597656 48.402344 31.578125 48.5 31.585938 C 48.972656 31.609375 49.300781 31.382812 49.511719 30.988281 C 49.75 30.542969 49.847656 30.058594 49.753906 29.558594 " fill-opacity="1" fill-rule="nonzero"/></g><path fill="#dbbf97" d="M 33.246094 24.847656 C 33.082031 24.875 32.914062 24.925781 32.71875 24.832031 C 32.71875 24.589844 32.710938 24.335938 32.71875 24.085938 C 32.730469 23.824219 32.753906 23.5625 32.777344 23.300781 C 32.824219 22.800781 32.835938 22.300781 32.742188 21.800781 C 33.449219 21.460938 34.128906 21.097656 34.875 20.890625 C 35.121094 20.820312 35.359375 20.742188 35.601562 20.667969 C 35.8125 20.601562 35.863281 20.523438 35.816406 20.308594 C 35.777344 20.128906 35.71875 19.949219 35.667969 19.769531 C 35.660156 19.730469 35.65625 19.691406 35.644531 19.640625 C 36.390625 19.738281 37.097656 19.59375 37.796875 19.4375 C 38.515625 19.28125 39.230469 19.09375 39.945312 18.917969 C 40.089844 18.882812 40.234375 18.835938 40.402344 18.828125 C 40.328125 18.914062 40.257812 19.007812 40.179688 19.09375 C 39.742188 19.578125 39.289062 20.050781 38.867188 20.550781 C 38.652344 20.804688 38.480469 21.101562 38.292969 21.382812 C 38.246094 21.453125 38.21875 21.535156 38.195312 21.617188 C 38.121094 21.871094 38.195312 22.070312 38.417969 22.207031 C 38.542969 22.28125 38.671875 22.339844 38.804688 22.402344 C 39.246094 22.613281 39.691406 22.816406 40.136719 23.027344 C 40.207031 23.058594 40.269531 23.097656 40.335938 23.132812 C 40.335938 23.152344 40.332031 23.167969 40.332031 23.1875 C 39.742188 23.371094 39.15625 23.558594 38.5625 23.734375 C 37.425781 24.078125 36.265625 24.320312 35.097656 24.527344 C 34.480469 24.636719 33.863281 24.746094 33.246094 24.847656 Z M 31.3125 20.902344 C 30.355469 21.082031 29.386719 21.09375 28.425781 20.957031 C 27.402344 20.8125 26.382812 20.625 25.367188 20.449219 C 24.152344 20.242188 22.933594 20.066406 21.699219 20.085938 C 20.496094 20.105469 19.292969 20.191406 18.117188 20.476562 C 17.65625 20.589844 17.210938 20.75 16.734375 20.898438 C 16.777344 20.195312 16.847656 19.515625 17.003906 18.84375 C 17.238281 17.816406 17.609375 16.832031 17.921875 15.828125 C 18.023438 15.5 18.199219 15.347656 18.515625 15.230469 C 19.757812 14.777344 21.046875 14.542969 22.351562 14.367188 C 23.445312 14.21875 24.539062 14.113281 25.644531 14.160156 C 26.558594 14.199219 27.449219 14.359375 28.324219 14.609375 C 29.765625 15.019531 31.234375 15.160156 32.726562 15.019531 C 33.257812 14.96875 33.785156 14.875 34.3125 14.796875 C 34.371094 14.789062 34.425781 14.785156 34.492188 14.78125 C 34.644531 16.617188 34.902344 18.425781 35.414062 20.210938 C 35.339844 20.21875 35.277344 20.230469 35.214844 20.230469 C 34.691406 20.214844 34.183594 20.292969 33.679688 20.410156 C 32.890625 20.585938 32.105469 20.753906 31.3125 20.902344 Z M 17.914062 24.210938 C 16.523438 24.605469 13.445312 24.6875 12.683594 24.335938 C 12.753906 24.265625 12.816406 24.203125 12.875 24.136719 C 13.1875 23.816406 13.507812 23.5 13.804688 23.164062 C 13.929688 23.019531 14.019531 22.835938 14.085938 22.660156 C 14.183594 22.402344 14.113281 22.183594 13.886719 22.035156 C 13.710938 21.921875 13.515625 21.832031 13.320312 21.753906 C 12.765625 21.535156 12.183594 21.417969 11.59375 21.320312 C 13.269531 20.851562 14.886719 20.242188 16.476562 19.453125 C 16.449219 19.683594 16.414062 19.886719 16.402344 20.09375 C 16.378906 20.4375 16.355469 20.785156 16.367188 21.128906 C 16.378906 21.367188 16.414062 21.355469 16.652344 21.375 C 17.125 21.410156 17.601562 21.34375 18.097656 21.476562 C 17.832031 22.378906 17.863281 23.296875 17.914062 24.210938 Z M 40.457031 23.546875 C 40.609375 23.496094 40.757812 23.425781 40.894531 23.34375 C 41.046875 23.257812 41.066406 23.097656 40.945312 22.988281 C 40.871094 22.917969 40.777344 22.867188 40.6875 22.828125 C 40.078125 22.550781 39.46875 22.273438 38.855469 22.003906 C 38.480469 21.835938 38.464844 21.792969 38.652344 21.421875 C 38.84375 21.042969 39.125 20.738281 39.402344 20.429688 C 39.769531 20.015625 40.125 19.597656 40.480469 19.175781 C 40.574219 19.066406 40.644531 18.9375 40.714844 18.8125 C 40.828125 18.597656 40.761719 18.472656 40.519531 18.449219 C 40.394531 18.4375 40.261719 18.441406 40.140625 18.46875 C 39.6875 18.574219 39.238281 18.707031 38.785156 18.808594 C 37.96875 18.996094 37.148438 19.179688 36.324219 19.339844 C 36.089844 19.386719 35.839844 19.347656 35.578125 19.347656 C 35.554688 19.269531 35.53125 19.199219 35.515625 19.125 C 35.3125 18.09375 35.125 17.0625 35.050781 16.007812 C 35.019531 15.582031 34.941406 15.152344 34.859375 14.730469 C 34.808594 14.460938 34.722656 14.40625 34.453125 14.414062 C 34.046875 14.429688 33.636719 14.441406 33.234375 14.484375 C 31.5625 14.671875 29.917969 14.5625 28.296875 14.101562 C 27.355469 13.832031 26.394531 13.671875 25.410156 13.652344 C 24.714844 13.640625 24.023438 13.675781 23.328125 13.75 C 22.300781 13.863281 21.277344 14.019531 20.277344 14.296875 C 19.554688 14.5 18.832031 14.722656 18.109375 14.9375 C 17.917969 14.996094 17.796875 15.117188 17.726562 15.3125 C 17.300781 16.5 16.847656 17.679688 16.589844 18.921875 C 16.5625 19.039062 16.507812 19.09375 16.402344 19.128906 C 16.191406 19.199219 15.984375 19.273438 15.78125 19.355469 C 14.609375 19.824219 13.4375 20.289062 12.234375 20.675781 C 11.863281 20.796875 11.5 20.945312 11.140625 21.089844 C 11.046875 21.125 10.953125 21.175781 10.875 21.242188 C 10.753906 21.34375 10.789062 21.511719 10.941406 21.5625 C 11.011719 21.585938 11.089844 21.585938 11.164062 21.597656 C 11.316406 21.625 11.46875 21.636719 11.613281 21.679688 C 12.035156 21.800781 12.457031 21.929688 12.875 22.070312 C 13.117188 22.148438 13.355469 22.242188 13.589844 22.339844 C 13.757812 22.414062 13.785156 22.476562 13.699219 22.636719 C 13.617188 22.800781 13.515625 22.964844 13.390625 23.101562 C 13.085938 23.429688 12.761719 23.742188 12.449219 24.0625 C 12.378906 24.136719 12.304688 24.210938 12.253906 24.296875 C 12.171875 24.429688 12.195312 24.542969 12.332031 24.621094 C 12.433594 24.679688 12.546875 24.722656 12.664062 24.75 C 13.136719 24.875 13.621094 24.941406 14.117188 24.972656 C 15.488281 25.0625 16.84375 24.914062 18.191406 24.671875 C 18.429688 24.628906 18.429688 24.621094 18.421875 24.375 C 18.410156 24.042969 18.382812 23.710938 18.402344 23.382812 C 18.457031 22.5 18.632812 21.640625 18.972656 20.789062 C 19.8125 20.640625 20.660156 20.585938 21.507812 20.589844 C 22.792969 20.601562 24.0625 20.777344 25.320312 21.011719 C 26.421875 21.21875 27.511719 21.460938 28.628906 21.570312 C 29.503906 21.65625 30.375 21.65625 31.242188 21.515625 C 31.59375 21.460938 31.9375 21.390625 32.3125 21.320312 C 32.328125 21.441406 32.347656 21.558594 32.359375 21.671875 C 32.445312 22.53125 32.332031 23.382812 32.289062 24.238281 C 32.277344 24.464844 32.300781 24.699219 32.351562 24.917969 C 32.410156 25.167969 32.558594 25.261719 32.816406 25.265625 C 32.96875 25.265625 33.121094 25.253906 33.273438 25.230469 C 33.796875 25.144531 34.324219 25.042969 34.851562 24.964844 C 36.066406 24.785156 37.277344 24.574219 38.453125 24.199219 C 39.121094 23.984375 39.789062 23.769531 40.457031 23.546875 " fill-opacity="1" fill-rule="nonzero"/><path fill="#dbbf97" d="M 8.0625 34.046875 C 8.039062 33.988281 7.960938 33.929688 7.898438 33.921875 C 7.859375 33.914062 7.777344 33.988281 7.761719 34.039062 C 7.609375 34.476562 7.652344 34.90625 7.851562 35.320312 C 7.878906 35.375 7.96875 35.425781 8.03125 35.425781 C 8.128906 35.429688 8.171875 35.34375 8.171875 35.25 C 8.175781 35.113281 8.171875 34.976562 8.171875 34.84375 C 8.199219 34.570312 8.171875 34.296875 8.0625 34.046875 " fill-opacity="1" fill-rule="nonzero"/><path fill="#dbbf97" d="M 10.117188 33.8125 C 10.054688 33.828125 9.976562 33.886719 9.957031 33.945312 C 9.902344 34.121094 9.871094 34.304688 9.832031 34.460938 C 9.859375 34.632812 9.878906 34.777344 9.90625 34.914062 C 9.929688 35.015625 10 35.078125 10.105469 35.085938 C 10.207031 35.09375 10.285156 35.035156 10.316406 34.9375 C 10.421875 34.605469 10.425781 34.273438 10.304688 33.945312 C 10.273438 33.859375 10.214844 33.785156 10.117188 33.8125 " fill-opacity="1" fill-rule="nonzero"/><path fill="#dbbf97" d="M 5.742188 33.730469 C 5.699219 33.730469 5.625 33.800781 5.613281 33.851562 C 5.507812 34.242188 5.507812 34.636719 5.621094 35.027344 C 5.652344 35.125 5.710938 35.199219 5.824219 35.183594 C 5.933594 35.167969 5.96875 35.078125 5.976562 34.980469 C 5.984375 34.871094 5.988281 34.757812 5.992188 34.648438 C 6.003906 34.648438 6.015625 34.644531 6.027344 34.644531 C 5.980469 34.378906 5.9375 34.113281 5.878906 33.851562 C 5.867188 33.800781 5.792969 33.734375 5.742188 33.730469 " fill-opacity="1" fill-rule="nonzero"/><path fill="#dbbf97" d="M 44.429688 33.996094 C 44.371094 33.910156 44.277344 33.90625 44.214844 33.984375 C 44.171875 34.035156 44.136719 34.101562 44.125 34.164062 C 44.078125 34.402344 44.042969 34.644531 44.003906 34.886719 C 44.011719 34.886719 44.019531 34.890625 44.027344 34.890625 C 44.039062 35.035156 44.042969 35.179688 44.066406 35.320312 C 44.074219 35.367188 44.128906 35.4375 44.171875 35.441406 C 44.226562 35.449219 44.296875 35.417969 44.347656 35.382812 C 44.386719 35.355469 44.40625 35.300781 44.421875 35.253906 C 44.554688 34.914062 44.574219 34.5625 44.511719 34.203125 C 44.5 34.128906 44.46875 34.054688 44.429688 33.996094 " fill-opacity="1" fill-rule="nonzero"/><path fill="#dbbf97" d="M 42.09375 33.832031 C 42.023438 33.851562 41.941406 33.921875 41.917969 33.984375 C 41.867188 34.144531 41.84375 34.3125 41.8125 34.46875 C 41.84375 34.632812 41.859375 34.785156 41.894531 34.933594 C 41.921875 35.042969 41.996094 35.109375 42.117188 35.109375 C 42.222656 35.105469 42.292969 35.042969 42.320312 34.945312 C 42.402344 34.617188 42.398438 34.289062 42.273438 33.972656 C 42.242188 33.890625 42.1875 33.800781 42.09375 33.832031 " fill-opacity="1" fill-rule="nonzero"/><path fill="#dbbf97" d="M 46.480469 33.75 C 46.429688 33.800781 46.375 33.847656 46.332031 33.902344 C 46.3125 33.925781 46.3125 33.964844 46.304688 33.996094 C 46.226562 34.328125 46.203125 34.660156 46.253906 35 C 46.269531 35.097656 46.28125 35.1875 46.398438 35.203125 C 46.527344 35.21875 46.589844 35.136719 46.609375 35.027344 C 46.644531 34.839844 46.667969 34.648438 46.699219 34.460938 C 46.671875 34.269531 46.65625 34.082031 46.617188 33.902344 C 46.605469 33.84375 46.527344 33.800781 46.480469 33.75 " fill-opacity="1" fill-rule="nonzero"/><path fill="#dbbf97" d="M 8.117188 22.734375 C 8.972656 22.738281 9.652344 23.433594 9.652344 24.304688 C 9.648438 25.160156 8.96875 25.835938 8.113281 25.832031 C 7.261719 25.832031 6.558594 25.121094 6.570312 24.269531 C 6.582031 23.425781 7.277344 22.734375 8.117188 22.734375 Z M 8.144531 26.101562 C 9.132812 26.105469 9.945312 25.300781 9.957031 24.3125 C 9.964844 23.339844 9.140625 22.519531 8.15625 22.515625 C 7.160156 22.515625 6.351562 23.320312 6.351562 24.304688 C 6.351562 25.304688 7.140625 26.097656 8.144531 26.101562 " fill-opacity="1" fill-rule="nonzero"/><path fill="#dbbf97" d="M 43.820312 22.734375 C 44.679688 22.742188 45.347656 23.4375 45.34375 24.3125 C 45.339844 25.164062 44.65625 25.839844 43.796875 25.832031 C 42.957031 25.828125 42.269531 25.132812 42.265625 24.285156 C 42.261719 23.4375 42.972656 22.726562 43.820312 22.734375 Z M 43.839844 26.101562 C 44.828125 26.101562 45.640625 25.300781 45.652344 24.3125 C 45.660156 23.339844 44.835938 22.515625 43.847656 22.515625 C 42.855469 22.515625 42.046875 23.320312 42.046875 24.308594 C 42.042969 25.304688 42.835938 26.097656 43.839844 26.101562 " fill-opacity="1" fill-rule="nonzero"/><path fill="#dbbf97" d="M 25.820312 45.566406 C 25.640625 45.746094 25.386719 45.738281 25.214844 45.554688 C 24.921875 45.230469 24.941406 44.679688 25.253906 44.378906 C 25.5 44.144531 25.792969 44.203125 25.921875 44.519531 C 25.949219 44.589844 25.972656 44.660156 25.988281 44.734375 C 26.007812 44.816406 26.011719 44.902344 26.015625 44.953125 C 26.023438 45.203125 25.980469 45.40625 25.820312 45.566406 Z M 26.132812 44.265625 C 25.859375 43.898438 25.363281 43.894531 25.070312 44.238281 C 24.714844 44.652344 24.6875 45.109375 24.882812 45.589844 C 25.085938 46.089844 25.664062 46.199219 26.050781 45.828125 C 26.277344 45.609375 26.371094 45.335938 26.371094 45.027344 C 26.371094 44.746094 26.300781 44.488281 26.132812 44.265625 " fill-opacity="1" fill-rule="nonzero"/><path fill="#dbbf97" d="M 10.9375 43.875 C 10.757812 44.066406 10.492188 44.0625 10.316406 43.867188 C 10.023438 43.539062 10.046875 42.992188 10.367188 42.695312 C 10.613281 42.460938 10.902344 42.527344 11.027344 42.84375 C 11.0625 42.929688 11.089844 43.019531 11.109375 43.109375 C 11.125 43.183594 11.125 43.261719 11.128906 43.296875 C 11.128906 43.539062 11.078125 43.722656 10.9375 43.875 Z M 11.226562 42.566406 C 10.953125 42.21875 10.457031 42.222656 10.175781 42.554688 C 9.835938 42.960938 9.785156 43.40625 9.976562 43.886719 C 10.1875 44.417969 10.796875 44.53125 11.191406 44.113281 C 11.394531 43.898438 11.472656 43.636719 11.484375 43.320312 C 11.46875 43.0625 11.40625 42.792969 11.226562 42.566406 " fill-opacity="1" fill-rule="nonzero"/><path fill="#dbbf97" d="M 42.871094 41.703125 C 42.921875 41.390625 43.171875 41.269531 43.453125 41.410156 C 43.75 41.5625 43.882812 41.785156 43.894531 42.152344 C 43.875 42.261719 43.875 42.375 43.84375 42.476562 C 43.742188 42.777344 43.445312 42.875 43.195312 42.683594 C 43.105469 42.617188 43.023438 42.519531 42.96875 42.417969 C 42.855469 42.195312 42.828125 41.949219 42.871094 41.703125 Z M 42.597656 42.453125 C 42.699219 42.714844 42.863281 42.925781 43.121094 43.046875 C 43.558594 43.257812 44.015625 43.042969 44.132812 42.574219 C 44.152344 42.484375 44.160156 42.390625 44.171875 42.300781 C 44.1875 41.796875 43.945312 41.441406 43.535156 41.1875 C 43.4375 41.128906 43.3125 41.089844 43.203125 41.09375 C 42.875 41.117188 42.621094 41.351562 42.550781 41.679688 C 42.492188 41.941406 42.503906 42.199219 42.597656 42.453125 " fill-opacity="1" fill-rule="nonzero"/><path fill="#dbbf97" d="M 18.082031 44.386719 C 17.621094 44.464844 17.242188 44.140625 17.246094 43.625 C 17.292969 43.363281 17.304688 43.050781 17.601562 42.839844 C 18.019531 42.550781 18.574219 42.726562 18.730469 43.214844 C 18.898438 43.746094 18.597656 44.292969 18.082031 44.386719 Z M 17.929688 42.484375 C 17.808594 42.496094 17.679688 42.542969 17.578125 42.609375 C 17.269531 42.816406 17.132812 43.128906 17.066406 43.480469 C 16.996094 43.867188 17.136719 44.300781 17.445312 44.492188 C 17.785156 44.699219 18.144531 44.675781 18.484375 44.484375 C 18.863281 44.269531 18.972656 43.90625 18.984375 43.40625 C 19.027344 42.808594 18.480469 42.429688 17.929688 42.484375 " fill-opacity="1" fill-rule="nonzero"/><path fill="#dbbf97" d="M 35.417969 43.03125 C 35.613281 43.132812 35.679688 43.308594 35.675781 43.519531 C 35.675781 43.820312 35.292969 44.242188 34.984375 44.261719 C 34.902344 44.265625 34.792969 44.238281 34.730469 44.183594 C 34.339844 43.847656 34.382812 43.328125 34.792969 43.039062 C 34.972656 42.914062 35.210938 42.925781 35.417969 43.03125 Z M 34.257812 43.671875 C 34.308594 43.839844 34.34375 44.015625 34.421875 44.167969 C 34.535156 44.394531 34.734375 44.527344 35 44.503906 C 35.363281 44.46875 35.761719 44.117188 35.855469 43.761719 C 35.964844 43.34375 35.746094 42.917969 35.371094 42.839844 C 35.242188 42.816406 35.101562 42.839844 34.972656 42.859375 C 34.53125 42.933594 34.292969 43.21875 34.257812 43.671875 " fill-opacity="1" fill-rule="nonzero"/><path fill="#dbbf97" d="M 22.15625 17.03125 C 22.023438 16.976562 21.902344 17.019531 21.804688 17.117188 C 21.644531 17.277344 21.488281 17.441406 21.332031 17.609375 C 21.261719 17.6875 21.203125 17.773438 21.109375 17.886719 C 21.066406 17.734375 21.039062 17.628906 21.007812 17.527344 C 20.957031 17.382812 20.921875 17.234375 20.851562 17.097656 C 20.738281 16.878906 20.496094 16.882812 20.371094 17.097656 C 20.339844 17.15625 20.316406 17.222656 20.296875 17.285156 C 20.074219 17.898438 19.851562 18.507812 19.628906 19.121094 C 19.609375 19.175781 19.582031 19.234375 19.582031 19.289062 C 19.582031 19.433594 19.710938 19.5 19.828125 19.421875 C 19.863281 19.398438 19.890625 19.363281 19.917969 19.332031 C 20.167969 19.070312 20.328125 18.753906 20.457031 18.421875 C 20.503906 18.308594 20.554688 18.195312 20.617188 18.050781 C 20.671875 18.214844 20.707031 18.335938 20.761719 18.449219 C 20.871094 18.667969 21.078125 18.6875 21.230469 18.5 C 21.285156 18.4375 21.324219 18.359375 21.375 18.292969 C 21.5 18.125 21.625 17.960938 21.75 17.792969 C 21.765625 17.804688 21.777344 17.816406 21.792969 17.828125 C 21.753906 18.144531 21.703125 18.464844 21.683594 18.785156 C 21.675781 18.9375 21.714844 19.101562 21.753906 19.253906 C 21.777344 19.347656 21.855469 19.410156 21.964844 19.40625 C 22.074219 19.40625 22.136719 19.335938 22.164062 19.242188 C 22.195312 19.128906 22.21875 19.011719 22.226562 18.894531 C 22.253906 18.53125 22.269531 18.164062 22.292969 17.800781 C 22.300781 17.660156 22.316406 17.515625 22.324219 17.371094 C 22.332031 17.226562 22.300781 17.09375 22.15625 17.03125 " fill-opacity="1" fill-rule="nonzero"/><path fill="#dbbf97" d="M 33.121094 18.585938 C 33.054688 19.109375 32.765625 19.363281 32.1875 19.386719 C 32.203125 18.882812 32.21875 18.378906 32.234375 17.890625 C 32.773438 17.734375 33.183594 18.074219 33.121094 18.585938 Z M 32.378906 17.425781 C 32.265625 17.4375 32.15625 17.4375 32.003906 17.445312 C 31.980469 17.5 31.925781 17.589844 31.917969 17.683594 C 31.859375 18.304688 31.8125 18.929688 31.761719 19.554688 C 31.757812 19.601562 31.757812 19.65625 31.769531 19.703125 C 31.800781 19.851562 31.949219 19.921875 32.050781 19.816406 C 32.144531 19.722656 32.226562 19.75 32.324219 19.761719 C 32.417969 19.769531 32.515625 19.773438 32.605469 19.757812 C 33.058594 19.671875 33.371094 19.425781 33.503906 18.96875 C 33.648438 18.488281 33.542969 18.066406 33.183594 17.71875 C 32.960938 17.5 32.695312 17.394531 32.378906 17.425781 " fill-opacity="1" fill-rule="nonzero"/><path fill="#dbbf97" d="M 27.351562 17.949219 C 27.226562 18.03125 27.089844 18.097656 26.925781 18.078125 C 26.925781 17.863281 26.925781 17.652344 26.925781 17.402344 C 27.089844 17.453125 27.214844 17.472656 27.324219 17.527344 C 27.515625 17.625 27.53125 17.828125 27.351562 17.949219 Z M 27.652344 17.320312 C 27.429688 17.136719 27.179688 17.074219 26.894531 17.144531 C 26.632812 17.207031 26.632812 17.199219 26.597656 17.453125 C 26.527344 17.988281 26.449219 18.527344 26.386719 19.066406 C 26.371094 19.21875 26.390625 19.382812 26.421875 19.539062 C 26.433594 19.59375 26.523438 19.65625 26.585938 19.667969 C 26.617188 19.675781 26.695312 19.59375 26.710938 19.542969 C 26.757812 19.378906 26.78125 19.210938 26.8125 19.046875 C 26.824219 18.980469 26.835938 18.914062 26.859375 18.796875 C 27.039062 19.058594 27.179688 19.269531 27.324219 19.476562 C 27.375 19.550781 27.429688 19.628906 27.496094 19.691406 C 27.570312 19.761719 27.660156 19.78125 27.753906 19.722656 C 27.84375 19.660156 27.871094 19.570312 27.835938 19.476562 C 27.800781 19.382812 27.75 19.292969 27.6875 19.214844 C 27.492188 18.960938 27.289062 18.714844 27.078125 18.453125 C 27.242188 18.394531 27.398438 18.355469 27.542969 18.28125 C 27.945312 18.078125 27.996094 17.609375 27.652344 17.320312 " fill-opacity="1" fill-rule="nonzero"/><path fill="#dbbf97" d="M 25.535156 17.828125 C 25.410156 17.90625 25.261719 17.941406 25.078125 18.011719 C 25.101562 17.789062 25.121094 17.617188 25.140625 17.398438 C 25.289062 17.429688 25.410156 17.429688 25.511719 17.476562 C 25.683594 17.558594 25.695312 17.730469 25.535156 17.828125 Z M 25.902344 17.929688 C 26.164062 17.582031 25.984375 17.121094 25.558594 17.058594 C 25.417969 17.039062 25.269531 17.09375 25.128906 17.082031 C 24.925781 17.0625 24.859375 17.179688 24.820312 17.339844 C 24.703125 17.84375 24.582031 18.34375 24.480469 18.851562 C 24.449219 18.996094 24.464844 19.152344 24.464844 19.304688 C 24.464844 19.40625 24.5 19.492188 24.613281 19.507812 C 24.726562 19.523438 24.78125 19.445312 24.816406 19.351562 C 24.832031 19.304688 24.851562 19.253906 24.863281 19.207031 C 24.90625 19.011719 24.949219 18.816406 25 18.585938 C 25.058594 18.664062 25.09375 18.714844 25.128906 18.769531 C 25.304688 19.019531 25.476562 19.269531 25.65625 19.515625 C 25.695312 19.570312 25.746094 19.625 25.804688 19.648438 C 25.859375 19.667969 25.941406 19.664062 25.988281 19.632812 C 26.019531 19.617188 26.023438 19.527344 26.007812 19.476562 C 25.984375 19.398438 25.941406 19.320312 25.898438 19.253906 C 25.695312 18.949219 25.492188 18.652344 25.273438 18.332031 C 25.519531 18.226562 25.746094 18.132812 25.902344 17.929688 " fill-opacity="1" fill-rule="nonzero"/><path fill="#dbbf97" d="M 23.601562 18.023438 C 23.511719 18.023438 23.441406 18.023438 23.351562 18.023438 C 23.378906 17.84375 23.457031 17.71875 23.601562 17.597656 C 23.601562 17.757812 23.601562 17.890625 23.601562 18.023438 Z M 23.996094 17.503906 C 23.988281 17.390625 23.9375 17.273438 23.882812 17.167969 C 23.773438 16.953125 23.578125 16.925781 23.40625 17.09375 C 23.335938 17.164062 23.265625 17.242188 23.214844 17.332031 C 22.894531 17.890625 22.648438 18.484375 22.511719 19.117188 C 22.496094 19.1875 22.496094 19.269531 22.515625 19.339844 C 22.527344 19.390625 22.585938 19.453125 22.628906 19.457031 C 22.683594 19.460938 22.765625 19.425781 22.792969 19.378906 C 22.84375 19.292969 22.863281 19.191406 22.894531 19.09375 C 22.980469 18.84375 23.070312 18.589844 23.15625 18.328125 C 23.324219 18.351562 23.457031 18.367188 23.609375 18.390625 C 23.609375 18.625 23.605469 18.835938 23.609375 19.046875 C 23.613281 19.125 23.617188 19.199219 23.636719 19.273438 C 23.664062 19.371094 23.734375 19.4375 23.835938 19.441406 C 23.949219 19.445312 24.03125 19.382812 24.0625 19.269531 C 24.082031 19.191406 24.101562 19.105469 24.097656 19.019531 C 24.070312 18.515625 24.039062 18.007812 23.996094 17.503906 " fill-opacity="1" fill-rule="nonzero"/><path fill="#dbbf97" d="M 31.117188 17.425781 C 30.847656 17.40625 30.578125 17.382812 30.308594 17.378906 C 30.183594 17.375 30.082031 17.445312 30.054688 17.582031 C 30.027344 17.722656 29.984375 17.863281 29.96875 18.003906 C 29.933594 18.296875 29.90625 18.59375 29.878906 18.886719 C 29.851562 19.136719 29.816406 19.390625 29.804688 19.644531 C 29.792969 19.871094 29.898438 19.964844 30.125 19.976562 C 30.242188 19.980469 30.359375 20.003906 30.476562 19.996094 C 30.628906 19.988281 30.78125 19.964844 30.925781 19.925781 C 31.03125 19.902344 31.097656 19.8125 31.078125 19.695312 C 31.058594 19.574219 30.96875 19.535156 30.855469 19.53125 C 30.8125 19.527344 30.773438 19.539062 30.730469 19.539062 C 30.582031 19.535156 30.433594 19.53125 30.277344 19.527344 C 30.296875 19.25 30.316406 19.007812 30.335938 18.75 C 30.535156 18.75 30.71875 18.753906 30.902344 18.75 C 31.019531 18.75 31.125 18.726562 31.152344 18.589844 C 31.171875 18.476562 31.089844 18.386719 30.941406 18.347656 C 30.890625 18.335938 30.839844 18.335938 30.789062 18.328125 C 30.640625 18.304688 30.496094 18.28125 30.34375 18.253906 C 30.355469 18.074219 30.367188 17.917969 30.378906 17.75 C 30.4375 17.742188 30.488281 17.738281 30.535156 17.738281 C 30.722656 17.734375 30.910156 17.734375 31.09375 17.726562 C 31.191406 17.726562 31.257812 17.679688 31.257812 17.574219 C 31.257812 17.488281 31.203125 17.433594 31.117188 17.425781 " fill-opacity="1" fill-rule="nonzero"/><path fill="#dbbf97" d="M 24.820312 14.730469 C 24.820312 14.726562 24.824219 14.726562 24.824219 14.722656 C 24.824219 14.722656 24.820312 14.722656 24.816406 14.722656 C 24.816406 14.726562 24.820312 14.726562 24.820312 14.730469 " fill-opacity="1" fill-rule="nonzero"/><path fill="#dbbf97" d="M 24.773438 15.808594 C 24.769531 15.914062 24.796875 16.027344 24.832031 16.128906 C 24.933594 16.421875 25.203125 16.507812 25.433594 16.304688 C 25.554688 16.195312 25.671875 16.054688 25.730469 15.902344 C 25.828125 15.644531 25.882812 15.367188 25.945312 15.097656 C 25.96875 15 25.988281 14.894531 25.976562 14.796875 C 25.96875 14.734375 25.917969 14.652344 25.867188 14.621094 C 25.785156 14.578125 25.71875 14.644531 25.6875 14.71875 C 25.648438 14.828125 25.617188 14.945312 25.585938 15.058594 C 25.519531 15.277344 25.460938 15.496094 25.390625 15.710938 C 25.363281 15.792969 25.34375 15.917969 25.21875 15.898438 C 25.085938 15.878906 25.105469 15.746094 25.097656 15.652344 C 25.089844 15.507812 25.101562 15.363281 25.105469 15.21875 C 25.113281 15.09375 25.132812 14.96875 25.136719 14.839844 C 25.136719 14.738281 25.183594 14.605469 25.039062 14.558594 C 24.90625 14.519531 24.890625 14.660156 24.824219 14.722656 C 24.824219 14.765625 24.824219 14.804688 24.820312 14.847656 C 24.804688 15.167969 24.78125 15.488281 24.773438 15.808594 " fill-opacity="1" fill-rule="nonzero"/><path fill="#dbbf97" d="M 25.898438 16.011719 C 25.886719 16.078125 25.902344 16.167969 25.941406 16.222656 C 26.058594 16.386719 26.21875 16.492188 26.433594 16.472656 C 26.691406 16.453125 26.910156 16.359375 27.089844 16.175781 C 27.296875 15.964844 27.300781 15.65625 27.085938 15.453125 C 26.988281 15.363281 26.863281 15.304688 26.75 15.234375 C 26.671875 15.1875 26.59375 15.148438 26.476562 15.089844 C 26.585938 15.007812 26.652344 14.953125 26.734375 14.890625 C 26.816406 14.984375 26.875 15.070312 26.953125 15.132812 C 26.996094 15.167969 27.085938 15.191406 27.128906 15.167969 C 27.171875 15.144531 27.214844 15.050781 27.203125 15 C 27.183594 14.914062 27.140625 14.820312 27.078125 14.761719 C 26.835938 14.53125 26.566406 14.550781 26.347656 14.800781 C 26.117188 15.0625 26.160156 15.300781 26.464844 15.460938 C 26.550781 15.511719 26.652344 15.542969 26.734375 15.601562 C 26.894531 15.714844 26.894531 15.894531 26.730469 15.996094 C 26.625 16.0625 26.496094 16.121094 26.378906 16.125 C 26.304688 16.125 26.226562 16.019531 26.148438 15.957031 C 26.136719 15.949219 26.125 15.933594 26.109375 15.925781 C 26.019531 15.867188 25.914062 15.898438 25.898438 16.011719 " fill-opacity="1" fill-rule="nonzero"/><path fill="#dbbf97" d="M 29.125 19.203125 C 29.03125 19.269531 28.933594 19.335938 28.800781 19.433594 C 28.777344 19.261719 28.738281 19.128906 28.746094 19 C 28.761719 18.714844 28.800781 18.429688 28.828125 18.144531 C 28.839844 18.019531 28.855469 17.890625 28.84375 17.765625 C 28.839844 17.714844 28.777344 17.648438 28.726562 17.628906 C 28.648438 17.597656 28.574219 17.636719 28.539062 17.71875 C 28.503906 17.8125 28.460938 17.90625 28.445312 18.003906 C 28.390625 18.390625 28.34375 18.773438 28.300781 19.160156 C 28.289062 19.261719 28.292969 19.367188 28.3125 19.464844 C 28.378906 19.824219 28.648438 19.957031 28.96875 19.78125 C 29.109375 19.707031 29.234375 19.601562 29.355469 19.496094 C 29.480469 19.386719 29.503906 19.273438 29.4375 19.191406 C 29.367188 19.101562 29.265625 19.105469 29.125 19.203125 " fill-opacity="1" fill-rule="nonzero"/><path fill="#dbbf97" d="M 24.625 14.511719 C 24.246094 14.539062 23.867188 14.585938 23.488281 14.625 C 23.449219 14.628906 23.40625 14.652344 23.375 14.675781 C 23.308594 14.730469 23.320312 14.828125 23.402344 14.859375 C 23.453125 14.878906 23.515625 14.875 23.574219 14.878906 C 23.714844 14.878906 23.851562 14.878906 24.023438 14.878906 C 23.953125 15.164062 23.910156 15.414062 23.828125 15.652344 C 23.730469 15.941406 23.617188 15.980469 23.335938 15.855469 C 23.320312 15.847656 23.304688 15.832031 23.289062 15.835938 C 23.242188 15.839844 23.175781 15.832031 23.152344 15.863281 C 23.121094 15.898438 23.097656 15.976562 23.117188 16.015625 C 23.175781 16.148438 23.261719 16.261719 23.414062 16.308594 C 23.664062 16.382812 23.953125 16.285156 24.085938 16.03125 C 24.175781 15.863281 24.226562 15.667969 24.265625 15.480469 C 24.304688 15.277344 24.3125 15.066406 24.332031 14.878906 C 24.507812 14.824219 24.664062 14.773438 24.816406 14.722656 C 24.796875 14.535156 24.777344 14.5 24.625 14.511719 " fill-opacity="1" fill-rule="nonzero"/><path fill="#dbbf97" d="M 28.339844 16.019531 C 28.359375 15.726562 28.375 15.433594 28.390625 15.128906 C 28.554688 15.113281 28.695312 15.09375 28.839844 15.082031 C 28.925781 15.078125 28.996094 15.039062 28.988281 14.949219 C 28.984375 14.898438 28.914062 14.851562 28.871094 14.808594 C 28.863281 14.796875 28.84375 14.789062 28.828125 14.785156 C 28.449219 14.699219 28.070312 14.710938 27.691406 14.765625 C 27.597656 14.777344 27.527344 14.847656 27.546875 14.9375 C 27.5625 14.996094 27.636719 15.058594 27.695312 15.082031 C 27.789062 15.113281 27.894531 15.113281 28.027344 15.132812 C 28.019531 15.199219 28.011719 15.25 28.007812 15.296875 C 27.984375 15.632812 27.957031 15.972656 27.9375 16.308594 C 27.933594 16.453125 28.011719 16.542969 28.117188 16.542969 C 28.238281 16.539062 28.296875 16.457031 28.3125 16.347656 C 28.328125 16.238281 28.335938 16.128906 28.339844 16.019531 " fill-opacity="1" fill-rule="nonzero"/><path fill="#dbbf97" d="M 28.460938 17.265625 C 28.457031 17.398438 28.574219 17.515625 28.703125 17.511719 C 28.828125 17.511719 28.945312 17.394531 28.949219 17.269531 C 28.953125 17.140625 28.84375 17.027344 28.710938 17.027344 C 28.585938 17.027344 28.464844 17.140625 28.460938 17.265625 " fill-opacity="1" fill-rule="nonzero"/><path fill="#dbbf97" d="M 17.25 19.832031 C 17.125 19.839844 17.027344 19.949219 17.039062 20.070312 C 17.046875 20.199219 17.15625 20.289062 17.28125 20.273438 C 17.394531 20.261719 17.484375 20.160156 17.484375 20.050781 C 17.480469 19.933594 17.367188 19.824219 17.25 19.832031 " fill-opacity="1" fill-rule="nonzero"/><path fill="#dbbf97" d="M 34.65625 19.847656 C 34.773438 19.855469 34.886719 19.75 34.886719 19.632812 C 34.890625 19.511719 34.785156 19.40625 34.664062 19.410156 C 34.546875 19.410156 34.453125 19.496094 34.445312 19.613281 C 34.4375 19.734375 34.53125 19.84375 34.65625 19.847656 " fill-opacity="1" fill-rule="nonzero"/><path fill="#dbbf97" d="M 33.984375 15.578125 C 34.105469 15.578125 34.203125 15.476562 34.203125 15.351562 C 34.203125 15.238281 34.113281 15.144531 34 15.140625 C 33.878906 15.140625 33.777344 15.242188 33.777344 15.367188 C 33.78125 15.480469 33.871094 15.574219 33.984375 15.578125 " fill-opacity="1" fill-rule="nonzero"/><path fill="#dbbf97" d="M 18.363281 15.605469 C 18.273438 15.585938 18.195312 15.6875 18.203125 15.785156 C 18.207031 15.882812 18.265625 15.9375 18.363281 15.941406 C 18.457031 15.945312 18.53125 15.855469 18.523438 15.710938 C 18.484375 15.6875 18.429688 15.621094 18.363281 15.605469 " fill-opacity="1" fill-rule="nonzero"/></svg>