<svg xmlns="http://www.w3.org/2000/svg" xmlns:xlink="http://www.w3.org/1999/xlink" width="70" zoomAndPan="magnify" viewBox="0 0 52.5 52.499999" height="70" preserveAspectRatio="xMidYMid meet" version="1.0"><defs><clipPath id="062fa1bd2e"><path d="M 4.269531 10.472656 L 48 10.472656 L 48 41.675781 L 4.269531 41.675781 Z M 4.269531 10.472656 " clip-rule="nonzero"/></clipPath></defs><g clip-path="url(#062fa1bd2e)"><path fill="#f5a5b5" d="M 8.925781 10.476562 C 6.355469 10.476562 4.269531 12.558594 4.269531 15.132812 C 4.328125 22.195312 4.269531 29.667969 4.269531 36.863281 C 4.269531 39.34375 6.199219 41.347656 8.636719 41.496094 L 43.269531 41.523438 C 45.75 41.421875 47.730469 39.375 47.730469 36.863281 L 47.730469 14.335938 C 47.355469 12.140625 45.449219 10.476562 43.148438 10.476562 C 31.746094 10.484375 20.332031 10.476562 8.925781 10.476562 Z M 8.855469 12.925781 L 43.292969 12.925781 L 26.632812 29.589844 C 26.328125 29.894531 25.84375 29.894531 25.539062 29.589844 Z M 45.402344 14.117188 L 45.402344 36.695312 C 45.402344 38.039062 44.917969 38.800781 43.949219 39.070312 L 32.210938 27.308594 Z M 6.867188 14.214844 L 19.839844 27.1875 L 7.980469 39.046875 C 7.167969 38.773438 6.886719 38.121094 6.867188 37.230469 Z M 21.492188 28.8125 L 25.539062 32.886719 C 25.84375 33.191406 26.328125 33.191406 26.632812 32.886719 L 30.5625 28.957031 L 40.796875 39.191406 L 11.109375 39.191406 Z M 21.492188 28.8125 " fill-opacity="1" fill-rule="nonzero"/></g></svg>