<svg xmlns="http://www.w3.org/2000/svg" xmlns:xlink="http://www.w3.org/1999/xlink" width="70" zoomAndPan="magnify" viewBox="0 0 52.5 52.499999" height="70" preserveAspectRatio="xMidYMid meet" version="1.0"><defs><clipPath id="6be2a6613f"><path d="M 3.09375 6.273438 L 49 6.273438 L 49 40.449219 L 3.09375 40.449219 Z M 3.09375 6.273438 " clip-rule="nonzero"/></clipPath></defs><path fill="#f5a5b5" d="M 9.589844 22.722656 L 8.6875 21.175781 L 7.789062 22.722656 L 8.6875 24.222656 Z M 9.589844 22.722656 " fill-opacity="1" fill-rule="nonzero"/><path fill="#f5a5b5" d="M 19.777344 19.027344 L 18.929688 17.476562 L 18.03125 19.027344 L 18.929688 20.523438 Z M 19.777344 19.027344 " fill-opacity="1" fill-rule="nonzero"/><path fill="#f5a5b5" d="M 44.203125 22.722656 L 43.304688 21.175781 L 42.40625 22.722656 L 43.304688 24.222656 Z M 44.203125 22.722656 " fill-opacity="1" fill-rule="nonzero"/><path fill="#f5a5b5" d="M 33.964844 19.027344 L 33.066406 17.476562 L 32.214844 19.027344 L 33.066406 20.523438 Z M 33.964844 19.027344 " fill-opacity="1" fill-rule="nonzero"/><g clip-path="url(#6be2a6613f)"><path fill="#f5a5b5" d="M 42.007812 29.117188 L 38.761719 18.375 L 32.617188 26.417969 L 26.820312 14.929688 L 28.570312 11.433594 L 26.023438 6.339844 L 23.425781 11.433594 L 25.171875 14.929688 L 19.378906 26.367188 L 13.335938 18.375 L 10.085938 29.167969 L 3.09375 21.125 L 7.890625 36.308594 L 7.941406 36.410156 L 7.941406 40.105469 L 44.054688 40.105469 L 44.054688 36.410156 L 44.15625 36.160156 L 48.902344 21.125 Z M 42.355469 35.558594 L 38.410156 35.558594 L 41.359375 32.164062 Z M 38.160156 21.625 L 40.859375 30.464844 L 36.960938 34.960938 L 33.414062 27.917969 Z M 35.5625 35.558594 L 27.570312 35.558594 L 32.367188 29.265625 Z M 25.074219 11.433594 L 25.972656 9.683594 L 26.871094 11.433594 L 25.972656 13.230469 Z M 26.023438 16.578125 L 31.617188 27.71875 L 26.023438 35.109375 L 20.429688 27.667969 Z M 10.6875 32.214844 L 13.585938 35.558594 L 9.6875 35.558594 Z M 24.472656 35.558594 L 16.433594 35.558594 L 19.628906 29.167969 Z M 13.933594 21.625 L 18.628906 27.816406 L 15.082031 34.960938 L 11.238281 30.515625 Z M 6.691406 27.617188 L 9.539062 30.863281 L 8.640625 33.761719 Z M 42.554688 38.605469 L 9.4375 38.605469 L 9.4375 37.058594 L 42.554688 37.058594 Z M 43.355469 33.664062 L 42.507812 30.816406 L 45.304688 27.617188 Z M 43.355469 33.664062 " fill-opacity="1" fill-rule="nonzero"/></g></svg>