<svg xmlns="http://www.w3.org/2000/svg" xmlns:xlink="http://www.w3.org/1999/xlink" width="70" zoomAndPan="magnify" viewBox="0 0 52.5 52.499999" height="70" preserveAspectRatio="xMidYMid meet" version="1.0"><defs><clipPath id="4170fb0f77"><path d="M 0.8125 0 L 51.332031 0 L 51.332031 52 L 0.8125 52 Z M 0.8125 0 " clip-rule="nonzero"/></clipPath></defs><g clip-path="url(#4170fb0f77)"><path fill="#c7a27c" d="M 49.582031 8.789062 C 41.222656 -7.574219 17.019531 0.972656 20.078125 17.699219 C 20.15625 18.148438 19.953125 17.261719 16.464844 18.226562 C 15.902344 18.390625 17.003906 16.742188 16.992188 12.949219 C 16.992188 9.300781 17.378906 8.316406 15.832031 8.148438 C 14.398438 7.992188 13.25 7.890625 11.722656 8.410156 C 10.113281 8.96875 9.007812 9.019531 8.398438 9.351562 C 6.207031 10.542969 5.546875 10.957031 4.941406 11.511719 C 4.386719 12.019531 3.320312 12.863281 1.148438 13.816406 C 0.34375 14.171875 1.253906 16.445312 1.167969 17.960938 C 1.066406 19.757812 1.25 20.433594 2.914062 20.867188 C 4.453125 21.265625 9.027344 22.289062 8.480469 22.820312 C -0.5 31.375 2.308594 47.496094 16.140625 51.375 C 28.089844 54.722656 38.980469 44.074219 36.910156 31.613281 C 36.828125 31.109375 38.355469 31.734375 41.414062 30.132812 C 51.71875 24.738281 52.808594 15.101562 49.582031 8.789062 Z M 14.242188 8.953125 C 15.984375 8.5625 16.125 8.929688 16.09375 9.476562 C 16.0625 10.0625 16.09375 10.699219 15.902344 12.433594 C 15.832031 13.054688 15.296875 11.796875 14.097656 9.25 C 14.039062 9.128906 14.109375 8.984375 14.242188 8.953125 Z M 24.480469 23.558594 C 25.71875 25.660156 27.765625 27.375 30.800781 28.667969 C 31.742188 29.070312 32.226562 30.132812 31.78125 30.023438 C 25.160156 28.410156 23.105469 23.402344 23.273438 23.175781 C 23.308594 23.128906 23.609375 23.144531 24.085938 23.265625 C 24.25 23.308594 24.394531 23.414062 24.480469 23.558594 Z M 25.894531 23.941406 C 27.203125 24.570312 28.828125 25.636719 30.34375 27.355469 C 28.40625 26.40625 26.917969 25.265625 25.894531 23.941406 Z M 32.023438 31.007812 C 32.605469 31.128906 33.800781 36.585938 30.875 41.785156 C 25.136719 51.988281 7.957031 46.898438 7.589844 36.832031 C 7.371094 30.792969 11.136719 25.804688 16.070312 23.601562 C 18.15625 22.667969 21.601562 22.449219 21.855469 23.035156 C 23.679688 27.269531 27.523438 30.089844 32.023438 31.007812 Z M 14.109375 20.757812 C 13.941406 19.066406 14.304688 18.011719 13.53125 16.300781 C 13.414062 16.039062 13.480469 16.09375 15.585938 14.335938 C 16.515625 13.558594 14.238281 22.023438 14.109375 20.757812 Z M 13.316406 10.167969 C 14.921875 12.535156 15.265625 12.910156 14.847656 13.324219 C 13.921875 14.25 13.066406 15.40625 12.695312 14.609375 C 11.894531 12.910156 11.886719 12.960938 11.945312 12.851562 C 13.402344 9.996094 13.265625 10.097656 13.316406 10.167969 Z M 12.480469 21.796875 C 11.171875 20.855469 9.667969 19.523438 7.960938 17.800781 C 7.507812 17.351562 8.425781 17.261719 11.976562 16.257812 C 12.933594 15.988281 13.023438 22.191406 12.480469 21.796875 Z M 12.429688 9.683594 C 11.207031 11.996094 11.160156 12.367188 10.703125 12.226562 C 8.667969 11.613281 8.449219 11.539062 7.144531 11.113281 C 6.085938 10.765625 13.105469 8.410156 12.429688 9.683594 Z M 6.234375 14.980469 C 6.765625 12.1875 6.519531 11.453125 7.015625 11.640625 C 10.785156 13.078125 10.695312 12.96875 10.828125 13.25 C 11.632812 14.953125 11.785156 15.125 11.558594 15.1875 L 7.25 16.414062 C 6.515625 16.621094 6.089844 15.746094 6.234375 14.980469 Z M 2.191406 14.269531 C 2.808594 13.628906 3.941406 13.492188 4.445312 13.101562 C 7.082031 10.464844 5.554688 12.257812 5.34375 15.570312 C 2.210938 14.4375 2.019531 14.4375 2.191406 14.269531 Z M 1.992188 18.578125 C 2.199219 17.359375 1.800781 16.503906 1.695312 15.261719 C 1.671875 14.984375 1.9375 15.082031 2.148438 15.148438 C 2.699219 15.328125 4.535156 15.636719 5.945312 17.050781 C 6.214844 17.320312 5.84375 17.339844 2.261719 18.792969 C 2.117188 18.847656 1.96875 18.726562 1.992188 18.578125 Z M 2.871094 19.882812 C 2.332031 19.800781 3.472656 19.453125 6.484375 18.222656 C 6.984375 18.019531 6.753906 18.820312 10.171875 21.507812 C 11.859375 22.804688 6.601562 20.460938 2.871094 19.882812 Z M 35.4375 39.433594 C 32.675781 49.289062 21.855469 53.40625 13.296875 49.175781 C 7.019531 46.074219 2.195312 37.945312 5.582031 29.109375 C 6.1875 27.535156 8.726562 22.773438 10.304688 23.222656 C 11.914062 23.679688 13.261719 23.878906 12.632812 24.355469 C 0.140625 33.925781 8.503906 49.902344 22.382812 48.480469 C 28.601562 47.847656 33.03125 42.542969 33.6875 36.699219 C 34.945312 25.5 24.410156 18.78125 15.261719 22.710938 C 14.460938 23.0625 15.289062 21.382812 15.792969 20.042969 C 16.503906 18.167969 21.910156 19.113281 23.511719 19.390625 C 30.996094 20.6875 38.277344 29.316406 35.4375 39.433594 Z M 25.085938 10.21875 C 27.660156 5.769531 32.25 3.558594 37.339844 4.625 C 49.660156 7.1875 51.679688 24.25 35.855469 27.910156 C 34.996094 28.125 33.832031 20.75 24.230469 18.402344 C 23.335938 18.183594 23.46875 13.019531 25.085938 10.21875 Z M 37.199219 30.363281 C 36.328125 30.472656 36.066406 29.070312 36.582031 28.894531 C 53.671875 24.835938 50.292969 4.15625 35.890625 3.265625 C 28.101562 2.78125 22.859375 8.953125 22.691406 14.972656 C 22.628906 17.222656 22.886719 18.027344 22.585938 18.027344 C 21.804688 18.027344 21.238281 18.128906 21.179688 17.769531 C 20.835938 15.722656 19.363281 8 27.863281 3.25 C 40.144531 -3.617188 52.511719 6.875 49.398438 19.734375 C 48.097656 25.144531 42.132812 29.742188 37.199219 30.363281 Z M 37.199219 30.363281 " fill-opacity="1" fill-rule="nonzero"/></g></svg>