<svg xmlns="http://www.w3.org/2000/svg" xmlns:xlink="http://www.w3.org/1999/xlink" width="200" zoomAndPan="magnify" viewBox="0 0 150 30.000001" height="40" preserveAspectRatio="xMidYMid meet" version="1.0"><defs><clipPath id="512462cb80"><path d="M 106 4.414062 L 117 4.414062 L 117 14 L 106 14 Z M 106 4.414062 " clip-rule="nonzero"/></clipPath><clipPath id="b8767556f7"><path d="M 51 4.414062 L 55 4.414062 L 55 7 L 51 7 Z M 51 4.414062 " clip-rule="nonzero"/></clipPath><clipPath id="13a55cd259"><path d="M 37.273438 7 L 109 7 L 109 24.738281 L 37.273438 24.738281 Z M 37.273438 7 " clip-rule="nonzero"/></clipPath></defs><g clip-path="url(#512462cb80)"><path fill="#6e7f3f" d="M 110.074219 13.609375 L 111.4375 12.457031 L 112.511719 12.558594 C 112.566406 12.566406 112.625 12.5 112.640625 12.414062 C 112.660156 12.316406 112.625 12.222656 112.566406 12.214844 C 112.34375 12.164062 112.121094 12.117188 111.902344 12.066406 L 112.84375 11.273438 L 113.714844 11.359375 C 113.785156 11.375 113.851562 11.300781 113.871094 11.199219 C 113.894531 11.09375 113.851562 10.984375 113.777344 10.976562 C 113.621094 10.941406 113.46875 10.910156 113.316406 10.875 L 114.089844 10.226562 L 116.238281 10.492188 C 116.574219 10.550781 116.886719 10.359375 116.949219 10.085938 C 117.015625 9.785156 116.773438 9.464844 116.40625 9.414062 C 115.699219 9.28125 114.996094 9.148438 114.289062 9.015625 L 113.746094 8.148438 L 114.210938 8.195312 C 114.277344 8.207031 114.347656 8.132812 114.367188 8.035156 C 114.386719 7.925781 114.34375 7.816406 114.269531 7.808594 C 113.984375 7.746094 113.703125 7.6875 113.417969 7.625 L 112.761719 6.582031 L 113.433594 6.644531 C 113.488281 6.65625 113.546875 6.589844 113.5625 6.5 C 113.582031 6.40625 113.546875 6.308594 113.488281 6.300781 C 113.136719 6.226562 112.789062 6.148438 112.4375 6.070312 L 111.484375 4.554688 L 111.246094 4.710938 L 112.109375 8.605469 C 110.949219 8.386719 109.789062 8.167969 108.632812 7.949219 C 108.578125 7.9375 108.53125 7.914062 108.496094 7.875 L 107.816406 7.167969 C 107.753906 7.089844 107.640625 7.058594 107.546875 7.085938 C 107.511719 7.097656 107.484375 7.113281 107.460938 7.132812 C 107.394531 7.195312 107.386719 7.289062 107.425781 7.367188 C 107.636719 7.757812 107.84375 8.152344 108.050781 8.542969 C 108.09375 8.621094 108.078125 8.714844 108.015625 8.777344 L 107.058594 9.710938 C 107.011719 9.753906 106.988281 9.8125 107 9.871094 C 107 9.890625 107.015625 9.976562 107.089844 10.011719 C 107.140625 10.039062 107.195312 10.027344 107.265625 10.011719 C 107.34375 9.996094 107.398438 9.96875 107.433594 9.949219 C 107.804688 9.796875 108.089844 9.679688 108.457031 9.527344 L 111.894531 9.953125 L 109.894531 13.386719 Z M 110.074219 13.609375 " fill-opacity="1" fill-rule="nonzero"/></g><g clip-path="url(#b8767556f7)"><path fill="#6e7f3f" d="M 54.050781 5.523438 C 54.050781 5.671875 54.023438 5.8125 53.964844 5.949219 C 53.910156 6.085938 53.828125 6.207031 53.722656 6.3125 C 53.621094 6.414062 53.5 6.496094 53.363281 6.550781 C 53.226562 6.609375 53.085938 6.636719 52.9375 6.636719 C 52.789062 6.636719 52.648438 6.609375 52.511719 6.550781 C 52.375 6.496094 52.257812 6.414062 52.152344 6.3125 C 52.046875 6.207031 51.96875 6.085938 51.910156 5.949219 C 51.855469 5.8125 51.824219 5.671875 51.824219 5.523438 C 51.824219 5.378906 51.855469 5.234375 51.910156 5.097656 C 51.96875 4.964844 52.046875 4.84375 52.152344 4.738281 C 52.257812 4.632812 52.375 4.554688 52.511719 4.496094 C 52.648438 4.441406 52.789062 4.414062 52.9375 4.414062 C 53.085938 4.414062 53.226562 4.441406 53.363281 4.496094 C 53.5 4.554688 53.621094 4.632812 53.722656 4.738281 C 53.828125 4.84375 53.910156 4.964844 53.964844 5.097656 C 54.023438 5.234375 54.050781 5.378906 54.050781 5.523438 Z M 54.050781 5.523438 " fill-opacity="1" fill-rule="nonzero"/></g><g clip-path="url(#13a55cd259)"><path fill="#6e7f3f" d="M 71.421875 24.609375 C 71.132812 24.609375 70.847656 24.605469 70.574219 24.597656 C 70.4375 24.59375 70.328125 24.480469 70.332031 24.34375 C 70.335938 24.207031 70.449219 24.097656 70.585938 24.101562 C 70.953125 24.113281 71.335938 24.113281 71.714844 24.113281 C 71.714844 24.113281 71.71875 24.113281 71.71875 24.113281 C 71.855469 24.113281 71.964844 24.222656 71.964844 24.359375 C 71.96875 24.496094 71.855469 24.609375 71.71875 24.609375 C 71.621094 24.609375 71.519531 24.609375 71.421875 24.609375 Z M 72.855469 24.582031 C 72.722656 24.582031 72.613281 24.476562 72.609375 24.34375 C 72.601562 24.207031 72.710938 24.089844 72.847656 24.085938 C 73.210938 24.074219 73.589844 24.054688 73.976562 24.03125 C 74.113281 24.023438 74.234375 24.128906 74.242188 24.265625 C 74.25 24.402344 74.144531 24.519531 74.007812 24.527344 C 73.617188 24.550781 73.230469 24.570312 72.867188 24.582031 C 72.863281 24.582031 72.859375 24.582031 72.855469 24.582031 Z M 69.441406 24.550781 C 69.4375 24.550781 69.433594 24.550781 69.425781 24.546875 C 69.039062 24.523438 68.652344 24.492188 68.28125 24.449219 C 68.144531 24.433594 68.046875 24.3125 68.0625 24.175781 C 68.078125 24.039062 68.199219 23.941406 68.335938 23.957031 C 68.699219 23.996094 69.078125 24.027344 69.457031 24.054688 C 69.59375 24.0625 69.699219 24.179688 69.691406 24.316406 C 69.683594 24.449219 69.574219 24.550781 69.441406 24.550781 Z M 75.128906 24.449219 C 75 24.449219 74.890625 24.351562 74.878906 24.222656 C 74.871094 24.085938 74.972656 23.964844 75.109375 23.953125 C 75.496094 23.921875 75.875 23.886719 76.234375 23.847656 C 76.371094 23.832031 76.492188 23.933594 76.507812 24.070312 C 76.523438 24.203125 76.425781 24.328125 76.289062 24.34375 C 75.925781 24.382812 75.539062 24.417969 75.148438 24.449219 C 75.140625 24.449219 75.132812 24.449219 75.128906 24.449219 Z M 67.179688 24.300781 C 67.167969 24.300781 67.15625 24.300781 67.140625 24.296875 C 66.863281 24.253906 66.585938 24.203125 66.3125 24.148438 C 66.210938 24.128906 66.109375 24.105469 66.011719 24.085938 C 65.875 24.058594 65.792969 23.925781 65.820312 23.789062 C 65.847656 23.65625 65.980469 23.570312 66.117188 23.601562 C 66.214844 23.621094 66.3125 23.640625 66.410156 23.660156 C 66.675781 23.714844 66.949219 23.765625 67.21875 23.808594 C 67.355469 23.828125 67.449219 23.957031 67.425781 24.089844 C 67.40625 24.214844 67.300781 24.300781 67.179688 24.300781 Z M 77.390625 24.203125 C 77.269531 24.203125 77.164062 24.113281 77.144531 23.988281 C 77.125 23.855469 77.21875 23.726562 77.355469 23.710938 C 77.738281 23.65625 78.113281 23.59375 78.46875 23.53125 C 78.605469 23.507812 78.734375 23.59375 78.757812 23.730469 C 78.785156 23.863281 78.695312 23.996094 78.558594 24.019531 C 78.195312 24.085938 77.8125 24.144531 77.425781 24.199219 C 77.414062 24.203125 77.402344 24.203125 77.390625 24.203125 Z M 40.9375 23.898438 C 40.804688 23.898438 40.691406 23.789062 40.691406 23.652344 C 40.6875 23.515625 40.796875 23.402344 40.933594 23.398438 C 41.28125 23.394531 41.640625 23.34375 42.003906 23.253906 C 42.136719 23.222656 42.269531 23.300781 42.304688 23.433594 C 42.335938 23.566406 42.257812 23.703125 42.125 23.734375 C 41.722656 23.835938 41.324219 23.890625 40.941406 23.898438 C 40.941406 23.898438 40.941406 23.898438 40.9375 23.898438 Z M 64.957031 23.820312 C 64.9375 23.820312 64.914062 23.820312 64.894531 23.8125 C 64.527344 23.714844 64.15625 23.601562 63.792969 23.484375 C 63.660156 23.441406 63.589844 23.300781 63.632812 23.167969 C 63.675781 23.039062 63.816406 22.96875 63.945312 23.011719 C 64.304688 23.128906 64.667969 23.238281 65.023438 23.332031 C 65.15625 23.371094 65.234375 23.507812 65.195312 23.640625 C 65.167969 23.75 65.066406 23.820312 64.957031 23.820312 Z M 79.628906 23.792969 C 79.515625 23.792969 79.414062 23.714844 79.386719 23.601562 C 79.355469 23.46875 79.441406 23.335938 79.574219 23.304688 C 79.945312 23.21875 80.3125 23.125 80.664062 23.023438 C 80.796875 22.984375 80.933594 23.0625 80.96875 23.195312 C 81.007812 23.324219 80.933594 23.464844 80.800781 23.5 C 80.441406 23.605469 80.066406 23.699219 79.683594 23.789062 C 79.667969 23.792969 79.648438 23.792969 79.628906 23.792969 Z M 39.816406 23.746094 C 39.792969 23.746094 39.769531 23.742188 39.742188 23.738281 C 39.351562 23.621094 38.984375 23.445312 38.652344 23.21875 C 38.539062 23.140625 38.507812 22.984375 38.585938 22.871094 C 38.664062 22.757812 38.816406 22.730469 38.929688 22.808594 C 39.222656 23.003906 39.542969 23.160156 39.886719 23.261719 C 40.015625 23.300781 40.09375 23.4375 40.050781 23.570312 C 40.019531 23.675781 39.921875 23.746094 39.816406 23.746094 Z M 43.136719 23.367188 C 43.042969 23.367188 42.949219 23.3125 42.910156 23.222656 C 42.855469 23.097656 42.910156 22.949219 43.035156 22.894531 C 43.351562 22.753906 43.679688 22.582031 44.019531 22.382812 C 44.136719 22.3125 44.289062 22.351562 44.359375 22.46875 C 44.429688 22.585938 44.390625 22.738281 44.273438 22.808594 C 43.917969 23.019531 43.570312 23.199219 43.238281 23.347656 C 43.203125 23.363281 43.171875 23.367188 43.136719 23.367188 Z M 81.816406 23.164062 C 81.714844 23.164062 81.617188 23.101562 81.582031 23 C 81.535156 22.871094 81.605469 22.730469 81.734375 22.683594 C 82.089844 22.558594 82.441406 22.421875 82.777344 22.277344 C 82.902344 22.222656 83.050781 22.28125 83.101562 22.40625 C 83.15625 22.53125 83.097656 22.675781 82.972656 22.730469 C 82.628906 22.878906 82.265625 23.023438 81.898438 23.152344 C 81.871094 23.160156 81.84375 23.164062 81.816406 23.164062 Z M 62.796875 23.117188 C 62.769531 23.117188 62.738281 23.109375 62.707031 23.097656 C 62.359375 22.964844 62 22.820312 61.644531 22.667969 C 61.519531 22.613281 61.460938 22.464844 61.515625 22.339844 C 61.570312 22.214844 61.714844 22.15625 61.84375 22.210938 C 62.191406 22.363281 62.542969 22.503906 62.886719 22.636719 C 63.015625 22.683594 63.078125 22.828125 63.03125 22.957031 C 62.992188 23.054688 62.898438 23.117188 62.796875 23.117188 Z M 37.976562 22.472656 C 37.898438 22.472656 37.824219 22.4375 37.773438 22.367188 C 37.523438 22.011719 37.363281 21.628906 37.300781 21.222656 C 37.277344 21.085938 37.371094 20.960938 37.503906 20.9375 C 37.640625 20.917969 37.765625 21.007812 37.789062 21.144531 C 37.84375 21.472656 37.972656 21.789062 38.179688 22.082031 C 38.261719 22.191406 38.234375 22.347656 38.121094 22.425781 C 38.078125 22.457031 38.027344 22.472656 37.976562 22.472656 Z M 83.902344 22.265625 C 83.8125 22.265625 83.726562 22.214844 83.683594 22.128906 C 83.621094 22.007812 83.667969 21.859375 83.789062 21.796875 C 83.824219 21.777344 83.863281 21.757812 83.898438 21.738281 C 84.183594 21.585938 84.472656 21.417969 84.761719 21.242188 C 84.878906 21.167969 85.03125 21.203125 85.101562 21.320312 C 85.175781 21.4375 85.136719 21.589844 85.023438 21.664062 C 84.726562 21.847656 84.425781 22.019531 84.132812 22.175781 C 84.09375 22.195312 84.054688 22.214844 84.019531 22.234375 C 83.980469 22.253906 83.941406 22.265625 83.902344 22.265625 Z M 45.097656 22.222656 C 45.019531 22.222656 44.945312 22.183594 44.894531 22.117188 C 44.816406 22.003906 44.84375 21.847656 44.957031 21.769531 C 45.257812 21.554688 45.558594 21.328125 45.851562 21.09375 C 45.957031 21.007812 46.113281 21.023438 46.199219 21.132812 C 46.285156 21.238281 46.269531 21.394531 46.164062 21.480469 C 45.863281 21.722656 45.554688 21.957031 45.242188 22.175781 C 45.199219 22.207031 45.148438 22.222656 45.097656 22.222656 Z M 60.707031 22.214844 C 60.671875 22.214844 60.636719 22.207031 60.601562 22.191406 C 60.265625 22.027344 59.917969 21.855469 59.574219 21.675781 C 59.453125 21.609375 59.40625 21.460938 59.472656 21.339844 C 59.535156 21.21875 59.683594 21.171875 59.808594 21.234375 C 60.144531 21.414062 60.484375 21.582031 60.816406 21.742188 C 60.9375 21.800781 60.992188 21.949219 60.933594 22.074219 C 60.890625 22.164062 60.800781 22.214844 60.707031 22.214844 Z M 58.691406 21.15625 C 58.652344 21.15625 58.609375 21.148438 58.570312 21.125 C 58.246094 20.941406 57.914062 20.746094 57.582031 20.546875 C 57.464844 20.476562 57.425781 20.320312 57.496094 20.203125 C 57.566406 20.085938 57.722656 20.050781 57.839844 20.121094 C 58.167969 20.320312 58.496094 20.511719 58.816406 20.691406 C 58.933594 20.761719 58.976562 20.914062 58.90625 21.03125 C 58.863281 21.113281 58.777344 21.15625 58.691406 21.15625 Z M 85.839844 21.070312 C 85.761719 21.070312 85.683594 21.035156 85.636719 20.964844 C 85.558594 20.855469 85.582031 20.699219 85.695312 20.621094 C 85.988281 20.414062 86.292969 20.1875 86.597656 19.945312 C 86.703125 19.859375 86.859375 19.878906 86.945312 19.988281 C 87.03125 20.09375 87.011719 20.25 86.902344 20.335938 C 86.59375 20.582031 86.28125 20.8125 85.984375 21.023438 C 85.9375 21.054688 85.890625 21.070312 85.839844 21.070312 Z M 46.867188 20.792969 C 46.800781 20.792969 46.734375 20.765625 46.6875 20.710938 C 46.59375 20.613281 46.597656 20.453125 46.699219 20.363281 C 46.972656 20.109375 47.246094 19.847656 47.503906 19.578125 C 47.597656 19.480469 47.757812 19.476562 47.855469 19.570312 C 47.953125 19.667969 47.957031 19.824219 47.863281 19.921875 C 47.59375 20.199219 47.316406 20.46875 47.035156 20.726562 C 46.988281 20.773438 46.929688 20.792969 46.867188 20.792969 Z M 37.632812 20.308594 C 37.605469 20.308594 37.582031 20.304688 37.558594 20.296875 C 37.425781 20.253906 37.351562 20.117188 37.394531 19.984375 C 37.507812 19.609375 37.703125 19.246094 37.964844 18.90625 C 38.046875 18.796875 38.203125 18.777344 38.3125 18.863281 C 38.421875 18.945312 38.441406 19.101562 38.355469 19.210938 C 38.132812 19.503906 37.964844 19.8125 37.867188 20.132812 C 37.835938 20.238281 37.738281 20.308594 37.632812 20.308594 Z M 56.742188 19.980469 C 56.695312 19.980469 56.652344 19.96875 56.609375 19.941406 C 56.296875 19.742188 55.976562 19.53125 55.652344 19.316406 C 55.539062 19.238281 55.507812 19.085938 55.582031 18.972656 C 55.660156 18.855469 55.8125 18.824219 55.925781 18.902344 C 56.25 19.117188 56.570312 19.324219 56.875 19.523438 C 56.992188 19.597656 57.027344 19.75 56.953125 19.863281 C 56.90625 19.9375 56.824219 19.980469 56.742188 19.980469 Z M 87.632812 19.667969 C 87.5625 19.667969 87.492188 19.636719 87.441406 19.578125 C 87.351562 19.476562 87.367188 19.320312 87.46875 19.230469 C 87.738281 19.003906 88.015625 18.757812 88.320312 18.484375 C 88.425781 18.394531 88.582031 18.402344 88.671875 18.503906 C 88.765625 18.605469 88.753906 18.765625 88.652344 18.855469 C 88.34375 19.132812 88.0625 19.378906 87.792969 19.609375 C 87.746094 19.648438 87.6875 19.667969 87.632812 19.667969 Z M 48.445312 19.15625 C 48.390625 19.15625 48.332031 19.136719 48.285156 19.09375 C 48.179688 19.007812 48.167969 18.851562 48.257812 18.746094 C 48.5 18.460938 48.734375 18.167969 48.960938 17.867188 C 49.042969 17.757812 49.195312 17.738281 49.308594 17.820312 C 49.417969 17.902344 49.4375 18.058594 49.355469 18.167969 C 49.125 18.472656 48.882812 18.777344 48.636719 19.066406 C 48.585938 19.125 48.515625 19.15625 48.445312 19.15625 Z M 54.847656 18.714844 C 54.796875 18.714844 54.75 18.703125 54.707031 18.671875 C 54.410156 18.464844 54.09375 18.246094 53.773438 18.015625 C 53.660156 17.9375 53.632812 17.78125 53.714844 17.667969 C 53.792969 17.558594 53.949219 17.53125 54.058594 17.609375 C 54.378906 17.839844 54.691406 18.058594 54.988281 18.265625 C 55.101562 18.34375 55.128906 18.496094 55.050781 18.609375 C 55.003906 18.679688 54.925781 18.714844 54.847656 18.714844 Z M 38.980469 18.519531 C 38.902344 18.519531 38.824219 18.484375 38.777344 18.417969 C 38.695312 18.304688 38.722656 18.152344 38.832031 18.070312 C 38.878906 18.039062 38.921875 18.007812 38.964844 17.980469 C 39.242188 17.796875 39.539062 17.640625 39.875 17.496094 C 40.003906 17.441406 40.148438 17.5 40.203125 17.628906 C 40.257812 17.753906 40.195312 17.898438 40.070312 17.953125 C 39.761719 18.085938 39.492188 18.230469 39.238281 18.394531 C 39.199219 18.421875 39.160156 18.445312 39.125 18.472656 C 39.078125 18.507812 39.027344 18.519531 38.980469 18.519531 Z M 89.328125 18.152344 C 89.261719 18.152344 89.195312 18.125 89.148438 18.074219 C 89.054688 17.972656 89.058594 17.816406 89.160156 17.722656 C 89.378906 17.523438 89.597656 17.320312 89.808594 17.121094 L 89.996094 16.949219 C 90.097656 16.855469 90.253906 16.859375 90.347656 16.960938 C 90.441406 17.0625 90.433594 17.21875 90.332031 17.3125 L 90.148438 17.484375 C 89.933594 17.683594 89.714844 17.886719 89.5 18.085938 C 89.449219 18.128906 89.390625 18.152344 89.328125 18.152344 Z M 41.050781 17.609375 C 40.941406 17.609375 40.839844 17.535156 40.8125 17.425781 C 40.777344 17.292969 40.855469 17.15625 40.984375 17.121094 C 41.378906 17.015625 41.773438 16.929688 42.109375 16.859375 C 42.242188 16.832031 42.375 16.917969 42.402344 17.050781 C 42.429688 17.1875 42.34375 17.316406 42.210938 17.34375 C 41.882812 17.414062 41.496094 17.496094 41.117188 17.601562 C 41.09375 17.605469 41.070312 17.609375 41.050781 17.609375 Z M 52.992188 17.394531 C 52.941406 17.394531 52.890625 17.382812 52.84375 17.347656 C 52.5625 17.140625 52.261719 16.921875 51.925781 16.675781 C 51.816406 16.59375 51.792969 16.4375 51.871094 16.328125 C 51.953125 16.21875 52.109375 16.195312 52.21875 16.273438 C 52.554688 16.519531 52.855469 16.742188 53.136719 16.945312 C 53.25 17.027344 53.273438 17.183594 53.191406 17.292969 C 53.144531 17.359375 53.066406 17.394531 52.992188 17.394531 Z M 49.8125 17.335938 C 49.765625 17.335938 49.71875 17.324219 49.675781 17.296875 C 49.5625 17.21875 49.53125 17.066406 49.605469 16.953125 C 49.8125 16.640625 50.011719 16.320312 50.199219 15.996094 C 50.269531 15.878906 50.421875 15.835938 50.539062 15.90625 C 50.65625 15.976562 50.699219 16.128906 50.628906 16.246094 C 50.4375 16.578125 50.234375 16.90625 50.023438 17.226562 C 49.972656 17.296875 49.894531 17.335938 49.8125 17.335938 Z M 41.261719 16.910156 C 41.226562 16.910156 41.191406 16.902344 41.160156 16.886719 C 40.761719 16.703125 40.421875 16.527344 40.125 16.347656 C 40.007812 16.277344 39.96875 16.125 40.039062 16.007812 C 40.109375 15.890625 40.261719 15.851562 40.382812 15.921875 C 40.664062 16.089844 40.984375 16.257812 41.367188 16.4375 C 41.492188 16.492188 41.546875 16.640625 41.488281 16.765625 C 41.445312 16.855469 41.355469 16.910156 41.261719 16.910156 Z M 91 16.605469 C 90.933594 16.605469 90.867188 16.578125 90.816406 16.527344 C 90.726562 16.425781 90.734375 16.269531 90.832031 16.175781 C 90.890625 16.125 90.945312 16.074219 91.003906 16.023438 C 91.230469 15.816406 91.460938 15.609375 91.6875 15.414062 C 91.789062 15.324219 91.945312 15.332031 92.035156 15.4375 C 92.125 15.539062 92.117188 15.699219 92.011719 15.789062 C 91.789062 15.984375 91.5625 16.1875 91.335938 16.390625 C 91.28125 16.441406 91.222656 16.492188 91.167969 16.542969 C 91.121094 16.585938 91.0625 16.605469 91 16.605469 Z M 51.15625 16.046875 C 51.105469 16.046875 51.054688 16.03125 51.007812 15.996094 L 50.59375 15.6875 C 50.425781 15.566406 50.261719 15.441406 50.097656 15.320312 C 49.984375 15.238281 49.960938 15.082031 50.042969 14.972656 C 50.125 14.863281 50.28125 14.839844 50.390625 14.921875 C 50.496094 15 50.605469 15.078125 50.710938 15.15625 C 50.703125 15.109375 50.710938 15.058594 50.734375 15.007812 C 50.902344 14.675781 51.0625 14.332031 51.210938 13.992188 C 51.265625 13.867188 51.410156 13.808594 51.535156 13.863281 C 51.660156 13.917969 51.71875 14.0625 51.664062 14.1875 C 51.515625 14.539062 51.351562 14.890625 51.175781 15.234375 C 51.140625 15.308594 51.070312 15.355469 50.992188 15.367188 L 51.304688 15.597656 C 51.414062 15.679688 51.4375 15.835938 51.355469 15.945312 C 51.308594 16.011719 51.234375 16.046875 51.15625 16.046875 Z M 39.332031 15.71875 C 39.273438 15.71875 39.214844 15.699219 39.167969 15.65625 C 39.113281 15.609375 39.0625 15.5625 39.011719 15.515625 C 38.773438 15.285156 38.558594 15.03125 38.378906 14.753906 C 38.304688 14.636719 38.335938 14.484375 38.449219 14.410156 C 38.566406 14.332031 38.71875 14.367188 38.792969 14.480469 C 38.953125 14.726562 39.144531 14.953125 39.355469 15.15625 C 39.398438 15.199219 39.449219 15.242188 39.496094 15.285156 C 39.597656 15.375 39.609375 15.535156 39.519531 15.636719 C 39.46875 15.691406 39.402344 15.71875 39.332031 15.71875 Z M 92.714844 15.109375 C 92.644531 15.109375 92.574219 15.082031 92.523438 15.019531 C 92.4375 14.914062 92.449219 14.757812 92.558594 14.671875 C 92.851562 14.425781 93.152344 14.183594 93.445312 13.953125 C 93.554688 13.867188 93.710938 13.886719 93.796875 13.992188 C 93.878906 14.101562 93.863281 14.257812 93.753906 14.339844 C 93.464844 14.570312 93.167969 14.808594 92.875 15.054688 C 92.828125 15.089844 92.773438 15.109375 92.714844 15.109375 Z M 49.328125 14.691406 C 49.277344 14.691406 49.226562 14.675781 49.179688 14.644531 C 48.847656 14.398438 48.550781 14.179688 48.265625 13.972656 C 48.152344 13.890625 48.128906 13.734375 48.210938 13.625 C 48.289062 13.515625 48.445312 13.488281 48.554688 13.570312 C 48.839844 13.777344 49.140625 13.996094 49.476562 14.242188 C 49.585938 14.324219 49.609375 14.480469 49.527344 14.589844 C 49.480469 14.65625 49.40625 14.691406 49.328125 14.691406 Z M 38.117188 13.832031 C 38.007812 13.832031 37.90625 13.761719 37.875 13.648438 C 37.800781 13.375 37.765625 13.101562 37.765625 12.832031 C 37.765625 12.695312 37.773438 12.554688 37.792969 12.421875 C 37.816406 12.285156 37.941406 12.191406 38.078125 12.210938 C 38.210938 12.234375 38.304688 12.359375 38.285156 12.496094 C 38.269531 12.605469 38.261719 12.71875 38.261719 12.832031 C 38.261719 13.054688 38.292969 13.289062 38.355469 13.519531 C 38.390625 13.652344 38.3125 13.789062 38.179688 13.824219 C 38.160156 13.832031 38.136719 13.832031 38.117188 13.832031 Z M 94.503906 13.703125 C 94.429688 13.703125 94.355469 13.667969 94.304688 13.601562 C 94.222656 13.492188 94.246094 13.335938 94.355469 13.257812 C 94.667969 13.027344 94.980469 12.800781 95.289062 12.589844 C 95.402344 12.511719 95.554688 12.539062 95.632812 12.652344 C 95.710938 12.765625 95.683594 12.917969 95.570312 12.996094 C 95.269531 13.207031 94.957031 13.429688 94.652344 13.65625 C 94.609375 13.6875 94.558594 13.703125 94.503906 13.703125 Z M 47.484375 13.355469 C 47.4375 13.355469 47.386719 13.339844 47.34375 13.308594 C 47.023438 13.082031 46.710938 12.863281 46.414062 12.660156 C 46.300781 12.582031 46.273438 12.425781 46.351562 12.3125 C 46.429688 12.199219 46.582031 12.171875 46.695312 12.25 C 46.996094 12.457031 47.308594 12.675781 47.628906 12.90625 C 47.742188 12.984375 47.769531 13.140625 47.6875 13.25 C 47.640625 13.320312 47.5625 13.355469 47.484375 13.355469 Z M 51.855469 13.28125 C 51.828125 13.28125 51.800781 13.273438 51.773438 13.265625 C 51.644531 13.21875 51.574219 13.074219 51.621094 12.945312 C 51.75 12.597656 51.867188 12.238281 51.972656 11.878906 C 52.011719 11.75 52.148438 11.671875 52.28125 11.710938 C 52.414062 11.75 52.488281 11.890625 52.449219 12.019531 C 52.339844 12.386719 52.21875 12.753906 52.089844 13.117188 C 52.054688 13.21875 51.957031 13.28125 51.855469 13.28125 Z M 96.378906 12.410156 C 96.296875 12.410156 96.214844 12.367188 96.167969 12.292969 C 96.09375 12.179688 96.128906 12.027344 96.242188 11.953125 C 96.566406 11.742188 96.898438 11.539062 97.21875 11.347656 C 97.335938 11.28125 97.488281 11.320312 97.558594 11.4375 C 97.628906 11.554688 97.589844 11.707031 97.472656 11.777344 C 97.15625 11.964844 96.832031 12.164062 96.511719 12.371094 C 96.46875 12.394531 96.421875 12.410156 96.378906 12.410156 Z M 45.613281 12.0625 C 45.566406 12.0625 45.519531 12.050781 45.476562 12.023438 L 45.457031 12.007812 C 45.085938 11.765625 44.800781 11.582031 44.527344 11.417969 C 44.40625 11.347656 44.371094 11.195312 44.441406 11.078125 C 44.511719 10.960938 44.664062 10.921875 44.78125 10.992188 C 45.0625 11.160156 45.355469 11.34375 45.730469 11.597656 L 45.75 11.609375 C 45.863281 11.683594 45.894531 11.839844 45.820312 11.953125 C 45.773438 12.027344 45.691406 12.0625 45.613281 12.0625 Z M 38.464844 11.660156 C 38.414062 11.660156 38.363281 11.644531 38.320312 11.617188 C 38.207031 11.535156 38.183594 11.378906 38.261719 11.269531 C 38.492188 10.945312 38.796875 10.664062 39.160156 10.433594 C 39.277344 10.363281 39.429688 10.398438 39.503906 10.515625 C 39.578125 10.628906 39.542969 10.785156 39.425781 10.855469 C 39.113281 11.050781 38.859375 11.285156 38.664062 11.558594 C 38.617188 11.625 38.539062 11.660156 38.464844 11.660156 Z M 98.339844 11.253906 C 98.25 11.253906 98.164062 11.207031 98.117188 11.121094 C 98.054688 11 98.101562 10.851562 98.21875 10.785156 C 98.5625 10.601562 98.90625 10.429688 99.246094 10.265625 C 99.371094 10.207031 99.519531 10.261719 99.578125 10.382812 C 99.636719 10.507812 99.582031 10.65625 99.460938 10.714844 C 99.128906 10.875 98.789062 11.042969 98.457031 11.222656 C 98.417969 11.242188 98.378906 11.253906 98.339844 11.253906 Z M 52.5 11.097656 C 52.480469 11.097656 52.460938 11.09375 52.445312 11.089844 C 52.308594 11.0625 52.226562 10.925781 52.257812 10.792969 C 52.339844 10.429688 52.414062 10.058594 52.472656 9.691406 C 52.496094 9.558594 52.625 9.464844 52.757812 9.488281 C 52.894531 9.507812 52.984375 9.636719 52.964844 9.773438 C 52.902344 10.148438 52.828125 10.53125 52.742188 10.90625 C 52.714844 11.019531 52.613281 11.097656 52.5 11.097656 Z M 43.648438 10.917969 C 43.613281 10.917969 43.578125 10.910156 43.546875 10.894531 C 43.1875 10.726562 42.851562 10.601562 42.519531 10.507812 C 42.386719 10.472656 42.308594 10.335938 42.347656 10.203125 C 42.382812 10.070312 42.519531 9.992188 42.652344 10.03125 C 43.011719 10.128906 43.371094 10.265625 43.753906 10.445312 C 43.878906 10.5 43.933594 10.648438 43.875 10.773438 C 43.832031 10.863281 43.742188 10.917969 43.648438 10.917969 Z M 40.335938 10.453125 C 40.226562 10.453125 40.125 10.378906 40.097656 10.265625 C 40.0625 10.132812 40.144531 9.996094 40.277344 9.960938 C 40.617188 9.875 40.964844 9.832031 41.308594 9.832031 C 41.363281 9.832031 41.421875 9.832031 41.476562 9.835938 C 41.613281 9.839844 41.71875 9.957031 41.714844 10.09375 C 41.707031 10.230469 41.59375 10.335938 41.453125 10.332031 C 41.40625 10.328125 41.359375 10.328125 41.308594 10.328125 C 41.003906 10.328125 40.699219 10.367188 40.398438 10.445312 C 40.378906 10.449219 40.359375 10.453125 40.335938 10.453125 Z M 100.390625 10.273438 C 100.292969 10.273438 100.203125 10.214844 100.164062 10.121094 C 100.109375 9.992188 100.167969 9.847656 100.296875 9.796875 C 100.652344 9.644531 101.015625 9.507812 101.367188 9.378906 C 101.5 9.332031 101.640625 9.402344 101.6875 9.53125 C 101.730469 9.660156 101.664062 9.800781 101.535156 9.847656 C 101.191406 9.96875 100.835938 10.105469 100.488281 10.253906 C 100.457031 10.265625 100.421875 10.273438 100.390625 10.273438 Z M 102.535156 9.511719 C 102.425781 9.511719 102.328125 9.441406 102.296875 9.332031 C 102.257812 9.199219 102.332031 9.0625 102.464844 9.023438 C 102.835938 8.917969 103.214844 8.820312 103.582031 8.738281 C 103.71875 8.707031 103.851562 8.792969 103.878906 8.925781 C 103.910156 9.058594 103.824219 9.191406 103.691406 9.222656 C 103.332031 9.300781 102.964844 9.394531 102.605469 9.5 C 102.582031 9.507812 102.558594 9.511719 102.535156 9.511719 Z M 104.753906 9.019531 C 104.632812 9.019531 104.527344 8.929688 104.511719 8.808594 C 104.488281 8.671875 104.582031 8.546875 104.71875 8.523438 C 105.101562 8.46875 105.488281 8.421875 105.867188 8.394531 C 106.003906 8.382812 106.121094 8.484375 106.132812 8.621094 C 106.144531 8.757812 106.042969 8.878906 105.90625 8.886719 C 105.535156 8.917969 105.164062 8.960938 104.792969 9.015625 C 104.78125 9.019531 104.765625 9.019531 104.753906 9.019531 Z M 108.160156 8.886719 C 108.152344 8.886719 108.144531 8.886719 108.140625 8.882812 C 107.78125 8.855469 107.414062 8.84375 107.050781 8.84375 L 107.023438 8.84375 C 106.886719 8.84375 106.773438 8.730469 106.773438 8.59375 C 106.773438 8.457031 106.882812 8.347656 107.019531 8.347656 L 107.050781 8.347656 C 107.425781 8.347656 107.804688 8.359375 108.175781 8.390625 C 108.3125 8.398438 108.417969 8.519531 108.40625 8.65625 C 108.394531 8.785156 108.289062 8.886719 108.160156 8.886719 Z M 52.867188 8.851562 C 52.859375 8.851562 52.851562 8.851562 52.84375 8.851562 C 52.707031 8.839844 52.605469 8.71875 52.621094 8.582031 C 52.65625 8.207031 52.683594 7.832031 52.695312 7.460938 C 52.699219 7.324219 52.8125 7.21875 52.953125 7.222656 C 53.089844 7.226562 53.195312 7.339844 53.191406 7.476562 C 53.179688 7.859375 53.152344 8.246094 53.113281 8.628906 C 53.101562 8.757812 52.992188 8.851562 52.867188 8.851562 Z M 52.867188 8.851562 " fill-opacity="1" fill-rule="nonzero"/></g></svg>