<svg xmlns="http://www.w3.org/2000/svg" xmlns:xlink="http://www.w3.org/1999/xlink" width="200" zoomAndPan="magnify" viewBox="0 0 150 30.000001" height="40" preserveAspectRatio="xMidYMid meet" version="1.0"><defs><clipPath id="b9f0378c43"><path d="M 114 2 L 130 2 L 130 17 L 114 17 Z M 114 2 " clip-rule="nonzero"/></clipPath><clipPath id="5be04b9732"><path d="M 121.40625 0.394531 L 130.457031 9.445312 L 121.40625 18.496094 L 112.355469 9.445312 Z M 121.40625 0.394531 " clip-rule="nonzero"/></clipPath><clipPath id="c5bc41bacc"><path d="M 121.40625 0.394531 L 130.457031 9.445312 L 121.40625 18.496094 L 112.355469 9.445312 Z M 121.40625 0.394531 " clip-rule="nonzero"/></clipPath><clipPath id="29e25d8616"><rect x="0" width="131" y="0" height="19"/></clipPath></defs><g transform="matrix(1, 0, 0, 1, 10, 5)"><g clip-path="url(#29e25d8616)"><path fill="#6e7f3f" d="M 1.566406 9.203125 L 2.203125 9.203125 L 2.203125 9.84375 L 1.566406 9.84375 M 2.84375 9.203125 L 3.484375 9.203125 L 3.484375 9.84375 L 2.84375 9.84375 M 4.125 9.203125 L 4.765625 9.203125 L 4.765625 9.84375 L 4.125 9.84375 M 5.40625 9.203125 L 6.042969 9.203125 L 6.042969 9.84375 L 5.40625 9.84375 M 6.683594 9.203125 L 7.324219 9.203125 L 7.324219 9.84375 L 6.683594 9.84375 M 7.964844 9.203125 L 8.605469 9.203125 L 8.605469 9.84375 L 7.964844 9.84375 M 9.246094 9.203125 L 9.882812 9.203125 L 9.882812 9.84375 L 9.246094 9.84375 M 10.523438 9.203125 L 11.164062 9.203125 L 11.164062 9.84375 L 10.523438 9.84375 M 11.804688 9.203125 L 12.445312 9.203125 L 12.445312 9.84375 L 11.804688 9.84375 M 13.085938 9.203125 L 13.722656 9.203125 L 13.722656 9.84375 L 13.085938 9.84375 M 14.363281 9.203125 L 15.003906 9.203125 L 15.003906 9.84375 L 14.363281 9.84375 M 15.644531 9.203125 L 16.285156 9.203125 L 16.285156 9.84375 L 15.644531 9.84375 M 16.925781 9.203125 L 17.566406 9.203125 L 17.566406 9.84375 L 16.925781 9.84375 M 18.203125 9.203125 L 18.84375 9.203125 L 18.84375 9.84375 L 18.203125 9.84375 M 19.484375 9.203125 L 20.125 9.203125 L 20.125 9.84375 L 19.484375 9.84375 M 20.765625 9.203125 L 21.40625 9.203125 L 21.40625 9.84375 L 20.765625 9.84375 M 22.042969 9.203125 L 22.683594 9.203125 L 22.683594 9.84375 L 22.042969 9.84375 M 23.324219 9.203125 L 23.964844 9.203125 L 23.964844 9.84375 L 23.324219 9.84375 M 24.605469 9.203125 L 25.246094 9.203125 L 25.246094 9.84375 L 24.605469 9.84375 M 25.882812 9.203125 L 26.523438 9.203125 L 26.523438 9.84375 L 25.882812 9.84375 M 27.164062 9.203125 L 27.804688 9.203125 L 27.804688 9.84375 L 27.164062 9.84375 M 28.445312 9.203125 L 29.085938 9.203125 L 29.085938 9.84375 L 28.445312 9.84375 M 29.722656 9.203125 L 30.363281 9.203125 L 30.363281 9.84375 L 29.722656 9.84375 M 31.003906 9.203125 L 31.644531 9.203125 L 31.644531 9.84375 L 31.003906 9.84375 M 32.285156 9.203125 L 32.925781 9.203125 L 32.925781 9.84375 L 32.285156 9.84375 M 33.5625 9.203125 L 34.203125 9.203125 L 34.203125 9.84375 L 33.5625 9.84375 M 34.84375 9.203125 L 35.484375 9.203125 L 35.484375 9.84375 L 34.84375 9.84375 M 36.125 9.203125 L 36.765625 9.203125 L 36.765625 9.84375 L 36.125 9.84375 M 37.40625 9.203125 L 38.042969 9.203125 L 38.042969 9.84375 L 37.40625 9.84375 M 38.683594 9.203125 L 39.324219 9.203125 L 39.324219 9.84375 L 38.683594 9.84375 M 39.964844 9.203125 L 40.605469 9.203125 L 40.605469 9.84375 L 39.964844 9.84375 M 41.246094 9.203125 L 41.882812 9.203125 L 41.882812 9.84375 L 41.246094 9.84375 M 42.523438 9.203125 L 43.164062 9.203125 L 43.164062 9.84375 L 42.523438 9.84375 M 43.804688 9.203125 L 44.445312 9.203125 L 44.445312 9.84375 L 43.804688 9.84375 M 45.085938 9.203125 L 45.722656 9.203125 L 45.722656 9.84375 L 45.085938 9.84375 M 46.363281 9.203125 L 47.003906 9.203125 L 47.003906 9.84375 L 46.363281 9.84375 M 47.644531 9.203125 L 48.285156 9.203125 L 48.285156 9.84375 L 47.644531 9.84375 M 48.925781 9.203125 L 49.5625 9.203125 L 49.5625 9.84375 L 48.925781 9.84375 M 50.203125 9.203125 L 50.84375 9.203125 L 50.84375 9.84375 L 50.203125 9.84375 M 51.484375 9.203125 L 52.125 9.203125 L 52.125 9.84375 L 51.484375 9.84375 M 52.765625 9.203125 L 53.40625 9.203125 L 53.40625 9.84375 L 52.765625 9.84375 M 54.042969 9.203125 L 54.683594 9.203125 L 54.683594 9.84375 L 54.042969 9.84375 M 55.324219 9.203125 L 55.964844 9.203125 L 55.964844 9.84375 L 55.324219 9.84375 M 56.605469 9.203125 L 57.246094 9.203125 L 57.246094 9.84375 L 56.605469 9.84375 M 57.882812 9.203125 L 58.523438 9.203125 L 58.523438 9.84375 L 57.882812 9.84375 M 59.164062 9.203125 L 59.804688 9.203125 L 59.804688 9.84375 L 59.164062 9.84375 M 60.445312 9.203125 L 61.085938 9.203125 L 61.085938 9.84375 L 60.445312 9.84375 M 61.722656 9.203125 L 62.363281 9.203125 L 62.363281 9.84375 L 61.722656 9.84375 M 63.003906 9.203125 L 63.644531 9.203125 L 63.644531 9.84375 L 63.003906 9.84375 M 64.285156 9.203125 L 64.925781 9.203125 L 64.925781 9.84375 L 64.285156 9.84375 M 65.5625 9.203125 L 66.203125 9.203125 L 66.203125 9.84375 L 65.5625 9.84375 M 66.84375 9.203125 L 67.484375 9.203125 L 67.484375 9.84375 L 66.84375 9.84375 M 68.125 9.203125 L 68.765625 9.203125 L 68.765625 9.84375 L 68.125 9.84375 M 69.402344 9.203125 L 70.042969 9.203125 L 70.042969 9.84375 L 69.402344 9.84375 M 70.683594 9.203125 L 71.324219 9.203125 L 71.324219 9.84375 L 70.683594 9.84375 M 71.964844 9.203125 L 72.605469 9.203125 L 72.605469 9.84375 L 71.964844 9.84375 M 73.246094 9.203125 L 73.882812 9.203125 L 73.882812 9.84375 L 73.246094 9.84375 M 74.523438 9.203125 L 75.164062 9.203125 L 75.164062 9.84375 L 74.523438 9.84375 M 75.804688 9.203125 L 76.445312 9.203125 L 76.445312 9.84375 L 75.804688 9.84375 M 77.085938 9.203125 L 77.722656 9.203125 L 77.722656 9.84375 L 77.085938 9.84375 M 78.363281 9.203125 L 79.003906 9.203125 L 79.003906 9.84375 L 78.363281 9.84375 M 79.644531 9.203125 L 80.285156 9.203125 L 80.285156 9.84375 L 79.644531 9.84375 M 80.925781 9.203125 L 81.5625 9.203125 L 81.5625 9.84375 L 80.925781 9.84375 M 82.203125 9.203125 L 82.84375 9.203125 L 82.84375 9.84375 L 82.203125 9.84375 M 83.484375 9.203125 L 84.125 9.203125 L 84.125 9.84375 L 83.484375 9.84375 M 84.765625 9.203125 L 85.402344 9.203125 L 85.402344 9.84375 L 84.765625 9.84375 M 86.042969 9.203125 L 86.683594 9.203125 L 86.683594 9.84375 L 86.042969 9.84375 M 87.324219 9.203125 L 87.964844 9.203125 L 87.964844 9.84375 L 87.324219 9.84375 M 88.605469 9.203125 L 89.246094 9.203125 L 89.246094 9.84375 L 88.605469 9.84375 M 89.882812 9.203125 L 90.523438 9.203125 L 90.523438 9.84375 L 89.882812 9.84375 M 91.164062 9.203125 L 91.804688 9.203125 L 91.804688 9.84375 L 91.164062 9.84375 M 92.445312 9.203125 L 93.085938 9.203125 L 93.085938 9.84375 L 92.445312 9.84375 M 93.722656 9.203125 L 94.363281 9.203125 L 94.363281 9.84375 L 93.722656 9.84375 M 95.003906 9.203125 L 95.644531 9.203125 L 95.644531 9.84375 L 95.003906 9.84375 M 96.285156 9.203125 L 96.925781 9.203125 L 96.925781 9.84375 L 96.285156 9.84375 M 97.5625 9.203125 L 98.203125 9.203125 L 98.203125 9.84375 L 97.5625 9.84375 M 98.84375 9.203125 L 99.484375 9.203125 L 99.484375 9.84375 L 98.84375 9.84375 M 100.125 9.203125 L 100.765625 9.203125 L 100.765625 9.84375 L 100.125 9.84375 M 101.402344 9.203125 L 102.042969 9.203125 L 102.042969 9.84375 L 101.402344 9.84375 M 102.683594 9.203125 L 103.324219 9.203125 L 103.324219 9.84375 L 102.683594 9.84375 M 103.964844 9.203125 L 104.605469 9.203125 L 104.605469 9.84375 L 103.964844 9.84375 M 105.246094 9.203125 L 105.882812 9.203125 L 105.882812 9.84375 L 105.246094 9.84375 M 106.523438 9.203125 L 107.164062 9.203125 L 107.164062 9.84375 L 106.523438 9.84375 M 107.804688 9.203125 L 108.445312 9.203125 L 108.445312 9.84375 L 107.804688 9.84375 M 109.085938 9.203125 L 109.722656 9.203125 L 109.722656 9.84375 L 109.085938 9.84375 M 110.363281 9.203125 L 111.003906 9.203125 L 111.003906 9.84375 L 110.363281 9.84375 M 111.644531 9.203125 L 112.285156 9.203125 L 112.285156 9.84375 L 111.644531 9.84375 M 112.925781 9.203125 L 113.5625 9.203125 L 113.5625 9.84375 L 112.925781 9.84375 M 114.203125 9.203125 L 114.84375 9.203125 L 114.84375 9.84375 L 114.203125 9.84375 M 115.484375 9.203125 L 116.125 9.203125 L 116.125 9.84375 L 115.484375 9.84375 M 116.765625 9.203125 L 117.402344 9.203125 L 117.402344 9.84375 L 116.765625 9.84375 " fill-opacity="1" fill-rule="nonzero"/><g clip-path="url(#b9f0378c43)"><g clip-path="url(#5be04b9732)"><g clip-path="url(#c5bc41bacc)"><path fill="#6e7f3f" d="M 119.632812 2.207031 L 120.378906 2.191406 C 120.808594 2.191406 121.09375 2.621094 121.09375 2.621094 L 122.011719 3.835938 L 123.082031 3.847656 C 123.644531 3.851562 123.472656 4.535156 123.214844 4.570312 L 122.613281 4.617188 L 123.550781 5.976562 L 124.394531 5.910156 C 125.308594 5.832031 125.167969 6.589844 124.71875 6.664062 L 124.148438 6.730469 L 125.648438 8.679688 C 128.558594 8.738281 129.753906 8.75 129.792969 9.492188 C 129.832031 10.238281 128.429688 10.25 125.6875 10.289062 L 124.15625 12.3125 L 124.820312 12.371094 C 125.210938 12.40625 125.304688 13.070312 124.542969 13.050781 L 123.578125 13.023438 L 122.625 14.394531 L 123.171875 14.46875 C 123.664062 14.523438 123.710938 15.144531 122.941406 15.171875 L 121.953125 15.175781 C 121.917969 15.167969 121.09375 16.355469 121.09375 16.355469 C 120.714844 16.960938 120.253906 16.859375 120.253906 16.859375 L 119.621094 16.816406 L 121.96875 11.894531 C 122.183594 11.46875 122.261719 10.851562 121.765625 10.441406 C 121.503906 10.226562 120.492188 10.03125 120.316406 10.046875 L 117.578125 9.992188 C 117.515625 9.984375 116.046875 11.953125 116.046875 11.953125 C 115.996094 12.003906 114.972656 12.140625 114.972656 12.140625 L 115.664062 9.683594 L 115.023438 9.449219 L 115.675781 9.308594 L 114.984375 6.816406 L 116.015625 6.976562 C 116.234375 7.328125 117.558594 8.984375 117.605469 9 C 117.605469 9 120.023438 9.011719 120.164062 9.007812 C 120.988281 8.984375 121.28125 8.964844 121.546875 8.816406 C 121.816406 8.667969 122.019531 8.257812 121.777344 7.242188 C 121.441406 5.84375 119.632812 2.207031 119.632812 2.207031 Z M 119.632812 2.207031 " fill-opacity="1" fill-rule="nonzero"/></g></g></g></g></g></svg>