<svg xmlns="http://www.w3.org/2000/svg" xmlns:xlink="http://www.w3.org/1999/xlink" width="70" zoomAndPan="magnify" viewBox="0 0 52.5 52.499999" height="70" preserveAspectRatio="xMidYMid meet" version="1.0"><defs><clipPath id="19d8daed18"><path d="M 1.472656 15.667969 L 50.507812 15.667969 L 50.507812 36.472656 L 1.472656 36.472656 Z M 1.472656 15.667969 " clip-rule="nonzero"/></clipPath></defs><g clip-path="url(#19d8daed18)"><path fill="#6e7f3f" d="M 50.4375 15.855469 C 50.421875 15.765625 50.359375 15.6875 50.25 15.679688 C 50.214844 15.671875 50.179688 15.671875 50.140625 15.6875 C 46.59375 16.097656 43.046875 16.503906 39.496094 16.902344 C 35.835938 17.308594 32.171875 17.703125 28.507812 18.078125 C 26.523438 18.28125 24.542969 18.472656 22.558594 18.660156 C 22.5 18.664062 22.453125 18.683594 22.417969 18.714844 C 22.308594 18.777344 22.246094 18.898438 22.332031 19.027344 C 22.347656 19.070312 22.375 19.109375 22.414062 19.132812 C 23.613281 20.6875 25.242188 21.855469 26.457031 23.394531 C 26.429688 23.433594 26.414062 23.484375 26.421875 23.546875 C 26.695312 26.058594 26.339844 28.585938 26.40625 31.105469 C 26.410156 31.234375 26.523438 31.335938 26.644531 31.355469 C 26.707031 31.382812 26.785156 31.382812 26.863281 31.335938 C 28.15625 30.53125 29.429688 29.695312 30.722656 28.894531 C 30.753906 28.875 30.78125 28.847656 30.796875 28.824219 C 32.050781 30.332031 33.277344 31.863281 34.417969 33.453125 C 34.804688 33.988281 35.179688 34.535156 35.507812 35.105469 C 35.519531 35.132812 35.535156 35.160156 35.554688 35.179688 C 35.632812 35.300781 35.765625 35.308594 35.871094 35.253906 C 35.910156 35.238281 35.949219 35.207031 35.980469 35.164062 C 37.84375 32.503906 39.839844 29.945312 41.894531 27.429688 C 43.710938 25.203125 45.546875 22.988281 47.253906 20.675781 C 48.359375 19.171875 49.414062 17.632812 50.417969 16.0625 C 50.457031 16 50.460938 15.925781 50.4375 15.855469 Z M 23.039062 19.117188 C 26.457031 18.796875 29.867188 18.449219 33.277344 18.085938 C 36.941406 17.695312 40.601562 17.285156 44.265625 16.867188 C 45.554688 16.722656 46.847656 16.574219 48.136719 16.425781 C 42.792969 18.347656 37.347656 19.96875 31.917969 21.625 C 31.042969 21.890625 30.167969 22.160156 29.292969 22.429688 C 28.835938 22.570312 28.378906 22.710938 27.921875 22.855469 C 27.710938 22.921875 27.5 22.984375 27.289062 23.050781 C 27.179688 23.085938 27.035156 23.113281 26.902344 23.152344 C 25.75 21.6875 24.21875 20.558594 23.039062 19.117188 Z M 26.941406 23.6875 C 26.945312 23.6875 26.949219 23.683594 26.957031 23.679688 C 27.085938 23.585938 27.371094 23.554688 27.53125 23.507812 C 27.707031 23.453125 27.882812 23.394531 28.058594 23.339844 C 28.480469 23.210938 28.902344 23.078125 29.324219 22.949219 C 30.09375 22.710938 30.863281 22.476562 31.632812 22.242188 C 33.164062 21.773438 34.695312 21.308594 36.222656 20.84375 C 38.660156 20.097656 41.089844 19.339844 43.511719 18.546875 C 40.070312 20.140625 36.675781 21.847656 33.269531 23.503906 C 32.496094 23.878906 31.71875 24.257812 30.945312 24.628906 C 30.5625 24.808594 30.183594 24.992188 29.800781 25.171875 C 29.601562 25.269531 29.398438 25.363281 29.195312 25.457031 C 29.109375 25.5 29.023438 25.539062 28.933594 25.582031 C 28.914062 25.589844 28.792969 25.640625 28.730469 25.675781 C 28.648438 25.667969 28.566406 25.703125 28.519531 25.804688 C 28.519531 25.8125 28.515625 25.816406 28.515625 25.820312 C 28.496094 25.847656 28.484375 25.875 28.476562 25.902344 C 27.886719 27.199219 27.441406 28.5625 26.910156 29.886719 C 26.945312 27.820312 27.144531 25.75 26.941406 23.6875 Z M 30.46875 28.453125 C 29.367188 29.136719 28.28125 29.84375 27.183594 30.535156 C 27.753906 29.183594 28.199219 27.777344 28.789062 26.433594 C 29.355469 27.101562 29.921875 27.773438 30.484375 28.445312 C 30.476562 28.449219 30.472656 28.453125 30.46875 28.453125 Z M 44.464844 23.472656 C 42.648438 25.746094 40.765625 27.972656 38.976562 30.265625 C 37.878906 31.675781 36.8125 33.109375 35.78125 34.570312 C 35.148438 33.519531 34.386719 32.539062 33.636719 31.570312 C 32.617188 30.25 31.558594 28.957031 30.488281 27.675781 C 30.035156 27.132812 29.582031 26.589844 29.125 26.050781 C 29.289062 25.972656 29.457031 25.894531 29.625 25.816406 C 29.972656 25.648438 30.320312 25.484375 30.671875 25.320312 C 31.367188 24.988281 32.0625 24.652344 32.757812 24.3125 C 34.199219 23.613281 35.640625 22.910156 37.078125 22.203125 C 39.921875 20.816406 42.769531 19.433594 45.652344 18.132812 C 46.945312 17.554688 48.246094 16.992188 49.558594 16.460938 C 47.976562 18.882812 46.269531 21.210938 44.464844 23.472656 Z M 3.773438 35.382812 C 3.214844 35.652344 2.660156 35.921875 2.101562 36.191406 C 1.808594 36.332031 1.550781 35.894531 1.84375 35.753906 C 2.402344 35.484375 2.960938 35.214844 3.519531 34.945312 C 3.8125 34.804688 4.066406 35.242188 3.773438 35.382812 Z M 6.789062 33.613281 C 6.332031 33.933594 5.898438 34.28125 5.484375 34.652344 C 5.242188 34.867188 4.882812 34.511719 5.128906 34.292969 C 5.574219 33.894531 6.042969 33.523438 6.53125 33.175781 C 6.800781 32.988281 7.050781 33.429688 6.789062 33.613281 Z M 9.394531 31.625 C 9.046875 31.878906 8.699219 32.132812 8.351562 32.390625 C 8.089844 32.582031 7.839844 32.144531 8.097656 31.953125 C 8.445312 31.699219 8.792969 31.441406 9.136719 31.1875 C 9.402344 30.992188 9.652344 31.433594 9.394531 31.625 Z M 10.464844 30.582031 C 10.230469 30.808594 9.871094 30.449219 10.105469 30.222656 C 10.316406 30.019531 10.523438 29.820312 10.734375 29.617188 C 10.96875 29.390625 11.328125 29.746094 11.09375 29.972656 C 10.882812 30.175781 10.671875 30.378906 10.464844 30.582031 Z M 12.238281 27.996094 C 12.089844 28.222656 11.941406 28.449219 11.792969 28.671875 C 11.613281 28.945312 11.179688 28.691406 11.355469 28.417969 C 11.503906 28.191406 11.652344 27.964844 11.800781 27.738281 C 11.976562 27.46875 12.414062 27.722656 12.238281 27.996094 Z M 12.492188 26.113281 C 12.585938 25.835938 12.660156 25.558594 12.722656 25.273438 C 12.789062 24.953125 13.277344 25.089844 13.210938 25.40625 C 13.148438 25.691406 13.074219 25.972656 12.980469 26.246094 C 12.878906 26.554688 12.390625 26.421875 12.492188 26.113281 Z M 12.734375 23.164062 C 12.664062 22.847656 13.152344 22.710938 13.222656 23.03125 C 13.285156 23.3125 13.308594 23.59375 13.285156 23.882812 C 13.261719 24.207031 12.753906 24.207031 12.78125 23.882812 C 12.800781 23.640625 12.789062 23.402344 12.734375 23.164062 Z M 10.816406 21.804688 C 10.816406 21.65625 10.933594 21.570312 11.070312 21.550781 C 11.402344 21.507812 11.726562 21.632812 11.972656 21.855469 C 12.214844 22.078125 11.855469 22.433594 11.613281 22.214844 C 11.460938 22.074219 11.273438 22.03125 11.070312 22.058594 C 10.933594 22.074219 10.816406 21.929688 10.816406 21.804688 Z M 10.238281 22.726562 C 10.113281 22.769531 10.003906 22.863281 9.929688 22.996094 C 9.863281 23.113281 9.703125 23.152344 9.585938 23.085938 C 9.464844 23.015625 9.425781 22.859375 9.492188 22.738281 C 9.628906 22.5 9.84375 22.328125 10.105469 22.238281 C 10.234375 22.191406 10.378906 22.289062 10.414062 22.414062 C 10.453125 22.554688 10.367188 22.679688 10.238281 22.726562 Z M 8.46875 24.210938 C 8.53125 23.984375 8.628906 23.769531 8.757812 23.578125 C 8.835938 23.464844 8.980469 23.414062 9.105469 23.488281 C 9.21875 23.554688 9.273438 23.71875 9.195312 23.832031 C 9.085938 23.992188 9.007812 24.160156 8.957031 24.34375 C 8.871094 24.660156 8.382812 24.523438 8.46875 24.210938 Z M 7.875 24.136719 C 7.722656 24.136719 7.636719 24.019531 7.621094 23.882812 C 7.605469 23.757812 7.519531 23.640625 7.410156 23.550781 C 7.304688 23.464844 7.320312 23.28125 7.410156 23.195312 C 7.515625 23.089844 7.664062 23.109375 7.769531 23.195312 C 7.980469 23.367188 8.089844 23.613281 8.125 23.882812 C 8.144531 24.019531 7.996094 24.136719 7.875 24.136719 Z M 5.65625 22.4375 C 5.625 22.316406 5.699219 22.152344 5.835938 22.125 C 6.199219 22.0625 6.574219 22.171875 6.816406 22.460938 C 6.902344 22.566406 6.921875 22.714844 6.816406 22.820312 C 6.726562 22.910156 6.546875 22.925781 6.460938 22.820312 C 6.339844 22.671875 6.164062 22.578125 5.96875 22.613281 C 5.832031 22.636719 5.695312 22.578125 5.65625 22.4375 Z M 3.640625 22.660156 C 3.992188 22.46875 4.382812 22.382812 4.78125 22.417969 C 5.101562 22.449219 5.105469 22.953125 4.78125 22.921875 C 4.46875 22.894531 4.175781 22.945312 3.898438 23.097656 C 3.609375 23.25 3.355469 22.816406 3.640625 22.660156 Z M 2.78125 24.726562 C 2.785156 24.375 2.847656 24.035156 2.960938 23.703125 C 3.070312 23.398438 3.558594 23.53125 3.449219 23.839844 C 3.347656 24.128906 3.292969 24.417969 3.285156 24.726562 C 3.277344 25.050781 2.773438 25.050781 2.78125 24.726562 Z M 3.992188 27.082031 C 4.222656 27.3125 3.867188 27.671875 3.636719 27.4375 C 3.363281 27.160156 3.140625 26.839844 2.988281 26.480469 C 2.933594 26.355469 2.945312 26.210938 3.078125 26.136719 C 3.1875 26.074219 3.367188 26.101562 3.425781 26.226562 C 3.5625 26.546875 3.75 26.832031 3.992188 27.082031 Z M 5.609375 29.148438 C 5.230469 28.945312 4.878906 28.710938 4.539062 28.445312 C 4.285156 28.242188 4.644531 27.890625 4.898438 28.085938 C 5.199219 28.324219 5.527344 28.53125 5.863281 28.710938 C 6.152344 28.867188 5.894531 29.300781 5.609375 29.148438 Z M 7.828125 30.355469 C 7.796875 30.476562 7.644531 30.578125 7.519531 30.53125 C 7.234375 30.425781 6.972656 30.292969 6.726562 30.113281 C 6.613281 30.035156 6.5625 29.894531 6.636719 29.769531 C 6.699219 29.660156 6.871094 29.597656 6.980469 29.679688 C 7.1875 29.828125 7.410156 29.953125 7.652344 30.042969 C 7.78125 30.089844 7.867188 30.210938 7.828125 30.355469 Z M 11.601562 31.3125 C 11.601562 31.433594 11.484375 31.582031 11.347656 31.5625 C 11.089844 31.527344 10.828125 31.492188 10.570312 31.460938 C 10.433594 31.441406 10.316406 31.359375 10.316406 31.207031 C 10.316406 31.082031 10.433594 30.9375 10.570312 30.953125 C 10.828125 30.988281 11.089844 31.023438 11.347656 31.058594 C 11.484375 31.078125 11.601562 31.160156 11.601562 31.3125 Z M 13.992188 31.660156 C 13.570312 31.6875 13.160156 31.667969 12.742188 31.609375 C 12.421875 31.566406 12.558594 31.078125 12.875 31.125 C 13.246094 31.171875 13.617188 31.179688 13.992188 31.15625 C 14.316406 31.132812 14.3125 31.640625 13.992188 31.660156 Z M 16.699219 31.207031 C 16.289062 31.308594 15.871094 31.367188 15.453125 31.390625 C 15.125 31.40625 15.128906 30.898438 15.453125 30.882812 C 15.828125 30.863281 16.195312 30.808594 16.5625 30.71875 C 16.882812 30.644531 17.015625 31.132812 16.699219 31.207031 Z M 19.625 30.441406 C 19.277344 30.542969 18.9375 30.675781 18.609375 30.839844 C 18.320312 30.984375 18.0625 30.546875 18.355469 30.402344 C 18.722656 30.222656 19.101562 30.070312 19.492188 29.953125 C 19.804688 29.859375 19.9375 30.347656 19.625 30.441406 Z M 22.09375 29.429688 C 21.90625 29.527344 21.722656 29.628906 21.539062 29.726562 C 21.25 29.878906 20.996094 29.441406 21.28125 29.289062 C 21.464844 29.191406 21.652344 29.09375 21.835938 28.992188 C 22.125 28.839844 22.378906 29.277344 22.09375 29.429688 Z M 24.171875 28.3125 C 24.265625 28.40625 24.277344 28.582031 24.171875 28.671875 C 23.976562 28.84375 23.753906 28.964844 23.5 29.03125 C 23.183594 29.109375 23.050781 28.625 23.367188 28.542969 C 23.535156 28.5 23.683594 28.425781 23.816406 28.3125 C 23.917969 28.222656 24.070312 28.210938 24.171875 28.3125 Z M 25.863281 27.804688 C 25.902344 27.945312 25.8125 28.0625 25.6875 28.113281 C 25.5 28.191406 25.3125 28.265625 25.125 28.339844 C 24.996094 28.390625 24.847656 28.285156 24.816406 28.164062 C 24.773438 28.019531 24.863281 27.902344 24.992188 27.851562 C 25.179688 27.777344 25.367188 27.703125 25.554688 27.628906 C 25.679688 27.574219 25.832031 27.683594 25.863281 27.804688 Z M 25.863281 27.804688 " fill-opacity="1" fill-rule="nonzero"/></g></svg>