<svg xmlns="http://www.w3.org/2000/svg" xmlns:xlink="http://www.w3.org/1999/xlink" width="70" zoomAndPan="magnify" viewBox="0 0 52.5 52.499999" height="70" preserveAspectRatio="xMidYMid meet" version="1.0"><defs><filter x="0%" y="0%" width="100%" height="100%" id="450d251d53"><feColorMatrix values="0 0 0 0 1 0 0 0 0 1 0 0 0 0 1 0 0 0 1 0" color-interpolation-filters="sRGB"/></filter><mask id="abc386360e"><g filter="url(#450d251d53)"><rect x="-5.25" width="63" fill="#000000" y="-5.25" height="62.999999" fill-opacity="0.35"/></g></mask><clipPath id="83724a300f"><path d="M 0.09375 0.273438 L 46 0.273438 L 46 34.414062 L 0.09375 34.414062 Z M 0.09375 0.273438 " clip-rule="nonzero"/></clipPath><clipPath id="005e7e123d"><rect x="0" width="47" y="0" height="35"/></clipPath></defs><g mask="url(#abc386360e)"><g transform="matrix(1, 0, 0, 1, 3, 6)"><g clip-path="url(#005e7e123d)"><path fill="#ffffff" d="M 6.589844 16.722656 L 5.6875 15.175781 L 4.789062 16.722656 L 5.6875 18.222656 Z M 6.589844 16.722656 " fill-opacity="1" fill-rule="nonzero"/><path fill="#ffffff" d="M 16.777344 13.027344 L 15.929688 11.476562 L 15.03125 13.027344 L 15.929688 14.523438 Z M 16.777344 13.027344 " fill-opacity="1" fill-rule="nonzero"/><path fill="#ffffff" d="M 41.203125 16.722656 L 40.304688 15.175781 L 39.40625 16.722656 L 40.304688 18.222656 Z M 41.203125 16.722656 " fill-opacity="1" fill-rule="nonzero"/><path fill="#ffffff" d="M 30.964844 13.027344 L 30.066406 11.476562 L 29.214844 13.027344 L 30.066406 14.523438 Z M 30.964844 13.027344 " fill-opacity="1" fill-rule="nonzero"/><g clip-path="url(#83724a300f)"><path fill="#ffffff" d="M 39.007812 23.117188 L 35.761719 12.375 L 29.617188 20.417969 L 23.820312 8.929688 L 25.570312 5.433594 L 23.023438 0.339844 L 20.425781 5.433594 L 22.171875 8.929688 L 16.378906 20.371094 L 10.335938 12.375 L 7.085938 23.167969 L 0.09375 15.125 L 4.890625 30.308594 L 4.941406 30.410156 L 4.941406 34.105469 L 41.054688 34.105469 L 41.054688 30.410156 L 41.15625 30.160156 L 45.902344 15.125 Z M 39.355469 29.558594 L 35.410156 29.558594 L 38.359375 26.164062 Z M 35.160156 15.625 L 37.859375 24.464844 L 33.960938 28.960938 L 30.414062 21.917969 Z M 32.5625 29.558594 L 24.570312 29.558594 L 29.367188 23.265625 Z M 22.074219 5.433594 L 22.972656 3.683594 L 23.871094 5.433594 L 22.972656 7.230469 Z M 23.023438 10.578125 L 28.617188 21.71875 L 23.023438 29.109375 L 17.429688 21.667969 Z M 7.6875 26.214844 L 10.585938 29.558594 L 6.6875 29.558594 Z M 21.472656 29.558594 L 13.433594 29.558594 L 16.628906 23.167969 Z M 10.933594 15.625 L 15.628906 21.816406 L 12.082031 28.960938 L 8.238281 24.515625 Z M 3.691406 21.617188 L 6.539062 24.863281 L 5.640625 27.761719 Z M 39.554688 32.605469 L 6.4375 32.605469 L 6.4375 31.058594 L 39.554688 31.058594 Z M 40.355469 27.664062 L 39.507812 24.816406 L 42.304688 21.617188 Z M 40.355469 27.664062 " fill-opacity="1" fill-rule="nonzero"/></g></g></g></g></svg>