<svg xmlns="http://www.w3.org/2000/svg" xmlns:xlink="http://www.w3.org/1999/xlink" width="70" zoomAndPan="magnify" viewBox="0 0 52.5 52.499999" height="70" preserveAspectRatio="xMidYMid meet" version="1.0"><defs><filter x="0%" y="0%" width="100%" height="100%" id="6ab9e2e3f6"><feColorMatrix values="0 0 0 0 1 0 0 0 0 1 0 0 0 0 1 0 0 0 1 0" color-interpolation-filters="sRGB"/></filter><mask id="ba526d46a6"><g filter="url(#6ab9e2e3f6)"><rect x="-5.25" width="63" fill="#000000" y="-5.25" height="62.999999" fill-opacity="0.49"/></g></mask><clipPath id="659eee6c04"><path d="M 0.09375 0.273438 L 46 0.273438 L 46 34.414062 L 0.09375 34.414062 Z M 0.09375 0.273438 " clip-rule="nonzero"/></clipPath><clipPath id="a60f516e04"><rect x="0" width="47" y="0" height="35"/></clipPath><clipPath id="a898508a35"><path d="M 2.15625 14.542969 L 49.703125 14.542969 L 49.703125 40.542969 L 2.15625 40.542969 Z M 2.15625 14.542969 " clip-rule="nonzero"/></clipPath></defs><g mask="url(#ba526d46a6)"><g transform="matrix(1, 0, 0, 1, 3, 6)"><g clip-path="url(#a60f516e04)"><path fill="#f0b3c5" d="M 6.589844 16.722656 L 5.6875 15.175781 L 4.789062 16.722656 L 5.6875 18.222656 Z M 6.589844 16.722656 " fill-opacity="1" fill-rule="nonzero"/><path fill="#f0b3c5" d="M 16.777344 13.027344 L 15.929688 11.476562 L 15.03125 13.027344 L 15.929688 14.523438 Z M 16.777344 13.027344 " fill-opacity="1" fill-rule="nonzero"/><path fill="#f0b3c5" d="M 41.203125 16.722656 L 40.304688 15.175781 L 39.40625 16.722656 L 40.304688 18.222656 Z M 41.203125 16.722656 " fill-opacity="1" fill-rule="nonzero"/><path fill="#f0b3c5" d="M 30.964844 13.027344 L 30.066406 11.476562 L 29.214844 13.027344 L 30.066406 14.523438 Z M 30.964844 13.027344 " fill-opacity="1" fill-rule="nonzero"/><g clip-path="url(#659eee6c04)"><path fill="#f0b3c5" d="M 39.007812 23.117188 L 35.761719 12.375 L 29.617188 20.417969 L 23.820312 8.929688 L 25.570312 5.433594 L 23.023438 0.339844 L 20.425781 5.433594 L 22.171875 8.929688 L 16.378906 20.371094 L 10.335938 12.375 L 7.085938 23.167969 L 0.09375 15.125 L 4.890625 30.308594 L 4.941406 30.410156 L 4.941406 34.105469 L 41.054688 34.105469 L 41.054688 30.410156 L 41.15625 30.160156 L 45.902344 15.125 Z M 39.355469 29.558594 L 35.410156 29.558594 L 38.359375 26.164062 Z M 35.160156 15.625 L 37.859375 24.464844 L 33.960938 28.960938 L 30.414062 21.917969 Z M 32.5625 29.558594 L 24.570312 29.558594 L 29.367188 23.265625 Z M 22.074219 5.433594 L 22.972656 3.683594 L 23.871094 5.433594 L 22.972656 7.230469 Z M 23.023438 10.578125 L 28.617188 21.71875 L 23.023438 29.109375 L 17.429688 21.667969 Z M 7.6875 26.214844 L 10.585938 29.558594 L 6.6875 29.558594 Z M 21.472656 29.558594 L 13.433594 29.558594 L 16.628906 23.167969 Z M 10.933594 15.625 L 15.628906 21.816406 L 12.082031 28.960938 L 8.238281 24.515625 Z M 3.691406 21.617188 L 6.539062 24.863281 L 5.640625 27.761719 Z M 39.554688 32.605469 L 6.4375 32.605469 L 6.4375 31.058594 L 39.554688 31.058594 Z M 40.355469 27.664062 L 39.507812 24.816406 L 42.304688 21.617188 Z M 40.355469 27.664062 " fill-opacity="1" fill-rule="nonzero"/></g></g></g></g><g clip-path="url(#a898508a35)"><path fill="#ec959d" d="M 49.792969 29.167969 C 49.792969 31.980469 47.503906 34.210938 44.460938 34.210938 C 41.046875 34.210938 38.277344 30.558594 38.277344 26.054688 C 38.277344 25.984375 38.277344 25.917969 38.28125 25.847656 L 34.984375 35.464844 L 33.65625 35.578125 L 27.214844 16.777344 C 27.164062 16.863281 27.109375 16.957031 27.054688 17.054688 L 22.632812 25.003906 L 27.113281 32.804688 C 28.15625 34.621094 28.527344 34.828125 29.714844 34.828125 L 30.117188 34.828125 L 30.117188 35.316406 L 24.945312 35.316406 L 24.945312 34.828125 L 25.496094 34.828125 C 26.476562 34.828125 26.910156 34.769531 26.910156 34.363281 C 26.910156 34.074219 26.707031 33.640625 26.304688 32.917969 L 22.199219 25.78125 L 18.34375 32.71875 C 14.9375 38.851562 12.277344 40.171875 8.171875 40.171875 C 6.746094 40.171875 5.605469 39.664062 4.707031 38.960938 C 3.328125 37.875 2.203125 36.195312 2.203125 33.796875 C 2.203125 30.359375 4.648438 27.8125 7.71875 27.316406 L 7.765625 27.601562 C 4.824219 28.078125 2.492188 30.507812 2.492188 33.796875 C 2.492188 36.097656 3.5625 37.691406 4.886719 38.730469 C 5.65625 39.339844 6.773438 39.621094 7.558594 39.621094 C 11.074219 39.621094 13.753906 36.8125 16.582031 31.675781 L 20.8125 23.992188 L 20.398438 23.316406 C 19.863281 22.578125 18.964844 21.972656 17.894531 21.972656 C 16.957031 21.972656 16.253906 22.527344 16.253906 23.316406 C 16.253906 23.929688 16.734375 24.3125 17.207031 24.3125 C 17.523438 24.3125 17.785156 24.140625 17.925781 23.960938 L 18.152344 24.136719 C 17.964844 24.378906 17.628906 24.601562 17.207031 24.601562 C 16.582031 24.601562 15.964844 24.097656 15.964844 23.316406 C 15.964844 22.320312 16.851562 21.679688 17.894531 21.679688 C 18.605469 21.679688 19.253906 21.933594 19.773438 22.296875 L 16.566406 17.054688 C 15.4375 15.265625 15.234375 14.828125 14.367188 14.828125 L 11.21875 14.828125 L 11.21875 14.542969 L 18.644531 14.542969 L 18.644531 15.0625 L 18.125 15.0625 C 17.203125 15.0625 16.765625 15.148438 16.765625 15.550781 C 16.765625 15.839844 17 16.304688 17.402344 16.96875 L 21.246094 23.210938 L 25.003906 16.449219 C 25.363281 15.804688 25.886719 15.367188 26.28125 15.175781 C 26.328125 15.152344 26.375 15.136719 26.417969 15.117188 L 26.417969 15.0625 L 24.917969 15.0625 L 24.917969 14.542969 L 30.503906 14.542969 L 30.503906 15.0625 L 29.25 15.0625 C 28.949219 15.0625 28.710938 15.089844 28.476562 15.214844 C 28.789062 15.410156 29.03125 15.78125 29.175781 16.1875 L 34.578125 31.996094 C 34.78125 32.542969 34.808594 32.890625 34.808594 33.007812 L 34.808594 33.035156 L 35.042969 33.035156 L 35.042969 33.007812 C 35.042969 32.917969 35.070312 32.574219 35.332031 31.90625 L 40.675781 16.59375 C 40.792969 16.246094 40.875 15.933594 40.875 15.675781 C 40.875 15.148438 40.535156 14.828125 39.460938 14.828125 L 35.445312 14.828125 L 35.445312 14.542969 L 43.710938 14.542969 L 43.710938 15.0625 L 43.132812 15.0625 C 42.09375 15.0625 41.902344 15.296875 41.457031 16.59375 L 38.773438 24.410156 C 38.632812 24.957031 38.566406 25.511719 38.566406 26.054688 C 38.566406 30.398438 41.207031 33.921875 44.460938 33.921875 C 47.355469 33.921875 49.503906 31.8125 49.503906 29.167969 C 49.503906 26.628906 47.625 24.785156 45.191406 24.785156 C 43.453125 24.785156 42.289062 25.679688 41.609375 26.753906 L 41.363281 26.601562 C 42.085938 25.460938 43.339844 24.496094 45.191406 24.496094 C 47.78125 24.496094 49.792969 26.472656 49.792969 29.167969 Z M 26.417969 15.0625 L 26.417969 15.117188 C 26.375 15.136719 26.328125 15.152344 26.28125 15.175781 C 26.074219 15.085938 25.8125 15.0625 25.449219 15.0625 Z M 26.417969 15.0625 " fill-opacity="1" fill-rule="nonzero"/></g></svg>