<svg xmlns="http://www.w3.org/2000/svg" xmlns:xlink="http://www.w3.org/1999/xlink" width="70" zoomAndPan="magnify" viewBox="0 0 52.5 52.499999" height="70" preserveAspectRatio="xMidYMid meet" version="1.0"><defs><clipPath id="5b9f163979"><path d="M 2.984375 8.105469 L 49.042969 8.105469 L 49.042969 43.765625 L 2.984375 43.765625 Z M 2.984375 8.105469 " clip-rule="nonzero"/></clipPath></defs><g clip-path="url(#5b9f163979)"><path fill="#f3bfc3" d="M 44.992188 42.871094 L 7.027344 42.871094 C 5.359375 42.871094 4.003906 41.515625 4.003906 39.847656 L 4.003906 20.648438 L 15.90625 20.648438 C 14.417969 22.703125 13.535156 25.226562 13.535156 27.957031 C 13.535156 34.835938 19.128906 40.429688 26.007812 40.429688 C 29.324219 40.429688 32.335938 39.132812 34.574219 37.019531 C 34.691406 38.351562 35.8125 39.402344 37.175781 39.402344 C 38.613281 39.402344 39.785156 38.230469 39.785156 36.789062 C 39.785156 35.351562 38.613281 34.179688 37.175781 34.179688 C 37.046875 34.179688 36.921875 34.191406 36.800781 34.207031 C 37.871094 32.367188 38.484375 30.234375 38.484375 27.957031 C 38.484375 25.226562 37.601562 22.703125 36.109375 20.648438 L 48.015625 20.648438 L 48.015625 39.847656 C 48.015625 41.515625 46.660156 42.871094 44.992188 42.871094 Z M 26.007812 39.417969 C 19.691406 39.417969 14.546875 34.277344 14.546875 27.957031 C 14.546875 21.636719 19.691406 16.496094 26.007812 16.496094 C 32.328125 16.496094 37.46875 21.636719 37.46875 27.957031 C 37.46875 34.277344 32.328125 39.417969 26.007812 39.417969 Z M 37.175781 35.191406 C 38.054688 35.191406 38.773438 35.910156 38.773438 36.789062 C 38.773438 37.671875 38.054688 38.390625 37.175781 38.390625 C 36.292969 38.390625 35.574219 37.671875 35.574219 36.789062 C 35.574219 35.910156 36.292969 35.191406 37.175781 35.191406 Z M 7.027344 13.042969 L 18.871094 13.042969 C 18.871094 13.042969 18.875 13.042969 18.875 13.042969 C 18.875 13.042969 18.878906 13.042969 18.878906 13.042969 L 44.992188 13.042969 C 46.660156 13.042969 48.015625 14.398438 48.015625 16.066406 L 48.015625 19.632812 L 35.292969 19.632812 C 33.007812 17.085938 29.691406 15.484375 26.007812 15.484375 C 22.324219 15.484375 19.007812 17.089844 16.722656 19.636719 C 16.714844 19.636719 16.707031 19.632812 16.695312 19.632812 L 4.003906 19.632812 L 4.003906 16.066406 C 4.003906 14.398438 5.359375 13.042969 7.027344 13.042969 Z M 6.992188 10.542969 C 6.992188 10.089844 7.359375 9.722656 7.8125 9.722656 L 13.792969 9.722656 C 14.242188 9.722656 14.609375 10.089844 14.609375 10.542969 L 14.609375 12.027344 L 7.027344 12.027344 C 7.015625 12.027344 7.003906 12.027344 6.992188 12.027344 Z M 20.5625 9.140625 L 31.457031 9.140625 L 32.4375 12.027344 L 19.582031 12.027344 Z M 44.992188 12.027344 L 33.507812 12.027344 L 32.300781 8.46875 C 32.230469 8.265625 32.035156 8.125 31.820312 8.125 L 20.199219 8.125 C 19.980469 8.125 19.789062 8.265625 19.71875 8.46875 L 18.511719 12.027344 L 15.621094 12.027344 L 15.621094 10.542969 C 15.621094 9.53125 14.800781 8.710938 13.792969 8.710938 L 7.8125 8.710938 C 6.800781 8.710938 5.980469 9.53125 5.980469 10.542969 L 5.980469 12.167969 C 4.257812 12.628906 2.988281 14.203125 2.988281 16.066406 L 2.988281 39.847656 C 2.988281 42.074219 4.800781 43.886719 7.027344 43.886719 L 44.992188 43.886719 C 47.21875 43.886719 49.03125 42.074219 49.03125 39.847656 L 49.03125 16.066406 C 49.03125 13.839844 47.21875 12.027344 44.992188 12.027344 " fill-opacity="1" fill-rule="nonzero"/></g><path fill="#f3bfc3" d="M 26.007812 36.285156 C 21.417969 36.285156 17.683594 32.546875 17.683594 27.957031 C 17.683594 23.367188 21.417969 19.628906 26.007812 19.628906 C 30.601562 19.628906 34.335938 23.367188 34.335938 27.957031 C 34.335938 32.546875 30.601562 36.285156 26.007812 36.285156 Z M 26.007812 18.617188 C 20.859375 18.617188 16.667969 22.808594 16.667969 27.957031 C 16.667969 33.105469 20.859375 37.296875 26.007812 37.296875 C 31.160156 37.296875 35.347656 33.105469 35.347656 27.957031 C 35.347656 22.808594 31.160156 18.617188 26.007812 18.617188 " fill-opacity="1" fill-rule="nonzero"/><path fill="#f3bfc3" d="M 26.007812 22.726562 C 23.125 22.726562 20.777344 25.074219 20.777344 27.957031 C 20.777344 28.238281 21.003906 28.464844 21.285156 28.464844 C 21.5625 28.464844 21.789062 28.238281 21.789062 27.957031 C 21.789062 25.632812 23.683594 23.738281 26.007812 23.738281 C 26.289062 23.738281 26.515625 23.511719 26.515625 23.230469 C 26.515625 22.953125 26.289062 22.726562 26.007812 22.726562 " fill-opacity="1" fill-rule="nonzero"/><path fill="#f3bfc3" d="M 40.5 17.046875 L 43.960938 17.046875 C 44.242188 17.046875 44.46875 16.820312 44.46875 16.542969 C 44.46875 16.261719 44.242188 16.035156 43.960938 16.035156 L 40.5 16.035156 C 40.21875 16.035156 39.992188 16.261719 39.992188 16.542969 C 39.992188 16.820312 40.21875 17.046875 40.5 17.046875 " fill-opacity="1" fill-rule="nonzero"/></svg>