<svg xmlns="http://www.w3.org/2000/svg" xmlns:xlink="http://www.w3.org/1999/xlink" width="70" zoomAndPan="magnify" viewBox="0 0 52.5 52.499999" height="70" preserveAspectRatio="xMidYMid meet" version="1.0"><defs><clipPath id="0f8e7d710f"><path d="M 4 8 L 48 8 L 48 44 L 4 44 Z M 4 8 " clip-rule="nonzero"/></clipPath><clipPath id="0ce3bde032"><path d="M 11.105469 7.941406 L 48.339844 18.234375 L 41.214844 44.011719 L 3.980469 33.71875 Z M 11.105469 7.941406 " clip-rule="nonzero"/></clipPath><clipPath id="902564b545"><path d="M 11.105469 7.941406 L 48.339844 18.234375 L 41.214844 44.011719 L 3.980469 33.71875 Z M 11.105469 7.941406 " clip-rule="nonzero"/></clipPath><clipPath id="f81a2901d9"><path d="M 10 9 L 47 9 L 47 30 L 10 30 Z M 10 9 " clip-rule="nonzero"/></clipPath><clipPath id="837c94c80d"><path d="M 11.105469 7.941406 L 48.339844 18.234375 L 41.214844 44.011719 L 3.980469 33.71875 Z M 11.105469 7.941406 " clip-rule="nonzero"/></clipPath><clipPath id="a122b07f01"><path d="M 11.105469 7.941406 L 48.339844 18.234375 L 41.214844 44.011719 L 3.980469 33.71875 Z M 11.105469 7.941406 " clip-rule="nonzero"/></clipPath><clipPath id="c537c57136"><path d="M 5 24 L 24 24 L 24 33 L 5 33 Z M 5 24 " clip-rule="nonzero"/></clipPath><clipPath id="5ee6403c57"><path d="M 11.105469 7.941406 L 48.339844 18.234375 L 41.214844 44.011719 L 3.980469 33.71875 Z M 11.105469 7.941406 " clip-rule="nonzero"/></clipPath><clipPath id="ce4a279af4"><path d="M 11.105469 7.941406 L 48.339844 18.234375 L 41.214844 44.011719 L 3.980469 33.71875 Z M 11.105469 7.941406 " clip-rule="nonzero"/></clipPath><clipPath id="b3c09364c1"><path d="M 28 26 L 42 26 L 42 43 L 28 43 Z M 28 26 " clip-rule="nonzero"/></clipPath><clipPath id="1318043d92"><path d="M 11.105469 7.941406 L 48.339844 18.234375 L 41.214844 44.011719 L 3.980469 33.71875 Z M 11.105469 7.941406 " clip-rule="nonzero"/></clipPath><clipPath id="4a189b62a0"><path d="M 11.105469 7.941406 L 48.339844 18.234375 L 41.214844 44.011719 L 3.980469 33.71875 Z M 11.105469 7.941406 " clip-rule="nonzero"/></clipPath></defs><g clip-path="url(#0f8e7d710f)"><g clip-path="url(#0ce3bde032)"><g clip-path="url(#902564b545)"><path fill="#ffffff" d="M 13.40625 10.085938 C 12.699219 9.890625 11.964844 10.304688 11.769531 11.011719 L 6.09375 31.550781 C 5.898438 32.257812 6.3125 32.992188 7.019531 33.1875 L 38.585938 41.914062 C 39.292969 42.109375 40.027344 41.691406 40.222656 40.984375 L 45.898438 20.445312 C 46.09375 19.738281 45.679688 19.003906 44.972656 18.808594 Z M 38.199219 43.3125 L 6.632812 34.585938 C 5.15625 34.179688 4.285156 32.644531 4.695312 31.164062 L 10.371094 10.625 C 10.78125 9.148438 12.316406 8.277344 13.792969 8.683594 L 45.359375 17.410156 C 46.835938 17.820312 47.707031 19.351562 47.296875 20.832031 L 41.621094 41.371094 C 41.210938 42.851562 39.679688 43.71875 38.199219 43.3125 " fill-opacity="1" fill-rule="nonzero"/></g></g></g><g clip-path="url(#f81a2901d9)"><g clip-path="url(#837c94c80d)"><g clip-path="url(#a122b07f01)"><path fill="#ffffff" d="M 25.429688 28.957031 C 24.882812 28.804688 24.386719 28.496094 24.046875 28.050781 L 10.792969 10.664062 L 11.949219 9.78125 L 25.203125 27.171875 C 25.484375 27.542969 26.132812 27.714844 26.5625 27.535156 L 46.390625 19.21875 L 46.953125 20.554688 L 27.125 28.875 C 26.597656 29.09375 25.988281 29.113281 25.429688 28.957031 " fill-opacity="1" fill-rule="nonzero"/></g></g></g><g clip-path="url(#c537c57136)"><g clip-path="url(#5ee6403c57)"><g clip-path="url(#ce4a279af4)"><path fill="#ffffff" d="M 5.554688 32.914062 L 5.015625 31.566406 L 22.542969 24.5625 L 23.082031 25.910156 L 5.554688 32.914062 " fill-opacity="1" fill-rule="nonzero"/></g></g></g><g clip-path="url(#b3c09364c1)"><g clip-path="url(#1318043d92)"><g clip-path="url(#4a189b62a0)"><path fill="#ffffff" d="M 39.953125 42.507812 L 28.921875 27.515625 L 30.09375 26.65625 L 41.121094 41.648438 L 39.953125 42.507812 " fill-opacity="1" fill-rule="nonzero"/></g></g></g></svg>