<svg xmlns="http://www.w3.org/2000/svg" xmlns:xlink="http://www.w3.org/1999/xlink" width="200" zoomAndPan="magnify" viewBox="0 0 150 30.000001" height="40" preserveAspectRatio="xMidYMid meet" version="1.2"><defs><clipPath id="346e635362"><path d="M 5 0 L 141 0 L 141 29.03125 L 5 29.03125 Z M 5 0 "/></clipPath><clipPath id="3e2381c7ca"><path d="M 114 17 L 134 17 L 134 26 L 114 26 Z M 114 17 "/></clipPath><clipPath id="da9f91646b"><path d="M 130.46875 34.03125 L 64.664062 16.75 L 69.875 -3.082031 L 135.675781 14.199219 Z M 130.46875 34.03125 "/></clipPath><clipPath id="3ddca707b9"><path d="M 130.46875 34.03125 L 64.664062 16.75 L 69.875 -3.082031 L 135.675781 14.199219 Z M 130.46875 34.03125 "/></clipPath><clipPath id="0feafefffc"><path d="M 127 19 L 133 19 L 133 21 L 127 21 Z M 127 19 "/></clipPath><clipPath id="eee50efc48"><path d="M 130.46875 34.03125 L 64.664062 16.75 L 69.875 -3.082031 L 135.675781 14.199219 Z M 130.46875 34.03125 "/></clipPath><clipPath id="e54fb0188d"><path d="M 130.46875 34.03125 L 64.664062 16.75 L 69.875 -3.082031 L 135.675781 14.199219 Z M 130.46875 34.03125 "/></clipPath><clipPath id="cd55329ba5"><path d="M 119 16 L 132 16 L 132 21 L 119 21 Z M 119 16 "/></clipPath><clipPath id="fe62f28262"><path d="M 130.46875 34.03125 L 64.664062 16.75 L 69.875 -3.082031 L 135.675781 14.199219 Z M 130.46875 34.03125 "/></clipPath><clipPath id="d2d6a8f7d9"><path d="M 130.46875 34.03125 L 64.664062 16.75 L 69.875 -3.082031 L 135.675781 14.199219 Z M 130.46875 34.03125 "/></clipPath><clipPath id="a79f4036ca"><path d="M 64 6 L 122 6 L 122 28 L 64 28 Z M 64 6 "/></clipPath><clipPath id="d472319897"><path d="M 130.46875 34.03125 L 64.664062 16.75 L 69.875 -3.082031 L 135.675781 14.199219 Z M 130.46875 34.03125 "/></clipPath><clipPath id="b09ebf3df7"><path d="M 130.46875 34.03125 L 64.664062 16.75 L 69.875 -3.082031 L 135.675781 14.199219 Z M 130.46875 34.03125 "/></clipPath><clipPath id="dac626aebc"><path d="M 102 15 L 104 15 L 104 17 L 102 17 Z M 102 15 "/></clipPath><clipPath id="1368552108"><path d="M 130.46875 34.03125 L 64.664062 16.75 L 69.875 -3.082031 L 135.675781 14.199219 Z M 130.46875 34.03125 "/></clipPath><clipPath id="419a3722c4"><path d="M 130.46875 34.03125 L 64.664062 16.75 L 69.875 -3.082031 L 135.675781 14.199219 Z M 130.46875 34.03125 "/></clipPath><clipPath id="958864f591"><path d="M 91 15 L 93 15 L 93 17 L 91 17 Z M 91 15 "/></clipPath><clipPath id="f4971ed297"><path d="M 130.46875 34.03125 L 64.664062 16.75 L 69.875 -3.082031 L 135.675781 14.199219 Z M 130.46875 34.03125 "/></clipPath><clipPath id="53de8e3b26"><path d="M 130.46875 34.03125 L 64.664062 16.75 L 69.875 -3.082031 L 135.675781 14.199219 Z M 130.46875 34.03125 "/></clipPath><clipPath id="bcb4792a2b"><path d="M 118 17 L 120 17 L 120 18 L 118 18 Z M 118 17 "/></clipPath><clipPath id="bfccef5c41"><path d="M 130.46875 34.03125 L 64.664062 16.75 L 69.875 -3.082031 L 135.675781 14.199219 Z M 130.46875 34.03125 "/></clipPath><clipPath id="0b5edf667f"><path d="M 130.46875 34.03125 L 64.664062 16.75 L 69.875 -3.082031 L 135.675781 14.199219 Z M 130.46875 34.03125 "/></clipPath><clipPath id="f6a35fd359"><path d="M 2 5 L 23 5 L 23 15 L 2 15 Z M 2 5 "/></clipPath><clipPath id="c22ef1b453"><path d="M 5.777344 -2.78125 L 73.382812 14.976562 L 67.9375 35.707031 L 0.332031 17.953125 Z M 5.777344 -2.78125 "/></clipPath><clipPath id="5aaa84cedb"><path d="M 5.777344 -2.78125 L 73.382812 14.976562 L 67.9375 35.707031 L 0.332031 17.953125 Z M 5.777344 -2.78125 "/></clipPath><clipPath id="920465b0a9"><path d="M 3 10 L 9 10 L 9 13 L 3 13 Z M 3 10 "/></clipPath><clipPath id="e3be3e0bc2"><path d="M 5.777344 -2.78125 L 73.382812 14.976562 L 67.9375 35.707031 L 0.332031 17.953125 Z M 5.777344 -2.78125 "/></clipPath><clipPath id="d64be13c5b"><path d="M 5.777344 -2.78125 L 73.382812 14.976562 L 67.9375 35.707031 L 0.332031 17.953125 Z M 5.777344 -2.78125 "/></clipPath><clipPath id="fd80047f36"><path d="M 4 11 L 18 11 L 18 16 L 4 16 Z M 4 11 "/></clipPath><clipPath id="874b3f4a0f"><path d="M 5.777344 -2.78125 L 73.382812 14.976562 L 67.9375 35.707031 L 0.332031 17.953125 Z M 5.777344 -2.78125 "/></clipPath><clipPath id="f51df45037"><path d="M 5.777344 -2.78125 L 73.382812 14.976562 L 67.9375 35.707031 L 0.332031 17.953125 Z M 5.777344 -2.78125 "/></clipPath><clipPath id="8efd4440c4"><path d="M 14 3 L 73 3 L 73 26 L 14 26 Z M 14 3 "/></clipPath><clipPath id="6c568f857e"><path d="M 5.777344 -2.78125 L 73.382812 14.976562 L 67.9375 35.707031 L 0.332031 17.953125 Z M 5.777344 -2.78125 "/></clipPath><clipPath id="6ab6e8ee50"><path d="M 5.777344 -2.78125 L 73.382812 14.976562 L 67.9375 35.707031 L 0.332031 17.953125 Z M 5.777344 -2.78125 "/></clipPath><clipPath id="5b230d84ba"><path d="M 33 15 L 35 15 L 35 17 L 33 17 Z M 33 15 "/></clipPath><clipPath id="dc8d0a8de4"><path d="M 5.777344 -2.78125 L 73.382812 14.976562 L 67.9375 35.707031 L 0.332031 17.953125 Z M 5.777344 -2.78125 "/></clipPath><clipPath id="3474ea6029"><path d="M 5.777344 -2.78125 L 73.382812 14.976562 L 67.9375 35.707031 L 0.332031 17.953125 Z M 5.777344 -2.78125 "/></clipPath><clipPath id="b1c9208427"><path d="M 44 14 L 46 14 L 46 16 L 44 16 Z M 44 14 "/></clipPath><clipPath id="0eab9c4bb5"><path d="M 5.777344 -2.78125 L 73.382812 14.976562 L 67.9375 35.707031 L 0.332031 17.953125 Z M 5.777344 -2.78125 "/></clipPath><clipPath id="b6beb8d8d6"><path d="M 5.777344 -2.78125 L 73.382812 14.976562 L 67.9375 35.707031 L 0.332031 17.953125 Z M 5.777344 -2.78125 "/></clipPath><clipPath id="f22eb46e44"><path d="M 17 14 L 18 14 L 18 15 L 17 15 Z M 17 14 "/></clipPath><clipPath id="a2a75ec763"><path d="M 5.777344 -2.78125 L 73.382812 14.976562 L 67.9375 35.707031 L 0.332031 17.953125 Z M 5.777344 -2.78125 "/></clipPath><clipPath id="452a147cba"><path d="M 5.777344 -2.78125 L 73.382812 14.976562 L 67.9375 35.707031 L 0.332031 17.953125 Z M 5.777344 -2.78125 "/></clipPath><clipPath id="8dc533bba1"><rect x="0" width="136" y="0" height="30"/></clipPath></defs><g id="bdb57f27bb"><g clip-rule="nonzero" clip-path="url(#346e635362)"><g transform="matrix(1,0,0,1,5,0.000000000000005692)"><g clip-path="url(#8dc533bba1)"><g clip-rule="nonzero" clip-path="url(#3e2381c7ca)"><g clip-rule="nonzero" clip-path="url(#da9f91646b)"><g clip-rule="nonzero" clip-path="url(#3ddca707b9)"><path style=" stroke:none;fill-rule:nonzero;fill:#d7ae54;fill-opacity:1;" d="M 125.679688 21.167969 C 124.320312 21.078125 122.964844 20.757812 121.816406 19.996094 C 121.277344 19.632812 120.785156 19.207031 120.246094 18.84375 C 119.722656 18.488281 119.167969 18.183594 118.589844 17.933594 C 117.269531 17.363281 115.894531 17.082031 114.457031 17.085938 C 114.445312 17.082031 114.335938 17.09375 114.363281 17.132812 C 114.589844 17.550781 114.867188 17.929688 115.191406 18.277344 C 115.230469 18.316406 115.273438 18.355469 115.316406 18.390625 C 115.578125 18.632812 115.859375 18.847656 116.164062 19.03125 C 116.523438 19.253906 116.90625 19.453125 117.277344 19.667969 C 117.710938 19.921875 118.132812 20.207031 118.542969 20.5 C 120.175781 21.671875 121.628906 23.070312 123.230469 24.285156 C 124.132812 24.972656 125.117188 25.710938 126.242188 25.972656 C 126.261719 25.980469 126.445312 25.964844 126.378906 25.921875 C 124.785156 24.847656 123.917969 23.097656 122.722656 21.640625 C 122.425781 21.257812 122.078125 20.921875 121.6875 20.640625 C 121.261719 20.363281 120.808594 20.144531 120.324219 19.988281 C 119.308594 19.621094 118.257812 19.316406 117.207031 19.050781 C 116.636719 18.902344 116.035156 18.792969 115.5625 18.410156 C 115.53125 18.386719 115.503906 18.359375 115.472656 18.332031 C 115.1875 18.0625 114.988281 17.742188 114.871094 17.367188 C 114.859375 17.324219 114.753906 17.324219 114.699219 17.34375 L 114.589844 17.164062 C 115.277344 17.171875 115.953125 17.25 116.621094 17.398438 C 116.535156 17.414062 116.460938 17.445312 116.394531 17.496094 C 116.324219 17.542969 116.273438 17.605469 116.234375 17.679688 C 116.191406 17.753906 116.171875 17.835938 116.167969 17.917969 C 116.167969 18.003906 116.183594 18.082031 116.21875 18.160156 C 116.253906 18.238281 116.300781 18.300781 116.367188 18.355469 C 116.429688 18.410156 116.503906 18.445312 116.585938 18.464844 C 116.667969 18.484375 116.75 18.488281 116.832031 18.46875 C 116.914062 18.449219 116.988281 18.414062 117.054688 18.363281 C 117.121094 18.3125 117.171875 18.246094 117.207031 18.171875 C 117.242188 18.09375 117.261719 18.015625 117.261719 17.929688 C 117.261719 17.847656 117.242188 17.765625 117.203125 17.691406 C 117.164062 17.617188 117.113281 17.554688 117.046875 17.503906 C 117.476562 17.617188 117.902344 17.757812 118.3125 17.929688 C 118.914062 18.179688 119.484375 18.484375 120.023438 18.847656 C 120.570312 19.214844 121.066406 19.648438 121.621094 20.015625 C 123.804688 21.480469 126.550781 21.351562 129.054688 21.132812 C 130.550781 21.003906 132.050781 20.855469 133.558594 21.027344 C 133.585938 21.035156 133.75 21 133.65625 20.964844 L 132.707031 20.703125 C 132.898438 20.773438 133.085938 20.847656 133.277344 20.921875 C 130.742188 20.710938 128.21875 21.332031 125.679688 21.167969 Z M 116.410156 18.9375 C 116.925781 19.085938 117.441406 19.199219 117.957031 19.34375 C 118.511719 19.5 119.058594 19.667969 119.605469 19.847656 C 120.117188 20 120.609375 20.195312 121.089844 20.429688 C 121.558594 20.679688 121.96875 21.007812 122.320312 21.410156 C 122.964844 22.136719 123.476562 22.957031 124.046875 23.730469 C 124.617188 24.503906 125.230469 25.238281 126.007812 25.8125 C 125.128906 25.519531 124.335938 24.9375 123.605469 24.394531 C 122.8125 23.804688 122.058594 23.167969 121.304688 22.535156 C 120.550781 21.902344 119.816406 21.277344 119.039062 20.6875 C 118.292969 20.144531 117.515625 19.648438 116.707031 19.199219 C 116.511719 19.089844 116.3125 18.96875 116.121094 18.84375 C 116.210938 18.878906 116.308594 18.910156 116.410156 18.9375 Z M 116.410156 18.9375 "/></g></g></g><g clip-rule="nonzero" clip-path="url(#0feafefffc)"><g clip-rule="nonzero" clip-path="url(#eee50efc48)"><g clip-rule="nonzero" clip-path="url(#e54fb0188d)"><path style=" stroke:none;fill-rule:nonzero;fill:#d7ae54;fill-opacity:1;" d="M 130.558594 19.96875 C 129.582031 19.6875 128.589844 19.460938 127.589844 19.289062 L 132.707031 20.703125 C 132 20.433594 131.28125 20.1875 130.558594 19.96875 Z M 130.558594 19.96875 "/></g></g></g><g clip-rule="nonzero" clip-path="url(#cd55329ba5)"><g clip-rule="nonzero" clip-path="url(#fe62f28262)"><g clip-rule="nonzero" clip-path="url(#d2d6a8f7d9)"><path style=" stroke:none;fill-rule:nonzero;fill:#d7ae54;fill-opacity:1;" d="M 119.691406 18.339844 C 119.644531 18.328125 119.449219 18.363281 119.546875 18.394531 L 123.839844 19.738281 C 124.511719 19.949219 125.183594 20.183594 125.871094 20.332031 C 126.5 20.457031 127.132812 20.480469 127.769531 20.398438 C 128.523438 20.320312 129.269531 20.148438 130.03125 20.15625 C 130.152344 20.160156 130.152344 20.085938 130.03125 20.082031 C 128.71875 20.0625 127.445312 20.539062 126.132812 20.296875 C 125.433594 20.167969 124.757812 19.925781 124.082031 19.714844 L 122.03125 19.074219 L 120.425781 18.570312 C 121.03125 18.625 121.65625 18.582031 122.25 18.601562 C 123.179688 18.628906 124.121094 18.621094 125.03125 18.8125 C 125.863281 18.984375 126.722656 19.128906 127.589844 19.285156 L 126.289062 18.925781 C 126.378906 18.933594 126.460938 18.925781 126.546875 18.902344 C 126.613281 18.890625 126.675781 18.871094 126.742188 18.847656 C 127.550781 18.640625 128.253906 18.140625 129.003906 17.792969 C 129.914062 17.386719 130.84375 17.03125 131.792969 16.722656 C 131.921875 16.679688 131.757812 16.613281 131.6875 16.632812 C 130.433594 16.929688 129.167969 17.207031 127.921875 17.539062 C 127.332031 17.6875 126.753906 17.875 126.1875 18.097656 C 125.660156 18.3125 125.132812 18.578125 124.550781 18.582031 C 124.460938 18.582031 124.4375 18.640625 124.484375 18.671875 C 123.960938 18.617188 123.441406 18.578125 122.917969 18.550781 C 122.417969 18.523438 121.917969 18.507812 121.417969 18.507812 C 120.839844 18.503906 120.246094 18.535156 119.691406 18.339844 Z M 127.902344 17.660156 C 128.828125 17.410156 129.765625 17.195312 130.703125 16.976562 C 130.136719 17.183594 129.574219 17.394531 129.027344 17.640625 C 128.605469 17.832031 128.203125 18.046875 127.800781 18.265625 C 127.527344 18.421875 127.238281 18.554688 126.941406 18.664062 L 126.933594 18.652344 C 126.957031 18.644531 126.980469 18.636719 127.003906 18.625 C 127.058594 18.601562 127.023438 18.554688 126.984375 18.542969 C 126.960938 18.535156 126.9375 18.53125 126.914062 18.527344 L 127.054688 18.476562 C 127.128906 18.449219 127.105469 18.417969 127.058594 18.398438 C 127.078125 18.359375 126.972656 18.316406 126.914062 18.339844 L 126.902344 18.34375 L 126.894531 18.339844 L 126.742188 18.386719 C 126.746094 18.375 126.746094 18.367188 126.730469 18.355469 C 126.765625 18.324219 126.6875 18.273438 126.628906 18.273438 L 126.660156 18.265625 C 126.722656 18.246094 126.71875 18.21875 126.6875 18.199219 C 126.730469 18.183594 126.742188 18.167969 126.730469 18.148438 L 126.773438 18.128906 C 126.863281 18.082031 126.726562 18.042969 126.652344 18.050781 C 127.066406 17.910156 127.484375 17.777344 127.902344 17.660156 Z M 126.558594 18.089844 L 126.402344 18.15625 Z M 125.660156 18.449219 Z M 125.476562 18.515625 C 125.460938 18.53125 125.46875 18.546875 125.484375 18.558594 L 125.320312 18.597656 L 125.308594 18.605469 L 125.261719 18.589844 C 125.242188 18.589844 125.226562 18.59375 125.207031 18.59375 L 125.199219 18.59375 C 125.292969 18.578125 125.386719 18.546875 125.480469 18.515625 Z M 125.476562 18.515625 "/></g></g></g><g clip-rule="nonzero" clip-path="url(#a79f4036ca)"><g clip-rule="nonzero" clip-path="url(#d472319897)"><g clip-rule="nonzero" clip-path="url(#b09ebf3df7)"><path style=" stroke:none;fill-rule:nonzero;fill:#d7ae54;fill-opacity:1;" d="M 65.113281 16.269531 C 67.613281 16.238281 70.09375 16.023438 72.558594 15.628906 C 72.703125 15.605469 72.683594 15.5 72.585938 15.46875 C 73.140625 15.53125 73.652344 15.714844 74.121094 16.019531 C 74.746094 16.425781 75.253906 16.984375 75.78125 17.503906 C 76.84375 18.550781 77.996094 19.542969 79.304688 20.273438 C 79.953125 20.640625 80.636719 20.929688 81.355469 21.132812 C 81.519531 21.175781 81.679688 21.21875 81.84375 21.25 C 81.976562 21.277344 82.144531 21.328125 82.273438 21.273438 C 82.515625 21.160156 82.339844 20.738281 82.273438 20.5625 C 81.777344 19.191406 80.359375 18.546875 79.230469 17.792969 C 78.890625 17.539062 78.535156 17.3125 78.164062 17.113281 C 77.773438 16.921875 77.367188 16.890625 76.945312 16.839844 C 76.0625 16.734375 75.351562 16.140625 74.480469 16.003906 C 74.453125 16.003906 74.429688 16.007812 74.40625 16.015625 C 74.269531 15.921875 74.132812 15.835938 73.988281 15.753906 C 73.414062 15.445312 72.804688 15.296875 72.152344 15.308594 L 72.277344 15.28125 L 73.074219 15.132812 L 76.082031 14.820312 C 76.117188 14.820312 76.148438 14.808594 76.175781 14.785156 L 78.347656 14.46875 C 78.964844 14.59375 79.679688 14.742188 79.808594 14.808594 C 79.804688 14.824219 79.800781 14.835938 79.835938 14.851562 L 79.894531 14.878906 C 79.898438 14.886719 79.90625 14.890625 79.910156 14.894531 C 80.242188 15.089844 80.554688 15.304688 80.859375 15.539062 L 80.871094 15.554688 C 81.144531 15.832031 81.449219 16.066406 81.785156 16.257812 L 81.863281 16.296875 C 81.9375 16.351562 82.011719 16.402344 82.085938 16.453125 C 82.867188 16.972656 83.753906 17.238281 84.628906 17.570312 C 85.566406 17.921875 86.488281 18.324219 87.402344 18.742188 C 87.847656 18.945312 88.285156 19.164062 88.742188 19.34375 C 89.1875 19.507812 89.640625 19.636719 90.105469 19.722656 C 91.199219 19.949219 92.214844 20.425781 93.304688 20.648438 C 93.34375 20.660156 93.480469 20.625 93.417969 20.566406 C 92.613281 19.820312 91.824219 19.054688 91 18.332031 C 90.234375 17.660156 89.414062 17.125 88.429688 16.847656 C 87.925781 16.703125 87.410156 16.601562 86.898438 16.492188 C 86.355469 16.378906 85.8125 16.265625 85.269531 16.164062 C 84.21875 15.960938 83.15625 15.84375 82.082031 15.8125 C 81.914062 15.820312 81.746094 15.800781 81.582031 15.761719 C 81.429688 15.703125 81.292969 15.617188 81.175781 15.5 C 80.992188 15.308594 80.796875 15.132812 80.589844 14.964844 C 80.167969 14.664062 79.699219 14.484375 79.183594 14.429688 L 78.851562 14.394531 L 79.285156 14.332031 L 79.945312 14.28125 C 79.960938 14.285156 79.980469 14.289062 80 14.289062 C 81.019531 14.296875 82.03125 14.242188 83.042969 14.125 C 83.148438 14.113281 83.167969 14.0625 83.140625 14.023438 L 83.511719 14.015625 C 84.371094 14.179688 85.238281 14.253906 86.113281 14.242188 C 87.242188 14.332031 88.371094 14.382812 89.503906 14.398438 C 90.601562 14.507812 91.617188 14.847656 92.5625 15.417969 C 93.03125 15.6875 93.457031 16.015625 93.835938 16.402344 C 94.199219 16.796875 94.207031 17.296875 94.253906 17.800781 C 94.316406 18.320312 94.441406 18.820312 94.625 19.308594 C 94.769531 19.804688 94.984375 20.269531 95.261719 20.703125 C 95.84375 21.53125 96.8125 21.929688 97.636719 22.464844 C 98.675781 23.140625 99.46875 24.101562 100.25 25.050781 C 100.292969 25.105469 100.472656 25.089844 100.433594 24.996094 C 99.894531 23.597656 99.667969 22.117188 99.308594 20.671875 C 99.148438 20.015625 98.980469 19.320312 98.625 18.734375 C 98.476562 18.488281 98.289062 18.277344 98.0625 18.101562 C 97.765625 17.910156 97.445312 17.777344 97.101562 17.703125 C 96.207031 17.46875 95.3125 17.234375 94.417969 16.996094 C 94.402344 16.996094 94.386719 16.996094 94.371094 17 C 94.320312 16.773438 94.222656 16.566406 94.078125 16.386719 C 93.71875 15.992188 93.308594 15.660156 92.84375 15.390625 C 92.101562 14.921875 91.300781 14.59375 90.441406 14.402344 C 90.691406 14.402344 90.941406 14.394531 91.1875 14.398438 L 91.347656 14.394531 C 91.589844 14.410156 91.832031 14.421875 92.078125 14.429688 C 92.878906 14.5 94.691406 14.53125 94.679688 14.515625 L 95.132812 14.539062 C 95.160156 14.558594 95.191406 14.566406 95.222656 14.5625 L 96.636719 14.664062 C 96.671875 14.6875 96.710938 14.695312 96.75 14.695312 L 97.023438 14.710938 C 97.21875 14.761719 97.414062 14.816406 97.601562 14.886719 C 97.960938 15.015625 98.3125 15.167969 98.652344 15.347656 C 100.351562 16.917969 102.085938 18.457031 103.890625 19.910156 C 104.359375 20.289062 104.835938 20.660156 105.3125 21.027344 C 105.777344 21.378906 106.261719 21.714844 106.695312 22.105469 C 107.5 22.875 107.957031 23.898438 108.621094 24.769531 C 109.125 25.425781 109.71875 26.097656 109.964844 26.898438 L 110.074219 27.484375 C 110.085938 27.554688 110.277344 27.558594 110.273438 27.484375 C 110.261719 27.285156 110.222656 27.089844 110.167969 26.898438 C 110.050781 26.28125 109.933594 25.660156 109.820312 25.042969 C 109.683594 24.324219 109.5625 23.59375 109.253906 22.925781 C 108.738281 21.816406 107.816406 20.972656 106.90625 20.191406 C 106.4375 19.789062 105.960938 19.394531 105.511719 18.96875 C 105.417969 18.820312 105.3125 18.679688 105.203125 18.542969 C 104.511719 17.679688 103.558594 17.082031 102.53125 16.695312 C 101.894531 16.464844 101.242188 16.296875 100.570312 16.203125 C 100.542969 16.195312 100.433594 16.214844 100.441406 16.253906 C 100.15625 16.078125 99.871094 15.902344 99.582031 15.730469 C 99.328125 15.578125 99.074219 15.433594 98.8125 15.300781 L 98.589844 15.089844 C 98.527344 15.058594 98.46875 15.0625 98.410156 15.101562 C 98.316406 15.058594 98.21875 15.015625 98.121094 14.972656 C 97.929688 14.894531 97.742188 14.828125 97.539062 14.761719 L 99.15625 14.867188 C 99.382812 14.886719 99.605469 14.90625 99.832031 14.929688 C 99.835938 14.957031 99.863281 14.980469 99.9375 14.988281 L 102.453125 15.304688 C 102.496094 15.378906 102.550781 15.4375 102.621094 15.484375 C 102.691406 15.53125 102.769531 15.5625 102.855469 15.570312 C 102.9375 15.582031 103.019531 15.574219 103.101562 15.542969 C 103.179688 15.515625 103.25 15.472656 103.308594 15.410156 L 104.402344 15.546875 C 104.441406 15.550781 104.484375 15.546875 104.519531 15.527344 L 104.597656 15.535156 C 104.585938 15.535156 104.578125 15.542969 104.570312 15.550781 L 104.546875 15.554688 C 104.425781 15.578125 104.578125 15.617188 104.625 15.617188 L 104.785156 15.609375 C 105.304688 15.734375 105.746094 16.054688 106.214844 16.296875 C 106.617188 16.503906 107.039062 16.640625 107.480469 16.714844 C 107.882812 16.777344 108.289062 16.789062 108.691406 16.742188 C 109.300781 17.292969 111.023438 17.660156 111.84375 17.707031 C 112.246094 17.734375 112.644531 17.695312 113.035156 17.585938 C 113.445312 17.457031 113.847656 17.308594 114.242188 17.136719 C 114.679688 16.972656 115.128906 16.871094 115.597656 16.839844 C 116 16.808594 116.390625 16.726562 116.773438 16.601562 C 117.535156 16.347656 118.242188 15.953125 118.976562 15.632812 C 119.417969 15.4375 119.867188 15.285156 120.332031 15.171875 C 120.808594 15.054688 121.285156 14.945312 121.714844 14.691406 C 121.792969 14.640625 121.6875 14.601562 121.640625 14.597656 C 120.078125 14.496094 118.53125 14.769531 116.976562 14.886719 C 116.171875 14.949219 115.367188 14.949219 114.5625 14.882812 C 114.183594 14.84375 113.800781 14.835938 113.421875 14.863281 C 113.332031 14.871094 113.242188 14.882812 113.152344 14.898438 C 113.546875 14.796875 113.933594 14.675781 114.316406 14.53125 C 114.777344 14.347656 115.226562 14.132812 115.660156 13.882812 C 116.675781 13.316406 117.613281 12.597656 118.542969 11.890625 C 118.601562 11.847656 118.445312 11.839844 118.429688 11.839844 C 117.96875 11.886719 117.523438 11.984375 117.089844 12.140625 C 116.628906 12.277344 116.160156 12.378906 115.683594 12.453125 C 114.738281 12.597656 113.78125 12.648438 112.832031 12.757812 C 111.90625 12.867188 111.007812 13.078125 110.136719 13.398438 C 109.671875 13.570312 109.207031 13.753906 108.746094 13.910156 C 108.289062 14.066406 107.816406 14.191406 107.355469 14.351562 C 106.886719 14.527344 106.429688 14.738281 105.984375 14.980469 C 105.617188 15.1875 105.230469 15.355469 104.828125 15.484375 L 104.726562 15.476562 L 104.589844 15.460938 C 104.601562 15.425781 104.578125 15.390625 104.488281 15.378906 L 103.421875 15.246094 C 103.433594 15.222656 103.445312 15.195312 103.453125 15.164062 C 103.496094 15 103.472656 14.847656 103.371094 14.707031 C 103.273438 14.566406 103.140625 14.492188 102.96875 14.476562 C 102.796875 14.464844 102.652344 14.519531 102.535156 14.640625 C 102.414062 14.761719 102.363281 14.910156 102.382812 15.078125 C 101.710938 14.976562 101.042969 14.890625 100.375 14.816406 C 100.351562 14.78125 100.316406 14.765625 100.273438 14.769531 L 97.050781 14.535156 C 97.015625 14.488281 96.96875 14.46875 96.910156 14.472656 L 96.195312 14.433594 C 95.222656 14.234375 94.242188 14.109375 93.253906 14.054688 L 93.042969 14.046875 C 94.300781 13.832031 95.71875 13.597656 96.1875 13.597656 C 96.699219 13.621094 97.207031 13.566406 97.710938 13.441406 C 98.238281 13.289062 98.730469 13.039062 99.246094 12.847656 C 100.257812 12.46875 101.257812 12.050781 102.03125 11.261719 C 102.425781 10.859375 102.667969 10.371094 102.90625 9.867188 C 103.117188 9.382812 103.382812 8.925781 103.699219 8.503906 C 104.4375 7.550781 105.421875 6.828125 106.382812 6.121094 C 106.4375 6.082031 106.25 6.066406 106.210938 6.089844 C 105.355469 6.597656 104.4375 6.996094 103.5625 7.46875 C 102.753906 7.910156 102.003906 8.433594 101.3125 9.046875 C 100.636719 9.636719 99.992188 10.261719 99.257812 10.78125 C 98.902344 11.035156 98.523438 11.25 98.125 11.429688 C 97.710938 11.609375 97.273438 11.722656 96.847656 11.878906 C 96.410156 12.019531 96.019531 12.246094 95.679688 12.554688 C 95.359375 12.863281 95.105469 13.199219 94.699219 13.398438 C 94.554688 13.460938 94.410156 13.535156 94.273438 13.617188 C 94.085938 13.648438 93.226562 13.855469 92.464844 14.042969 C 92.03125 14.046875 91.601562 14.066406 91.167969 14.085938 C 91.25 14.054688 91.320312 14.007812 91.378906 13.941406 C 91.4375 13.878906 91.480469 13.804688 91.503906 13.71875 C 91.527344 13.636719 91.53125 13.550781 91.511719 13.464844 C 91.496094 13.378906 91.460938 13.300781 91.40625 13.234375 C 91.351562 13.164062 91.285156 13.113281 91.207031 13.074219 C 91.128906 13.039062 91.042969 13.023438 90.957031 13.023438 C 90.871094 13.027344 90.789062 13.050781 90.710938 13.09375 C 90.636719 13.136719 90.574219 13.191406 90.523438 13.265625 C 90.476562 13.339844 90.445312 13.417969 90.433594 13.503906 C 90.421875 13.589844 90.433594 13.675781 90.460938 13.757812 C 90.492188 13.839844 90.539062 13.910156 90.601562 13.96875 C 90.667969 14.03125 90.738281 14.074219 90.824219 14.097656 C 90.613281 14.105469 90.402344 14.109375 90.1875 14.109375 L 90.128906 14.105469 C 90.148438 14.0625 89.964844 13.960938 89.90625 13.957031 L 87.015625 13.859375 C 86.75 13.816406 86.042969 13.796875 86.175781 13.820312 C 86.332031 13.851562 86.488281 13.875 86.644531 13.902344 C 86.640625 13.90625 86.640625 13.910156 86.640625 13.914062 C 86.550781 13.910156 85.464844 13.820312 85.160156 13.804688 L 84.800781 13.777344 C 84.753906 13.773438 84.707031 13.773438 84.660156 13.789062 L 84.648438 13.785156 C 85.582031 13.300781 86.53125 12.835938 87.5625 12.582031 C 88.597656 12.328125 89.671875 12.214844 90.714844 11.957031 C 91.632812 11.734375 92.550781 11.386719 93.289062 10.777344 C 94.046875 10.152344 94.5625 9.300781 95.230469 8.585938 C 95.625 8.179688 96.066406 7.832031 96.554688 7.539062 C 97.035156 7.261719 97.480469 6.9375 97.894531 6.566406 C 97.96875 6.492188 97.808594 6.4375 97.753906 6.464844 C 96.578125 7.039062 95.371094 7.542969 94.136719 7.980469 C 93.511719 8.203125 92.882812 8.402344 92.246094 8.585938 C 91.863281 8.699219 91.339844 8.851562 91.222656 9.273438 C 90.78125 9.136719 90.316406 9.304688 89.914062 9.488281 C 89.410156 9.714844 88.921875 9.972656 88.453125 10.265625 C 87.988281 10.554688 87.582031 10.917969 87.238281 11.351562 C 86.898438 11.816406 86.59375 12.308594 86.332031 12.824219 C 85.695312 13.082031 85.070312 13.375 84.464844 13.703125 C 84.421875 13.722656 84.414062 13.753906 84.421875 13.78125 L 84.085938 13.769531 C 84.039062 13.765625 84 13.777344 83.964844 13.804688 L 83.269531 13.738281 C 83.242188 13.734375 83.21875 13.738281 83.191406 13.742188 L 82.988281 13.714844 C 82.894531 13.703125 82.722656 13.796875 82.8125 13.855469 L 81.273438 13.878906 C 81.195312 13.882812 81.152344 13.90625 81.132812 13.9375 L 80.910156 13.960938 L 80.761719 13.964844 C 79.917969 13.945312 79.078125 13.964844 78.238281 14.027344 C 78.195312 14.03125 78.082031 14.035156 78.046875 14.035156 C 77.273438 14.007812 76.511719 14.113281 75.773438 14.347656 C 75.761719 14.351562 75.75 14.355469 75.742188 14.359375 L 75.429688 14.40625 C 75.964844 14.0625 76.519531 13.726562 77.128906 13.550781 C 77.171875 13.5625 77.214844 13.5625 77.257812 13.554688 C 77.308594 13.527344 77.363281 13.507812 77.414062 13.484375 C 77.554688 13.457031 77.695312 13.441406 77.839844 13.4375 C 78.597656 13.40625 79.417969 13.550781 80.101562 13.132812 C 80.445312 12.917969 80.710938 12.605469 81.007812 12.332031 C 81.3125 12.058594 81.636719 11.816406 81.988281 11.605469 C 82.679688 11.195312 83.398438 10.847656 84.144531 10.558594 C 84.988281 10.207031 85.839844 9.875 86.636719 9.425781 C 86.738281 9.371094 86.554688 9.339844 86.519531 9.351562 L 82.175781 10.480469 C 81.519531 10.648438 80.847656 10.800781 80.226562 11.074219 C 79.660156 11.328125 79.140625 11.65625 78.660156 12.054688 C 78.136719 12.488281 77.636719 12.953125 77.160156 13.441406 C 76.457031 13.613281 75.832031 13.996094 75.21875 14.390625 C 75.183594 14.410156 75.207031 14.429688 75.257812 14.441406 L 73.191406 14.742188 C 73.167969 14.738281 73.148438 14.738281 73.125 14.742188 L 72.949219 14.777344 L 71.890625 14.933594 C 71.847656 14.855469 71.785156 14.832031 71.699219 14.855469 L 69.046875 15.402344 C 68.886719 15.433594 68.445312 15.582031 68.476562 15.625 C 68.042969 15.6875 67.609375 15.75 67.175781 15.8125 C 66.476562 15.90625 65.773438 16.003906 65.074219 16.097656 C 64.890625 16.117188 64.964844 16.265625 65.113281 16.269531 Z M 76.488281 16.902344 C 76.855469 16.996094 77.246094 16.980469 77.617188 17.070312 C 77.996094 17.179688 78.34375 17.355469 78.65625 17.59375 C 79.257812 18.007812 79.890625 18.375 80.492188 18.789062 C 81.042969 19.164062 81.5625 19.617188 81.894531 20.207031 C 81.972656 20.34375 82.035156 20.484375 82.085938 20.628906 C 82.121094 20.730469 82.257812 21.042969 82.183594 21.140625 C 82.109375 21.238281 81.757812 21.101562 81.664062 21.078125 C 81.480469 21.03125 81.296875 20.980469 81.113281 20.921875 C 80.417969 20.691406 79.761719 20.386719 79.136719 20.007812 C 77.886719 19.261719 76.792969 18.277344 75.761719 17.246094 L 75.382812 16.867188 C 75.941406 17.238281 76.53125 17.554688 77.152344 17.820312 C 77.671875 18.042969 78.21875 18.207031 78.71875 18.46875 C 79.1875 18.71875 79.609375 19.027344 79.984375 19.402344 C 80.402344 19.816406 80.78125 20.261719 81.121094 20.738281 C 81.167969 20.804688 81.359375 20.761719 81.292969 20.671875 C 80.695312 19.851562 80.015625 19.0625 79.140625 18.53125 C 78.675781 18.269531 78.195312 18.054688 77.691406 17.882812 C 77.152344 17.675781 76.636719 17.429688 76.132812 17.144531 C 75.652344 16.871094 75.195312 16.558594 74.761719 16.210938 C 75.351562 16.390625 75.882812 16.742188 76.488281 16.898438 Z M 81.558594 15.882812 C 81.777344 15.921875 82 15.9375 82.222656 15.933594 C 82.515625 15.941406 82.808594 15.957031 83.101562 15.980469 C 83.644531 16.027344 84.183594 16.101562 84.71875 16.191406 C 85.777344 16.363281 86.832031 16.582031 87.875 16.828125 C 88.386719 16.9375 88.878906 17.109375 89.347656 17.339844 C 89.808594 17.582031 90.234375 17.878906 90.628906 18.21875 C 91.484375 18.9375 92.285156 19.726562 93.097656 20.488281 C 92.234375 20.273438 91.417969 19.90625 90.550781 19.707031 C 90.058594 19.613281 89.574219 19.496094 89.097656 19.347656 C 88.628906 19.183594 88.179688 18.96875 87.730469 18.753906 C 86.859375 18.355469 85.988281 17.96875 85.101562 17.621094 C 84.253906 17.289062 83.355469 17.042969 82.5625 16.585938 C 83.09375 16.738281 83.636719 16.832031 84.1875 16.871094 C 85.105469 16.953125 86.050781 16.957031 86.941406 17.226562 C 87.835938 17.496094 88.484375 18.078125 89.207031 18.617188 C 90.019531 19.230469 90.9375 19.582031 91.894531 19.902344 C 91.972656 19.921875 92.121094 19.847656 91.996094 19.804688 C 91.109375 19.507812 90.238281 19.191406 89.476562 18.632812 C 88.804688 18.140625 88.1875 17.570312 87.402344 17.253906 C 85.722656 16.585938 83.796875 17.050781 82.144531 16.289062 C 82.101562 16.269531 82.058594 16.25 82.019531 16.226562 C 81.859375 16.113281 81.703125 15.996094 81.546875 15.878906 Z M 99.125 22.691406 C 98.6875 22.414062 98.375 22.035156 98.191406 21.554688 C 98.015625 21.074219 98.070312 20.546875 97.800781 20.097656 C 97.335938 19.328125 96.382812 19.015625 95.703125 18.476562 C 95.253906 18.113281 94.875 17.6875 94.570312 17.195312 L 96.667969 17.746094 C 97.03125 17.839844 97.421875 17.914062 97.757812 18.101562 C 98.046875 18.269531 98.273438 18.496094 98.441406 18.785156 C 98.785156 19.339844 98.945312 20.003906 99.101562 20.628906 C 99.277344 21.316406 99.414062 22.015625 99.574219 22.703125 C 99.710938 23.324219 99.878906 23.9375 100.074219 24.542969 C 99.488281 23.84375 98.878906 23.160156 98.144531 22.613281 C 97.3125 21.988281 96.257812 21.625 95.582031 20.808594 C 95.226562 20.378906 95.027344 19.847656 94.847656 19.324219 C 94.648438 18.800781 94.515625 18.261719 94.457031 17.703125 C 94.445312 17.570312 94.433594 17.4375 94.421875 17.304688 C 94.65625 17.683594 94.9375 18.027344 95.265625 18.335938 C 95.644531 18.664062 96.050781 18.953125 96.488281 19.199219 C 96.875 19.441406 97.285156 19.6875 97.550781 20.070312 C 97.871094 20.519531 97.804688 21.078125 97.992188 21.578125 C 98.183594 22.09375 98.515625 22.5 98.980469 22.792969 C 99.058594 22.847656 99.226562 22.761719 99.125 22.691406 Z M 101.085938 16.816406 C 101.46875 17.113281 101.875 17.367188 102.308594 17.589844 C 102.359375 17.617188 102.550781 17.578125 102.449219 17.515625 L 101.289062 16.792969 C 101.101562 16.652344 100.921875 16.503906 100.75 16.34375 C 102.429688 16.648438 104.121094 17.382812 105.132812 18.75 C 105.097656 18.757812 105.074219 18.777344 105.089844 18.800781 C 105.644531 19.535156 105.949219 20.359375 106 21.28125 C 106.003906 21.351562 106.203125 21.351562 106.203125 21.277344 C 106.199219 20.621094 106.046875 20 105.75 19.417969 C 106.453125 20.035156 107.191406 20.613281 107.847656 21.285156 C 108.28125 21.71875 108.644531 22.203125 108.941406 22.738281 C 109.28125 23.382812 109.425781 24.078125 109.5625 24.785156 C 109.648438 25.234375 109.730469 25.683594 109.8125 26.132812 C 109.589844 25.765625 109.34375 25.417969 109.070312 25.082031 C 108.757812 24.6875 108.464844 24.277344 108.191406 23.851562 C 107.917969 23.375 107.609375 22.921875 107.265625 22.492188 C 106.867188 22.058594 106.425781 21.675781 105.941406 21.34375 C 105.449219 20.976562 104.964844 20.601562 104.484375 20.21875 C 103.519531 19.457031 102.578125 18.671875 101.65625 17.863281 C 100.835938 17.148438 100.027344 16.417969 99.222656 15.683594 C 99.847656 16.046875 100.46875 16.433594 101.085938 16.824219 Z M 105.179688 15.644531 L 105.101562 15.625 L 105.269531 15.632812 C 105.242188 15.625 105.210938 15.632812 105.179688 15.644531 Z M 113.519531 14.96875 C 113.921875 14.949219 114.324219 14.960938 114.722656 15.007812 C 116.179688 15.125 117.621094 14.933594 119.066406 14.792969 C 119.84375 14.707031 120.625 14.675781 121.40625 14.699219 C 120.734375 15.046875 119.941406 15.117188 119.242188 15.386719 C 118.515625 15.671875 117.832031 16.054688 117.109375 16.34375 C 116.742188 16.5 116.367188 16.613281 115.980469 16.6875 C 115.582031 16.757812 115.171875 16.746094 114.777344 16.84375 C 113.980469 17.035156 113.269531 17.5 112.445312 17.59375 C 111.519531 17.699219 109.820312 17.285156 109.0625 16.675781 C 109.398438 16.605469 109.714844 16.492188 110.019531 16.335938 C 110.152344 16.265625 110.277344 16.1875 110.402344 16.105469 C 110.429688 16.121094 110.460938 16.128906 110.496094 16.128906 C 111.617188 16.15625 112.734375 16.113281 113.847656 16.003906 C 114.40625 15.945312 114.953125 15.851562 115.507812 15.789062 C 115.808594 15.765625 116.109375 15.777344 116.40625 15.832031 C 116.632812 15.867188 116.855469 15.855469 117.078125 15.796875 C 117.359375 15.707031 117.636719 15.597656 117.910156 15.46875 L 118.875 15.0625 C 118.917969 15.042969 118.898438 15.007812 118.871094 14.988281 C 118.824219 14.964844 118.777344 14.964844 118.734375 14.988281 C 118.203125 15.207031 117.679688 15.453125 117.144531 15.648438 C 116.871094 15.746094 116.59375 15.765625 116.308594 15.707031 C 116.066406 15.667969 115.824219 15.660156 115.578125 15.675781 C 115.046875 15.722656 114.519531 15.824219 113.992188 15.886719 C 113.464844 15.945312 112.890625 15.988281 112.339844 16.007812 C 111.789062 16.03125 111.210938 16.042969 110.644531 16.03125 C 110.707031 15.941406 110.78125 15.863281 110.867188 15.792969 C 110.949219 15.738281 111.035156 15.683594 111.117188 15.632812 C 111.207031 15.585938 111.296875 15.542969 111.390625 15.507812 C 111.710938 15.382812 112.050781 15.285156 112.382812 15.191406 C 112.753906 15.078125 113.132812 15.003906 113.519531 14.964844 Z M 107.046875 14.578125 C 107.5 14.394531 107.957031 14.238281 108.425781 14.105469 C 108.898438 13.960938 109.359375 13.800781 109.820312 13.625 C 110.28125 13.449219 110.75 13.273438 111.21875 13.140625 C 111.675781 13.015625 112.132812 12.925781 112.601562 12.863281 C 113.527344 12.734375 114.464844 12.6875 115.390625 12.566406 C 115.890625 12.507812 116.382812 12.417969 116.867188 12.292969 C 117.339844 12.171875 117.800781 11.988281 118.285156 11.925781 C 116.730469 13.113281 115.136719 14.277344 113.222656 14.796875 C 112.757812 14.925781 112.289062 15.03125 111.835938 15.1875 C 111.648438 15.25 111.46875 15.324219 111.292969 15.414062 C 111.257812 15.425781 111.21875 15.441406 111.1875 15.453125 C 110.960938 15.539062 110.765625 15.664062 110.589844 15.828125 L 110.539062 15.859375 C 110.144531 16.164062 109.710938 16.394531 109.242188 16.554688 C 109.15625 16.578125 109.074219 16.601562 108.984375 16.625 C 108.953125 16.597656 108.816406 16.628906 108.738281 16.671875 C 108.4375 16.714844 108.140625 16.726562 107.835938 16.695312 C 107.292969 16.644531 106.78125 16.488281 106.300781 16.226562 C 105.980469 16.054688 105.664062 15.851562 105.332031 15.707031 L 105.777344 15.664062 C 106.050781 15.691406 106.320312 15.71875 106.597656 15.726562 C 107.144531 15.746094 107.683594 15.6875 108.21875 15.558594 C 109.324219 15.289062 110.351562 14.765625 111.359375 14.242188 C 111.417969 14.210938 111.230469 14.199219 111.199219 14.203125 C 110.242188 14.484375 109.277344 14.742188 108.304688 14.972656 C 108.25 14.957031 108.199219 14.953125 108.144531 14.960938 C 108.140625 14.964844 108.136719 14.964844 108.128906 14.96875 C 108.058594 14.996094 107.992188 15.027344 107.925781 15.0625 C 107.195312 15.234375 106.464844 15.390625 105.730469 15.53125 C 105.503906 15.527344 105.28125 15.515625 105.058594 15.492188 C 105.753906 15.277344 106.375 14.863281 107.050781 14.574219 Z M 108.339844 15.140625 C 108.378906 15.117188 108.421875 15.097656 108.464844 15.074219 C 108.503906 15.046875 108.460938 15.042969 108.421875 15.035156 C 109.222656 14.84375 110.019531 14.636719 110.816406 14.410156 C 109.933594 14.863281 109.03125 15.296875 108.066406 15.519531 C 107.871094 15.566406 107.679688 15.601562 107.480469 15.625 C 107.785156 15.503906 108.070312 15.351562 108.335938 15.164062 C 108.351562 15.148438 108.351562 15.140625 108.339844 15.136719 Z M 107.625 15.253906 C 107.605469 15.253906 107.585938 15.253906 107.5625 15.257812 L 107.433594 15.292969 L 107.40625 15.300781 C 107.386719 15.296875 107.363281 15.296875 107.339844 15.300781 L 106.621094 15.492188 C 106.609375 15.492188 106.601562 15.496094 106.59375 15.503906 C 106.449219 15.519531 106.300781 15.527344 106.152344 15.535156 C 106.667969 15.433594 107.183594 15.324219 107.695312 15.207031 C 107.671875 15.214844 107.644531 15.230469 107.625 15.25 Z M 107.308594 15.503906 Z M 107.167969 15.652344 C 106.882812 15.671875 106.597656 15.671875 106.3125 15.648438 L 106.167969 15.636719 L 106.355469 15.621094 C 106.378906 15.628906 106.40625 15.632812 106.429688 15.632812 L 106.613281 15.613281 C 106.65625 15.636719 106.703125 15.648438 106.753906 15.640625 L 106.886719 15.617188 C 106.914062 15.628906 106.945312 15.636719 106.972656 15.640625 C 107.03125 15.636719 107.085938 15.636719 107.144531 15.628906 C 107.15625 15.636719 107.171875 15.636719 107.183594 15.640625 C 107.171875 15.640625 107.167969 15.644531 107.167969 15.648438 Z M 95.242188 14.386719 L 94.609375 14.351562 C 94.621094 14.332031 94.621094 14.3125 94.609375 14.292969 C 94.824219 14.320312 95.035156 14.347656 95.246094 14.378906 Z M 94.203125 14.242188 L 93.703125 14.25 C 93.710938 14.234375 93.710938 14.21875 93.707031 14.199219 C 93.875 14.210938 94.042969 14.21875 94.210938 14.238281 Z M 95.226562 13.421875 C 95.574219 13.347656 95.914062 13.261719 96.246094 13.171875 C 96.914062 12.984375 97.566406 12.757812 98.203125 12.488281 C 99.308594 12.015625 100.492188 11.460938 101.253906 10.5 C 101.714844 9.917969 102.167969 9.347656 102.742188 8.871094 C 102.761719 8.855469 102.589844 8.820312 102.546875 8.855469 C 102.066406 9.261719 101.636719 9.71875 101.261719 10.222656 C 101.078125 10.472656 100.875 10.710938 100.65625 10.933594 C 100.425781 11.148438 100.175781 11.335938 99.902344 11.496094 C 98.875 12.121094 97.785156 12.613281 96.632812 12.96875 C 96.097656 13.140625 95.554688 13.28125 95 13.390625 C 95.238281 13.230469 95.449219 13.042969 95.632812 12.824219 C 95.933594 12.480469 96.292969 12.214844 96.710938 12.027344 C 97.121094 11.855469 97.550781 11.742188 97.96875 11.589844 C 98.371094 11.441406 98.75 11.253906 99.109375 11.023438 C 99.851562 10.554688 100.503906 9.957031 101.152344 9.375 C 101.835938 8.738281 102.578125 8.175781 103.375 7.695312 C 104.082031 7.289062 104.824219 6.953125 105.546875 6.578125 C 104.941406 7.019531 104.382812 7.511719 103.871094 8.058594 C 103.519531 8.433594 103.222656 8.851562 102.972656 9.300781 C 102.714844 9.792969 102.53125 10.300781 102.226562 10.765625 C 101.609375 11.6875 100.558594 12.253906 99.546875 12.636719 C 99.03125 12.832031 98.523438 13.042969 98.011719 13.246094 C 97.460938 13.449219 96.894531 13.546875 96.304688 13.539062 C 95.71875 13.539062 95.132812 13.539062 94.546875 13.585938 C 94.777344 13.527344 95 13.464844 95.230469 13.417969 Z M 92.605469 14.140625 C 92.804688 14.140625 93 14.144531 93.199219 14.15625 L 92.964844 14.171875 C 92.699219 14.179688 92.429688 14.1875 92.164062 14.191406 L 92.441406 14.148438 Z M 91.828125 14.195312 C 91.632812 14.195312 91.441406 14.195312 91.25 14.195312 L 91.101562 14.183594 C 91.398438 14.171875 91.691406 14.164062 91.984375 14.152344 Z M 88.085938 14.167969 C 88.089844 14.175781 88.09375 14.183594 88.097656 14.1875 L 87.613281 14.167969 C 87.59375 14.160156 87.574219 14.15625 87.554688 14.152344 L 87.433594 14.136719 C 87.65625 14.148438 87.875 14.164062 88.09375 14.171875 Z M 87.351562 11.5 C 87.65625 11.089844 88.023438 10.742188 88.445312 10.457031 C 88.863281 10.183594 89.296875 9.945312 89.75 9.734375 C 90.199219 9.519531 90.746094 9.210938 91.246094 9.445312 C 91.300781 9.46875 91.390625 9.445312 91.402344 9.378906 C 91.425781 9.09375 91.683594 8.941406 91.925781 8.84375 C 92.199219 8.734375 92.492188 8.667969 92.773438 8.582031 C 93.34375 8.40625 93.910156 8.21875 94.46875 8.019531 C 95.417969 7.675781 96.351562 7.285156 97.265625 6.863281 C 96.628906 7.335938 95.902344 7.6875 95.324219 8.234375 C 94.625 8.894531 94.125 9.730469 93.441406 10.40625 C 91.925781 11.894531 89.695312 11.941406 87.746094 12.382812 C 87.4375 12.453125 87.136719 12.539062 86.835938 12.640625 C 87.246094 12.339844 87.683594 12.082031 88.140625 11.867188 C 88.699219 11.605469 89.292969 11.445312 89.871094 11.230469 C 90.140625 11.136719 90.402344 11.019531 90.652344 10.878906 C 90.914062 10.714844 91.15625 10.527344 91.382812 10.316406 C 91.867188 9.898438 92.476562 9.753906 93.054688 9.523438 C 93.703125 9.261719 94.289062 8.902344 94.816406 8.441406 C 94.910156 8.359375 94.746094 8.273438 94.671875 8.339844 C 94.1875 8.761719 93.652344 9.101562 93.058594 9.351562 C 92.511719 9.582031 91.910156 9.710938 91.421875 10.066406 C 91.167969 10.25 90.957031 10.484375 90.691406 10.660156 C 90.433594 10.828125 90.15625 10.964844 89.867188 11.070312 C 89.296875 11.292969 88.703125 11.449219 88.144531 11.699219 C 87.636719 11.925781 87.160156 12.207031 86.710938 12.535156 C 86.902344 12.175781 87.117188 11.832031 87.359375 11.503906 Z M 80.152344 11.230469 C 80.769531 10.929688 81.441406 10.773438 82.101562 10.601562 L 84.226562 10.046875 L 86.082031 9.558594 C 84.765625 10.222656 83.335938 10.648438 82.058594 11.390625 C 81.722656 11.582031 81.40625 11.796875 81.105469 12.039062 C 80.785156 12.300781 80.511719 12.609375 80.199219 12.875 C 79.839844 13.167969 79.429688 13.320312 78.964844 13.328125 C 78.589844 13.347656 78.214844 13.320312 77.839844 13.332031 C 78.117188 13.253906 78.398438 13.191406 78.679688 13.136719 C 79.144531 13.039062 79.585938 12.890625 80.011719 12.683594 C 80.863281 12.253906 81.570312 11.601562 82.394531 11.121094 C 82.488281 11.0625 82.304688 11.019531 82.25 11.050781 C 81.429688 11.53125 80.726562 12.183594 79.875 12.621094 C 79.125 13.007812 78.269531 13.066406 77.484375 13.34375 C 78.285156 12.539062 79.128906 11.730469 80.160156 11.230469 Z M 70.742188 15.539062 C 70.777344 15.550781 70.808594 15.550781 70.84375 15.546875 L 71.3125 15.460938 C 71.335938 15.464844 71.359375 15.464844 71.382812 15.460938 C 71.484375 15.449219 71.589844 15.429688 71.691406 15.40625 C 71.71875 15.445312 71.757812 15.464844 71.808594 15.457031 C 72.039062 15.429688 72.273438 15.429688 72.507812 15.449219 L 70.523438 15.582031 C 70.59375 15.570312 70.671875 15.558594 70.75 15.542969 Z M 70.148438 15.550781 C 70.171875 15.578125 70.199219 15.59375 70.230469 15.601562 L 69.480469 15.652344 C 69.710938 15.617188 69.9375 15.582031 70.15625 15.554688 Z M 67.617188 15.921875 C 67.648438 15.9375 67.683594 15.945312 67.71875 15.941406 L 69.953125 15.796875 C 68.898438 15.910156 67.84375 15.992188 66.78125 16.042969 Z M 67.617188 15.921875 "/></g></g></g><g clip-rule="nonzero" clip-path="url(#dac626aebc)"><g clip-rule="nonzero" clip-path="url(#1368552108)"><g clip-rule="nonzero" clip-path="url(#419a3722c4)"><path style=" stroke:none;fill-rule:nonzero;fill:#d7ae54;fill-opacity:1;" d="M 102.675781 15.964844 C 102.636719 16.109375 102.65625 16.246094 102.734375 16.378906 C 102.808594 16.507812 102.921875 16.59375 103.066406 16.632812 C 103.214844 16.667969 103.351562 16.652344 103.480469 16.574219 C 103.613281 16.5 103.695312 16.386719 103.734375 16.242188 C 103.773438 16.09375 103.753906 15.957031 103.679688 15.824219 C 103.601562 15.695312 103.492188 15.609375 103.34375 15.574219 C 103.199219 15.535156 103.058594 15.554688 102.929688 15.628906 C 102.800781 15.707031 102.714844 15.816406 102.675781 15.964844 Z M 102.675781 15.964844 "/></g></g></g><g clip-rule="nonzero" clip-path="url(#958864f591)"><g clip-rule="nonzero" clip-path="url(#f4971ed297)"><g clip-rule="nonzero" clip-path="url(#53de8e3b26)"><path style=" stroke:none;fill-rule:nonzero;fill:#d7ae54;fill-opacity:1;" d="M 92.023438 15.757812 C 91.878906 15.71875 91.742188 15.738281 91.609375 15.8125 C 91.480469 15.890625 91.394531 16 91.355469 16.148438 C 91.316406 16.292969 91.335938 16.429688 91.414062 16.5625 C 91.488281 16.691406 91.601562 16.777344 91.746094 16.816406 C 91.894531 16.851562 92.03125 16.835938 92.160156 16.757812 C 92.292969 16.683594 92.375 16.570312 92.414062 16.425781 C 92.453125 16.277344 92.433594 16.140625 92.359375 16.011719 C 92.28125 15.878906 92.171875 15.796875 92.023438 15.757812 Z M 92.023438 15.757812 "/></g></g></g><g clip-rule="nonzero" clip-path="url(#bcb4792a2b)"><g clip-rule="nonzero" clip-path="url(#bfccef5c41)"><g clip-rule="nonzero" clip-path="url(#0b5edf667f)"><path style=" stroke:none;fill-rule:nonzero;fill:#d7ae54;fill-opacity:1;" d="M 118.9375 17.65625 C 119.007812 17.671875 119.078125 17.664062 119.140625 17.628906 C 119.207031 17.589844 119.246094 17.535156 119.265625 17.460938 C 119.285156 17.390625 119.277344 17.324219 119.238281 17.257812 C 119.199219 17.195312 119.144531 17.152344 119.074219 17.132812 C 119.003906 17.113281 118.933594 17.125 118.871094 17.160156 C 118.804688 17.199219 118.765625 17.253906 118.746094 17.324219 C 118.726562 17.398438 118.734375 17.464844 118.773438 17.53125 C 118.8125 17.59375 118.867188 17.636719 118.9375 17.65625 Z M 118.9375 17.65625 "/></g></g></g><g clip-rule="nonzero" clip-path="url(#f6a35fd359)"><g clip-rule="nonzero" clip-path="url(#c22ef1b453)"><g clip-rule="nonzero" clip-path="url(#5aaa84cedb)"><path style=" stroke:none;fill-rule:nonzero;fill:#d7ae54;fill-opacity:1;" d="M 10.699219 10.414062 C 12.09375 10.507812 13.484375 10.835938 14.660156 11.621094 C 15.214844 11.988281 15.722656 12.425781 16.273438 12.800781 C 16.8125 13.164062 17.378906 13.476562 17.972656 13.734375 C 19.324219 14.320312 20.738281 14.609375 22.210938 14.605469 C 22.222656 14.609375 22.332031 14.597656 22.308594 14.554688 C 22.074219 14.128906 21.792969 13.738281 21.460938 13.382812 C 21.417969 13.34375 21.375 13.300781 21.328125 13.265625 C 21.0625 13.015625 20.773438 12.796875 20.460938 12.609375 C 20.089844 12.382812 19.699219 12.175781 19.320312 11.953125 C 18.871094 11.695312 18.441406 11.402344 18.019531 11.101562 C 16.347656 9.898438 14.855469 8.464844 13.210938 7.21875 C 12.285156 6.515625 11.277344 5.757812 10.125 5.488281 C 10.101562 5.480469 9.914062 5.496094 9.980469 5.539062 C 11.617188 6.644531 12.507812 8.4375 13.730469 9.933594 C 14.039062 10.324219 14.390625 10.667969 14.796875 10.957031 C 15.230469 11.242188 15.695312 11.464844 16.191406 11.628906 C 17.238281 12 18.3125 12.316406 19.390625 12.585938 C 19.976562 12.742188 20.589844 12.851562 21.078125 13.246094 C 21.109375 13.269531 21.136719 13.296875 21.167969 13.324219 C 21.460938 13.601562 21.667969 13.929688 21.785156 14.3125 C 21.800781 14.359375 21.90625 14.359375 21.960938 14.339844 L 22.074219 14.523438 C 21.371094 14.515625 20.679688 14.433594 19.992188 14.28125 C 20.078125 14.269531 20.15625 14.234375 20.226562 14.183594 C 20.292969 14.132812 20.347656 14.070312 20.390625 13.992188 C 20.429688 13.917969 20.453125 13.835938 20.453125 13.75 C 20.457031 13.664062 20.441406 13.582031 20.40625 13.503906 C 20.371094 13.421875 20.320312 13.355469 20.253906 13.300781 C 20.1875 13.246094 20.109375 13.207031 20.027344 13.1875 C 19.941406 13.167969 19.859375 13.167969 19.773438 13.183594 C 19.691406 13.203125 19.613281 13.238281 19.546875 13.292969 C 19.480469 13.347656 19.425781 13.414062 19.390625 13.492188 C 19.351562 13.570312 19.335938 13.652344 19.335938 13.738281 C 19.335938 13.824219 19.355469 13.90625 19.394531 13.980469 C 19.433594 14.058594 19.488281 14.125 19.554688 14.175781 C 19.113281 14.058594 18.679688 13.914062 18.253906 13.738281 C 17.640625 13.480469 17.054688 13.167969 16.503906 12.796875 C 15.9375 12.417969 15.429688 11.976562 14.863281 11.597656 C 12.625 10.09375 9.804688 10.230469 7.238281 10.453125 C 5.703125 10.585938 4.164062 10.738281 2.617188 10.5625 C 2.589844 10.554688 2.421875 10.585938 2.515625 10.625 L 3.492188 10.894531 C 3.296875 10.820312 3.101562 10.746094 2.90625 10.667969 C 5.507812 10.882812 8.097656 10.25 10.699219 10.414062 Z M 20.210938 12.703125 C 19.675781 12.550781 19.148438 12.4375 18.621094 12.285156 C 18.054688 12.128906 17.488281 11.957031 16.929688 11.769531 C 16.40625 11.613281 15.898438 11.414062 15.410156 11.175781 C 14.925781 10.917969 14.503906 10.582031 14.144531 10.167969 C 13.484375 9.421875 12.960938 8.582031 12.375 7.789062 C 11.792969 6.992188 11.160156 6.238281 10.363281 5.652344 C 11.265625 5.953125 12.078125 6.550781 12.828125 7.109375 C 13.640625 7.710938 14.414062 8.363281 15.1875 9.015625 C 15.960938 9.664062 16.714844 10.304688 17.511719 10.910156 C 18.277344 11.46875 19.074219 11.976562 19.902344 12.4375 C 20.105469 12.550781 20.308594 12.671875 20.503906 12.800781 C 20.414062 12.765625 20.3125 12.730469 20.210938 12.703125 Z M 20.210938 12.703125 "/></g></g></g><g clip-rule="nonzero" clip-path="url(#920465b0a9)"><g clip-rule="nonzero" clip-path="url(#e3be3e0bc2)"><g clip-rule="nonzero" clip-path="url(#d64be13c5b)"><path style=" stroke:none;fill-rule:nonzero;fill:#d7ae54;fill-opacity:1;" d="M 5.695312 11.648438 C 6.699219 11.9375 7.714844 12.167969 8.742188 12.34375 L 3.492188 10.894531 C 4.21875 11.171875 4.953125 11.421875 5.695312 11.648438 Z M 5.695312 11.648438 "/></g></g></g><g clip-rule="nonzero" clip-path="url(#fd80047f36)"><g clip-rule="nonzero" clip-path="url(#874b3f4a0f)"><g clip-rule="nonzero" clip-path="url(#f51df45037)"><path style=" stroke:none;fill-rule:nonzero;fill:#d7ae54;fill-opacity:1;" d="M 16.84375 13.316406 C 16.886719 13.328125 17.089844 13.292969 16.988281 13.261719 L 12.585938 11.882812 C 11.894531 11.667969 11.210938 11.425781 10.503906 11.273438 C 9.859375 11.144531 9.207031 11.121094 8.554688 11.207031 C 7.785156 11.289062 7.019531 11.464844 6.234375 11.453125 C 6.113281 11.449219 6.113281 11.527344 6.234375 11.527344 C 7.582031 11.550781 8.890625 11.0625 10.234375 11.3125 C 10.953125 11.441406 11.644531 11.691406 12.339844 11.90625 L 14.445312 12.566406 L 16.085938 13.082031 C 15.46875 13.023438 14.828125 13.070312 14.214844 13.050781 C 13.265625 13.019531 12.296875 13.03125 11.363281 12.835938 C 10.511719 12.65625 9.628906 12.511719 8.742188 12.347656 L 10.074219 12.714844 C 9.984375 12.707031 9.898438 12.71875 9.8125 12.742188 C 9.742188 12.753906 9.675781 12.773438 9.609375 12.796875 C 8.78125 13.007812 8.058594 13.519531 7.289062 13.878906 C 6.355469 14.296875 5.402344 14.660156 4.429688 14.976562 C 4.296875 15.019531 4.464844 15.085938 4.535156 15.070312 C 5.824219 14.761719 7.121094 14.480469 8.402344 14.140625 C 9.003906 13.988281 9.597656 13.796875 10.179688 13.566406 C 10.71875 13.347656 11.261719 13.070312 11.855469 13.066406 C 11.949219 13.066406 11.972656 13.007812 11.925781 12.976562 C 12.460938 13.03125 12.996094 13.074219 13.53125 13.101562 C 14.042969 13.128906 14.558594 13.144531 15.070312 13.144531 C 15.664062 13.148438 16.273438 13.117188 16.84375 13.316406 Z M 8.421875 14.011719 C 7.46875 14.269531 6.507812 14.492188 5.546875 14.714844 C 6.128906 14.503906 6.703125 14.289062 7.265625 14.035156 C 7.695312 13.839844 8.109375 13.617188 8.523438 13.394531 C 8.804688 13.234375 9.101562 13.097656 9.40625 12.984375 L 9.410156 12.996094 C 9.386719 13.003906 9.363281 13.015625 9.339844 13.023438 C 9.285156 13.050781 9.324219 13.097656 9.363281 13.109375 C 9.386719 13.117188 9.410156 13.121094 9.433594 13.128906 L 9.289062 13.175781 C 9.214844 13.203125 9.238281 13.238281 9.285156 13.257812 C 9.265625 13.296875 9.371094 13.339844 9.433594 13.320312 L 9.445312 13.316406 L 9.453125 13.316406 L 9.609375 13.269531 C 9.605469 13.28125 9.605469 13.292969 9.625 13.300781 C 9.585938 13.335938 9.664062 13.382812 9.722656 13.382812 L 9.691406 13.394531 C 9.628906 13.414062 9.636719 13.441406 9.664062 13.460938 C 9.621094 13.476562 9.609375 13.496094 9.621094 13.511719 L 9.578125 13.53125 C 9.488281 13.582031 9.625 13.621094 9.699219 13.613281 C 9.277344 13.757812 8.851562 13.894531 8.421875 14.011719 Z M 9.796875 13.574219 L 9.957031 13.507812 Z M 10.71875 13.203125 Z M 10.90625 13.136719 C 10.925781 13.125 10.914062 13.105469 10.902344 13.09375 L 11.066406 13.050781 L 11.082031 13.046875 L 11.128906 13.058594 C 11.148438 13.0625 11.164062 13.058594 11.183594 13.054688 L 11.191406 13.058594 C 11.097656 13.074219 11 13.105469 10.90625 13.136719 Z M 10.90625 13.136719 "/></g></g></g><g clip-rule="nonzero" clip-path="url(#8efd4440c4)"><g clip-rule="nonzero" clip-path="url(#6c568f857e)"><g clip-rule="nonzero" clip-path="url(#6ab6e8ee50)"><path style=" stroke:none;fill-rule:nonzero;fill:#d7ae54;fill-opacity:1;" d="M 72.824219 15.441406 C 70.261719 15.476562 67.71875 15.695312 65.1875 16.097656 C 65.039062 16.121094 65.058594 16.230469 65.164062 16.261719 C 64.589844 16.199219 64.066406 16.011719 63.585938 15.699219 C 62.945312 15.28125 62.425781 14.710938 61.882812 14.175781 C 60.792969 13.101562 59.609375 12.085938 58.265625 11.332031 C 57.601562 10.957031 56.902344 10.664062 56.164062 10.453125 C 55.996094 10.410156 55.832031 10.367188 55.664062 10.332031 C 55.527344 10.304688 55.355469 10.25 55.222656 10.308594 C 54.976562 10.425781 55.15625 10.855469 55.222656 11.039062 C 55.730469 12.441406 57.1875 13.105469 58.347656 13.878906 C 58.695312 14.136719 59.058594 14.371094 59.4375 14.578125 C 59.839844 14.769531 60.253906 14.804688 60.6875 14.859375 C 61.59375 14.964844 62.324219 15.574219 63.21875 15.714844 C 63.246094 15.714844 63.269531 15.710938 63.292969 15.699219 C 63.433594 15.796875 63.574219 15.886719 63.722656 15.96875 C 64.308594 16.285156 64.9375 16.4375 65.605469 16.425781 L 65.476562 16.457031 L 64.660156 16.609375 L 61.574219 16.925781 C 61.539062 16.925781 61.507812 16.9375 61.480469 16.964844 L 59.25 17.285156 C 58.617188 17.160156 57.886719 17.007812 57.75 16.9375 C 57.753906 16.925781 57.757812 16.910156 57.722656 16.894531 L 57.664062 16.867188 C 57.660156 16.859375 57.652344 16.855469 57.644531 16.851562 C 57.308594 16.652344 56.984375 16.429688 56.675781 16.191406 L 56.660156 16.175781 C 56.378906 15.890625 56.070312 15.652344 55.722656 15.453125 L 55.644531 15.414062 C 55.570312 15.359375 55.492188 15.304688 55.417969 15.253906 C 54.613281 14.71875 53.703125 14.445312 52.808594 14.109375 C 51.84375 13.746094 50.902344 13.332031 49.964844 12.90625 C 49.507812 12.695312 49.054688 12.472656 48.589844 12.289062 C 48.132812 12.117188 47.667969 11.988281 47.1875 11.898438 C 46.070312 11.664062 45.027344 11.179688 43.910156 10.949219 C 43.871094 10.9375 43.726562 10.972656 43.789062 11.03125 C 44.617188 11.796875 45.425781 12.585938 46.269531 13.328125 C 47.054688 14.015625 47.898438 14.5625 48.910156 14.851562 C 49.425781 14.996094 49.953125 15.101562 50.480469 15.210938 C 51.035156 15.332031 51.589844 15.445312 52.148438 15.546875 C 53.230469 15.757812 54.320312 15.878906 55.417969 15.910156 C 55.59375 15.902344 55.761719 15.921875 55.929688 15.960938 C 56.089844 16.019531 56.230469 16.109375 56.347656 16.230469 C 56.539062 16.425781 56.738281 16.609375 56.949219 16.777344 C 57.382812 17.085938 57.863281 17.269531 58.390625 17.328125 L 58.734375 17.363281 L 58.289062 17.429688 L 57.613281 17.480469 C 57.59375 17.476562 57.574219 17.472656 57.554688 17.472656 C 56.511719 17.464844 55.46875 17.523438 54.433594 17.640625 C 54.324219 17.652344 54.304688 17.703125 54.335938 17.746094 L 53.953125 17.753906 C 53.070312 17.585938 52.179688 17.507812 51.285156 17.523438 C 50.128906 17.429688 48.96875 17.375 47.804688 17.359375 C 46.683594 17.246094 45.636719 16.898438 44.671875 16.316406 C 44.1875 16.039062 43.753906 15.703125 43.363281 15.304688 C 42.992188 14.902344 42.980469 14.386719 42.933594 13.867188 C 42.867188 13.339844 42.742188 12.824219 42.554688 12.324219 C 42.40625 11.816406 42.1875 11.339844 41.902344 10.894531 C 41.304688 10.042969 40.3125 9.632812 39.464844 9.085938 C 38.398438 8.394531 37.585938 7.40625 36.785156 6.433594 C 36.738281 6.378906 36.558594 6.394531 36.597656 6.492188 C 37.148438 7.921875 37.382812 9.441406 37.75 10.925781 C 37.914062 11.601562 38.085938 12.3125 38.453125 12.914062 C 38.601562 13.167969 38.792969 13.382812 39.027344 13.5625 C 39.332031 13.757812 39.660156 13.894531 40.011719 13.96875 C 40.929688 14.210938 41.847656 14.453125 42.765625 14.695312 C 42.785156 14.695312 42.800781 14.695312 42.816406 14.695312 C 42.863281 14.925781 42.964844 15.136719 43.113281 15.320312 C 43.484375 15.726562 43.90625 16.066406 44.378906 16.34375 C 45.140625 16.824219 45.964844 17.160156 46.84375 17.355469 C 46.589844 17.355469 46.332031 17.363281 46.078125 17.359375 L 45.914062 17.367188 C 45.667969 17.351562 45.417969 17.339844 45.167969 17.328125 C 44.34375 17.253906 42.488281 17.226562 42.496094 17.242188 L 42.035156 17.214844 C 42.003906 17.199219 41.976562 17.191406 41.941406 17.191406 L 40.488281 17.085938 C 40.453125 17.066406 40.417969 17.054688 40.375 17.058594 L 40.09375 17.039062 C 39.894531 16.984375 39.691406 16.933594 39.5 16.859375 C 39.132812 16.726562 38.773438 16.570312 38.425781 16.386719 C 36.679688 14.777344 34.902344 13.199219 33.050781 11.707031 C 32.566406 11.320312 32.082031 10.9375 31.589844 10.5625 C 31.113281 10.199219 30.617188 9.855469 30.175781 9.453125 C 29.347656 8.667969 28.878906 7.617188 28.195312 6.722656 C 27.679688 6.046875 27.070312 5.359375 26.820312 4.539062 L 26.707031 3.9375 C 26.695312 3.863281 26.496094 3.863281 26.5 3.9375 C 26.515625 4.140625 26.554688 4.34375 26.613281 4.539062 C 26.730469 5.171875 26.851562 5.808594 26.96875 6.445312 C 27.105469 7.179688 27.230469 7.929688 27.550781 8.613281 C 28.078125 9.753906 29.023438 10.617188 29.957031 11.417969 C 30.4375 11.832031 30.925781 12.238281 31.386719 12.671875 C 31.484375 12.824219 31.589844 12.96875 31.703125 13.109375 C 32.414062 13.992188 33.390625 14.609375 34.445312 15.003906 C 35.097656 15.242188 35.769531 15.410156 36.457031 15.511719 C 36.484375 15.519531 36.59375 15.5 36.585938 15.457031 C 36.878906 15.636719 37.171875 15.820312 37.46875 15.996094 C 37.726562 16.148438 37.992188 16.296875 38.257812 16.4375 L 38.488281 16.648438 C 38.550781 16.683594 38.613281 16.679688 38.671875 16.640625 C 38.769531 16.683594 38.867188 16.730469 38.964844 16.769531 C 39.164062 16.851562 39.355469 16.921875 39.5625 16.988281 L 37.90625 16.878906 C 37.675781 16.859375 37.445312 16.839844 37.214844 16.816406 C 37.210938 16.789062 37.179688 16.765625 37.105469 16.753906 L 34.523438 16.429688 C 34.480469 16.355469 34.421875 16.292969 34.351562 16.246094 C 34.277344 16.199219 34.199219 16.167969 34.113281 16.15625 C 34.027344 16.148438 33.941406 16.15625 33.859375 16.183594 C 33.777344 16.214844 33.707031 16.257812 33.648438 16.320312 L 32.527344 16.183594 C 32.484375 16.175781 32.441406 16.183594 32.402344 16.203125 L 32.324219 16.195312 C 32.335938 16.191406 32.347656 16.1875 32.355469 16.179688 L 32.375 16.175781 C 32.5 16.152344 32.34375 16.109375 32.292969 16.113281 L 32.128906 16.117188 C 31.601562 15.988281 31.148438 15.660156 30.664062 15.414062 C 30.253906 15.203125 29.820312 15.058594 29.367188 14.984375 C 28.953125 14.917969 28.539062 14.910156 28.125 14.957031 C 27.5 14.394531 25.734375 14.015625 24.894531 13.964844 C 24.476562 13.9375 24.070312 13.980469 23.667969 14.089844 C 23.25 14.222656 22.835938 14.375 22.433594 14.550781 C 21.984375 14.722656 21.519531 14.824219 21.042969 14.855469 C 20.628906 14.890625 20.226562 14.972656 19.835938 15.101562 C 19.050781 15.363281 18.328125 15.765625 17.574219 16.09375 C 17.125 16.292969 16.660156 16.449219 16.183594 16.566406 C 15.695312 16.6875 15.207031 16.800781 14.765625 17.0625 C 14.6875 17.113281 14.796875 17.152344 14.839844 17.15625 C 16.445312 17.257812 18.03125 16.980469 19.628906 16.859375 C 20.453125 16.792969 21.277344 16.796875 22.105469 16.863281 C 22.492188 16.902344 22.882812 16.910156 23.273438 16.882812 C 23.367188 16.875 23.457031 16.863281 23.550781 16.847656 C 23.144531 16.953125 22.746094 17.074219 22.355469 17.222656 C 21.878906 17.410156 21.421875 17.632812 20.976562 17.886719 C 19.933594 18.472656 18.972656 19.207031 18.019531 19.933594 C 17.960938 19.976562 18.121094 19.984375 18.136719 19.984375 C 18.609375 19.9375 19.066406 19.835938 19.511719 19.679688 C 19.984375 19.539062 20.464844 19.429688 20.953125 19.359375 C 21.921875 19.210938 22.90625 19.15625 23.878906 19.042969 C 24.828125 18.933594 25.746094 18.714844 26.644531 18.382812 C 27.117188 18.207031 27.597656 18.019531 28.066406 17.859375 C 28.539062 17.703125 29.023438 17.574219 29.492188 17.410156 C 29.976562 17.226562 30.445312 17.011719 30.902344 16.761719 C 31.277344 16.550781 31.671875 16.378906 32.085938 16.246094 L 32.191406 16.253906 L 32.332031 16.269531 C 32.320312 16.304688 32.34375 16.34375 32.4375 16.355469 L 33.53125 16.488281 C 33.515625 16.515625 33.507812 16.542969 33.5 16.574219 C 33.453125 16.742188 33.480469 16.898438 33.582031 17.042969 C 33.683594 17.1875 33.820312 17.265625 33.996094 17.28125 C 34.167969 17.292969 34.320312 17.238281 34.441406 17.113281 C 34.5625 16.988281 34.617188 16.835938 34.597656 16.664062 C 35.285156 16.765625 35.96875 16.855469 36.65625 16.933594 C 36.683594 16.96875 36.714844 16.984375 36.757812 16.980469 L 40.066406 17.21875 C 40.101562 17.265625 40.148438 17.289062 40.210938 17.285156 L 40.941406 17.324219 C 41.9375 17.527344 42.945312 17.65625 43.960938 17.714844 L 44.175781 17.722656 C 42.886719 17.941406 41.433594 18.183594 40.953125 18.179688 C 40.425781 18.160156 39.902344 18.214844 39.390625 18.339844 C 38.847656 18.496094 38.339844 18.753906 37.8125 18.953125 C 36.773438 19.339844 35.75 19.769531 34.957031 20.578125 C 34.554688 20.992188 34.300781 21.492188 34.058594 22.007812 C 33.84375 22.507812 33.570312 22.972656 33.246094 23.410156 C 32.488281 24.386719 31.480469 25.125 30.492188 25.851562 C 30.4375 25.890625 30.632812 25.90625 30.671875 25.882812 C 31.550781 25.363281 32.488281 24.953125 33.386719 24.46875 C 34.214844 24.015625 34.984375 23.476562 35.695312 22.851562 C 36.386719 22.246094 37.050781 21.605469 37.804688 21.074219 C 38.167969 20.8125 38.554688 20.589844 38.964844 20.40625 C 39.386719 20.222656 39.835938 20.105469 40.273438 19.945312 C 40.722656 19.800781 41.125 19.570312 41.472656 19.25 C 41.800781 18.933594 42.058594 18.589844 42.476562 18.382812 C 42.628906 18.320312 42.773438 18.246094 42.914062 18.160156 C 43.109375 18.132812 43.988281 17.917969 44.769531 17.726562 C 45.214844 17.71875 45.65625 17.699219 46.097656 17.683594 C 46.015625 17.714844 45.941406 17.761719 45.882812 17.828125 C 45.820312 17.894531 45.78125 17.96875 45.753906 18.058594 C 45.730469 18.144531 45.726562 18.230469 45.746094 18.316406 C 45.761719 18.40625 45.800781 18.484375 45.855469 18.554688 C 45.910156 18.625 45.980469 18.679688 46.058594 18.71875 C 46.140625 18.753906 46.226562 18.773438 46.316406 18.769531 C 46.40625 18.765625 46.488281 18.742188 46.566406 18.699219 C 46.644531 18.65625 46.710938 18.597656 46.761719 18.523438 C 46.8125 18.449219 46.839844 18.367188 46.851562 18.277344 C 46.863281 18.1875 46.855469 18.101562 46.824219 18.019531 C 46.792969 17.933594 46.746094 17.859375 46.679688 17.800781 C 46.613281 17.738281 46.539062 17.695312 46.453125 17.667969 C 46.671875 17.664062 46.886719 17.65625 47.105469 17.65625 L 47.164062 17.660156 C 47.144531 17.703125 47.335938 17.808594 47.394531 17.8125 L 50.359375 17.914062 C 50.632812 17.957031 51.359375 17.980469 51.222656 17.953125 C 51.0625 17.921875 50.902344 17.894531 50.742188 17.867188 C 50.742188 17.863281 50.742188 17.859375 50.742188 17.855469 C 50.835938 17.859375 51.949219 17.957031 52.261719 17.96875 L 52.628906 18 C 52.679688 18.003906 52.726562 18 52.777344 17.988281 L 52.785156 17.988281 C 51.828125 18.488281 50.859375 18.960938 49.796875 19.222656 C 48.734375 19.480469 47.632812 19.597656 46.566406 19.863281 C 45.621094 20.09375 44.679688 20.449219 43.921875 21.074219 C 43.144531 21.714844 42.617188 22.589844 41.933594 23.324219 C 41.527344 23.742188 41.074219 24.097656 40.574219 24.394531 C 40.082031 24.679688 39.625 25.015625 39.199219 25.394531 C 39.125 25.46875 39.289062 25.523438 39.34375 25.5 C 40.550781 24.910156 41.789062 24.390625 43.054688 23.941406 C 43.695312 23.714844 44.34375 23.507812 44.996094 23.320312 C 45.386719 23.207031 45.921875 23.050781 46.042969 22.617188 C 46.496094 22.757812 46.972656 22.585938 47.386719 22.398438 C 47.902344 22.167969 48.402344 21.902344 48.882812 21.601562 C 49.363281 21.300781 49.777344 20.929688 50.128906 20.484375 C 50.480469 20.007812 50.789062 19.503906 51.058594 18.976562 C 51.714844 18.710938 52.351562 18.410156 52.976562 18.074219 C 53.019531 18.050781 53.027344 18.023438 53.019531 17.996094 L 53.367188 18.003906 C 53.410156 18.011719 53.453125 18 53.488281 17.96875 L 54.203125 18.039062 C 54.226562 18.039062 54.253906 18.039062 54.28125 18.03125 L 54.492188 18.058594 C 54.585938 18.074219 54.761719 17.976562 54.671875 17.917969 L 56.25 17.890625 C 56.328125 17.890625 56.375 17.863281 56.390625 17.832031 L 56.621094 17.8125 L 56.773438 17.804688 C 57.636719 17.828125 58.5 17.804688 59.363281 17.742188 C 59.40625 17.738281 59.523438 17.734375 59.558594 17.734375 C 60.355469 17.761719 61.132812 17.652344 61.890625 17.414062 C 61.902344 17.410156 61.914062 17.40625 61.921875 17.398438 L 62.242188 17.351562 C 61.691406 17.707031 61.125 18.050781 60.503906 18.226562 C 60.457031 18.21875 60.414062 18.21875 60.367188 18.226562 C 60.316406 18.253906 60.261719 18.273438 60.207031 18.296875 C 60.0625 18.324219 59.917969 18.339844 59.773438 18.347656 C 58.992188 18.375 58.152344 18.230469 57.453125 18.660156 C 57.097656 18.878906 56.824219 19.199219 56.523438 19.480469 C 56.210938 19.761719 55.875 20.011719 55.515625 20.226562 C 54.808594 20.644531 54.070312 21.003906 53.304688 21.300781 C 52.4375 21.660156 51.5625 22 50.746094 22.460938 C 50.644531 22.519531 50.828125 22.550781 50.867188 22.539062 L 55.324219 21.378906 C 55.996094 21.207031 56.683594 21.050781 57.324219 20.773438 C 57.902344 20.507812 58.4375 20.171875 58.929688 19.765625 C 59.46875 19.320312 59.980469 18.84375 60.46875 18.34375 C 61.1875 18.167969 61.832031 17.773438 62.460938 17.371094 C 62.496094 17.347656 62.472656 17.328125 62.421875 17.316406 L 64.539062 17.007812 C 64.5625 17.011719 64.585938 17.011719 64.609375 17.007812 L 64.785156 16.96875 L 65.871094 16.8125 C 65.917969 16.890625 65.980469 16.917969 66.070312 16.890625 L 68.789062 16.328125 C 68.953125 16.296875 69.410156 16.144531 69.375 16.105469 C 69.820312 16.039062 70.265625 15.972656 70.710938 15.910156 C 71.429688 15.8125 72.148438 15.714844 72.867188 15.617188 C 73.054688 15.597656 72.976562 15.445312 72.824219 15.441406 Z M 61.15625 14.792969 C 60.78125 14.695312 60.382812 14.710938 60 14.621094 C 59.609375 14.507812 59.257812 14.328125 58.933594 14.082031 C 58.316406 13.65625 57.667969 13.28125 57.050781 12.859375 C 56.488281 12.472656 55.949219 12.007812 55.613281 11.402344 C 55.535156 11.265625 55.46875 11.121094 55.414062 10.96875 C 55.378906 10.863281 55.242188 10.546875 55.316406 10.445312 C 55.390625 10.34375 55.75 10.484375 55.851562 10.507812 C 56.039062 10.558594 56.226562 10.609375 56.414062 10.667969 C 57.125 10.902344 57.800781 11.21875 58.441406 11.609375 C 59.722656 12.375 60.847656 13.382812 61.902344 14.4375 L 62.292969 14.828125 C 61.71875 14.449219 61.113281 14.121094 60.476562 13.851562 C 59.945312 13.625 59.382812 13.453125 58.867188 13.1875 C 58.390625 12.929688 57.957031 12.613281 57.570312 12.230469 C 57.144531 11.804688 56.753906 11.347656 56.40625 10.855469 C 56.355469 10.789062 56.160156 10.832031 56.226562 10.925781 C 56.839844 11.765625 57.539062 12.574219 58.4375 13.121094 C 58.910156 13.390625 59.40625 13.609375 59.921875 13.789062 C 60.476562 14 61.007812 14.25 61.519531 14.542969 C 62.015625 14.824219 62.484375 15.144531 62.925781 15.5 C 62.324219 15.320312 61.777344 14.957031 61.15625 14.796875 Z M 55.957031 15.839844 C 55.730469 15.796875 55.503906 15.78125 55.277344 15.789062 C 54.976562 15.78125 54.675781 15.761719 54.375 15.734375 C 53.816406 15.6875 53.261719 15.613281 52.714844 15.523438 C 51.632812 15.34375 50.546875 15.121094 49.476562 14.867188 C 48.953125 14.753906 48.449219 14.582031 47.964844 14.34375 C 47.496094 14.09375 47.058594 13.792969 46.652344 13.441406 C 45.777344 12.703125 44.953125 11.894531 44.121094 11.113281 C 45.003906 11.332031 45.84375 11.710938 46.734375 11.914062 C 47.238281 12.011719 47.734375 12.132812 48.222656 12.28125 C 48.703125 12.453125 49.164062 12.671875 49.625 12.894531 C 50.519531 13.300781 51.414062 13.695312 52.320312 14.054688 C 53.191406 14.394531 54.113281 14.644531 54.925781 15.117188 C 54.382812 14.960938 53.828125 14.863281 53.261719 14.824219 C 52.316406 14.738281 51.347656 14.734375 50.433594 14.457031 C 49.519531 14.183594 48.851562 13.585938 48.113281 13.03125 C 47.277344 12.40625 46.339844 12.046875 45.355469 11.714844 C 45.273438 11.695312 45.121094 11.769531 45.25 11.816406 C 46.160156 12.121094 47.054688 12.445312 47.835938 13.015625 C 48.523438 13.523438 49.15625 14.109375 49.960938 14.433594 C 51.6875 15.117188 53.660156 14.640625 55.359375 15.421875 C 55.402344 15.441406 55.441406 15.460938 55.484375 15.484375 C 55.648438 15.601562 55.808594 15.71875 55.96875 15.84375 Z M 37.941406 8.851562 C 38.386719 9.136719 38.707031 9.527344 38.894531 10.023438 C 39.078125 10.511719 39.019531 11.054688 39.292969 11.511719 C 39.773438 12.304688 40.75 12.621094 41.449219 13.175781 C 41.910156 13.550781 42.296875 13.988281 42.609375 14.492188 L 40.460938 13.929688 C 40.082031 13.828125 39.683594 13.753906 39.339844 13.5625 C 39.046875 13.390625 38.8125 13.15625 38.636719 12.863281 C 38.285156 12.292969 38.121094 11.613281 37.960938 10.96875 C 37.785156 10.261719 37.640625 9.546875 37.476562 8.84375 C 37.335938 8.203125 37.167969 7.574219 36.964844 6.953125 C 37.5625 7.671875 38.191406 8.375 38.945312 8.9375 C 39.796875 9.574219 40.878906 9.949219 41.570312 10.785156 C 41.9375 11.226562 42.140625 11.769531 42.324219 12.308594 C 42.53125 12.84375 42.664062 13.398438 42.726562 13.96875 C 42.738281 14.105469 42.75 14.242188 42.761719 14.378906 C 42.519531 13.988281 42.230469 13.636719 41.898438 13.324219 C 41.507812 12.984375 41.089844 12.691406 40.644531 12.4375 C 40.246094 12.1875 39.828125 11.933594 39.550781 11.542969 C 39.226562 11.082031 39.292969 10.507812 39.101562 9.996094 C 38.902344 9.464844 38.5625 9.050781 38.085938 8.75 C 38.007812 8.695312 37.832031 8.78125 37.941406 8.851562 Z M 35.929688 14.878906 C 35.535156 14.578125 35.117188 14.3125 34.675781 14.085938 C 34.617188 14.058594 34.425781 14.097656 34.527344 14.164062 L 35.71875 14.902344 C 35.910156 15.046875 36.09375 15.203125 36.273438 15.363281 C 34.546875 15.054688 32.8125 14.300781 31.777344 12.894531 C 31.8125 12.886719 31.835938 12.871094 31.816406 12.84375 C 31.25 12.09375 30.9375 11.246094 30.886719 10.300781 C 30.882812 10.226562 30.679688 10.230469 30.679688 10.304688 C 30.683594 10.976562 30.835938 11.613281 31.144531 12.210938 C 30.421875 11.578125 29.664062 10.984375 28.992188 10.296875 C 28.546875 9.851562 28.171875 9.355469 27.867188 8.804688 C 27.519531 8.144531 27.371094 7.429688 27.230469 6.707031 C 27.144531 6.246094 27.058594 5.785156 26.972656 5.324219 C 27.203125 5.699219 27.457031 6.058594 27.734375 6.402344 C 28.058594 6.804688 28.359375 7.226562 28.636719 7.664062 C 28.917969 8.152344 29.234375 8.617188 29.585938 9.058594 C 29.996094 9.5 30.449219 9.894531 30.945312 10.238281 C 31.449219 10.613281 31.949219 10.996094 32.441406 11.390625 C 33.429688 12.171875 34.394531 12.976562 35.339844 13.804688 C 36.183594 14.539062 37.015625 15.289062 37.839844 16.042969 C 37.195312 15.671875 36.558594 15.273438 35.925781 14.875 Z M 31.726562 16.082031 L 31.808594 16.101562 L 31.636719 16.09375 C 31.664062 16.101562 31.695312 16.09375 31.726562 16.082031 Z M 23.175781 16.773438 C 22.761719 16.792969 22.347656 16.78125 21.9375 16.734375 C 20.445312 16.613281 18.96875 16.8125 17.484375 16.953125 C 16.683594 17.042969 15.882812 17.074219 15.082031 17.050781 C 15.769531 16.695312 16.585938 16.625 17.304688 16.347656 C 18.050781 16.054688 18.75 15.664062 19.492188 15.363281 C 19.867188 15.207031 20.25 15.089844 20.648438 15.011719 C 21.058594 14.941406 21.476562 14.953125 21.882812 14.851562 C 22.703125 14.65625 23.429688 14.179688 24.273438 14.085938 C 25.226562 13.976562 26.96875 14.398438 27.742188 15.023438 C 27.402344 15.09375 27.074219 15.210938 26.761719 15.371094 C 26.628906 15.445312 26.496094 15.523438 26.371094 15.609375 C 26.339844 15.59375 26.308594 15.585938 26.277344 15.585938 C 25.125 15.558594 23.980469 15.601562 22.835938 15.714844 C 22.265625 15.773438 21.703125 15.871094 21.132812 15.933594 C 20.824219 15.957031 20.519531 15.945312 20.210938 15.890625 C 19.980469 15.855469 19.75 15.867188 19.523438 15.925781 C 19.234375 16.019531 18.949219 16.132812 18.671875 16.261719 L 17.679688 16.679688 C 17.636719 16.699219 17.65625 16.734375 17.683594 16.757812 C 17.730469 16.78125 17.777344 16.78125 17.824219 16.757812 C 18.367188 16.53125 18.90625 16.277344 19.457031 16.078125 C 19.734375 15.980469 20.019531 15.960938 20.3125 16.015625 C 20.558594 16.058594 20.808594 16.066406 21.0625 16.046875 C 21.609375 16 22.148438 15.898438 22.6875 15.835938 C 23.230469 15.773438 23.816406 15.730469 24.382812 15.707031 C 24.945312 15.683594 25.542969 15.675781 26.121094 15.683594 C 26.058594 15.777344 25.980469 15.859375 25.894531 15.929688 C 25.808594 15.984375 25.722656 16.039062 25.636719 16.09375 C 25.546875 16.140625 25.453125 16.183594 25.359375 16.222656 C 25.027344 16.347656 24.679688 16.449219 24.335938 16.546875 C 23.957031 16.664062 23.566406 16.742188 23.171875 16.78125 Z M 29.8125 17.175781 C 29.347656 17.363281 28.875 17.523438 28.398438 17.660156 C 27.914062 17.808594 27.4375 17.972656 26.96875 18.152344 C 26.496094 18.332031 26.015625 18.515625 25.53125 18.652344 C 25.066406 18.777344 24.59375 18.871094 24.117188 18.933594 C 23.164062 19.066406 22.203125 19.113281 21.253906 19.238281 C 20.742188 19.300781 20.238281 19.394531 19.738281 19.519531 C 19.253906 19.644531 18.78125 19.832031 18.285156 19.894531 C 19.882812 18.679688 21.515625 17.484375 23.476562 16.949219 C 23.953125 16.820312 24.433594 16.710938 24.902344 16.550781 C 25.089844 16.488281 25.277344 16.410156 25.457031 16.320312 C 25.492188 16.304688 25.53125 16.292969 25.566406 16.277344 C 25.796875 16.1875 26 16.0625 26.179688 15.894531 L 26.230469 15.859375 C 26.636719 15.550781 27.078125 15.3125 27.5625 15.148438 C 27.648438 15.121094 27.734375 15.101562 27.824219 15.074219 C 27.859375 15.101562 27.996094 15.070312 28.078125 15.027344 C 28.382812 14.984375 28.691406 14.972656 29 15.003906 C 29.558594 15.058594 30.082031 15.21875 30.574219 15.484375 C 30.90625 15.664062 31.230469 15.867188 31.574219 16.015625 L 31.113281 16.0625 C 30.835938 16.035156 30.558594 16.007812 30.273438 15.996094 C 29.710938 15.976562 29.15625 16.035156 28.609375 16.171875 C 27.472656 16.445312 26.421875 16.984375 25.390625 17.519531 C 25.328125 17.554688 25.519531 17.566406 25.550781 17.5625 C 26.535156 17.273438 27.527344 17.007812 28.523438 16.769531 C 28.578125 16.785156 28.628906 16.792969 28.683594 16.785156 C 28.6875 16.78125 28.695312 16.777344 28.699219 16.777344 C 28.773438 16.746094 28.84375 16.714844 28.914062 16.679688 C 29.660156 16.503906 30.410156 16.34375 31.164062 16.199219 C 31.394531 16.203125 31.625 16.214844 31.851562 16.238281 C 31.136719 16.457031 30.5 16.886719 29.808594 17.179688 Z M 28.484375 16.597656 C 28.445312 16.621094 28.402344 16.644531 28.359375 16.667969 C 28.316406 16.695312 28.359375 16.699219 28.402344 16.707031 C 27.578125 16.902344 26.761719 17.117188 25.945312 17.347656 C 26.851562 16.882812 27.777344 16.441406 28.765625 16.207031 C 28.964844 16.164062 29.164062 16.128906 29.367188 16.101562 C 29.054688 16.226562 28.761719 16.382812 28.488281 16.574219 C 28.472656 16.589844 28.476562 16.597656 28.484375 16.605469 Z M 29.21875 16.480469 C 29.242188 16.484375 29.261719 16.484375 29.28125 16.480469 L 29.414062 16.441406 L 29.441406 16.433594 C 29.464844 16.4375 29.488281 16.4375 29.511719 16.4375 L 30.25 16.238281 C 30.261719 16.238281 30.269531 16.234375 30.277344 16.226562 C 30.425781 16.210938 30.578125 16.203125 30.730469 16.195312 C 30.199219 16.300781 29.671875 16.414062 29.148438 16.53125 C 29.167969 16.523438 29.199219 16.503906 29.21875 16.488281 Z M 29.542969 16.226562 Z M 29.6875 16.074219 C 29.980469 16.054688 30.273438 16.054688 30.5625 16.078125 L 30.714844 16.089844 L 30.519531 16.105469 C 30.496094 16.097656 30.46875 16.09375 30.445312 16.09375 L 30.257812 16.113281 C 30.210938 16.089844 30.164062 16.078125 30.113281 16.085938 L 29.976562 16.109375 C 29.945312 16.097656 29.917969 16.089844 29.886719 16.085938 C 29.828125 16.089844 29.769531 16.09375 29.710938 16.097656 C 29.699219 16.09375 29.6875 16.089844 29.671875 16.085938 C 29.683594 16.085938 29.6875 16.082031 29.6875 16.078125 Z M 41.921875 17.375 L 42.570312 17.410156 C 42.558594 17.429688 42.558594 17.449219 42.570312 17.46875 C 42.351562 17.441406 42.132812 17.414062 41.917969 17.378906 Z M 42.984375 17.519531 L 43.496094 17.511719 C 43.488281 17.53125 43.488281 17.546875 43.496094 17.5625 C 43.320312 17.554688 43.152344 17.542969 42.980469 17.523438 Z M 41.9375 18.363281 C 41.578125 18.441406 41.230469 18.527344 40.890625 18.621094 C 40.207031 18.808594 39.535156 19.042969 38.882812 19.320312 C 37.75 19.804688 36.535156 20.375 35.753906 21.359375 C 35.28125 21.957031 34.816406 22.539062 34.230469 23.027344 C 34.210938 23.046875 34.382812 23.082031 34.429688 23.046875 C 34.921875 22.628906 35.359375 22.160156 35.746094 21.644531 C 35.933594 21.386719 36.140625 21.144531 36.367188 20.914062 C 36.605469 20.695312 36.863281 20.503906 37.140625 20.335938 C 38.195312 19.695312 39.3125 19.191406 40.492188 18.828125 C 41.042969 18.652344 41.601562 18.507812 42.167969 18.394531 C 41.925781 18.558594 41.710938 18.753906 41.519531 18.976562 C 41.210938 19.328125 40.839844 19.601562 40.414062 19.792969 C 39.996094 19.96875 39.550781 20.085938 39.121094 20.242188 C 38.710938 20.394531 38.324219 20.585938 37.953125 20.820312 C 37.195312 21.300781 36.523438 21.914062 35.859375 22.515625 C 35.160156 23.167969 34.398438 23.742188 33.578125 24.234375 C 32.851562 24.652344 32.089844 25 31.351562 25.382812 C 31.972656 24.929688 32.542969 24.421875 33.070312 23.867188 C 33.429688 23.476562 33.738281 23.050781 33.988281 22.585938 C 34.253906 22.085938 34.441406 21.5625 34.757812 21.089844 C 35.390625 20.140625 36.46875 19.558594 37.507812 19.167969 C 38.035156 18.96875 38.554688 18.75 39.082031 18.542969 C 39.644531 18.332031 40.226562 18.234375 40.828125 18.242188 C 41.433594 18.242188 42.03125 18.242188 42.632812 18.191406 C 42.398438 18.253906 42.167969 18.316406 41.929688 18.367188 Z M 44.625 17.625 C 44.421875 17.625 44.21875 17.621094 44.015625 17.605469 L 44.257812 17.59375 C 44.53125 17.582031 44.804688 17.574219 45.078125 17.570312 L 44.792969 17.617188 Z M 45.425781 17.570312 C 45.621094 17.570312 45.816406 17.566406 46.015625 17.570312 L 46.167969 17.582031 C 45.863281 17.59375 45.5625 17.601562 45.261719 17.609375 Z M 49.261719 17.59375 C 49.257812 17.585938 49.253906 17.582031 49.25 17.574219 L 49.746094 17.597656 C 49.765625 17.605469 49.785156 17.609375 49.808594 17.613281 L 49.929688 17.628906 C 49.699219 17.617188 49.476562 17.601562 49.253906 17.59375 Z M 50.015625 20.332031 C 49.699219 20.753906 49.328125 21.109375 48.890625 21.402344 C 48.464844 21.683594 48.019531 21.929688 47.554688 22.144531 C 47.09375 22.367188 46.53125 22.683594 46.019531 22.441406 C 45.964844 22.417969 45.871094 22.441406 45.859375 22.507812 C 45.835938 22.800781 45.570312 22.957031 45.320312 23.058594 C 45.042969 23.171875 44.742188 23.238281 44.453125 23.328125 C 43.867188 23.503906 43.289062 23.699219 42.714844 23.90625 C 41.738281 24.257812 40.785156 24.65625 39.84375 25.089844 C 40.496094 24.605469 41.242188 24.246094 41.835938 23.683594 C 42.554688 23.003906 43.066406 22.148438 43.769531 21.457031 C 45.320312 19.929688 47.613281 19.878906 49.609375 19.425781 C 49.925781 19.355469 50.234375 19.269531 50.542969 19.164062 C 50.121094 19.472656 49.675781 19.738281 49.203125 19.957031 C 48.628906 20.222656 48.023438 20.390625 47.429688 20.609375 C 47.152344 20.707031 46.886719 20.828125 46.628906 20.96875 C 46.359375 21.136719 46.109375 21.332031 45.878906 21.546875 C 45.382812 21.976562 44.757812 22.125 44.164062 22.363281 C 43.5 22.628906 42.898438 23 42.359375 23.472656 C 42.261719 23.554688 42.429688 23.640625 42.503906 23.578125 C 43 23.140625 43.550781 22.792969 44.160156 22.539062 C 44.722656 22.300781 45.339844 22.171875 45.839844 21.804688 C 46.101562 21.613281 46.316406 21.375 46.589844 21.195312 C 46.855469 21.023438 47.136719 20.882812 47.433594 20.773438 C 48.019531 20.546875 48.628906 20.386719 49.203125 20.128906 C 49.722656 19.894531 50.210938 19.609375 50.671875 19.273438 C 50.472656 19.640625 50.253906 19.992188 50.007812 20.332031 Z M 57.398438 20.609375 C 56.765625 20.917969 56.078125 21.078125 55.398438 21.253906 L 53.21875 21.824219 L 51.316406 22.324219 C 52.667969 21.640625 54.132812 21.207031 55.445312 20.445312 C 55.789062 20.25 56.113281 20.027344 56.421875 19.78125 C 56.75 19.515625 57.027344 19.195312 57.351562 18.925781 C 57.71875 18.621094 58.140625 18.46875 58.617188 18.457031 C 59.003906 18.4375 59.386719 18.46875 59.773438 18.453125 C 59.488281 18.535156 59.199219 18.597656 58.910156 18.65625 C 58.433594 18.753906 57.980469 18.90625 57.546875 19.121094 C 56.667969 19.5625 55.945312 20.230469 55.101562 20.722656 C 55 20.78125 55.191406 20.828125 55.246094 20.796875 C 56.089844 20.300781 56.8125 19.632812 57.683594 19.183594 C 58.453125 18.785156 59.328125 18.726562 60.136719 18.441406 C 59.3125 19.269531 58.449219 20.097656 57.390625 20.609375 Z M 67.050781 16.1875 C 67.015625 16.179688 66.984375 16.179688 66.949219 16.183594 L 66.464844 16.273438 C 66.441406 16.265625 66.417969 16.265625 66.394531 16.269531 C 66.289062 16.285156 66.183594 16.304688 66.078125 16.328125 C 66.046875 16.285156 66.007812 16.269531 65.957031 16.273438 C 65.71875 16.300781 65.480469 16.304688 65.242188 16.28125 L 67.277344 16.148438 C 67.203125 16.15625 67.121094 16.171875 67.042969 16.1875 Z M 67.660156 16.175781 C 67.636719 16.152344 67.609375 16.132812 67.574219 16.125 L 68.34375 16.074219 C 68.109375 16.109375 67.878906 16.144531 67.65625 16.175781 Z M 70.257812 15.796875 C 70.222656 15.78125 70.191406 15.773438 70.152344 15.777344 L 67.863281 15.925781 C 68.941406 15.808594 70.027344 15.726562 71.113281 15.675781 Z M 70.257812 15.796875 "/></g></g></g><g clip-rule="nonzero" clip-path="url(#5b230d84ba)"><g clip-rule="nonzero" clip-path="url(#dc8d0a8de4)"><g clip-rule="nonzero" clip-path="url(#3474ea6029)"><path style=" stroke:none;fill-rule:nonzero;fill:#d7ae54;fill-opacity:1;" d="M 34.292969 15.753906 C 34.335938 15.605469 34.316406 15.464844 34.238281 15.332031 C 34.160156 15.195312 34.042969 15.109375 33.894531 15.070312 C 33.746094 15.03125 33.601562 15.050781 33.46875 15.128906 C 33.335938 15.207031 33.25 15.320312 33.210938 15.46875 C 33.171875 15.621094 33.1875 15.761719 33.265625 15.894531 C 33.34375 16.03125 33.460938 16.117188 33.609375 16.15625 C 33.757812 16.195312 33.902344 16.175781 34.035156 16.097656 C 34.167969 16.019531 34.253906 15.90625 34.292969 15.753906 Z M 34.292969 15.753906 "/></g></g></g><g clip-rule="nonzero" clip-path="url(#b1c9208427)"><g clip-rule="nonzero" clip-path="url(#0eab9c4bb5)"><g clip-rule="nonzero" clip-path="url(#b6beb8d8d6)"><path style=" stroke:none;fill-rule:nonzero;fill:#d7ae54;fill-opacity:1;" d="M 45.222656 15.96875 C 45.371094 16.007812 45.511719 15.988281 45.648438 15.910156 C 45.78125 15.832031 45.867188 15.71875 45.90625 15.566406 C 45.945312 15.417969 45.925781 15.273438 45.847656 15.140625 C 45.769531 15.007812 45.65625 14.921875 45.507812 14.882812 C 45.355469 14.84375 45.214844 14.863281 45.082031 14.941406 C 44.945312 15.019531 44.859375 15.132812 44.820312 15.28125 C 44.78125 15.433594 44.800781 15.574219 44.878906 15.707031 C 44.957031 15.839844 45.070312 15.929688 45.222656 15.96875 Z M 45.222656 15.96875 "/></g></g></g><g clip-rule="nonzero" clip-path="url(#f22eb46e44)"><g clip-rule="nonzero" clip-path="url(#a2a75ec763)"><g clip-rule="nonzero" clip-path="url(#452a147cba)"><path style=" stroke:none;fill-rule:nonzero;fill:#d7ae54;fill-opacity:1;" d="M 17.617188 14.019531 C 17.542969 14 17.472656 14.011719 17.40625 14.050781 C 17.339844 14.085938 17.296875 14.144531 17.277344 14.21875 C 17.257812 14.292969 17.269531 14.359375 17.304688 14.425781 C 17.34375 14.492188 17.402344 14.535156 17.476562 14.554688 C 17.546875 14.574219 17.617188 14.566406 17.683594 14.527344 C 17.75 14.488281 17.792969 14.429688 17.8125 14.359375 C 17.832031 14.285156 17.824219 14.214844 17.785156 14.148438 C 17.746094 14.082031 17.6875 14.039062 17.617188 14.019531 Z M 17.617188 14.019531 "/></g></g></g></g></g></g></g></svg>