<svg xmlns="http://www.w3.org/2000/svg" xmlns:xlink="http://www.w3.org/1999/xlink" width="70" zoomAndPan="magnify" viewBox="0 0 52.5 52.499999" height="70" preserveAspectRatio="xMidYMid meet" version="1.0"><defs><clipPath id="69013c173e"><path d="M 15 47 L 16 47 L 16 47.867188 L 15 47.867188 Z M 15 47 " clip-rule="nonzero"/></clipPath><clipPath id="c0f8b66c2e"><path d="M 25 2.550781 L 27 2.550781 L 27 13 L 25 13 Z M 25 2.550781 " clip-rule="nonzero"/></clipPath><clipPath id="1ceb8bd193"><path d="M 2.640625 17 L 5 17 L 5 21 L 2.640625 21 Z M 2.640625 17 " clip-rule="nonzero"/></clipPath><clipPath id="3125641faa"><path d="M 2.640625 20 L 5 20 L 5 24 L 2.640625 24 Z M 2.640625 20 " clip-rule="nonzero"/></clipPath><clipPath id="45e5f16353"><path d="M 37 44 L 42 44 L 42 47.867188 L 37 47.867188 Z M 37 44 " clip-rule="nonzero"/></clipPath><clipPath id="400971719e"><path d="M 47 35 L 49.445312 35 L 49.445312 37 L 47 37 Z M 47 35 " clip-rule="nonzero"/></clipPath></defs><path fill="#dae4d9" d="M 7.515625 8.410156 C 7.3125 8.410156 7.148438 8.25 7.148438 8.046875 C 7.148438 7.84375 7.308594 7.679688 7.507812 7.679688 L 7.515625 7.679688 C 7.71875 7.679688 7.882812 7.84375 7.882812 8.046875 C 7.882812 8.25 7.71875 8.410156 7.515625 8.410156 Z M 7.515625 8.410156 " fill-opacity="1" fill-rule="nonzero"/><path fill="#dae4d9" d="M 41.957031 39.921875 C 41.757812 39.921875 41.589844 39.757812 41.589844 39.554688 C 41.589844 39.355469 41.75 39.191406 41.949219 39.191406 L 41.957031 39.191406 C 42.160156 39.191406 42.324219 39.355469 42.324219 39.554688 C 42.324219 39.757812 42.160156 39.921875 41.957031 39.921875 Z M 41.957031 39.921875 " fill-opacity="1" fill-rule="nonzero"/><g clip-path="url(#69013c173e)"><path fill="#dae4d9" d="M 15.578125 47.984375 C 15.375 47.984375 15.207031 47.820312 15.207031 47.617188 C 15.207031 47.414062 15.367188 47.25 15.570312 47.25 L 15.578125 47.25 C 15.78125 47.25 15.945312 47.414062 15.945312 47.617188 C 15.945312 47.820312 15.78125 47.984375 15.578125 47.984375 Z M 15.578125 47.984375 " fill-opacity="1" fill-rule="nonzero"/></g><path fill="#dae4d9" d="M 7.515625 36.992188 C 7.3125 36.992188 7.148438 36.828125 7.148438 36.625 C 7.148438 36.421875 7.308594 36.257812 7.507812 36.257812 L 7.515625 36.257812 C 7.71875 36.257812 7.882812 36.421875 7.882812 36.625 C 7.882812 36.828125 7.71875 36.992188 7.515625 36.992188 Z M 7.515625 36.992188 " fill-opacity="1" fill-rule="nonzero"/><path fill="#dae4d9" d="M 47.820312 13.574219 C 47.617188 13.574219 47.453125 13.410156 47.453125 13.210938 C 47.453125 13.007812 47.613281 12.84375 47.8125 12.84375 L 47.820312 12.84375 C 48.023438 12.84375 48.1875 13.007812 48.1875 13.210938 C 48.1875 13.410156 48.023438 13.574219 47.820312 13.574219 Z M 47.820312 13.574219 " fill-opacity="1" fill-rule="nonzero"/><path fill="#dae4d9" d="M 26.179688 45.050781 C 17.292969 45.050781 10.058594 37.820312 10.058594 28.929688 C 10.058594 20.039062 17.292969 12.808594 26.179688 12.808594 C 30.605469 12.808594 34.730469 14.566406 37.800781 17.753906 C 37.941406 17.898438 37.933594 18.132812 37.789062 18.273438 C 37.644531 18.414062 37.414062 18.40625 37.273438 18.261719 C 34.34375 15.21875 30.402344 13.542969 26.179688 13.542969 C 17.695312 13.542969 10.792969 20.445312 10.792969 28.929688 C 10.792969 37.414062 17.695312 44.320312 26.179688 44.320312 C 34.667969 44.320312 41.570312 37.414062 41.570312 28.929688 C 41.570312 26.816406 41.148438 24.769531 40.320312 22.84375 C 40.238281 22.65625 40.324219 22.441406 40.511719 22.363281 C 40.695312 22.28125 40.914062 22.367188 40.992188 22.554688 C 41.863281 24.570312 42.304688 26.714844 42.304688 28.929688 C 42.304688 37.820312 35.070312 45.050781 26.179688 45.050781 Z M 26.179688 45.050781 " fill-opacity="1" fill-rule="nonzero"/><path fill="#dae4d9" d="M 29.914062 43.28125 C 29.890625 43.28125 29.867188 43.277344 29.839844 43.273438 C 29.644531 43.234375 29.515625 43.042969 29.554688 42.84375 C 29.570312 42.769531 31.011719 35.488281 31.011719 28.929688 C 31.011719 22.371094 29.570312 15.089844 29.554688 15.019531 C 29.515625 14.820312 29.644531 14.628906 29.839844 14.585938 C 30.035156 14.546875 30.234375 14.675781 30.273438 14.875 C 30.289062 14.949219 31.746094 22.296875 31.746094 28.929688 C 31.746094 35.5625 30.289062 42.914062 30.273438 42.988281 C 30.238281 43.160156 30.085938 43.28125 29.914062 43.28125 Z M 29.914062 43.28125 " fill-opacity="1" fill-rule="nonzero"/><path fill="#dae4d9" d="M 33.578125 41.816406 C 33.539062 41.816406 33.496094 41.808594 33.457031 41.792969 C 33.265625 41.726562 33.164062 41.519531 33.230469 41.328125 C 33.253906 41.265625 35.410156 35.09375 35.410156 28.929688 C 35.410156 22.765625 33.253906 16.597656 33.230469 16.535156 C 33.164062 16.34375 33.265625 16.132812 33.457031 16.066406 C 33.644531 16 33.855469 16.097656 33.921875 16.289062 C 33.945312 16.351562 36.144531 22.636719 36.144531 28.929688 C 36.144531 35.222656 33.945312 41.507812 33.921875 41.570312 C 33.871094 41.722656 33.730469 41.816406 33.578125 41.816406 Z M 33.578125 41.816406 " fill-opacity="1" fill-rule="nonzero"/><path fill="#dae4d9" d="M 37.242188 38.898438 C 37.191406 38.898438 37.136719 38.890625 37.089844 38.867188 C 36.90625 38.78125 36.824219 38.5625 36.910156 38.378906 C 36.929688 38.332031 39.074219 33.625 39.074219 28.929688 C 39.074219 27.496094 38.875 25.921875 38.484375 24.253906 C 38.4375 24.054688 38.5625 23.859375 38.757812 23.8125 C 38.964844 23.765625 39.152344 23.890625 39.199219 24.085938 C 39.601562 25.808594 39.808594 27.4375 39.808594 28.929688 C 39.808594 33.789062 37.664062 38.488281 37.574219 38.6875 C 37.511719 38.820312 37.378906 38.898438 37.242188 38.898438 Z M 37.242188 38.898438 " fill-opacity="1" fill-rule="nonzero"/><path fill="#dae4d9" d="M 21.226562 26 C 21.21875 26 21.210938 26 21.203125 26 C 21 25.988281 20.847656 25.8125 20.859375 25.609375 C 21.195312 20.074219 22.214844 14.925781 22.226562 14.875 C 22.265625 14.675781 22.464844 14.546875 22.65625 14.585938 C 22.855469 14.628906 22.984375 14.820312 22.945312 15.019531 C 22.933594 15.070312 21.921875 20.171875 21.589844 25.65625 C 21.578125 25.851562 21.417969 26 21.226562 26 Z M 21.226562 26 " fill-opacity="1" fill-rule="nonzero"/><path fill="#dae4d9" d="M 22.585938 43.28125 C 22.414062 43.28125 22.261719 43.160156 22.226562 42.988281 C 22.214844 42.9375 21.195312 37.785156 20.859375 32.25 C 20.847656 32.046875 21 31.875 21.203125 31.863281 C 21.425781 31.84375 21.578125 32.003906 21.589844 32.207031 C 21.921875 37.691406 22.933594 42.792969 22.945312 42.84375 C 22.984375 43.042969 22.855469 43.234375 22.65625 43.273438 C 22.632812 43.277344 22.609375 43.28125 22.585938 43.28125 Z M 22.585938 43.28125 " fill-opacity="1" fill-rule="nonzero"/><path fill="#dae4d9" d="M 18.921875 41.816406 C 18.769531 41.816406 18.628906 41.722656 18.574219 41.570312 C 18.554688 41.507812 16.355469 35.222656 16.355469 28.929688 C 16.355469 22.636719 18.554688 16.351562 18.574219 16.289062 C 18.644531 16.097656 18.851562 16 19.042969 16.066406 C 19.234375 16.132812 19.335938 16.34375 19.265625 16.535156 C 19.246094 16.597656 17.089844 22.765625 17.089844 28.929688 C 17.089844 35.09375 19.246094 41.265625 19.265625 41.328125 C 19.335938 41.519531 19.234375 41.726562 19.042969 41.792969 C 19.003906 41.808594 18.960938 41.816406 18.921875 41.816406 Z M 18.921875 41.816406 " fill-opacity="1" fill-rule="nonzero"/><path fill="#dae4d9" d="M 15.257812 38.898438 C 15.121094 38.898438 14.988281 38.820312 14.925781 38.6875 C 14.835938 38.488281 12.691406 33.789062 12.691406 28.929688 C 12.691406 24.070312 14.835938 19.371094 14.925781 19.175781 C 15.007812 18.992188 15.230469 18.910156 15.410156 18.996094 C 15.59375 19.078125 15.675781 19.296875 15.589844 19.480469 C 15.570312 19.527344 13.425781 24.234375 13.425781 28.929688 C 13.425781 33.625 15.570312 38.332031 15.589844 38.378906 C 15.675781 38.5625 15.59375 38.78125 15.410156 38.867188 C 15.363281 38.890625 15.308594 38.898438 15.257812 38.898438 Z M 15.257812 38.898438 " fill-opacity="1" fill-rule="nonzero"/><path fill="#dae4d9" d="M 18.488281 29.296875 L 11.53125 29.296875 C 11.332031 29.296875 11.167969 29.132812 11.167969 28.929688 C 11.167969 28.726562 11.332031 28.5625 11.53125 28.5625 L 18.488281 28.5625 C 18.6875 28.5625 18.851562 28.726562 18.851562 28.929688 C 18.851562 29.132812 18.6875 29.296875 18.488281 29.296875 Z M 18.488281 29.296875 " fill-opacity="1" fill-rule="nonzero"/><path fill="#dae4d9" d="M 40.96875 29.296875 L 23.617188 29.296875 C 23.414062 29.296875 23.25 29.132812 23.25 28.929688 C 23.25 28.726562 23.414062 28.5625 23.617188 28.5625 L 40.96875 28.5625 C 41.167969 28.5625 41.332031 28.726562 41.332031 28.929688 C 41.332031 29.132812 41.167969 29.296875 40.96875 29.296875 Z M 40.96875 29.296875 " fill-opacity="1" fill-rule="nonzero"/><path fill="#dae4d9" d="M 26.1875 34.367188 C 19.558594 34.367188 12.207031 32.90625 12.132812 32.894531 C 11.933594 32.851562 11.804688 32.660156 11.84375 32.460938 C 11.886719 32.261719 12.082031 32.132812 12.277344 32.175781 C 12.347656 32.1875 19.632812 33.632812 26.1875 33.632812 C 32.75 33.632812 40.027344 32.1875 40.101562 32.175781 C 40.296875 32.132812 40.492188 32.261719 40.53125 32.460938 C 40.574219 32.660156 40.445312 32.851562 40.246094 32.894531 C 40.171875 32.90625 32.820312 34.367188 26.1875 34.367188 Z M 26.1875 34.367188 " fill-opacity="1" fill-rule="nonzero"/><path fill="#dae4d9" d="M 26.1875 38.761719 C 19.894531 38.761719 13.609375 36.566406 13.546875 36.542969 C 13.359375 36.476562 13.257812 36.265625 13.324219 36.074219 C 13.394531 35.882812 13.601562 35.785156 13.792969 35.851562 C 13.855469 35.875 20.023438 38.03125 26.1875 38.03125 C 32.351562 38.03125 38.523438 35.875 38.585938 35.851562 C 38.777344 35.785156 38.984375 35.882812 39.054688 36.074219 C 39.121094 36.265625 39.019531 36.476562 38.828125 36.542969 C 38.765625 36.566406 32.480469 38.761719 26.1875 38.761719 Z M 26.1875 38.761719 " fill-opacity="1" fill-rule="nonzero"/><path fill="#dae4d9" d="M 26.1875 42.425781 C 21.328125 42.425781 16.632812 40.285156 16.433594 40.195312 C 16.25 40.109375 16.167969 39.890625 16.253906 39.707031 C 16.339844 39.523438 16.558594 39.445312 16.738281 39.527344 C 16.785156 39.550781 21.496094 41.695312 26.1875 41.695312 C 30.882812 41.695312 35.589844 39.550781 35.636719 39.527344 C 35.820312 39.445312 36.039062 39.523438 36.125 39.707031 C 36.207031 39.894531 36.128906 40.109375 35.945312 40.195312 C 35.746094 40.285156 31.046875 42.425781 26.1875 42.425781 Z M 26.1875 42.425781 " fill-opacity="1" fill-rule="nonzero"/><path fill="#dae4d9" d="M 12.203125 25.570312 C 12.03125 25.570312 11.878906 25.453125 11.84375 25.277344 C 11.804688 25.078125 11.933594 24.886719 12.132812 24.847656 C 12.207031 24.832031 19.558594 23.375 26.1875 23.375 C 32.820312 23.375 40.171875 24.832031 40.246094 24.847656 C 40.445312 24.886719 40.574219 25.078125 40.53125 25.277344 C 40.492188 25.476562 40.296875 25.605469 40.101562 25.566406 C 40.027344 25.550781 32.746094 24.105469 26.1875 24.105469 C 19.628906 24.105469 12.347656 25.550781 12.277344 25.566406 C 12.253906 25.570312 12.226562 25.570312 12.203125 25.570312 Z M 12.203125 25.570312 " fill-opacity="1" fill-rule="nonzero"/><path fill="#dae4d9" d="M 13.671875 21.90625 C 13.519531 21.90625 13.378906 21.8125 13.324219 21.664062 C 13.257812 21.472656 13.359375 21.265625 13.546875 21.195312 C 13.609375 21.175781 19.898438 18.976562 26.1875 18.976562 C 29.992188 18.976562 33.753906 19.761719 36.242188 20.421875 C 36.4375 20.472656 36.554688 20.675781 36.5 20.871094 C 36.449219 21.066406 36.253906 21.183594 36.054688 21.128906 C 33.609375 20.480469 29.914062 19.710938 26.1875 19.710938 C 20.023438 19.710938 13.855469 21.863281 13.792969 21.886719 C 13.753906 21.902344 13.710938 21.90625 13.671875 21.90625 Z M 13.671875 21.90625 " fill-opacity="1" fill-rule="nonzero"/><path fill="#dae4d9" d="M 16.585938 18.242188 C 16.449219 18.242188 16.316406 18.164062 16.253906 18.03125 C 16.167969 17.847656 16.25 17.628906 16.433594 17.542969 C 16.632812 17.453125 21.332031 15.3125 26.1875 15.3125 C 31.046875 15.3125 35.746094 17.453125 35.945312 17.542969 C 36.128906 17.628906 36.207031 17.847656 36.125 18.03125 C 36.039062 18.214844 35.820312 18.292969 35.636719 18.210938 C 35.589844 18.1875 30.882812 16.046875 26.1875 16.046875 C 21.496094 16.046875 16.785156 18.1875 16.738281 18.210938 C 16.691406 18.234375 16.636719 18.242188 16.585938 18.242188 Z M 16.585938 18.242188 " fill-opacity="1" fill-rule="nonzero"/><path fill="#dae4d9" d="M 26.1875 43.953125 C 25.988281 43.953125 25.824219 43.789062 25.824219 43.585938 L 25.824219 14.152344 C 25.824219 13.949219 25.988281 13.785156 26.1875 13.785156 C 26.390625 13.785156 26.554688 13.949219 26.554688 14.152344 L 26.554688 43.585938 C 26.554688 43.789062 26.390625 43.953125 26.1875 43.953125 Z M 26.1875 43.953125 " fill-opacity="1" fill-rule="nonzero"/><g clip-path="url(#c0f8b66c2e)"><path fill="#dae4d9" d="M 26.179688 12.074219 C 25.980469 12.074219 25.816406 11.914062 25.816406 11.710938 L 25.816406 2.914062 C 25.816406 2.714844 25.980469 2.550781 26.179688 2.550781 C 26.382812 2.550781 26.546875 2.714844 26.546875 2.914062 L 26.546875 11.710938 C 26.546875 11.914062 26.382812 12.074219 26.179688 12.074219 Z M 26.179688 12.074219 " fill-opacity="1" fill-rule="nonzero"/></g><path fill="#dae4d9" d="M 4.5625 23.066406 C 4.359375 23.066406 4.195312 22.90625 4.195312 22.703125 C 4.195312 21 5.800781 20.207031 5.871094 20.171875 C 6.050781 20.085938 6.269531 20.160156 6.359375 20.34375 C 6.445312 20.523438 6.371094 20.742188 6.1875 20.832031 C 6.136719 20.859375 4.929688 21.464844 4.929688 22.703125 C 4.929688 22.90625 4.765625 23.066406 4.5625 23.066406 Z M 4.5625 23.066406 " fill-opacity="1" fill-rule="nonzero"/><path fill="#dae4d9" d="M 6.027344 20.871094 C 5.976562 20.871094 5.921875 20.859375 5.871094 20.832031 C 5.800781 20.800781 4.195312 20.007812 4.195312 18.304688 C 4.195312 18.101562 4.359375 17.9375 4.5625 17.9375 C 4.765625 17.9375 4.929688 18.101562 4.929688 18.304688 C 4.929688 19.550781 6.175781 20.167969 6.1875 20.171875 C 6.371094 20.261719 6.445312 20.480469 6.359375 20.664062 C 6.296875 20.792969 6.164062 20.871094 6.027344 20.871094 Z M 6.027344 20.871094 " fill-opacity="1" fill-rule="nonzero"/><g clip-path="url(#1ceb8bd193)"><path fill="#dae4d9" d="M 3.097656 20.871094 C 2.960938 20.871094 2.832031 20.792969 2.769531 20.664062 C 2.679688 20.480469 2.757812 20.261719 2.9375 20.175781 C 2.988281 20.148438 4.195312 19.542969 4.195312 18.304688 C 4.195312 18.101562 4.359375 17.9375 4.5625 17.9375 C 4.765625 17.9375 4.929688 18.101562 4.929688 18.304688 C 4.929688 20.007812 3.324219 20.800781 3.257812 20.832031 C 3.207031 20.859375 3.152344 20.871094 3.097656 20.871094 Z M 3.097656 20.871094 " fill-opacity="1" fill-rule="nonzero"/></g><g clip-path="url(#3125641faa)"><path fill="#dae4d9" d="M 4.5625 23.066406 C 4.359375 23.066406 4.195312 22.90625 4.195312 22.703125 C 4.195312 21.457031 2.949219 20.839844 2.9375 20.832031 C 2.757812 20.746094 2.679688 20.527344 2.769531 20.34375 C 2.855469 20.160156 3.078125 20.085938 3.257812 20.171875 C 3.324219 20.207031 4.929688 21 4.929688 22.703125 C 4.929688 22.90625 4.765625 23.066406 4.5625 23.066406 Z M 4.5625 23.066406 " fill-opacity="1" fill-rule="nonzero"/></g><path fill="#dae4d9" d="M 39.003906 23.066406 C 38.804688 23.066406 38.640625 22.90625 38.640625 22.703125 C 38.640625 21 40.242188 20.207031 40.3125 20.171875 C 40.492188 20.085938 40.710938 20.160156 40.800781 20.34375 C 40.886719 20.523438 40.8125 20.742188 40.632812 20.832031 C 40.578125 20.859375 39.371094 21.464844 39.371094 22.703125 C 39.371094 22.90625 39.207031 23.066406 39.003906 23.066406 Z M 39.003906 23.066406 " fill-opacity="1" fill-rule="nonzero"/><path fill="#dae4d9" d="M 40.472656 20.871094 C 40.417969 20.871094 40.363281 20.859375 40.3125 20.832031 C 40.242188 20.800781 38.640625 20.007812 38.640625 18.304688 C 38.640625 18.101562 38.804688 17.9375 39.003906 17.9375 C 39.207031 17.9375 39.371094 18.101562 39.371094 18.304688 C 39.371094 19.550781 40.617188 20.167969 40.628906 20.171875 C 40.8125 20.261719 40.890625 20.480469 40.800781 20.664062 C 40.738281 20.792969 40.605469 20.871094 40.472656 20.871094 Z M 40.472656 20.871094 " fill-opacity="1" fill-rule="nonzero"/><path fill="#dae4d9" d="M 37.539062 20.871094 C 37.40625 20.871094 37.273438 20.792969 37.210938 20.664062 C 37.121094 20.480469 37.199219 20.261719 37.378906 20.175781 C 37.429688 20.148438 38.640625 19.542969 38.640625 18.304688 C 38.640625 18.101562 38.804688 17.9375 39.003906 17.9375 C 39.207031 17.9375 39.371094 18.101562 39.371094 18.304688 C 39.371094 20.007812 37.765625 20.800781 37.699219 20.832031 C 37.648438 20.859375 37.59375 20.871094 37.539062 20.871094 Z M 37.539062 20.871094 " fill-opacity="1" fill-rule="nonzero"/><path fill="#dae4d9" d="M 39.003906 23.066406 C 38.804688 23.066406 38.640625 22.90625 38.640625 22.703125 C 38.640625 21.457031 37.394531 20.839844 37.382812 20.832031 C 37.199219 20.746094 37.121094 20.527344 37.210938 20.34375 C 37.296875 20.160156 37.519531 20.085938 37.699219 20.171875 C 37.765625 20.207031 39.371094 21 39.371094 22.703125 C 39.371094 22.90625 39.207031 23.066406 39.003906 23.066406 Z M 39.003906 23.066406 " fill-opacity="1" fill-rule="nonzero"/><path fill="#dae4d9" d="M 21.050781 31.433594 C 20.847656 31.433594 20.683594 31.269531 20.683594 31.066406 C 20.683594 29.367188 22.289062 28.570312 22.359375 28.539062 C 22.539062 28.449219 22.757812 28.527344 22.847656 28.707031 C 22.933594 28.890625 22.859375 29.109375 22.675781 29.199219 C 22.625 29.222656 21.417969 29.832031 21.417969 31.066406 C 21.417969 31.269531 21.253906 31.433594 21.050781 31.433594 Z M 21.050781 31.433594 " fill-opacity="1" fill-rule="nonzero"/><path fill="#dae4d9" d="M 22.515625 29.234375 C 22.464844 29.234375 22.410156 29.222656 22.359375 29.199219 C 22.289062 29.167969 20.683594 28.371094 20.683594 26.671875 C 20.683594 26.46875 20.847656 26.304688 21.050781 26.304688 C 21.253906 26.304688 21.417969 26.46875 21.417969 26.671875 C 21.417969 27.917969 22.664062 28.53125 22.675781 28.539062 C 22.859375 28.628906 22.933594 28.847656 22.847656 29.027344 C 22.785156 29.160156 22.652344 29.234375 22.515625 29.234375 Z M 22.515625 29.234375 " fill-opacity="1" fill-rule="nonzero"/><path fill="#dae4d9" d="M 19.585938 29.234375 C 19.449219 29.234375 19.320312 29.160156 19.257812 29.03125 C 19.167969 28.847656 19.246094 28.628906 19.425781 28.539062 C 19.476562 28.515625 20.683594 27.90625 20.683594 26.671875 C 20.683594 26.46875 20.847656 26.304688 21.050781 26.304688 C 21.253906 26.304688 21.417969 26.46875 21.417969 26.671875 C 21.417969 28.371094 19.8125 29.167969 19.746094 29.199219 C 19.695312 29.222656 19.640625 29.234375 19.585938 29.234375 Z M 19.585938 29.234375 " fill-opacity="1" fill-rule="nonzero"/><path fill="#dae4d9" d="M 21.050781 31.433594 C 20.847656 31.433594 20.683594 31.269531 20.683594 31.066406 C 20.683594 29.820312 19.4375 29.207031 19.425781 29.199219 C 19.246094 29.109375 19.167969 28.890625 19.257812 28.710938 C 19.34375 28.527344 19.566406 28.449219 19.746094 28.539062 C 19.8125 28.570312 21.417969 29.367188 21.417969 31.066406 C 21.417969 31.269531 21.253906 31.433594 21.050781 31.433594 Z M 21.050781 31.433594 " fill-opacity="1" fill-rule="nonzero"/><path fill="#dae4d9" d="M 20.125 9.804688 C 20.066406 9.804688 20.007812 9.792969 19.957031 9.765625 L 19.21875 9.378906 L 18.484375 9.765625 C 18.359375 9.828125 18.210938 9.816406 18.097656 9.734375 C 17.984375 9.652344 17.929688 9.515625 17.953125 9.378906 L 18.09375 8.558594 L 17.5 7.980469 C 17.398438 7.882812 17.363281 7.734375 17.40625 7.601562 C 17.449219 7.472656 17.5625 7.375 17.699219 7.351562 L 18.523438 7.234375 L 18.890625 6.488281 C 19.015625 6.238281 19.425781 6.238281 19.546875 6.488281 L 19.914062 7.234375 L 20.738281 7.351562 C 20.875 7.375 20.992188 7.472656 21.035156 7.601562 C 21.078125 7.734375 21.039062 7.882812 20.941406 7.980469 L 20.347656 8.558594 L 20.488281 9.378906 C 20.511719 9.515625 20.453125 9.652344 20.339844 9.734375 C 20.277344 9.78125 20.203125 9.804688 20.125 9.804688 Z M 19.21875 8.597656 C 19.277344 8.597656 19.335938 8.609375 19.390625 8.640625 L 19.640625 8.769531 L 19.589844 8.492188 C 19.570312 8.375 19.609375 8.253906 19.695312 8.167969 L 19.898438 7.972656 L 19.621094 7.933594 C 19.5 7.914062 19.398438 7.839844 19.34375 7.730469 L 19.21875 7.480469 L 19.09375 7.730469 C 19.042969 7.839844 18.9375 7.914062 18.820312 7.933594 L 18.542969 7.972656 L 18.742188 8.167969 C 18.828125 8.253906 18.867188 8.375 18.847656 8.492188 L 18.800781 8.769531 L 19.050781 8.640625 C 19.101562 8.609375 19.160156 8.597656 19.21875 8.597656 Z M 19.21875 8.597656 " fill-opacity="1" fill-rule="nonzero"/><g clip-path="url(#45e5f16353)"><path fill="#dae4d9" d="M 40.644531 47.914062 C 40.585938 47.914062 40.527344 47.898438 40.472656 47.871094 L 39.738281 47.484375 L 39.003906 47.871094 C 38.878906 47.933594 38.730469 47.925781 38.617188 47.84375 C 38.503906 47.761719 38.449219 47.621094 38.472656 47.484375 L 38.613281 46.664062 L 38.015625 46.085938 C 37.917969 45.988281 37.882812 45.84375 37.925781 45.710938 C 37.96875 45.578125 38.082031 45.480469 38.21875 45.460938 L 39.042969 45.339844 L 39.410156 44.597656 C 39.472656 44.46875 39.597656 44.390625 39.738281 44.390625 C 39.878906 44.390625 40.003906 44.46875 40.066406 44.59375 L 40.433594 45.339844 L 41.257812 45.460938 C 41.394531 45.480469 41.507812 45.578125 41.550781 45.710938 C 41.59375 45.84375 41.558594 45.988281 41.460938 46.085938 L 40.863281 46.664062 L 41.003906 47.484375 C 41.027344 47.621094 40.972656 47.761719 40.859375 47.84375 C 40.796875 47.886719 40.71875 47.914062 40.644531 47.914062 Z M 39.738281 46.703125 C 39.796875 46.703125 39.855469 46.71875 39.910156 46.746094 L 40.15625 46.875 L 40.109375 46.597656 C 40.089844 46.480469 40.128906 46.359375 40.214844 46.273438 L 40.414062 46.078125 L 40.140625 46.039062 C 40.019531 46.019531 39.917969 45.945312 39.863281 45.839844 L 39.738281 45.585938 L 39.613281 45.835938 C 39.5625 45.945312 39.457031 46.019531 39.339844 46.039062 L 39.058594 46.078125 L 39.261719 46.273438 C 39.347656 46.359375 39.386719 46.480469 39.367188 46.597656 L 39.320312 46.875 L 39.566406 46.746094 C 39.621094 46.71875 39.679688 46.703125 39.738281 46.703125 Z M 39.738281 46.703125 " fill-opacity="1" fill-rule="nonzero"/></g><path fill="#dae4d9" d="M 48.53125 37.722656 C 48.328125 37.722656 48.164062 37.558594 48.164062 37.359375 L 48.164062 34.425781 C 48.164062 34.222656 48.328125 34.058594 48.53125 34.058594 C 48.734375 34.058594 48.898438 34.222656 48.898438 34.425781 L 48.898438 37.359375 C 48.898438 37.558594 48.734375 37.722656 48.53125 37.722656 Z M 48.53125 37.722656 " fill-opacity="1" fill-rule="nonzero"/><g clip-path="url(#400971719e)"><path fill="#dae4d9" d="M 49.265625 36.257812 L 47.800781 36.257812 C 47.597656 36.257812 47.433594 36.09375 47.433594 35.890625 C 47.433594 35.691406 47.597656 35.527344 47.800781 35.527344 L 49.265625 35.527344 C 49.46875 35.527344 49.632812 35.691406 49.632812 35.890625 C 49.632812 36.09375 49.46875 36.257812 49.265625 36.257812 Z M 49.265625 36.257812 " fill-opacity="1" fill-rule="nonzero"/></g><path fill="#dae4d9" d="M 6.027344 46.519531 C 5.828125 46.519531 5.664062 46.355469 5.664062 46.152344 L 5.664062 43.21875 C 5.664062 43.019531 5.828125 42.855469 6.027344 42.855469 C 6.230469 42.855469 6.394531 43.019531 6.394531 43.21875 L 6.394531 46.152344 C 6.394531 46.355469 6.230469 46.519531 6.027344 46.519531 Z M 6.027344 46.519531 " fill-opacity="1" fill-rule="nonzero"/><path fill="#dae4d9" d="M 6.761719 45.050781 L 5.296875 45.050781 C 5.09375 45.050781 4.929688 44.886719 4.929688 44.6875 C 4.929688 44.484375 5.09375 44.320312 5.296875 44.320312 L 6.761719 44.320312 C 6.964844 44.320312 7.128906 44.484375 7.128906 44.6875 C 7.128906 44.886719 6.964844 45.050781 6.761719 45.050781 Z M 6.761719 45.050781 " fill-opacity="1" fill-rule="nonzero"/><path fill="#dae4d9" d="M 38.273438 12.808594 C 38.070312 12.808594 37.90625 12.644531 37.90625 12.441406 L 37.90625 9.511719 C 37.90625 9.308594 38.070312 9.144531 38.273438 9.144531 C 38.476562 9.144531 38.640625 9.308594 38.640625 9.511719 L 38.640625 12.441406 C 38.640625 12.644531 38.476562 12.808594 38.273438 12.808594 Z M 38.273438 12.808594 " fill-opacity="1" fill-rule="nonzero"/><path fill="#dae4d9" d="M 39.003906 11.34375 L 37.539062 11.34375 C 37.335938 11.34375 37.171875 11.179688 37.171875 10.976562 C 37.171875 10.773438 37.335938 10.609375 37.539062 10.609375 L 39.003906 10.609375 C 39.207031 10.609375 39.371094 10.773438 39.371094 10.976562 C 39.371094 11.179688 39.207031 11.34375 39.003906 11.34375 Z M 39.003906 11.34375 " fill-opacity="1" fill-rule="nonzero"/></svg>