<svg xmlns="http://www.w3.org/2000/svg" xmlns:xlink="http://www.w3.org/1999/xlink" width="70" zoomAndPan="magnify" viewBox="0 0 52.5 52.499999" height="70" preserveAspectRatio="xMidYMid meet" version="1.0"><defs><clipPath id="9c016433f3"><path d="M 3 2.578125 L 49.429688 2.578125 L 49.429688 49.382812 L 3 49.382812 Z M 3 2.578125 " clip-rule="nonzero"/></clipPath></defs><g clip-path="url(#9c016433f3)"><path fill="#08979d" d="M 6.65625 49.332031 C 5.980469 49.222656 5.203125 48.804688 4.625 48.246094 C 3.011719 46.6875 2.636719 43.871094 3.628906 40.738281 C 4.417969 38.238281 6.082031 35.902344 8.457031 33.945312 C 8.726562 33.726562 8.972656 33.519531 9.007812 33.488281 C 9.039062 33.460938 8.960938 33.320312 8.832031 33.183594 C 8.371094 32.691406 8.269531 32.402344 8.269531 31.570312 C 8.269531 30.839844 8.28125 30.800781 8.585938 30.179688 C 9.507812 28.304688 11.578125 26.804688 13.84375 26.382812 C 14.765625 26.207031 16.246094 26.253906 16.722656 26.472656 C 17.097656 26.644531 17.28125 26.824219 17.347656 27.085938 C 17.40625 27.328125 17.265625 27.6875 17.074219 27.789062 C 16.984375 27.835938 16.5 27.882812 15.972656 27.890625 C 14.886719 27.910156 14.1875 28.070312 13.222656 28.523438 C 11.800781 29.1875 10.574219 30.339844 10.292969 31.28125 C 10.164062 31.703125 10.214844 31.816406 10.535156 31.878906 C 11.007812 31.964844 11.40625 31.863281 12.109375 31.464844 C 13.410156 30.738281 15.140625 30.105469 15.84375 30.105469 C 16.550781 30.105469 17.023438 30.519531 17.023438 31.136719 C 17.023438 31.753906 16.53125 32.1875 15.171875 32.753906 C 14.316406 33.109375 12.53125 33.710938 12.328125 33.710938 C 12.179688 33.710938 11.089844 34.441406 10.296875 35.070312 C 9.011719 36.089844 7.757812 37.386719 7.042969 38.433594 C 6.195312 39.675781 5.527344 41.261719 5.296875 42.578125 C 5.179688 43.261719 5.175781 44.738281 5.292969 45.226562 C 5.484375 46.03125 5.992188 46.785156 6.53125 47.0625 C 7.304688 47.464844 8.550781 47.109375 9.921875 46.097656 C 10.648438 45.5625 12.5 43.683594 13.238281 42.730469 C 14.996094 40.460938 17.84375 35.746094 18.519531 33.980469 C 18.644531 33.65625 18.8125 33.316406 18.894531 33.230469 C 18.972656 33.144531 19.195312 32.683594 19.390625 32.210938 C 20.078125 30.519531 20.46875 29.957031 20.941406 29.957031 C 21.375 29.957031 21.753906 30.277344 21.757812 30.65625 C 21.757812 30.769531 21.542969 31.546875 21.277344 32.382812 C 21.011719 33.21875 20.640625 34.441406 20.449219 35.101562 C 20.253906 35.765625 20.082031 36.355469 20.058594 36.414062 C 19.984375 36.632812 20.117188 36.425781 20.789062 35.246094 C 22.574219 32.125 23.976562 30.464844 25.078125 30.171875 C 25.898438 29.953125 26.636719 30.445312 26.765625 31.304688 C 26.839844 31.800781 26.683594 32.589844 26.191406 34.199219 C 25.585938 36.179688 25.320312 37.160156 25.140625 38.023438 C 24.941406 38.996094 24.945312 39.066406 25.1875 38.785156 C 25.292969 38.660156 25.558594 38.355469 25.777344 38.109375 C 26.628906 37.148438 26.800781 36.9375 27.882812 35.515625 C 29.152344 33.847656 30.320312 32.359375 30.445312 32.246094 C 30.492188 32.207031 30.722656 31.902344 30.960938 31.570312 C 32.558594 29.351562 34.351562 28.566406 35.617188 29.53125 C 35.929688 29.773438 36.316406 30.519531 36.382812 31.019531 C 36.410156 31.226562 36.457031 31.363281 36.492188 31.332031 C 36.523438 31.296875 37.03125 30.476562 37.617188 29.503906 C 40.09375 25.410156 42 22.597656 43.398438 20.976562 C 44.066406 20.203125 45.367188 18.910156 45.933594 18.457031 C 46.609375 17.910156 46.929688 17.832031 47.433594 18.09375 C 47.988281 18.378906 48.191406 18.941406 47.960938 19.566406 C 47.910156 19.699219 47.429688 20.324219 46.886719 20.957031 C 41.859375 26.8125 38.558594 32.164062 37.535156 36.117188 C 37.359375 36.800781 37.242188 37.621094 37.320312 37.621094 C 37.351562 37.621094 37.625 37.421875 37.929688 37.179688 C 38.539062 36.691406 39.238281 35.976562 40.355469 34.703125 C 41.339844 33.578125 41.589844 33.453125 42.050781 33.839844 C 42.273438 34.027344 42.285156 34.066406 42.257812 34.421875 C 42.164062 35.539062 39.921875 38.824219 38.542969 39.863281 C 37.890625 40.351562 37.378906 40.550781 36.753906 40.550781 C 35.871094 40.550781 35.210938 40.050781 34.875 39.121094 L 34.707031 38.65625 L 34.105469 39.433594 C 33.34375 40.417969 32.453125 41.265625 31.828125 41.601562 C 31.386719 41.839844 31.28125 41.867188 30.738281 41.867188 C 30.21875 41.867188 30.089844 41.835938 29.785156 41.660156 C 29.039062 41.21875 28.683594 40.515625 28.605469 39.316406 L 28.558594 38.570312 L 28.265625 39.015625 C 26.980469 40.96875 25.53125 42.234375 24.460938 42.335938 C 23.660156 42.414062 22.917969 41.96875 22.578125 41.210938 C 22.421875 40.859375 22.402344 40.707031 22.40625 39.910156 C 22.414062 38.917969 22.589844 37.976562 23.066406 36.371094 C 23.210938 35.882812 23.320312 35.472656 23.304688 35.457031 C 23.265625 35.417969 22.394531 36.96875 21.304688 39.011719 C 19.660156 42.105469 19.085938 42.804688 18.195312 42.804688 C 17.636719 42.804688 17.25 42.53125 16.988281 41.949219 L 16.824219 41.582031 L 16.257812 42.398438 C 13.832031 45.90625 11.167969 48.339844 8.925781 49.105469 C 8.453125 49.269531 7.605469 49.421875 7.253906 49.40625 C 7.152344 49.402344 6.882812 49.371094 6.652344 49.332031 Z M 31.648438 38.671875 C 32.285156 37.964844 33.472656 36.269531 34.640625 34.402344 C 35.0625 33.730469 35.078125 33.691406 35 33.425781 C 34.953125 33.273438 34.898438 32.863281 34.871094 32.515625 C 34.847656 32.140625 34.769531 31.746094 34.683594 31.550781 C 34.546875 31.246094 34.527344 31.230469 34.367188 31.316406 C 34.011719 31.503906 33.371094 32.199219 32.910156 32.890625 C 31.855469 34.476562 31.121094 36.589844 30.960938 38.496094 C 30.929688 38.832031 30.933594 39.144531 30.960938 39.191406 C 31.023438 39.292969 31.222656 39.144531 31.648438 38.671875 Z M 19.890625 47.269531 C 18.578125 47.078125 17.398438 46.660156 16.679688 46.128906 C 16.121094 45.714844 16 45.121094 16.394531 44.75 C 16.632812 44.527344 17.035156 44.523438 17.265625 44.734375 C 17.726562 45.15625 18.71875 45.425781 20.039062 45.488281 C 21.886719 45.574219 22.90625 45.363281 30.738281 43.292969 C 33.878906 42.464844 35.253906 42.238281 37.164062 42.246094 C 38.351562 42.25 38.640625 42.273438 39.15625 42.414062 C 39.847656 42.605469 40.832031 43.066406 41.261719 43.40625 C 42.132812 44.097656 42.222656 45.050781 41.433594 45.246094 C 41.324219 45.273438 41.171875 45.261719 41.09375 45.222656 C 41.015625 45.179688 40.472656 45.105469 39.882812 45.050781 C 38.234375 44.90625 37.140625 45.03125 32.957031 45.835938 C 25.867188 47.203125 22.195312 47.605469 19.890625 47.269531 Z M 43.898438 36.136719 C 43.875 36.0625 43.800781 35.636719 43.734375 35.183594 C 43.550781 33.925781 43.265625 33.320312 42.6875 32.960938 C 42.308594 32.726562 42.339844 32.53125 42.8125 32.210938 C 43.023438 32.070312 43.429688 31.671875 43.714844 31.332031 C 44.027344 30.964844 44.277344 30.730469 44.335938 30.753906 C 44.390625 30.773438 44.511719 31 44.601562 31.257812 C 44.820312 31.863281 45.183594 32.429688 45.410156 32.515625 C 45.507812 32.554688 45.6875 32.585938 45.808594 32.585938 C 46.03125 32.585938 46.214844 32.789062 46.121094 32.929688 C 46.089844 32.972656 45.941406 33.082031 45.789062 33.175781 C 45.132812 33.574219 44.640625 34.40625 44.449219 35.445312 C 44.402344 35.710938 44.332031 36.003906 44.296875 36.097656 C 44.21875 36.300781 43.953125 36.324219 43.898438 36.136719 Z M 46.214844 34.957031 C 46.125 34.816406 46.113281 34.738281 46.175781 34.625 C 46.277344 34.429688 46.53125 34.351562 46.671875 34.464844 C 46.832031 34.597656 46.8125 34.96875 46.636719 35.0625 C 46.421875 35.175781 46.347656 35.160156 46.214844 34.957031 Z M 48.019531 31.273438 C 47.570312 30.824219 48.007812 29.878906 48.660156 29.878906 C 48.917969 29.878906 49.117188 30.023438 49.230469 30.292969 C 49.367188 30.628906 49.292969 30.960938 49.019531 31.238281 C 48.726562 31.527344 48.289062 31.542969 48.019531 31.273438 Z M 46.796875 29.632812 C 46.757812 29.582031 46.667969 29.203125 46.601562 28.789062 C 46.445312 27.84375 46.238281 27.238281 45.890625 26.71875 C 45.671875 26.394531 45.515625 26.261719 45.097656 26.050781 C 44.277344 25.628906 44.242188 25.394531 44.96875 25.148438 C 45.582031 24.941406 45.738281 24.789062 46.121094 24.015625 C 46.320312 23.625 46.527344 23.292969 46.582031 23.28125 C 46.640625 23.269531 46.796875 23.433594 46.933594 23.640625 C 47.226562 24.101562 47.636719 24.449219 48.265625 24.761719 C 48.804688 25.03125 48.863281 25.195312 48.511719 25.457031 C 47.988281 25.84375 47.574219 26.871094 47.308594 28.453125 C 47.21875 28.96875 47.132812 29.449219 47.113281 29.515625 C 47.066406 29.679688 46.886719 29.742188 46.796875 29.632812 Z M 43.027344 29.21875 C 42.742188 28.933594 42.742188 28.820312 43.027344 28.535156 C 43.433594 28.128906 44.089844 28.148438 44.195312 28.566406 C 44.292969 28.945312 43.992188 29.300781 43.492188 29.398438 C 43.296875 29.4375 43.21875 29.410156 43.027344 29.21875 Z M 10.898438 26.441406 C 10.597656 24.578125 10.285156 24.066406 9.269531 23.800781 C 8.640625 23.636719 8.601562 23.472656 9.148438 23.3125 C 9.367188 23.25 9.625 23.144531 9.714844 23.078125 C 9.992188 22.882812 10.292969 22.285156 10.378906 21.765625 C 10.445312 21.359375 10.484375 21.277344 10.605469 21.277344 C 10.707031 21.277344 10.816406 21.402344 10.960938 21.6875 C 11.230469 22.214844 11.710938 22.71875 12.121094 22.902344 C 12.488281 23.070312 12.511719 23.183594 12.253906 23.519531 C 11.980469 23.878906 11.714844 24.652344 11.5 25.699219 C 11.398438 26.210938 11.3125 26.652344 11.3125 26.675781 C 11.3125 26.703125 11.230469 26.722656 11.128906 26.722656 C 10.972656 26.722656 10.9375 26.679688 10.898438 26.441406 Z M 18 26.449219 C 17.496094 26.1875 17.148438 25.707031 17.019531 25.089844 C 16.90625 24.535156 16.972656 22.828125 17.140625 22.070312 C 17.855469 18.804688 19.835938 14.382812 22.367188 10.398438 C 22.65625 9.941406 22.882812 9.5625 22.871094 9.550781 C 22.859375 9.539062 22.136719 9.84375 21.269531 10.226562 C 18.671875 11.378906 17.492188 11.769531 16.617188 11.769531 C 15.519531 11.769531 14.867188 10.976562 15.171875 10.011719 C 15.339844 9.484375 15.664062 9.117188 16.210938 8.84375 C 16.726562 8.585938 17.234375 8.542969 17.652344 8.714844 C 17.921875 8.828125 18.300781 9.238281 18.300781 9.414062 C 18.300781 9.496094 18.347656 9.511719 18.472656 9.472656 C 18.847656 9.359375 21.777344 7.953125 25.214844 6.238281 C 29.84375 3.933594 30.613281 3.59375 32.074219 3.238281 C 34.789062 2.578125 36.605469 3.28125 36.945312 5.132812 C 37.101562 5.976562 36.671875 7.324219 36.082031 7.84375 C 35.722656 8.160156 35.296875 8.183594 35.011719 7.898438 C 34.800781 7.683594 34.796875 7.46875 34.980469 6.539062 C 35.050781 6.191406 35.050781 6.003906 34.984375 5.765625 C 34.867188 5.324219 34.570312 5.199219 33.667969 5.210938 C 32.316406 5.226562 30.703125 5.808594 26.582031 7.765625 C 25.847656 8.117188 25.796875 8.15625 25.546875 8.574219 C 25.195312 9.15625 23.582031 12.050781 22.851562 13.417969 C 20.980469 16.902344 19.527344 20.699219 19.164062 23.042969 C 19.039062 23.867188 19.027344 24.09375 19.117188 24.09375 C 19.347656 24.09375 21.355469 21.242188 22.636719 19.097656 C 23.308594 17.96875 23.550781 17.542969 25.480469 14.101562 C 28.359375 8.96875 29.148438 7.863281 29.949219 7.863281 C 30.742188 7.863281 31.246094 8.570312 31 9.339844 C 30.949219 9.496094 30.273438 10.863281 29.496094 12.371094 C 28.324219 14.636719 26.917969 17.554688 26.6875 18.191406 C 26.660156 18.269531 26.953125 18.027344 27.34375 17.652344 C 28.15625 16.863281 28.648438 16.578125 29.175781 16.582031 C 29.929688 16.585938 30.40625 17.097656 30.460938 17.972656 C 30.496094 18.507812 30.371094 19.167969 29.863281 21.15625 C 29.660156 21.960938 29.503906 22.671875 29.515625 22.734375 C 29.546875 22.882812 30.242188 21.769531 30.761719 20.75 C 31.046875 20.183594 31.164062 19.859375 31.226562 19.4375 C 31.640625 16.597656 34.199219 13.070312 36.683594 11.90625 C 37.894531 11.339844 38.921875 11.65625 39.265625 12.703125 C 39.410156 13.140625 39.324219 14.160156 39.078125 14.925781 C 38.816406 15.742188 38.210938 16.949219 37.609375 17.859375 C 37.058594 18.691406 36.011719 19.761719 35.464844 20.054688 C 34.742188 20.441406 33.835938 20.574219 33.3125 20.371094 C 33.195312 20.328125 33.179688 20.371094 33.179688 20.761719 C 33.179688 21.269531 33.347656 21.980469 33.527344 22.257812 C 33.859375 22.765625 34.757812 22.847656 35.742188 22.464844 C 37.550781 21.753906 39.792969 19.511719 40.722656 17.472656 C 41.359375 16.074219 41.703125 14.601562 41.707031 13.269531 C 41.710938 12.363281 41.699219 12.308594 41.503906 12.015625 C 41.238281 11.609375 41.1875 11.382812 41.296875 11.054688 C 41.460938 10.554688 42.015625 10.363281 42.554688 10.621094 C 43.4375 11.039062 43.933594 12.179688 43.929688 13.789062 C 43.929688 14.78125 43.785156 15.625 43.4375 16.683594 C 42.746094 18.757812 41.746094 20.359375 40.136719 21.953125 C 37.644531 24.421875 34.976562 25.371094 33.054688 24.472656 C 32.546875 24.238281 31.957031 23.738281 31.777344 23.394531 L 31.667969 23.179688 L 31.230469 23.921875 C 30.714844 24.789062 30.214844 25.371094 29.746094 25.648438 C 29.011719 26.078125 28.09375 25.800781 27.699219 25.035156 C 27.53125 24.710938 27.503906 24.550781 27.480469 23.785156 C 27.453125 22.777344 27.546875 22.175781 27.984375 20.601562 C 28.144531 20.019531 28.269531 19.535156 28.257812 19.523438 C 28.179688 19.433594 26.804688 21.140625 26.152344 22.140625 C 25.429688 23.238281 24.5625 24.953125 24.425781 25.554688 C 24.273438 26.210938 24.222656 26.296875 23.910156 26.492188 C 23.550781 26.714844 23.222656 26.695312 22.972656 26.441406 C 22.8125 26.28125 22.746094 26.101562 22.664062 25.644531 C 22.550781 24.988281 22.609375 24.367188 22.894531 23.238281 C 22.976562 22.914062 23.03125 22.636719 23.011719 22.617188 C 22.996094 22.601562 22.855469 22.785156 22.695312 23.023438 C 21.648438 24.601562 20.296875 26.101562 19.632812 26.417969 C 19.4375 26.511719 19.082031 26.605469 18.84375 26.625 C 18.476562 26.65625 18.355469 26.628906 18 26.449219 Z M 34.585938 18.414062 C 35.046875 18.097656 35.417969 17.675781 35.921875 16.894531 C 36.542969 15.929688 37.367188 14.023438 37.164062 14.023438 C 37.128906 14.023438 36.839844 14.230469 36.523438 14.484375 C 35.460938 15.339844 34.375 16.773438 33.816406 18.054688 C 33.679688 18.375 33.585938 18.667969 33.609375 18.707031 C 33.6875 18.835938 34.1875 18.6875 34.585938 18.414062 Z M 14.289062 24.125 C 14.128906 23.964844 14.140625 23.824219 14.324219 23.636719 C 14.546875 23.414062 14.875 23.464844 14.90625 23.726562 C 14.921875 23.871094 14.871094 23.972656 14.726562 24.085938 C 14.484375 24.273438 14.441406 24.28125 14.289062 24.125 Z M 14.691406 21.46875 C 14.441406 21.222656 14.390625 20.785156 14.578125 20.535156 C 14.773438 20.28125 15.367188 20.019531 15.636719 20.070312 C 16.113281 20.160156 16.273438 20.765625 15.953125 21.246094 C 15.617188 21.742188 15.058594 21.839844 14.691406 21.46875 Z M 12.863281 20.171875 C 12.84375 20.078125 12.777344 19.535156 12.710938 18.972656 C 12.59375 17.914062 12.429688 17.34375 12.144531 16.980469 C 11.894531 16.664062 11.367188 16.316406 10.84375 16.125 C 10.585938 16.027344 10.351562 15.914062 10.324219 15.875 C 10.246094 15.757812 10.398438 15.527344 10.558594 15.527344 C 10.804688 15.527344 12.015625 14.867188 12.414062 14.515625 C 12.628906 14.328125 12.960938 13.9375 13.152344 13.644531 C 13.34375 13.351562 13.554688 13.09375 13.621094 13.070312 C 13.789062 13.003906 13.929688 13.226562 13.984375 13.640625 C 14.125 14.714844 14.746094 15.332031 15.910156 15.546875 C 16.308594 15.621094 16.480469 15.75 16.386719 15.898438 C 16.367188 15.933594 16.179688 15.980469 15.964844 16.007812 C 15.390625 16.085938 14.96875 16.320312 14.511719 16.816406 C 13.839844 17.539062 13.488281 18.40625 13.292969 19.847656 C 13.238281 20.234375 13.207031 20.300781 13.0625 20.324219 C 12.941406 20.339844 12.886719 20.300781 12.863281 20.171875 Z M 8.800781 19.859375 C 8.410156 19.46875 8.625 18.996094 9.226562 18.929688 C 9.648438 18.882812 9.851562 19.074219 9.78125 19.460938 C 9.722656 19.765625 9.542969 19.941406 9.226562 20.007812 C 9.039062 20.042969 8.957031 20.015625 8.800781 19.859375 Z M 8.800781 19.859375 " fill-opacity="1" fill-rule="nonzero"/></g></svg>