<svg xmlns="http://www.w3.org/2000/svg" xmlns:xlink="http://www.w3.org/1999/xlink" width="70" zoomAndPan="magnify" viewBox="0 0 52.5 52.499999" height="70" preserveAspectRatio="xMidYMid meet" version="1.0"><defs><clipPath id="48ceec0407"><path d="M 14 17 L 38 17 L 38 50.910156 L 14 50.910156 Z M 14 17 " clip-rule="nonzero"/></clipPath><clipPath id="d892f48309"><path d="M 13.117188 3 L 39 3 L 39 37 L 13.117188 37 Z M 13.117188 3 " clip-rule="nonzero"/></clipPath><clipPath id="017b85fd58"><path d="M 22 17 L 30 17 L 30 50.910156 L 22 50.910156 Z M 22 17 " clip-rule="nonzero"/></clipPath><clipPath id="0ff7bd8ad1"><path d="M 25 1.132812 L 27 1.132812 L 27 5 L 25 5 Z M 25 1.132812 " clip-rule="nonzero"/></clipPath><clipPath id="675a14d021"><path d="M 24 1.132812 L 28 1.132812 L 28 3 L 24 3 Z M 24 1.132812 " clip-rule="nonzero"/></clipPath></defs><g clip-path="url(#48ceec0407)"><path fill="#f7f3f0" d="M 29.933594 29.769531 L 29.933594 19.726562 L 30.242188 19.726562 L 30.242188 17.632812 L 21.761719 17.632812 L 21.761719 19.726562 L 22.070312 19.726562 L 22.070312 29.769531 L 14.339844 36.816406 L 14.339844 50.210938 L 22.058594 50.210938 L 22.058594 50.203125 L 22.070312 50.203125 L 22.070312 50.210938 L 22.058594 50.210938 L 22.058594 50.867188 L 29.941406 50.867188 L 29.941406 50.210938 L 29.933594 50.210938 L 29.933594 50.203125 L 29.941406 50.203125 L 29.941406 50.210938 L 37.664062 50.210938 L 37.664062 36.816406 Z M 25.726562 45.953125 L 25.472656 45.953125 L 25.472656 45.1875 L 25.726562 45.1875 Z M 26.683594 45.953125 L 26.425781 45.953125 L 26.425781 45.1875 L 26.683594 45.1875 Z M 26.683594 45.953125 " fill-opacity="1" fill-rule="evenodd"/></g><path fill="#abdbf7" d="M 24.847656 20.769531 L 25.996094 20.320312 L 27.117188 20.714844 L 27.457031 21.628906 L 27.457031 26.4375 L 24.546875 26.4375 L 24.546875 21.613281 Z M 24.546875 32.828125 L 24.546875 37.648438 L 27.457031 37.648438 L 27.457031 32.84375 L 27.117188 31.925781 L 25.996094 31.53125 L 24.847656 31.980469 Z M 16.230469 38.546875 L 16.230469 45.476562 L 20.414062 45.476562 L 20.414062 38.570312 L 19.921875 37.253906 L 18.3125 36.6875 L 16.664062 37.328125 Z M 31.589844 38.546875 L 31.589844 45.476562 L 35.773438 45.476562 L 35.773438 38.570312 L 35.28125 37.253906 L 33.671875 36.6875 L 32.023438 37.328125 Z M 31.589844 38.546875 " fill-opacity="1" fill-rule="evenodd"/><path fill="#f7ece1" d="M 24.351562 26.546875 L 27.652344 26.546875 L 27.652344 27.207031 L 24.351562 27.207031 Z M 24.351562 38.421875 L 27.652344 38.421875 L 27.652344 37.757812 L 24.351562 37.757812 Z M 15.953125 46.585938 L 20.695312 46.585938 L 20.695312 45.636719 L 15.953125 45.636719 Z M 31.308594 46.585938 L 36.050781 46.585938 L 36.050781 45.636719 L 31.308594 45.636719 Z M 31.308594 46.585938 " fill-opacity="1" fill-rule="evenodd"/><path fill="#bdaa8c" d="M 23.746094 49.675781 L 23.746094 43.765625 C 23.746094 40.308594 28.257812 40.308594 28.257812 43.765625 L 28.257812 49.675781 Z M 27.339844 21.722656 L 27.339844 21.785156 L 27.339844 21.773438 C 27.34375 21.757812 27.339844 21.742188 27.339844 21.722656 Z M 26.003906 20.175781 C 25.148438 20.175781 24.457031 20.867188 24.453125 21.722656 L 24.453125 26.554688 L 27.550781 26.554688 L 27.550781 21.722656 C 27.546875 20.867188 26.855469 20.175781 26.003906 20.175781 Z M 25.902344 26.320312 L 24.667969 26.320312 L 24.667969 24.933594 L 25.902344 24.933594 Z M 25.902344 24.824219 L 24.667969 24.824219 L 24.667969 23.476562 L 25.902344 23.476562 Z M 25.902344 23.277344 L 24.667969 23.277344 L 24.667969 21.894531 L 25.902344 21.894531 Z M 25.902344 21.785156 L 24.667969 21.785156 L 24.667969 21.726562 L 24.664062 21.726562 C 24.691406 21.042969 25.222656 20.492188 25.902344 20.441406 Z M 27.339844 26.316406 L 26.101562 26.316406 L 26.101562 24.933594 L 27.339844 24.933594 Z M 27.339844 24.824219 L 26.101562 24.824219 L 26.101562 23.476562 L 27.339844 23.476562 Z M 27.339844 23.277344 L 26.101562 23.277344 L 26.101562 21.894531 L 27.339844 21.894531 Z M 27.339844 21.785156 L 26.101562 21.785156 L 26.101562 20.441406 C 26.78125 20.492188 27.3125 21.042969 27.339844 21.722656 C 27.339844 21.742188 27.339844 21.757812 27.339844 21.773438 Z M 27.339844 32.988281 L 27.339844 32.996094 L 27.339844 32.9375 C 27.339844 32.953125 27.339844 32.972656 27.339844 32.988281 Z M 24.667969 32.9375 L 24.667969 32.996094 L 24.664062 32.996094 L 24.664062 32.988281 C 24.664062 32.972656 24.664062 32.953125 24.664062 32.9375 Z M 26.003906 31.386719 C 25.148438 31.390625 24.457031 32.082031 24.453125 32.933594 L 24.453125 37.765625 L 27.550781 37.765625 L 27.550781 32.933594 C 27.546875 32.082031 26.855469 31.390625 26.003906 31.386719 Z M 25.902344 37.53125 L 24.667969 37.535156 L 24.667969 36.148438 L 25.902344 36.148438 Z M 25.902344 36.039062 L 24.667969 36.039062 L 24.667969 34.691406 L 25.902344 34.691406 Z M 25.902344 34.488281 L 24.667969 34.488281 L 24.667969 33.105469 L 25.902344 33.105469 Z M 25.902344 32.996094 L 24.664062 32.996094 L 24.664062 32.988281 C 24.664062 32.972656 24.664062 32.953125 24.664062 32.9375 C 24.691406 32.257812 25.222656 31.703125 25.902344 31.652344 Z M 27.339844 37.53125 L 26.101562 37.53125 L 26.101562 36.148438 L 27.339844 36.148438 Z M 27.339844 36.039062 L 26.101562 36.039062 L 26.101562 34.691406 L 27.339844 34.691406 Z M 27.339844 34.488281 L 26.101562 34.488281 L 26.101562 33.105469 L 27.339844 33.105469 Z M 27.339844 32.996094 L 26.101562 32.996094 L 26.101562 31.652344 C 26.78125 31.703125 27.3125 32.253906 27.339844 32.933594 C 27.339844 32.953125 27.339844 32.96875 27.339844 32.988281 Z M 26.101562 31.503906 L 26.101562 31.652344 C 26.070312 31.648438 26.035156 31.648438 26.003906 31.648438 C 25.96875 31.648438 25.933594 31.648438 25.902344 31.652344 L 25.902344 31.503906 Z M 26.101562 31.503906 L 26.101562 31.652344 C 26.070312 31.648438 26.035156 31.648438 26.003906 31.648438 C 25.96875 31.648438 25.933594 31.648438 25.902344 31.652344 L 25.902344 31.503906 Z M 16.40625 38.707031 L 16.40625 38.792969 L 16.398438 38.792969 L 16.398438 38.777344 C 16.398438 38.753906 16.398438 38.730469 16.398438 38.707031 Z M 18.324219 36.476562 C 17.09375 36.480469 16.101562 37.472656 16.097656 38.699219 L 16.097656 45.644531 L 20.546875 45.644531 L 20.546875 38.699219 C 20.542969 37.472656 19.550781 36.480469 18.324219 36.476562 Z M 18.179688 41.226562 L 18.179688 43.160156 L 16.40625 43.160156 L 16.40625 41.226562 Z M 16.40625 40.9375 L 16.40625 38.949219 L 18.175781 38.949219 L 18.175781 40.9375 Z M 16.398438 38.777344 C 16.398438 38.753906 16.398438 38.730469 16.398438 38.707031 C 16.4375 37.726562 17.203125 36.933594 18.175781 36.859375 L 18.175781 38.792969 L 16.398438 38.792969 Z M 16.40625 43.316406 L 18.175781 43.316406 L 18.175781 45.308594 L 16.40625 45.308594 Z M 20.246094 45.304688 L 18.464844 45.308594 L 18.464844 43.316406 L 20.246094 43.316406 Z M 20.246094 43.160156 L 18.464844 43.160156 L 18.464844 41.226562 L 20.246094 41.226562 Z M 20.246094 40.9375 L 18.464844 40.9375 L 18.464844 38.949219 L 20.246094 38.949219 Z M 20.246094 38.792969 L 18.464844 38.792969 L 18.464844 36.859375 C 19.46875 36.9375 20.242188 37.769531 20.246094 38.777344 Z M 33.679688 36.476562 C 32.453125 36.480469 31.460938 37.472656 31.457031 38.699219 L 31.457031 45.644531 L 35.90625 45.644531 L 35.90625 38.699219 C 35.902344 37.472656 34.90625 36.480469 33.679688 36.476562 Z M 33.535156 45.308594 L 31.765625 45.308594 L 31.765625 43.316406 L 33.535156 43.316406 Z M 33.535156 43.160156 L 31.765625 43.160156 L 31.765625 41.226562 L 33.535156 41.226562 Z M 33.535156 40.9375 L 31.765625 40.9375 L 31.765625 38.949219 L 33.535156 38.949219 Z M 33.535156 38.792969 L 31.765625 38.792969 L 31.765625 38.707031 L 31.757812 38.707031 C 31.792969 37.726562 32.558594 36.933594 33.535156 36.859375 Z M 35.605469 45.304688 L 33.824219 45.308594 L 33.824219 43.316406 L 35.605469 43.316406 Z M 35.605469 43.160156 L 33.824219 43.160156 L 33.824219 41.226562 L 35.605469 41.226562 Z M 35.605469 40.9375 L 33.824219 40.9375 L 33.824219 38.949219 L 35.605469 38.949219 Z M 35.605469 38.792969 L 33.824219 38.792969 L 33.824219 36.859375 C 34.828125 36.9375 35.601562 37.769531 35.605469 38.777344 Z M 35.605469 38.792969 " fill-opacity="1" fill-rule="nonzero"/><g clip-path="url(#d892f48309)"><path fill="#c69f58" d="M 38.882812 36.816406 L 37.664062 36.816406 L 29.753906 29.609375 L 22.25 29.609375 L 14.339844 36.816406 L 13.121094 36.816406 L 21.5625 29.179688 L 21.554688 29.179688 L 22.070312 28.015625 L 29.933594 28.015625 L 30.449219 29.179688 L 30.4375 29.179688 Z M 28.921875 17.757812 L 26 3.5625 L 23.078125 17.757812 Z M 28.921875 17.757812 " fill-opacity="1" fill-rule="evenodd"/></g><path fill="#f7ece1" d="M 25.726562 45.953125 L 25.472656 45.953125 L 25.472656 45.1875 L 25.726562 45.1875 Z M 26.683594 45.1875 L 26.429688 45.1875 L 26.429688 45.953125 L 26.683594 45.953125 Z M 26.683594 45.1875 " fill-opacity="1" fill-rule="evenodd"/><g clip-path="url(#017b85fd58)"><path fill="#f7ece1" d="M 22.070312 17.851562 L 23.378906 17.851562 L 23.378906 50.210938 L 22.070312 50.210938 Z M 28.621094 17.851562 L 29.933594 17.851562 L 29.933594 50.210938 L 28.621094 50.210938 Z M 28.621094 17.851562 " fill-opacity="1" fill-rule="evenodd"/></g><path fill="#f7ece1" d="M 21.757812 17.632812 L 30.242188 17.632812 L 30.242188 19.726562 L 21.757812 19.726562 Z M 21.757812 17.632812 " fill-opacity="1" fill-rule="nonzero"/><g clip-path="url(#0ff7bd8ad1)"><path fill="#f7ece1" d="M 25.828125 1.132812 L 26.175781 1.132812 L 26.175781 4.425781 L 25.828125 4.425781 Z M 25.828125 1.132812 " fill-opacity="1" fill-rule="nonzero"/></g><g clip-path="url(#675a14d021)"><path fill="#f7ece1" d="M 24.644531 1.902344 L 27.363281 1.902344 L 27.363281 2.25 L 24.644531 2.25 Z M 24.644531 1.902344 " fill-opacity="1" fill-rule="nonzero"/></g></svg>