<svg xmlns="http://www.w3.org/2000/svg" xmlns:xlink="http://www.w3.org/1999/xlink" width="70" zoomAndPan="magnify" viewBox="0 0 52.5 52.499999" height="70" preserveAspectRatio="xMidYMid meet" version="1.0"><defs><clipPath id="fc6c45ac48"><path d="M 1.128906 12 L 19 12 L 19 44 L 1.128906 44 Z M 1.128906 12 " clip-rule="nonzero"/></clipPath><clipPath id="e5724c975e"><path d="M 3 9.65625 L 49 9.65625 L 49 32 L 3 32 Z M 3 9.65625 " clip-rule="nonzero"/></clipPath><clipPath id="8c3ba7a6a6"><path d="M 33 12 L 50.902344 12 L 50.902344 44 L 33 44 Z M 33 12 " clip-rule="nonzero"/></clipPath><clipPath id="affa5aecee"><path d="M 3 28 L 49 28 L 49 45.320312 L 3 45.320312 Z M 3 28 " clip-rule="nonzero"/></clipPath></defs><g clip-path="url(#fc6c45ac48)"><path fill="#e2d277" d="M 18.367188 27.632812 L 2.300781 12 C 1.578125 12.96875 1.148438 14.171875 1.148438 15.472656 L 1.148438 39.789062 C 1.148438 41.089844 1.578125 42.292969 2.300781 43.261719 L 18.367188 27.632812 " fill-opacity="1" fill-rule="nonzero"/></g><g clip-path="url(#e5724c975e)"><path fill="#e2d277" d="M 23.140625 29.886719 C 24.742188 31.445312 27.253906 31.445312 28.859375 29.886719 L 48.480469 10.792969 C 47.515625 10.082031 46.324219 9.660156 45.039062 9.660156 L 6.960938 9.660156 C 5.671875 9.660156 4.480469 10.082031 3.515625 10.792969 L 23.140625 29.886719 " fill-opacity="1" fill-rule="nonzero"/></g><g clip-path="url(#8c3ba7a6a6)"><path fill="#e2d277" d="M 49.695312 12 L 33.628906 27.632812 L 49.695312 43.261719 C 50.421875 42.292969 50.851562 41.089844 50.851562 39.789062 L 50.851562 15.472656 C 50.851562 14.171875 50.421875 12.96875 49.695312 12 " fill-opacity="1" fill-rule="nonzero"/></g><g clip-path="url(#affa5aecee)"><path fill="#e2d277" d="M 32.402344 28.824219 L 30.050781 31.113281 C 28.960938 32.175781 27.519531 32.757812 26 32.757812 C 24.476562 32.757812 23.035156 32.175781 21.945312 31.113281 L 19.59375 28.824219 L 3.515625 44.46875 C 4.480469 45.179688 5.671875 45.601562 6.960938 45.601562 L 45.039062 45.601562 C 46.324219 45.601562 47.515625 45.179688 48.480469 44.46875 L 32.402344 28.824219 " fill-opacity="1" fill-rule="nonzero"/></g></svg>