<svg xmlns="http://www.w3.org/2000/svg" xmlns:xlink="http://www.w3.org/1999/xlink" width="70" zoomAndPan="magnify" viewBox="0 0 52.5 52.499999" height="70" preserveAspectRatio="xMidYMid meet" version="1.0"><defs><clipPath id="d5e1c0b387"><path d="M 15 47 L 17 47 L 17 48.433594 L 15 48.433594 Z M 15 47 " clip-rule="nonzero"/></clipPath><clipPath id="28cd5d89d0"><path d="M 25 3.859375 L 27 3.859375 L 27 14 L 25 14 Z M 25 3.859375 " clip-rule="nonzero"/></clipPath><clipPath id="b9c27bb00e"><path d="M 3.085938 18 L 6 18 L 6 22 L 3.085938 22 Z M 3.085938 18 " clip-rule="nonzero"/></clipPath><clipPath id="a22cfe4b4d"><path d="M 3.085938 21 L 6 21 L 6 24 L 3.085938 24 Z M 3.085938 21 " clip-rule="nonzero"/></clipPath><clipPath id="8f0686dccb"><path d="M 37 44 L 42 44 L 42 48.433594 L 37 48.433594 Z M 37 44 " clip-rule="nonzero"/></clipPath></defs><path fill="#ffffff" d="M 7.832031 9.574219 C 7.636719 9.574219 7.472656 9.414062 7.472656 9.214844 C 7.472656 9.019531 7.628906 8.859375 7.824219 8.859375 L 7.832031 8.859375 C 8.03125 8.859375 8.191406 9.019531 8.191406 9.214844 C 8.191406 9.414062 8.03125 9.574219 7.832031 9.574219 Z M 7.832031 9.574219 " fill-opacity="1" fill-rule="nonzero"/><path fill="#ffffff" d="M 41.40625 40.285156 C 41.207031 40.285156 41.042969 40.125 41.042969 39.929688 C 41.042969 39.730469 41.199219 39.570312 41.398438 39.570312 L 41.40625 39.570312 C 41.601562 39.570312 41.761719 39.730469 41.761719 39.929688 C 41.761719 40.125 41.601562 40.285156 41.40625 40.285156 Z M 41.40625 40.285156 " fill-opacity="1" fill-rule="nonzero"/><g clip-path="url(#d5e1c0b387)"><path fill="#ffffff" d="M 15.691406 48.144531 C 15.492188 48.144531 15.328125 47.984375 15.328125 47.785156 C 15.328125 47.589844 15.484375 47.429688 15.683594 47.429688 L 15.691406 47.429688 C 15.886719 47.429688 16.046875 47.589844 16.046875 47.785156 C 16.046875 47.984375 15.886719 48.144531 15.691406 48.144531 Z M 15.691406 48.144531 " fill-opacity="1" fill-rule="nonzero"/></g><path fill="#ffffff" d="M 7.832031 37.429688 C 7.636719 37.429688 7.472656 37.269531 7.472656 37.070312 C 7.472656 36.875 7.628906 36.714844 7.824219 36.714844 L 7.832031 36.714844 C 8.03125 36.714844 8.191406 36.875 8.191406 37.070312 C 8.191406 37.269531 8.03125 37.429688 7.832031 37.429688 Z M 7.832031 37.429688 " fill-opacity="1" fill-rule="nonzero"/><path fill="#ffffff" d="M 47.117188 14.605469 C 46.921875 14.605469 46.757812 14.445312 46.757812 14.25 C 46.757812 14.050781 46.914062 13.890625 47.109375 13.890625 L 47.117188 13.890625 C 47.316406 13.890625 47.476562 14.050781 47.476562 14.25 C 47.476562 14.445312 47.316406 14.605469 47.117188 14.605469 Z M 47.117188 14.605469 " fill-opacity="1" fill-rule="nonzero"/><path fill="#ffffff" d="M 26.027344 45.285156 C 17.359375 45.285156 10.3125 38.238281 10.3125 29.570312 C 10.3125 20.90625 17.359375 13.859375 26.027344 13.859375 C 30.339844 13.859375 34.359375 15.570312 37.351562 18.679688 C 37.488281 18.820312 37.484375 19.046875 37.339844 19.183594 C 37.199219 19.320312 36.972656 19.316406 36.835938 19.171875 C 33.980469 16.207031 30.140625 14.570312 26.027344 14.570312 C 17.753906 14.570312 11.027344 21.300781 11.027344 29.570312 C 11.027344 37.84375 17.753906 44.570312 26.027344 44.570312 C 34.296875 44.570312 41.027344 37.84375 41.027344 29.570312 C 41.027344 27.511719 40.617188 25.515625 39.804688 23.640625 C 39.726562 23.457031 39.8125 23.25 39.992188 23.171875 C 40.171875 23.089844 40.382812 23.175781 40.460938 23.355469 C 41.308594 25.324219 41.738281 27.414062 41.738281 29.570312 C 41.738281 38.238281 34.691406 45.285156 26.027344 45.285156 Z M 26.027344 45.285156 " fill-opacity="1" fill-rule="nonzero"/><path fill="#ffffff" d="M 29.664062 43.558594 C 29.640625 43.558594 29.617188 43.558594 29.59375 43.550781 C 29.402344 43.511719 29.273438 43.324219 29.3125 43.132812 C 29.328125 43.0625 30.734375 35.964844 30.734375 29.570312 C 30.734375 23.179688 29.328125 16.082031 29.3125 16.011719 C 29.273438 15.816406 29.402344 15.628906 29.59375 15.589844 C 29.785156 15.550781 29.976562 15.675781 30.015625 15.871094 C 30.027344 15.941406 31.449219 23.109375 31.449219 29.570312 C 31.449219 36.035156 30.027344 43.199219 30.015625 43.273438 C 29.980469 43.441406 29.832031 43.558594 29.664062 43.558594 Z M 29.664062 43.558594 " fill-opacity="1" fill-rule="nonzero"/><path fill="#ffffff" d="M 33.234375 42.132812 C 33.195312 42.132812 33.15625 42.125 33.117188 42.109375 C 32.929688 42.042969 32.832031 41.839844 32.898438 41.65625 C 32.921875 41.59375 35.019531 35.578125 35.019531 29.570312 C 35.019531 23.5625 32.921875 17.550781 32.898438 17.488281 C 32.832031 17.304688 32.929688 17.097656 33.117188 17.03125 C 33.300781 16.96875 33.503906 17.066406 33.574219 17.25 C 33.59375 17.3125 35.734375 23.4375 35.734375 29.570312 C 35.734375 35.707031 33.59375 41.832031 33.574219 41.894531 C 33.519531 42.039062 33.382812 42.132812 33.234375 42.132812 Z M 33.234375 42.132812 " fill-opacity="1" fill-rule="nonzero"/><path fill="#ffffff" d="M 36.808594 39.289062 C 36.757812 39.289062 36.707031 39.277344 36.65625 39.253906 C 36.476562 39.171875 36.398438 38.960938 36.484375 38.78125 C 36.503906 38.734375 38.59375 34.148438 38.59375 29.570312 C 38.59375 28.171875 38.398438 26.640625 38.019531 25.011719 C 37.972656 24.820312 38.09375 24.628906 38.285156 24.582031 C 38.484375 24.539062 38.667969 24.65625 38.714844 24.847656 C 39.105469 26.53125 39.308594 28.117188 39.308594 29.570312 C 39.308594 34.308594 37.21875 38.886719 37.132812 39.082031 C 37.070312 39.210938 36.941406 39.289062 36.808594 39.289062 Z M 36.808594 39.289062 " fill-opacity="1" fill-rule="nonzero"/><path fill="#ffffff" d="M 21.195312 26.714844 C 21.1875 26.714844 21.179688 26.714844 21.171875 26.714844 C 20.976562 26.703125 20.828125 26.53125 20.839844 26.335938 C 21.164062 20.941406 22.160156 15.921875 22.171875 15.871094 C 22.210938 15.675781 22.402344 15.554688 22.59375 15.589844 C 22.785156 15.628906 22.910156 15.816406 22.871094 16.011719 C 22.863281 16.0625 21.875 21.035156 21.550781 26.378906 C 21.539062 26.570312 21.382812 26.714844 21.195312 26.714844 Z M 21.195312 26.714844 " fill-opacity="1" fill-rule="nonzero"/><path fill="#ffffff" d="M 22.519531 43.558594 C 22.355469 43.558594 22.207031 43.441406 22.171875 43.273438 C 22.160156 43.222656 21.164062 38.203125 20.839844 32.808594 C 20.828125 32.609375 20.976562 32.441406 21.171875 32.429688 C 21.390625 32.410156 21.539062 32.566406 21.550781 32.765625 C 21.875 38.113281 22.863281 43.082031 22.871094 43.132812 C 22.910156 43.324219 22.785156 43.511719 22.589844 43.550781 C 22.566406 43.558594 22.542969 43.558594 22.519531 43.558594 Z M 22.519531 43.558594 " fill-opacity="1" fill-rule="nonzero"/><path fill="#ffffff" d="M 18.949219 42.132812 C 18.804688 42.132812 18.664062 42.039062 18.613281 41.894531 C 18.589844 41.832031 16.449219 35.707031 16.449219 29.570312 C 16.449219 23.4375 18.589844 17.3125 18.613281 17.25 C 18.679688 17.066406 18.882812 16.96875 19.070312 17.03125 C 19.253906 17.097656 19.351562 17.304688 19.285156 17.488281 C 19.265625 17.550781 17.164062 23.5625 17.164062 29.570312 C 17.164062 35.578125 19.265625 41.59375 19.285156 41.65625 C 19.351562 41.839844 19.253906 42.042969 19.070312 42.109375 C 19.03125 42.125 18.988281 42.132812 18.949219 42.132812 Z M 18.949219 42.132812 " fill-opacity="1" fill-rule="nonzero"/><path fill="#ffffff" d="M 15.378906 39.289062 C 15.242188 39.289062 15.113281 39.210938 15.054688 39.082031 C 14.964844 38.886719 12.878906 34.308594 12.878906 29.570312 C 12.878906 24.835938 14.964844 20.253906 15.054688 20.0625 C 15.136719 19.882812 15.351562 19.804688 15.527344 19.886719 C 15.707031 19.96875 15.785156 20.183594 15.703125 20.363281 C 15.683594 20.40625 13.59375 24.996094 13.59375 29.570312 C 13.59375 34.148438 15.683594 38.734375 15.703125 38.78125 C 15.785156 38.960938 15.707031 39.171875 15.527344 39.253906 C 15.480469 39.277344 15.429688 39.289062 15.378906 39.289062 Z M 15.378906 39.289062 " fill-opacity="1" fill-rule="nonzero"/><path fill="#ffffff" d="M 18.527344 29.929688 L 11.746094 29.929688 C 11.550781 29.929688 11.390625 29.769531 11.390625 29.570312 C 11.390625 29.375 11.550781 29.214844 11.746094 29.214844 L 18.527344 29.214844 C 18.722656 29.214844 18.882812 29.375 18.882812 29.570312 C 18.882812 29.769531 18.722656 29.929688 18.527344 29.929688 Z M 18.527344 29.929688 " fill-opacity="1" fill-rule="nonzero"/><path fill="#ffffff" d="M 40.4375 29.929688 L 23.527344 29.929688 C 23.328125 29.929688 23.167969 29.769531 23.167969 29.570312 C 23.167969 29.375 23.328125 29.214844 23.527344 29.214844 L 40.4375 29.214844 C 40.636719 29.214844 40.792969 29.375 40.792969 29.570312 C 40.792969 29.769531 40.636719 29.929688 40.4375 29.929688 Z M 40.4375 29.929688 " fill-opacity="1" fill-rule="nonzero"/><path fill="#ffffff" d="M 26.035156 34.871094 C 19.570312 34.871094 12.40625 33.449219 12.332031 33.433594 C 12.140625 33.394531 12.015625 33.207031 12.054688 33.011719 C 12.09375 32.820312 12.285156 32.695312 12.472656 32.734375 C 12.542969 32.746094 19.640625 34.15625 26.035156 34.15625 C 32.425781 34.15625 39.523438 32.746094 39.59375 32.734375 C 39.785156 32.695312 39.976562 32.820312 40.015625 33.011719 C 40.054688 33.207031 39.925781 33.394531 39.734375 33.433594 C 39.664062 33.449219 32.496094 34.871094 26.035156 34.871094 Z M 26.035156 34.871094 " fill-opacity="1" fill-rule="nonzero"/><path fill="#ffffff" d="M 26.035156 39.15625 C 19.898438 39.15625 13.773438 37.015625 13.710938 36.992188 C 13.527344 36.925781 13.429688 36.722656 13.496094 36.535156 C 13.5625 36.351562 13.765625 36.253906 13.949219 36.320312 C 14.011719 36.339844 20.027344 38.441406 26.035156 38.441406 C 32.042969 38.441406 38.054688 36.339844 38.117188 36.320312 C 38.300781 36.253906 38.503906 36.351562 38.570312 36.535156 C 38.636719 36.722656 38.539062 36.925781 38.355469 36.992188 C 38.292969 37.015625 32.167969 39.15625 26.035156 39.15625 Z M 26.035156 39.15625 " fill-opacity="1" fill-rule="nonzero"/><path fill="#ffffff" d="M 26.035156 42.726562 C 21.296875 42.726562 16.71875 40.640625 16.523438 40.550781 C 16.34375 40.46875 16.265625 40.257812 16.347656 40.078125 C 16.433594 39.898438 16.648438 39.820312 16.824219 39.902344 C 16.871094 39.921875 21.457031 42.011719 26.035156 42.011719 C 30.609375 42.011719 35.199219 39.921875 35.242188 39.902344 C 35.421875 39.820312 35.636719 39.898438 35.71875 40.078125 C 35.800781 40.257812 35.722656 40.46875 35.542969 40.550781 C 35.351562 40.640625 30.769531 42.726562 26.035156 42.726562 Z M 26.035156 42.726562 " fill-opacity="1" fill-rule="nonzero"/><path fill="#ffffff" d="M 12.402344 26.296875 C 12.234375 26.296875 12.085938 26.179688 12.054688 26.011719 C 12.015625 25.816406 12.140625 25.628906 12.332031 25.589844 C 12.40625 25.578125 19.570312 24.15625 26.035156 24.15625 C 32.496094 24.15625 39.664062 25.578125 39.734375 25.589844 C 39.925781 25.628906 40.054688 25.816406 40.015625 26.011719 C 39.976562 26.207031 39.785156 26.328125 39.59375 26.292969 C 39.523438 26.277344 32.425781 24.871094 26.035156 24.871094 C 19.640625 24.871094 12.542969 26.277344 12.472656 26.292969 C 12.449219 26.296875 12.425781 26.296875 12.402344 26.296875 Z M 12.402344 26.296875 " fill-opacity="1" fill-rule="nonzero"/><path fill="#ffffff" d="M 13.832031 22.726562 C 13.683594 22.726562 13.546875 22.636719 13.496094 22.488281 C 13.429688 22.304688 13.527344 22.097656 13.710938 22.03125 C 13.773438 22.011719 19.898438 19.871094 26.035156 19.871094 C 29.742188 19.871094 33.40625 20.636719 35.832031 21.277344 C 36.023438 21.328125 36.136719 21.523438 36.085938 21.714844 C 36.035156 21.90625 35.84375 22.023438 35.648438 21.96875 C 33.265625 21.335938 29.664062 20.585938 26.035156 20.585938 C 20.027344 20.585938 14.011719 22.683594 13.949219 22.707031 C 13.910156 22.722656 13.871094 22.726562 13.832031 22.726562 Z M 13.832031 22.726562 " fill-opacity="1" fill-rule="nonzero"/><path fill="#ffffff" d="M 16.675781 19.15625 C 16.539062 19.15625 16.410156 19.078125 16.347656 18.949219 C 16.265625 18.769531 16.34375 18.554688 16.523438 18.472656 C 16.71875 18.386719 21.296875 16.296875 26.035156 16.296875 C 30.769531 16.296875 35.351562 18.386719 35.542969 18.472656 C 35.722656 18.554688 35.800781 18.769531 35.71875 18.949219 C 35.636719 19.128906 35.421875 19.207031 35.242188 19.121094 C 35.199219 19.101562 30.609375 17.011719 26.035156 17.011719 C 21.457031 17.011719 16.871094 19.101562 16.824219 19.121094 C 16.773438 19.144531 16.722656 19.15625 16.675781 19.15625 Z M 16.675781 19.15625 " fill-opacity="1" fill-rule="nonzero"/><path fill="#ffffff" d="M 26.035156 44.214844 C 25.835938 44.214844 25.675781 44.054688 25.675781 43.859375 L 25.675781 15.167969 C 25.675781 14.96875 25.835938 14.8125 26.035156 14.8125 C 26.230469 14.8125 26.390625 14.96875 26.390625 15.167969 L 26.390625 43.859375 C 26.390625 44.054688 26.230469 44.214844 26.035156 44.214844 Z M 26.035156 44.214844 " fill-opacity="1" fill-rule="nonzero"/><g clip-path="url(#28cd5d89d0)"><path fill="#ffffff" d="M 26.027344 13.144531 C 25.828125 13.144531 25.667969 12.984375 25.667969 12.785156 L 25.667969 4.214844 C 25.667969 4.019531 25.828125 3.859375 26.027344 3.859375 C 26.222656 3.859375 26.382812 4.019531 26.382812 4.214844 L 26.382812 12.785156 C 26.382812 12.984375 26.222656 13.144531 26.027344 13.144531 Z M 26.027344 13.144531 " fill-opacity="1" fill-rule="nonzero"/></g><path fill="#ffffff" d="M 4.953125 23.859375 C 4.757812 23.859375 4.597656 23.699219 4.597656 23.5 C 4.597656 21.84375 6.160156 21.066406 6.226562 21.035156 C 6.40625 20.949219 6.617188 21.023438 6.703125 21.203125 C 6.789062 21.378906 6.714844 21.59375 6.539062 21.679688 C 6.488281 21.703125 5.3125 22.296875 5.3125 23.5 C 5.3125 23.699219 5.152344 23.859375 4.953125 23.859375 Z M 4.953125 23.859375 " fill-opacity="1" fill-rule="nonzero"/><path fill="#ffffff" d="M 6.382812 21.714844 C 6.332031 21.714844 6.277344 21.703125 6.226562 21.679688 C 6.160156 21.648438 4.597656 20.875 4.597656 19.214844 C 4.597656 19.019531 4.757812 18.859375 4.953125 18.859375 C 5.152344 18.859375 5.3125 19.019531 5.3125 19.214844 C 5.3125 20.429688 6.527344 21.03125 6.539062 21.035156 C 6.714844 21.121094 6.789062 21.335938 6.703125 21.511719 C 6.644531 21.640625 6.515625 21.714844 6.382812 21.714844 Z M 6.382812 21.714844 " fill-opacity="1" fill-rule="nonzero"/><g clip-path="url(#b9c27bb00e)"><path fill="#ffffff" d="M 3.527344 21.714844 C 3.394531 21.714844 3.265625 21.640625 3.207031 21.515625 C 3.121094 21.335938 3.195312 21.125 3.371094 21.035156 C 3.421875 21.011719 4.597656 20.421875 4.597656 19.214844 C 4.597656 19.015625 4.757812 18.859375 4.953125 18.859375 C 5.152344 18.859375 5.3125 19.015625 5.3125 19.214844 C 5.3125 20.875 3.746094 21.648438 3.679688 21.679688 C 3.632812 21.703125 3.578125 21.714844 3.527344 21.714844 Z M 3.527344 21.714844 " fill-opacity="1" fill-rule="nonzero"/></g><g clip-path="url(#a22cfe4b4d)"><path fill="#ffffff" d="M 4.953125 23.859375 C 4.757812 23.859375 4.597656 23.699219 4.597656 23.5 C 4.597656 22.285156 3.382812 21.6875 3.371094 21.679688 C 3.195312 21.59375 3.117188 21.378906 3.203125 21.203125 C 3.289062 21.023438 3.507812 20.949219 3.679688 21.035156 C 3.746094 21.066406 5.3125 21.84375 5.3125 23.5 C 5.3125 23.699219 5.152344 23.859375 4.953125 23.859375 Z M 4.953125 23.859375 " fill-opacity="1" fill-rule="nonzero"/></g><path fill="#ffffff" d="M 38.527344 23.859375 C 38.328125 23.859375 38.167969 23.699219 38.167969 23.5 C 38.167969 21.84375 39.730469 21.066406 39.800781 21.035156 C 39.976562 20.949219 40.1875 21.023438 40.273438 21.203125 C 40.359375 21.378906 40.285156 21.59375 40.109375 21.679688 C 40.058594 21.703125 38.882812 22.296875 38.882812 23.5 C 38.882812 23.699219 38.722656 23.859375 38.527344 23.859375 Z M 38.527344 23.859375 " fill-opacity="1" fill-rule="nonzero"/><path fill="#ffffff" d="M 39.953125 21.714844 C 39.902344 21.714844 39.847656 21.703125 39.800781 21.679688 C 39.730469 21.648438 38.167969 20.875 38.167969 19.214844 C 38.167969 19.019531 38.328125 18.859375 38.527344 18.859375 C 38.722656 18.859375 38.882812 19.019531 38.882812 19.214844 C 38.882812 20.429688 40.097656 21.03125 40.109375 21.035156 C 40.285156 21.121094 40.363281 21.335938 40.277344 21.511719 C 40.214844 21.640625 40.085938 21.714844 39.953125 21.714844 Z M 39.953125 21.714844 " fill-opacity="1" fill-rule="nonzero"/><path fill="#ffffff" d="M 37.097656 21.714844 C 36.964844 21.714844 36.839844 21.640625 36.777344 21.515625 C 36.691406 21.335938 36.765625 21.125 36.941406 21.035156 C 36.992188 21.011719 38.167969 20.421875 38.167969 19.214844 C 38.167969 19.015625 38.328125 18.859375 38.527344 18.859375 C 38.722656 18.859375 38.882812 19.015625 38.882812 19.214844 C 38.882812 20.875 37.320312 21.648438 37.253906 21.679688 C 37.203125 21.703125 37.148438 21.714844 37.097656 21.714844 Z M 37.097656 21.714844 " fill-opacity="1" fill-rule="nonzero"/><path fill="#ffffff" d="M 38.527344 23.859375 C 38.328125 23.859375 38.167969 23.699219 38.167969 23.5 C 38.167969 22.285156 36.953125 21.6875 36.941406 21.679688 C 36.765625 21.59375 36.691406 21.378906 36.777344 21.203125 C 36.863281 21.023438 37.078125 20.949219 37.253906 21.035156 C 37.320312 21.066406 38.882812 21.84375 38.882812 23.5 C 38.882812 23.699219 38.722656 23.859375 38.527344 23.859375 Z M 38.527344 23.859375 " fill-opacity="1" fill-rule="nonzero"/><path fill="#ffffff" d="M 21.027344 32.011719 C 20.828125 32.011719 20.667969 31.851562 20.667969 31.65625 C 20.667969 29.996094 22.234375 29.222656 22.300781 29.191406 C 22.476562 29.105469 22.6875 29.179688 22.773438 29.355469 C 22.859375 29.53125 22.789062 29.746094 22.609375 29.832031 C 22.558594 29.859375 21.382812 30.449219 21.382812 31.65625 C 21.382812 31.851562 21.222656 32.011719 21.027344 32.011719 Z M 21.027344 32.011719 " fill-opacity="1" fill-rule="nonzero"/><path fill="#ffffff" d="M 22.453125 29.867188 C 22.402344 29.867188 22.347656 29.859375 22.300781 29.832031 C 22.234375 29.800781 20.667969 29.027344 20.667969 27.371094 C 20.667969 27.171875 20.828125 27.011719 21.027344 27.011719 C 21.222656 27.011719 21.382812 27.171875 21.382812 27.371094 C 21.382812 28.585938 22.597656 29.183594 22.609375 29.191406 C 22.789062 29.277344 22.863281 29.488281 22.777344 29.667969 C 22.714844 29.792969 22.585938 29.867188 22.453125 29.867188 Z M 22.453125 29.867188 " fill-opacity="1" fill-rule="nonzero"/><path fill="#ffffff" d="M 19.597656 29.867188 C 19.464844 29.867188 19.339844 29.796875 19.277344 29.667969 C 19.191406 29.492188 19.265625 29.277344 19.441406 29.191406 C 19.492188 29.164062 20.667969 28.574219 20.667969 27.371094 C 20.667969 27.171875 20.828125 27.011719 21.027344 27.011719 C 21.222656 27.011719 21.382812 27.171875 21.382812 27.371094 C 21.382812 29.027344 19.820312 29.800781 19.753906 29.832031 C 19.703125 29.859375 19.648438 29.867188 19.597656 29.867188 Z M 19.597656 29.867188 " fill-opacity="1" fill-rule="nonzero"/><path fill="#ffffff" d="M 21.027344 32.011719 C 20.828125 32.011719 20.667969 31.851562 20.667969 31.65625 C 20.667969 30.441406 19.453125 29.839844 19.441406 29.832031 C 19.265625 29.746094 19.191406 29.535156 19.277344 29.355469 C 19.363281 29.179688 19.578125 29.105469 19.753906 29.191406 C 19.820312 29.222656 21.382812 29.996094 21.382812 31.65625 C 21.382812 31.851562 21.222656 32.011719 21.027344 32.011719 Z M 21.027344 32.011719 " fill-opacity="1" fill-rule="nonzero"/><path fill="#ffffff" d="M 20.125 10.929688 C 20.066406 10.929688 20.007812 10.917969 19.957031 10.890625 L 19.238281 10.511719 L 18.523438 10.890625 C 18.402344 10.953125 18.257812 10.941406 18.148438 10.863281 C 18.035156 10.78125 17.980469 10.648438 18.003906 10.511719 L 18.140625 9.714844 L 17.5625 9.148438 C 17.464844 9.054688 17.429688 8.914062 17.472656 8.785156 C 17.515625 8.65625 17.625 8.558594 17.761719 8.539062 L 18.5625 8.425781 L 18.921875 7.699219 C 19.039062 7.453125 19.441406 7.453125 19.558594 7.699219 L 19.917969 8.425781 L 20.71875 8.539062 C 20.855469 8.558594 20.964844 8.65625 21.007812 8.785156 C 21.050781 8.914062 21.015625 9.054688 20.917969 9.148438 L 20.339844 9.714844 L 20.476562 10.511719 C 20.5 10.648438 20.445312 10.78125 20.332031 10.863281 C 20.269531 10.90625 20.195312 10.929688 20.125 10.929688 Z M 19.238281 9.753906 C 19.296875 9.753906 19.355469 9.765625 19.40625 9.792969 L 19.648438 9.921875 L 19.601562 9.652344 C 19.582031 9.535156 19.621094 9.417969 19.707031 9.335938 L 19.902344 9.144531 L 19.628906 9.105469 C 19.515625 9.085938 19.414062 9.015625 19.363281 8.910156 L 19.238281 8.664062 L 19.117188 8.910156 C 19.066406 9.015625 18.964844 9.085938 18.851562 9.105469 L 18.578125 9.144531 L 18.773438 9.335938 C 18.859375 9.417969 18.898438 9.535156 18.878906 9.652344 L 18.832031 9.921875 L 19.074219 9.792969 C 19.125 9.765625 19.183594 9.753906 19.238281 9.753906 Z M 19.238281 9.753906 " fill-opacity="1" fill-rule="nonzero"/><g clip-path="url(#8f0686dccb)"><path fill="#ffffff" d="M 40.121094 48.074219 C 40.066406 48.074219 40.007812 48.058594 39.957031 48.03125 L 39.238281 47.65625 L 38.523438 48.03125 C 38.402344 48.097656 38.257812 48.085938 38.148438 48.003906 C 38.039062 47.925781 37.980469 47.789062 38.003906 47.65625 L 38.140625 46.859375 L 37.5625 46.292969 C 37.464844 46.199219 37.429688 46.054688 37.472656 45.925781 C 37.511719 45.796875 37.625 45.703125 37.761719 45.683594 L 38.5625 45.566406 L 38.917969 44.839844 C 38.980469 44.71875 39.105469 44.640625 39.238281 44.640625 C 39.375 44.640625 39.5 44.71875 39.558594 44.839844 L 39.917969 45.566406 L 40.71875 45.683594 C 40.855469 45.703125 40.964844 45.796875 41.007812 45.925781 C 41.050781 46.054688 41.015625 46.199219 40.917969 46.292969 L 40.335938 46.859375 L 40.476562 47.65625 C 40.5 47.789062 40.441406 47.925781 40.332031 48.003906 C 40.269531 48.050781 40.195312 48.074219 40.121094 48.074219 Z M 39.238281 46.894531 C 39.296875 46.894531 39.355469 46.910156 39.40625 46.9375 L 39.648438 47.0625 L 39.601562 46.792969 C 39.582031 46.675781 39.621094 46.558594 39.707031 46.476562 L 39.902344 46.285156 L 39.632812 46.246094 C 39.515625 46.230469 39.414062 46.15625 39.363281 46.050781 L 39.242188 45.804688 L 39.121094 46.050781 C 39.066406 46.15625 38.964844 46.230469 38.851562 46.246094 L 38.578125 46.285156 L 38.773438 46.476562 C 38.859375 46.558594 38.898438 46.675781 38.878906 46.792969 L 38.832031 47.0625 L 39.074219 46.9375 C 39.125 46.910156 39.183594 46.894531 39.238281 46.894531 Z M 39.238281 46.894531 " fill-opacity="1" fill-rule="nonzero"/></g><path fill="#ffffff" d="M 47.8125 38.144531 C 47.613281 38.144531 47.453125 37.984375 47.453125 37.785156 L 47.453125 34.929688 C 47.453125 34.730469 47.613281 34.570312 47.8125 34.570312 C 48.007812 34.570312 48.167969 34.730469 48.167969 34.929688 L 48.167969 37.785156 C 48.167969 37.984375 48.007812 38.144531 47.8125 38.144531 Z M 47.8125 38.144531 " fill-opacity="1" fill-rule="nonzero"/><path fill="#ffffff" d="M 48.527344 36.714844 L 47.097656 36.714844 C 46.898438 36.714844 46.738281 36.554688 46.738281 36.359375 C 46.738281 36.160156 46.898438 36 47.097656 36 L 48.527344 36 C 48.722656 36 48.882812 36.160156 48.882812 36.359375 C 48.882812 36.554688 48.722656 36.714844 48.527344 36.714844 Z M 48.527344 36.714844 " fill-opacity="1" fill-rule="nonzero"/><path fill="#ffffff" d="M 6.382812 46.714844 C 6.1875 46.714844 6.027344 46.554688 6.027344 46.359375 L 6.027344 43.5 C 6.027344 43.304688 6.1875 43.144531 6.382812 43.144531 C 6.582031 43.144531 6.742188 43.304688 6.742188 43.5 L 6.742188 46.359375 C 6.742188 46.554688 6.582031 46.714844 6.382812 46.714844 Z M 6.382812 46.714844 " fill-opacity="1" fill-rule="nonzero"/><path fill="#ffffff" d="M 7.097656 45.285156 L 5.667969 45.285156 C 5.472656 45.285156 5.3125 45.125 5.3125 44.929688 C 5.3125 44.730469 5.472656 44.570312 5.667969 44.570312 L 7.097656 44.570312 C 7.296875 44.570312 7.453125 44.730469 7.453125 44.929688 C 7.453125 45.125 7.296875 45.285156 7.097656 45.285156 Z M 7.097656 45.285156 " fill-opacity="1" fill-rule="nonzero"/><path fill="#ffffff" d="M 37.8125 13.859375 C 37.613281 13.859375 37.453125 13.699219 37.453125 13.5 L 37.453125 10.644531 C 37.453125 10.445312 37.613281 10.285156 37.8125 10.285156 C 38.007812 10.285156 38.167969 10.445312 38.167969 10.644531 L 38.167969 13.5 C 38.167969 13.699219 38.007812 13.859375 37.8125 13.859375 Z M 37.8125 13.859375 " fill-opacity="1" fill-rule="nonzero"/><path fill="#ffffff" d="M 38.527344 12.429688 L 37.097656 12.429688 C 36.898438 12.429688 36.738281 12.269531 36.738281 12.070312 C 36.738281 11.875 36.898438 11.714844 37.097656 11.714844 L 38.527344 11.714844 C 38.722656 11.714844 38.882812 11.875 38.882812 12.070312 C 38.882812 12.269531 38.722656 12.429688 38.527344 12.429688 Z M 38.527344 12.429688 " fill-opacity="1" fill-rule="nonzero"/></svg>