<svg xmlns="http://www.w3.org/2000/svg" xmlns:xlink="http://www.w3.org/1999/xlink" width="70" zoomAndPan="magnify" viewBox="0 0 52.5 52.499999" height="70" preserveAspectRatio="xMidYMid meet" version="1.0"><defs><filter x="0%" y="0%" width="100%" height="100%" id="d8eb15d4dc"><feColorMatrix values="0 0 0 0 1 0 0 0 0 1 0 0 0 0 1 0 0 0 1 0" color-interpolation-filters="sRGB"/></filter><mask id="61810efe65"><g filter="url(#d8eb15d4dc)"><rect x="-5.25" width="63" fill="#000000" y="-5.25" height="62.999999" fill-opacity="0.71"/></g></mask><clipPath id="2014138495"><path d="M 0.09375 0.273438 L 46 0.273438 L 46 34.414062 L 0.09375 34.414062 Z M 0.09375 0.273438 " clip-rule="nonzero"/></clipPath><clipPath id="a7f7008fba"><rect x="0" width="47" y="0" height="35"/></clipPath><clipPath id="b1d66f3118"><path d="M 2.15625 17.390625 L 49.703125 17.390625 L 49.703125 43.390625 L 2.15625 43.390625 Z M 2.15625 17.390625 " clip-rule="nonzero"/></clipPath></defs><g mask="url(#61810efe65)"><g transform="matrix(1, 0, 0, 1, 3, 6)"><g clip-path="url(#a7f7008fba)"><path fill="#fbdfe7" d="M 6.589844 16.722656 L 5.6875 15.175781 L 4.789062 16.722656 L 5.6875 18.222656 Z M 6.589844 16.722656 " fill-opacity="1" fill-rule="nonzero"/><path fill="#fbdfe7" d="M 16.777344 13.027344 L 15.929688 11.476562 L 15.03125 13.027344 L 15.929688 14.523438 Z M 16.777344 13.027344 " fill-opacity="1" fill-rule="nonzero"/><path fill="#fbdfe7" d="M 41.203125 16.722656 L 40.304688 15.175781 L 39.40625 16.722656 L 40.304688 18.222656 Z M 41.203125 16.722656 " fill-opacity="1" fill-rule="nonzero"/><path fill="#fbdfe7" d="M 30.964844 13.027344 L 30.066406 11.476562 L 29.214844 13.027344 L 30.066406 14.523438 Z M 30.964844 13.027344 " fill-opacity="1" fill-rule="nonzero"/><g clip-path="url(#2014138495)"><path fill="#fbdfe7" d="M 39.007812 23.117188 L 35.761719 12.375 L 29.617188 20.417969 L 23.820312 8.929688 L 25.570312 5.433594 L 23.023438 0.339844 L 20.425781 5.433594 L 22.171875 8.929688 L 16.378906 20.371094 L 10.335938 12.375 L 7.085938 23.167969 L 0.09375 15.125 L 4.890625 30.308594 L 4.941406 30.410156 L 4.941406 34.105469 L 41.054688 34.105469 L 41.054688 30.410156 L 41.15625 30.160156 L 45.902344 15.125 Z M 39.355469 29.558594 L 35.410156 29.558594 L 38.359375 26.164062 Z M 35.160156 15.625 L 37.859375 24.464844 L 33.960938 28.960938 L 30.414062 21.917969 Z M 32.5625 29.558594 L 24.570312 29.558594 L 29.367188 23.265625 Z M 22.074219 5.433594 L 22.972656 3.683594 L 23.871094 5.433594 L 22.972656 7.230469 Z M 23.023438 10.578125 L 28.617188 21.71875 L 23.023438 29.109375 L 17.429688 21.667969 Z M 7.6875 26.214844 L 10.585938 29.558594 L 6.6875 29.558594 Z M 21.472656 29.558594 L 13.433594 29.558594 L 16.628906 23.167969 Z M 10.933594 15.625 L 15.628906 21.816406 L 12.082031 28.960938 L 8.238281 24.515625 Z M 3.691406 21.617188 L 6.539062 24.863281 L 5.640625 27.761719 Z M 39.554688 32.605469 L 6.4375 32.605469 L 6.4375 31.058594 L 39.554688 31.058594 Z M 40.355469 27.664062 L 39.507812 24.816406 L 42.304688 21.617188 Z M 40.355469 27.664062 " fill-opacity="1" fill-rule="nonzero"/></g></g></g></g><g clip-path="url(#b1d66f3118)"><path fill="#2e5e4e" d="M 49.792969 32.015625 C 49.792969 34.832031 47.503906 37.058594 44.460938 37.058594 C 41.046875 37.058594 38.277344 33.40625 38.277344 28.902344 C 38.277344 28.832031 38.277344 28.765625 38.28125 28.699219 L 34.984375 38.3125 L 33.65625 38.425781 L 27.214844 19.625 C 27.164062 19.710938 27.109375 19.804688 27.054688 19.902344 L 22.632812 27.851562 L 27.113281 35.652344 C 28.15625 37.46875 28.527344 37.675781 29.714844 37.675781 L 30.117188 37.675781 L 30.117188 38.167969 L 24.945312 38.167969 L 24.945312 37.675781 L 25.496094 37.675781 C 26.476562 37.675781 26.910156 37.617188 26.910156 37.210938 C 26.910156 36.921875 26.707031 36.492188 26.304688 35.769531 L 22.199219 28.628906 L 18.34375 35.566406 C 14.9375 41.699219 12.277344 43.019531 8.171875 43.019531 C 6.746094 43.019531 5.605469 42.515625 4.707031 41.808594 C 3.328125 40.722656 2.203125 39.042969 2.203125 36.644531 C 2.203125 33.207031 4.648438 30.660156 7.71875 30.164062 L 7.765625 30.449219 C 4.824219 30.925781 2.492188 33.355469 2.492188 36.644531 C 2.492188 38.945312 3.5625 40.539062 4.886719 41.582031 C 5.65625 42.1875 6.773438 42.46875 7.558594 42.46875 C 11.074219 42.46875 13.753906 39.660156 16.582031 34.523438 L 20.8125 26.839844 L 20.398438 26.164062 C 19.863281 25.425781 18.964844 24.820312 17.894531 24.820312 C 16.957031 24.820312 16.253906 25.375 16.253906 26.164062 C 16.253906 26.777344 16.734375 27.160156 17.207031 27.160156 C 17.523438 27.160156 17.785156 26.988281 17.925781 26.808594 L 18.152344 26.984375 C 17.964844 27.226562 17.628906 27.449219 17.207031 27.449219 C 16.582031 27.449219 15.964844 26.945312 15.964844 26.164062 C 15.964844 25.167969 16.851562 24.53125 17.894531 24.53125 C 18.605469 24.53125 19.253906 24.78125 19.773438 25.144531 L 16.566406 19.902344 C 15.4375 18.113281 15.234375 17.679688 14.367188 17.679688 L 11.21875 17.679688 L 11.21875 17.390625 L 18.644531 17.390625 L 18.644531 17.910156 L 18.125 17.910156 C 17.203125 17.910156 16.765625 17.996094 16.765625 18.398438 C 16.765625 18.691406 17 19.152344 17.402344 19.816406 L 21.246094 26.058594 L 25.003906 19.296875 C 25.363281 18.652344 25.886719 18.214844 26.28125 18.023438 C 26.328125 18 26.375 17.984375 26.417969 17.96875 L 26.417969 17.910156 L 24.917969 17.910156 L 24.917969 17.390625 L 30.503906 17.390625 L 30.503906 17.910156 L 29.25 17.910156 C 28.949219 17.910156 28.710938 17.9375 28.476562 18.0625 C 28.789062 18.257812 29.03125 18.628906 29.175781 19.035156 L 34.578125 34.84375 C 34.78125 35.390625 34.808594 35.738281 34.808594 35.855469 L 34.808594 35.882812 L 35.042969 35.882812 L 35.042969 35.855469 C 35.042969 35.769531 35.070312 35.421875 35.332031 34.757812 L 40.675781 19.441406 C 40.792969 19.09375 40.875 18.78125 40.875 18.523438 C 40.875 17.996094 40.535156 17.679688 39.460938 17.679688 L 35.445312 17.679688 L 35.445312 17.390625 L 43.710938 17.390625 L 43.710938 17.910156 L 43.132812 17.910156 C 42.09375 17.910156 41.902344 18.144531 41.457031 19.441406 L 38.773438 27.257812 C 38.632812 27.804688 38.566406 28.359375 38.566406 28.902344 C 38.566406 33.246094 41.207031 36.769531 44.460938 36.769531 C 47.355469 36.769531 49.503906 34.660156 49.503906 32.015625 C 49.503906 29.476562 47.625 27.632812 45.191406 27.632812 C 43.453125 27.632812 42.289062 28.527344 41.609375 29.601562 L 41.363281 29.449219 C 42.085938 28.308594 43.339844 27.34375 45.191406 27.34375 C 47.78125 27.34375 49.792969 29.320312 49.792969 32.015625 Z M 26.417969 17.910156 L 26.417969 17.96875 C 26.375 17.984375 26.328125 18 26.28125 18.023438 C 26.074219 17.933594 25.8125 17.910156 25.449219 17.910156 Z M 26.417969 17.910156 " fill-opacity="1" fill-rule="nonzero"/></g></svg>