<svg xmlns="http://www.w3.org/2000/svg" xmlns:xlink="http://www.w3.org/1999/xlink" width="70" zoomAndPan="magnify" viewBox="0 0 52.5 52.499999" height="70" preserveAspectRatio="xMidYMid meet" version="1.0"><defs><clipPath id="47cad91127"><path d="M 4 4.066406 L 47.761719 4.066406 L 47.761719 47.898438 L 4 47.898438 Z M 4 4.066406 " clip-rule="nonzero"/></clipPath></defs><path fill="#ffffff" d="M 26.003906 21.609375 C 25.617188 21.609375 25.246094 21.683594 24.886719 21.832031 C 24.527344 21.980469 24.210938 22.191406 23.9375 22.464844 C 23.664062 22.742188 23.453125 23.058594 23.304688 23.414062 C 23.15625 23.773438 23.082031 24.144531 23.082031 24.535156 C 23.082031 24.921875 23.15625 25.292969 23.304688 25.652344 C 23.453125 26.011719 23.664062 26.328125 23.9375 26.601562 C 24.210938 26.875 24.527344 27.085938 24.886719 27.234375 C 25.246094 27.382812 25.617188 27.457031 26.003906 27.457031 C 26.394531 27.457031 26.765625 27.382812 27.125 27.234375 C 27.480469 27.085938 27.796875 26.875 28.070312 26.601562 C 28.347656 26.328125 28.558594 26.011719 28.707031 25.652344 C 28.855469 25.292969 28.929688 24.921875 28.929688 24.535156 C 28.929688 24.144531 28.851562 23.773438 28.703125 23.414062 C 28.554688 23.058594 28.34375 22.742188 28.070312 22.46875 C 27.796875 22.195312 27.480469 21.980469 27.125 21.832031 C 26.765625 21.683594 26.394531 21.609375 26.003906 21.609375 Z M 26.003906 25.996094 C 25.8125 25.996094 25.625 25.957031 25.445312 25.882812 C 25.265625 25.808594 25.109375 25.703125 24.972656 25.566406 C 24.835938 25.429688 24.730469 25.273438 24.65625 25.09375 C 24.582031 24.914062 24.542969 24.726562 24.542969 24.535156 C 24.542969 24.339844 24.582031 24.152344 24.65625 23.972656 C 24.730469 23.796875 24.835938 23.636719 24.972656 23.5 C 25.109375 23.363281 25.265625 23.257812 25.445312 23.183594 C 25.625 23.109375 25.8125 23.070312 26.003906 23.070312 C 26.199219 23.070312 26.386719 23.109375 26.566406 23.183594 C 26.742188 23.257812 26.902344 23.363281 27.039062 23.5 C 27.175781 23.636719 27.28125 23.796875 27.355469 23.972656 C 27.429688 24.152344 27.46875 24.339844 27.46875 24.535156 C 27.464844 24.726562 27.429688 24.914062 27.355469 25.09375 C 27.28125 25.269531 27.175781 25.429688 27.039062 25.566406 C 26.902344 25.703125 26.742188 25.808594 26.5625 25.882812 C 26.386719 25.957031 26.199219 25.996094 26.003906 25.996094 Z M 26.003906 25.996094 " fill-opacity="1" fill-rule="nonzero"/><g clip-path="url(#47cad91127)"><path fill="#ffffff" d="M 46.855469 33.039062 C 44.59375 31.492188 37.878906 26.757812 37.878906 26.757812 C 38.304688 26.835938 38.714844 26.796875 39.113281 26.632812 C 39.511719 26.472656 39.835938 26.21875 40.085938 25.867188 C 40.773438 24.90625 40.527344 23.464844 39.546875 22.808594 L 28.199219 14.867188 L 28.199219 12.476562 L 28.929688 12.476562 C 29.21875 12.476562 29.5 12.421875 29.765625 12.308594 C 30.035156 12.199219 30.273438 12.039062 30.476562 11.835938 C 30.683594 11.628906 30.84375 11.390625 30.953125 11.121094 C 31.066406 10.855469 31.121094 10.574219 31.121094 10.285156 C 31.121094 9.992188 31.066406 9.714844 30.953125 9.445312 C 30.84375 9.175781 30.683594 8.9375 30.476562 8.734375 C 30.273438 8.527344 30.035156 8.371094 29.765625 8.257812 C 29.5 8.148438 29.21875 8.089844 28.929688 8.089844 L 28.199219 8.089844 L 28.199219 6.265625 C 28.199219 5.972656 28.140625 5.695312 28.03125 5.425781 C 27.917969 5.15625 27.761719 4.921875 27.554688 4.714844 C 27.351562 4.507812 27.113281 4.351562 26.84375 4.238281 C 26.574219 4.128906 26.296875 4.074219 26.003906 4.074219 C 25.714844 4.074219 25.433594 4.128906 25.167969 4.238281 C 24.898438 4.351562 24.660156 4.507812 24.457031 4.714844 C 24.25 4.921875 24.089844 5.15625 23.980469 5.425781 C 23.867188 5.695312 23.8125 5.972656 23.8125 6.265625 L 23.8125 8.089844 L 23.082031 8.089844 C 22.792969 8.089844 22.511719 8.148438 22.242188 8.257812 C 21.976562 8.371094 21.738281 8.527344 21.53125 8.734375 C 21.328125 8.9375 21.167969 9.175781 21.058594 9.445312 C 20.945312 9.714844 20.890625 9.992188 20.890625 10.285156 C 20.890625 10.574219 20.945312 10.855469 21.058594 11.121094 C 21.167969 11.390625 21.328125 11.628906 21.53125 11.835938 C 21.738281 12.039062 21.976562 12.199219 22.242188 12.308594 C 22.511719 12.421875 22.792969 12.476562 23.082031 12.476562 L 23.8125 12.476562 L 23.8125 14.867188 L 12.464844 22.808594 C 11.484375 23.464844 11.238281 24.90625 11.925781 25.867188 C 12.175781 26.21875 12.5 26.472656 12.898438 26.632812 C 13.296875 26.796875 13.707031 26.835938 14.128906 26.757812 C 14.128906 26.757812 7.414062 31.492188 5.15625 33.039062 C 4.183594 33.707031 3.929688 35.136719 4.617188 36.097656 C 4.789062 36.339844 5 36.539062 5.253906 36.695312 C 5.507812 36.855469 5.78125 36.957031 6.074219 37.003906 C 6.367188 37.046875 6.660156 37.035156 6.945312 36.964844 C 7.234375 36.894531 7.5 36.769531 7.738281 36.589844 L 7.738281 47.1875 C 7.738281 47.386719 7.808594 47.558594 7.949219 47.703125 C 8.09375 47.847656 8.265625 47.917969 8.46875 47.917969 L 43.542969 47.917969 C 43.746094 47.917969 43.917969 47.847656 44.058594 47.703125 C 44.203125 47.558594 44.273438 47.386719 44.273438 47.1875 L 44.273438 36.589844 C 44.511719 36.769531 44.777344 36.894531 45.0625 36.964844 C 45.351562 37.035156 45.644531 37.046875 45.9375 37.003906 C 46.230469 36.957031 46.503906 36.855469 46.757812 36.695312 C 47.007812 36.539062 47.222656 36.339844 47.390625 36.097656 C 48.082031 35.136719 47.828125 33.707031 46.855469 33.039062 Z M 23.082031 11.015625 C 22.878906 11.015625 22.707031 10.941406 22.566406 10.800781 C 22.421875 10.65625 22.351562 10.484375 22.351562 10.285156 C 22.351562 10.082031 22.421875 9.910156 22.566406 9.765625 C 22.707031 9.625 22.878906 9.554688 23.082031 9.554688 L 24.542969 9.554688 C 24.746094 9.554688 24.917969 9.480469 25.0625 9.339844 C 25.203125 9.195312 25.273438 9.023438 25.273438 8.824219 L 25.273438 6.265625 C 25.273438 6.0625 25.347656 5.890625 25.488281 5.75 C 25.632812 5.605469 25.804688 5.535156 26.003906 5.535156 C 26.207031 5.535156 26.378906 5.605469 26.523438 5.75 C 26.664062 5.890625 26.734375 6.0625 26.734375 6.265625 L 26.734375 8.824219 C 26.734375 9.023438 26.808594 9.195312 26.949219 9.339844 C 27.09375 9.480469 27.265625 9.554688 27.46875 9.554688 L 28.929688 9.554688 C 29.128906 9.554688 29.300781 9.625 29.445312 9.765625 C 29.585938 9.910156 29.660156 10.082031 29.660156 10.285156 C 29.660156 10.484375 29.585938 10.65625 29.445312 10.800781 C 29.300781 10.941406 29.128906 11.015625 28.929688 11.015625 L 27.46875 11.015625 C 27.265625 11.015625 27.09375 11.085938 26.949219 11.230469 C 26.808594 11.371094 26.734375 11.542969 26.734375 11.746094 L 26.734375 13.945312 C 26.25 13.773438 25.761719 13.773438 25.273438 13.945312 L 25.273438 11.746094 C 25.273438 11.542969 25.203125 11.371094 25.0625 11.230469 C 24.917969 11.085938 24.746094 11.015625 24.542969 11.015625 Z M 13.121094 25.027344 C 13.007812 24.863281 12.96875 24.679688 13.003906 24.480469 C 13.039062 24.28125 13.136719 24.125 13.300781 24.007812 C 13.300781 24.007812 22.515625 17.558594 25.585938 15.40625 C 25.867188 15.214844 26.144531 15.214844 26.425781 15.40625 C 29.496094 17.558594 38.710938 24.007812 38.710938 24.007812 C 38.875 24.121094 38.976562 24.28125 39.011719 24.480469 C 39.050781 24.679688 39.007812 24.863281 38.890625 25.03125 C 38.777344 25.195312 38.617188 25.296875 38.417969 25.332031 C 38.214844 25.367188 38.035156 25.324219 37.867188 25.207031 C 37.867188 25.207031 29.914062 19.636719 27.261719 17.777344 C 26.886719 17.515625 26.464844 17.382812 26.003906 17.382812 C 25.542969 17.382812 25.125 17.515625 24.746094 17.777344 C 22.097656 19.636719 14.144531 25.207031 14.144531 25.207031 C 13.976562 25.324219 13.792969 25.363281 13.59375 25.328125 C 13.398438 25.292969 13.238281 25.191406 13.121094 25.027344 Z M 15.042969 46.457031 L 13.21875 46.457031 L 13.21875 40.175781 C 13.21875 39.484375 14.09375 38.390625 15.042969 37.46875 Z M 15.042969 35.507812 C 14.101562 36.273438 11.757812 38.359375 11.757812 40.175781 L 11.757812 46.457031 L 9.199219 46.457031 L 9.199219 35.566406 L 15.042969 31.472656 Z M 15.042969 29.6875 C 15.042969 29.6875 8.890625 34.007812 6.835938 35.4375 C 6.046875 35.984375 5.210938 34.789062 5.996094 34.238281 C 8.253906 32.648438 15.042969 27.902344 15.042969 27.902344 Z M 29.660156 46.457031 L 22.351562 46.457031 L 22.351562 37.234375 C 22.351562 35.789062 24.429688 33.464844 26.003906 32.070312 C 27.578125 33.464844 29.660156 35.789062 29.660156 37.234375 Z M 35.503906 46.457031 L 31.121094 46.457031 L 31.121094 37.234375 C 31.121094 34.433594 26.945312 30.933594 26.46875 30.542969 C 26.332031 30.433594 26.179688 30.378906 26.003906 30.378906 C 25.832031 30.378906 25.675781 30.433594 25.542969 30.542969 C 25.066406 30.933594 20.890625 34.433594 20.890625 37.234375 L 20.890625 46.457031 L 16.503906 46.457031 L 16.503906 25.335938 L 25.585938 18.976562 C 25.867188 18.78125 26.144531 18.78125 26.425781 18.976562 L 35.503906 25.335938 Z M 38.792969 46.457031 L 36.964844 46.457031 L 36.964844 37.46875 C 37.917969 38.390625 38.792969 39.484375 38.792969 40.175781 Z M 42.8125 46.457031 L 40.253906 46.457031 L 40.253906 40.175781 C 40.253906 38.359375 37.910156 36.273438 36.964844 35.507812 L 36.964844 31.472656 L 42.8125 35.566406 Z M 45.175781 35.4375 C 43.117188 34.007812 36.964844 29.6875 36.964844 29.6875 L 36.964844 27.902344 C 36.964844 27.902344 43.757812 32.648438 46.015625 34.238281 C 46.800781 34.789062 45.964844 35.984375 45.175781 35.4375 Z M 45.175781 35.4375 " fill-opacity="1" fill-rule="nonzero"/></g></svg>