<svg xmlns="http://www.w3.org/2000/svg" xmlns:xlink="http://www.w3.org/1999/xlink" width="70" zoomAndPan="magnify" viewBox="0 0 52.5 52.499999" height="70" preserveAspectRatio="xMidYMid meet" version="1.2"><defs><clipPath id="a5104e8e68"><path d="M 3.640625 2.859375 L 48.214844 2.859375 L 48.214844 48.921875 L 3.640625 48.921875 Z M 3.640625 2.859375 "/></clipPath></defs><g id="c7db618fb6"><path style=" stroke:none;fill-rule:nonzero;fill:#ed796a;fill-opacity:1;" d="M 37.777344 43.226562 L 37.777344 45.496094 C 37.777344 45.691406 37.933594 45.847656 38.125 45.847656 L 41.617188 45.847656 C 41.8125 45.847656 41.96875 45.691406 41.96875 45.496094 L 41.96875 43.226562 C 41.96875 42.152344 41.09375 41.277344 40.019531 41.277344 L 39.722656 41.277344 C 38.648438 41.277344 37.777344 42.152344 37.777344 43.226562 Z M 38.476562 43.226562 C 38.476562 42.539062 39.035156 41.980469 39.722656 41.980469 L 40.019531 41.980469 C 40.707031 41.980469 41.265625 42.539062 41.265625 43.226562 L 41.265625 45.148438 L 38.476562 45.148438 Z M 38.476562 43.226562 "/><path style=" stroke:none;fill-rule:nonzero;fill:#ed796a;fill-opacity:1;" d="M 11.957031 41.277344 L 11.660156 41.277344 C 10.585938 41.277344 9.714844 42.152344 9.714844 43.226562 L 9.714844 45.496094 C 9.714844 45.691406 9.871094 45.847656 10.0625 45.847656 L 13.554688 45.847656 C 13.75 45.847656 13.90625 45.691406 13.90625 45.496094 L 13.90625 43.226562 C 13.90625 42.152344 13.03125 41.277344 11.957031 41.277344 Z M 13.203125 45.148438 L 10.414062 45.148438 L 10.414062 43.226562 C 10.414062 42.539062 10.972656 41.980469 11.660156 41.980469 L 11.957031 41.980469 C 12.644531 41.980469 13.203125 42.539062 13.203125 43.226562 Z M 13.203125 45.148438 "/><g clip-rule="nonzero" clip-path="url(#a5104e8e68)"><path style=" stroke:none;fill-rule:nonzero;fill:#ed796a;fill-opacity:1;" d="M 4.226562 32.96875 L 6.960938 31.332031 L 6.960938 48.570312 C 6.960938 48.765625 7.121094 48.921875 7.3125 48.921875 L 44.316406 48.921875 C 44.511719 48.921875 44.667969 48.765625 44.667969 48.570312 L 44.667969 31.253906 L 47.554688 32.96875 C 47.609375 33 47.671875 33.015625 47.730469 33.015625 C 47.851562 33.015625 47.96875 32.957031 48.03125 32.84375 C 48.132812 32.679688 48.078125 32.464844 47.910156 32.367188 L 33.714844 23.933594 L 33.714844 15.726562 L 36.644531 17.558594 C 36.703125 17.59375 36.765625 17.613281 36.832031 17.613281 C 36.949219 17.613281 37.0625 17.554688 37.128906 17.449219 C 37.230469 17.285156 37.179688 17.066406 37.015625 16.964844 L 33.550781 14.796875 L 32.070312 13.867188 L 26.1875 10.1875 L 26.1875 5.910156 L 28.351562 5.910156 C 28.542969 5.910156 28.703125 5.753906 28.703125 5.5625 C 28.703125 5.367188 28.542969 5.210938 28.351562 5.210938 L 26.1875 5.210938 L 26.1875 3.210938 C 26.1875 3.015625 26.027344 2.859375 25.835938 2.859375 C 25.640625 2.859375 25.484375 3.015625 25.484375 3.210938 L 25.484375 5.210938 L 23.320312 5.210938 C 23.125 5.210938 22.96875 5.367188 22.96875 5.5625 C 22.96875 5.753906 23.125 5.910156 23.320312 5.910156 L 25.484375 5.910156 L 25.484375 10.234375 L 14.679688 16.890625 C 14.515625 16.992188 14.464844 17.207031 14.566406 17.371094 C 14.667969 17.535156 14.882812 17.585938 15.046875 17.488281 L 17.914062 15.71875 L 17.914062 23.964844 L 3.867188 32.367188 C 3.699219 32.464844 3.644531 32.679688 3.746094 32.847656 C 3.84375 33.011719 4.058594 33.066406 4.226562 32.96875 Z M 25.523438 48.21875 L 22.386719 48.21875 L 22.386719 44.945312 C 22.386719 43.210938 23.792969 41.796875 25.523438 41.785156 Z M 29.363281 48.21875 L 26.226562 48.21875 L 26.226562 41.785156 C 27.957031 41.796875 29.363281 43.210938 29.363281 44.945312 Z M 33.714844 24.785156 L 43.96875 30.914062 L 43.96875 48.21875 L 35.769531 48.21875 L 35.769531 32.546875 L 38.207031 34.003906 C 38.261719 34.039062 38.324219 34.054688 38.386719 34.054688 C 38.503906 34.054688 38.621094 33.992188 38.6875 33.882812 C 38.785156 33.71875 38.730469 33.503906 38.566406 33.402344 L 35.597656 31.628906 L 33.714844 30.5 Z M 18.617188 15.289062 L 25.703125 10.921875 L 25.875 10.816406 L 32.015625 14.660156 L 33.015625 15.285156 L 33.015625 30.082031 L 25.996094 25.882812 C 25.882812 25.816406 25.746094 25.816406 25.636719 25.882812 L 18.617188 30.082031 Z M 21.558594 29.140625 L 25.816406 26.59375 L 30.074219 29.140625 L 35.066406 32.125 L 35.066406 48.21875 L 30.0625 48.21875 L 30.0625 44.945312 C 30.0625 42.816406 28.332031 41.085938 26.203125 41.085938 L 25.546875 41.085938 C 23.417969 41.085938 21.6875 42.816406 21.6875 44.945312 L 21.6875 48.21875 L 16.5625 48.21875 L 16.5625 32.125 Z M 7.664062 30.914062 L 17.914062 24.785156 L 17.914062 30.5 L 16.035156 31.628906 L 13.066406 33.402344 C 12.898438 33.503906 12.84375 33.71875 12.945312 33.882812 C 13.042969 34.050781 13.257812 34.101562 13.425781 34.003906 L 15.863281 32.546875 L 15.863281 48.21875 L 7.664062 48.21875 Z M 7.664062 30.914062 "/></g><path style=" stroke:none;fill-rule:nonzero;fill:#ed796a;fill-opacity:1;" d="M 24.015625 32.964844 L 25.484375 32.964844 L 25.484375 36.113281 C 25.484375 36.308594 25.640625 36.464844 25.835938 36.464844 C 26.027344 36.464844 26.1875 36.308594 26.1875 36.113281 L 26.1875 32.964844 L 27.652344 32.964844 C 27.847656 32.964844 28.003906 32.808594 28.003906 32.613281 C 28.003906 32.421875 27.847656 32.265625 27.652344 32.265625 L 26.1875 32.265625 L 26.1875 30.914062 C 26.1875 30.722656 26.027344 30.566406 25.835938 30.566406 C 25.640625 30.566406 25.484375 30.722656 25.484375 30.914062 L 25.484375 32.265625 L 24.015625 32.265625 C 23.824219 32.265625 23.667969 32.421875 23.667969 32.613281 C 23.667969 32.808594 23.824219 32.964844 24.015625 32.964844 Z M 24.015625 32.964844 "/><path style=" stroke:none;fill-rule:nonzero;fill:#ed796a;fill-opacity:1;" d="M 25.828125 23.398438 C 25.929688 23.398438 26.03125 23.375 26.128906 23.335938 C 26.296875 23.265625 26.460938 23.1875 26.652344 23.078125 C 26.882812 22.949219 27.109375 22.808594 27.320312 22.652344 C 28.640625 21.679688 29.28125 20.570312 29.167969 19.449219 C 29.078125 18.546875 28.351562 17.839844 27.472656 17.796875 C 27.074219 17.78125 26.667969 17.917969 26.292969 18.199219 C 26.117188 18.332031 25.953125 18.484375 25.816406 18.648438 C 25.675781 18.484375 25.515625 18.332031 25.335938 18.199219 C 24.960938 17.917969 24.554688 17.78125 24.160156 17.796875 C 23.28125 17.839844 22.550781 18.546875 22.460938 19.449219 C 22.347656 20.570312 22.988281 21.679688 24.3125 22.652344 C 24.523438 22.808594 24.746094 22.949219 24.976562 23.074219 C 25.171875 23.1875 25.335938 23.265625 25.503906 23.335938 C 25.601562 23.378906 25.707031 23.398438 25.816406 23.398438 C 25.820312 23.398438 25.824219 23.398438 25.828125 23.398438 Z M 25.316406 22.464844 C 25.109375 22.351562 24.914062 22.226562 24.726562 22.089844 C 23.953125 21.519531 23.050781 20.609375 23.160156 19.519531 C 23.214844 18.96875 23.667969 18.523438 24.191406 18.496094 C 24.203125 18.496094 24.214844 18.496094 24.226562 18.496094 C 24.507812 18.496094 24.753906 18.636719 24.914062 18.761719 C 25.105469 18.902344 25.269531 19.066406 25.390625 19.242188 C 25.488281 19.378906 25.648438 19.460938 25.816406 19.460938 C 25.984375 19.460938 26.144531 19.378906 26.242188 19.238281 C 26.363281 19.066406 26.527344 18.902344 26.714844 18.761719 C 26.882812 18.632812 27.148438 18.484375 27.441406 18.496094 C 27.964844 18.523438 28.417969 18.96875 28.472656 19.519531 C 28.582031 20.609375 27.679688 21.519531 26.902344 22.089844 C 26.71875 22.226562 26.519531 22.351562 26.3125 22.464844 C 26.140625 22.5625 26 22.628906 25.859375 22.691406 C 25.84375 22.695312 25.832031 22.699219 25.816406 22.699219 C 25.800781 22.699219 25.789062 22.695312 25.773438 22.691406 C 25.628906 22.628906 25.488281 22.5625 25.316406 22.464844 Z M 25.316406 22.464844 "/></g></svg>