<svg xmlns="http://www.w3.org/2000/svg" xmlns:xlink="http://www.w3.org/1999/xlink" width="70" zoomAndPan="magnify" viewBox="0 0 52.5 52.499999" height="70" preserveAspectRatio="xMidYMid meet" version="1.2"><defs><clipPath id="dbc664f328"><path d="M 9.386719 3.316406 L 42.816406 3.316406 L 42.816406 48.636719 L 9.386719 48.636719 Z M 9.386719 3.316406 "/></clipPath></defs><g id="30082a7628"><g clip-rule="nonzero" clip-path="url(#dbc664f328)"><path style=" stroke:none;fill-rule:nonzero;fill:#ed796a;fill-opacity:1;" d="M 42.183594 3.441406 C 41.929688 3.316406 41.671875 3.375 41.433594 3.636719 C 41.136719 3.957031 40.984375 4.339844 41.03125 4.777344 C 41.046875 4.917969 41.023438 5 40.925781 5.105469 C 40.621094 5.421875 40.339844 5.757812 40.046875 6.085938 C 39.234375 6.996094 38.421875 7.902344 37.613281 8.816406 C 37.53125 8.910156 37.496094 8.917969 37.398438 8.839844 C 36.667969 8.238281 35.839844 8.046875 34.933594 8.320312 C 33.78125 8.667969 32.988281 9.753906 32.957031 10.964844 C 32.945312 11.289062 33.007812 11.597656 33.113281 11.902344 C 33.132812 11.949219 33.160156 12.015625 33.070312 11.992188 C 32.992188 11.972656 32.925781 11.996094 32.855469 12 C 31.851562 12.066406 30.847656 12.148438 29.839844 12.203125 C 28.613281 12.265625 27.386719 12.300781 26.15625 12.316406 C 24.0625 12.34375 21.96875 12.34375 19.875 12.289062 C 18.664062 12.257812 17.453125 12.207031 16.242188 12.121094 C 15.015625 12.039062 13.785156 11.957031 12.558594 11.8125 C 11.785156 11.722656 11.011719 11.617188 10.25 11.457031 C 10.136719 11.433594 10.027344 11.394531 9.917969 11.355469 C 9.878906 11.339844 9.832031 11.320312 9.828125 11.269531 C 9.824219 11.21875 9.871094 11.195312 9.90625 11.167969 C 9.929688 11.15625 9.953125 11.144531 9.976562 11.136719 C 10.355469 10.953125 10.765625 10.863281 11.167969 10.773438 C 12.144531 10.558594 13.136719 10.449219 14.128906 10.351562 C 15.480469 10.21875 16.835938 10.128906 18.191406 10.0625 C 19.679688 9.984375 21.171875 9.945312 22.660156 9.929688 C 25.125 9.902344 27.585938 9.921875 30.046875 10.03125 C 30.613281 10.054688 31.179688 10.097656 31.746094 10.152344 C 32.074219 10.183594 32.402344 10.207031 32.726562 10.242188 C 32.859375 10.253906 32.835938 10.144531 32.855469 10.082031 C 32.878906 9.996094 32.796875 10.027344 32.757812 10.019531 C 31.910156 9.929688 31.058594 9.886719 30.207031 9.84375 C 28.757812 9.777344 27.308594 9.75 25.859375 9.734375 C 24.371094 9.71875 22.882812 9.726562 21.398438 9.753906 C 20.125 9.777344 18.851562 9.824219 17.578125 9.878906 C 16.058594 9.941406 14.542969 10.066406 13.03125 10.238281 C 12.328125 10.320312 11.625 10.414062 10.933594 10.5625 C 10.53125 10.652344 10.125 10.734375 9.753906 10.921875 C 9.425781 11.085938 9.382812 11.265625 9.609375 11.546875 C 9.617188 11.558594 9.628906 11.566406 9.636719 11.578125 C 10.441406 12.59375 11.28125 13.578125 12.109375 14.570312 C 13.503906 16.242188 14.902344 17.902344 16.332031 19.539062 C 17.597656 20.992188 18.886719 22.421875 20.191406 23.835938 C 21.097656 24.8125 22 25.789062 22.988281 26.6875 C 23.050781 26.742188 23.074219 26.8125 23.082031 26.898438 C 23.152344 27.761719 23.253906 28.625 23.324219 29.492188 C 23.410156 30.574219 23.496094 31.660156 23.550781 32.742188 C 23.621094 34.253906 23.660156 35.769531 23.667969 37.28125 C 23.671875 39.21875 23.625 41.160156 23.515625 43.09375 C 23.492188 43.546875 23.476562 44 23.398438 44.445312 C 23.367188 44.625 23.28125 44.734375 23.121094 44.816406 C 22.59375 45.078125 22.03125 45.238281 21.46875 45.390625 C 20.757812 45.582031 20.03125 45.710938 19.328125 45.921875 C 18.820312 46.074219 18.3125 46.222656 17.882812 46.546875 C 17.421875 46.890625 17.429688 47.246094 17.824219 47.585938 C 17.914062 47.660156 18.015625 47.714844 18.121094 47.765625 C 18.582031 47.988281 19.074219 48.113281 19.574219 48.214844 C 20.550781 48.40625 21.535156 48.519531 22.53125 48.570312 C 23.777344 48.636719 25.023438 48.632812 26.269531 48.550781 C 27.570312 48.464844 28.859375 48.265625 30.125 47.9375 C 30.527344 47.832031 30.925781 47.710938 31.265625 47.453125 C 31.609375 47.195312 31.625 46.886719 31.3125 46.59375 C 31.15625 46.449219 30.96875 46.355469 30.78125 46.269531 C 30.144531 45.976562 29.464844 45.824219 28.785156 45.679688 C 28.015625 45.515625 27.238281 45.371094 26.488281 45.132812 C 26.167969 45.03125 25.859375 44.910156 25.582031 44.722656 C 25.503906 44.667969 25.460938 44.601562 25.445312 44.507812 C 25.371094 44.085938 25.34375 43.664062 25.316406 43.238281 C 25.230469 42.082031 25.175781 40.925781 25.144531 39.769531 C 25.066406 36.753906 25.148438 33.746094 25.421875 30.742188 C 25.535156 29.507812 25.714844 28.285156 25.871094 27.058594 C 25.882812 26.972656 25.894531 26.886719 25.964844 26.816406 C 26.636719 26.125 27.253906 25.386719 27.871094 24.648438 C 28.695312 23.660156 29.519531 22.671875 30.335938 21.683594 C 30.898438 21 31.453125 20.3125 32.007812 19.628906 C 32.488281 19.039062 32.964844 18.449219 33.4375 17.859375 C 33.863281 17.328125 34.28125 16.796875 34.703125 16.265625 C 35.113281 15.75 35.511719 15.230469 35.9375 14.730469 C 36.410156 14.167969 36.804688 13.539062 37.429688 13.101562 C 38.011719 12.691406 38.320312 12.046875 38.625 11.417969 C 38.640625 11.382812 38.648438 11.339844 38.660156 11.300781 C 38.695312 11.140625 38.640625 11.003906 38.507812 10.910156 C 38.441406 10.863281 38.417969 10.871094 38.410156 10.953125 C 38.394531 11.121094 38.382812 11.292969 38.339844 11.453125 C 38.121094 12.347656 37.542969 12.957031 36.75 13.378906 C 36.5 13.515625 36.238281 13.601562 36.039062 13.855469 C 35.238281 14.882812 34.402344 15.882812 33.578125 16.894531 C 33.542969 16.9375 33.523438 16.960938 33.488281 16.902344 C 33.441406 16.828125 33.390625 16.765625 33.316406 16.714844 C 33.277344 16.6875 33.273438 16.664062 33.316406 16.621094 C 33.421875 16.515625 33.519531 16.402344 33.621094 16.289062 C 34.359375 15.429688 35.074219 14.546875 35.828125 13.699219 C 35.851562 13.671875 35.878906 13.648438 35.871094 13.59375 C 35.765625 13.597656 35.675781 13.636719 35.605469 13.714844 C 35.496094 13.835938 35.394531 13.964844 35.289062 14.085938 C 34.605469 14.882812 33.921875 15.675781 33.246094 16.472656 C 33.160156 16.574219 33.09375 16.597656 32.964844 16.539062 C 32.386719 16.265625 31.769531 16.144531 31.140625 16.042969 C 31.117188 16.039062 31.082031 16.054688 31.070312 16.023438 C 31.054688 15.984375 31.085938 15.957031 31.109375 15.933594 C 31.246094 15.789062 31.386719 15.644531 31.519531 15.5 C 32.273438 14.675781 33.023438 13.855469 33.769531 13.027344 C 33.839844 12.953125 33.878906 12.953125 33.960938 13.015625 C 34.640625 13.558594 35.410156 13.722656 36.246094 13.496094 C 36.941406 13.304688 37.441406 12.851562 37.808594 12.246094 C 38.335938 11.382812 38.332031 10.308594 37.605469 9.492188 C 37.574219 9.453125 37.554688 9.425781 37.601562 9.382812 C 37.894531 9.105469 38.140625 8.785156 38.410156 8.484375 C 39.140625 7.660156 39.863281 6.832031 40.589844 6.007812 C 40.792969 5.777344 41.003906 5.554688 41.195312 5.316406 C 41.25 5.246094 41.296875 5.222656 41.378906 5.238281 C 41.515625 5.269531 41.648438 5.253906 41.765625 5.1875 C 42.164062 4.960938 42.429688 4.628906 42.511719 4.175781 C 42.574219 3.839844 42.441406 3.570312 42.183594 3.441406 Z M 34.335938 9.140625 C 34.792969 8.78125 35.308594 8.582031 35.953125 8.589844 C 36.425781 8.566406 36.886719 8.757812 37.316406 9.042969 C 37.355469 9.066406 37.382812 9.09375 37.339844 9.132812 C 37.292969 9.179688 37.257812 9.277344 37.160156 9.199219 C 36.996094 9.070312 36.808594 8.976562 36.609375 8.910156 C 35.691406 8.597656 34.652344 8.945312 34.042969 9.703125 C 33.546875 10.308594 33.386719 11.003906 33.503906 11.773438 C 33.511719 11.828125 33.570312 11.917969 33.472656 11.9375 C 33.378906 11.957031 33.386719 11.851562 33.375 11.796875 C 33.117188 10.726562 33.527344 9.785156 34.335938 9.140625 Z M 36.882812 10.234375 C 36.867188 10.359375 36.839844 10.484375 36.757812 10.59375 C 36.726562 10.632812 36.703125 10.648438 36.683594 10.582031 C 36.53125 10.085938 36.191406 9.792969 35.695312 9.660156 C 35.6875 9.65625 35.683594 9.648438 35.675781 9.644531 C 35.871094 9.449219 36.246094 9.398438 36.515625 9.535156 C 36.789062 9.671875 36.925781 9.929688 36.882812 10.234375 Z M 15.53125 17.078125 C 15.445312 17.191406 15.421875 17.324219 15.40625 17.476562 C 13.714844 15.667969 12.132812 13.765625 10.488281 11.917969 C 10.648438 11.882812 10.890625 11.953125 10.992188 12.0625 C 11.972656 13.132812 12.953125 14.203125 13.933594 15.269531 C 14.453125 15.839844 14.976562 16.40625 15.496094 16.976562 C 15.523438 17.003906 15.5625 17.03125 15.53125 17.078125 Z M 15.6875 17.289062 C 15.738281 17.25 15.769531 17.308594 15.796875 17.335938 C 15.949219 17.472656 16.097656 17.613281 16.25 17.753906 C 16.234375 17.769531 16.21875 17.789062 16.203125 17.804688 C 16.019531 17.695312 15.804688 17.625 15.699219 17.414062 C 15.675781 17.371094 15.648438 17.324219 15.6875 17.289062 Z M 27.792969 45.820312 C 28.695312 46.011719 29.613281 46.144531 30.464844 46.535156 C 30.585938 46.589844 30.703125 46.65625 30.796875 46.753906 C 30.933594 46.902344 30.925781 47.050781 30.757812 47.167969 C 30.46875 47.375 30.132812 47.476562 29.792969 47.566406 C 29.066406 47.765625 28.320312 47.871094 27.574219 47.96875 C 26.167969 48.152344 24.753906 48.195312 23.335938 48.15625 C 22.394531 48.128906 21.453125 48.050781 20.519531 47.902344 C 19.984375 47.816406 19.453125 47.714844 18.941406 47.539062 C 18.746094 47.472656 18.558594 47.398438 18.390625 47.273438 C 18.324219 47.226562 18.265625 47.164062 18.230469 47.085938 C 18.1875 46.980469 18.203125 46.894531 18.289062 46.824219 C 18.414062 46.714844 18.558594 46.632812 18.703125 46.5625 C 19.292969 46.265625 19.917969 46.09375 20.5625 45.976562 C 20.675781 45.953125 20.792969 45.914062 20.914062 45.882812 C 20.929688 45.914062 20.914062 45.9375 20.910156 45.960938 C 20.84375 46.195312 20.886719 46.296875 21.109375 46.40625 C 21.285156 46.496094 21.480469 46.527344 21.671875 46.554688 C 23.035156 46.75 24.402344 46.761719 25.773438 46.671875 C 26.332031 46.632812 26.886719 46.589844 27.429688 46.453125 C 27.601562 46.410156 27.753906 46.332031 27.878906 46.207031 C 27.941406 46.144531 27.984375 46.101562 27.859375 46.066406 C 27.75 46.035156 27.769531 45.921875 27.738281 45.847656 C 27.722656 45.8125 27.765625 45.8125 27.792969 45.820312 Z M 25.808594 45.09375 C 26.265625 45.359375 26.761719 45.515625 27.265625 45.652344 C 27.339844 45.671875 27.414062 45.6875 27.480469 45.714844 C 27.546875 45.742188 27.640625 45.746094 27.636719 45.851562 C 27.632812 45.96875 27.613281 46.082031 27.480469 46.132812 C 27.292969 46.203125 27.09375 46.230469 26.898438 46.261719 C 25.761719 46.453125 24.613281 46.488281 23.464844 46.449219 C 22.789062 46.425781 22.113281 46.34375 21.449219 46.191406 C 21.355469 46.167969 21.261719 46.140625 21.183594 46.074219 C 21.070312 45.976562 21.078125 45.886719 21.210938 45.820312 C 21.453125 45.695312 21.71875 45.632812 21.972656 45.546875 C 22.355469 45.421875 22.734375 45.285156 23.078125 45.070312 C 23.195312 44.996094 23.300781 44.90625 23.425781 44.828125 C 23.378906 44.898438 23.335938 44.96875 23.292969 45.035156 C 23.167969 45.234375 23.175781 45.335938 23.339844 45.507812 C 23.523438 45.703125 23.765625 45.773438 24.019531 45.800781 C 24.503906 45.851562 24.976562 45.816406 25.425781 45.613281 C 25.703125 45.488281 25.761719 45.269531 25.582031 45.027344 C 25.546875 44.980469 25.515625 44.933594 25.492188 44.875 C 25.605469 44.9375 25.695312 45.03125 25.808594 45.09375 Z M 25.351562 45.066406 C 25.429688 45.023438 25.445312 45.097656 25.460938 45.136719 C 25.492188 45.214844 25.539062 45.304688 25.421875 45.351562 C 25.253906 45.425781 25.070312 45.464844 24.886719 45.496094 C 24.726562 45.519531 24.5625 45.523438 24.363281 45.527344 C 24.148438 45.527344 23.902344 45.515625 23.660156 45.449219 C 23.597656 45.433594 23.535156 45.410156 23.476562 45.378906 C 23.347656 45.304688 23.335938 45.097656 23.453125 45.007812 C 23.476562 44.992188 23.492188 44.992188 23.511719 45.007812 C 23.800781 45.214844 24.140625 45.234375 24.476562 45.234375 C 24.777344 45.234375 25.074219 45.210938 25.351562 45.066406 Z M 25.433594 27.757812 C 25.3125 28.621094 25.230469 29.488281 25.171875 30.363281 C 25.089844 31.574219 25.027344 32.789062 24.96875 34 C 24.878906 35.933594 24.855469 37.871094 24.894531 39.804688 C 24.914062 40.84375 25 41.886719 25.089844 42.921875 C 25.136719 43.429688 25.167969 43.941406 25.203125 44.449219 C 25.210938 44.582031 25.230469 44.714844 25.289062 44.835938 C 25.3125 44.882812 25.3125 44.902344 25.253906 44.914062 C 24.820312 45.015625 24.382812 45.074219 23.941406 44.957031 C 23.894531 44.945312 23.847656 44.933594 23.800781 44.914062 C 23.574219 44.824219 23.5625 44.8125 23.578125 44.574219 C 23.71875 42.585938 23.78125 40.59375 23.808594 38.601562 C 23.835938 36.667969 23.828125 34.734375 23.773438 32.796875 C 23.746094 31.726562 23.699219 30.652344 23.652344 29.578125 C 23.628906 28.976562 23.574219 28.375 23.507812 27.777344 C 23.484375 27.570312 23.46875 27.363281 23.441406 27.109375 C 24.117188 27.734375 24.796875 27.746094 25.515625 27.210938 C 25.484375 27.414062 25.460938 27.585938 25.433594 27.757812 Z M 31.363281 19.609375 C 29.980469 21.351562 28.601562 23.089844 27.214844 24.828125 C 26.757812 25.394531 26.332031 25.984375 25.84375 26.527344 C 25.492188 26.921875 25.054688 27.183594 24.503906 27.199219 C 24.097656 27.210938 23.773438 27.007812 23.476562 26.761719 C 23 26.367188 22.601562 25.894531 22.195312 25.429688 C 21.128906 24.214844 20.074219 22.996094 19.011719 21.78125 C 18.03125 20.660156 17.070312 19.527344 16.113281 18.394531 C 15.992188 18.253906 15.859375 18.121094 15.746094 17.964844 C 15.875 18.019531 16.011719 18.066406 16.136719 18.128906 C 16.925781 18.523438 17.777344 18.679688 18.636719 18.8125 C 19.984375 19.019531 21.34375 19.085938 22.707031 19.121094 C 22.820312 19.125 22.9375 19.121094 23.0625 19.121094 C 22.933594 19.078125 22.808594 19.074219 22.683594 19.0625 C 21.8125 18.996094 20.945312 18.898438 20.082031 18.769531 C 19.097656 18.625 18.125 18.4375 17.175781 18.144531 C 17.042969 18.105469 16.90625 18.058594 16.773438 18.011719 C 16.667969 17.976562 16.578125 17.917969 16.507812 17.824219 C 16.351562 17.617188 16.144531 17.457031 15.980469 17.261719 C 15.878906 17.136719 15.878906 17.132812 16.015625 17.058594 C 16.519531 16.792969 17.054688 16.609375 17.605469 16.46875 C 18.476562 16.246094 19.371094 16.128906 20.261719 16.015625 C 21.910156 15.804688 23.566406 15.703125 25.226562 15.730469 C 26.363281 15.75 27.496094 15.808594 28.625 15.929688 C 29.199219 15.992188 29.769531 16.0625 30.339844 16.148438 C 30.363281 16.152344 30.398438 16.144531 30.410156 16.171875 C 30.425781 16.210938 30.386719 16.226562 30.367188 16.246094 C 29.804688 16.855469 29.238281 17.464844 28.675781 18.074219 C 28.449219 18.316406 28.230469 18.566406 28.011719 18.820312 C 27.929688 18.914062 27.820312 18.902344 27.722656 18.917969 C 27.4375 18.957031 27.148438 18.980469 26.863281 19.007812 C 26.863281 19.011719 26.863281 19.011719 26.863281 19.011719 L 27.785156 19.011719 C 27.804688 19.039062 27.773438 19.054688 27.757812 19.070312 C 27.246094 19.601562 26.753906 20.152344 26.261719 20.699219 C 26.351562 20.757812 26.445312 20.816406 26.539062 20.878906 C 26.960938 20.425781 27.382812 19.964844 27.804688 19.511719 C 27.949219 19.355469 28.097656 19.199219 28.242188 19.042969 C 28.292969 18.988281 28.363281 18.980469 28.433594 18.972656 C 29.484375 18.886719 30.523438 18.757812 31.542969 18.492188 C 31.839844 18.414062 32.132812 18.332031 32.410156 18.195312 C 32.433594 18.183594 32.457031 18.171875 32.488281 18.1875 C 32.113281 18.660156 31.738281 19.136719 31.363281 19.609375 Z M 33 17.046875 C 33.089844 16.941406 33.105469 16.945312 33.15625 17.066406 C 33.246094 17.261719 33.246094 17.285156 33.078125 17.425781 C 32.855469 17.613281 32.601562 17.738281 32.316406 17.84375 C 32.355469 17.738281 32.433594 17.691406 32.488281 17.625 C 32.65625 17.429688 32.828125 17.238281 33 17.046875 Z M 32.757812 16.765625 C 32.9375 16.855469 32.933594 16.851562 32.808594 17 C 32.585938 17.25 32.363281 17.503906 32.148438 17.765625 C 32 17.941406 31.820312 18.050781 31.597656 18.117188 C 30.691406 18.382812 29.769531 18.601562 28.832031 18.753906 C 28.71875 18.773438 28.605469 18.785156 28.488281 18.796875 C 28.59375 18.65625 28.722656 18.542969 28.835938 18.414062 C 29.484375 17.703125 30.136719 16.996094 30.785156 16.285156 C 30.824219 16.242188 30.863281 16.226562 30.914062 16.238281 C 31.542969 16.359375 32.175781 16.480469 32.757812 16.765625 Z M 37.9375 11.652344 C 37.871094 11.746094 37.789062 11.746094 37.722656 11.769531 C 37.199219 11.9375 36.675781 12.101562 36.128906 12.171875 C 35.582031 12.238281 35.035156 12.296875 34.488281 12.34375 C 34.164062 12.367188 33.84375 12.402344 33.519531 12.4375 C 33.488281 12.441406 33.441406 12.429688 33.429688 12.46875 C 33.414062 12.511719 33.453125 12.53125 33.480469 12.554688 C 33.605469 12.675781 33.613281 12.691406 33.484375 12.835938 C 33.203125 13.15625 32.910156 13.464844 32.625 13.777344 C 32 14.464844 31.375 15.148438 30.75 15.835938 C 30.6875 15.90625 30.625 15.933594 30.519531 15.917969 C 29.332031 15.726562 28.128906 15.617188 26.925781 15.558594 C 25.605469 15.496094 24.28125 15.492188 22.960938 15.539062 C 22.0625 15.574219 21.164062 15.640625 20.269531 15.753906 C 19.136719 15.898438 18.011719 16.089844 16.914062 16.417969 C 16.519531 16.535156 16.128906 16.667969 15.777344 16.890625 C 15.714844 16.925781 15.6875 16.914062 15.640625 16.867188 C 15.363281 16.601562 15.109375 16.3125 14.847656 16.027344 C 14.035156 15.152344 13.226562 14.277344 12.417969 13.398438 C 12.007812 12.953125 11.601562 12.503906 11.191406 12.054688 C 11.183594 12.042969 11.179688 12.03125 11.167969 12 C 11.320312 12.019531 11.460938 12.035156 11.601562 12.058594 C 12.175781 12.148438 12.753906 12.199219 13.332031 12.261719 C 14.363281 12.371094 15.398438 12.429688 16.433594 12.492188 C 17.253906 12.542969 18.074219 12.578125 18.894531 12.605469 C 21.351562 12.6875 23.808594 12.703125 26.269531 12.660156 C 27.851562 12.628906 29.433594 12.574219 31.015625 12.46875 C 32.21875 12.390625 33.421875 12.308594 34.621094 12.179688 C 35.542969 12.078125 36.46875 12 37.371094 11.785156 C 37.550781 11.742188 37.730469 11.699219 37.9375 11.652344 Z M 41.671875 4.976562 C 41.621094 5.015625 41.5625 5.035156 41.5 5.042969 C 41.363281 5.066406 41.28125 5.007812 41.257812 4.871094 C 41.238281 4.769531 41.253906 4.667969 41.277344 4.566406 C 41.34375 4.273438 41.5 4.023438 41.703125 3.800781 C 41.792969 3.703125 41.902344 3.652344 42.035156 3.703125 C 42.136719 3.742188 42.191406 3.855469 42.191406 4.0625 C 42.148438 4.40625 41.976562 4.726562 41.671875 4.976562 Z M 41.671875 4.976562 "/></g><path style=" stroke:none;fill-rule:nonzero;fill:#ed796a;fill-opacity:1;" d="M 20.875 23.109375 C 21.320312 23.5 21.785156 23.863281 22.273438 24.191406 C 22.789062 24.535156 23.324219 24.847656 23.941406 24.988281 C 24.730469 25.167969 25.460938 24.992188 26.148438 24.597656 C 26.855469 24.191406 27.457031 23.652344 28.03125 23.085938 C 28.210938 22.910156 28.398438 22.734375 28.585938 22.5625 C 28.488281 22.683594 28.390625 22.808594 28.289062 22.925781 C 27.796875 23.496094 27.304688 24.066406 26.722656 24.550781 C 26.195312 24.988281 25.613281 25.3125 24.9375 25.445312 C 24.289062 25.570312 23.710938 25.382812 23.15625 25.074219 C 22.277344 24.585938 21.566406 23.90625 20.898438 23.171875 C 20.886719 23.15625 20.863281 23.144531 20.875 23.109375 Z M 20.875 23.109375 "/><path style=" stroke:none;fill-rule:nonzero;fill:#ed796a;fill-opacity:1;" d="M 22.089844 24.695312 C 22.558594 25.058594 23.007812 25.398438 23.53125 25.621094 C 24.40625 25.996094 25.226562 25.875 26.003906 25.351562 C 26.5 25.019531 26.925781 24.605469 27.351562 24.191406 C 27.382812 24.160156 27.414062 24.125 27.445312 24.09375 C 27.449219 24.089844 27.460938 24.089844 27.492188 24.078125 C 27.378906 24.277344 27.253906 24.449219 27.117188 24.613281 C 26.839844 24.957031 26.574219 25.316406 26.25 25.617188 C 25.492188 26.320312 24.449219 26.574219 23.46875 25.960938 C 23.039062 25.6875 22.34375 25.074219 22.089844 24.695312 Z M 22.089844 24.695312 "/><path style=" stroke:none;fill-rule:nonzero;fill:#ed796a;fill-opacity:1;" d="M 23.839844 44.433594 C 23.847656 44.445312 23.851562 44.457031 23.851562 44.464844 C 23.851562 44.808594 23.867188 44.824219 24.210938 44.855469 C 24.453125 44.875 24.695312 44.882812 24.9375 44.835938 C 24.671875 44.917969 24.402344 44.9375 24.128906 44.894531 C 23.742188 44.835938 23.761719 44.859375 23.824219 44.449219 C 23.824219 44.445312 23.832031 44.441406 23.839844 44.433594 Z M 23.839844 44.433594 "/><path style=" stroke:none;fill-rule:nonzero;fill:#ed796a;fill-opacity:1;" d="M 33.695312 12.265625 C 34.480469 12.394531 35.292969 12.351562 36.0625 12.132812 C 36.273438 12.074219 36.484375 12 36.6875 11.914062 C 36.710938 11.902344 36.671875 11.867188 36.652344 11.875 C 35.929688 12.179688 35.136719 12.324219 34.355469 12.292969 C 34.132812 12.285156 33.910156 12.261719 33.691406 12.222656 C 33.65625 12.21875 33.671875 12.261719 33.695312 12.265625 Z M 33.695312 12.265625 "/><path style=" stroke:none;fill-rule:nonzero;fill:#ed796a;fill-opacity:1;" d="M 33.609375 12.453125 C 34.246094 12.507812 34.898438 12.472656 35.5 12.246094 C 35.621094 12.199219 35.609375 12.011719 35.46875 12.011719 C 35.039062 12 34.609375 11.988281 34.183594 11.980469 C 34.027344 11.976562 34.027344 12.214844 34.183594 12.21875 C 34.609375 12.230469 35.039062 12.238281 35.46875 12.25 C 35.457031 12.171875 35.445312 12.09375 35.433594 12.015625 C 34.851562 12.234375 34.226562 12.265625 33.609375 12.214844 C 33.457031 12.199219 33.457031 12.441406 33.609375 12.453125 Z M 33.609375 12.453125 "/><path style=" stroke:none;fill-rule:nonzero;fill:#ed796a;fill-opacity:1;" d="M 33.792969 12.34375 C 33.789062 12.34375 33.765625 12.34375 33.785156 12.347656 C 33.804688 12.347656 33.785156 12.34375 33.78125 12.34375 C 33.757812 12.335938 33.785156 12.347656 33.785156 12.347656 C 33.785156 12.347656 33.761719 12.328125 33.777344 12.34375 C 33.792969 12.355469 33.777344 12.34375 33.773438 12.339844 C 33.757812 12.324219 33.777344 12.335938 33.777344 12.34375 C 33.777344 12.339844 33.769531 12.328125 33.769531 12.328125 C 33.773438 12.34375 33.777344 12.347656 33.773438 12.339844 C 33.769531 12.335938 33.769531 12.332031 33.769531 12.328125 C 33.753906 12.269531 33.683594 12.226562 33.621094 12.246094 C 33.558594 12.265625 33.519531 12.328125 33.539062 12.390625 C 33.570312 12.503906 33.675781 12.585938 33.792969 12.585938 C 33.855469 12.582031 33.917969 12.53125 33.914062 12.464844 C 33.910156 12.402344 33.859375 12.34375 33.792969 12.34375 Z M 33.792969 12.34375 "/><path style=" stroke:none;fill-rule:nonzero;fill:#ed796a;fill-opacity:1;" d="M 33.574219 11.675781 C 33.515625 11.878906 33.421875 12.125 33.429688 12.335938 C 33.433594 12.554688 33.65625 12.605469 33.816406 12.679688 C 33.957031 12.742188 34.078125 12.539062 33.9375 12.472656 C 33.871094 12.441406 33.804688 12.414062 33.738281 12.382812 C 33.648438 12.339844 33.671875 12.289062 33.691406 12.199219 C 33.722656 12.046875 33.761719 11.890625 33.804688 11.738281 C 33.84375 11.589844 33.613281 11.527344 33.574219 11.675781 Z M 33.574219 11.675781 "/><path style=" stroke:none;fill-rule:nonzero;fill:#ed796a;fill-opacity:1;" d="M 33.761719 12.648438 C 33.640625 12.398438 33.585938 12.191406 33.671875 11.921875 C 33.746094 11.691406 33.84375 11.472656 33.933594 11.25 C 33.992188 11.109375 33.757812 11.046875 33.703125 11.1875 C 33.597656 11.449219 33.460938 11.714844 33.40625 11.992188 C 33.347656 12.277344 33.433594 12.515625 33.554688 12.769531 C 33.625 12.910156 33.828125 12.789062 33.761719 12.648438 Z M 33.761719 12.648438 "/><path style=" stroke:none;fill-rule:nonzero;fill:#ed796a;fill-opacity:1;" d="M 33.699219 11.953125 C 33.675781 11.703125 33.714844 11.464844 33.808594 11.230469 C 33.867188 11.089844 33.636719 11.027344 33.578125 11.167969 C 33.476562 11.417969 33.4375 11.683594 33.460938 11.953125 C 33.472656 12.105469 33.714844 12.109375 33.699219 11.953125 Z M 33.699219 11.953125 "/><path style=" stroke:none;fill-rule:nonzero;fill:#ed796a;fill-opacity:1;" d="M 33.6875 11.972656 C 33.671875 11.671875 33.707031 11.378906 33.792969 11.089844 C 33.835938 10.941406 33.605469 10.878906 33.5625 11.027344 C 33.472656 11.335938 33.433594 11.652344 33.449219 11.972656 C 33.457031 12.128906 33.695312 12.128906 33.6875 11.972656 Z M 33.6875 11.972656 "/><path style=" stroke:none;fill-rule:nonzero;fill:#ed796a;fill-opacity:1;" d="M 35.097656 11.992188 C 34.710938 11.992188 34.332031 12.046875 33.960938 12.15625 C 33.828125 12.195312 33.863281 12.382812 33.996094 12.390625 C 34.550781 12.4375 35.109375 12.398438 35.652344 12.277344 C 35.917969 12.21875 36.179688 12.140625 36.433594 12.039062 C 36.695312 11.941406 36.949219 11.78125 37.234375 11.773438 C 37.214844 11.699219 37.195312 11.625 37.175781 11.550781 C 36.789062 11.722656 36.402344 11.894531 36.011719 12.066406 C 35.902344 12.113281 35.960938 12.292969 36.074219 12.289062 C 36.5625 12.273438 37.019531 12.101562 37.402344 11.796875 C 37.335938 11.757812 37.265625 11.71875 37.199219 11.679688 C 37.15625 11.804688 37.054688 11.878906 36.929688 11.90625 C 36.949219 11.984375 36.972656 12.0625 36.992188 12.140625 C 37.3125 12.066406 37.601562 11.886719 37.800781 11.625 C 37.738281 11.578125 37.675781 11.527344 37.613281 11.480469 C 37.59375 11.519531 37.574219 11.5625 37.554688 11.601562 C 37.519531 11.679688 37.5625 11.785156 37.660156 11.785156 C 37.851562 11.777344 38.015625 11.648438 38.050781 11.453125 C 38.078125 11.304688 37.847656 11.238281 37.820312 11.390625 C 37.804688 11.476562 37.753906 11.539062 37.660156 11.542969 C 37.691406 11.605469 37.726562 11.664062 37.761719 11.722656 C 37.78125 11.683594 37.800781 11.640625 37.820312 11.601562 C 37.875 11.488281 37.722656 11.339844 37.632812 11.457031 C 37.453125 11.6875 37.214844 11.84375 36.929688 11.90625 C 36.777344 11.941406 36.84375 12.171875 36.992188 12.140625 C 37.203125 12.09375 37.359375 11.945312 37.433594 11.742188 C 37.476562 11.621094 37.3125 11.5625 37.230469 11.628906 C 36.902344 11.890625 36.496094 12.039062 36.074219 12.050781 C 36.09375 12.125 36.113281 12.199219 36.132812 12.273438 C 36.523438 12.101562 36.910156 11.929688 37.296875 11.757812 C 37.40625 11.707031 37.347656 11.527344 37.234375 11.53125 C 36.964844 11.542969 36.734375 11.660156 36.488281 11.761719 C 36.226562 11.871094 35.957031 11.957031 35.679688 12.023438 C 35.128906 12.160156 34.558594 12.199219 33.996094 12.152344 C 34.003906 12.230469 34.015625 12.308594 34.027344 12.386719 C 34.375 12.28125 34.730469 12.230469 35.097656 12.234375 C 35.25 12.234375 35.25 11.996094 35.097656 11.992188 Z M 35.097656 11.992188 "/></g></svg>