<svg xmlns="http://www.w3.org/2000/svg" xmlns:xlink="http://www.w3.org/1999/xlink" width="70" zoomAndPan="magnify" viewBox="0 0 52.5 52.499999" height="70" preserveAspectRatio="xMidYMid meet" version="1.2"><defs><clipPath id="8b653c81bc"><path d="M 13.160156 1.828125 L 39 1.828125 L 39 50.117188 L 13.160156 50.117188 Z M 13.160156 1.828125 "/></clipPath></defs><g id="effcf70bac"><g clip-rule="nonzero" clip-path="url(#8b653c81bc)"><path style=" stroke:none;fill-rule:nonzero;fill:#ed796a;fill-opacity:1;" d="M 16.566406 9.5 C 16.441406 8.429688 17.175781 7.695312 18.027344 7.421875 C 18.421875 7.296875 18.808594 7.132812 19.136719 6.875 C 19.367188 6.699219 19.621094 6.582031 19.898438 6.527344 C 20.035156 6.496094 20.160156 6.515625 20.277344 6.59375 C 20.441406 6.699219 20.59375 6.824219 20.75 6.941406 C 20.789062 6.96875 20.828125 7 20.835938 7.039062 C 20.921875 7.328125 21.203125 7.375 21.445312 7.519531 C 21.425781 7.367188 21.414062 7.203125 21.394531 7.046875 C 21.386719 7.007812 21.347656 6.96875 21.320312 6.949219 C 21.058594 6.796875 20.953125 6.546875 20.894531 6.265625 C 20.847656 6.015625 20.769531 5.761719 20.71875 5.503906 C 20.691406 5.375 20.613281 5.320312 20.5 5.300781 C 20.335938 5.269531 20.21875 5.164062 20.171875 5.027344 C 20.0625 4.757812 20.015625 4.46875 20.101562 4.179688 C 20.132812 4.09375 20.199219 4.015625 20.257812 3.949219 C 20.488281 3.707031 20.71875 3.472656 20.953125 3.234375 C 21.40625 2.761719 21.890625 2.34375 22.496094 2.074219 C 22.84375 1.929688 23.210938 1.871094 23.578125 1.851562 C 23.859375 1.832031 24.109375 1.929688 24.285156 2.160156 C 24.292969 2.179688 24.3125 2.199219 24.332031 2.199219 C 24.484375 2.230469 24.640625 2.257812 24.796875 2.277344 C 24.941406 2.304688 25.105469 2.296875 25.238281 2.355469 C 25.742188 2.566406 26.070312 2.941406 26.136719 3.503906 C 26.195312 3.996094 26.253906 4.496094 26.3125 4.992188 C 26.332031 5.117188 26.332031 5.25 26.378906 5.375 C 26.464844 5.636719 26.464844 5.898438 26.457031 6.160156 C 26.445312 6.304688 26.515625 6.34375 26.660156 6.34375 C 26.890625 6.332031 27.121094 6.332031 27.34375 6.363281 C 27.652344 6.398438 27.953125 6.476562 28.253906 6.546875 C 28.269531 6.546875 28.28125 6.546875 28.300781 6.554688 C 28.617188 6.554688 28.9375 6.546875 29.246094 6.554688 C 29.507812 6.5625 29.75 6.546875 30 6.457031 C 30.261719 6.371094 30.539062 6.324219 30.8125 6.285156 C 30.90625 6.273438 31.023438 6.332031 31.121094 6.371094 C 31.195312 6.398438 31.265625 6.4375 31.34375 6.488281 C 31.785156 6.738281 32.132812 7.085938 32.453125 7.480469 C 32.5 7.550781 32.558594 7.617188 32.597656 7.683594 C 32.761719 7.945312 32.992188 8.136719 33.3125 8.214844 C 33.339844 8.128906 33.371094 8.042969 33.398438 7.953125 C 33.457031 7.753906 33.523438 7.558594 33.574219 7.355469 C 33.59375 7.289062 33.574219 7.203125 33.535156 7.132812 C 33.476562 7.027344 33.398438 6.941406 33.332031 6.855469 C 33.148438 6.601562 33.082031 6.324219 33.15625 6.015625 C 33.214844 5.773438 33.261719 5.53125 33.300781 5.289062 C 33.3125 5.261719 33.292969 5.222656 33.28125 5.191406 C 33.226562 5.066406 33.167969 4.941406 33.109375 4.816406 C 33.023438 4.632812 33.0625 4.515625 33.234375 4.351562 C 33.378906 4.21875 33.515625 4.1875 33.667969 4.296875 C 33.8125 4.390625 33.929688 4.527344 34.074219 4.660156 C 34.179688 4.605469 34.324219 4.527344 34.460938 4.449219 C 34.46875 4.441406 34.480469 4.429688 34.480469 4.421875 C 34.578125 4.167969 34.789062 4.042969 35.039062 3.976562 C 35.15625 3.9375 35.261719 3.910156 35.378906 3.878906 C 35.503906 3.851562 35.628906 3.851562 35.726562 3.96875 C 35.8125 4.074219 35.839844 4.199219 35.785156 4.332031 C 35.785156 4.34375 35.773438 4.351562 35.773438 4.351562 C 35.8125 4.507812 35.824219 4.660156 35.785156 4.828125 C 35.785156 4.835938 35.8125 4.863281 35.832031 4.875 C 36.042969 4.953125 36.074219 5.136719 36.082031 5.320312 C 36.082031 5.425781 36.101562 5.492188 36.179688 5.578125 C 36.246094 5.648438 36.285156 5.761719 36.285156 5.859375 C 36.296875 6.121094 36.296875 6.390625 36.277344 6.652344 C 36.265625 6.785156 36.199219 6.910156 36.160156 7.039062 C 36.316406 7.144531 36.480469 7.257812 36.632812 7.375 C 36.882812 7.558594 37.019531 7.808594 37.066406 8.128906 C 37.136719 8.621094 37.242188 9.105469 37.328125 9.585938 C 37.378906 9.886719 37.464844 10.175781 37.472656 10.476562 C 37.503906 11.035156 37.308594 11.539062 36.941406 11.960938 C 36.835938 12.085938 36.664062 12.183594 36.507812 12.222656 C 35.792969 12.398438 35.058594 12.40625 34.335938 12.308594 C 34.230469 12.289062 34.132812 12.25 34.015625 12.214844 C 33.910156 12.492188 33.785156 12.773438 33.6875 13.0625 C 33.554688 13.457031 33.339844 13.796875 33.003906 14.046875 C 32.972656 14.066406 32.953125 14.117188 32.953125 14.144531 C 33.050781 14.695312 33.175781 15.234375 33.253906 15.785156 C 33.417969 16.847656 33.542969 17.917969 33.707031 18.992188 C 33.792969 19.550781 33.957031 20.101562 34.046875 20.664062 C 34.191406 21.570312 34.304688 22.488281 34.453125 23.394531 C 34.519531 23.800781 34.394531 24.128906 34.132812 24.429688 C 34.035156 24.542969 34.007812 24.648438 34.015625 24.796875 C 34.046875 25.289062 34.046875 25.789062 34.046875 26.28125 C 34.035156 27.007812 34.015625 27.730469 33.988281 28.453125 C 33.976562 28.617188 33.988281 28.78125 33.871094 28.929688 C 33.851562 28.957031 33.871094 29.023438 33.890625 29.074219 C 33.996094 29.421875 34.140625 29.75 34.21875 30.105469 C 34.433594 31.03125 34.847656 31.882812 35.214844 32.75 C 35.601562 33.667969 35.988281 34.585938 36.246094 35.550781 C 36.316406 35.804688 36.421875 36.054688 36.546875 36.285156 C 36.914062 37.011719 37.300781 37.714844 37.667969 38.429688 C 38.128906 39.347656 38.265625 40.300781 37.957031 41.296875 C 37.839844 41.65625 37.851562 41.984375 37.945312 42.339844 C 38.054688 42.726562 38.285156 43.054688 38.476562 43.402344 C 38.554688 43.539062 38.632812 43.671875 38.699219 43.816406 C 38.804688 44.050781 38.804688 44.300781 38.691406 44.523438 C 38.585938 44.726562 38.46875 44.945312 38.292969 45.101562 C 37.445312 45.875 36.488281 46.433594 35.320312 46.539062 C 34.90625 46.578125 34.488281 46.570312 34.074219 46.609375 C 33.832031 46.628906 33.582031 46.695312 33.351562 46.773438 C 33.0625 46.867188 32.839844 47.070312 32.714844 47.351562 C 32.511719 47.816406 32.152344 48.035156 31.691406 48.152344 C 30.90625 48.347656 30.136719 48.367188 29.34375 48.144531 C 29.082031 48.066406 28.785156 48.074219 28.503906 48.074219 C 27.914062 48.085938 27.34375 48.171875 26.792969 48.375 C 26.484375 48.492188 26.214844 48.675781 26.023438 48.945312 C 25.585938 49.5625 24.941406 49.8125 24.246094 49.957031 C 24.03125 50.007812 23.808594 49.96875 23.597656 49.976562 C 23.144531 49.996094 22.691406 50.046875 22.226562 50.054688 C 21.484375 50.074219 20.738281 50.113281 19.996094 50.085938 C 19.28125 50.054688 18.585938 49.871094 17.9375 49.554688 C 17.5625 49.359375 17.226562 49.117188 16.945312 48.800781 C 16.578125 48.394531 16.539062 48.105469 16.800781 47.535156 C 16.859375 47.417969 16.945312 47.3125 17.011719 47.207031 C 17.070312 47.121094 17.136719 47.042969 17.1875 46.945312 C 17.300781 46.742188 17.226562 46.5 17.003906 46.445312 C 16.761719 46.375 16.511719 46.335938 16.257812 46.316406 C 15.875 46.289062 15.507812 46.191406 15.140625 46.066406 C 14.917969 45.988281 14.722656 45.84375 14.570312 45.660156 C 14.386719 45.421875 14.164062 45.226562 13.902344 45.074219 C 13.449219 44.8125 13.257812 44.378906 13.207031 43.867188 C 13.160156 43.316406 13.304688 42.824219 13.535156 42.332031 C 13.882812 41.617188 14.433594 41.074219 15.03125 40.574219 C 15.4375 40.234375 15.835938 39.878906 16.230469 39.519531 C 16.367188 39.394531 16.480469 39.25 16.585938 39.105469 C 17.15625 38.351562 17.582031 37.53125 17.804688 36.613281 C 17.976562 35.910156 18.121094 35.203125 18.296875 34.507812 C 18.546875 33.484375 18.894531 32.5 19.417969 31.582031 C 19.425781 31.574219 19.425781 31.554688 19.4375 31.523438 C 19.242188 31.5625 19.058594 31.601562 18.875 31.640625 C 18.304688 31.757812 17.746094 31.765625 17.175781 31.652344 C 16.558594 31.535156 15.988281 30.984375 15.910156 30.425781 C 15.882812 30.210938 15.882812 29.988281 15.910156 29.777344 C 15.96875 29.3125 15.835938 28.957031 15.417969 28.707031 C 15.109375 28.511719 14.839844 28.28125 14.65625 27.953125 C 14.28125 27.285156 14.144531 26.601562 14.425781 25.867188 C 14.589844 25.441406 14.761719 25.015625 14.886719 24.582031 C 15.050781 24.023438 15.179688 23.441406 15.3125 22.875 C 15.488281 22.109375 15.582031 21.328125 15.621094 20.546875 C 15.632812 20.246094 15.5625 19.9375 15.515625 19.636719 C 15.476562 19.359375 15.429688 19.070312 15.359375 18.789062 C 15.285156 18.488281 15.207031 18.179688 15.089844 17.890625 C 14.90625 17.4375 14.917969 16.964844 14.925781 16.492188 C 14.9375 16.238281 14.925781 15.980469 14.9375 15.726562 C 14.957031 15.304688 15.070312 14.90625 15.214844 14.511719 C 15.4375 13.875 15.652344 13.238281 15.707031 12.5625 C 15.765625 11.894531 15.855469 11.238281 15.804688 10.570312 C 15.765625 10 15.960938 9.703125 16.5 9.480469 C 16.539062 9.519531 16.558594 9.507812 16.566406 9.5 Z M 14.5 44.964844 C 15.496094 43.316406 16.597656 41.742188 17.5625 40.070312 C 17.582031 40.148438 17.582031 40.214844 17.574219 40.285156 C 17.503906 40.777344 17.3125 41.230469 17.089844 41.664062 C 16.566406 42.699219 15.863281 43.613281 15.148438 44.523438 C 14.996094 44.714844 14.839844 44.910156 14.667969 45.128906 C 14.886719 45.292969 15.070312 45.476562 15.292969 45.574219 C 15.582031 45.691406 15.910156 45.738281 16.21875 45.816406 C 16.480469 45.875 16.75 45.902344 17.011719 45.980469 C 17.15625 46.019531 17.273438 46.117188 17.417969 46.191406 C 17.503906 45.84375 17.609375 45.496094 17.6875 45.148438 C 17.910156 44.183594 18.132812 43.21875 18.324219 42.242188 C 18.625 40.726562 18.875 39.203125 19.175781 37.695312 C 19.5625 35.773438 20.257812 33.929688 20.835938 32.066406 C 20.847656 32.027344 20.875 32 20.894531 31.96875 C 20.921875 32.007812 20.921875 32.027344 20.921875 32.054688 C 20.835938 32.566406 20.769531 33.078125 20.644531 33.582031 C 20.042969 35.917969 19.582031 38.273438 19.222656 40.660156 C 19.058594 41.722656 18.90625 42.785156 18.597656 43.816406 C 18.34375 44.675781 18.046875 45.527344 17.773438 46.386719 C 17.660156 46.753906 17.503906 47.089844 17.273438 47.398438 C 17.214844 47.476562 17.15625 47.5625 17.128906 47.660156 C 17.070312 47.863281 17.011719 48.085938 17.1875 48.257812 C 17.609375 48.695312 18.09375 49.03125 18.671875 49.214844 C 18.992188 49.3125 19.320312 49.410156 19.648438 49.457031 C 20.429688 49.582031 21.222656 49.554688 22.003906 49.515625 C 22.640625 49.484375 23.269531 49.4375 23.90625 49.535156 C 24.0625 49.554688 24.234375 49.535156 24.378906 49.496094 C 24.621094 49.425781 24.871094 49.339844 25.09375 49.226562 C 25.257812 49.136719 25.414062 48.992188 25.539062 48.847656 C 25.617188 48.761719 25.625 48.625 25.675781 48.519531 C 25.894531 48.039062 26.117188 47.554688 26.351562 47.082031 C 26.917969 45.921875 27.382812 44.714844 27.691406 43.460938 C 27.960938 42.359375 28.136719 41.238281 28.058594 40.101562 C 27.972656 38.914062 27.835938 37.734375 27.722656 36.546875 C 27.710938 36.441406 27.703125 36.34375 27.691406 36.238281 C 27.703125 36.238281 27.722656 36.226562 27.730469 36.226562 C 27.742188 36.257812 27.757812 36.285156 27.769531 36.316406 C 27.828125 36.5 27.894531 36.679688 27.953125 36.875 C 28.203125 37.753906 28.339844 38.652344 28.472656 39.550781 C 28.601562 40.339844 28.648438 41.132812 28.542969 41.925781 C 28.339844 43.519531 27.855469 45.035156 27.132812 46.472656 C 26.851562 47.011719 26.542969 47.535156 26.253906 48.074219 C 26.234375 48.105469 26.222656 48.132812 26.195312 48.191406 C 26.679688 47.902344 27.171875 47.757812 27.683594 47.671875 C 28.308594 47.574219 28.929688 47.507812 29.554688 47.679688 C 30.039062 47.816406 30.53125 47.835938 31.015625 47.746094 C 31.304688 47.699219 31.582031 47.632812 31.855469 47.535156 C 32.09375 47.449219 32.171875 47.273438 32.152344 47.023438 C 32.144531 46.945312 32.144531 46.878906 32.144531 46.800781 C 32.132812 46.222656 32.152344 45.640625 32.125 45.0625 C 32.054688 43.683594 31.960938 42.300781 32.019531 40.921875 C 32.019531 40.882812 32.027344 40.832031 32.027344 40.777344 C 32.066406 40.796875 32.074219 40.804688 32.085938 40.8125 C 32.402344 42.773438 32.625 44.746094 32.472656 46.761719 C 32.511719 46.734375 32.53125 46.722656 32.539062 46.703125 C 32.828125 46.433594 33.167969 46.261719 33.554688 46.210938 C 33.957031 46.164062 34.375 46.136719 34.789062 46.144531 C 35.589844 46.152344 36.316406 45.953125 36.953125 45.476562 C 37.269531 45.246094 37.578125 44.996094 37.859375 44.714844 C 38.1875 44.378906 38.1875 44.175781 37.957031 43.769531 C 37.9375 43.730469 37.90625 43.691406 37.890625 43.652344 C 37.707031 43.238281 37.472656 42.84375 37.453125 42.378906 C 37.453125 42.339844 37.433594 42.292969 37.414062 42.253906 C 37.144531 41.769531 36.875 41.277344 36.605469 40.796875 C 35.734375 39.269531 34.835938 37.753906 34.171875 36.121094 C 33.871094 35.386719 33.59375 34.652344 33.300781 33.921875 C 33.292969 33.890625 33.300781 33.851562 33.300781 33.8125 C 33.332031 33.832031 33.371094 33.851562 33.390625 33.882812 C 33.484375 34.046875 33.582031 34.210938 33.667969 34.382812 C 34.21875 35.425781 34.769531 36.46875 35.328125 37.503906 C 35.996094 38.730469 36.683594 39.945312 37.367188 41.160156 C 37.386719 41.191406 37.40625 41.210938 37.425781 41.25 C 37.53125 40.746094 37.550781 40.265625 37.492188 39.773438 C 37.433594 39.203125 37.328125 38.652344 37.066406 38.140625 C 36.789062 37.589844 36.488281 37.039062 36.199219 36.488281 C 36.082031 36.257812 35.96875 36.023438 35.871094 35.785156 C 35.785156 35.570312 35.726562 35.347656 35.640625 35.144531 C 35.253906 34.230469 34.855469 33.3125 34.460938 32.402344 C 34.160156 31.707031 33.84375 31.03125 33.699219 30.289062 C 33.667969 30.152344 33.621094 30.019531 33.574219 29.875 C 33.410156 29.292969 33.1875 28.726562 33.226562 28.105469 C 33.226562 28.078125 33.214844 28.058594 33.214844 28.03125 C 33.070312 27.632812 32.945312 27.238281 32.769531 26.863281 C 32.492188 26.222656 32.171875 25.605469 31.882812 24.976562 C 31.632812 24.4375 31.34375 23.925781 30.984375 23.453125 C 30.503906 22.804688 30.019531 22.160156 29.632812 21.445312 C 29.382812 20.972656 29.0625 20.546875 28.726562 20.132812 C 28.503906 19.859375 28.28125 19.589844 28.078125 19.300781 C 27.875 19.011719 27.703125 18.710938 27.683594 18.34375 C 27.671875 18.074219 27.683594 17.804688 27.710938 17.542969 C 27.769531 17.003906 27.742188 16.5 27.324219 16.09375 C 27.21875 15.988281 27.132812 15.941406 26.976562 15.988281 C 26.785156 16.035156 26.589844 16.054688 26.40625 16.085938 C 26.386719 16.171875 26.386719 16.257812 26.351562 16.316406 C 26.175781 16.578125 26.023438 16.867188 25.789062 17.078125 C 25.113281 17.71875 24.273438 18.09375 23.394531 18.363281 C 23.097656 18.460938 22.777344 18.507812 22.457031 18.585938 C 22.71875 19.464844 22.988281 20.351562 23.261719 21.269531 C 23.375 21.164062 23.460938 21.097656 23.53125 21.019531 C 23.65625 20.875 23.800781 20.757812 23.984375 20.679688 C 24.207031 20.585938 24.410156 20.449219 24.621094 20.324219 C 24.96875 20.113281 25.289062 19.871094 25.644531 19.6875 C 25.90625 19.550781 26.203125 19.492188 26.484375 19.417969 C 26.726562 19.339844 26.882812 19.464844 26.851562 19.726562 C 26.84375 19.8125 26.804688 19.910156 26.746094 19.984375 C 26.660156 20.101562 26.550781 20.207031 26.445312 20.316406 C 26.332031 20.429688 26.203125 20.527344 26.070312 20.652344 C 26.425781 20.554688 26.71875 20.390625 27.007812 20.199219 C 27.238281 20.042969 27.488281 19.890625 27.789062 19.949219 C 28.089844 19.996094 28.175781 20.207031 27.992188 20.460938 C 27.941406 20.527344 27.875 20.574219 27.816406 20.632812 C 27.789062 20.664062 27.75 20.691406 27.691406 20.75 C 27.835938 20.710938 27.953125 20.671875 28.058594 20.652344 C 28.175781 20.632812 28.300781 20.613281 28.425781 20.613281 C 28.675781 20.605469 28.820312 20.699219 28.878906 20.902344 C 28.9375 21.117188 28.839844 21.328125 28.636719 21.425781 C 28.472656 21.503906 28.289062 21.570312 28.125 21.648438 C 28.03125 21.6875 27.941406 21.742188 27.867188 21.78125 C 28.050781 21.832031 28.234375 21.851562 28.386719 21.917969 C 28.589844 22.003906 28.609375 22.199219 28.4375 22.332031 C 28.339844 22.410156 28.214844 22.46875 28.097656 22.515625 C 28.019531 22.546875 27.921875 22.546875 27.847656 22.574219 C 27.683594 22.621094 27.527344 22.679688 27.363281 22.738281 C 27.546875 22.816406 27.691406 22.894531 27.777344 23.058594 C 27.847656 23.183594 27.828125 23.289062 27.722656 23.386719 C 27.578125 23.53125 27.394531 23.550781 27.199219 23.53125 C 27.074219 23.511719 26.949219 23.492188 26.824219 23.480469 C 26.253906 23.453125 25.691406 23.367188 25.179688 23.078125 C 25.105469 23.039062 25.007812 23.019531 24.921875 23.019531 C 24.652344 23.039062 24.378906 23.066406 24.109375 23.105469 C 24.070312 23.105469 24.042969 23.132812 23.992188 23.144531 C 24.03125 23.25 24.070312 23.347656 24.101562 23.441406 C 24.167969 23.636719 24.226562 23.828125 24.292969 24.023438 C 24.320312 24.117188 24.339844 24.226562 24.398438 24.3125 C 24.601562 24.640625 24.757812 24.976562 24.816406 25.355469 C 24.882812 25.828125 24.84375 26.28125 24.601562 26.695312 C 24.3125 27.199219 23.917969 27.613281 23.445312 27.953125 C 23.261719 28.078125 23.066406 28.195312 22.882812 28.308594 C 22.691406 28.433594 22.574219 28.597656 22.566406 28.832031 C 22.566406 29.023438 22.574219 29.21875 22.566406 29.402344 C 22.566406 29.554688 22.59375 29.730469 22.527344 29.84375 C 22.351562 30.152344 22.179688 30.492188 21.851562 30.675781 C 21.492188 30.878906 21.125 31.0625 20.75 31.226562 C 20.449219 31.351562 20.132812 31.429688 19.839844 31.523438 C 19.8125 31.632812 19.792969 31.726562 19.753906 31.816406 C 19.425781 32.5 19.15625 33.214844 18.945312 33.949219 C 18.75 34.644531 18.597656 35.347656 18.414062 36.042969 C 18.121094 37.117188 17.640625 38.101562 17.042969 39.027344 C 16.859375 39.316406 16.675781 39.605469 16.460938 39.878906 C 16.007812 40.476562 15.4375 40.96875 14.878906 41.472656 C 14.40625 41.894531 14.078125 42.417969 13.824219 42.988281 C 13.613281 43.460938 13.625 43.941406 13.796875 44.425781 C 13.855469 44.582031 13.953125 44.734375 14.078125 44.839844 C 14.210938 44.871094 14.367188 44.898438 14.5 44.964844 Z M 16.277344 15.1875 C 16.289062 15.195312 16.308594 15.195312 16.316406 15.207031 C 16.316406 15.234375 16.328125 15.265625 16.328125 15.292969 C 16.347656 17.457031 16.277344 19.628906 16.027344 21.78125 C 15.902344 22.882812 15.59375 23.9375 15.121094 24.941406 C 14.976562 25.238281 14.847656 25.546875 14.714844 25.855469 C 14.433594 26.464844 14.628906 27.027344 14.925781 27.554688 C 15.03125 27.738281 15.179688 27.902344 15.332031 28.039062 C 15.601562 28.28125 15.902344 28.484375 16.191406 28.707031 C 16.191406 28.675781 16.203125 28.636719 16.210938 28.589844 C 16.277344 28.078125 16.328125 27.566406 16.402344 27.0625 C 16.644531 25.617188 16.878906 24.167969 17.003906 22.699219 C 17.078125 21.742188 17.214844 20.796875 17.332031 19.851562 C 17.351562 19.695312 17.398438 19.542969 17.4375 19.386719 C 17.457031 19.386719 17.464844 19.386719 17.484375 19.398438 C 17.484375 19.445312 17.496094 19.492188 17.496094 19.542969 C 17.476562 20.625 17.457031 21.695312 17.417969 22.777344 C 17.398438 23.386719 17.378906 24.003906 17.28125 24.613281 C 17.070312 25.972656 16.808594 27.324219 16.558594 28.675781 C 16.460938 29.207031 16.335938 29.738281 16.328125 30.289062 C 16.328125 30.464844 16.355469 30.628906 16.460938 30.773438 C 16.664062 31.023438 16.90625 31.234375 17.234375 31.253906 C 17.601562 31.285156 17.976562 31.3125 18.335938 31.253906 C 19.300781 31.109375 20.226562 30.839844 21.125 30.472656 C 21.269531 30.414062 21.40625 30.347656 21.542969 30.289062 C 21.503906 30.117188 21.464844 29.953125 21.425781 29.789062 C 21.414062 29.757812 21.40625 29.71875 21.386719 29.691406 C 20.980469 28.859375 20.777344 27.972656 20.699219 27.0625 C 20.613281 26.117188 20.613281 25.171875 20.585938 24.226562 C 20.574219 24.101562 20.59375 23.964844 20.574219 23.839844 C 20.519531 23.328125 20.449219 22.816406 20.371094 22.304688 C 20.246094 21.433594 20.015625 20.585938 19.648438 19.785156 C 19.523438 19.511719 19.386719 19.253906 19.273438 18.980469 C 18.335938 16.789062 17.535156 14.550781 17.167969 12.175781 C 17.109375 11.789062 17.117188 11.390625 17.109375 11.007812 C 17.109375 10.96875 17.128906 10.929688 17.15625 10.859375 C 17.195312 11.132812 17.207031 11.355469 17.261719 11.566406 C 17.484375 12.378906 17.6875 13.199219 17.96875 13.988281 C 18.519531 15.515625 19.117188 17.023438 19.695312 18.539062 C 19.929688 19.144531 20.160156 19.753906 20.277344 20.402344 C 20.390625 21.046875 20.488281 21.695312 20.574219 22.34375 C 20.652344 22.902344 20.730469 23.472656 20.796875 24.03125 C 20.855469 24.496094 20.875 24.96875 20.941406 25.433594 C 21.046875 26.15625 21.15625 26.890625 21.289062 27.605469 C 21.386719 28.136719 21.511719 28.667969 21.648438 29.199219 C 21.714844 29.46875 21.8125 29.730469 21.898438 30.027344 C 21.976562 29.941406 22.023438 29.882812 22.082031 29.835938 C 22.273438 29.699219 22.292969 29.507812 22.285156 29.292969 C 22.273438 29.0625 22.304688 28.832031 22.3125 28.609375 C 22.324219 28.425781 22.402344 28.269531 22.527344 28.144531 C 22.621094 28.050781 22.71875 27.941406 22.835938 27.867188 C 23.308594 27.539062 23.675781 27.101562 24.003906 26.628906 C 24.429688 26.003906 24.449219 25.335938 24.136719 24.648438 C 24.03125 24.417969 23.925781 24.1875 23.867188 23.945312 C 23.828125 23.800781 23.808594 23.65625 23.742188 23.53125 C 23.714844 23.480469 23.695312 23.421875 23.675781 23.367188 C 23.433594 22.660156 23.191406 21.957031 22.960938 21.25 C 22.640625 20.277344 22.410156 19.28125 22.0625 18.316406 C 21.742188 17.445312 21.28125 16.675781 20.71875 15.960938 C 20.132812 15.207031 19.550781 14.453125 19.164062 13.574219 C 19.136719 13.507812 19.117188 13.4375 19.089844 13.382812 C 19.097656 13.371094 19.117188 13.351562 19.128906 13.34375 C 19.183594 13.371094 19.253906 13.390625 19.300781 13.4375 C 19.40625 13.554688 19.511719 13.679688 19.609375 13.804688 C 19.851562 14.117188 20.09375 14.433594 20.335938 14.742188 C 20.351562 14.773438 20.382812 14.800781 20.410156 14.828125 C 20.402344 14.714844 20.363281 14.609375 20.335938 14.511719 C 20.132812 13.804688 19.804688 13.167969 19.320312 12.617188 C 19.144531 12.414062 18.992188 12.175781 18.847656 11.941406 C 18.578125 11.519531 18.316406 11.074219 18.046875 10.648438 C 17.832031 10.300781 17.5625 10.019531 17.226562 9.789062 C 17.011719 9.636719 16.839844 9.671875 16.644531 9.761719 C 16.328125 9.894531 16.105469 10.109375 16.085938 10.476562 C 16.054688 10.890625 16.039062 11.304688 16 11.71875 C 15.949219 12.28125 15.902344 12.851562 15.816406 13.402344 C 15.738281 13.863281 15.621094 14.328125 15.507812 14.78125 C 15.3125 15.515625 15.292969 16.269531 15.292969 17.023438 C 15.292969 17.175781 15.332031 17.332031 15.390625 17.476562 C 15.527344 17.785156 15.679688 18.085938 15.835938 18.394531 C 15.835938 18.375 15.84375 18.34375 15.84375 18.316406 C 15.902344 17.628906 15.960938 16.945312 16.039062 16.257812 C 16.066406 15.96875 16.125 15.679688 16.171875 15.398438 C 16.191406 15.332031 16.238281 15.265625 16.277344 15.1875 Z M 21.820312 10.464844 C 21.792969 10.746094 21.617188 10.957031 21.15625 10.917969 C 21.15625 10.9375 21.15625 10.957031 21.15625 10.988281 C 21.203125 11.480469 21.078125 11.933594 20.847656 12.367188 C 20.738281 12.570312 20.59375 12.726562 20.382812 12.820312 C 20.226562 12.890625 20.179688 13.082031 20.265625 13.238281 C 20.351562 13.390625 20.460938 13.554688 20.5 13.730469 C 20.59375 14.171875 20.664062 14.636719 20.738281 15.089844 C 20.75 15.167969 20.777344 15.246094 20.828125 15.304688 C 21.503906 16.09375 22.003906 16.992188 22.3125 17.988281 C 22.410156 18.285156 22.410156 18.277344 22.710938 18.21875 C 23.820312 18.015625 24.796875 17.570312 25.566406 16.722656 C 25.730469 16.546875 25.867188 16.347656 26.011719 16.164062 C 26.003906 16.152344 25.992188 16.144531 25.984375 16.132812 C 25.800781 16.191406 25.617188 16.238281 25.433594 16.296875 C 25.394531 16.308594 25.355469 16.289062 25.316406 16.289062 C 25.328125 16.25 25.316406 16.191406 25.335938 16.171875 C 25.382812 16.125 25.441406 16.066406 25.511719 16.035156 C 25.722656 15.949219 25.933594 15.851562 26.15625 15.804688 C 26.589844 15.71875 27.035156 15.671875 27.46875 15.582031 C 27.980469 15.476562 28.484375 15.339844 28.984375 15.226562 C 29.933594 15.003906 30.878906 14.792969 31.765625 14.375 C 32.171875 14.183594 32.558594 13.980469 32.867188 13.660156 C 33.003906 13.515625 33.136719 13.363281 33.226562 13.1875 C 33.371094 12.898438 33.496094 12.609375 33.601562 12.300781 C 34.066406 10.871094 34.480469 9.421875 34.761719 7.945312 C 34.78125 7.828125 34.816406 7.714844 34.894531 7.625 C 35.15625 7.316406 35.28125 6.96875 35.253906 6.546875 C 35.183594 6.5625 35.128906 6.582031 35.070312 6.601562 C 34.925781 6.640625 34.78125 6.699219 34.636719 6.726562 C 34.355469 6.777344 34.210938 6.613281 34.277344 6.34375 C 34.289062 6.3125 34.289062 6.273438 34.269531 6.253906 C 34.171875 6.140625 34.171875 6.023438 34.230469 5.886719 C 34.238281 5.859375 34.25 5.832031 34.230469 5.8125 C 34.121094 5.597656 34.121094 5.539062 34.269531 5.355469 C 34.414062 5.175781 34.546875 4.992188 34.710938 4.769531 C 34.617188 4.769531 34.539062 4.75 34.480469 4.769531 C 34.210938 4.902344 33.949219 5.039062 33.6875 5.191406 C 33.554688 5.269531 33.4375 5.375 33.429688 5.558594 C 33.417969 5.78125 33.390625 6.015625 33.359375 6.234375 C 33.332031 6.4375 33.410156 6.601562 33.554688 6.71875 C 33.863281 6.949219 33.96875 7.308594 33.824219 7.65625 C 33.484375 8.464844 33.148438 9.277344 32.800781 10.078125 C 32.53125 10.695312 32.25 11.304688 31.960938 11.914062 C 31.816406 12.214844 31.613281 12.464844 31.363281 12.675781 C 31.214844 12.792969 31.070312 12.851562 30.867188 12.859375 C 30.367188 12.890625 29.855469 12.917969 29.371094 13.0625 C 28.367188 13.351562 27.382812 13.324219 26.378906 13.109375 C 26.222656 13.082031 26.058594 13.082031 25.90625 13.121094 C 25.453125 13.21875 25.015625 13.351562 24.5625 13.457031 C 24.207031 13.535156 23.839844 13.613281 23.472656 13.660156 C 23.171875 13.699219 22.804688 13.476562 22.710938 13.21875 C 22.621094 13.003906 22.546875 12.78125 22.46875 12.570312 C 22.246094 11.921875 22.246094 11.285156 22.613281 10.6875 C 22.691406 10.550781 22.777344 10.425781 22.875 10.300781 C 23.007812 10.117188 23.132812 9.933594 23.191406 9.703125 C 22.96875 9.625 22.855469 9.472656 22.796875 9.257812 C 22.757812 9.132812 22.671875 9.054688 22.574219 8.96875 C 22.449219 8.851562 22.351562 8.71875 22.1875 8.640625 C 22.160156 8.628906 22.148438 8.574219 22.140625 8.535156 C 22.121094 8.476562 22.089844 8.410156 22.070312 8.351562 C 22.054688 8.273438 22.003906 8.246094 21.917969 8.234375 C 21.792969 8.226562 21.65625 8.1875 21.558594 8.117188 C 21.414062 8.023438 21.300781 7.886719 21.164062 7.769531 C 21.105469 7.722656 21.039062 7.683594 20.980469 7.636719 C 21.195312 8.023438 21.300781 8.429688 21.328125 8.863281 C 21.339844 9.066406 21.386719 9.269531 21.511719 9.441406 C 21.53125 9.472656 21.542969 9.507812 21.550781 9.539062 C 21.597656 9.683594 21.558594 9.789062 21.425781 9.847656 C 21.339844 9.886719 21.242188 9.894531 21.144531 9.894531 C 21.046875 9.90625 20.941406 9.875 20.847656 9.875 C 20.699219 9.875 20.574219 10.050781 20.625 10.195312 C 20.699219 10.398438 20.828125 10.550781 21.03125 10.648438 C 21.261719 10.753906 21.453125 10.679688 21.550781 10.4375 C 21.609375 10.292969 21.734375 10.234375 21.890625 10.273438 C 21.976562 10.292969 22.0625 10.3125 22.140625 10.339844 C 22.1875 10.359375 22.253906 10.40625 22.253906 10.425781 C 22.246094 10.476562 22.207031 10.550781 22.167969 10.5625 C 22.101562 10.582031 22.015625 10.5625 21.945312 10.542969 C 21.90625 10.53125 21.871094 10.496094 21.820312 10.464844 Z M 33.640625 24.960938 C 33.5625 25.007812 33.515625 25.046875 33.464844 25.085938 C 33.28125 25.210938 33.089844 25.277344 32.867188 25.25 C 32.769531 25.238281 32.636719 25.238281 32.617188 25.113281 C 32.597656 24.976562 32.734375 24.949219 32.828125 24.910156 C 32.953125 24.863281 33.097656 24.84375 33.195312 24.757812 C 33.464844 24.542969 33.71875 24.3125 33.96875 24.082031 C 33.996094 24.0625 34.007812 24.003906 34.007812 23.964844 C 33.996094 23.820312 33.96875 23.683594 33.949219 23.539062 C 33.851562 22.613281 33.785156 21.675781 33.667969 20.75 C 33.59375 20.160156 33.445312 19.582031 33.351562 18.992188 C 33.136719 17.71875 32.945312 16.433594 32.742188 15.148438 C 32.703125 14.878906 32.675781 14.609375 32.644531 14.335938 C 31.96875 14.714844 31.273438 15.023438 30.53125 15.226562 C 29.902344 15.398438 29.257812 15.523438 28.609375 15.660156 C 28.308594 15.726562 28.011719 15.777344 27.703125 15.835938 C 27.691406 15.84375 27.691406 15.851562 27.683594 15.863281 C 27.722656 15.890625 27.757812 15.910156 27.789062 15.941406 C 28.039062 16.191406 28.203125 16.480469 28.214844 16.839844 C 28.214844 17.136719 28.203125 17.445312 28.144531 17.746094 C 28.050781 18.277344 28.125 18.730469 28.492188 19.136719 C 28.746094 19.40625 28.984375 19.6875 29.207031 19.984375 C 29.449219 20.304688 29.699219 20.625 29.902344 20.980469 C 30.230469 21.539062 30.570312 22.089844 30.964844 22.613281 C 31.410156 23.191406 31.824219 23.789062 32.113281 24.464844 C 32.230469 24.738281 32.355469 24.996094 32.472656 25.257812 C 32.789062 25.992188 33.109375 26.726562 33.429688 27.460938 C 33.457031 27.519531 33.476562 27.574219 33.503906 27.625 C 33.582031 26.746094 33.496094 25.855469 33.640625 24.960938 Z M 25.289062 7.347656 C 25.085938 7.296875 25.007812 7.144531 24.941406 7.007812 C 24.851562 6.835938 24.910156 6.738281 25.113281 6.738281 C 25.363281 6.738281 25.519531 6.613281 25.566406 6.363281 C 25.644531 5.996094 25.566406 5.65625 25.382812 5.339844 C 25.34375 5.269531 25.257812 5.222656 25.191406 5.164062 C 25.171875 5.144531 25.125 5.144531 25.09375 5.15625 C 24.796875 5.300781 24.574219 5.6875 24.59375 6.023438 C 24.601562 6.199219 24.632812 6.371094 24.632812 6.546875 C 24.640625 6.679688 24.582031 6.785156 24.457031 6.835938 C 24.339844 6.882812 24.175781 6.84375 24.089844 6.738281 C 24.050781 6.699219 24.023438 6.640625 24.003906 6.59375 C 23.925781 6.449219 23.847656 6.304688 23.78125 6.148438 C 23.734375 6.042969 23.664062 5.964844 23.539062 5.9375 C 23.355469 5.886719 23.222656 5.761719 23.152344 5.578125 C 23.125 5.492188 23.097656 5.40625 23.078125 5.320312 C 23.039062 5.144531 23.007812 5.117188 22.824219 5.085938 C 22.601562 5.046875 22.382812 5.105469 22.167969 5.164062 C 21.753906 5.28125 21.347656 5.433594 20.894531 5.40625 C 20.941406 5.636719 20.992188 5.859375 21.019531 6.082031 C 21.046875 6.363281 21.164062 6.574219 21.433594 6.691406 C 21.570312 6.746094 21.65625 6.863281 21.667969 7.007812 C 21.6875 7.289062 21.707031 7.570312 21.714844 7.847656 C 21.714844 7.925781 21.734375 7.964844 21.8125 7.964844 C 21.90625 7.964844 22.003906 7.953125 22.089844 7.953125 C 22.160156 7.953125 22.285156 7.933594 22.253906 8.03125 C 22.21875 8.1875 22.304688 8.28125 22.34375 8.390625 C 22.363281 8.4375 22.417969 8.484375 22.46875 8.484375 C 22.585938 8.496094 22.632812 8.554688 22.640625 8.660156 C 22.652344 8.699219 22.660156 8.746094 22.691406 8.757812 C 22.875 8.84375 22.949219 9.015625 23.019531 9.191406 C 23.105469 9.402344 23.242188 9.480469 23.460938 9.414062 C 23.558594 9.382812 23.664062 9.34375 23.742188 9.289062 C 23.90625 9.160156 24.0625 9.027344 24.207031 8.882812 C 24.429688 8.660156 24.632812 8.417969 24.832031 8.1875 C 24.910156 8.101562 24.980469 8.003906 25.046875 7.917969 C 25.085938 7.859375 25.125 7.789062 25.164062 7.722656 C 25.171875 7.722656 25.191406 7.722656 25.199219 7.734375 C 25.21875 7.808594 25.238281 7.878906 25.25 7.953125 C 25.257812 8.136719 25.125 8.234375 25.007812 8.351562 C 24.84375 8.535156 24.679688 8.726562 24.515625 8.910156 C 24.523438 8.921875 24.523438 8.941406 24.535156 8.949219 C 24.785156 8.976562 25.035156 9.007812 25.277344 9.035156 C 25.441406 9.054688 25.566406 8.996094 25.675781 8.863281 C 25.992188 8.464844 26.222656 8.03125 26.351562 7.539062 C 26.445312 7.152344 26.40625 6.777344 26.1875 6.4375 C 26.167969 6.410156 26.117188 6.378906 26.078125 6.371094 C 25.984375 6.351562 25.886719 6.351562 25.78125 6.332031 C 25.683594 6.621094 25.605469 6.941406 25.238281 7.007812 C 25.277344 7.144531 25.277344 7.242188 25.289062 7.347656 Z M 33.207031 8.574219 C 32.78125 8.378906 32.511719 8.03125 32.222656 7.703125 C 31.921875 7.367188 31.582031 7.066406 31.265625 6.746094 C 31.160156 6.640625 31.03125 6.59375 30.867188 6.582031 C 30.609375 6.582031 30.335938 6.554688 30.097656 6.671875 C 29.738281 6.855469 29.371094 6.84375 28.984375 6.804688 C 28.800781 6.785156 28.609375 6.777344 28.40625 6.765625 C 28.425781 6.804688 28.425781 6.816406 28.4375 6.824219 C 28.453125 6.855469 28.472656 6.882812 28.503906 6.902344 C 28.753906 7.152344 28.792969 7.433594 28.628906 7.761719 C 28.542969 7.945312 28.472656 8.148438 28.386719 8.359375 C 28.589844 8.339844 28.773438 8.320312 28.949219 8.300781 C 29.167969 8.273438 29.332031 8.359375 29.460938 8.542969 C 29.679688 8.871094 29.84375 9.238281 29.933594 9.625 C 30.085938 10.332031 30.164062 11.042969 30.144531 11.769531 C 30.136719 12.03125 30.144531 12.289062 30.144531 12.5625 C 30.394531 12.542969 30.628906 12.523438 30.859375 12.492188 C 30.925781 12.484375 31.015625 12.453125 31.0625 12.40625 C 31.449219 12 31.746094 11.539062 32.019531 11.042969 C 32.039062 11.015625 32.039062 10.957031 32.027344 10.917969 C 31.949219 10.582031 31.882812 10.234375 31.777344 9.894531 C 31.476562 8.96875 31.273438 8.023438 31.070312 7.074219 C 31.0625 7.039062 31.089844 6.988281 31.101562 6.949219 C 31.140625 6.980469 31.1875 6.988281 31.207031 7.027344 C 31.273438 7.171875 31.332031 7.316406 31.378906 7.460938 C 31.679688 8.410156 31.980469 9.355469 32.269531 10.3125 C 32.289062 10.359375 32.296875 10.40625 32.328125 10.484375 C 32.636719 9.820312 33.003906 9.238281 33.207031 8.574219 Z M 26.175781 6.128906 C 26.195312 6.121094 26.203125 6.109375 26.222656 6.101562 C 26.195312 5.945312 26.167969 5.78125 26.136719 5.628906 C 26.089844 5.40625 26.011719 5.191406 25.992188 4.972656 C 25.953125 4.546875 25.953125 4.113281 25.933594 3.6875 C 25.914062 3.359375 25.867188 3.070312 25.566406 2.835938 C 25.25 2.585938 24.902344 2.519531 24.523438 2.558594 C 24.371094 2.578125 24.285156 2.539062 24.195312 2.402344 C 24.175781 2.382812 24.15625 2.355469 24.128906 2.34375 C 24.023438 2.304688 23.917969 2.25 23.808594 2.238281 C 23.25 2.199219 22.710938 2.265625 22.226562 2.59375 C 21.8125 2.875 21.445312 3.214844 21.105469 3.589844 C 20.914062 3.800781 20.699219 3.996094 20.410156 4.074219 C 20.371094 4.082031 20.335938 4.132812 20.304688 4.179688 C 20.21875 4.324219 20.277344 4.46875 20.296875 4.625 C 20.363281 5.046875 20.613281 5.191406 21 5.15625 C 21.347656 5.117188 21.695312 5.007812 22.042969 4.933594 C 22.3125 4.863281 22.585938 4.789062 22.875 4.84375 C 23.152344 4.894531 23.25 4.992188 23.296875 5.269531 C 23.328125 5.472656 23.394531 5.667969 23.625 5.734375 C 23.792969 5.78125 23.90625 5.886719 23.984375 6.035156 C 24.082031 6.207031 24.167969 6.390625 24.273438 6.5625 C 24.292969 6.59375 24.332031 6.613281 24.371094 6.640625 C 24.390625 6.613281 24.417969 6.574219 24.4375 6.535156 C 24.449219 6.496094 24.449219 6.457031 24.449219 6.417969 C 24.4375 6.273438 24.417969 6.128906 24.410156 5.976562 C 24.378906 5.492188 24.574219 5.175781 24.988281 5 C 25.21875 4.902344 25.433594 4.960938 25.597656 5.175781 C 25.742188 5.375 25.820312 5.609375 25.847656 5.851562 C 25.859375 5.898438 25.859375 5.964844 25.886719 5.984375 C 25.964844 6.035156 26.070312 6.082031 26.175781 6.128906 Z M 19.195312 8.667969 C 18.992188 9.375 18.75 9.730469 18.5 9.703125 C 18.597656 9.527344 18.703125 9.355469 18.789062 9.171875 C 18.953125 8.832031 19.070312 8.476562 19.039062 8.089844 C 19.019531 7.867188 18.980469 7.644531 18.953125 7.433594 C 18.855469 7.460938 18.742188 7.511719 18.617188 7.539062 C 18.191406 7.625 17.824219 7.828125 17.464844 8.082031 C 17.136719 8.3125 16.945312 8.628906 16.847656 9.015625 C 16.808594 9.152344 16.789062 9.296875 16.75 9.453125 C 16.820312 9.453125 16.867188 9.453125 16.90625 9.453125 C 17.109375 9.480469 17.332031 9.433594 17.515625 9.558594 C 17.640625 9.644531 17.757812 9.730469 17.863281 9.828125 C 18.191406 10.15625 18.402344 10.5625 18.625 10.957031 C 18.945312 11.527344 19.292969 12.085938 19.734375 12.578125 C 19.765625 12.609375 19.792969 12.648438 19.839844 12.695312 C 19.785156 12.183594 19.601562 11.75 19.40625 11.304688 C 19.484375 11.316406 19.550781 11.335938 19.601562 11.371094 C 19.832031 11.554688 19.957031 11.808594 20.0625 12.078125 C 20.132812 12.242188 20.179688 12.40625 20.238281 12.578125 C 20.402344 12.472656 20.535156 12.347656 20.625 12.183594 C 20.828125 11.789062 20.933594 11.371094 20.933594 10.929688 C 20.933594 10.890625 20.921875 10.84375 20.894531 10.8125 C 20.75 10.667969 20.605469 10.53125 20.460938 10.398438 C 20.460938 10.398438 20.441406 10.417969 20.421875 10.4375 C 20.265625 10.695312 20.121094 10.949219 19.96875 11.207031 C 19.929688 11.265625 19.890625 11.324219 19.832031 11.402344 C 19.792969 11.304688 19.765625 11.246094 19.753906 11.191406 C 19.6875 10.890625 19.753906 10.609375 19.929688 10.359375 C 20.023438 10.222656 20.152344 10.097656 20.257812 9.972656 C 20.460938 9.742188 20.585938 9.480469 20.613281 9.160156 C 20.625 9.066406 20.652344 8.96875 20.671875 8.863281 C 20.683594 8.863281 20.699219 8.863281 20.710938 8.863281 C 20.796875 9.085938 20.796875 9.316406 20.808594 9.539062 C 21.011719 9.558594 21.195312 9.566406 21.378906 9.585938 C 21.386719 9.578125 21.394531 9.558594 21.40625 9.546875 C 21.175781 9.304688 21.144531 8.996094 21.066406 8.699219 C 21.039062 8.574219 21.011719 8.445312 20.972656 8.320312 C 20.855469 7.925781 20.613281 7.597656 20.363281 7.277344 C 20.324219 7.230469 20.257812 7.164062 20.265625 7.113281 C 20.296875 6.929688 20.140625 6.863281 20.054688 6.765625 C 20.023438 6.726562 19.9375 6.71875 19.890625 6.726562 C 19.621094 6.765625 19.359375 7.046875 19.320312 7.316406 C 19.292969 7.53125 19.339844 7.722656 19.417969 7.917969 C 19.734375 8.738281 19.601562 9.5 19.070312 10.203125 C 19.019531 10.273438 18.945312 10.3125 18.875 10.367188 C 18.867188 10.359375 18.855469 10.347656 18.847656 10.339844 C 19.128906 9.835938 19.359375 9.304688 19.195312 8.667969 Z M 34.085938 11.941406 C 34.179688 11.960938 34.257812 11.980469 34.34375 11.992188 C 34.972656 12.058594 35.601562 12.011719 36.226562 11.953125 C 36.535156 11.921875 36.789062 11.769531 36.902344 11.460938 C 36.921875 11.410156 36.941406 11.371094 36.972656 11.335938 C 37.164062 10.976562 37.214844 10.589844 37.164062 10.195312 C 37.144531 10.019531 37.105469 9.847656 37.078125 9.664062 C 36.980469 9.160156 36.894531 8.660156 36.789062 8.15625 C 36.757812 8.03125 36.75 7.898438 36.671875 7.808594 C 36.488281 7.605469 36.238281 7.492188 35.957031 7.355469 C 36.023438 7.636719 36.074219 7.886719 36.132812 8.136719 C 36.207031 8.082031 36.277344 8.042969 36.34375 8.003906 C 36.429688 7.953125 36.488281 7.992188 36.480469 8.082031 C 36.460938 8.1875 36.421875 8.292969 36.363281 8.371094 C 36.199219 8.554688 35.976562 8.648438 35.746094 8.707031 C 35.503906 8.765625 35.273438 8.71875 35.058594 8.640625 C 34.730469 9.742188 34.414062 10.832031 34.085938 11.941406 Z M 26.667969 19.609375 C 26.660156 19.601562 26.648438 19.589844 26.640625 19.582031 C 26.582031 19.609375 26.535156 19.636719 26.476562 19.65625 C 26.371094 19.707031 26.261719 19.746094 26.167969 19.785156 C 26.039062 19.832031 25.914062 19.851562 25.800781 19.910156 C 25.527344 20.054688 25.257812 20.21875 24.988281 20.382812 C 24.71875 20.554688 24.4375 20.710938 24.121094 20.777344 C 23.917969 20.816406 23.820312 20.980469 23.714844 21.144531 C 23.644531 21.261719 23.578125 21.386719 23.519531 21.503906 C 23.5 21.539062 23.472656 21.578125 23.480469 21.617188 C 23.617188 22.003906 23.761719 22.390625 23.90625 22.765625 C 24.070312 22.730469 24.207031 22.660156 24.359375 22.652344 C 24.765625 22.621094 25.164062 22.671875 25.539062 22.824219 C 26.136719 23.066406 26.773438 23.085938 27.394531 23.210938 C 27.460938 23.230469 27.546875 23.191406 27.613281 23.183594 C 27.613281 23.164062 27.625 23.144531 27.625 23.132812 C 27.558594 23.085938 27.507812 23.019531 27.429688 22.988281 C 27.210938 22.894531 26.996094 22.796875 26.734375 22.875 C 26.601562 22.910156 26.425781 22.863281 26.28125 22.824219 C 26.222656 22.804688 26.136719 22.710938 26.136719 22.652344 C 26.136719 22.554688 26.242188 22.527344 26.332031 22.527344 C 26.371094 22.527344 26.417969 22.527344 26.457031 22.535156 C 26.667969 22.59375 26.871094 22.5625 27.074219 22.496094 C 27.429688 22.382812 27.789062 22.285156 28.144531 22.167969 C 28.203125 22.148438 28.261719 22.109375 28.359375 22.0625 C 28.269531 22.035156 28.222656 22.003906 28.175781 21.996094 C 27.828125 21.976562 27.488281 22.035156 27.171875 22.160156 C 26.929688 22.253906 26.699219 22.292969 26.445312 22.265625 C 26.386719 22.253906 26.300781 22.199219 26.28125 22.148438 C 26.253906 22.0625 26.320312 21.996094 26.40625 21.964844 C 26.476562 21.9375 26.550781 21.90625 26.621094 21.917969 C 26.976562 21.945312 27.257812 21.773438 27.558594 21.609375 C 27.796875 21.472656 28.050781 21.375 28.289062 21.261719 C 28.378906 21.222656 28.492188 21.191406 28.550781 21.125 C 28.609375 21.066406 28.617188 20.953125 28.617188 20.863281 C 28.617188 20.84375 28.484375 20.796875 28.425781 20.808594 C 28.097656 20.875 27.769531 20.960938 27.441406 21.058594 C 27.324219 21.097656 27.21875 21.183594 27.113281 21.261719 C 27.015625 21.328125 26.929688 21.40625 26.832031 21.464844 C 26.699219 21.550781 26.550781 21.628906 26.417969 21.703125 C 26.359375 21.742188 26.300781 21.792969 26.234375 21.800781 C 26.167969 21.8125 26.097656 21.773438 26.023438 21.753906 C 26.039062 21.6875 26.039062 21.589844 26.078125 21.550781 C 26.15625 21.484375 26.261719 21.445312 26.359375 21.394531 C 26.503906 21.320312 26.6875 21.261719 26.792969 21.144531 C 27.074219 20.835938 27.382812 20.574219 27.710938 20.34375 C 27.769531 20.304688 27.816406 20.238281 27.867188 20.179688 C 27.855469 20.160156 27.855469 20.152344 27.847656 20.132812 C 27.769531 20.132812 27.691406 20.121094 27.625 20.132812 C 27.316406 20.160156 27.0625 20.296875 26.824219 20.480469 C 26.261719 20.902344 25.644531 21.117188 24.941406 21.039062 C 24.890625 21.027344 24.851562 21 24.804688 20.980469 C 24.84375 20.933594 24.871094 20.863281 24.910156 20.855469 C 25.066406 20.796875 25.238281 20.757812 25.394531 20.710938 C 25.433594 20.699219 25.480469 20.679688 25.511719 20.664062 C 25.617188 20.585938 25.710938 20.507812 25.820312 20.421875 C 26.039062 20.226562 26.261719 20.035156 26.484375 19.832031 C 26.570312 19.785156 26.609375 19.6875 26.667969 19.609375 Z M 26.832031 6.601562 C 26.824219 6.613281 26.824219 6.621094 26.8125 6.632812 C 26.871094 6.71875 26.917969 6.796875 26.976562 6.882812 C 27.296875 7.394531 27.585938 7.925781 27.777344 8.503906 C 28.03125 9.277344 28.308594 10.050781 28.550781 10.824219 C 28.746094 11.449219 28.910156 12.097656 29.09375 12.746094 C 29.207031 12.726562 29.351562 12.695312 29.488281 12.675781 C 29.84375 12.617188 29.84375 12.617188 29.855469 12.261719 C 29.875 11.507812 29.816406 10.753906 29.71875 10 C 29.660156 9.546875 29.535156 9.113281 29.285156 8.71875 C 29.207031 8.601562 29.121094 8.5625 28.996094 8.582031 C 28.820312 8.613281 28.636719 8.621094 28.464844 8.628906 C 28.175781 8.648438 28.058594 8.464844 28.195312 8.214844 C 28.242188 8.117188 28.300781 8.042969 28.359375 7.945312 C 28.4375 7.800781 28.511719 7.65625 28.582031 7.5 C 28.601562 7.453125 28.601562 7.367188 28.570312 7.328125 C 28.464844 7.171875 28.339844 7.039062 28.214844 6.894531 C 28.183594 6.863281 28.136719 6.835938 28.097656 6.835938 C 27.886719 6.796875 27.683594 6.777344 27.46875 6.738281 C 27.238281 6.691406 27.035156 6.640625 26.832031 6.601562 Z M 27.355469 8.28125 C 27.34375 8.660156 27.335938 9.015625 27.316406 9.375 C 27.304688 9.5 27.296875 9.636719 27.265625 9.761719 C 27.21875 9.992188 27.035156 10.097656 26.804688 10.03125 C 26.699219 10 26.582031 9.953125 26.476562 9.925781 C 26.457031 10.078125 26.445312 10.222656 26.398438 10.367188 C 26.359375 10.484375 26.371094 10.582031 26.425781 10.6875 C 26.726562 11.304688 27.015625 11.933594 27.316406 12.5625 C 27.355469 12.648438 27.402344 12.746094 27.449219 12.832031 C 27.46875 12.859375 27.507812 12.890625 27.539062 12.898438 C 27.921875 12.925781 28.308594 12.890625 28.707031 12.832031 C 28.582031 11.199219 27.875 9.769531 27.355469 8.28125 Z M 23.019531 10.550781 C 23.171875 10.582031 23.335938 10.601562 23.472656 10.660156 C 23.734375 10.765625 23.773438 10.910156 23.636719 11.160156 C 23.539062 11.335938 23.425781 11.488281 23.335938 11.664062 C 23.308594 11.71875 23.296875 11.816406 23.335938 11.867188 C 23.609375 12.289062 23.886719 12.707031 24.15625 13.128906 C 24.195312 13.199219 24.253906 13.207031 24.320312 13.179688 C 24.582031 13.09375 24.84375 13.003906 25.105469 12.925781 C 25.125 12.917969 25.144531 12.898438 25.171875 12.890625 C 24.777344 11.757812 24.285156 10.667969 23.984375 9.527344 C 23.808594 9.585938 23.644531 9.636719 23.480469 9.691406 C 23.453125 9.703125 23.433594 9.75 23.414062 9.78125 C 23.375 9.90625 23.355469 10.039062 23.289062 10.15625 C 23.230469 10.292969 23.113281 10.417969 23.019531 10.550781 Z M 24.601562 10.386719 C 24.71875 10.195312 24.816406 10.019531 24.929688 9.847656 C 25.230469 9.414062 25.875 9.289062 26.3125 9.519531 C 26.484375 9.605469 26.660156 9.691406 26.84375 9.769531 C 26.988281 9.828125 27.054688 9.800781 27.074219 9.636719 C 27.09375 9.453125 27.113281 9.269531 27.101562 9.09375 C 27.074219 8.628906 27.054688 8.15625 26.996094 7.695312 C 26.976562 7.519531 26.863281 7.367188 26.785156 7.203125 C 26.773438 7.210938 26.765625 7.210938 26.753906 7.222656 C 26.753906 7.625 26.621094 8.003906 26.445312 8.351562 C 26.320312 8.613281 26.148438 8.84375 25.972656 9.085938 C 25.867188 9.238281 25.703125 9.316406 25.519531 9.335938 C 25.152344 9.375 24.785156 9.324219 24.449219 9.199219 C 24.332031 9.152344 24.304688 9.230469 24.246094 9.277344 C 24.175781 9.324219 24.207031 9.375 24.234375 9.433594 C 24.3125 9.625 24.398438 9.820312 24.476562 10.011719 C 24.503906 10.128906 24.542969 10.253906 24.601562 10.386719 Z M 27.152344 12.859375 C 27.121094 12.792969 27.113281 12.753906 27.09375 12.714844 C 26.910156 12.339844 26.726562 11.960938 26.542969 11.574219 C 26.40625 11.296875 26.273438 11.007812 26.15625 10.726562 C 26.117188 10.648438 26.097656 10.542969 26.117188 10.464844 C 26.15625 10.234375 26.222656 10.011719 26.273438 9.78125 C 26.089844 9.664062 25.886719 9.558594 25.644531 9.664062 C 25.597656 9.683594 25.539062 9.703125 25.480469 9.703125 C 25.277344 9.710938 25.191406 9.835938 25.132812 10.011719 C 25.164062 10.019531 25.191406 10.03125 25.21875 10.050781 C 25.480469 10.167969 25.691406 10.332031 25.75 10.628906 C 25.828125 11.015625 25.90625 11.402344 25.964844 11.789062 C 26.011719 12.085938 26.023438 12.386719 26.039062 12.65625 C 26.242188 12.734375 26.40625 12.800781 26.582031 12.859375 C 26.601562 12.871094 26.628906 12.878906 26.660156 12.878906 C 26.8125 12.859375 26.96875 12.859375 27.152344 12.859375 Z M 35.484375 6.5625 C 35.570312 7.058594 35.550781 7.257812 35.292969 7.597656 C 35.089844 7.847656 35.15625 8.136719 35.070312 8.417969 C 35.339844 8.457031 35.582031 8.464844 35.8125 8.351562 C 35.878906 8.3125 35.898438 8.273438 35.890625 8.207031 C 35.859375 8.023438 35.851562 7.847656 35.824219 7.664062 C 35.792969 7.40625 35.707031 7.132812 35.917969 6.894531 C 35.929688 6.882812 35.929688 6.863281 35.929688 6.855469 C 35.988281 6.601562 36.042969 6.351562 36.09375 6.089844 C 36.113281 6.015625 36.101562 5.9375 36.09375 5.859375 C 36.082031 5.800781 36.054688 5.753906 35.96875 5.761719 C 35.753906 5.792969 35.542969 5.8125 35.328125 5.820312 C 35.136719 5.832031 34.980469 5.90625 34.847656 6.042969 C 34.742188 6.148438 34.636719 6.253906 34.527344 6.371094 C 34.5 6.398438 34.488281 6.4375 34.46875 6.476562 C 34.519531 6.496094 34.566406 6.515625 34.605469 6.515625 C 34.644531 6.515625 34.683594 6.488281 34.730469 6.46875 C 34.867188 6.417969 35 6.351562 35.136719 6.332031 C 35.3125 6.304688 35.496094 6.3125 35.667969 6.324219 C 35.707031 6.324219 35.746094 6.398438 35.785156 6.4375 C 35.746094 6.476562 35.714844 6.527344 35.667969 6.546875 C 35.621094 6.574219 35.5625 6.5625 35.484375 6.5625 Z M 25.453125 12.792969 C 25.78125 12.761719 25.789062 12.753906 25.769531 12.472656 C 25.769531 12.453125 25.769531 12.433594 25.769531 12.425781 C 25.730469 11.789062 25.617188 11.152344 25.460938 10.53125 C 25.453125 10.496094 25.421875 10.4375 25.394531 10.417969 C 25.277344 10.347656 25.152344 10.292969 25.035156 10.222656 C 24.949219 10.347656 24.871094 10.484375 24.765625 10.589844 C 24.71875 10.648438 24.707031 10.679688 24.726562 10.746094 C 24.824219 11.035156 24.921875 11.324219 25.027344 11.605469 C 25.164062 12 25.308594 12.40625 25.453125 12.792969 Z M 23.878906 13.265625 C 23.792969 13.140625 23.714844 13.035156 23.644531 12.925781 C 23.453125 12.609375 23.269531 12.289062 23.085938 11.960938 C 23 11.816406 23 11.652344 23.097656 11.507812 C 23.203125 11.355469 23.308594 11.199219 23.40625 11.042969 C 23.433594 11.007812 23.460938 10.96875 23.511719 10.890625 C 23.289062 10.871094 23.105469 10.859375 22.921875 10.84375 C 22.84375 10.832031 22.816406 10.859375 22.777344 10.917969 C 22.621094 11.21875 22.574219 11.539062 22.632812 11.855469 C 22.710938 12.222656 22.816406 12.589844 22.921875 12.945312 C 22.941406 13.023438 23.007812 13.101562 23.066406 13.148438 C 23.308594 13.363281 23.578125 13.34375 23.878906 13.265625 Z M 35.832031 5.097656 C 35.609375 5.164062 35.378906 5.183594 35.195312 5.289062 C 34.914062 5.472656 34.664062 5.703125 34.414062 5.925781 C 34.324219 6.003906 34.363281 6.070312 34.46875 6.109375 C 34.558594 6.140625 34.597656 6.082031 34.644531 6.042969 C 34.789062 5.925781 34.925781 5.792969 35.089844 5.714844 C 35.320312 5.609375 35.582031 5.558594 35.824219 5.492188 C 35.832031 5.375 35.832031 5.25 35.832031 5.097656 Z M 35.660156 4.515625 C 35.234375 4.625 34.847656 4.679688 34.664062 5.117188 C 34.636719 5.191406 34.578125 5.25 34.527344 5.320312 C 34.46875 5.394531 34.414062 5.472656 34.355469 5.550781 C 34.363281 5.558594 34.375 5.578125 34.382812 5.589844 C 34.433594 5.570312 34.480469 5.558594 34.519531 5.519531 C 34.761719 5.300781 35 5.078125 35.328125 4.980469 C 35.417969 4.960938 35.53125 4.921875 35.570312 4.855469 C 35.628906 4.789062 35.628906 4.660156 35.660156 4.515625 Z M 34.75 4.554688 C 35.011719 4.460938 35.28125 4.351562 35.550781 4.257812 C 35.582031 4.09375 35.496094 4.003906 35.320312 4.054688 C 35.15625 4.101562 35 4.167969 34.847656 4.238281 C 34.742188 4.285156 34.703125 4.421875 34.75 4.554688 Z M 33.765625 4.84375 C 33.6875 4.757812 33.621094 4.652344 33.523438 4.574219 C 33.484375 4.546875 33.390625 4.574219 33.332031 4.59375 C 33.3125 4.605469 33.28125 4.671875 33.292969 4.699219 C 33.351562 4.816406 33.417969 4.933594 33.476562 5.046875 C 33.601562 4.972656 33.699219 4.902344 33.765625 4.84375 Z M 33.765625 4.84375 "/></g></g></svg>