<svg xmlns="http://www.w3.org/2000/svg" xmlns:xlink="http://www.w3.org/1999/xlink" width="70" zoomAndPan="magnify" viewBox="0 0 52.5 52.499999" height="70" preserveAspectRatio="xMidYMid meet" version="1.2"><defs><clipPath id="decb1be726"><path d="M 24 31 L 44 31 L 44 50.390625 L 24 50.390625 Z M 24 31 "/></clipPath><clipPath id="d0f9dbc07f"><path d="M 7.449219 27 L 27 27 L 27 46 L 7.449219 46 Z M 7.449219 27 "/></clipPath><clipPath id="8bdcb4f466"><path d="M 40 6 L 44.597656 6 L 44.597656 13 L 40 13 Z M 40 6 "/></clipPath><clipPath id="019ca4718c"><path d="M 18 1.355469 L 19 1.355469 L 19 3 L 18 3 Z M 18 1.355469 "/></clipPath><clipPath id="54c247d943"><path d="M 14 1.355469 L 15 1.355469 L 15 3 L 14 3 Z M 14 1.355469 "/></clipPath></defs><g id="3e9f3429dd"><g clip-rule="nonzero" clip-path="url(#decb1be726)"><path style=" stroke:none;fill-rule:nonzero;fill:#935d37;fill-opacity:1;" d="M 32.332031 46.914062 C 32.304688 46.890625 32.085938 46.976562 32.03125 46.984375 C 32 46.992188 31.964844 46.984375 31.925781 46.988281 C 30.980469 47.132812 29.996094 47.109375 29.050781 47.273438 C 28.558594 47.359375 27.414062 47.617188 27.164062 48.085938 C 27.050781 48.296875 27.101562 48.378906 27.289062 48.492188 C 28.167969 49.039062 29.945312 49.238281 30.964844 49.324219 C 33.332031 49.527344 36.125 49.71875 38.414062 49.039062 C 38.875 48.902344 39.421875 48.695312 39.640625 48.242188 C 39.605469 48.132812 39.59375 48.027344 39.53125 47.929688 C 39.496094 47.878906 39.40625 47.785156 39.355469 47.746094 C 39.003906 47.472656 38.417969 47.40625 37.996094 47.335938 C 36.867188 47.144531 35.710938 47.070312 34.582031 46.875 C 34.5 46.859375 34.429688 46.90625 34.367188 46.804688 C 34.335938 46.808594 34.351562 46.863281 34.351562 46.894531 C 34.347656 47.078125 34.296875 47.390625 34.3125 47.535156 C 34.320312 47.585938 34.398438 47.691406 34.261719 47.691406 C 34.191406 47.691406 34.144531 47.59375 34.136719 47.535156 C 34.105469 47.308594 34.160156 47.019531 34.140625 46.785156 C 34.136719 46.746094 34.109375 46.726562 34.105469 46.710938 C 33.824219 44.445312 34.066406 42.171875 33.992188 39.863281 C 34.027344 39.738281 34.070312 39.683594 34.207031 39.707031 C 34.214844 39.789062 34.273438 39.898438 34.28125 39.972656 C 34.324219 40.375 34.328125 40.804688 34.347656 41.214844 C 34.441406 42.914062 34.476562 44.738281 34.382812 46.464844 C 34.382812 46.53125 34.390625 46.597656 34.382812 46.664062 C 34.730469 46.675781 35.085938 46.648438 35.433594 46.664062 C 36.238281 46.699219 37.128906 46.789062 37.921875 46.910156 C 38.5625 47.007812 39.523438 47.125 39.902344 47.730469 C 39.996094 47.875 40.023438 48.011719 40.066406 48.171875 C 40.035156 48.289062 40.027344 48.410156 39.988281 48.523438 C 39.804688 49.035156 39.035156 49.347656 38.550781 49.5 C 35.703125 50.394531 32.042969 50.027344 29.148438 49.574219 C 28.421875 49.460938 27.414062 49.355469 26.820312 48.847656 C 26.789062 48.820312 26.789062 48.78125 26.769531 48.757812 C 26.632812 48.605469 26.613281 48.59375 26.570312 48.390625 C 26.566406 48.371094 26.542969 48.359375 26.539062 48.347656 C 26.523438 48.246094 26.589844 48.171875 26.574219 48.070312 C 26.949219 47.164062 28.089844 46.863281 28.964844 46.734375 C 29.90625 46.59375 30.785156 46.632812 31.738281 46.59375 C 31.878906 46.589844 32.03125 46.539062 32.199219 46.554688 C 32.238281 46.558594 32.277344 46.601562 32.285156 46.59375 C 32.289062 46.589844 32.28125 46.539062 32.289062 46.507812 C 32.355469 46.261719 32.332031 45.785156 32.324219 45.507812 C 32.296875 44.484375 32.234375 43.515625 32.25 42.457031 C 32.25 42.433594 32.25 42.328125 32.253906 42.320312 C 32.425781 41.40625 32.152344 40.1875 32.320312 39.261719 C 32.335938 39.167969 32.394531 39.0625 32.390625 38.960938 C 32.203125 39.117188 32.007812 39.320312 31.878906 39.53125 C 31.621094 39.953125 31.5625 40.464844 31.324219 40.894531 C 31 41.46875 30.464844 41.769531 29.820312 41.875 C 29.085938 41.996094 27.714844 41.75 27.191406 42.40625 C 26.910156 42.753906 26.730469 43.320312 26.484375 43.71875 C 26.15625 44.242188 25.425781 44.851562 24.84375 45.0625 C 24.765625 45.09375 24.488281 45.183594 24.421875 45.175781 C 24.371094 45.171875 24.328125 45.121094 24.265625 45.140625 C 24.238281 44.902344 24.351562 44.988281 24.496094 44.964844 C 24.894531 44.898438 25.65625 44.363281 25.914062 44.039062 C 26.078125 43.835938 26.226562 43.484375 26.320312 43.234375 C 26.496094 42.746094 26.5625 41.984375 26.960938 41.644531 C 27.269531 41.378906 27.796875 41.21875 28.1875 41.164062 C 28.734375 41.085938 29.484375 41.171875 29.992188 40.980469 C 30.703125 40.71875 30.710938 40.066406 31.015625 39.484375 C 31.25 39.03125 31.894531 38.332031 32.417969 38.257812 C 32.488281 38.246094 32.769531 38.265625 32.785156 38.253906 C 32.789062 38.25 32.789062 38.113281 32.785156 38.109375 C 32.757812 38.082031 32.136719 38.117188 32.019531 38.109375 C 30.730469 38.035156 29.105469 37.609375 27.871094 37.144531 C 26.835938 36.757812 25.152344 35.777344 24.980469 34.574219 C 24.921875 34.175781 25.207031 33.621094 25.542969 33.40625 C 26.09375 33.050781 26.800781 33.023438 27.402344 33.25 C 28.496094 33.660156 29.835938 34.738281 30.726562 35.5 C 31.164062 35.875 31.765625 36.386719 32.128906 36.832031 C 32.160156 36.871094 32.199219 36.933594 32.234375 36.976562 C 32.316406 37.078125 32.613281 37.386719 32.710938 37.453125 C 32.734375 37.472656 32.839844 37.523438 32.855469 37.507812 C 32.929688 37.210938 33.148438 36.964844 33.476562 37.007812 C 33.53125 37.015625 33.6875 37.136719 33.722656 37.1875 C 33.742188 37.214844 33.796875 37.320312 33.808594 37.351562 C 33.820312 37.390625 33.789062 37.457031 33.828125 37.46875 C 33.914062 37.410156 34.011719 37.367188 34.097656 37.308594 C 34.628906 36.929688 35.226562 36.332031 35.710938 35.871094 C 37.085938 34.582031 39.035156 32.265625 40.898438 31.863281 C 41.496094 31.734375 42.3125 31.941406 42.648438 32.488281 C 42.6875 32.554688 42.8125 32.8125 42.824219 32.875 C 42.835938 32.925781 42.820312 32.972656 42.828125 33.015625 C 42.917969 33.582031 42.503906 34.4375 42.136719 34.878906 C 41.046875 36.1875 38.945312 37.015625 37.347656 37.507812 C 36.546875 37.753906 35.535156 38.050781 34.71875 38.109375 C 34.589844 38.117188 33.910156 38.078125 33.882812 38.109375 C 33.871094 38.121094 33.890625 38.324219 33.882812 38.378906 C 33.875 38.429688 33.828125 38.46875 33.847656 38.535156 L 34.433594 38.535156 C 34.445312 38.535156 34.601562 38.5625 34.644531 38.570312 C 36.023438 38.796875 36.265625 40.050781 37.023438 40.984375 C 37.082031 41.058594 37.128906 41.152344 37.21875 41.214844 C 37.324219 41.292969 37.398438 41.289062 37.515625 41.308594 C 37.898438 41.375 38.300781 41.316406 38.691406 41.339844 C 38.839844 41.347656 39.074219 41.382812 39.222656 41.410156 C 39.855469 41.53125 40.378906 42.011719 40.621094 42.605469 C 40.695312 42.792969 40.730469 43.007812 40.808594 43.199219 C 40.910156 43.453125 41.160156 43.832031 41.429688 43.925781 C 41.695312 44.019531 42.054688 44.070312 42.347656 44.109375 C 42.390625 44.113281 42.414062 44.140625 42.453125 44.144531 C 42.613281 44.160156 42.925781 44.109375 43.054688 44.144531 C 43.085938 44.15625 43.179688 44.285156 43.179688 44.304688 C 43.179688 44.308594 43.105469 44.386719 43.089844 44.390625 C 43.003906 44.414062 42.503906 44.402344 42.382812 44.390625 C 42.339844 44.390625 42.316406 44.359375 42.277344 44.351562 C 41.523438 44.277344 40.679688 44.167969 40.238281 43.445312 C 39.964844 42.992188 39.835938 42.367188 39.21875 42.226562 C 38.808594 42.132812 38.304688 42.214844 37.871094 42.191406 C 37.757812 42.183594 37.566406 42.140625 37.445312 42.121094 C 37.011719 42.054688 36.722656 41.859375 36.4375 41.53125 C 35.917969 40.941406 35.527344 39.746094 34.945312 39.332031 C 34.683594 39.140625 34.183594 39.066406 33.867188 39.023438 C 33.851562 39.023438 33.839844 38.992188 33.792969 38.992188 C 33.757812 38.992188 33.785156 39.035156 33.769531 39.078125 C 33.757812 39.113281 33.691406 39.25 33.667969 39.261719 C 33.65625 39.269531 33.566406 39.304688 33.539062 39.3125 C 33.511719 39.316406 33.324219 39.25 33.3125 39.242188 C 33.308594 39.234375 33.3125 39.195312 33.296875 39.171875 C 33.269531 39.132812 33.179688 39.117188 33.136719 39.085938 C 33.058594 39.027344 32.949219 38.832031 32.902344 38.820312 C 32.777344 38.785156 32.660156 38.878906 32.53125 38.855469 C 32.746094 39.066406 32.660156 39.371094 32.671875 39.652344 C 32.753906 41.257812 32.714844 42.960938 32.640625 44.585938 C 32.601562 45.453125 32.570312 46.378906 32.496094 47.246094 C 32.488281 47.339844 32.515625 47.492188 32.496094 47.566406 C 32.472656 47.644531 32.40625 47.585938 32.355469 47.585938 C 32.371094 47.542969 32.320312 47.5 32.320312 47.496094 C 32.320312 47.410156 32.339844 46.929688 32.320312 46.910156 Z M 34.957031 37.398438 C 35.058594 37.425781 35.144531 37.375 35.222656 37.363281 C 36.96875 37.105469 39.125 36.160156 40.601562 35.179688 C 41.160156 34.8125 41.953125 34.023438 42.050781 33.332031 C 42.089844 33.074219 42.019531 32.882812 41.808594 32.730469 C 41.671875 32.632812 41.546875 32.632812 41.398438 32.609375 C 41.347656 32.601562 41.324219 32.566406 41.257812 32.570312 C 41.085938 32.585938 40.824219 32.652344 40.660156 32.71875 C 38.84375 33.441406 37.453125 35.382812 36.019531 36.5625 C 35.785156 36.757812 35.554688 36.953125 35.3125 37.132812 C 35.195312 37.222656 35.046875 37.28125 34.957031 37.398438 Z M 32.257812 37.472656 C 32.144531 37.429688 31.996094 37.355469 31.890625 37.289062 C 30.355469 36.335938 28.96875 34.632812 27.300781 33.960938 C 26.945312 33.816406 26.628906 33.71875 26.246094 33.820312 C 26.097656 33.859375 26.019531 33.921875 25.90625 34.011719 C 25.882812 34.03125 25.84375 34.023438 25.839844 34.03125 C 25.832031 34.039062 25.84375 34.0625 25.832031 34.074219 C 25.738281 34.203125 25.746094 34.207031 25.726562 34.359375 C 25.726562 34.378906 25.6875 34.394531 25.695312 34.429688 C 25.699219 34.449219 25.722656 34.460938 25.726562 34.476562 C 25.75 34.691406 25.871094 34.90625 26.011719 35.074219 C 26.960938 36.226562 28.996094 36.71875 30.394531 37.085938 C 30.941406 37.226562 31.5625 37.40625 32.105469 37.503906 C 32.140625 37.507812 32.269531 37.535156 32.261719 37.472656 Z M 32.257812 37.472656 "/></g><g clip-rule="nonzero" clip-path="url(#d0f9dbc07f)"><path style=" stroke:none;fill-rule:nonzero;fill:#935d37;fill-opacity:1;" d="M 15.578125 42.371094 C 15.554688 42.347656 15.332031 42.433594 15.277344 42.441406 C 15.246094 42.449219 15.210938 42.441406 15.171875 42.445312 C 14.226562 42.589844 13.242188 42.566406 12.296875 42.730469 C 11.804688 42.8125 10.660156 43.074219 10.410156 43.539062 C 10.296875 43.753906 10.347656 43.832031 10.535156 43.949219 C 11.417969 44.496094 13.191406 44.695312 14.210938 44.78125 C 16.578125 44.984375 19.371094 45.171875 21.660156 44.496094 C 22.121094 44.359375 22.667969 44.152344 22.886719 43.699219 C 22.851562 43.589844 22.839844 43.484375 22.777344 43.386719 C 22.746094 43.335938 22.652344 43.242188 22.605469 43.203125 C 22.25 42.929688 21.664062 42.863281 21.242188 42.789062 C 20.113281 42.601562 18.957031 42.527344 17.828125 42.332031 C 17.746094 42.316406 17.675781 42.363281 17.613281 42.261719 C 17.582031 42.265625 17.597656 42.320312 17.597656 42.351562 C 17.59375 42.535156 17.542969 42.847656 17.558594 42.988281 C 17.566406 43.039062 17.644531 43.148438 17.507812 43.148438 C 17.4375 43.148438 17.390625 43.050781 17.382812 42.988281 C 17.351562 42.765625 17.40625 42.476562 17.386719 42.242188 C 17.382812 42.203125 17.355469 42.183594 17.351562 42.167969 C 17.070312 39.902344 17.3125 37.628906 17.238281 35.320312 C 17.273438 35.195312 17.316406 35.140625 17.453125 35.164062 C 17.460938 35.242188 17.519531 35.351562 17.527344 35.425781 C 17.570312 35.832031 17.574219 36.261719 17.59375 36.671875 C 17.6875 38.371094 17.722656 40.195312 17.628906 41.921875 C 17.628906 41.988281 17.636719 42.054688 17.628906 42.121094 C 17.976562 42.132812 18.332031 42.105469 18.679688 42.121094 C 19.484375 42.152344 20.375 42.246094 21.167969 42.367188 C 21.808594 42.464844 22.769531 42.582031 23.148438 43.1875 C 23.242188 43.332031 23.269531 43.46875 23.3125 43.628906 C 23.28125 43.742188 23.273438 43.867188 23.234375 43.980469 C 23.050781 44.492188 22.28125 44.804688 21.796875 44.957031 C 18.949219 45.851562 15.289062 45.484375 12.394531 45.03125 C 11.667969 44.914062 10.660156 44.8125 10.066406 44.304688 C 10.035156 44.277344 10.035156 44.238281 10.015625 44.214844 C 9.878906 44.0625 9.859375 44.050781 9.816406 43.84375 C 9.8125 43.828125 9.789062 43.816406 9.785156 43.800781 C 9.769531 43.703125 9.835938 43.628906 9.820312 43.527344 C 10.195312 42.621094 11.335938 42.320312 12.210938 42.191406 C 13.152344 42.050781 14.03125 42.089844 14.984375 42.050781 C 15.125 42.042969 15.277344 41.996094 15.445312 42.011719 C 15.484375 42.015625 15.523438 42.058594 15.53125 42.050781 C 15.535156 42.042969 15.527344 41.996094 15.535156 41.964844 C 15.601562 41.71875 15.578125 41.242188 15.570312 40.964844 C 15.542969 39.941406 15.480469 38.96875 15.496094 37.914062 C 15.496094 37.890625 15.496094 37.785156 15.5 37.777344 C 15.671875 36.863281 15.398438 35.644531 15.566406 34.71875 C 15.582031 34.625 15.640625 34.519531 15.636719 34.417969 C 15.449219 34.574219 15.253906 34.777344 15.125 34.984375 C 14.867188 35.40625 14.808594 35.921875 14.570312 36.347656 C 14.246094 36.925781 13.710938 37.226562 13.066406 37.332031 C 12.332031 37.449219 10.960938 37.207031 10.4375 37.863281 C 10.15625 38.210938 9.976562 38.777344 9.730469 39.175781 C 9.402344 39.699219 8.671875 40.308594 8.089844 40.519531 C 8.011719 40.550781 7.734375 40.636719 7.667969 40.632812 C 7.617188 40.628906 7.574219 40.578125 7.511719 40.59375 C 7.484375 40.359375 7.597656 40.441406 7.742188 40.417969 C 8.140625 40.355469 8.902344 39.820312 9.160156 39.496094 C 9.324219 39.292969 9.472656 38.941406 9.566406 38.691406 C 9.742188 38.199219 9.808594 37.441406 10.207031 37.101562 C 10.515625 36.835938 11.042969 36.675781 11.433594 36.621094 C 11.980469 36.542969 12.730469 36.628906 13.238281 36.4375 C 13.949219 36.171875 13.957031 35.523438 14.261719 34.9375 C 14.496094 34.484375 15.140625 33.789062 15.664062 33.714844 C 15.734375 33.703125 16.015625 33.722656 16.03125 33.710938 C 16.035156 33.703125 16.035156 33.570312 16.03125 33.566406 C 16.003906 33.539062 15.382812 33.574219 15.265625 33.566406 C 13.976562 33.492188 12.351562 33.066406 11.117188 32.601562 C 10.082031 32.214844 8.398438 31.234375 8.226562 30.03125 C 8.167969 29.632812 8.453125 29.078125 8.789062 28.863281 C 9.339844 28.507812 10.046875 28.480469 10.648438 28.707031 C 11.691406 29.097656 12.90625 30.070312 13.757812 30.78125 C 14.265625 31.203125 14.953125 31.773438 15.375 32.289062 C 15.40625 32.328125 15.445312 32.390625 15.480469 32.433594 C 15.5625 32.535156 15.859375 32.839844 15.957031 32.910156 C 15.980469 32.925781 16.085938 32.980469 16.101562 32.964844 C 16.175781 32.664062 16.394531 32.417969 16.722656 32.464844 C 16.777344 32.472656 16.933594 32.59375 16.96875 32.640625 C 16.988281 32.671875 17.042969 32.773438 17.054688 32.804688 C 17.066406 32.847656 17.035156 32.914062 17.074219 32.925781 C 17.160156 32.867188 17.257812 32.824219 17.34375 32.765625 C 17.875 32.382812 18.472656 31.785156 18.957031 31.328125 C 20.332031 30.039062 22.28125 27.722656 24.144531 27.320312 C 24.742188 27.191406 25.558594 27.398438 25.894531 27.941406 C 25.933594 28.007812 26.058594 28.265625 26.070312 28.332031 C 26.082031 28.382812 26.066406 28.429688 26.074219 28.472656 C 26.164062 29.039062 25.75 29.890625 25.382812 30.335938 C 24.292969 31.644531 22.191406 32.472656 20.59375 32.964844 C 19.792969 33.210938 18.78125 33.507812 17.964844 33.566406 C 17.835938 33.574219 17.15625 33.535156 17.128906 33.566406 C 17.117188 33.578125 17.136719 33.78125 17.128906 33.832031 C 17.121094 33.886719 17.074219 33.925781 17.09375 33.992188 L 17.679688 33.992188 C 17.691406 33.992188 17.847656 34.019531 17.894531 34.027344 C 19.269531 34.253906 19.511719 35.507812 20.269531 36.441406 C 20.328125 36.511719 20.375 36.609375 20.464844 36.671875 C 20.570312 36.75 20.644531 36.746094 20.761719 36.765625 C 21.144531 36.832031 21.546875 36.769531 21.9375 36.792969 C 22.085938 36.804688 22.320312 36.835938 22.46875 36.867188 C 23.101562 36.984375 23.625 37.46875 23.867188 38.0625 C 23.941406 38.25 23.976562 38.464844 24.054688 38.65625 C 24.15625 38.910156 24.40625 39.289062 24.675781 39.382812 C 24.941406 39.476562 25.300781 39.527344 25.59375 39.5625 C 25.636719 39.570312 25.660156 39.597656 25.699219 39.601562 C 25.859375 39.617188 26.171875 39.566406 26.300781 39.601562 C 26.332031 39.609375 26.425781 39.742188 26.425781 39.757812 C 26.425781 39.765625 26.351562 39.84375 26.335938 39.84375 C 26.25 39.871094 25.75 39.855469 25.628906 39.847656 C 25.585938 39.84375 25.5625 39.8125 25.523438 39.808594 C 24.769531 39.734375 23.925781 39.625 23.484375 38.902344 C 23.210938 38.449219 23.082031 37.824219 22.464844 37.683594 C 22.054688 37.589844 21.550781 37.671875 21.117188 37.644531 C 21.003906 37.636719 20.8125 37.597656 20.691406 37.578125 C 20.257812 37.511719 19.96875 37.316406 19.683594 36.988281 C 19.164062 36.398438 18.773438 35.199219 18.191406 34.785156 C 17.929688 34.597656 17.429688 34.523438 17.113281 34.480469 C 17.097656 34.480469 17.085938 34.449219 17.039062 34.449219 C 17.003906 34.449219 17.03125 34.492188 17.015625 34.535156 C 17.003906 34.570312 16.9375 34.703125 16.914062 34.71875 C 16.902344 34.726562 16.8125 34.761719 16.785156 34.765625 C 16.757812 34.773438 16.570312 34.707031 16.5625 34.699219 C 16.554688 34.691406 16.5625 34.652344 16.542969 34.628906 C 16.515625 34.589844 16.425781 34.574219 16.382812 34.539062 C 16.304688 34.484375 16.195312 34.289062 16.148438 34.277344 C 16.023438 34.242188 15.90625 34.335938 15.777344 34.308594 C 15.992188 34.523438 15.90625 34.828125 15.917969 35.109375 C 16 36.714844 15.960938 38.417969 15.886719 40.042969 C 15.847656 40.910156 15.816406 41.835938 15.742188 42.703125 C 15.734375 42.792969 15.761719 42.949219 15.742188 43.023438 C 15.71875 43.101562 15.652344 43.039062 15.601562 43.039062 C 15.617188 42.996094 15.566406 42.957031 15.566406 42.953125 C 15.566406 42.867188 15.585938 42.386719 15.566406 42.367188 Z M 18.203125 32.855469 C 18.304688 32.882812 18.390625 32.832031 18.46875 32.820312 C 20.214844 32.5625 22.371094 31.617188 23.847656 30.636719 C 24.40625 30.269531 25.199219 29.480469 25.296875 28.789062 C 25.335938 28.527344 25.269531 28.339844 25.054688 28.1875 C 24.917969 28.089844 24.792969 28.089844 24.644531 28.066406 C 24.59375 28.058594 24.570312 28.019531 24.503906 28.027344 C 24.332031 28.042969 24.070312 28.109375 23.90625 28.175781 C 22.089844 28.898438 20.699219 30.839844 19.265625 32.019531 C 19.03125 32.214844 18.800781 32.40625 18.558594 32.589844 C 18.441406 32.675781 18.292969 32.738281 18.203125 32.855469 Z M 15.503906 32.925781 C 15.390625 32.886719 15.242188 32.8125 15.136719 32.746094 C 13.601562 31.789062 12.214844 30.089844 10.546875 29.417969 C 10.191406 29.273438 9.875 29.175781 9.492188 29.273438 C 9.34375 29.316406 9.265625 29.378906 9.152344 29.46875 C 9.128906 29.488281 9.089844 29.480469 9.085938 29.488281 C 9.078125 29.492188 9.089844 29.519531 9.078125 29.53125 C 8.984375 29.660156 8.992188 29.664062 8.972656 29.816406 C 8.972656 29.835938 8.9375 29.851562 8.941406 29.886719 C 8.945312 29.902344 8.96875 29.914062 8.972656 29.933594 C 8.996094 30.148438 9.117188 30.359375 9.257812 30.53125 C 10.207031 31.683594 12.242188 32.175781 13.640625 32.542969 C 14.1875 32.683594 14.808594 32.859375 15.351562 32.957031 C 15.386719 32.964844 15.515625 32.992188 15.507812 32.925781 Z M 15.503906 32.925781 "/></g><path style=" stroke:none;fill-rule:nonzero;fill:#935d37;fill-opacity:1;" d="M 37.015625 13.652344 C 37.015625 13.652344 37.070312 13.648438 37.101562 13.65625 C 37.183594 13.679688 37.183594 13.878906 37.199219 13.949219 C 37.257812 14.246094 37.382812 14.542969 37.40625 14.839844 C 37.496094 15.976562 37.476562 17.113281 37.511719 18.25 C 37.511719 18.292969 37.546875 18.316406 37.550781 18.355469 C 37.617188 20.460938 37.640625 22.570312 37.691406 24.671875 C 37.699219 24.988281 37.726562 25.496094 37.660156 25.777344 C 37.652344 25.8125 37.660156 25.847656 37.652344 25.878906 C 37.644531 25.90625 37.566406 25.980469 37.53125 25.96875 C 37.425781 25.9375 37.457031 25.640625 37.445312 25.558594 C 37.402344 25.285156 37.367188 25.0625 37.335938 24.777344 C 37.152344 22.917969 37.117188 21.011719 37.015625 19.136719 C 37.003906 18.976562 37.023438 18.816406 37.015625 18.65625 C 36.921875 18.703125 36.867188 18.808594 36.777344 18.863281 C 36.476562 19.0625 35.996094 19.167969 35.648438 19.226562 C 35.078125 19.316406 34.527344 19.308594 33.941406 19.328125 C 32.785156 19.375 31.652344 19.460938 30.5 19.296875 C 30.230469 19.257812 29.722656 19.175781 29.476562 19.078125 C 29.410156 19.050781 29.367188 19.007812 29.3125 18.976562 C 29.320312 19.476562 29.300781 19.984375 29.3125 20.484375 C 29.351562 22.328125 29.449219 24.179688 29.527344 26.023438 C 29.558594 26.757812 29.632812 27.53125 29.597656 28.257812 C 29.585938 28.429688 29.613281 28.539062 29.386719 28.523438 C 29.386719 28.457031 29.332031 28.382812 29.320312 28.324219 C 29.253906 28.0625 29.242188 27.773438 29.207031 27.507812 C 29.019531 25.929688 28.964844 24.316406 28.890625 22.71875 C 28.773438 20.277344 28.679688 17.753906 28.921875 15.332031 C 28.972656 14.816406 29.015625 14.285156 29.105469 13.777344 C 29.105469 13.757812 29.152344 13.730469 29.136719 13.683594 C 29.316406 13.699219 29.195312 13.652344 29.222656 13.613281 C 29.285156 13.511719 29.375 13.453125 29.421875 13.59375 C 29.523438 13.902344 29.996094 14.109375 30.296875 14.210938 C 31.671875 14.679688 33.710938 14.71875 35.117188 14.433594 C 35.472656 14.359375 36.277344 14.125 36.570312 13.929688 C 36.621094 13.894531 36.796875 13.65625 36.839844 13.808594 C 36.859375 13.882812 36.828125 13.902344 36.804688 13.949219 C 36.558594 14.414062 36.191406 14.53125 35.726562 14.683594 C 34.605469 15.039062 33.34375 15.015625 32.175781 14.890625 C 31.464844 14.8125 29.847656 14.570312 29.367188 14.003906 C 29.351562 13.984375 29.328125 13.898438 29.296875 13.898438 C 29.226562 13.894531 29.25 14.085938 29.246094 14.128906 C 29.1875 14.546875 29.179688 14.695312 29.210938 15.121094 C 29.285156 16.164062 29.234375 17.234375 29.28125 18.28125 C 29.28125 18.320312 29.28125 18.359375 29.332031 18.335938 C 29.394531 18.304688 29.488281 18.199219 29.550781 18.160156 C 29.90625 17.945312 30.453125 17.867188 30.855469 17.796875 C 31.488281 17.691406 32.164062 17.609375 32.8125 17.585938 C 34.148438 17.535156 35.570312 17.519531 36.898438 17.726562 C 37.097656 17.757812 36.980469 17.707031 36.988281 17.644531 C 37.066406 17.070312 36.964844 16.101562 36.949219 15.476562 C 36.9375 14.945312 36.890625 14.371094 36.945312 13.773438 C 36.949219 13.734375 36.992188 13.691406 36.984375 13.683594 C 36.972656 13.675781 36.902344 13.699219 36.875 13.667969 L 36.765625 13.4375 C 36.257812 13.113281 35.640625 12.917969 35.050781 12.796875 C 33.726562 12.527344 32.304688 12.558594 30.996094 12.933594 C 30.558594 13.015625 30.1875 13.277344 29.796875 13.472656 C 29.566406 13.507812 29.484375 13.398438 29.53125 13.171875 C 29.558594 13.039062 29.835938 12.925781 29.941406 12.835938 C 31.523438 12.097656 33.546875 12.003906 35.226562 12.40625 C 35.707031 12.519531 36.714844 12.84375 37 13.257812 C 37.054688 13.339844 37.039062 13.417969 37.085938 13.492188 C 37.09375 13.539062 37.003906 13.636719 37.015625 13.648438 Z M 29.597656 18.65625 L 29.898438 18.730469 C 31.53125 18.949219 33.136719 18.902344 34.796875 18.796875 C 35.367188 18.761719 35.992188 18.746094 36.53125 18.511719 C 36.699219 18.4375 36.894531 18.273438 36.835938 18.074219 C 36.828125 18.039062 36.785156 18.023438 36.75 18.019531 C 36.542969 17.988281 36.257812 18.027344 36.039062 18.019531 C 34.277344 17.957031 32.488281 17.941406 30.78125 18.261719 C 30.453125 18.324219 30.070312 18.386719 29.761719 18.519531 C 29.726562 18.535156 29.566406 18.632812 29.597656 18.65625 Z M 29.597656 18.65625 "/><path style=" stroke:none;fill-rule:nonzero;fill:#935d37;fill-opacity:1;" d="M 20.261719 9.109375 C 20.261719 9.109375 20.320312 9.105469 20.347656 9.113281 C 20.429688 9.136719 20.429688 9.335938 20.445312 9.40625 C 20.503906 9.703125 20.628906 9.996094 20.65625 10.296875 C 20.742188 11.433594 20.722656 12.570312 20.757812 13.707031 C 20.757812 13.746094 20.796875 13.773438 20.796875 13.8125 C 20.863281 15.917969 20.886719 18.023438 20.9375 20.128906 C 20.945312 20.445312 20.972656 20.953125 20.90625 21.234375 C 20.898438 21.269531 20.90625 21.304688 20.898438 21.335938 C 20.890625 21.359375 20.8125 21.4375 20.777344 21.425781 C 20.671875 21.394531 20.703125 21.097656 20.691406 21.015625 C 20.648438 20.742188 20.613281 20.519531 20.582031 20.234375 C 20.398438 18.375 20.363281 16.46875 20.261719 14.59375 C 20.25 14.433594 20.269531 14.273438 20.261719 14.113281 C 20.167969 14.160156 20.113281 14.261719 20.023438 14.320312 C 19.722656 14.519531 19.242188 14.625 18.894531 14.683594 C 18.324219 14.773438 17.773438 14.761719 17.1875 14.785156 C 16.03125 14.828125 14.898438 14.917969 13.746094 14.753906 C 13.476562 14.714844 12.96875 14.632812 12.722656 14.535156 C 12.65625 14.507812 12.613281 14.464844 12.558594 14.433594 C 12.566406 14.933594 12.546875 15.441406 12.558594 15.941406 C 12.597656 17.785156 12.695312 19.636719 12.773438 21.476562 C 12.804688 22.214844 12.878906 22.988281 12.84375 23.714844 C 12.832031 23.886719 12.859375 23.996094 12.632812 23.980469 C 12.632812 23.914062 12.578125 23.839844 12.566406 23.78125 C 12.5 23.519531 12.488281 23.230469 12.453125 22.964844 C 12.265625 21.386719 12.210938 19.773438 12.136719 18.171875 C 12.019531 15.734375 11.925781 13.210938 12.167969 10.789062 C 12.21875 10.273438 12.261719 9.738281 12.351562 9.234375 C 12.351562 9.214844 12.398438 9.1875 12.382812 9.140625 C 12.5625 9.15625 12.441406 9.109375 12.46875 9.070312 C 12.53125 8.96875 12.621094 8.910156 12.667969 9.050781 C 12.769531 9.355469 13.242188 9.566406 13.542969 9.667969 C 14.917969 10.136719 16.957031 10.171875 18.363281 9.886719 C 18.71875 9.816406 19.523438 9.582031 19.816406 9.386719 C 19.867188 9.351562 20.042969 9.113281 20.085938 9.265625 C 20.105469 9.335938 20.074219 9.359375 20.050781 9.40625 C 19.804688 9.871094 19.4375 9.988281 18.972656 10.136719 C 17.851562 10.496094 16.589844 10.472656 15.421875 10.34375 C 14.710938 10.269531 13.09375 10.027344 12.613281 9.460938 C 12.597656 9.441406 12.574219 9.355469 12.542969 9.355469 C 12.472656 9.351562 12.496094 9.542969 12.492188 9.585938 C 12.433594 10.003906 12.425781 10.152344 12.457031 10.578125 C 12.53125 11.621094 12.480469 12.691406 12.527344 13.738281 C 12.527344 13.777344 12.527344 13.816406 12.578125 13.789062 C 12.640625 13.761719 12.734375 13.65625 12.796875 13.617188 C 13.152344 13.402344 13.703125 13.324219 14.101562 13.253906 C 14.734375 13.148438 15.414062 13.066406 16.058594 13.042969 C 17.394531 12.992188 18.816406 12.976562 20.144531 13.183594 C 20.34375 13.214844 20.226562 13.160156 20.234375 13.101562 C 20.3125 12.527344 20.210938 11.558594 20.195312 10.929688 C 20.183594 10.402344 20.136719 9.824219 20.191406 9.226562 C 20.195312 9.191406 20.238281 9.148438 20.230469 9.140625 C 20.21875 9.132812 20.148438 9.15625 20.121094 9.125 L 20.011719 8.894531 C 19.503906 8.570312 18.890625 8.375 18.296875 8.253906 C 16.972656 7.980469 15.550781 8.015625 14.242188 8.390625 C 13.804688 8.472656 13.433594 8.730469 13.042969 8.929688 C 12.8125 8.964844 12.730469 8.855469 12.777344 8.628906 C 12.804688 8.496094 13.082031 8.382812 13.1875 8.292969 C 14.769531 7.550781 16.792969 7.460938 18.472656 7.863281 C 18.953125 7.976562 19.960938 8.300781 20.246094 8.714844 C 20.300781 8.792969 20.285156 8.875 20.332031 8.949219 C 20.339844 8.996094 20.25 9.09375 20.261719 9.105469 Z M 12.84375 14.113281 L 13.144531 14.1875 C 14.777344 14.40625 16.382812 14.359375 18.042969 14.253906 C 18.613281 14.21875 19.238281 14.199219 19.777344 13.96875 C 19.945312 13.894531 20.140625 13.730469 20.082031 13.527344 C 20.074219 13.496094 20.03125 13.480469 19.996094 13.472656 C 19.789062 13.445312 19.507812 13.484375 19.285156 13.476562 C 17.523438 13.410156 15.734375 13.398438 14.027344 13.71875 C 13.699219 13.78125 13.316406 13.84375 13.007812 13.976562 C 12.972656 13.992188 12.8125 14.089844 12.84375 14.113281 Z M 12.84375 14.113281 "/><g clip-rule="nonzero" clip-path="url(#8bdcb4f466)"><path style=" stroke:none;fill-rule:nonzero;fill:#935d37;fill-opacity:1;" d="M 44.292969 9.429688 C 44.277344 9.445312 44.082031 9.484375 44.03125 9.503906 C 43.871094 9.574219 43.570312 9.707031 43.441406 9.800781 C 43.207031 9.972656 43.144531 10.414062 43.082031 10.683594 C 42.964844 11.199219 42.875 11.734375 42.773438 12.253906 C 42.761719 12.296875 42.742188 12.503906 42.730469 12.515625 C 42.726562 12.519531 42.625 12.550781 42.609375 12.550781 C 42.566406 12.554688 42.527344 12.554688 42.5 12.515625 C 42.484375 12.496094 42.417969 12.398438 42.414062 12.390625 C 42.382812 12.277344 42.421875 12 42.414062 11.859375 C 42.40625 11.746094 42.347656 11.546875 42.339844 11.433594 C 42.3125 11.003906 42.414062 10.492188 42.265625 10.089844 C 42.222656 9.972656 42.160156 9.867188 42.035156 9.820312 C 42.007812 9.8125 41.972656 9.820312 41.9375 9.8125 C 41.707031 9.765625 41.523438 9.800781 41.292969 9.785156 C 41.199219 9.777344 41.042969 9.726562 40.941406 9.710938 C 40.898438 9.703125 40.84375 9.722656 40.800781 9.710938 C 40.785156 9.707031 40.710938 9.628906 40.710938 9.625 C 40.710938 9.617188 40.75 9.542969 40.765625 9.535156 C 40.851562 9.5 40.960938 9.410156 41.011719 9.398438 C 41.253906 9.339844 41.511719 9.375 41.753906 9.316406 C 41.941406 9.273438 42.035156 9 42.089844 8.839844 C 42.199219 8.484375 42.417969 7.765625 42.449219 7.425781 C 42.472656 7.175781 42.429688 6.898438 42.449219 6.644531 C 42.492188 6.578125 42.582031 6.5 42.644531 6.585938 C 42.742188 6.730469 42.679688 7.058594 42.695312 7.246094 C 42.71875 7.550781 42.835938 7.855469 42.835938 8.167969 C 42.902344 8.355469 42.859375 8.609375 42.960938 8.792969 C 43 8.863281 43.238281 9.050781 43.320312 9.070312 C 43.371094 9.082031 43.417969 9.066406 43.460938 9.074219 C 43.640625 9.105469 43.84375 9.160156 44.023438 9.183594 C 44.164062 9.199219 44.269531 9.125 44.328125 9.308594 C 44.328125 9.3125 44.296875 9.421875 44.292969 9.429688 Z M 43.40625 9.429688 C 43.144531 9.414062 42.894531 9.28125 42.769531 9.050781 L 42.589844 8.644531 C 42.511719 8.902344 42.429688 9.28125 42.199219 9.445312 C 42.167969 9.46875 42.125 9.449219 42.125 9.480469 C 42.183594 9.558594 42.339844 9.574219 42.394531 9.636719 C 42.429688 9.683594 42.578125 9.992188 42.609375 10.0625 C 42.679688 10.246094 42.710938 10.4375 42.695312 10.632812 L 42.761719 10.433594 C 42.828125 10.128906 42.863281 9.796875 43.121094 9.585938 L 43.402344 9.425781 Z M 42.695312 10.847656 C 42.695312 10.847656 42.699219 10.710938 42.695312 10.707031 C 42.644531 10.648438 42.644531 10.90625 42.695312 10.847656 Z M 42.695312 10.847656 "/></g><path style=" stroke:none;fill-rule:nonzero;fill:#935d37;fill-opacity:1;" d="M 30.148438 20.503906 C 30.308594 20.457031 30.332031 20.78125 30.347656 20.871094 C 30.632812 22.621094 30.550781 24.539062 30.59375 26.339844 C 30.601562 26.710938 30.546875 27.203125 30.589844 27.550781 C 30.601562 27.636719 30.707031 27.867188 30.75 27.960938 C 30.867188 28.226562 31.023438 28.527344 31.164062 28.789062 C 31.183594 28.820312 31.222656 28.84375 31.230469 28.863281 C 31.261719 28.96875 31.132812 29.050781 31.058594 28.929688 C 30.832031 28.589844 30.683594 28.183594 30.480469 27.835938 C 30.378906 27.664062 30.167969 27.457031 30.136719 27.261719 C 30.125 27.203125 30.140625 27.140625 30.132812 27.085938 C 30.066406 26.605469 30.042969 26.09375 30.058594 25.597656 C 30.074219 25.101562 30.113281 24.535156 30.132812 24.074219 C 30.160156 23.296875 30.074219 22.535156 30.058594 21.765625 C 30.046875 21.386719 30.066406 21.007812 30.058594 20.628906 C 30.050781 20.589844 30.121094 20.511719 30.148438 20.503906 Z M 30.148438 20.503906 "/><path style=" stroke:none;fill-rule:nonzero;fill:#935d37;fill-opacity:1;" d="M 13.394531 15.960938 C 13.550781 15.914062 13.578125 16.234375 13.589844 16.328125 C 13.878906 18.078125 13.796875 19.996094 13.835938 21.796875 C 13.847656 22.167969 13.789062 22.660156 13.835938 23.007812 C 13.84375 23.089844 13.953125 23.320312 13.996094 23.414062 C 14.113281 23.683594 14.269531 23.984375 14.410156 24.246094 C 14.425781 24.277344 14.46875 24.300781 14.472656 24.320312 C 14.503906 24.421875 14.378906 24.507812 14.300781 24.386719 C 14.078125 24.046875 13.929688 23.640625 13.726562 23.292969 C 13.625 23.121094 13.414062 22.914062 13.378906 22.71875 C 13.371094 22.65625 13.382812 22.597656 13.378906 22.542969 C 13.3125 22.0625 13.289062 21.550781 13.304688 21.054688 C 13.316406 20.558594 13.359375 19.992188 13.375 19.527344 C 13.402344 18.753906 13.320312 17.992188 13.300781 17.222656 C 13.292969 16.84375 13.308594 16.460938 13.300781 16.082031 C 13.296875 16.046875 13.367188 15.96875 13.390625 15.960938 Z M 13.394531 15.960938 "/><path style=" stroke:none;fill-rule:nonzero;fill:#935d37;fill-opacity:1;" d="M 24.414062 3.144531 C 24.425781 3.15625 24.410156 3.359375 24.414062 3.414062 C 24.4375 3.640625 24.449219 3.667969 24.414062 3.90625 C 24.40625 3.976562 24.46875 4.226562 24.484375 4.335938 C 24.523438 4.59375 24.582031 4.832031 24.625 5.085938 C 24.65625 5.261719 24.609375 5.433594 24.855469 5.457031 C 25.140625 5.609375 25.4375 5.738281 25.765625 5.773438 C 25.820312 6.09375 25.535156 5.960938 25.320312 5.984375 C 25.253906 5.992188 25.140625 6.050781 25.074219 6.058594 C 24.878906 6.082031 24.730469 5.992188 24.632812 6.222656 C 24.59375 6.3125 24.527344 6.546875 24.519531 6.640625 C 24.472656 7.113281 24.503906 7.59375 24.488281 8.066406 C 24.480469 8.289062 24.441406 8.53125 24.410156 8.769531 C 24.386719 8.96875 24.34375 9.234375 24.34375 9.449219 C 24.34375 9.503906 24.375 9.589844 24.289062 9.574219 C 24.199219 9.5 24.246094 9.378906 24.234375 9.273438 C 24.226562 9.21875 24.171875 9.117188 24.164062 9.058594 C 24.140625 8.847656 24.144531 8.597656 24.128906 8.382812 C 24.101562 7.96875 24.027344 7.589844 23.988281 7.179688 C 23.96875 6.996094 24.003906 6.789062 23.992188 6.609375 C 23.984375 6.503906 23.929688 6.332031 23.917969 6.21875 C 23.898438 6.082031 23.941406 5.917969 23.777344 5.828125 C 23.761719 5.816406 23.660156 5.78125 23.652344 5.78125 C 23.640625 5.78125 23.617188 5.8125 23.582031 5.8125 C 23.394531 5.8125 23.214844 5.804688 23.046875 5.8125 C 22.847656 5.820312 22.714844 5.855469 22.746094 5.617188 C 22.75 5.582031 22.761719 5.609375 22.792969 5.59375 C 22.828125 5.578125 22.878906 5.539062 22.910156 5.53125 C 23.105469 5.484375 23.25 5.449219 23.441406 5.390625 C 23.578125 5.347656 23.816406 5.296875 23.929688 5.238281 C 23.953125 5.226562 24.066406 5.121094 24.078125 5.101562 C 24.09375 5.070312 24.160156 4.871094 24.167969 4.835938 C 24.179688 4.71875 24.136719 4.59375 24.136719 4.515625 C 24.136719 4.304688 24.246094 4.136719 24.238281 3.875 C 24.230469 3.660156 24.234375 3.5 24.273438 3.273438 C 24.277344 3.238281 24.261719 3.160156 24.273438 3.148438 C 24.277344 3.144531 24.410156 3.144531 24.414062 3.148438 Z M 24.308594 6.25 C 24.339844 6.390625 24.285156 6.617188 24.308594 6.765625 C 24.425781 6.796875 24.375 6.648438 24.375 6.574219 C 24.375 6.527344 24.378906 6.511719 24.382812 6.464844 C 24.386719 6.3125 24.394531 6.121094 24.453125 5.972656 C 24.546875 5.746094 24.707031 5.878906 24.804688 5.703125 C 24.640625 5.652344 24.433594 5.578125 24.414062 5.382812 C 24.335938 5.425781 24.316406 5.523438 24.238281 5.578125 C 24.199219 5.605469 24.058594 5.648438 24.058594 5.683594 C 24.058594 5.699219 24.175781 5.847656 24.199219 5.902344 C 24.230469 5.988281 24.222656 6.066406 24.242188 6.140625 C 24.25 6.175781 24.304688 6.234375 24.308594 6.25 Z M 24.308594 6.25 "/><path style=" stroke:none;fill-rule:nonzero;fill:#935d37;fill-opacity:1;" d="M 17.492188 29.058594 C 17.492188 29.058594 17.460938 28.953125 17.457031 28.9375 C 17.445312 28.851562 17.503906 28.578125 17.53125 28.476562 C 17.785156 27.527344 18.808594 25.976562 19.390625 25.152344 C 19.648438 24.789062 20.066406 24.355469 20.28125 23.984375 C 20.3125 23.933594 20.335938 23.820312 20.367188 23.75 C 20.386719 23.695312 20.367188 23.671875 20.457031 23.699219 C 20.554688 23.730469 20.488281 23.828125 20.480469 23.863281 C 20.316406 24.605469 19.960938 25.097656 19.570312 25.722656 C 19.039062 26.578125 18.488281 27.421875 17.996094 28.300781 C 17.863281 28.535156 17.746094 28.785156 17.621094 29.023438 C 17.601562 29.066406 17.507812 29.070312 17.496094 29.058594 Z M 17.492188 29.058594 "/><path style=" stroke:none;fill-rule:nonzero;fill:#935d37;fill-opacity:1;" d="M 34.246094 33.601562 C 34.246094 33.601562 34.210938 33.496094 34.210938 33.480469 C 34.199219 33.394531 34.257812 33.121094 34.285156 33.019531 C 34.539062 32.070312 35.5625 30.519531 36.144531 29.695312 C 36.402344 29.335938 36.820312 28.898438 37.035156 28.527344 C 37.066406 28.476562 37.089844 28.363281 37.121094 28.292969 C 37.140625 28.238281 37.121094 28.214844 37.210938 28.242188 C 37.308594 28.273438 37.242188 28.371094 37.234375 28.40625 C 37.070312 29.148438 36.714844 29.640625 36.324219 30.265625 C 35.792969 31.121094 35.242188 31.964844 34.75 32.84375 C 34.617188 33.078125 34.5 33.328125 34.375 33.570312 C 34.355469 33.609375 34.261719 33.613281 34.25 33.605469 Z M 34.246094 33.601562 "/><path style=" stroke:none;fill-rule:nonzero;fill:#935d37;fill-opacity:1;" d="M 15.683594 28.953125 C 15.695312 28.886719 15.636719 28.871094 15.613281 28.824219 C 15.511719 28.609375 15.433594 28.371094 15.324219 28.15625 C 14.917969 27.378906 14.328125 26.714844 13.785156 26.042969 C 13.429688 25.597656 12.925781 25.074219 12.792969 24.515625 C 12.777344 24.46875 12.773438 24.425781 12.828125 24.410156 C 12.90625 24.386719 13.011719 24.511719 13.058594 24.566406 C 13.507812 25.066406 13.933594 25.625 14.351562 26.148438 C 14.898438 26.832031 15.546875 27.539062 15.789062 28.40625 C 15.804688 28.46875 15.75 28.5 15.757812 28.539062 L 15.859375 28.828125 C 15.8125 28.910156 15.796875 28.972656 15.683594 28.949219 Z M 15.683594 28.953125 "/><path style=" stroke:none;fill-rule:nonzero;fill:#935d37;fill-opacity:1;" d="M 32.4375 33.496094 C 32.449219 33.429688 32.390625 33.414062 32.367188 33.367188 C 32.265625 33.152344 32.1875 32.914062 32.078125 32.699219 C 31.671875 31.921875 31.082031 31.257812 30.539062 30.585938 C 30.183594 30.140625 29.679688 29.617188 29.542969 29.058594 C 29.53125 29.011719 29.527344 28.96875 29.582031 28.953125 C 29.660156 28.929688 29.765625 29.058594 29.8125 29.109375 C 30.261719 29.609375 30.6875 30.167969 31.105469 30.691406 C 31.652344 31.375 32.300781 32.082031 32.542969 32.949219 C 32.558594 33.011719 32.503906 33.042969 32.511719 33.082031 L 32.613281 33.371094 C 32.566406 33.453125 32.550781 33.515625 32.4375 33.496094 Z M 32.4375 33.496094 "/><path style=" stroke:none;fill-rule:nonzero;fill:#935d37;fill-opacity:1;" d="M 14.316406 16.386719 C 14.367188 16.371094 14.460938 16.386719 14.476562 16.4375 C 14.492188 16.496094 14.441406 16.53125 14.4375 16.578125 C 14.421875 16.742188 14.457031 16.917969 14.472656 17.078125 C 14.640625 18.558594 14.5 20.058594 14.546875 21.585938 C 14.519531 21.699219 14.46875 21.949219 14.367188 21.726562 C 14.355469 21.324219 14.386719 20.921875 14.371094 20.519531 C 14.367188 20.476562 14.335938 20.453125 14.332031 20.414062 C 14.28125 19.382812 14.285156 18.351562 14.226562 17.324219 C 14.226562 17.285156 14.191406 17.257812 14.191406 17.21875 C 14.183594 17.058594 14.164062 16.683594 14.195312 16.546875 C 14.203125 16.511719 14.28125 16.394531 14.316406 16.386719 Z M 14.316406 16.386719 "/><path style=" stroke:none;fill-rule:nonzero;fill:#935d37;fill-opacity:1;" d="M 15.894531 29.273438 L 16.003906 29.679688 C 16.132812 30.417969 16.132812 31.40625 16.035156 32.164062 C 16.019531 32.277344 16.066406 32.339844 16.074219 32.414062 C 16.078125 32.5 16.085938 32.652344 16.074219 32.734375 C 16.0625 32.824219 15.953125 32.855469 15.929688 32.804688 C 15.921875 32.78125 15.90625 32.742188 15.902344 32.730469 C 15.882812 32.632812 15.875 32.414062 15.859375 32.273438 C 15.785156 31.703125 15.660156 31.234375 15.679688 30.636719 C 15.679688 30.597656 15.71875 30.570312 15.71875 30.53125 C 15.730469 30.175781 15.679688 29.734375 15.71875 29.394531 C 15.71875 29.378906 15.75 29.277344 15.753906 29.273438 C 15.761719 29.261719 15.859375 29.277344 15.894531 29.273438 Z M 15.894531 29.273438 "/><path style=" stroke:none;fill-rule:nonzero;fill:#935d37;fill-opacity:1;" d="M 32.648438 33.816406 L 32.757812 34.222656 C 32.886719 34.960938 32.886719 35.949219 32.789062 36.707031 C 32.777344 36.820312 32.824219 36.886719 32.828125 36.957031 C 32.835938 37.042969 32.839844 37.195312 32.828125 37.277344 C 32.816406 37.367188 32.707031 37.398438 32.6875 37.347656 C 32.679688 37.324219 32.660156 37.289062 32.660156 37.277344 C 32.636719 37.175781 32.632812 36.957031 32.613281 36.816406 C 32.542969 36.246094 32.414062 35.78125 32.4375 35.179688 C 32.4375 35.140625 32.472656 35.113281 32.476562 35.078125 C 32.484375 34.71875 32.433594 34.277344 32.472656 33.9375 C 32.472656 33.921875 32.503906 33.820312 32.507812 33.816406 C 32.519531 33.808594 32.617188 33.820312 32.652344 33.816406 Z M 32.648438 33.816406 "/><path style=" stroke:none;fill-rule:nonzero;fill:#935d37;fill-opacity:1;" d="M 17.632812 29.628906 C 17.632812 29.628906 17.667969 29.730469 17.671875 29.75 C 17.703125 30.007812 17.683594 30.472656 17.671875 30.746094 C 17.65625 31.074219 17.554688 31.421875 17.527344 31.734375 C 17.519531 31.820312 17.546875 31.949219 17.527344 32.019531 C 17.5 32.109375 17.367188 32.167969 17.351562 31.984375 C 17.339844 31.859375 17.363281 31.71875 17.351562 31.59375 C 17.347656 31.554688 17.316406 31.53125 17.3125 31.492188 C 17.257812 30.960938 17.261719 30.347656 17.351562 29.824219 C 17.359375 29.769531 17.421875 29.6875 17.421875 29.625 C 17.46875 29.636719 17.488281 29.597656 17.511719 29.589844 C 17.515625 29.589844 17.625 29.621094 17.628906 29.625 Z M 17.632812 29.628906 "/><path style=" stroke:none;fill-rule:nonzero;fill:#935d37;fill-opacity:1;" d="M 34.390625 34.171875 C 34.390625 34.171875 34.425781 34.277344 34.425781 34.292969 C 34.457031 34.550781 34.441406 35.015625 34.425781 35.289062 C 34.410156 35.621094 34.308594 35.964844 34.28125 36.28125 C 34.273438 36.363281 34.300781 36.492188 34.28125 36.5625 C 34.253906 36.652344 34.121094 36.714844 34.105469 36.53125 C 34.09375 36.367188 34.09375 36.226562 34.074219 36.0625 C 34.015625 35.519531 34.019531 34.902344 34.109375 34.367188 C 34.121094 34.3125 34.179688 34.234375 34.179688 34.167969 C 34.226562 34.179688 34.246094 34.140625 34.269531 34.132812 C 34.273438 34.132812 34.382812 34.164062 34.390625 34.167969 Z M 34.390625 34.171875 "/><path style=" stroke:none;fill-rule:nonzero;fill:#935d37;fill-opacity:1;" d="M 31.160156 23.414062 C 31.152344 23.425781 31.082031 23.414062 31.054688 23.394531 C 30.988281 23.355469 31.027344 23.222656 31.019531 23.144531 C 30.9375 22.484375 30.820312 21.824219 30.875 21.160156 C 30.890625 21.019531 30.820312 20.695312 31.035156 20.714844 C 31.203125 20.730469 31.082031 20.902344 31.089844 20.941406 C 31.09375 20.957031 31.117188 20.96875 31.121094 20.988281 C 31.269531 21.710938 31.164062 22.476562 31.195312 23.21875 C 31.152344 23.261719 31.164062 23.40625 31.15625 23.414062 Z M 31.160156 23.414062 "/><path style=" stroke:none;fill-rule:nonzero;fill:#935d37;fill-opacity:1;" d="M 41.773438 19.15625 C 41.6875 19.019531 41.863281 18.921875 42.003906 18.941406 C 42.042969 18.945312 42.0625 18.96875 42.078125 18.972656 C 42.140625 18.984375 42.214844 18.980469 42.273438 19.027344 C 42.28125 19.035156 42.371094 19.167969 42.375 19.175781 C 42.390625 19.234375 42.386719 19.738281 42.375 19.808594 C 42.351562 19.90625 42.167969 20.054688 42.070312 20.074219 C 41.878906 20.117188 41.585938 20.035156 41.472656 19.867188 C 41.445312 19.832031 41.394531 19.703125 41.386719 19.667969 C 41.347656 19.433594 41.523438 19.136719 41.773438 19.15625 Z M 42.058594 19.792969 C 42.058594 19.792969 42.09375 19.6875 42.09375 19.671875 C 42.101562 19.605469 42.105469 19.367188 42.089844 19.316406 C 42.085938 19.300781 41.984375 19.199219 41.964844 19.191406 C 41.941406 19.1875 41.8125 19.1875 41.808594 19.191406 C 41.800781 19.199219 41.78125 19.339844 41.769531 19.382812 C 41.742188 19.453125 41.675781 19.5 41.703125 19.597656 C 41.710938 19.621094 41.746094 19.632812 41.757812 19.652344 C 41.773438 19.679688 41.769531 19.71875 41.777344 19.722656 C 41.78125 19.726562 41.816406 19.722656 41.84375 19.742188 C 41.863281 19.75 41.875 19.785156 41.898438 19.792969 C 41.925781 19.800781 42.050781 19.800781 42.058594 19.796875 Z M 42.058594 19.792969 "/><path style=" stroke:none;fill-rule:nonzero;fill:#935d37;fill-opacity:1;" d="M 37.621094 26.183594 L 37.726562 26.554688 C 37.726562 27.03125 37.640625 27.484375 37.40625 27.90625 L 37.320312 27.992188 C 37.199219 27.878906 37.324219 27.734375 37.304688 27.582031 C 37.257812 27.238281 37.351562 26.867188 37.410156 26.519531 C 37.433594 26.394531 37.433594 26.386719 37.476562 26.265625 C 37.484375 26.234375 37.476562 26.1875 37.480469 26.183594 C 37.488281 26.175781 37.589844 26.1875 37.621094 26.183594 Z M 37.621094 26.183594 "/><path style=" stroke:none;fill-rule:nonzero;fill:#935d37;fill-opacity:1;" d="M 20.863281 21.640625 L 20.972656 22.011719 C 20.96875 22.488281 20.886719 22.9375 20.652344 23.359375 L 20.5625 23.449219 C 20.445312 23.335938 20.566406 23.191406 20.546875 23.039062 C 20.503906 22.691406 20.59375 22.324219 20.65625 21.976562 C 20.675781 21.847656 20.679688 21.84375 20.71875 21.722656 C 20.730469 21.691406 20.71875 21.644531 20.726562 21.640625 C 20.734375 21.628906 20.832031 21.644531 20.867188 21.640625 Z M 20.863281 21.640625 "/><path style=" stroke:none;fill-rule:nonzero;fill:#935d37;fill-opacity:1;" d="M 12.632812 3.359375 C 12.632812 3.359375 12.675781 3.359375 12.699219 3.339844 C 12.730469 3.316406 12.761719 3.261719 12.792969 3.253906 C 12.820312 3.246094 12.859375 3.253906 12.890625 3.246094 C 12.984375 3.222656 12.992188 3.1875 13.105469 3.253906 C 13.308594 3.378906 13.398438 3.714844 13.285156 3.925781 C 13.203125 4.082031 13.035156 4.164062 12.859375 4.136719 C 12.828125 4.132812 12.699219 4.050781 12.679688 4.03125 C 12.640625 3.984375 12.566406 3.828125 12.558594 3.765625 C 12.550781 3.710938 12.550781 3.570312 12.5625 3.519531 C 12.5625 3.511719 12.625 3.363281 12.632812 3.359375 Z M 12.914062 3.855469 C 12.957031 3.859375 12.980469 3.863281 13.019531 3.835938 C 13.039062 3.828125 13.15625 3.667969 13.160156 3.65625 C 13.167969 3.628906 13.070312 3.441406 13.035156 3.429688 C 12.984375 3.414062 12.902344 3.4375 12.84375 3.429688 C 12.863281 3.503906 12.792969 3.554688 12.808594 3.625 C 12.832031 3.707031 12.898438 3.773438 12.914062 3.855469 Z M 12.914062 3.855469 "/><path style=" stroke:none;fill-rule:nonzero;fill:#935d37;fill-opacity:1;" d="M 39.628906 16 C 39.742188 15.972656 39.960938 16.042969 39.996094 16.15625 C 40.003906 16.195312 40.003906 16.433594 39.996094 16.472656 C 39.960938 16.59375 39.664062 16.625 39.554688 16.597656 C 39.539062 16.59375 39.398438 16.453125 39.394531 16.4375 C 39.351562 16.277344 39.460938 16.035156 39.628906 16 Z M 39.628906 16 "/><path style=" stroke:none;fill-rule:nonzero;fill:#935d37;fill-opacity:1;" d="M 37.53125 5.097656 C 37.59375 5.078125 37.683594 5.234375 37.691406 5.292969 C 37.703125 5.382812 37.699219 5.554688 37.691406 5.652344 C 37.6875 5.691406 37.65625 5.714844 37.652344 5.753906 C 37.644531 5.882812 37.664062 6.019531 37.652344 6.148438 C 37.652344 6.191406 37.652344 6.257812 37.601562 6.269531 C 37.425781 6.320312 37.488281 6.0625 37.476562 5.96875 C 37.464844 5.84375 37.382812 5.671875 37.367188 5.578125 C 37.347656 5.421875 37.359375 5.15625 37.53125 5.101562 Z M 37.53125 5.097656 "/><path style=" stroke:none;fill-rule:nonzero;fill:#935d37;fill-opacity:1;" d="M 37.390625 7.089844 C 37.425781 7.078125 37.480469 7.082031 37.511719 7.105469 C 37.617188 7.167969 37.574219 7.257812 37.582031 7.355469 C 37.585938 7.394531 37.613281 7.410156 37.617188 7.429688 C 37.621094 7.464844 37.554688 7.71875 37.546875 7.777344 C 37.539062 7.839844 37.5625 7.933594 37.546875 7.992188 C 37.542969 8.015625 37.433594 8.082031 37.425781 8.082031 C 37.417969 8.082031 37.339844 8.003906 37.339844 7.992188 C 37.320312 7.925781 37.347656 7.816406 37.339844 7.742188 C 37.335938 7.703125 37.304688 7.679688 37.300781 7.640625 C 37.292969 7.546875 37.285156 7.246094 37.304688 7.179688 C 37.308594 7.164062 37.378906 7.09375 37.390625 7.089844 Z M 37.390625 7.089844 "/><path style=" stroke:none;fill-rule:nonzero;fill:#935d37;fill-opacity:1;" d="M 37.121094 6.554688 C 37.105469 6.605469 37.167969 6.636719 37.15625 6.675781 C 37.117188 6.808594 36.890625 6.753906 36.785156 6.765625 C 36.652344 6.777344 36.519531 6.824219 36.359375 6.800781 C 36.160156 6.777344 36.15625 6.558594 36.289062 6.519531 C 36.351562 6.5 36.597656 6.511719 36.679688 6.515625 C 36.71875 6.519531 36.742188 6.550781 36.785156 6.554688 C 36.894531 6.5625 37.011719 6.546875 37.121094 6.554688 Z M 37.121094 6.554688 "/><path style=" stroke:none;fill-rule:nonzero;fill:#935d37;fill-opacity:1;" d="M 37.957031 6.730469 C 37.863281 6.707031 37.910156 6.542969 37.996094 6.519531 C 38.023438 6.511719 38.0625 6.519531 38.09375 6.511719 C 38.195312 6.488281 38.269531 6.46875 38.386719 6.480469 C 38.425781 6.484375 38.449219 6.515625 38.488281 6.519531 C 38.574219 6.527344 38.9375 6.476562 38.898438 6.605469 C 38.890625 6.625 38.84375 6.644531 38.863281 6.695312 C 38.796875 6.699219 38.734375 6.691406 38.667969 6.699219 C 38.648438 6.703125 38.636719 6.730469 38.628906 6.730469 C 38.472656 6.730469 38.074219 6.761719 37.957031 6.730469 Z M 37.957031 6.730469 "/><path style=" stroke:none;fill-rule:nonzero;fill:#935d37;fill-opacity:1;" d="M 31.566406 29.589844 C 31.640625 29.570312 31.78125 29.714844 31.816406 29.769531 C 31.855469 29.828125 31.859375 29.898438 31.886719 29.945312 C 31.914062 29.996094 32.0625 30.109375 32.082031 30.179688 C 32.132812 30.359375 31.960938 30.445312 31.90625 30.316406 C 31.898438 30.296875 31.90625 30.265625 31.886719 30.230469 C 31.820312 30.105469 31.4375 29.882812 31.480469 29.71875 C 31.488281 29.695312 31.546875 29.597656 31.566406 29.59375 Z M 31.566406 29.589844 "/><path style=" stroke:none;fill-rule:nonzero;fill:#935d37;fill-opacity:1;" d="M 14.8125 25.046875 C 14.882812 25.027344 15.023438 25.167969 15.0625 25.222656 C 15.101562 25.285156 15.101562 25.355469 15.132812 25.402344 C 15.160156 25.453125 15.304688 25.566406 15.324219 25.636719 C 15.375 25.816406 15.207031 25.902344 15.152344 25.773438 C 15.144531 25.753906 15.152344 25.722656 15.132812 25.6875 C 15.0625 25.558594 14.679688 25.339844 14.726562 25.175781 C 14.730469 25.152344 14.789062 25.054688 14.8125 25.050781 Z M 14.8125 25.046875 "/><g clip-rule="nonzero" clip-path="url(#019ca4718c)"><path style=" stroke:none;fill-rule:nonzero;fill:#935d37;fill-opacity:1;" d="M 18.433594 1.40625 C 18.59375 1.363281 18.664062 1.535156 18.625 1.667969 C 18.5625 1.734375 18.578125 2.023438 18.503906 2.046875 C 18.441406 2.066406 18.429688 1.992188 18.414062 1.957031 C 18.375 1.863281 18.394531 1.820312 18.382812 1.742188 C 18.371094 1.664062 18.316406 1.597656 18.347656 1.496094 C 18.351562 1.480469 18.421875 1.410156 18.433594 1.40625 Z M 18.433594 1.40625 "/></g><path style=" stroke:none;fill-rule:nonzero;fill:#935d37;fill-opacity:1;" d="M 17.621094 2.222656 C 17.726562 2.292969 17.871094 2.230469 17.96875 2.261719 C 17.996094 2.265625 18.070312 2.347656 18.058594 2.382812 C 18.015625 2.523438 17.785156 2.4375 17.6875 2.5 C 17.601562 2.449219 17.34375 2.464844 17.386719 2.3125 C 17.410156 2.230469 17.570312 2.285156 17.621094 2.226562 Z M 17.621094 2.222656 "/><path style=" stroke:none;fill-rule:nonzero;fill:#935d37;fill-opacity:1;" d="M 19.375 2.402344 C 19.375 2.402344 19.378906 2.535156 19.375 2.542969 C 19.371094 2.546875 19.269531 2.578125 19.25 2.578125 C 19.148438 2.589844 18.765625 2.597656 18.734375 2.488281 C 18.707031 2.394531 18.90625 2.359375 18.964844 2.335938 C 19.046875 2.394531 19.15625 2.351562 19.25 2.363281 C 19.269531 2.363281 19.371094 2.394531 19.375 2.402344 Z M 19.375 2.402344 "/><g clip-rule="nonzero" clip-path="url(#54c247d943)"><path style=" stroke:none;fill-rule:nonzero;fill:#935d37;fill-opacity:1;" d="M 14.40625 1.796875 C 14.40625 1.796875 14.539062 1.753906 14.5625 1.761719 C 14.605469 1.773438 14.738281 1.945312 14.722656 1.988281 C 14.714844 2.011719 14.65625 2.109375 14.632812 2.113281 C 14.558594 2.136719 14.390625 2.058594 14.371094 1.992188 C 14.359375 1.957031 14.390625 1.8125 14.40625 1.796875 Z M 14.40625 1.796875 "/></g><path style=" stroke:none;fill-rule:nonzero;fill:#935d37;fill-opacity:1;" d="M 18.523438 3.109375 C 18.523438 3.109375 18.449219 3.101562 18.433594 3.144531 C 18.371094 3.144531 18.351562 2.875 18.339844 2.8125 C 18.335938 2.796875 18.3125 2.777344 18.308594 2.738281 C 18.292969 2.621094 18.398438 2.574219 18.484375 2.628906 C 18.503906 2.640625 18.550781 2.757812 18.554688 2.777344 C 18.5625 2.8125 18.523438 2.835938 18.519531 2.878906 C 18.515625 2.925781 18.53125 3.097656 18.519531 3.109375 Z M 18.523438 3.109375 "/><path style=" stroke:none;fill-rule:nonzero;fill:#935d37;fill-opacity:1;" d="M 9.257812 7.867188 C 9.058594 7.886719 9.105469 7.832031 9.082031 7.703125 C 9.070312 7.652344 9.039062 7.628906 9.042969 7.566406 C 9.054688 7.417969 9.265625 7.46875 9.292969 7.566406 C 9.300781 7.601562 9.253906 7.628906 9.253906 7.671875 C 9.253906 7.707031 9.285156 7.730469 9.285156 7.742188 C 9.285156 7.757812 9.234375 7.816406 9.257812 7.867188 Z M 9.257812 7.867188 "/><path style=" stroke:none;fill-rule:nonzero;fill:#935d37;fill-opacity:1;" d="M 9.257812 8.683594 C 9.222656 8.71875 9.097656 8.640625 9.082031 8.59375 C 9.070312 8.539062 9.066406 8.347656 9.136719 8.328125 C 9.277344 8.289062 9.253906 8.449219 9.257812 8.523438 C 9.261719 8.554688 9.277344 8.574219 9.277344 8.578125 C 9.277344 8.601562 9.265625 8.679688 9.257812 8.683594 Z M 9.257812 8.683594 "/><path style=" stroke:none;fill-rule:nonzero;fill:#935d37;fill-opacity:1;" d="M 8.9375 8.078125 C 8.953125 8.089844 8.910156 8.25 8.902344 8.257812 C 8.894531 8.265625 8.640625 8.277344 8.617188 8.203125 C 8.601562 8.148438 8.738281 8.058594 8.78125 8.046875 C 8.808594 8.039062 8.933594 8.074219 8.9375 8.082031 Z M 8.9375 8.078125 "/><path style=" stroke:none;fill-rule:nonzero;fill:#935d37;fill-opacity:1;" d="M 9.363281 8.257812 C 9.363281 8.257812 9.359375 8.15625 9.363281 8.132812 C 9.386719 8.054688 9.621094 8.054688 9.648438 8.132812 C 9.675781 8.226562 9.398438 8.292969 9.363281 8.257812 Z M 9.363281 8.257812 "/></g></svg>