<svg xmlns="http://www.w3.org/2000/svg" xmlns:xlink="http://www.w3.org/1999/xlink" width="70" zoomAndPan="magnify" viewBox="0 0 52.5 52.499999" height="70" preserveAspectRatio="xMidYMid meet" version="1.2"><defs><clipPath id="75bc5d11c0"><path d="M 4.703125 2.167969 L 47.046875 2.167969 L 47.046875 49.714844 L 4.703125 49.714844 Z M 4.703125 2.167969 "/></clipPath></defs><g id="fd1a9c30c5"><g clip-rule="nonzero" clip-path="url(#75bc5d11c0)"><path style=" stroke:none;fill-rule:nonzero;fill:#935d37;fill-opacity:1;" d="M 46.75 43.652344 C 46.222656 42.292969 45.671875 40.945312 45.117188 39.605469 C 44.71875 38.644531 44.277344 37.703125 43.878906 36.746094 C 43.21875 35.160156 42.445312 33.640625 41.421875 32.253906 C 40.835938 31.457031 40.230469 30.675781 39.550781 29.949219 C 39.320312 29.703125 39.101562 29.4375 38.921875 29.148438 C 38.714844 28.8125 38.554688 28.445312 38.378906 28.089844 C 38.351562 28.03125 38.335938 27.96875 38.308594 27.890625 C 38.40625 27.839844 38.492188 27.792969 38.578125 27.757812 C 38.949219 27.601562 39.226562 27.324219 39.429688 26.996094 C 39.621094 26.6875 39.765625 26.339844 39.882812 25.992188 C 40.050781 25.496094 40.144531 24.976562 40.152344 24.449219 C 40.152344 24.160156 40.132812 23.875 39.777344 23.773438 C 39.777344 23.648438 39.777344 23.535156 39.777344 23.417969 C 39.761719 22.457031 39.765625 21.496094 39.730469 20.539062 C 39.703125 19.898438 39.625 19.261719 39.5625 18.625 C 39.488281 17.894531 39.433594 17.15625 39.207031 16.449219 C 39.128906 16.199219 39.015625 15.960938 38.9375 15.710938 C 38.769531 15.179688 38.449219 14.742188 38.070312 14.347656 C 37.964844 14.238281 37.824219 14.128906 37.683594 14.105469 C 37.378906 14.050781 37.136719 13.933594 36.972656 13.667969 C 36.960938 13.652344 36.941406 13.640625 36.929688 13.625 C 36.644531 13.273438 36.300781 12.972656 36.089844 12.550781 C 35.804688 11.980469 35.480469 11.425781 35.167969 10.867188 C 35.011719 10.582031 34.867188 10.296875 34.839844 9.972656 C 34.816406 9.75 34.835938 9.527344 34.816406 9.304688 C 34.773438 8.753906 34.734375 8.203125 34.660156 7.65625 C 34.53125 6.683594 34.175781 5.78125 33.777344 4.894531 C 33.339844 3.921875 32.589844 3.28125 31.617188 2.882812 C 31.078125 2.660156 30.507812 2.574219 29.9375 2.5625 C 29.25 2.550781 28.554688 2.625 28.070312 3.234375 C 28.0625 3.246094 28.035156 3.25 28.019531 3.257812 C 27.667969 3.160156 27.378906 3.152344 27.078125 3.273438 C 26.503906 3.507812 25.984375 3.824219 25.621094 4.347656 C 25.460938 4.578125 25.308594 4.816406 25.171875 5.0625 C 25.039062 5.304688 24.929688 5.5625 24.792969 5.847656 C 24.730469 5.574219 24.679688 5.324219 24.617188 5.082031 C 24.515625 4.699219 24.398438 4.316406 24.121094 4.011719 C 24.070312 3.957031 24.035156 3.882812 23.988281 3.824219 C 23.738281 3.484375 23.457031 3.164062 23.0625 3 C 22.511719 2.769531 21.96875 2.523438 21.375 2.386719 C 20.4375 2.171875 19.527344 2.238281 18.636719 2.5625 C 17.722656 2.890625 16.953125 3.4375 16.425781 4.273438 C 15.996094 4.945312 15.691406 5.664062 15.738281 6.488281 C 15.746094 6.652344 15.738281 6.816406 15.738281 6.9375 C 15.589844 7.074219 15.457031 7.171875 15.355469 7.296875 C 15.1875 7.511719 15.03125 7.734375 14.890625 7.964844 C 14.144531 9.179688 13.398438 10.390625 12.660156 11.609375 C 12.089844 12.546875 11.558594 13.503906 11.058594 14.480469 C 10.683594 15.214844 10.3125 15.953125 9.960938 16.699219 C 9.628906 17.40625 9.335938 18.136719 9.003906 18.847656 C 8.789062 19.308594 8.652344 19.792969 8.464844 20.261719 C 8.328125 20.601562 8.210938 20.949219 8.085938 21.292969 C 7.9375 21.714844 7.789062 22.132812 7.644531 22.554688 C 7.578125 22.742188 7.519531 22.933594 7.460938 23.125 C 7.398438 23.328125 7.304688 23.527344 7.277344 23.734375 C 7.25 23.972656 7.21875 24.199219 7.082031 24.398438 C 7.074219 24.40625 7.070312 24.417969 7.070312 24.425781 C 7.054688 24.554688 6.988281 24.691406 6.988281 24.796875 C 6.984375 24.949219 6.894531 25.039062 6.859375 25.160156 C 6.78125 25.441406 6.699219 25.726562 6.617188 26.007812 C 6.480469 26.488281 6.386719 26.976562 6.234375 27.449219 C 6.121094 27.804688 6.03125 28.164062 5.9375 28.527344 C 5.789062 29.121094 5.644531 29.722656 5.503906 30.320312 C 5.449219 30.550781 5.40625 30.789062 5.359375 31.023438 C 5.3125 31.238281 5.261719 31.457031 5.230469 31.675781 C 5.191406 31.976562 5.167969 32.28125 5.132812 32.582031 C 5.089844 32.949219 5.027344 33.308594 5.003906 33.675781 C 4.992188 33.875 4.941406 34.054688 4.894531 34.242188 C 4.816406 34.550781 4.738281 34.867188 4.730469 35.183594 C 4.707031 35.726562 5.167969 36.097656 5.703125 36.015625 C 5.828125 35.996094 5.953125 35.992188 6.078125 35.996094 C 6.289062 36.007812 6.34375 36.089844 6.316406 36.300781 C 6.285156 36.53125 6.171875 36.722656 6.019531 36.890625 C 5.773438 37.167969 5.769531 37.460938 5.910156 37.78125 C 6.191406 38.421875 6.664062 38.824219 7.328125 39.023438 C 7.640625 39.117188 7.933594 39.132812 8.226562 38.980469 C 8.578125 38.796875 8.933594 38.621094 9.339844 38.417969 C 9.324219 38.523438 9.324219 38.570312 9.3125 38.613281 C 9.195312 38.984375 9.070312 39.347656 8.960938 39.71875 C 8.84375 40.125 8.75 40.542969 8.628906 40.949219 C 8.421875 41.636719 8.171875 42.308594 8.140625 43.035156 C 8.140625 43.082031 8.113281 43.128906 8.101562 43.175781 C 8.019531 43.480469 7.921875 43.785156 7.859375 44.097656 C 7.75 44.636719 7.65625 45.179688 7.558594 45.722656 C 7.523438 45.902344 7.488281 46.082031 7.457031 46.261719 C 7.382812 46.660156 7.289062 47.050781 7.238281 47.449219 C 7.195312 47.804688 7.191406 48.164062 7.195312 48.519531 C 7.199219 48.828125 7.238281 49.132812 7.269531 49.441406 C 7.273438 49.484375 7.328125 49.550781 7.367188 49.558594 C 7.410156 49.566406 7.488281 49.53125 7.511719 49.492188 C 7.578125 49.371094 7.644531 49.242188 7.675781 49.105469 C 7.71875 48.910156 7.730469 48.703125 7.75 48.5 C 7.769531 48.28125 7.765625 48.054688 7.800781 47.835938 C 7.855469 47.457031 7.9375 47.082031 8 46.703125 C 8.085938 46.167969 8.15625 45.628906 8.242188 45.09375 C 8.34375 44.460938 8.457031 43.832031 8.566406 43.203125 C 8.597656 43.03125 8.589844 42.824219 8.683594 42.699219 C 8.792969 42.554688 8.8125 42.402344 8.847656 42.25 C 8.964844 41.742188 9.054688 41.222656 9.199219 40.722656 C 9.433594 39.902344 9.699219 39.089844 9.960938 38.277344 C 9.988281 38.195312 10.058594 38.113281 10.128906 38.058594 C 10.367188 37.875 10.613281 37.703125 10.855469 37.527344 C 11.171875 37.300781 11.476562 37.058594 11.808594 36.851562 C 12.269531 36.5625 12.492188 36.652344 12.691406 37.164062 C 12.753906 37.316406 12.8125 37.476562 12.898438 37.613281 C 13.066406 37.886719 13.296875 37.929688 13.566406 37.753906 C 13.644531 37.699219 13.71875 37.628906 13.773438 37.554688 C 13.898438 37.390625 14.007812 37.222656 14.121094 37.054688 C 14.304688 36.789062 14.59375 36.71875 14.886719 36.851562 C 15.324219 37.050781 15.664062 37.34375 15.910156 37.769531 C 16.042969 38 16.226562 38.207031 16.410156 38.402344 C 16.664062 38.667969 16.980469 38.761719 17.339844 38.648438 C 17.523438 38.59375 17.691406 38.484375 17.878906 38.4375 C 18.253906 38.339844 18.464844 38.09375 18.605469 37.746094 C 18.6875 37.550781 18.800781 37.367188 18.914062 37.1875 C 19.003906 37.042969 19.148438 36.992188 19.316406 37 C 19.5 37.007812 19.683594 37.015625 19.867188 37.023438 C 20.136719 37.039062 20.402344 37.046875 20.667969 37.136719 C 21.117188 37.292969 21.578125 37.410156 22.035156 37.53125 C 22.355469 37.613281 22.539062 37.492188 22.601562 37.160156 C 22.640625 36.941406 22.667969 36.71875 22.667969 36.496094 C 22.667969 35.878906 22.640625 35.261719 22.644531 34.644531 C 22.648438 34.140625 22.6875 33.636719 22.691406 33.132812 C 22.695312 32.46875 22.679688 31.808594 22.671875 31.148438 C 22.671875 31.035156 22.671875 30.921875 22.671875 30.8125 C 22.921875 30.828125 23.136719 30.871094 23.347656 30.847656 C 23.574219 30.824219 23.691406 30.910156 23.777344 31.101562 C 24.042969 31.714844 24.328125 32.320312 24.578125 32.941406 C 24.78125 33.441406 24.957031 33.957031 25.128906 34.472656 C 25.511719 35.625 25.90625 36.769531 26.171875 37.953125 C 26.375 38.859375 26.585938 39.761719 26.792969 40.664062 C 26.84375 40.886719 26.894531 41.109375 26.953125 41.363281 C 27.054688 41.105469 27.113281 40.398438 27.050781 40.050781 C 26.914062 39.277344 26.773438 38.503906 26.617188 37.734375 C 26.523438 37.289062 26.394531 36.847656 26.289062 36.40625 C 26.269531 36.324219 26.25 36.230469 26.265625 36.152344 C 26.40625 35.539062 26.539062 34.921875 26.695312 34.316406 C 26.960938 33.285156 27.433594 32.335938 27.875 31.375 C 27.914062 31.296875 27.96875 31.230469 28.011719 31.15625 C 28.1875 31.15625 28.351562 31.152344 28.515625 31.15625 C 29.09375 31.160156 29.539062 30.8125 29.664062 30.257812 C 29.707031 30.070312 29.726562 29.875 29.757812 29.683594 C 29.785156 29.511719 29.816406 29.34375 29.847656 29.167969 C 30.246094 29.125 30.617188 29.078125 30.992188 29.050781 C 31.3125 29.027344 31.640625 29.0625 31.953125 29.015625 C 32.980469 28.871094 34.007812 28.730469 35.011719 28.476562 C 35.265625 28.410156 35.527344 28.375 35.785156 28.351562 C 36.128906 28.316406 36.476562 28.300781 36.824219 28.277344 C 36.878906 28.273438 36.9375 28.246094 36.992188 28.234375 C 37.28125 28.160156 37.574219 28.089844 37.871094 28.015625 C 37.914062 28.105469 37.949219 28.171875 37.976562 28.242188 C 38.308594 29.070312 38.769531 29.8125 39.398438 30.449219 C 40.199219 31.261719 40.851562 32.195312 41.480469 33.144531 C 41.976562 33.894531 42.429688 34.671875 42.785156 35.503906 C 42.972656 35.941406 43.1875 36.363281 43.378906 36.800781 C 43.941406 38.078125 44.503906 39.355469 45.054688 40.636719 C 45.359375 41.339844 45.652344 42.050781 45.941406 42.757812 C 46.199219 43.378906 46.445312 44 46.695312 44.621094 C 46.761719 44.777344 46.832031 44.933594 47.019531 45.007812 C 47.023438 44.957031 47.035156 44.90625 47.027344 44.863281 C 46.9375 44.457031 46.894531 44.03125 46.746094 43.648438 Z M 39.070312 18.636719 C 39.117188 19.160156 39.175781 19.683594 39.203125 20.207031 C 39.25 21.1875 39.28125 22.164062 39.308594 23.144531 C 39.316406 23.417969 39.289062 23.6875 39.269531 23.957031 C 39.261719 24.019531 39.238281 24.101562 39.191406 24.132812 C 39.027344 24.261719 38.851562 24.371094 38.636719 24.519531 C 38.710938 24.242188 38.773438 24.03125 38.824219 23.816406 C 38.910156 23.453125 38.878906 23.394531 38.550781 23.21875 C 38.792969 21.703125 39.007812 20.179688 39.070312 18.636719 Z M 24.894531 8.125 C 24.910156 7.59375 24.992188 7.066406 25.136719 6.550781 C 25.324219 5.859375 25.605469 5.214844 26.019531 4.628906 C 26.347656 4.164062 26.8125 3.867188 27.3125 3.621094 C 27.457031 3.550781 27.625 3.566406 27.792969 3.601562 C 27.773438 3.640625 27.769531 3.664062 27.757812 3.667969 C 27.234375 3.90625 27.019531 4.339844 26.925781 4.878906 C 26.773438 5.773438 26.765625 6.671875 26.828125 7.574219 C 26.882812 8.3125 27 9.035156 27.164062 9.757812 C 27.289062 10.296875 27.410156 10.832031 27.640625 11.339844 C 27.714844 11.515625 27.808594 11.679688 27.894531 11.847656 C 27.914062 11.84375 27.933594 11.839844 27.953125 11.832031 C 27.945312 11.742188 27.949219 11.648438 27.921875 11.5625 C 27.59375 10.59375 27.410156 9.589844 27.257812 8.585938 C 27.074219 7.390625 27.027344 6.1875 27.242188 4.988281 C 27.304688 4.617188 27.433594 4.277344 27.773438 4.058594 C 27.816406 4.03125 27.855469 4 27.898438 3.980469 C 28.066406 3.910156 28.207031 3.867188 28.382812 4.039062 C 28.589844 4.242188 28.75 4.460938 28.863281 4.722656 C 29.179688 5.433594 29.34375 6.195312 29.511719 6.953125 C 29.660156 7.644531 29.824219 8.332031 29.984375 9.019531 C 29.996094 9.082031 30.027344 9.140625 30.070312 9.195312 C 30.117188 8.898438 30.09375 8.605469 30.046875 8.316406 C 29.933594 7.617188 29.832031 6.914062 29.695312 6.222656 C 29.582031 5.640625 29.402344 5.070312 29.136719 4.542969 C 29.019531 4.3125 28.828125 4.125 28.667969 3.917969 C 28.628906 3.871094 28.574219 3.832031 28.503906 3.773438 C 28.894531 3.582031 29.242188 3.613281 29.558594 3.863281 C 29.839844 4.085938 30.074219 4.359375 30.257812 4.671875 C 30.632812 5.304688 30.867188 5.996094 31.019531 6.707031 C 31.230469 7.703125 31.414062 8.707031 31.609375 9.703125 C 31.625 9.785156 31.652344 9.863281 31.71875 9.941406 C 31.730469 9.886719 31.757812 9.835938 31.757812 9.78125 C 31.757812 9.09375 31.726562 8.40625 31.601562 7.726562 C 31.453125 6.917969 31.285156 6.109375 30.976562 5.339844 C 30.703125 4.652344 30.316406 4.042969 29.722656 3.585938 C 29.46875 3.386719 29.171875 3.269531 28.847656 3.222656 C 29.285156 2.953125 29.957031 3.011719 30.316406 3.367188 C 30.765625 3.8125 31.226562 4.253906 31.496094 4.832031 C 31.742188 5.355469 31.953125 5.902344 32.144531 6.449219 C 32.324219 6.960938 32.460938 7.488281 32.617188 8.007812 C 32.644531 8.097656 32.679688 8.183594 32.734375 8.261719 C 32.839844 8.039062 32.804688 7.800781 32.769531 7.585938 C 32.5625 6.421875 32.21875 5.304688 31.582031 4.296875 C 31.304688 3.859375 30.953125 3.46875 30.636719 3.058594 C 30.992188 3.058594 31.320312 3.207031 31.640625 3.363281 C 31.761719 3.421875 31.875 3.496094 31.996094 3.558594 C 32.632812 3.902344 33.050781 4.453125 33.339844 5.085938 C 33.585938 5.621094 33.800781 6.179688 33.960938 6.75 C 34.105469 7.257812 34.183594 7.789062 34.246094 8.320312 C 34.308594 8.867188 34.328125 9.421875 34.34375 9.976562 C 34.355469 10.363281 34.503906 10.703125 34.707031 11.007812 C 35.085938 11.574219 35.394531 12.179688 35.691406 12.789062 C 35.832031 13.070312 36.015625 13.3125 36.230469 13.542969 C 36.433594 13.765625 36.636719 13.988281 36.808594 14.234375 C 37.089844 14.640625 37.136719 15.117188 37.171875 15.59375 C 37.199219 15.992188 37.109375 16.359375 36.945312 16.722656 C 36.8125 17.019531 36.671875 17.316406 36.621094 17.648438 C 36.570312 17.949219 36.621094 18.222656 36.710938 18.503906 C 36.824219 18.84375 36.933594 19.1875 37.027344 19.535156 C 37.148438 19.984375 37.109375 20.441406 37.019531 20.890625 C 36.863281 21.640625 36.675781 22.378906 36.503906 23.125 C 36.496094 23.160156 36.488281 23.195312 36.464844 23.292969 C 36.5625 23.234375 36.625 23.21875 36.65625 23.175781 C 36.953125 22.761719 37.113281 22.285156 37.269531 21.808594 C 37.363281 21.523438 37.453125 21.234375 37.515625 20.941406 C 37.667969 20.1875 37.589844 19.445312 37.300781 18.738281 C 37.050781 18.125 37.0625 17.546875 37.386719 16.980469 C 37.753906 16.328125 37.734375 15.644531 37.597656 14.945312 C 37.5625 14.765625 37.515625 14.589844 37.472656 14.414062 C 37.5 14.414062 37.527344 14.402344 37.535156 14.410156 C 37.867188 14.695312 38.167969 15 38.296875 15.441406 C 38.535156 16.273438 38.5625 17.125 38.550781 17.980469 C 38.542969 18.667969 38.515625 19.359375 38.492188 20.046875 C 38.484375 20.230469 38.453125 20.414062 38.433594 20.597656 C 38.363281 21.191406 38.289062 21.789062 38.21875 22.386719 C 38.207031 22.472656 38.195312 22.558594 38.179688 22.644531 C 38.117188 22.96875 38.058594 23.292969 37.988281 23.652344 C 37.75 23.734375 37.5 23.808594 37.257812 23.90625 C 36.941406 24.035156 36.671875 24.226562 36.453125 24.507812 C 36.175781 24.863281 35.859375 25.195312 35.464844 25.4375 C 35.222656 25.585938 34.949219 25.59375 34.679688 25.617188 C 34.160156 25.65625 33.636719 25.683594 33.113281 25.714844 C 32.96875 25.722656 32.824219 25.726562 32.675781 25.734375 C 32.203125 25.761719 31.730469 25.800781 31.257812 25.820312 C 30.800781 25.835938 30.347656 25.835938 29.890625 25.839844 C 29.875 25.839844 29.855469 25.828125 29.808594 25.804688 C 29.789062 25.523438 29.765625 25.226562 29.75 24.929688 C 29.722656 24.4375 29.710938 23.941406 29.675781 23.449219 C 29.636719 22.9375 29.582031 22.425781 29.519531 21.917969 C 29.464844 21.445312 29.382812 20.976562 29.316406 20.507812 C 29.261719 20.125 29.242188 19.734375 29.164062 19.355469 C 29.007812 18.605469 28.878906 17.847656 28.519531 17.15625 C 28.390625 16.910156 28.253906 16.660156 28.089844 16.4375 C 27.785156 16.023438 27.347656 15.832031 26.816406 15.757812 C 27.019531 15.597656 27.203125 15.453125 27.363281 15.328125 C 27.722656 15.386719 28.054688 15.441406 28.390625 15.496094 C 29.183594 15.628906 29.75 16.261719 29.820312 17.066406 C 29.863281 17.5 29.875 17.933594 30.03125 18.351562 C 30.3125 19.117188 30.753906 19.765625 31.328125 20.332031 C 31.417969 20.421875 31.507812 20.511719 31.609375 20.589844 C 32.335938 21.15625 32.675781 21.925781 32.785156 22.820312 C 32.816406 23.066406 32.835938 23.316406 32.863281 23.574219 C 32.984375 23.585938 33.011719 23.488281 33.046875 23.417969 C 33.273438 22.933594 33.242188 22.441406 33.09375 21.945312 C 32.925781 21.390625 32.589844 20.945312 32.183594 20.542969 C 31.871094 20.234375 31.546875 19.9375 31.269531 19.601562 C 30.878906 19.128906 30.566406 18.601562 30.441406 17.988281 C 30.390625 17.734375 30.359375 17.472656 30.347656 17.210938 C 30.308594 16.503906 29.960938 15.957031 29.457031 15.503906 C 29.132812 15.214844 28.707031 15.160156 28.289062 15.105469 C 28.105469 15.082031 27.921875 15.0625 27.746094 15.011719 C 27.253906 14.882812 26.917969 14.515625 26.589844 14.164062 C 26.105469 13.648438 25.789062 13.015625 25.53125 12.367188 C 25.34375 11.882812 25.226562 11.367188 25.140625 10.851562 C 24.988281 9.949219 24.871094 9.046875 24.894531 8.128906 Z M 29.273438 25.726562 C 28.636719 25.703125 28.003906 25.691406 27.386719 25.511719 C 27.339844 25.171875 27.289062 24.839844 27.242188 24.507812 C 27.179688 24.054688 27.121094 23.605469 27.054688 23.15625 C 26.949219 22.484375 26.839844 21.816406 26.734375 21.148438 C 26.589844 20.238281 26.445312 19.328125 26.292969 18.421875 C 26.242188 18.117188 26.1875 17.808594 26.101562 17.511719 C 26.023438 17.257812 25.898438 17.015625 25.765625 16.707031 C 25.898438 16.605469 26.050781 16.46875 26.21875 16.363281 C 26.691406 16.070312 27.117188 16.105469 27.511719 16.5 C 27.691406 16.679688 27.832031 16.914062 27.949219 17.144531 C 28.363281 17.957031 28.546875 18.84375 28.6875 19.734375 C 28.84375 20.738281 28.984375 21.746094 29.089844 22.757812 C 29.195312 23.726562 29.308594 24.703125 29.273438 25.726562 Z M 25.574219 13.460938 C 25.894531 14 26.28125 14.484375 26.785156 14.867188 C 26.851562 14.921875 26.910156 14.984375 26.984375 15.054688 C 26.761719 15.367188 26.390625 15.46875 26.136719 15.714844 C 25.890625 15.957031 25.652344 16.210938 25.402344 16.46875 C 24.972656 16.132812 24.484375 15.941406 24.003906 15.730469 C 23.667969 15.582031 23.351562 15.390625 23.035156 15.199219 C 22.730469 15.011719 22.4375 14.804688 22.121094 14.59375 C 22.089844 14.117188 22.0625 13.628906 22.027344 13.117188 C 22.148438 13.109375 22.242188 13.105469 22.335938 13.097656 C 22.558594 13.082031 22.75 13.011719 22.875 12.808594 C 23.097656 12.445312 23.375 12.105469 23.542969 11.71875 C 23.804688 11.121094 24.101562 10.519531 24.128906 9.84375 C 24.132812 9.699219 24.132812 9.550781 24.109375 9.410156 C 24.078125 9.210938 24.105469 9.019531 24.175781 8.839844 C 24.210938 8.757812 24.273438 8.6875 24.320312 8.613281 C 24.335938 8.621094 24.351562 8.625 24.367188 8.632812 C 24.410156 9.054688 24.449219 9.476562 24.496094 9.894531 C 24.636719 11.152344 24.925781 12.363281 25.574219 13.460938 Z M 24.371094 7.996094 C 24.355469 8.082031 24.292969 8.171875 24.230469 8.234375 C 23.976562 8.503906 23.792969 8.800781 23.773438 9.179688 C 23.773438 9.238281 23.757812 9.296875 23.769531 9.351562 C 23.875 9.941406 23.714844 10.476562 23.476562 11.007812 C 23.246094 11.523438 22.957031 12.003906 22.617188 12.453125 C 22.464844 12.652344 22.28125 12.738281 22.003906 12.667969 C 21.929688 11.980469 21.855469 11.285156 21.777344 10.554688 C 21.816406 10.609375 21.84375 10.632812 21.855469 10.664062 C 21.953125 10.929688 22.101562 11.011719 22.363281 10.929688 C 22.464844 10.898438 22.5625 10.855469 22.65625 10.804688 C 22.742188 10.757812 22.824219 10.699219 22.8125 10.582031 C 22.804688 10.492188 22.773438 10.460938 22.582031 10.386719 C 22.519531 10.445312 22.449219 10.511719 22.378906 10.574219 C 22.109375 10.234375 22.011719 9.847656 21.960938 9.441406 C 21.933594 9.203125 22.011719 9.003906 22.1875 8.84375 C 22.28125 8.761719 22.371094 8.773438 22.429688 8.882812 C 22.46875 8.957031 22.480469 9.046875 22.5 9.132812 C 22.515625 9.207031 22.507812 9.289062 22.535156 9.359375 C 22.582031 9.5 22.75 9.609375 22.871094 9.589844 C 22.992188 9.570312 23.179688 9.410156 23.199219 9.296875 C 23.226562 9.152344 23.257812 9.007812 23.253906 8.863281 C 23.253906 8.664062 23.332031 8.515625 23.457031 8.367188 C 23.632812 8.164062 23.824219 7.984375 23.953125 7.730469 C 24.039062 7.566406 24.242188 7.460938 24.445312 7.28125 C 24.417969 7.554688 24.410156 7.777344 24.371094 7.996094 Z M 21.628906 13.988281 C 21.445312 13.816406 21.367188 13.433594 21.453125 13.050781 C 21.640625 13.175781 21.675781 13.40625 21.628906 13.988281 Z M 21.476562 12.671875 L 21.476562 12.398438 C 21.488281 12.398438 21.496094 12.394531 21.507812 12.394531 C 21.519531 12.484375 21.53125 12.574219 21.542969 12.667969 C 21.519531 12.667969 21.496094 12.667969 21.476562 12.671875 Z M 21.484375 9.519531 C 21.375 9.203125 21.265625 8.886719 21.167969 8.605469 C 21.488281 8.269531 21.757812 7.964844 22.046875 7.683594 C 22.46875 7.277344 22.96875 7.070312 23.550781 7.113281 C 23.550781 7.296875 23.578125 7.457031 23.542969 7.597656 C 23.507812 7.742188 23.433594 7.894531 23.332031 8 C 23.136719 8.199219 22.949219 8.40625 22.863281 8.699219 C 22.679688 8.59375 22.570312 8.402344 22.351562 8.421875 C 22.269531 8.429688 22.167969 8.417969 22.109375 8.464844 C 21.753906 8.71875 21.433594 9.003906 21.484375 9.519531 Z M 19.160156 18.359375 C 19.179688 18.546875 19.128906 18.714844 19.101562 18.890625 C 19.054688 19.167969 19.050781 19.449219 19.023438 19.726562 C 18.992188 20.074219 18.949219 20.414062 18.921875 20.757812 C 18.90625 20.941406 18.914062 21.125 18.902344 21.304688 C 18.871094 21.730469 18.824219 22.152344 18.792969 22.574219 C 18.761719 23.027344 18.734375 23.476562 18.703125 23.992188 C 18.359375 24.078125 18.023438 24.183594 17.683594 24.238281 C 17.316406 24.296875 16.972656 24.152344 16.640625 24.019531 C 16.230469 23.855469 15.886719 23.585938 15.566406 23.28125 C 15.453125 23.171875 15.398438 23.054688 15.4375 22.871094 C 15.605469 22.125 15.742188 21.375 15.898438 20.628906 C 16.035156 19.964844 16.164062 19.300781 16.335938 18.644531 C 16.613281 17.558594 16.921875 16.476562 17.222656 15.394531 C 17.34375 14.964844 17.484375 14.542969 17.605469 14.113281 C 17.648438 13.964844 17.722656 13.902344 17.867188 13.84375 C 18.078125 13.765625 18.234375 13.796875 18.4375 13.890625 C 18.734375 14.035156 19.042969 14.144531 19.28125 14.390625 C 19.378906 14.492188 19.402344 14.582031 19.390625 14.722656 C 19.351562 15.28125 19.339844 15.839844 19.304688 16.398438 C 19.269531 16.898438 19.207031 17.398438 19.167969 17.898438 C 19.152344 18.050781 19.148438 18.207031 19.164062 18.359375 Z M 18.960938 27.597656 C 20.035156 27.632812 21.082031 27.765625 22.171875 27.695312 C 22.183594 28.570312 22.210938 29.410156 22.164062 30.261719 C 21.710938 30.1875 21.304688 30.101562 20.890625 30.066406 C 20.386719 30.019531 19.898438 29.902344 19.402344 29.835938 C 19.234375 29.8125 19.058594 29.816406 18.84375 29.808594 C 18.851562 29.082031 18.871094 28.34375 18.960938 27.597656 Z M 18.625 25.894531 C 18.621094 26 18.625 26.105469 18.597656 26.207031 C 18.546875 26.414062 18.507812 26.617188 18.570312 26.828125 C 18.582031 26.878906 18.519531 26.949219 18.472656 27.039062 C 18.042969 26.78125 17.640625 26.550781 17.246094 26.304688 C 16.996094 26.144531 16.71875 26.058594 16.429688 26.023438 C 16.003906 25.976562 15.578125 25.949219 15.21875 25.667969 C 15.164062 25.625 15.074219 25.617188 15.003906 25.589844 C 14.957031 25.351562 15.09375 24.511719 15.320312 23.664062 C 16.292969 24.511719 17.359375 24.917969 18.648438 24.328125 C 18.671875 24.558594 18.675781 24.714844 18.644531 24.894531 C 18.589844 25.21875 18.628906 25.5625 18.621094 25.894531 Z M 14.171875 28.546875 C 14.078125 28.542969 14.023438 28.546875 13.972656 28.535156 C 13.9375 28.523438 13.910156 28.488281 13.878906 28.464844 C 13.449219 28.121094 13.453125 28.125 13.691406 27.636719 C 13.738281 27.539062 13.792969 27.484375 13.902344 27.464844 C 14.003906 27.445312 14.101562 27.398438 14.199219 27.363281 C 14.207031 27.363281 14.21875 27.371094 14.246094 27.386719 C 14.238281 27.753906 14.042969 28.121094 14.171875 28.546875 Z M 13.304688 28.386719 C 13.390625 28.464844 13.457031 28.5625 13.542969 28.667969 C 13.386719 29.027344 13.222656 29.390625 13.042969 29.800781 C 12.59375 28.867188 12.144531 28.003906 11.992188 27.015625 C 11.925781 26.597656 11.949219 26.238281 12.128906 25.863281 C 12.355469 25.382812 12.554688 24.886719 12.765625 24.398438 C 12.78125 24.355469 12.808594 24.316406 12.828125 24.277344 C 12.847656 24.277344 12.867188 24.273438 12.882812 24.273438 C 12.964844 24.570312 13.066406 24.859375 13.113281 25.160156 C 13.222656 25.796875 13.308594 26.441406 13.390625 27.085938 C 13.402344 27.175781 13.363281 27.273438 13.328125 27.363281 C 13.300781 27.441406 13.242188 27.515625 13.207031 27.59375 C 13.070312 27.878906 13.042969 28.148438 13.304688 28.390625 Z M 13.835938 26.957031 C 13.824219 26.75 13.8125 26.578125 13.800781 26.402344 C 13.789062 26.21875 13.789062 26.035156 13.757812 25.855469 C 13.628906 25.066406 13.425781 24.300781 13.160156 23.550781 C 13.074219 23.308594 13.015625 23.066406 13.085938 22.808594 C 13.125 22.65625 13.042969 22.554688 12.941406 22.457031 C 12.890625 22.410156 12.828125 22.347656 12.820312 22.285156 C 12.753906 21.894531 12.699219 21.5 12.652344 21.105469 C 12.59375 20.644531 12.53125 20.183594 12.507812 19.71875 C 12.5 19.511719 12.554688 19.292969 12.628906 19.097656 C 12.953125 18.226562 13.28125 17.359375 13.632812 16.496094 C 13.921875 15.777344 14.246094 15.070312 14.546875 14.355469 C 14.601562 14.230469 14.675781 14.144531 14.800781 14.097656 C 15.210938 13.953125 15.53125 13.660156 15.882812 13.421875 C 15.929688 13.390625 15.96875 13.34375 16 13.296875 C 16.074219 13.195312 16.167969 13.171875 16.296875 13.15625 C 16.582031 13.128906 16.867188 13.0625 17.152344 13.011719 C 17.238281 13 17.320312 12.996094 17.445312 12.984375 C 17.378906 13.210938 17.332031 13.40625 17.261719 13.59375 C 17.238281 13.65625 17.164062 13.71875 17.101562 13.742188 C 15.964844 14.171875 15.230469 15.015625 14.6875 16.066406 C 14.289062 16.851562 14.066406 17.691406 14.023438 18.554688 C 13.976562 19.445312 13.902344 20.355469 14.199219 21.234375 C 14.285156 21.492188 14.332031 21.761719 14.394531 22.023438 C 14.476562 22.367188 14.613281 22.691406 14.816406 22.972656 C 15 23.222656 14.929688 23.484375 14.890625 23.734375 C 14.839844 24.074219 14.6875 24.40625 14.675781 24.746094 C 14.664062 25.230469 14.433594 25.667969 14.410156 26.148438 C 14.402344 26.382812 14.351562 26.617188 14.320312 26.867188 C 14.152344 26.898438 14.007812 26.925781 13.835938 26.957031 Z M 11.957031 19.589844 C 11.960938 19.675781 11.945312 19.765625 11.917969 19.847656 C 11.765625 20.300781 11.703125 20.773438 11.515625 21.222656 C 11.335938 21.660156 11.261719 22.140625 11.140625 22.601562 C 11.066406 22.898438 10.980469 23.191406 10.914062 23.488281 C 10.835938 23.828125 10.78125 24.171875 10.703125 24.507812 C 10.59375 24.980469 10.46875 25.445312 10.355469 25.914062 C 10.335938 25.996094 10.328125 26.085938 10.308594 26.171875 C 10.234375 26.523438 10.183594 26.882812 10.078125 27.226562 C 10.007812 27.460938 10.082031 27.722656 9.929688 27.9375 C 10.085938 28.046875 9.90625 28.125 9.90625 28.222656 C 9.902344 28.335938 9.945312 28.476562 9.898438 28.5625 C 9.714844 28.878906 9.734375 29.207031 9.78125 29.542969 C 9.785156 29.574219 9.757812 29.609375 9.746094 29.644531 C 9.71875 29.648438 9.695312 29.648438 9.671875 29.652344 C 9.558594 29.347656 9.457031 29.03125 9.320312 28.738281 C 9.011719 28.066406 9.054688 27.386719 9.167969 26.6875 C 9.339844 25.632812 9.492188 24.578125 9.617188 23.519531 C 9.734375 22.539062 9.753906 21.546875 9.960938 20.578125 C 10.074219 20.046875 10.21875 19.523438 10.339844 18.992188 C 10.5625 18.03125 10.941406 17.125 11.390625 16.253906 C 11.585938 15.867188 11.859375 15.515625 12.148438 15.191406 C 12.4375 14.871094 12.816406 14.667969 13.265625 14.621094 C 13.359375 14.613281 13.453125 14.585938 13.5625 14.5625 C 13.554688 14.601562 13.554688 14.632812 13.542969 14.644531 C 13.136719 15.011719 12.882812 15.488281 12.640625 15.960938 C 12.328125 16.566406 12.144531 17.222656 12.066406 17.90625 C 12 18.464844 11.9375 19.023438 11.960938 19.589844 Z M 13.578125 15.398438 C 13.277344 16.132812 12.976562 16.867188 12.675781 17.601562 C 12.785156 16.789062 13.050781 16.039062 13.578125 15.398438 Z M 19.785156 7.355469 C 19.957031 7.320312 20.007812 7.417969 20.097656 7.574219 C 19.324219 7.261719 18.648438 7.347656 17.972656 7.765625 C 17.992188 7.703125 18 7.628906 18.035156 7.570312 C 18.28125 7.175781 18.636719 6.917969 19.101562 6.835938 C 19.292969 6.800781 19.457031 6.90625 19.597656 7.023438 C 19.625 7.046875 19.636719 7.113281 19.625 7.152344 C 19.589844 7.300781 19.675781 7.382812 19.785156 7.359375 Z M 17.542969 8.140625 C 17.316406 8.035156 17.242188 7.832031 17.144531 7.652344 C 17.101562 7.570312 17.089844 7.46875 17.070312 7.375 C 17.035156 7.230469 16.964844 7.074219 17.074219 6.933594 C 17.21875 6.746094 17.390625 6.585938 17.640625 6.570312 C 17.910156 6.554688 18.183594 6.539062 18.488281 6.683594 C 17.871094 6.996094 17.523438 7.441406 17.542969 8.140625 Z M 18.386719 8.554688 C 18.5 8.507812 18.5 8.511719 18.558594 8.289062 C 18.300781 8.304688 18.054688 8.320312 17.804688 8.335938 C 17.800781 8.316406 17.792969 8.296875 17.789062 8.277344 C 17.9375 8.273438 18.058594 8.25 18.15625 8.109375 C 18.242188 7.980469 18.503906 8.011719 18.585938 8.15625 C 18.695312 8.351562 18.78125 8.5625 18.695312 8.792969 C 18.640625 8.933594 18.511719 9.039062 18.386719 9 C 18.078125 8.914062 17.769531 8.828125 17.484375 8.691406 C 17.324219 8.613281 17.214844 8.4375 17.097656 8.269531 C 17.46875 8.679688 17.898438 8.746094 18.386719 8.554688 Z M 17.878906 11.613281 C 17.785156 11.90625 17.695312 12.199219 17.59375 12.484375 C 17.574219 12.53125 17.488281 12.566406 17.429688 12.578125 C 17.136719 12.644531 16.84375 12.703125 16.550781 12.761719 C 16.535156 12.746094 16.519531 12.730469 16.503906 12.71875 C 16.886719 12.367188 17.039062 11.917969 17.078125 11.441406 C 17.351562 11.5 17.601562 11.554688 17.878906 11.613281 Z M 17.1875 10.984375 C 17.226562 10.953125 17.269531 10.914062 17.273438 10.917969 C 17.332031 10.960938 17.386719 11.015625 17.441406 11.066406 C 17.425781 11.082031 17.410156 11.101562 17.390625 11.117188 C 17.332031 11.078125 17.269531 11.035156 17.1875 10.984375 Z M 17.832031 11.046875 C 17.953125 11.050781 17.992188 11.121094 17.949219 11.257812 C 17.902344 11.175781 17.871094 11.121094 17.832031 11.046875 Z M 17.972656 12.917969 C 18.492188 12.773438 18.9375 12.996094 19.414062 13.097656 L 19.414062 13.945312 C 19.144531 13.796875 18.902344 13.667969 18.660156 13.535156 C 18.472656 13.425781 18.269531 13.457031 18.070312 13.476562 C 17.984375 13.480469 17.902344 13.5 17.800781 13.519531 C 17.867188 13.292969 17.921875 13.101562 17.972656 12.917969 Z M 18.128906 12.46875 C 18.132812 12.445312 18.128906 12.382812 18.144531 12.332031 C 18.222656 12.09375 18.304688 11.855469 18.378906 11.628906 L 19.449219 11.628906 L 19.449219 12.679688 C 19.007812 12.609375 18.574219 12.539062 18.128906 12.46875 Z M 18.507812 11.257812 C 18.511719 11.105469 18.582031 11.078125 18.679688 11.074219 C 18.925781 11.066406 19.175781 11.054688 19.445312 11.042969 C 19.449219 11.101562 19.457031 11.175781 19.46875 11.265625 C 19.140625 11.292969 18.828125 11.347656 18.507812 11.257812 Z M 19.425781 9.855469 C 19.402344 10.179688 19.269531 10.472656 18.996094 10.667969 C 18.90625 10.730469 18.769531 10.722656 18.621094 10.753906 C 18.679688 10.378906 18.730469 10.0625 18.894531 9.765625 C 18.980469 9.601562 19.003906 9.402344 19.058594 9.21875 C 19.121094 9.007812 19.1875 8.796875 19.25 8.585938 C 19.277344 8.585938 19.304688 8.582031 19.335938 8.582031 C 19.367188 8.675781 19.421875 8.765625 19.425781 8.863281 C 19.4375 9.191406 19.445312 9.523438 19.425781 9.851562 Z M 18.367188 9.4375 C 18.410156 9.300781 18.492188 9.3125 18.597656 9.335938 C 18.519531 9.441406 18.414062 9.519531 18.40625 9.601562 C 18.382812 9.917969 18.136719 10.058594 17.945312 10.242188 C 17.902344 10.28125 17.847656 10.308594 17.796875 10.335938 C 17.644531 10.410156 17.480469 10.5625 17.339844 10.539062 C 17.050781 10.496094 16.75 10.40625 16.546875 10.15625 C 16.527344 10.128906 16.519531 10.09375 16.488281 10.023438 C 16.703125 10.023438 16.894531 10.027344 17.082031 10.023438 C 17.511719 10.011719 17.898438 9.886719 18.234375 9.609375 C 18.289062 9.566406 18.347656 9.503906 18.367188 9.4375 Z M 16.71875 10.691406 C 16.667969 11.023438 16.617188 11.351562 16.554688 11.679688 C 16.5 11.960938 16.378906 12.210938 16.167969 12.410156 C 16.082031 12.492188 16 12.574219 15.933594 12.671875 C 15.691406 13.03125 15.359375 13.296875 14.945312 13.480469 C 15.402344 12.480469 15.855469 11.476562 16.316406 10.460938 C 16.464844 10.546875 16.589844 10.617188 16.71875 10.691406 Z M 17.0625 14.152344 C 16.269531 16.867188 15.609375 19.597656 15.082031 22.363281 C 14.667969 21.324219 14.425781 20.265625 14.519531 19.152344 C 14.554688 18.726562 14.574219 18.300781 14.632812 17.878906 C 14.714844 17.273438 14.882812 16.671875 15.171875 16.140625 C 15.449219 15.640625 15.738281 15.121094 16.203125 14.75 C 16.472656 14.535156 16.753906 14.335938 17.0625 14.152344 Z M 14.800781 26.496094 C 15.035156 26.691406 15.238281 26.863281 15.492188 27.074219 C 15.199219 27.039062 14.964844 27.011719 14.710938 26.980469 C 14.738281 26.816406 14.765625 26.679688 14.800781 26.496094 Z M 19.855469 15.058594 C 19.925781 15.117188 19.984375 15.152344 20.027344 15.203125 C 20.394531 15.644531 20.566406 16.160156 20.636719 16.71875 C 20.664062 16.929688 20.683594 17.144531 20.726562 17.351562 C 20.835938 17.855469 20.886719 18.367188 20.867188 18.882812 C 20.847656 19.394531 20.773438 19.898438 20.695312 20.40625 C 20.589844 21.09375 20.351562 21.738281 20.152344 22.394531 C 20.019531 22.828125 19.796875 23.234375 19.425781 23.535156 C 19.371094 23.578125 19.304688 23.621094 19.183594 23.707031 C 19.410156 20.789062 19.632812 17.945312 19.855469 15.054688 Z M 19.023438 7.96875 C 18.945312 7.941406 18.875 7.882812 18.777344 7.824219 C 19.285156 7.597656 19.765625 7.730469 20.082031 8.109375 C 20.230469 8.289062 20.359375 8.453125 20.410156 8.695312 C 20.511719 9.210938 20.253906 9.582031 19.9375 9.949219 C 19.953125 9.875 19.960938 9.796875 19.980469 9.71875 C 20.171875 8.980469 19.800781 8.238281 19.023438 7.96875 Z M 20.09375 10.507812 C 20.125 10.625 20.140625 10.683594 20.167969 10.78125 C 20.078125 10.757812 20.015625 10.738281 19.917969 10.710938 C 19.984375 10.632812 20.027344 10.585938 20.09375 10.507812 Z M 19.9375 11.769531 C 19.9375 11.660156 19.949219 11.550781 20.09375 11.527344 C 20.496094 11.464844 20.84375 11.273438 21.179688 11.058594 C 21.214844 11.03125 21.261719 11.023438 21.332031 10.992188 C 21.363281 11.226562 21.386719 11.433594 21.414062 11.640625 C 21.394531 11.636719 21.375 11.628906 21.359375 11.625 C 21.292969 11.746094 21.199219 11.859375 21.167969 11.988281 C 21.078125 12.382812 21.015625 12.78125 20.9375 13.203125 C 20.625 13.089844 20.285156 12.964844 19.9375 12.835938 C 19.9375 12.480469 19.933594 12.125 19.9375 11.769531 Z M 20.480469 10.210938 C 20.460938 10.191406 20.457031 10.132812 20.472656 10.105469 C 20.550781 9.96875 20.640625 9.835938 20.753906 9.65625 C 20.785156 9.957031 20.800781 10.1875 20.832031 10.417969 C 20.851562 10.601562 20.871094 10.628906 21.023438 10.757812 C 20.839844 10.863281 20.660156 10.96875 20.433594 11.097656 C 20.464844 10.898438 20.492188 10.75 20.515625 10.597656 C 20.535156 10.46875 20.589844 10.335938 20.480469 10.210938 Z M 22.703125 6.265625 C 22.609375 6.367188 22.535156 6.4375 22.480469 6.519531 C 22.25 6.871094 22 7.203125 21.699219 7.496094 C 21.492188 7.695312 21.304688 7.917969 21.105469 8.128906 C 21.074219 8.164062 21.03125 8.183594 20.976562 8.222656 C 20.917969 8.132812 20.867188 8.054688 20.8125 7.96875 C 21.257812 7.53125 21.523438 7 21.746094 6.4375 C 21.769531 6.386719 21.789062 6.316406 21.828125 6.289062 C 22.070312 6.125 22.308594 5.957031 22.5625 5.820312 C 22.785156 5.699219 23.023438 5.765625 23.242188 5.855469 C 23.640625 6.019531 24.019531 6.214844 24.203125 6.664062 C 24.167969 6.738281 24.128906 6.824219 24.082031 6.921875 C 24.035156 6.90625 23.984375 6.863281 23.953125 6.875 C 23.6875 6.980469 23.441406 6.746094 23.175781 6.84375 C 22.933594 6.9375 22.6875 7.023438 22.441406 7.109375 C 22.433594 7.109375 22.425781 7.101562 22.402344 7.089844 C 22.472656 6.824219 22.78125 6.644531 22.703125 6.265625 Z M 21.121094 9.917969 C 21.226562 10.144531 21.304688 10.371094 21.257812 10.613281 C 21.234375 10.613281 21.207031 10.617188 21.183594 10.621094 C 21.164062 10.386719 21.144531 10.152344 21.125 9.917969 Z M 24.261719 5.457031 C 24.054688 5.617188 24.238281 5.835938 24.222656 6.046875 C 23.476562 5.527344 22.71875 5.269531 21.886719 5.949219 C 22.179688 5.433594 22.472656 4.96875 22.824219 4.542969 C 23.164062 4.597656 23.457031 4.722656 23.726562 4.894531 C 23.816406 4.949219 23.882812 5.035156 23.953125 5.113281 C 24.054688 5.222656 24.148438 5.332031 24.261719 5.460938 Z M 16.324219 5.242188 C 16.398438 5.042969 16.484375 4.84375 16.578125 4.65625 C 16.894531 4.027344 17.359375 3.554688 18.035156 3.308594 C 18.160156 3.261719 18.277344 3.191406 18.402344 3.132812 C 19.144531 2.773438 19.917969 2.675781 20.75 2.742188 C 21.496094 2.800781 22.167969 3.054688 22.839844 3.324219 C 23.277344 3.503906 23.605469 3.84375 23.800781 4.292969 C 23.84375 4.386719 23.894531 4.480469 23.957031 4.601562 C 23.652344 4.503906 23.371094 4.410156 23.078125 4.316406 C 23.125 4.207031 23.179688 4.085938 23.253906 3.914062 C 23.152344 3.953125 23.082031 3.96875 23.023438 4.007812 C 22.460938 4.390625 22.0625 4.917969 21.8125 5.539062 C 21.535156 6.21875 21.15625 6.835938 20.777344 7.453125 C 20.742188 7.507812 20.695312 7.554688 20.648438 7.617188 C 20.453125 7.386719 20.277344 7.175781 20.085938 6.949219 C 20.191406 6.609375 20.3125 6.261719 20.410156 5.910156 C 20.578125 5.300781 20.960938 4.808594 21.28125 4.285156 C 21.421875 4.058594 21.554688 3.828125 21.691406 3.59375 C 21.582031 3.496094 21.519531 3.570312 21.460938 3.628906 C 21.101562 4 20.78125 4.398438 20.519531 4.84375 C 20.460938 4.941406 20.375 5.023438 20.3125 5.117188 C 20.269531 5.179688 20.246094 5.25 20.222656 5.324219 C 20.070312 5.773438 19.917969 6.222656 19.769531 6.667969 C 19.492188 6.621094 19.40625 6.519531 19.355469 6.261719 C 19.25 5.710938 19.394531 5.199219 19.597656 4.703125 C 19.753906 4.308594 19.941406 3.925781 20.113281 3.539062 C 20.132812 3.5 20.132812 3.449219 20.117188 3.394531 C 19.847656 3.59375 19.652344 3.851562 19.515625 4.148438 C 19.378906 4.449219 19.234375 4.75 19.148438 5.066406 C 19.035156 5.488281 18.808594 5.898438 18.941406 6.40625 C 18.683594 6.351562 18.464844 6.300781 18.21875 6.246094 C 18.054688 5.84375 17.941406 5.433594 18.113281 4.996094 C 18.261719 4.617188 18.410156 4.238281 18.554688 3.859375 C 18.652344 3.597656 18.746094 3.339844 18.816406 3.050781 C 18.761719 3.097656 18.699219 3.136719 18.65625 3.191406 C 18.300781 3.609375 18.019531 4.070312 17.863281 4.597656 C 17.84375 4.671875 17.808594 4.742188 17.78125 4.816406 C 17.59375 5.238281 17.5625 5.671875 17.675781 6.117188 C 17.6875 6.160156 17.714844 6.199219 17.734375 6.242188 C 17.332031 6.296875 17.179688 6.222656 17.039062 5.871094 C 16.96875 5.6875 16.925781 5.488281 16.875 5.304688 C 16.515625 5.699219 16.605469 5.960938 16.886719 6.324219 C 16.765625 6.371094 16.648438 6.414062 16.539062 6.464844 C 16.433594 6.511719 16.332031 6.570312 16.214844 6.628906 C 16.199219 6.433594 16.1875 6.261719 16.167969 6.089844 C 16.140625 5.792969 16.222656 5.515625 16.324219 5.242188 Z M 16.441406 8.085938 C 16.386719 8.070312 16.355469 8.070312 16.332031 8.054688 C 16.289062 8.023438 16.246094 7.980469 16.1875 7.929688 C 16.242188 7.78125 16.296875 7.636719 16.347656 7.492188 C 16.363281 7.496094 16.378906 7.5 16.398438 7.503906 C 16.410156 7.6875 16.425781 7.871094 16.441406 8.085938 Z M 16.050781 8.285156 C 16.554688 8.707031 17.125 9.003906 17.753906 9.1875 C 17.84375 9.214844 17.925781 9.253906 18.0625 9.304688 C 17.617188 9.636719 17.1875 9.8125 16.65625 9.644531 C 16.65625 9.511719 16.671875 9.386719 16.652344 9.265625 C 16.636719 9.132812 16.507812 9.09375 16.421875 9.191406 C 16.328125 9.300781 16.257812 9.425781 16.15625 9.574219 C 15.980469 9.125 15.890625 8.675781 15.859375 8.164062 C 15.949219 8.21875 16.003906 8.246094 16.050781 8.289062 Z M 9.859375 36.941406 C 9.773438 37.203125 9.707031 37.472656 9.613281 37.738281 C 9.5625 37.882812 9.480469 38 9.320312 38.074219 C 8.886719 38.265625 8.464844 38.480469 8.039062 38.691406 C 7.890625 38.765625 7.753906 38.777344 7.59375 38.726562 C 7.148438 38.589844 6.78125 38.355469 6.515625 37.96875 C 6.453125 37.875 6.394531 37.769531 6.34375 37.667969 C 6.246094 37.484375 6.289062 37.324219 6.414062 37.15625 C 6.5625 36.953125 6.714844 36.746094 6.804688 36.515625 C 6.964844 36.121094 6.753906 35.726562 6.371094 35.660156 C 6.191406 35.625 6.003906 35.636719 5.820312 35.636719 C 5.714844 35.640625 5.609375 35.664062 5.476562 35.679688 C 5.386719 35.527344 5.292969 35.371094 5.210938 35.207031 C 5.1875 35.15625 5.195312 35.078125 5.207031 35.011719 C 5.304688 34.382812 5.421875 33.753906 5.421875 33.109375 C 5.425781 32.761719 5.476562 32.410156 5.546875 32.074219 C 5.792969 30.945312 6.042969 29.820312 6.316406 28.699219 C 6.46875 28.078125 6.664062 27.46875 6.839844 26.855469 C 7.078125 26.027344 7.304688 25.195312 7.5625 24.371094 C 7.898438 23.289062 8.234375 22.207031 8.609375 21.136719 C 8.972656 20.105469 9.367188 19.082031 9.832031 18.089844 C 10.136719 17.441406 10.414062 16.777344 10.738281 16.136719 C 11.230469 15.160156 11.71875 14.175781 12.265625 13.226562 C 13.101562 11.78125 13.984375 10.363281 14.847656 8.933594 C 15.035156 8.632812 15.238281 8.339844 15.449219 8.015625 C 15.480469 8.761719 15.589844 9.453125 15.976562 10.101562 C 15.855469 10.371094 15.71875 10.660156 15.585938 10.949219 C 15.195312 11.8125 14.796875 12.675781 14.410156 13.546875 C 14.296875 13.796875 14.167969 13.992188 13.867188 14.042969 C 13.570312 14.089844 13.28125 14.175781 12.992188 14.242188 C 12.304688 14.398438 11.78125 14.785156 11.375 15.355469 C 10.601562 16.449219 10.15625 17.683594 9.824219 18.96875 C 9.683594 19.511719 9.527344 20.054688 9.429688 20.605469 C 9.328125 21.1875 9.28125 21.777344 9.214844 22.367188 C 9.144531 22.964844 9.097656 23.5625 9.015625 24.160156 C 8.882812 25.128906 8.722656 26.09375 8.582031 27.0625 C 8.511719 27.535156 8.5 28.007812 8.691406 28.464844 C 8.8125 28.75 8.894531 29.050781 9.015625 29.339844 C 9.167969 29.707031 9.324219 30.070312 9.503906 30.425781 C 9.625 30.660156 9.601562 30.890625 9.53125 31.121094 C 9.417969 31.5 9.386719 31.886719 9.34375 32.273438 C 9.339844 32.308594 9.378906 32.351562 9.367188 32.382812 C 9.199219 32.875 9.171875 33.390625 9.140625 33.902344 C 9.128906 34.078125 9.09375 34.253906 9.09375 34.429688 C 9.273438 34.199219 9.296875 33.921875 9.355469 33.652344 C 9.410156 33.394531 9.492188 33.136719 9.546875 32.875 C 9.601562 32.605469 9.636719 32.328125 9.683594 32.054688 C 9.726562 31.785156 9.769531 31.511719 9.824219 31.175781 C 9.953125 31.367188 10.054688 31.5 10.144531 31.644531 C 10.359375 32.003906 10.566406 32.363281 10.785156 32.722656 C 10.953125 33.003906 11.074219 33.007812 11.339844 32.734375 C 11.171875 32.441406 11.003906 32.140625 10.832031 31.835938 C 10.589844 31.417969 10.351562 30.996094 10.109375 30.578125 C 9.996094 30.386719 9.988281 30.183594 10.027344 29.964844 C 10.070312 29.710938 10.085938 29.449219 10.128906 29.191406 C 10.191406 28.839844 10.261719 28.488281 10.335938 28.140625 C 10.507812 27.324219 10.683594 26.511719 10.863281 25.699219 C 11.046875 24.875 11.226562 24.050781 11.429688 23.234375 C 11.609375 22.527344 11.816406 21.832031 12.011719 21.132812 C 12.027344 21.078125 12.050781 21.027344 12.113281 20.976562 C 12.152344 21.234375 12.183594 21.496094 12.230469 21.753906 C 12.289062 22.085938 12.332031 22.425781 12.429688 22.75 C 12.53125 23.097656 12.503906 23.4375 12.429688 23.777344 C 12.316406 24.3125 12.109375 24.8125 11.875 25.304688 C 11.722656 25.628906 11.589844 25.964844 11.480469 26.304688 C 11.429688 26.453125 11.417969 26.636719 11.453125 26.789062 C 11.566406 27.296875 11.671875 27.8125 11.84375 28.304688 C 11.988281 28.710938 12.222656 29.089844 12.417969 29.476562 C 12.546875 29.738281 12.683594 29.996094 12.828125 30.277344 C 12.632812 30.59375 12.425781 30.910156 12.242188 31.238281 C 12.019531 31.644531 11.789062 32.050781 11.601562 32.476562 C 11.210938 33.363281 10.832031 34.257812 10.476562 35.160156 C 10.246094 35.742188 10.058594 36.34375 9.859375 36.9375 Z M 18.386719 33.941406 C 18.445312 34.125 18.421875 34.335938 18.421875 34.53125 C 18.425781 35.269531 18.433594 36.003906 18.425781 36.742188 C 18.421875 36.9375 18.445312 37.148438 18.3125 37.328125 C 18.257812 37.40625 18.214844 37.5 18.191406 37.59375 C 18.0625 38.101562 17.589844 38.179688 17.210938 38.367188 C 17.101562 38.421875 16.980469 38.386719 16.890625 38.296875 C 16.753906 38.160156 16.609375 38.027344 16.484375 37.882812 C 16.402344 37.789062 16.332031 37.679688 16.277344 37.566406 C 16.011719 37.007812 15.539062 36.707031 14.992188 36.488281 C 14.5625 36.320312 13.921875 36.566406 13.6875 36.976562 C 13.589844 37.148438 13.507812 37.34375 13.296875 37.460938 C 13.234375 37.296875 13.167969 37.148438 13.113281 36.992188 C 12.859375 36.253906 12.175781 36.1875 11.683594 36.503906 C 11.300781 36.75 10.933594 37.019531 10.5625 37.28125 C 10.460938 37.351562 10.359375 37.425781 10.210938 37.472656 C 10.28125 37.265625 10.34375 37.0625 10.414062 36.859375 C 10.902344 35.417969 11.480469 34.007812 12.117188 32.625 C 12.386719 32.035156 12.695312 31.464844 13.058594 30.921875 C 13.261719 30.617188 13.40625 30.273438 13.566406 29.941406 C 13.683594 29.695312 13.78125 29.445312 13.890625 29.195312 C 13.902344 29.164062 13.933594 29.140625 13.988281 29.074219 C 14 29.160156 14.023438 29.207031 14.007812 29.238281 C 13.882812 29.5 13.9375 29.765625 13.960938 30.03125 C 13.96875 30.09375 13.980469 30.167969 13.957031 30.21875 C 13.785156 30.554688 13.808594 30.929688 13.75 31.289062 C 13.671875 31.738281 13.644531 32.195312 13.585938 32.648438 C 13.53125 33.078125 13.460938 33.503906 13.40625 33.929688 C 13.339844 34.414062 13.28125 34.898438 13.226562 35.382812 C 13.210938 35.511719 13.222656 35.644531 13.277344 35.777344 C 13.378906 35.316406 13.511719 34.859375 13.570312 34.390625 C 13.617188 34.050781 13.714844 33.726562 13.746094 33.386719 C 13.78125 33.039062 13.855469 32.699219 13.90625 32.355469 C 13.976562 31.867188 14.035156 31.375 14.109375 30.890625 C 14.171875 30.472656 14.25 30.054688 14.320312 29.636719 C 14.332031 29.574219 14.363281 29.515625 14.394531 29.417969 C 14.550781 29.546875 14.679688 29.664062 14.816406 29.761719 C 14.996094 29.894531 15.171875 30.03125 15.371094 30.132812 C 15.5 30.203125 15.660156 30.25 15.808594 30.253906 C 16.164062 30.257812 16.519531 30.226562 16.875 30.21875 C 17.210938 30.207031 17.550781 30.203125 17.886719 30.210938 C 18.039062 30.214844 18.191406 30.261719 18.316406 30.285156 C 18.523438 30.652344 18.375 31.019531 18.402344 31.375 C 18.4375 31.898438 18.390625 32.425781 18.429688 32.949219 C 18.445312 33.167969 18.382812 33.390625 18.367188 33.613281 C 18.359375 33.71875 18.347656 33.824219 18.386719 33.945312 Z M 18.464844 29.359375 C 18.488281 29.527344 18.457031 29.671875 18.394531 29.816406 C 18.378906 29.824219 18.359375 29.839844 18.34375 29.839844 C 17.683594 29.855469 17.027344 29.875 16.371094 29.875 C 16.101562 29.875 15.832031 29.835938 15.566406 29.789062 C 15.445312 29.769531 15.320312 29.714844 15.222656 29.640625 C 14.996094 29.460938 14.785156 29.257812 14.566406 29.066406 C 14.449219 28.96875 14.425781 28.839844 14.449219 28.699219 C 14.496094 28.394531 14.550781 28.09375 14.597656 27.789062 C 14.621094 27.65625 14.636719 27.523438 14.660156 27.367188 C 14.890625 27.394531 15.109375 27.429688 15.328125 27.445312 C 15.480469 27.460938 15.636719 27.449219 15.792969 27.445312 C 15.984375 27.441406 16.175781 27.441406 16.367188 27.425781 C 16.425781 27.421875 16.511719 27.390625 16.535156 27.34375 C 16.558594 27.300781 16.542969 27.195312 16.507812 27.164062 C 16.40625 27.078125 16.289062 27.007812 16.171875 26.945312 C 15.898438 26.796875 15.613281 26.675781 15.347656 26.515625 C 15.199219 26.425781 15.019531 26.316406 15.132812 26.042969 C 15.300781 26.132812 15.445312 26.230469 15.605469 26.285156 C 15.824219 26.363281 16.046875 26.445312 16.277344 26.460938 C 16.839844 26.496094 17.320312 26.726562 17.765625 27.050781 C 17.863281 27.125 17.976562 27.1875 18.09375 27.230469 C 18.457031 27.375 18.476562 27.402344 18.492188 27.789062 C 18.503906 28.089844 18.496094 28.378906 18.4375 28.675781 C 18.390625 28.894531 18.433594 29.136719 18.464844 29.363281 Z M 22.214844 36.296875 C 22.210938 36.539062 22.1875 36.78125 22.167969 37.023438 C 22.160156 37.078125 22.128906 37.128906 22.09375 37.214844 C 21.71875 37.09375 21.363281 36.992188 21.019531 36.867188 C 20.570312 36.699219 20.109375 36.683594 19.644531 36.691406 C 19.414062 36.695312 19.179688 36.707031 18.953125 36.742188 C 18.824219 36.761719 18.703125 36.835938 18.550781 36.894531 C 18.765625 34.675781 18.730469 32.464844 18.800781 30.242188 C 19.070312 30.160156 19.347656 30.238281 19.621094 30.28125 C 20.203125 30.375 20.785156 30.46875 21.367188 30.570312 C 21.640625 30.621094 21.910156 30.691406 22.199219 30.757812 C 22.207031 30.863281 22.214844 30.945312 22.214844 31.03125 C 22.210938 32.253906 22.203125 33.476562 22.199219 34.699219 C 22.199219 35.230469 22.214844 35.765625 22.214844 36.296875 Z M 22.21875 25.445312 C 22.21875 25.960938 22.207031 26.476562 22.199219 26.988281 C 22.199219 27.074219 22.1875 27.160156 22.183594 27.269531 C 21.804688 27.308594 19.148438 27.164062 18.960938 27.09375 C 18.992188 26.6875 19.023438 26.277344 19.050781 25.867188 C 19.066406 25.605469 19.066406 25.34375 19.082031 25.085938 C 19.09375 24.835938 19.117188 24.582031 19.140625 24.332031 C 19.148438 24.222656 19.175781 24.136719 19.292969 24.078125 C 19.828125 23.796875 20.21875 23.375 20.445312 22.816406 C 20.566406 22.523438 20.65625 22.214844 20.761719 21.914062 C 20.800781 21.804688 20.855469 21.699219 20.886719 21.585938 C 20.96875 21.28125 21.046875 20.96875 21.117188 20.660156 C 21.164062 20.453125 21.199219 20.242188 21.242188 20.03125 C 21.382812 19.3125 21.394531 18.585938 21.296875 17.859375 C 21.210938 17.238281 21.09375 16.621094 20.980469 16.003906 C 20.902344 15.578125 20.632812 15.253906 20.367188 14.929688 C 20.226562 14.757812 20.074219 14.59375 19.9375 14.417969 C 19.894531 14.363281 19.882812 14.277344 19.886719 14.203125 C 19.894531 13.980469 19.917969 13.761719 19.929688 13.539062 C 19.933594 13.464844 19.921875 13.386719 19.914062 13.289062 C 19.988281 13.292969 20.058594 13.28125 20.113281 13.304688 C 20.34375 13.410156 20.570312 13.519531 20.792969 13.636719 C 20.960938 13.722656 21.0625 13.855469 21.136719 14.039062 C 21.25 14.304688 21.40625 14.558594 21.570312 14.796875 C 21.679688 14.953125 21.738281 15.113281 21.746094 15.304688 C 21.769531 15.800781 21.789062 16.292969 21.824219 16.789062 C 21.867188 17.445312 21.929688 18.101562 21.976562 18.761719 C 22.027344 19.476562 22.074219 20.191406 22.117188 20.910156 C 22.152344 21.585938 22.195312 22.265625 22.210938 22.941406 C 22.226562 23.777344 22.21875 24.613281 22.21875 25.445312 Z M 22.359375 17.207031 C 22.347656 17.207031 22.332031 17.207031 22.316406 17.207031 C 22.28125 16.636719 22.246094 16.066406 22.210938 15.46875 C 22.570312 15.644531 22.902344 15.808594 23.222656 15.964844 C 23.035156 16.160156 22.835938 16.332031 22.691406 16.539062 C 22.550781 16.742188 22.46875 16.984375 22.359375 17.207031 Z M 23.453125 25.96875 C 23.304688 26.257812 23.210938 26.582031 23.117188 26.894531 C 23.089844 26.988281 23.125 27.101562 23.132812 27.21875 C 23.003906 27.242188 22.871094 27.261719 22.734375 27.285156 C 22.566406 27.09375 22.671875 26.871094 22.671875 26.675781 C 22.667969 25.785156 22.691406 24.894531 22.6875 24 C 22.6875 23.453125 22.660156 22.90625 22.640625 22.359375 C 22.65625 22.355469 22.671875 22.351562 22.6875 22.347656 C 22.78125 22.703125 22.875 23.054688 22.964844 23.410156 C 23.148438 24.132812 23.328125 24.855469 23.511719 25.578125 C 23.550781 25.722656 23.53125 25.828125 23.453125 25.972656 Z M 23.660156 26.402344 C 23.675781 26.402344 23.695312 26.398438 23.714844 26.398438 C 23.792969 26.644531 23.871094 26.890625 23.957031 27.152344 C 23.78125 27.164062 23.628906 27.171875 23.417969 27.183594 C 23.507812 26.894531 23.582031 26.648438 23.660156 26.402344 Z M 26.539062 33.148438 C 26.304688 33.835938 26.148438 34.550781 25.957031 35.261719 C 25.707031 34.53125 25.472656 33.785156 25.191406 33.058594 C 24.910156 32.339844 24.582031 31.640625 24.265625 30.910156 C 24.796875 30.875 25.304688 30.929688 25.816406 30.972656 C 26.324219 31.015625 26.832031 31.066406 27.371094 31.117188 C 27.089844 31.792969 26.777344 32.457031 26.539062 33.148438 Z M 29.097656 30.289062 C 28.96875 30.546875 28.710938 30.695312 28.402344 30.683594 C 27.8125 30.664062 27.21875 30.648438 26.628906 30.609375 C 25.90625 30.5625 25.183594 30.488281 24.460938 30.441406 C 23.996094 30.410156 23.53125 30.410156 23.066406 30.390625 C 22.945312 30.382812 22.824219 30.359375 22.691406 30.339844 C 22.589844 29.453125 22.640625 28.585938 22.667969 27.703125 C 22.992188 27.664062 23.285156 27.632812 23.582031 27.59375 C 23.695312 27.578125 23.808594 27.550781 23.921875 27.527344 C 24.066406 27.503906 24.152344 27.546875 24.214844 27.691406 C 24.351562 27.992188 24.5 28.285156 24.667969 28.570312 C 24.8125 28.820312 25.023438 29.019531 25.316406 29.066406 C 25.625 29.117188 25.945312 29.132812 26.257812 29.148438 C 26.769531 29.175781 27.285156 29.191406 27.796875 29.199219 C 28.195312 29.203125 28.589844 29.179688 28.988281 29.175781 C 29.074219 29.171875 29.160156 29.179688 29.296875 29.1875 C 29.269531 29.582031 29.265625 29.960938 29.097656 30.289062 Z M 36.667969 27.84375 C 36.355469 27.925781 36.015625 27.902344 35.6875 27.941406 C 35.265625 27.996094 34.832031 28.027344 34.421875 28.132812 C 33.773438 28.300781 33.113281 28.410156 32.449219 28.488281 C 31.914062 28.550781 31.371094 28.578125 30.832031 28.625 C 30.550781 28.648438 30.273438 28.691406 29.992188 28.699219 C 29.410156 28.722656 28.828125 28.734375 28.25 28.742188 C 27.523438 28.746094 26.792969 28.75 26.0625 28.742188 C 25.863281 28.738281 25.65625 28.703125 25.457031 28.667969 C 25.308594 28.644531 25.199219 28.5625 25.121094 28.421875 C 24.667969 27.625 24.316406 26.789062 24.09375 25.894531 C 23.851562 24.929688 23.578125 23.96875 23.351562 22.996094 C 23.203125 22.367188 23.097656 21.722656 22.992188 21.082031 C 22.90625 20.566406 22.820312 20.046875 22.78125 19.527344 C 22.734375 18.90625 22.667969 18.28125 22.808594 17.667969 C 22.871094 17.394531 22.972656 17.128906 23.082031 16.871094 C 23.171875 16.652344 23.335938 16.472656 23.550781 16.371094 C 23.671875 16.3125 23.828125 16.328125 23.96875 16.316406 C 24.023438 16.316406 24.085938 16.363281 24.136719 16.347656 C 24.46875 16.257812 24.707031 16.441406 24.960938 16.609375 C 25.238281 16.792969 25.449219 17.03125 25.546875 17.347656 C 25.621094 17.597656 25.683594 17.851562 25.730469 18.109375 C 25.808594 18.570312 25.871094 19.03125 25.949219 19.488281 C 26.058594 20.136719 26.1875 20.785156 26.285156 21.4375 C 26.480469 22.703125 26.65625 23.96875 26.847656 25.234375 C 26.898438 25.574219 27.109375 25.925781 27.539062 25.992188 C 27.914062 26.050781 28.277344 26.136719 28.664062 26.121094 C 28.996094 26.109375 29.332031 26.207031 29.667969 26.234375 C 29.917969 26.257812 30.171875 26.246094 30.421875 26.25 C 30.625 26.25 30.828125 26.257812 31.03125 26.246094 C 31.273438 26.230469 31.511719 26.195312 31.753906 26.179688 C 31.953125 26.167969 32.15625 26.175781 32.359375 26.164062 C 32.679688 26.148438 33 26.125 33.316406 26.101562 C 33.75 26.066406 34.183594 26.027344 34.617188 25.996094 C 34.878906 25.976562 35.148438 25.992188 35.398438 25.933594 C 35.589844 25.890625 35.789062 25.789062 35.933594 25.660156 C 36.226562 25.40625 36.507812 25.136719 36.75 24.835938 C 37.050781 24.460938 37.414062 24.226562 37.882812 24.140625 C 38.0625 24.105469 38.234375 24.039062 38.449219 23.976562 C 38.359375 24.25 38.210938 24.402344 38.011719 24.523438 C 37.738281 24.6875 37.46875 24.867188 37.210938 25.050781 C 37.121094 25.117188 37.042969 25.214844 36.988281 25.316406 C 36.957031 25.371094 36.957031 25.476562 36.992188 25.523438 C 37.039062 25.578125 37.148438 25.636719 37.207031 25.621094 C 37.644531 25.496094 38.097656 25.417969 38.484375 25.15625 C 38.84375 24.910156 39.207031 24.664062 39.570312 24.421875 C 39.609375 24.394531 39.648438 24.371094 39.71875 24.328125 C 39.753906 24.734375 39.71875 25.109375 39.601562 25.460938 C 39.457031 25.902344 39.273438 26.332031 39.070312 26.75 C 38.949219 26.992188 38.722656 27.160156 38.472656 27.285156 C 37.90625 27.574219 37.28125 27.691406 36.671875 27.84375 Z M 36.667969 27.84375 "/></g><path style=" stroke:none;fill-rule:nonzero;fill:#935d37;fill-opacity:1;" d="M 39.988281 41.070312 C 39.628906 40.066406 39.226562 39.078125 38.839844 38.089844 C 38.476562 37.160156 38.105469 36.230469 37.738281 35.300781 C 37.207031 33.976562 36.679688 32.652344 36.136719 31.335938 C 36.011719 31.039062 35.835938 30.765625 35.683594 30.480469 C 35.664062 30.488281 35.644531 30.496094 35.625 30.503906 C 35.640625 30.597656 35.65625 30.691406 35.675781 30.785156 C 35.808594 31.457031 36.066406 32.085938 36.320312 32.714844 C 36.847656 34.03125 37.371094 35.347656 37.890625 36.664062 C 38.28125 37.636719 38.675781 38.605469 39.046875 39.582031 C 39.5625 40.953125 40.074219 42.324219 40.558594 43.707031 C 40.828125 44.476562 41.042969 45.261719 41.277344 46.042969 C 41.382812 46.378906 41.472656 46.722656 41.566406 47.0625 C 41.582031 47.058594 41.601562 47.054688 41.617188 47.050781 C 41.511719 46.421875 41.425781 45.789062 41.289062 45.167969 C 40.984375 43.761719 40.46875 42.421875 39.988281 41.070312 Z M 39.988281 41.070312 "/><path style=" stroke:none;fill-rule:nonzero;fill:#935d37;fill-opacity:1;" d="M 30.851562 30.847656 C 30.824219 30.914062 30.796875 30.964844 30.78125 31.015625 C 30.675781 31.378906 30.566406 31.742188 30.472656 32.105469 C 30.257812 32.914062 30.035156 33.71875 29.847656 34.53125 C 29.605469 35.597656 29.351562 36.660156 29.21875 37.75 C 29.109375 38.660156 28.984375 39.574219 28.886719 40.488281 C 28.835938 40.949219 28.835938 41.417969 28.804688 41.882812 C 28.714844 43.191406 28.714844 44.496094 28.886719 45.800781 C 28.957031 46.304688 29.046875 46.8125 29.128906 47.316406 C 29.15625 47.316406 29.183594 47.316406 29.214844 47.316406 C 29.214844 47.222656 29.21875 47.128906 29.214844 47.039062 C 29.164062 46.292969 29.082031 45.550781 29.066406 44.804688 C 29.035156 43.59375 29.039062 42.382812 29.15625 41.175781 C 29.261719 40.085938 29.351562 38.996094 29.558594 37.921875 C 29.726562 37.066406 29.855469 36.203125 30.039062 35.351562 C 30.300781 34.15625 30.597656 32.972656 30.882812 31.785156 C 30.929688 31.589844 30.988281 31.394531 31.03125 31.195312 C 31.0625 31.046875 31.042969 30.910156 30.851562 30.847656 Z M 30.851562 30.847656 "/><path style=" stroke:none;fill-rule:nonzero;fill:#935d37;fill-opacity:1;" d="M 35.242188 45 C 35.128906 44 35 43 34.871094 42 C 34.746094 41.058594 34.601562 40.121094 34.480469 39.179688 C 34.375 38.363281 34.289062 37.542969 34.199219 36.726562 C 34.148438 36.253906 34.101562 35.78125 34.0625 35.308594 C 34.011719 34.765625 33.972656 34.222656 33.929688 33.683594 C 33.859375 32.84375 33.792969 32.003906 33.722656 31.164062 C 33.707031 30.964844 33.6875 30.769531 33.503906 30.566406 C 33.476562 30.820312 33.429688 31.019531 33.4375 31.21875 C 33.484375 32.167969 33.535156 33.117188 33.605469 34.0625 C 33.664062 34.855469 33.75 35.644531 33.839844 36.433594 C 33.960938 37.492188 34.085938 38.550781 34.226562 39.609375 C 34.363281 40.636719 34.519531 41.664062 34.664062 42.6875 C 34.8125 43.726562 34.96875 44.761719 35.109375 45.796875 C 35.203125 46.46875 35.28125 47.140625 35.367188 47.8125 C 35.398438 48.050781 35.429688 48.289062 35.46875 48.59375 C 35.46875 48.164062 35.492188 47.796875 35.464844 47.429688 C 35.402344 46.621094 35.332031 45.808594 35.242188 45 Z M 35.242188 45 "/><path style=" stroke:none;fill-rule:nonzero;fill:#935d37;fill-opacity:1;" d="M 42.5625 40.292969 C 41.988281 38.660156 41.277344 37.082031 40.425781 35.578125 C 39.480469 33.90625 38.476562 32.265625 37.496094 30.613281 C 37.386719 30.433594 37.25 30.277344 37.039062 30.167969 C 37.019531 30.449219 37.144531 30.660156 37.265625 30.867188 C 37.636719 31.484375 38.015625 32.09375 38.382812 32.710938 C 38.738281 33.3125 39.078125 33.921875 39.433594 34.523438 C 40.1875 35.804688 40.882812 37.117188 41.488281 38.472656 C 41.988281 39.597656 42.441406 40.742188 42.917969 41.878906 C 42.984375 42.035156 43.058594 42.191406 43.15625 42.398438 C 43.15625 42.292969 43.167969 42.242188 43.152344 42.203125 C 42.960938 41.5625 42.785156 40.917969 42.5625 40.292969 Z M 42.5625 40.292969 "/><path style=" stroke:none;fill-rule:nonzero;fill:#935d37;fill-opacity:1;" d="M 35.371094 25.179688 C 35.386719 25.128906 35.410156 25.09375 35.398438 25.078125 C 35.304688 24.933594 35.222656 24.777344 35.101562 24.65625 C 34.632812 24.1875 34.382812 23.640625 34.402344 22.964844 C 34.417969 22.503906 34.511719 22.0625 34.664062 21.632812 C 34.898438 20.996094 34.734375 20.414062 34.464844 19.839844 C 34.421875 19.746094 34.351562 19.667969 34.230469 19.707031 C 34.277344 19.96875 34.316406 20.21875 34.371094 20.460938 C 34.441406 20.773438 34.40625 21.074219 34.304688 21.375 C 34.234375 21.585938 34.15625 21.796875 34.105469 22.011719 C 33.925781 22.78125 33.929688 23.527344 34.359375 24.230469 C 34.609375 24.636719 34.960938 24.925781 35.371094 25.179688 Z M 35.371094 25.179688 "/><path style=" stroke:none;fill-rule:nonzero;fill:#935d37;fill-opacity:1;" d="M 35.507812 19.875 C 35.8125 20.601562 35.882812 21.328125 35.605469 22.078125 C 35.476562 22.4375 35.363281 22.804688 35.238281 23.183594 C 35.519531 23.160156 35.636719 22.972656 35.722656 22.78125 C 35.867188 22.457031 36.003906 22.121094 36.09375 21.777344 C 36.203125 21.355469 36.234375 20.917969 36.058594 20.492188 C 35.894531 20.097656 35.753906 19.695312 35.574219 19.308594 C 35.449219 19.042969 35.28125 18.792969 35.132812 18.539062 C 35.109375 18.546875 35.085938 18.554688 35.0625 18.5625 C 35.078125 18.628906 35.082031 18.695312 35.101562 18.753906 C 35.234375 19.128906 35.355469 19.507812 35.507812 19.875 Z M 35.507812 19.875 "/><path style=" stroke:none;fill-rule:nonzero;fill:#935d37;fill-opacity:1;" d="M 22.105469 7.9375 C 22.308594 8.039062 22.445312 8.210938 22.589844 8.382812 C 22.6875 8.5 22.777344 8.410156 22.859375 8.351562 C 22.75 7.847656 22.386719 7.617188 22.058594 7.839844 C 22.070312 7.871094 22.078125 7.925781 22.105469 7.9375 Z M 22.105469 7.9375 "/></g></svg>