<svg xmlns="http://www.w3.org/2000/svg" xmlns:xlink="http://www.w3.org/1999/xlink" width="70" zoomAndPan="magnify" viewBox="0 0 52.5 52.499999" height="70" preserveAspectRatio="xMidYMid meet" version="1.2"><defs><clipPath id="3c18b4469a"><path d="M 1.472656 15.667969 L 50.507812 15.667969 L 50.507812 36.472656 L 1.472656 36.472656 Z M 1.472656 15.667969 "/></clipPath></defs><g id="4587f25576"><g clip-rule="nonzero" clip-path="url(#3c18b4469a)"><path style=" stroke:none;fill-rule:nonzero;fill:#ad5a4c;fill-opacity:1;" d="M 50.414062 15.855469 C 50.398438 15.765625 50.335938 15.6875 50.226562 15.679688 C 50.191406 15.671875 50.15625 15.671875 50.117188 15.6875 C 46.574219 16.097656 43.027344 16.503906 39.480469 16.902344 C 35.820312 17.308594 32.15625 17.703125 28.492188 18.078125 C 26.511719 18.277344 24.53125 18.472656 22.546875 18.65625 C 22.492188 18.664062 22.445312 18.683594 22.40625 18.714844 C 22.296875 18.773438 22.234375 18.898438 22.320312 19.027344 C 22.335938 19.070312 22.363281 19.105469 22.402344 19.132812 C 23.601562 20.6875 25.230469 21.855469 26.445312 23.390625 C 26.417969 23.429688 26.402344 23.480469 26.410156 23.542969 C 26.683594 26.054688 26.328125 28.582031 26.394531 31.097656 C 26.398438 31.226562 26.511719 31.328125 26.632812 31.347656 C 26.695312 31.375 26.773438 31.375 26.851562 31.328125 C 28.144531 30.523438 29.417969 29.6875 30.707031 28.886719 C 30.742188 28.867188 30.765625 28.84375 30.785156 28.816406 C 32.035156 30.324219 33.261719 31.855469 34.402344 33.445312 C 34.789062 33.980469 35.164062 34.523438 35.492188 35.097656 C 35.503906 35.125 35.519531 35.148438 35.539062 35.171875 C 35.617188 35.292969 35.75 35.300781 35.855469 35.246094 C 35.894531 35.226562 35.933594 35.199219 35.964844 35.15625 C 37.828125 32.496094 39.824219 29.9375 41.875 27.421875 C 43.691406 25.199219 45.523438 22.984375 47.230469 20.671875 C 48.335938 19.171875 49.390625 17.632812 50.398438 16.0625 C 50.433594 16 50.4375 15.925781 50.414062 15.855469 Z M 23.03125 19.117188 C 26.445312 18.796875 29.855469 18.449219 33.261719 18.085938 C 36.925781 17.695312 40.585938 17.285156 44.242188 16.867188 C 45.535156 16.722656 46.824219 16.574219 48.113281 16.425781 C 42.773438 18.347656 37.332031 19.96875 31.902344 21.621094 C 31.027344 21.890625 30.152344 22.15625 29.28125 22.425781 C 28.824219 22.566406 28.367188 22.707031 27.910156 22.851562 C 27.699219 22.917969 27.488281 22.984375 27.277344 23.046875 C 27.167969 23.082031 27.023438 23.109375 26.890625 23.148438 C 25.738281 21.683594 24.207031 20.558594 23.03125 19.117188 Z M 26.929688 23.683594 C 26.933594 23.683594 26.9375 23.679688 26.945312 23.675781 C 27.074219 23.582031 27.359375 23.550781 27.519531 23.503906 C 27.695312 23.449219 27.871094 23.390625 28.046875 23.335938 C 28.464844 23.207031 28.886719 23.074219 29.308594 22.945312 C 30.078125 22.710938 30.851562 22.472656 31.621094 22.238281 C 33.148438 21.769531 34.679688 21.308594 36.207031 20.839844 C 38.640625 20.09375 41.074219 19.339844 43.492188 18.542969 C 40.050781 20.136719 36.660156 21.84375 33.253906 23.5 C 32.480469 23.875 31.707031 24.253906 30.929688 24.625 C 30.550781 24.804688 30.167969 24.988281 29.789062 25.167969 C 29.585938 25.261719 29.382812 25.359375 29.179688 25.453125 C 29.09375 25.496094 29.007812 25.535156 28.921875 25.574219 C 28.902344 25.585938 28.78125 25.636719 28.71875 25.671875 C 28.636719 25.664062 28.554688 25.699219 28.507812 25.800781 C 28.503906 25.804688 28.503906 25.8125 28.5 25.816406 C 28.484375 25.839844 28.472656 25.867188 28.464844 25.894531 C 27.871094 27.195312 27.429688 28.554688 26.898438 29.878906 C 26.933594 27.8125 27.132812 25.742188 26.929688 23.683594 Z M 30.453125 28.449219 C 29.355469 29.132812 28.269531 29.835938 27.171875 30.527344 C 27.738281 29.175781 28.1875 27.773438 28.777344 26.429688 C 29.34375 27.097656 29.910156 27.765625 30.472656 28.441406 C 30.464844 28.441406 30.460938 28.445312 30.453125 28.449219 Z M 44.445312 23.46875 C 42.628906 25.742188 40.75 27.964844 38.960938 30.261719 C 37.863281 31.667969 36.796875 33.101562 35.765625 34.5625 C 35.128906 33.511719 34.371094 32.53125 33.621094 31.5625 C 32.601562 30.242188 31.542969 28.949219 30.476562 27.667969 C 30.023438 27.125 29.566406 26.585938 29.109375 26.042969 C 29.277344 25.964844 29.445312 25.890625 29.609375 25.808594 C 29.960938 25.644531 30.308594 25.480469 30.65625 25.3125 C 31.355469 24.980469 32.050781 24.648438 32.742188 24.308594 C 34.183594 23.609375 35.625 22.90625 37.0625 22.203125 C 39.902344 20.8125 42.75 19.429688 45.632812 18.132812 C 46.925781 17.550781 48.226562 16.992188 49.539062 16.460938 C 47.957031 18.878906 46.246094 21.210938 44.445312 23.46875 Z M 3.773438 35.375 C 3.214844 35.644531 2.65625 35.914062 2.097656 36.179688 C 1.808594 36.324219 1.550781 35.886719 1.84375 35.746094 C 2.402344 35.476562 2.960938 35.207031 3.519531 34.9375 C 3.8125 34.796875 4.066406 35.234375 3.773438 35.375 Z M 6.785156 33.605469 C 6.332031 33.925781 5.898438 34.273438 5.484375 34.640625 C 5.242188 34.859375 4.882812 34.5 5.125 34.285156 C 5.574219 33.886719 6.042969 33.515625 6.53125 33.167969 C 6.796875 32.980469 7.046875 33.421875 6.785156 33.605469 Z M 9.390625 31.617188 C 9.042969 31.871094 8.695312 32.125 8.351562 32.382812 C 8.085938 32.574219 7.835938 32.136719 8.09375 31.945312 C 8.441406 31.691406 8.789062 31.433594 9.132812 31.179688 C 9.398438 30.984375 9.648438 31.425781 9.390625 31.617188 Z M 10.457031 30.574219 C 10.222656 30.800781 9.867188 30.441406 10.101562 30.214844 C 10.3125 30.015625 10.519531 29.8125 10.730469 29.609375 C 10.964844 29.382812 11.324219 29.742188 11.085938 29.96875 C 10.878906 30.167969 10.667969 30.371094 10.457031 30.574219 Z M 12.230469 27.988281 C 12.082031 28.214844 11.9375 28.441406 11.789062 28.667969 C 11.609375 28.9375 11.171875 28.683594 11.351562 28.414062 C 11.5 28.1875 11.648438 27.960938 11.796875 27.734375 C 11.972656 27.464844 12.410156 27.71875 12.230469 27.988281 Z M 12.488281 26.109375 C 12.582031 25.832031 12.65625 25.554688 12.71875 25.269531 C 12.785156 24.949219 13.269531 25.085938 13.203125 25.402344 C 13.144531 25.6875 13.066406 25.964844 12.976562 26.242188 C 12.871094 26.550781 12.382812 26.417969 12.488281 26.109375 Z M 12.730469 23.160156 C 12.65625 22.84375 13.144531 22.707031 13.214844 23.027344 C 13.277344 23.308594 13.304688 23.59375 13.28125 23.878906 C 13.253906 24.203125 12.75 24.203125 12.773438 23.878906 C 12.792969 23.636719 12.78125 23.398438 12.730469 23.160156 Z M 10.8125 21.800781 C 10.8125 21.652344 10.929688 21.566406 11.0625 21.550781 C 11.398438 21.507812 11.722656 21.628906 11.96875 21.851562 C 12.207031 22.074219 11.851562 22.429688 11.609375 22.210938 C 11.457031 22.070312 11.265625 22.027344 11.0625 22.054688 C 10.929688 22.070312 10.8125 21.925781 10.8125 21.800781 Z M 10.234375 22.722656 C 10.109375 22.765625 10 22.859375 9.925781 22.992188 C 9.859375 23.109375 9.699219 23.152344 9.582031 23.082031 C 9.460938 23.011719 9.421875 22.855469 9.488281 22.734375 C 9.625 22.496094 9.839844 22.328125 10.097656 22.234375 C 10.230469 22.191406 10.375 22.289062 10.410156 22.410156 C 10.449219 22.550781 10.363281 22.679688 10.234375 22.722656 Z M 8.464844 24.207031 C 8.527344 23.980469 8.625 23.765625 8.753906 23.574219 C 8.832031 23.460938 8.976562 23.410156 9.101562 23.484375 C 9.214844 23.550781 9.269531 23.714844 9.191406 23.828125 C 9.085938 23.988281 9.003906 24.15625 8.953125 24.339844 C 8.867188 24.652344 8.378906 24.519531 8.464844 24.207031 Z M 7.871094 24.132812 C 7.722656 24.132812 7.636719 24.015625 7.617188 23.878906 C 7.601562 23.753906 7.515625 23.636719 7.410156 23.546875 C 7.300781 23.460938 7.320312 23.28125 7.410156 23.191406 C 7.511719 23.085938 7.660156 23.105469 7.765625 23.191406 C 7.980469 23.363281 8.089844 23.609375 8.121094 23.878906 C 8.140625 24.015625 7.992188 24.132812 7.871094 24.132812 Z M 5.65625 22.433594 C 5.621094 22.3125 5.699219 22.148438 5.832031 22.125 C 6.195312 22.058594 6.574219 22.167969 6.816406 22.460938 C 6.902344 22.5625 6.917969 22.710938 6.816406 22.816406 C 6.726562 22.90625 6.542969 22.921875 6.457031 22.816406 C 6.335938 22.671875 6.160156 22.578125 5.96875 22.609375 C 5.832031 22.632812 5.695312 22.578125 5.65625 22.433594 Z M 3.640625 22.65625 C 3.992188 22.46875 4.378906 22.378906 4.777344 22.414062 C 5.101562 22.445312 5.101562 22.949219 4.777344 22.921875 C 4.464844 22.890625 4.171875 22.945312 3.894531 23.09375 C 3.609375 23.246094 3.355469 22.8125 3.640625 22.65625 Z M 2.777344 24.722656 C 2.785156 24.371094 2.84375 24.03125 2.960938 23.699219 C 3.066406 23.394531 3.554688 23.527344 3.449219 23.835938 C 3.347656 24.125 3.292969 24.414062 3.285156 24.722656 C 3.277344 25.046875 2.769531 25.046875 2.777344 24.722656 Z M 3.992188 27.074219 C 4.222656 27.308594 3.863281 27.664062 3.636719 27.433594 C 3.363281 27.15625 3.140625 26.835938 2.988281 26.476562 C 2.933594 26.351562 2.945312 26.207031 3.078125 26.128906 C 3.183594 26.070312 3.367188 26.09375 3.421875 26.222656 C 3.558594 26.542969 3.746094 26.828125 3.992188 27.074219 Z M 5.605469 29.140625 C 5.230469 28.941406 4.875 28.703125 4.539062 28.4375 C 4.285156 28.238281 4.644531 27.882812 4.898438 28.082031 C 5.199219 28.320312 5.523438 28.523438 5.863281 28.707031 C 6.148438 28.859375 5.894531 29.296875 5.605469 29.140625 Z M 7.828125 30.347656 C 7.792969 30.46875 7.644531 30.570312 7.515625 30.523438 C 7.234375 30.417969 6.96875 30.285156 6.722656 30.109375 C 6.613281 30.027344 6.558594 29.890625 6.632812 29.761719 C 6.699219 29.652344 6.867188 29.589844 6.980469 29.671875 C 7.1875 29.820312 7.410156 29.945312 7.648438 30.035156 C 7.777344 30.082031 7.867188 30.207031 7.828125 30.347656 Z M 11.597656 31.304688 C 11.597656 31.425781 11.480469 31.574219 11.34375 31.554688 C 11.085938 31.523438 10.824219 31.488281 10.5625 31.453125 C 10.429688 31.433594 10.3125 31.351562 10.3125 31.199219 C 10.3125 31.074219 10.429688 30.929688 10.5625 30.945312 C 10.824219 30.980469 11.085938 31.015625 11.34375 31.050781 C 11.480469 31.070312 11.597656 31.152344 11.597656 31.304688 Z M 13.984375 31.652344 C 13.566406 31.679688 13.152344 31.660156 12.738281 31.601562 C 12.414062 31.558594 12.554688 31.074219 12.871094 31.117188 C 13.238281 31.164062 13.613281 31.171875 13.984375 31.148438 C 14.308594 31.125 14.308594 31.632812 13.984375 31.652344 Z M 16.691406 31.199219 C 16.28125 31.300781 15.867188 31.359375 15.445312 31.382812 C 15.121094 31.398438 15.121094 30.890625 15.445312 30.875 C 15.820312 30.855469 16.191406 30.800781 16.558594 30.714844 C 16.875 30.636719 17.007812 31.125 16.691406 31.199219 Z M 19.617188 30.433594 C 19.265625 30.539062 18.929688 30.667969 18.601562 30.832031 C 18.3125 30.976562 18.054688 30.539062 18.347656 30.394531 C 18.714844 30.214844 19.09375 30.0625 19.484375 29.945312 C 19.796875 29.851562 19.929688 30.339844 19.617188 30.433594 Z M 22.082031 29.425781 C 21.898438 29.523438 21.710938 29.621094 21.527344 29.71875 C 21.238281 29.871094 20.984375 29.433594 21.273438 29.28125 C 21.457031 29.183594 21.640625 29.085938 21.828125 28.988281 C 22.113281 28.835938 22.371094 29.273438 22.082031 29.425781 Z M 24.160156 28.308594 C 24.253906 28.398438 24.265625 28.578125 24.160156 28.664062 C 23.964844 28.835938 23.742188 28.960938 23.488281 29.023438 C 23.175781 29.105469 23.039062 28.617188 23.355469 28.535156 C 23.523438 28.496094 23.675781 28.421875 23.804688 28.308594 C 23.90625 28.21875 24.058594 28.207031 24.160156 28.308594 Z M 25.851562 27.796875 C 25.890625 27.941406 25.804688 28.058594 25.675781 28.109375 C 25.488281 28.183594 25.300781 28.257812 25.113281 28.332031 C 24.988281 28.386719 24.835938 28.277344 24.804688 28.15625 C 24.765625 28.015625 24.851562 27.894531 24.980469 27.847656 C 25.167969 27.769531 25.355469 27.695312 25.542969 27.621094 C 25.667969 27.570312 25.820312 27.675781 25.851562 27.796875 Z M 25.851562 27.796875 "/></g></g></svg>