<svg xmlns="http://www.w3.org/2000/svg" xmlns:xlink="http://www.w3.org/1999/xlink" width="200" zoomAndPan="magnify" viewBox="0 0 150 30.000001" height="40" preserveAspectRatio="xMidYMid meet" version="1.0"><defs><clipPath id="ad9e76a643"><path d="M 5 0 L 141 0 L 141 29.03125 L 5 29.03125 Z M 5 0 " clip-rule="nonzero"/></clipPath><clipPath id="d95cdf4468"><path d="M 114 15 L 134 15 L 134 25 L 114 25 Z M 114 15 " clip-rule="nonzero"/></clipPath><clipPath id="e1e8cabba8"><path d="M 130.46875 32.65625 L 64.664062 15.375 L 69.875 -4.457031 L 135.675781 12.824219 Z M 130.46875 32.65625 " clip-rule="nonzero"/></clipPath><clipPath id="c6eb45435c"><path d="M 130.46875 32.65625 L 64.664062 15.375 L 69.875 -4.457031 L 135.675781 12.824219 Z M 130.46875 32.65625 " clip-rule="nonzero"/></clipPath><clipPath id="99b919a086"><path d="M 127 17 L 133 17 L 133 20 L 127 20 Z M 127 17 " clip-rule="nonzero"/></clipPath><clipPath id="6c33795cb5"><path d="M 130.46875 32.65625 L 64.664062 15.375 L 69.875 -4.457031 L 135.675781 12.824219 Z M 130.46875 32.65625 " clip-rule="nonzero"/></clipPath><clipPath id="1a91b2e281"><path d="M 130.46875 32.65625 L 64.664062 15.375 L 69.875 -4.457031 L 135.675781 12.824219 Z M 130.46875 32.65625 " clip-rule="nonzero"/></clipPath><clipPath id="e644ffd86c"><path d="M 119 15 L 132 15 L 132 20 L 119 20 Z M 119 15 " clip-rule="nonzero"/></clipPath><clipPath id="43d18d15bf"><path d="M 130.46875 32.65625 L 64.664062 15.375 L 69.875 -4.457031 L 135.675781 12.824219 Z M 130.46875 32.65625 " clip-rule="nonzero"/></clipPath><clipPath id="5d8a9fb943"><path d="M 130.46875 32.65625 L 64.664062 15.375 L 69.875 -4.457031 L 135.675781 12.824219 Z M 130.46875 32.65625 " clip-rule="nonzero"/></clipPath><clipPath id="9f689ec4d9"><path d="M 64 4 L 122 4 L 122 27 L 64 27 Z M 64 4 " clip-rule="nonzero"/></clipPath><clipPath id="277c109a4c"><path d="M 130.46875 32.65625 L 64.664062 15.375 L 69.875 -4.457031 L 135.675781 12.824219 Z M 130.46875 32.65625 " clip-rule="nonzero"/></clipPath><clipPath id="d708450956"><path d="M 130.46875 32.65625 L 64.664062 15.375 L 69.875 -4.457031 L 135.675781 12.824219 Z M 130.46875 32.65625 " clip-rule="nonzero"/></clipPath><clipPath id="f946318757"><path d="M 102 14 L 104 14 L 104 16 L 102 16 Z M 102 14 " clip-rule="nonzero"/></clipPath><clipPath id="d9850e2550"><path d="M 130.46875 32.65625 L 64.664062 15.375 L 69.875 -4.457031 L 135.675781 12.824219 Z M 130.46875 32.65625 " clip-rule="nonzero"/></clipPath><clipPath id="1e3744454d"><path d="M 130.46875 32.65625 L 64.664062 15.375 L 69.875 -4.457031 L 135.675781 12.824219 Z M 130.46875 32.65625 " clip-rule="nonzero"/></clipPath><clipPath id="39a8a17554"><path d="M 91 14 L 93 14 L 93 16 L 91 16 Z M 91 14 " clip-rule="nonzero"/></clipPath><clipPath id="caaf1145aa"><path d="M 130.46875 32.65625 L 64.664062 15.375 L 69.875 -4.457031 L 135.675781 12.824219 Z M 130.46875 32.65625 " clip-rule="nonzero"/></clipPath><clipPath id="05a2bca69a"><path d="M 130.46875 32.65625 L 64.664062 15.375 L 69.875 -4.457031 L 135.675781 12.824219 Z M 130.46875 32.65625 " clip-rule="nonzero"/></clipPath><clipPath id="ca26e3e237"><path d="M 118 15 L 120 15 L 120 17 L 118 17 Z M 118 15 " clip-rule="nonzero"/></clipPath><clipPath id="3b7dfb154c"><path d="M 130.46875 32.65625 L 64.664062 15.375 L 69.875 -4.457031 L 135.675781 12.824219 Z M 130.46875 32.65625 " clip-rule="nonzero"/></clipPath><clipPath id="0005783ce4"><path d="M 130.46875 32.65625 L 64.664062 15.375 L 69.875 -4.457031 L 135.675781 12.824219 Z M 130.46875 32.65625 " clip-rule="nonzero"/></clipPath><clipPath id="09092ea9f7"><path d="M 2 4 L 23 4 L 23 14 L 2 14 Z M 2 4 " clip-rule="nonzero"/></clipPath><clipPath id="af1480641b"><path d="M 5.777344 -4.15625 L 73.382812 13.601562 L 67.9375 34.332031 L 0.332031 16.578125 Z M 5.777344 -4.15625 " clip-rule="nonzero"/></clipPath><clipPath id="c39e7e95be"><path d="M 5.777344 -4.15625 L 73.382812 13.601562 L 67.9375 34.332031 L 0.332031 16.578125 Z M 5.777344 -4.15625 " clip-rule="nonzero"/></clipPath><clipPath id="e084a9a75f"><path d="M 3 9 L 9 9 L 9 11 L 3 11 Z M 3 9 " clip-rule="nonzero"/></clipPath><clipPath id="4ba49b5d5c"><path d="M 5.777344 -4.15625 L 73.382812 13.601562 L 67.9375 34.332031 L 0.332031 16.578125 Z M 5.777344 -4.15625 " clip-rule="nonzero"/></clipPath><clipPath id="418c9d0cbb"><path d="M 5.777344 -4.15625 L 73.382812 13.601562 L 67.9375 34.332031 L 0.332031 16.578125 Z M 5.777344 -4.15625 " clip-rule="nonzero"/></clipPath><clipPath id="11ce55a343"><path d="M 4 9 L 18 9 L 18 14 L 4 14 Z M 4 9 " clip-rule="nonzero"/></clipPath><clipPath id="fd5ede06d4"><path d="M 5.777344 -4.15625 L 73.382812 13.601562 L 67.9375 34.332031 L 0.332031 16.578125 Z M 5.777344 -4.15625 " clip-rule="nonzero"/></clipPath><clipPath id="f17908c489"><path d="M 5.777344 -4.15625 L 73.382812 13.601562 L 67.9375 34.332031 L 0.332031 16.578125 Z M 5.777344 -4.15625 " clip-rule="nonzero"/></clipPath><clipPath id="77f33311e0"><path d="M 14 2 L 73 2 L 73 25 L 14 25 Z M 14 2 " clip-rule="nonzero"/></clipPath><clipPath id="d24cf67ece"><path d="M 5.777344 -4.15625 L 73.382812 13.601562 L 67.9375 34.332031 L 0.332031 16.578125 Z M 5.777344 -4.15625 " clip-rule="nonzero"/></clipPath><clipPath id="0895af4551"><path d="M 5.777344 -4.15625 L 73.382812 13.601562 L 67.9375 34.332031 L 0.332031 16.578125 Z M 5.777344 -4.15625 " clip-rule="nonzero"/></clipPath><clipPath id="78b753dbcd"><path d="M 33 13 L 35 13 L 35 15 L 33 15 Z M 33 13 " clip-rule="nonzero"/></clipPath><clipPath id="27dafe5c6e"><path d="M 5.777344 -4.15625 L 73.382812 13.601562 L 67.9375 34.332031 L 0.332031 16.578125 Z M 5.777344 -4.15625 " clip-rule="nonzero"/></clipPath><clipPath id="83c6aa96e7"><path d="M 5.777344 -4.15625 L 73.382812 13.601562 L 67.9375 34.332031 L 0.332031 16.578125 Z M 5.777344 -4.15625 " clip-rule="nonzero"/></clipPath><clipPath id="b9243d1fb3"><path d="M 44 13 L 46 13 L 46 15 L 44 15 Z M 44 13 " clip-rule="nonzero"/></clipPath><clipPath id="bb19165f35"><path d="M 5.777344 -4.15625 L 73.382812 13.601562 L 67.9375 34.332031 L 0.332031 16.578125 Z M 5.777344 -4.15625 " clip-rule="nonzero"/></clipPath><clipPath id="9849f573a4"><path d="M 5.777344 -4.15625 L 73.382812 13.601562 L 67.9375 34.332031 L 0.332031 16.578125 Z M 5.777344 -4.15625 " clip-rule="nonzero"/></clipPath><clipPath id="84e05b935c"><path d="M 17 12 L 18 12 L 18 14 L 17 14 Z M 17 12 " clip-rule="nonzero"/></clipPath><clipPath id="b633683607"><path d="M 5.777344 -4.15625 L 73.382812 13.601562 L 67.9375 34.332031 L 0.332031 16.578125 Z M 5.777344 -4.15625 " clip-rule="nonzero"/></clipPath><clipPath id="cd62c5f818"><path d="M 5.777344 -4.15625 L 73.382812 13.601562 L 67.9375 34.332031 L 0.332031 16.578125 Z M 5.777344 -4.15625 " clip-rule="nonzero"/></clipPath><clipPath id="795e7ab191"><rect x="0" width="136" y="0" height="30"/></clipPath></defs><g clip-path="url(#ad9e76a643)"><g transform="matrix(1, 0, 0, 1, 5, 0.000000000000005692)"><g clip-path="url(#795e7ab191)"><g clip-path="url(#d95cdf4468)"><g clip-path="url(#e1e8cabba8)"><g clip-path="url(#c6eb45435c)"><path fill="#dbd484" d="M 125.679688 19.792969 C 124.320312 19.707031 122.964844 19.382812 121.816406 18.621094 C 121.277344 18.261719 120.785156 17.832031 120.246094 17.46875 C 119.722656 17.113281 119.167969 16.808594 118.589844 16.558594 C 117.269531 15.988281 115.894531 15.707031 114.457031 15.710938 C 114.445312 15.707031 114.335938 15.71875 114.363281 15.757812 C 114.589844 16.175781 114.867188 16.554688 115.191406 16.902344 C 115.230469 16.941406 115.273438 16.980469 115.316406 17.015625 C 115.578125 17.257812 115.859375 17.472656 116.164062 17.65625 C 116.523438 17.878906 116.90625 18.078125 117.277344 18.292969 C 117.710938 18.546875 118.132812 18.832031 118.542969 19.125 C 120.175781 20.296875 121.628906 21.695312 123.230469 22.910156 C 124.132812 23.597656 125.117188 24.335938 126.242188 24.597656 C 126.261719 24.605469 126.445312 24.589844 126.378906 24.546875 C 124.785156 23.472656 123.917969 21.722656 122.722656 20.265625 C 122.425781 19.882812 122.078125 19.546875 121.6875 19.265625 C 121.261719 18.988281 120.808594 18.769531 120.324219 18.613281 C 119.308594 18.246094 118.257812 17.941406 117.207031 17.675781 C 116.636719 17.527344 116.035156 17.417969 115.5625 17.035156 C 115.53125 17.011719 115.503906 16.984375 115.472656 16.957031 C 115.1875 16.6875 114.988281 16.367188 114.871094 15.992188 C 114.859375 15.953125 114.753906 15.949219 114.699219 15.96875 L 114.589844 15.789062 C 115.277344 15.796875 115.953125 15.875 116.621094 16.023438 C 116.535156 16.039062 116.460938 16.070312 116.394531 16.121094 C 116.324219 16.167969 116.273438 16.230469 116.234375 16.304688 C 116.191406 16.378906 116.171875 16.460938 116.167969 16.542969 C 116.167969 16.628906 116.183594 16.707031 116.21875 16.785156 C 116.253906 16.863281 116.300781 16.925781 116.367188 16.980469 C 116.429688 17.035156 116.503906 17.070312 116.585938 17.089844 C 116.667969 17.109375 116.75 17.113281 116.832031 17.09375 C 116.914062 17.074219 116.988281 17.039062 117.054688 16.988281 C 117.121094 16.9375 117.171875 16.871094 117.207031 16.796875 C 117.242188 16.71875 117.261719 16.640625 117.261719 16.554688 C 117.261719 16.472656 117.242188 16.390625 117.203125 16.316406 C 117.164062 16.242188 117.113281 16.179688 117.046875 16.128906 C 117.476562 16.242188 117.902344 16.382812 118.3125 16.554688 C 118.914062 16.804688 119.484375 17.109375 120.023438 17.472656 C 120.570312 17.839844 121.066406 18.273438 121.621094 18.640625 C 123.804688 20.105469 126.550781 19.976562 129.054688 19.757812 C 130.550781 19.628906 132.050781 19.480469 133.558594 19.652344 C 133.585938 19.660156 133.75 19.625 133.65625 19.589844 L 132.707031 19.328125 C 132.898438 19.398438 133.085938 19.472656 133.277344 19.546875 C 130.742188 19.335938 128.21875 19.957031 125.679688 19.792969 Z M 116.410156 17.5625 C 116.925781 17.710938 117.441406 17.824219 117.957031 17.96875 C 118.511719 18.125 119.058594 18.292969 119.605469 18.472656 C 120.117188 18.625 120.609375 18.820312 121.089844 19.054688 C 121.558594 19.304688 121.96875 19.632812 122.320312 20.035156 C 122.964844 20.761719 123.476562 21.582031 124.046875 22.355469 C 124.617188 23.128906 125.230469 23.863281 126.007812 24.4375 C 125.128906 24.144531 124.335938 23.5625 123.605469 23.019531 C 122.8125 22.429688 122.058594 21.792969 121.304688 21.160156 C 120.550781 20.527344 119.816406 19.902344 119.039062 19.3125 C 118.292969 18.769531 117.515625 18.273438 116.707031 17.824219 C 116.511719 17.714844 116.3125 17.59375 116.121094 17.46875 C 116.210938 17.503906 116.308594 17.535156 116.410156 17.5625 Z M 116.410156 17.5625 " fill-opacity="1" fill-rule="nonzero"/></g></g></g><g clip-path="url(#99b919a086)"><g clip-path="url(#6c33795cb5)"><g clip-path="url(#1a91b2e281)"><path fill="#dbd484" d="M 130.558594 18.59375 C 129.582031 18.3125 128.589844 18.085938 127.589844 17.914062 L 132.707031 19.328125 C 132 19.058594 131.28125 18.8125 130.558594 18.59375 Z M 130.558594 18.59375 " fill-opacity="1" fill-rule="nonzero"/></g></g></g><g clip-path="url(#e644ffd86c)"><g clip-path="url(#43d18d15bf)"><g clip-path="url(#5d8a9fb943)"><path fill="#dbd484" d="M 119.691406 16.964844 C 119.644531 16.953125 119.449219 16.988281 119.546875 17.019531 L 123.839844 18.363281 C 124.511719 18.574219 125.183594 18.808594 125.871094 18.957031 C 126.5 19.085938 127.132812 19.105469 127.769531 19.023438 C 128.523438 18.945312 129.269531 18.773438 130.03125 18.78125 C 130.152344 18.785156 130.152344 18.710938 130.03125 18.707031 C 128.71875 18.6875 127.445312 19.164062 126.132812 18.921875 C 125.433594 18.792969 124.757812 18.550781 124.082031 18.339844 L 122.03125 17.699219 L 120.425781 17.195312 C 121.03125 17.25 121.65625 17.207031 122.25 17.226562 C 123.179688 17.253906 124.121094 17.246094 125.03125 17.4375 C 125.863281 17.609375 126.722656 17.753906 127.589844 17.910156 L 126.289062 17.550781 C 126.378906 17.558594 126.460938 17.550781 126.546875 17.527344 C 126.613281 17.515625 126.675781 17.496094 126.742188 17.472656 C 127.550781 17.265625 128.253906 16.765625 129.003906 16.417969 C 129.914062 16.011719 130.84375 15.65625 131.792969 15.347656 C 131.921875 15.304688 131.757812 15.242188 131.6875 15.257812 C 130.433594 15.554688 129.167969 15.832031 127.921875 16.164062 C 127.332031 16.3125 126.753906 16.5 126.1875 16.722656 C 125.660156 16.9375 125.132812 17.203125 124.550781 17.207031 C 124.460938 17.207031 124.4375 17.265625 124.484375 17.296875 C 123.960938 17.242188 123.441406 17.203125 122.917969 17.175781 C 122.417969 17.148438 121.917969 17.132812 121.417969 17.132812 C 120.839844 17.128906 120.246094 17.160156 119.691406 16.964844 Z M 127.902344 16.285156 C 128.828125 16.035156 129.765625 15.820312 130.703125 15.601562 C 130.136719 15.808594 129.574219 16.019531 129.027344 16.265625 C 128.605469 16.457031 128.203125 16.671875 127.800781 16.890625 C 127.527344 17.046875 127.238281 17.179688 126.941406 17.289062 L 126.933594 17.277344 C 126.957031 17.269531 126.980469 17.261719 127.003906 17.25 C 127.058594 17.226562 127.023438 17.179688 126.984375 17.167969 C 126.960938 17.160156 126.9375 17.15625 126.914062 17.152344 L 127.054688 17.101562 C 127.128906 17.074219 127.105469 17.042969 127.058594 17.023438 C 127.078125 16.984375 126.972656 16.941406 126.914062 16.964844 L 126.902344 16.96875 L 126.894531 16.964844 L 126.742188 17.011719 C 126.746094 17 126.746094 16.992188 126.730469 16.980469 C 126.765625 16.949219 126.6875 16.898438 126.628906 16.898438 L 126.660156 16.890625 C 126.722656 16.871094 126.71875 16.84375 126.6875 16.824219 C 126.730469 16.808594 126.742188 16.792969 126.730469 16.773438 L 126.773438 16.753906 C 126.863281 16.707031 126.726562 16.667969 126.652344 16.675781 C 127.066406 16.535156 127.484375 16.402344 127.902344 16.285156 Z M 126.558594 16.714844 L 126.402344 16.78125 Z M 125.660156 17.074219 Z M 125.476562 17.140625 C 125.460938 17.15625 125.46875 17.171875 125.484375 17.183594 L 125.320312 17.222656 L 125.308594 17.230469 L 125.261719 17.214844 C 125.242188 17.214844 125.226562 17.21875 125.207031 17.21875 L 125.199219 17.21875 C 125.292969 17.203125 125.386719 17.171875 125.480469 17.140625 Z M 125.476562 17.140625 " fill-opacity="1" fill-rule="nonzero"/></g></g></g><g clip-path="url(#9f689ec4d9)"><g clip-path="url(#277c109a4c)"><g clip-path="url(#d708450956)"><path fill="#dbd484" d="M 65.113281 14.894531 C 67.613281 14.863281 70.09375 14.648438 72.558594 14.253906 C 72.703125 14.230469 72.683594 14.125 72.585938 14.09375 C 73.140625 14.15625 73.652344 14.339844 74.121094 14.644531 C 74.746094 15.050781 75.253906 15.609375 75.78125 16.128906 C 76.84375 17.175781 77.996094 18.167969 79.304688 18.898438 C 79.953125 19.265625 80.636719 19.554688 81.355469 19.757812 C 81.519531 19.800781 81.679688 19.84375 81.84375 19.875 C 81.976562 19.902344 82.144531 19.957031 82.273438 19.898438 C 82.515625 19.785156 82.339844 19.363281 82.273438 19.1875 C 81.777344 17.816406 80.359375 17.171875 79.230469 16.417969 C 78.890625 16.164062 78.535156 15.9375 78.164062 15.738281 C 77.773438 15.546875 77.367188 15.515625 76.945312 15.464844 C 76.0625 15.359375 75.351562 14.765625 74.480469 14.628906 C 74.453125 14.628906 74.429688 14.632812 74.40625 14.640625 C 74.269531 14.546875 74.132812 14.460938 73.988281 14.378906 C 73.414062 14.070312 72.804688 13.921875 72.152344 13.933594 L 72.277344 13.90625 L 73.074219 13.757812 L 76.082031 13.445312 C 76.117188 13.445312 76.148438 13.433594 76.175781 13.410156 L 78.347656 13.09375 C 78.964844 13.21875 79.679688 13.367188 79.808594 13.433594 C 79.804688 13.449219 79.800781 13.460938 79.835938 13.476562 L 79.894531 13.503906 C 79.898438 13.511719 79.90625 13.515625 79.910156 13.519531 C 80.242188 13.714844 80.554688 13.929688 80.859375 14.164062 L 80.871094 14.179688 C 81.144531 14.457031 81.449219 14.691406 81.785156 14.882812 L 81.863281 14.921875 C 81.9375 14.976562 82.011719 15.027344 82.085938 15.078125 C 82.867188 15.597656 83.753906 15.863281 84.628906 16.195312 C 85.566406 16.546875 86.488281 16.949219 87.402344 17.367188 C 87.847656 17.570312 88.285156 17.789062 88.742188 17.96875 C 89.1875 18.132812 89.640625 18.261719 90.105469 18.347656 C 91.199219 18.574219 92.214844 19.050781 93.304688 19.273438 C 93.34375 19.285156 93.480469 19.25 93.417969 19.191406 C 92.613281 18.445312 91.824219 17.679688 91 16.957031 C 90.234375 16.285156 89.414062 15.75 88.429688 15.472656 C 87.925781 15.328125 87.410156 15.226562 86.898438 15.117188 C 86.355469 15.003906 85.8125 14.890625 85.269531 14.792969 C 84.21875 14.585938 83.15625 14.46875 82.082031 14.4375 C 81.914062 14.445312 81.746094 14.425781 81.582031 14.386719 C 81.429688 14.328125 81.292969 14.242188 81.175781 14.125 C 80.992188 13.933594 80.796875 13.757812 80.589844 13.589844 C 80.167969 13.289062 79.699219 13.109375 79.183594 13.054688 L 78.851562 13.019531 L 79.285156 12.957031 L 79.945312 12.90625 C 79.960938 12.910156 79.980469 12.914062 80 12.914062 C 81.019531 12.921875 82.03125 12.867188 83.042969 12.75 C 83.148438 12.738281 83.167969 12.691406 83.140625 12.648438 L 83.511719 12.640625 C 84.371094 12.804688 85.238281 12.878906 86.113281 12.867188 C 87.242188 12.957031 88.371094 13.007812 89.503906 13.023438 C 90.601562 13.132812 91.617188 13.472656 92.5625 14.042969 C 93.03125 14.3125 93.457031 14.640625 93.835938 15.027344 C 94.199219 15.421875 94.207031 15.921875 94.253906 16.425781 C 94.316406 16.945312 94.441406 17.445312 94.625 17.933594 C 94.769531 18.429688 94.984375 18.894531 95.261719 19.328125 C 95.84375 20.15625 96.8125 20.554688 97.636719 21.089844 C 98.675781 21.765625 99.46875 22.726562 100.25 23.675781 C 100.292969 23.730469 100.472656 23.714844 100.433594 23.621094 C 99.894531 22.222656 99.667969 20.742188 99.308594 19.296875 C 99.148438 18.640625 98.980469 17.945312 98.625 17.359375 C 98.476562 17.113281 98.289062 16.902344 98.0625 16.726562 C 97.765625 16.535156 97.445312 16.402344 97.101562 16.328125 C 96.207031 16.09375 95.3125 15.859375 94.417969 15.621094 C 94.402344 15.621094 94.386719 15.621094 94.371094 15.625 C 94.320312 15.398438 94.222656 15.191406 94.078125 15.011719 C 93.71875 14.617188 93.308594 14.285156 92.84375 14.015625 C 92.101562 13.546875 91.300781 13.21875 90.441406 13.027344 C 90.691406 13.027344 90.941406 13.019531 91.1875 13.023438 L 91.347656 13.019531 C 91.589844 13.035156 91.832031 13.046875 92.078125 13.054688 C 92.878906 13.125 94.691406 13.15625 94.679688 13.140625 L 95.132812 13.164062 C 95.160156 13.183594 95.191406 13.191406 95.222656 13.1875 L 96.636719 13.289062 C 96.671875 13.3125 96.710938 13.320312 96.75 13.320312 L 97.023438 13.335938 C 97.21875 13.386719 97.414062 13.441406 97.601562 13.511719 C 97.960938 13.640625 98.3125 13.792969 98.652344 13.972656 C 100.351562 15.542969 102.085938 17.082031 103.890625 18.535156 C 104.359375 18.914062 104.835938 19.285156 105.3125 19.652344 C 105.777344 20.003906 106.261719 20.339844 106.695312 20.730469 C 107.5 21.5 107.957031 22.523438 108.621094 23.394531 C 109.125 24.050781 109.71875 24.722656 109.964844 25.523438 L 110.074219 26.109375 C 110.085938 26.179688 110.277344 26.183594 110.273438 26.109375 C 110.261719 25.910156 110.222656 25.714844 110.167969 25.523438 C 110.050781 24.90625 109.933594 24.285156 109.820312 23.667969 C 109.683594 22.949219 109.5625 22.21875 109.253906 21.550781 C 108.738281 20.441406 107.816406 19.597656 106.90625 18.816406 C 106.4375 18.414062 105.960938 18.019531 105.511719 17.59375 C 105.417969 17.445312 105.3125 17.304688 105.203125 17.167969 C 104.511719 16.304688 103.558594 15.707031 102.53125 15.320312 C 101.894531 15.089844 101.242188 14.921875 100.570312 14.828125 C 100.542969 14.820312 100.433594 14.839844 100.441406 14.878906 C 100.15625 14.703125 99.871094 14.527344 99.582031 14.355469 C 99.328125 14.203125 99.074219 14.058594 98.8125 13.925781 L 98.589844 13.714844 C 98.527344 13.683594 98.46875 13.6875 98.410156 13.726562 C 98.316406 13.683594 98.21875 13.640625 98.121094 13.597656 C 97.929688 13.519531 97.742188 13.453125 97.539062 13.386719 L 99.15625 13.492188 C 99.382812 13.511719 99.605469 13.53125 99.832031 13.554688 C 99.835938 13.582031 99.863281 13.605469 99.9375 13.613281 L 102.453125 13.929688 C 102.496094 14.003906 102.550781 14.0625 102.621094 14.109375 C 102.691406 14.15625 102.769531 14.1875 102.855469 14.195312 C 102.9375 14.207031 103.019531 14.199219 103.101562 14.167969 C 103.179688 14.140625 103.25 14.097656 103.308594 14.035156 L 104.402344 14.171875 C 104.441406 14.175781 104.484375 14.171875 104.519531 14.152344 L 104.597656 14.160156 C 104.585938 14.160156 104.578125 14.167969 104.570312 14.175781 L 104.546875 14.179688 C 104.425781 14.203125 104.578125 14.242188 104.625 14.242188 L 104.785156 14.234375 C 105.304688 14.359375 105.746094 14.679688 106.214844 14.921875 C 106.617188 15.128906 107.039062 15.265625 107.480469 15.339844 C 107.882812 15.402344 108.289062 15.414062 108.691406 15.367188 C 109.300781 15.917969 111.023438 16.285156 111.84375 16.332031 C 112.246094 16.359375 112.644531 16.320312 113.035156 16.210938 C 113.445312 16.082031 113.847656 15.933594 114.242188 15.761719 C 114.679688 15.597656 115.128906 15.496094 115.597656 15.464844 C 116 15.433594 116.390625 15.351562 116.773438 15.226562 C 117.535156 14.972656 118.242188 14.578125 118.976562 14.257812 C 119.417969 14.0625 119.867188 13.910156 120.332031 13.796875 C 120.808594 13.679688 121.285156 13.570312 121.714844 13.316406 C 121.792969 13.265625 121.6875 13.226562 121.640625 13.222656 C 120.078125 13.121094 118.53125 13.394531 116.976562 13.511719 C 116.171875 13.574219 115.367188 13.574219 114.5625 13.507812 C 114.183594 13.46875 113.800781 13.460938 113.421875 13.488281 C 113.332031 13.496094 113.242188 13.507812 113.152344 13.523438 C 113.546875 13.421875 113.933594 13.300781 114.316406 13.15625 C 114.777344 12.972656 115.226562 12.757812 115.660156 12.507812 C 116.675781 11.941406 117.613281 11.222656 118.542969 10.515625 C 118.601562 10.472656 118.445312 10.464844 118.429688 10.464844 C 117.96875 10.511719 117.523438 10.609375 117.089844 10.765625 C 116.628906 10.902344 116.160156 11.003906 115.683594 11.078125 C 114.738281 11.222656 113.78125 11.273438 112.832031 11.382812 C 111.90625 11.492188 111.007812 11.703125 110.136719 12.023438 C 109.671875 12.199219 109.207031 12.378906 108.746094 12.535156 C 108.289062 12.691406 107.816406 12.816406 107.355469 12.976562 C 106.886719 13.152344 106.429688 13.363281 105.984375 13.605469 C 105.617188 13.8125 105.230469 13.980469 104.828125 14.109375 L 104.726562 14.101562 L 104.589844 14.085938 C 104.601562 14.050781 104.578125 14.015625 104.488281 14.003906 L 103.421875 13.871094 C 103.433594 13.847656 103.445312 13.820312 103.453125 13.789062 C 103.496094 13.625 103.472656 13.472656 103.371094 13.332031 C 103.273438 13.191406 103.140625 13.117188 102.96875 13.101562 C 102.796875 13.089844 102.652344 13.144531 102.535156 13.265625 C 102.414062 13.386719 102.363281 13.535156 102.382812 13.703125 C 101.710938 13.601562 101.042969 13.515625 100.375 13.441406 C 100.351562 13.40625 100.316406 13.390625 100.273438 13.394531 L 97.050781 13.160156 C 97.015625 13.113281 96.96875 13.09375 96.910156 13.097656 L 96.195312 13.058594 C 95.222656 12.859375 94.242188 12.734375 93.253906 12.679688 L 93.042969 12.671875 C 94.300781 12.457031 95.71875 12.222656 96.1875 12.222656 C 96.699219 12.246094 97.207031 12.191406 97.710938 12.066406 C 98.238281 11.914062 98.730469 11.664062 99.246094 11.472656 C 100.257812 11.09375 101.257812 10.675781 102.03125 9.886719 C 102.425781 9.484375 102.667969 8.996094 102.90625 8.492188 C 103.117188 8.007812 103.382812 7.550781 103.699219 7.128906 C 104.4375 6.175781 105.421875 5.453125 106.382812 4.746094 C 106.4375 4.707031 106.25 4.691406 106.210938 4.714844 C 105.355469 5.222656 104.4375 5.621094 103.5625 6.09375 C 102.753906 6.535156 102.003906 7.058594 101.3125 7.671875 C 100.636719 8.261719 99.992188 8.886719 99.257812 9.40625 C 98.902344 9.660156 98.523438 9.875 98.125 10.054688 C 97.710938 10.234375 97.273438 10.347656 96.847656 10.503906 C 96.410156 10.644531 96.019531 10.871094 95.679688 11.179688 C 95.359375 11.488281 95.105469 11.824219 94.699219 12.023438 C 94.554688 12.089844 94.410156 12.160156 94.273438 12.242188 C 94.085938 12.273438 93.226562 12.480469 92.464844 12.667969 C 92.03125 12.671875 91.601562 12.691406 91.167969 12.710938 C 91.25 12.679688 91.320312 12.632812 91.378906 12.566406 C 91.4375 12.503906 91.480469 12.429688 91.503906 12.34375 C 91.527344 12.261719 91.53125 12.175781 91.511719 12.089844 C 91.496094 12.003906 91.460938 11.925781 91.40625 11.859375 C 91.351562 11.789062 91.285156 11.738281 91.207031 11.699219 C 91.128906 11.664062 91.042969 11.648438 90.957031 11.648438 C 90.871094 11.652344 90.789062 11.675781 90.710938 11.71875 C 90.636719 11.761719 90.574219 11.816406 90.523438 11.890625 C 90.476562 11.964844 90.445312 12.042969 90.433594 12.128906 C 90.421875 12.214844 90.433594 12.300781 90.460938 12.382812 C 90.492188 12.464844 90.539062 12.535156 90.601562 12.59375 C 90.667969 12.65625 90.738281 12.699219 90.824219 12.722656 C 90.613281 12.730469 90.402344 12.734375 90.1875 12.734375 L 90.128906 12.730469 C 90.148438 12.6875 89.964844 12.585938 89.90625 12.585938 L 87.015625 12.484375 C 86.75 12.441406 86.042969 12.421875 86.175781 12.445312 C 86.332031 12.476562 86.488281 12.5 86.644531 12.527344 C 86.640625 12.53125 86.640625 12.535156 86.640625 12.539062 C 86.550781 12.535156 85.464844 12.445312 85.160156 12.429688 L 84.800781 12.402344 C 84.753906 12.398438 84.707031 12.398438 84.660156 12.414062 L 84.648438 12.410156 C 85.582031 11.925781 86.53125 11.460938 87.5625 11.207031 C 88.597656 10.953125 89.671875 10.839844 90.714844 10.582031 C 91.632812 10.359375 92.550781 10.011719 93.289062 9.402344 C 94.046875 8.777344 94.5625 7.925781 95.230469 7.210938 C 95.625 6.804688 96.066406 6.457031 96.554688 6.164062 C 97.035156 5.886719 97.480469 5.5625 97.894531 5.191406 C 97.96875 5.117188 97.808594 5.0625 97.753906 5.089844 C 96.578125 5.664062 95.371094 6.167969 94.136719 6.605469 C 93.511719 6.828125 92.882812 7.027344 92.246094 7.210938 C 91.863281 7.324219 91.339844 7.476562 91.222656 7.898438 C 90.78125 7.761719 90.316406 7.929688 89.914062 8.113281 C 89.410156 8.339844 88.921875 8.597656 88.453125 8.890625 C 87.988281 9.179688 87.582031 9.542969 87.238281 9.976562 C 86.898438 10.441406 86.59375 10.933594 86.332031 11.449219 C 85.695312 11.707031 85.070312 12 84.464844 12.328125 C 84.421875 12.347656 84.414062 12.378906 84.421875 12.40625 L 84.085938 12.394531 C 84.039062 12.390625 84 12.402344 83.964844 12.429688 L 83.269531 12.363281 C 83.242188 12.359375 83.21875 12.363281 83.191406 12.367188 L 82.988281 12.339844 C 82.894531 12.328125 82.722656 12.421875 82.8125 12.480469 L 81.273438 12.503906 C 81.195312 12.507812 81.152344 12.53125 81.132812 12.5625 L 80.910156 12.585938 L 80.761719 12.589844 C 79.917969 12.570312 79.078125 12.589844 78.238281 12.652344 C 78.195312 12.65625 78.082031 12.660156 78.046875 12.660156 C 77.273438 12.632812 76.511719 12.738281 75.773438 12.972656 C 75.761719 12.976562 75.75 12.980469 75.742188 12.984375 L 75.429688 13.03125 C 75.964844 12.6875 76.519531 12.351562 77.128906 12.175781 C 77.171875 12.1875 77.214844 12.1875 77.257812 12.179688 C 77.308594 12.152344 77.363281 12.132812 77.414062 12.109375 C 77.554688 12.082031 77.695312 12.066406 77.839844 12.0625 C 78.597656 12.03125 79.417969 12.175781 80.101562 11.757812 C 80.445312 11.542969 80.710938 11.230469 81.007812 10.957031 C 81.3125 10.683594 81.636719 10.441406 81.988281 10.230469 C 82.679688 9.820312 83.398438 9.472656 84.144531 9.183594 C 84.988281 8.832031 85.839844 8.5 86.636719 8.050781 C 86.738281 7.996094 86.554688 7.964844 86.519531 7.976562 L 82.175781 9.105469 C 81.519531 9.273438 80.847656 9.425781 80.226562 9.699219 C 79.660156 9.957031 79.140625 10.28125 78.660156 10.679688 C 78.136719 11.113281 77.636719 11.578125 77.160156 12.066406 C 76.457031 12.238281 75.832031 12.621094 75.21875 13.015625 C 75.183594 13.035156 75.207031 13.054688 75.257812 13.066406 L 73.191406 13.367188 C 73.167969 13.363281 73.148438 13.363281 73.125 13.367188 L 72.949219 13.402344 L 71.890625 13.558594 C 71.847656 13.480469 71.785156 13.457031 71.699219 13.480469 L 69.046875 14.027344 C 68.886719 14.058594 68.445312 14.207031 68.476562 14.25 C 68.042969 14.3125 67.609375 14.375 67.175781 14.4375 C 66.476562 14.53125 65.773438 14.628906 65.074219 14.722656 C 64.890625 14.742188 64.964844 14.890625 65.113281 14.894531 Z M 76.488281 15.527344 C 76.855469 15.621094 77.246094 15.609375 77.617188 15.695312 C 77.996094 15.804688 78.34375 15.980469 78.65625 16.21875 C 79.257812 16.632812 79.890625 17 80.492188 17.414062 C 81.042969 17.789062 81.5625 18.242188 81.894531 18.832031 C 81.972656 18.96875 82.035156 19.109375 82.085938 19.253906 C 82.121094 19.355469 82.257812 19.667969 82.183594 19.765625 C 82.109375 19.863281 81.757812 19.726562 81.664062 19.703125 C 81.480469 19.65625 81.296875 19.605469 81.113281 19.546875 C 80.417969 19.316406 79.761719 19.011719 79.136719 18.632812 C 77.886719 17.886719 76.792969 16.902344 75.761719 15.871094 L 75.382812 15.492188 C 75.941406 15.863281 76.53125 16.179688 77.152344 16.445312 C 77.671875 16.667969 78.21875 16.832031 78.71875 17.09375 C 79.1875 17.34375 79.609375 17.652344 79.984375 18.027344 C 80.402344 18.441406 80.78125 18.886719 81.121094 19.363281 C 81.167969 19.429688 81.359375 19.386719 81.292969 19.296875 C 80.695312 18.476562 80.015625 17.6875 79.140625 17.15625 C 78.675781 16.894531 78.195312 16.679688 77.691406 16.507812 C 77.152344 16.300781 76.636719 16.054688 76.132812 15.769531 C 75.652344 15.496094 75.195312 15.183594 74.761719 14.835938 C 75.351562 15.015625 75.882812 15.367188 76.488281 15.523438 Z M 81.558594 14.507812 C 81.777344 14.546875 82 14.5625 82.222656 14.558594 C 82.515625 14.566406 82.808594 14.582031 83.101562 14.605469 C 83.644531 14.652344 84.183594 14.726562 84.71875 14.816406 C 85.777344 14.988281 86.832031 15.207031 87.875 15.453125 C 88.386719 15.5625 88.878906 15.734375 89.347656 15.964844 C 89.808594 16.207031 90.234375 16.503906 90.628906 16.84375 C 91.484375 17.5625 92.285156 18.351562 93.097656 19.113281 C 92.234375 18.898438 91.417969 18.53125 90.550781 18.332031 C 90.058594 18.238281 89.574219 18.121094 89.097656 17.972656 C 88.628906 17.808594 88.179688 17.59375 87.730469 17.378906 C 86.859375 16.980469 85.988281 16.59375 85.101562 16.246094 C 84.253906 15.914062 83.355469 15.667969 82.5625 15.210938 C 83.09375 15.363281 83.636719 15.457031 84.1875 15.496094 C 85.105469 15.578125 86.050781 15.582031 86.941406 15.851562 C 87.835938 16.121094 88.484375 16.703125 89.207031 17.242188 C 90.019531 17.855469 90.9375 18.207031 91.894531 18.527344 C 91.972656 18.546875 92.121094 18.472656 91.996094 18.429688 C 91.109375 18.132812 90.238281 17.816406 89.476562 17.257812 C 88.804688 16.765625 88.1875 16.195312 87.402344 15.878906 C 85.722656 15.210938 83.796875 15.675781 82.144531 14.914062 C 82.101562 14.894531 82.058594 14.875 82.019531 14.851562 C 81.859375 14.738281 81.703125 14.621094 81.546875 14.503906 Z M 99.125 21.316406 C 98.6875 21.042969 98.375 20.660156 98.191406 20.179688 C 98.015625 19.699219 98.070312 19.171875 97.800781 18.722656 C 97.335938 17.953125 96.382812 17.640625 95.703125 17.101562 C 95.253906 16.738281 94.875 16.3125 94.570312 15.820312 L 96.667969 16.371094 C 97.03125 16.464844 97.421875 16.539062 97.757812 16.726562 C 98.046875 16.894531 98.273438 17.121094 98.441406 17.410156 C 98.785156 17.964844 98.945312 18.628906 99.101562 19.253906 C 99.277344 19.941406 99.414062 20.640625 99.574219 21.328125 C 99.710938 21.949219 99.878906 22.5625 100.074219 23.167969 C 99.488281 22.46875 98.878906 21.785156 98.144531 21.238281 C 97.3125 20.613281 96.257812 20.25 95.582031 19.433594 C 95.226562 19.003906 95.027344 18.472656 94.847656 17.949219 C 94.648438 17.425781 94.515625 16.886719 94.457031 16.328125 C 94.445312 16.195312 94.433594 16.0625 94.421875 15.929688 C 94.65625 16.3125 94.9375 16.652344 95.265625 16.960938 C 95.644531 17.289062 96.050781 17.578125 96.488281 17.824219 C 96.875 18.066406 97.285156 18.3125 97.550781 18.695312 C 97.871094 19.144531 97.804688 19.703125 97.992188 20.203125 C 98.183594 20.71875 98.515625 21.125 98.980469 21.417969 C 99.058594 21.472656 99.226562 21.386719 99.125 21.316406 Z M 101.085938 15.441406 C 101.46875 15.738281 101.875 15.992188 102.308594 16.214844 C 102.359375 16.242188 102.550781 16.203125 102.449219 16.140625 L 101.289062 15.417969 C 101.101562 15.277344 100.921875 15.128906 100.75 14.96875 C 102.429688 15.273438 104.121094 16.007812 105.132812 17.375 C 105.097656 17.382812 105.074219 17.402344 105.089844 17.425781 C 105.644531 18.160156 105.949219 18.984375 106 19.90625 C 106.003906 19.976562 106.203125 19.976562 106.203125 19.902344 C 106.199219 19.246094 106.046875 18.625 105.75 18.042969 C 106.453125 18.660156 107.191406 19.238281 107.847656 19.910156 C 108.28125 20.34375 108.644531 20.828125 108.941406 21.363281 C 109.28125 22.007812 109.425781 22.703125 109.5625 23.410156 C 109.648438 23.859375 109.730469 24.308594 109.8125 24.757812 C 109.589844 24.390625 109.34375 24.042969 109.070312 23.707031 C 108.757812 23.3125 108.464844 22.902344 108.191406 22.476562 C 107.917969 22 107.609375 21.546875 107.265625 21.117188 C 106.867188 20.6875 106.425781 20.300781 105.941406 19.96875 C 105.449219 19.601562 104.964844 19.226562 104.484375 18.84375 C 103.519531 18.082031 102.578125 17.296875 101.65625 16.488281 C 100.835938 15.773438 100.027344 15.042969 99.222656 14.308594 C 99.847656 14.671875 100.46875 15.058594 101.085938 15.449219 Z M 105.179688 14.269531 L 105.101562 14.25 L 105.269531 14.257812 C 105.242188 14.25 105.210938 14.257812 105.179688 14.269531 Z M 113.519531 13.59375 C 113.921875 13.574219 114.324219 13.585938 114.722656 13.632812 C 116.179688 13.75 117.621094 13.558594 119.066406 13.417969 C 119.84375 13.332031 120.625 13.300781 121.40625 13.324219 C 120.734375 13.671875 119.941406 13.742188 119.242188 14.011719 C 118.515625 14.296875 117.832031 14.679688 117.109375 14.96875 C 116.742188 15.125 116.367188 15.238281 115.980469 15.3125 C 115.582031 15.382812 115.171875 15.371094 114.777344 15.46875 C 113.980469 15.660156 113.269531 16.125 112.445312 16.21875 C 111.519531 16.324219 109.820312 15.910156 109.0625 15.300781 C 109.398438 15.230469 109.714844 15.117188 110.019531 14.960938 C 110.152344 14.890625 110.277344 14.8125 110.402344 14.730469 C 110.429688 14.746094 110.460938 14.753906 110.496094 14.753906 C 111.617188 14.78125 112.734375 14.738281 113.847656 14.628906 C 114.40625 14.570312 114.953125 14.476562 115.507812 14.414062 C 115.808594 14.390625 116.109375 14.40625 116.40625 14.457031 C 116.632812 14.492188 116.855469 14.480469 117.078125 14.421875 C 117.359375 14.332031 117.636719 14.222656 117.910156 14.09375 L 118.875 13.6875 C 118.917969 13.667969 118.898438 13.632812 118.871094 13.613281 C 118.824219 13.589844 118.777344 13.589844 118.734375 13.613281 C 118.203125 13.832031 117.679688 14.078125 117.144531 14.273438 C 116.871094 14.371094 116.59375 14.390625 116.308594 14.332031 C 116.066406 14.292969 115.824219 14.285156 115.578125 14.300781 C 115.046875 14.347656 114.519531 14.449219 113.992188 14.511719 C 113.464844 14.570312 112.890625 14.613281 112.339844 14.632812 C 111.789062 14.65625 111.210938 14.667969 110.644531 14.65625 C 110.707031 14.566406 110.78125 14.488281 110.867188 14.417969 C 110.949219 14.363281 111.035156 14.308594 111.117188 14.257812 C 111.207031 14.210938 111.296875 14.167969 111.390625 14.132812 C 111.710938 14.007812 112.050781 13.910156 112.382812 13.816406 C 112.753906 13.703125 113.132812 13.628906 113.519531 13.589844 Z M 107.046875 13.203125 C 107.5 13.019531 107.957031 12.863281 108.425781 12.730469 C 108.898438 12.585938 109.359375 12.425781 109.820312 12.25 C 110.28125 12.074219 110.75 11.898438 111.21875 11.765625 C 111.675781 11.640625 112.132812 11.550781 112.601562 11.488281 C 113.527344 11.359375 114.464844 11.3125 115.390625 11.191406 C 115.890625 11.132812 116.382812 11.042969 116.867188 10.917969 C 117.339844 10.796875 117.800781 10.613281 118.285156 10.550781 C 116.730469 11.738281 115.136719 12.902344 113.222656 13.421875 C 112.757812 13.550781 112.289062 13.65625 111.835938 13.8125 C 111.648438 13.875 111.46875 13.949219 111.292969 14.039062 C 111.257812 14.050781 111.21875 14.066406 111.1875 14.078125 C 110.960938 14.164062 110.765625 14.289062 110.589844 14.453125 L 110.539062 14.484375 C 110.144531 14.789062 109.710938 15.019531 109.242188 15.179688 C 109.15625 15.203125 109.074219 15.226562 108.984375 15.25 C 108.953125 15.226562 108.816406 15.253906 108.738281 15.296875 C 108.4375 15.339844 108.140625 15.351562 107.835938 15.320312 C 107.292969 15.269531 106.78125 15.113281 106.300781 14.851562 C 105.980469 14.679688 105.664062 14.476562 105.332031 14.332031 L 105.777344 14.289062 C 106.050781 14.316406 106.320312 14.34375 106.597656 14.351562 C 107.144531 14.371094 107.683594 14.3125 108.21875 14.183594 C 109.324219 13.914062 110.351562 13.390625 111.359375 12.867188 C 111.417969 12.835938 111.230469 12.824219 111.199219 12.828125 C 110.242188 13.109375 109.277344 13.367188 108.304688 13.597656 C 108.25 13.582031 108.199219 13.578125 108.144531 13.585938 C 108.140625 13.589844 108.136719 13.589844 108.128906 13.59375 C 108.058594 13.621094 107.992188 13.652344 107.925781 13.6875 C 107.195312 13.859375 106.464844 14.015625 105.730469 14.15625 C 105.503906 14.152344 105.28125 14.140625 105.058594 14.117188 C 105.753906 13.902344 106.375 13.488281 107.050781 13.199219 Z M 108.339844 13.765625 C 108.378906 13.742188 108.421875 13.722656 108.464844 13.699219 C 108.503906 13.671875 108.460938 13.667969 108.421875 13.660156 C 109.222656 13.46875 110.019531 13.261719 110.816406 13.035156 C 109.933594 13.488281 109.03125 13.921875 108.066406 14.144531 C 107.871094 14.191406 107.679688 14.226562 107.480469 14.25 C 107.785156 14.128906 108.070312 13.976562 108.335938 13.789062 C 108.351562 13.773438 108.351562 13.765625 108.339844 13.761719 Z M 107.625 13.878906 C 107.605469 13.878906 107.585938 13.878906 107.5625 13.882812 L 107.433594 13.917969 L 107.40625 13.925781 C 107.386719 13.921875 107.363281 13.921875 107.339844 13.925781 L 106.621094 14.117188 C 106.609375 14.117188 106.601562 14.121094 106.59375 14.128906 C 106.449219 14.144531 106.300781 14.152344 106.152344 14.160156 C 106.667969 14.058594 107.183594 13.949219 107.695312 13.832031 C 107.671875 13.839844 107.644531 13.855469 107.625 13.875 Z M 107.308594 14.128906 Z M 107.167969 14.277344 C 106.882812 14.296875 106.597656 14.296875 106.3125 14.273438 L 106.167969 14.261719 L 106.355469 14.246094 C 106.378906 14.253906 106.40625 14.257812 106.429688 14.257812 L 106.613281 14.238281 C 106.65625 14.261719 106.703125 14.273438 106.753906 14.265625 L 106.886719 14.242188 C 106.914062 14.253906 106.945312 14.261719 106.972656 14.265625 C 107.03125 14.261719 107.085938 14.261719 107.144531 14.253906 C 107.15625 14.261719 107.171875 14.261719 107.183594 14.265625 C 107.171875 14.265625 107.167969 14.269531 107.167969 14.273438 Z M 95.242188 13.011719 L 94.609375 12.976562 C 94.621094 12.957031 94.621094 12.9375 94.609375 12.917969 C 94.824219 12.945312 95.035156 12.972656 95.246094 13.003906 Z M 94.203125 12.867188 L 93.703125 12.875 C 93.710938 12.859375 93.710938 12.84375 93.707031 12.824219 C 93.875 12.835938 94.042969 12.84375 94.210938 12.863281 Z M 95.226562 12.046875 C 95.574219 11.972656 95.914062 11.886719 96.246094 11.796875 C 96.914062 11.609375 97.566406 11.382812 98.203125 11.113281 C 99.308594 10.640625 100.492188 10.085938 101.253906 9.125 C 101.714844 8.542969 102.167969 7.972656 102.742188 7.496094 C 102.761719 7.480469 102.589844 7.445312 102.546875 7.480469 C 102.066406 7.886719 101.636719 8.34375 101.261719 8.847656 C 101.078125 9.097656 100.875 9.335938 100.65625 9.558594 C 100.425781 9.773438 100.175781 9.960938 99.902344 10.121094 C 98.875 10.746094 97.785156 11.238281 96.632812 11.59375 C 96.097656 11.765625 95.554688 11.90625 95 12.015625 C 95.238281 11.855469 95.449219 11.667969 95.632812 11.449219 C 95.933594 11.105469 96.292969 10.839844 96.710938 10.652344 C 97.121094 10.480469 97.550781 10.367188 97.96875 10.214844 C 98.371094 10.066406 98.75 9.878906 99.109375 9.648438 C 99.851562 9.179688 100.503906 8.582031 101.152344 8 C 101.835938 7.363281 102.578125 6.800781 103.375 6.320312 C 104.082031 5.914062 104.824219 5.578125 105.546875 5.203125 C 104.941406 5.644531 104.382812 6.136719 103.871094 6.683594 C 103.519531 7.058594 103.222656 7.476562 102.972656 7.925781 C 102.714844 8.417969 102.53125 8.925781 102.226562 9.390625 C 101.609375 10.3125 100.558594 10.878906 99.546875 11.261719 C 99.03125 11.457031 98.523438 11.667969 98.011719 11.871094 C 97.460938 12.074219 96.894531 12.171875 96.304688 12.164062 C 95.71875 12.164062 95.132812 12.164062 94.546875 12.210938 C 94.777344 12.152344 95 12.089844 95.230469 12.042969 Z M 92.605469 12.765625 C 92.804688 12.765625 93 12.769531 93.199219 12.78125 L 92.964844 12.796875 C 92.699219 12.804688 92.429688 12.8125 92.164062 12.816406 L 92.441406 12.773438 Z M 91.828125 12.820312 C 91.632812 12.820312 91.441406 12.820312 91.25 12.820312 L 91.101562 12.808594 C 91.398438 12.796875 91.691406 12.789062 91.984375 12.777344 Z M 88.085938 12.792969 C 88.089844 12.800781 88.09375 12.808594 88.097656 12.8125 L 87.613281 12.792969 C 87.59375 12.785156 87.574219 12.78125 87.554688 12.777344 L 87.433594 12.761719 C 87.65625 12.773438 87.875 12.789062 88.09375 12.796875 Z M 87.351562 10.125 C 87.65625 9.714844 88.023438 9.367188 88.445312 9.082031 C 88.863281 8.808594 89.296875 8.570312 89.75 8.359375 C 90.199219 8.144531 90.746094 7.835938 91.246094 8.070312 C 91.300781 8.09375 91.390625 8.070312 91.402344 8.003906 C 91.425781 7.71875 91.683594 7.566406 91.925781 7.46875 C 92.199219 7.359375 92.492188 7.292969 92.773438 7.207031 C 93.34375 7.03125 93.910156 6.84375 94.46875 6.644531 C 95.417969 6.300781 96.351562 5.914062 97.265625 5.488281 C 96.628906 5.960938 95.902344 6.3125 95.324219 6.859375 C 94.625 7.519531 94.125 8.355469 93.441406 9.03125 C 91.925781 10.519531 89.695312 10.566406 87.746094 11.007812 C 87.4375 11.078125 87.136719 11.164062 86.835938 11.265625 C 87.246094 10.964844 87.683594 10.707031 88.140625 10.492188 C 88.699219 10.230469 89.292969 10.070312 89.871094 9.855469 C 90.140625 9.761719 90.402344 9.644531 90.652344 9.503906 C 90.914062 9.339844 91.15625 9.152344 91.382812 8.941406 C 91.867188 8.523438 92.476562 8.378906 93.054688 8.148438 C 93.703125 7.886719 94.289062 7.527344 94.816406 7.066406 C 94.910156 6.984375 94.746094 6.898438 94.671875 6.964844 C 94.1875 7.386719 93.652344 7.726562 93.058594 7.976562 C 92.511719 8.207031 91.910156 8.335938 91.421875 8.691406 C 91.167969 8.875 90.957031 9.109375 90.691406 9.285156 C 90.433594 9.453125 90.15625 9.589844 89.867188 9.695312 C 89.296875 9.917969 88.703125 10.074219 88.144531 10.324219 C 87.636719 10.550781 87.160156 10.832031 86.710938 11.160156 C 86.902344 10.800781 87.117188 10.457031 87.359375 10.128906 Z M 80.152344 9.855469 C 80.769531 9.554688 81.441406 9.398438 82.101562 9.226562 L 84.226562 8.671875 L 86.082031 8.183594 C 84.765625 8.847656 83.335938 9.273438 82.058594 10.015625 C 81.722656 10.207031 81.40625 10.421875 81.105469 10.664062 C 80.785156 10.925781 80.511719 11.234375 80.199219 11.5 C 79.839844 11.792969 79.429688 11.945312 78.964844 11.953125 C 78.589844 11.972656 78.214844 11.945312 77.839844 11.957031 C 78.117188 11.878906 78.398438 11.816406 78.679688 11.761719 C 79.144531 11.664062 79.585938 11.515625 80.011719 11.308594 C 80.863281 10.878906 81.570312 10.226562 82.394531 9.746094 C 82.488281 9.6875 82.304688 9.644531 82.25 9.675781 C 81.429688 10.15625 80.726562 10.808594 79.875 11.246094 C 79.125 11.632812 78.269531 11.691406 77.484375 11.96875 C 78.285156 11.164062 79.128906 10.355469 80.160156 9.855469 Z M 70.742188 14.164062 C 70.777344 14.175781 70.808594 14.175781 70.84375 14.171875 L 71.3125 14.085938 C 71.335938 14.089844 71.359375 14.089844 71.382812 14.085938 C 71.484375 14.074219 71.589844 14.054688 71.691406 14.03125 C 71.71875 14.070312 71.757812 14.089844 71.808594 14.082031 C 72.039062 14.054688 72.273438 14.054688 72.507812 14.074219 L 70.523438 14.207031 C 70.59375 14.195312 70.671875 14.183594 70.75 14.167969 Z M 70.148438 14.175781 C 70.171875 14.203125 70.199219 14.21875 70.230469 14.226562 L 69.480469 14.277344 C 69.710938 14.242188 69.9375 14.207031 70.15625 14.179688 Z M 67.617188 14.546875 C 67.648438 14.5625 67.683594 14.570312 67.71875 14.566406 L 69.953125 14.421875 C 68.898438 14.535156 67.84375 14.617188 66.78125 14.667969 Z M 67.617188 14.546875 " fill-opacity="1" fill-rule="nonzero"/></g></g></g><g clip-path="url(#f946318757)"><g clip-path="url(#d9850e2550)"><g clip-path="url(#1e3744454d)"><path fill="#dbd484" d="M 102.675781 14.589844 C 102.636719 14.734375 102.65625 14.871094 102.734375 15.003906 C 102.808594 15.132812 102.921875 15.21875 103.066406 15.257812 C 103.214844 15.292969 103.351562 15.277344 103.480469 15.199219 C 103.613281 15.125 103.695312 15.011719 103.734375 14.867188 C 103.773438 14.71875 103.753906 14.582031 103.679688 14.453125 C 103.601562 14.320312 103.492188 14.238281 103.34375 14.199219 C 103.199219 14.160156 103.058594 14.179688 102.929688 14.253906 C 102.800781 14.332031 102.714844 14.441406 102.675781 14.589844 Z M 102.675781 14.589844 " fill-opacity="1" fill-rule="nonzero"/></g></g></g><g clip-path="url(#39a8a17554)"><g clip-path="url(#caaf1145aa)"><g clip-path="url(#05a2bca69a)"><path fill="#dbd484" d="M 92.023438 14.382812 C 91.878906 14.34375 91.742188 14.363281 91.609375 14.4375 C 91.480469 14.515625 91.394531 14.625 91.355469 14.773438 C 91.316406 14.917969 91.335938 15.054688 91.414062 15.1875 C 91.488281 15.316406 91.601562 15.402344 91.746094 15.441406 C 91.894531 15.476562 92.03125 15.460938 92.160156 15.382812 C 92.292969 15.308594 92.375 15.195312 92.414062 15.050781 C 92.453125 14.902344 92.433594 14.765625 92.359375 14.636719 C 92.28125 14.503906 92.171875 14.421875 92.023438 14.382812 Z M 92.023438 14.382812 " fill-opacity="1" fill-rule="nonzero"/></g></g></g><g clip-path="url(#ca26e3e237)"><g clip-path="url(#3b7dfb154c)"><g clip-path="url(#0005783ce4)"><path fill="#dbd484" d="M 118.9375 16.28125 C 119.007812 16.300781 119.078125 16.289062 119.140625 16.253906 C 119.207031 16.214844 119.246094 16.160156 119.265625 16.085938 C 119.285156 16.015625 119.277344 15.949219 119.238281 15.882812 C 119.199219 15.820312 119.144531 15.777344 119.074219 15.757812 C 119.003906 15.738281 118.933594 15.75 118.871094 15.785156 C 118.804688 15.824219 118.765625 15.878906 118.746094 15.949219 C 118.726562 16.023438 118.734375 16.089844 118.773438 16.15625 C 118.8125 16.21875 118.867188 16.261719 118.9375 16.28125 Z M 118.9375 16.28125 " fill-opacity="1" fill-rule="nonzero"/></g></g></g><g clip-path="url(#09092ea9f7)"><g clip-path="url(#af1480641b)"><g clip-path="url(#c39e7e95be)"><path fill="#dbd484" d="M 10.699219 9.039062 C 12.09375 9.132812 13.484375 9.460938 14.660156 10.246094 C 15.214844 10.613281 15.722656 11.050781 16.273438 11.425781 C 16.8125 11.789062 17.378906 12.101562 17.972656 12.359375 C 19.324219 12.945312 20.738281 13.234375 22.210938 13.230469 C 22.222656 13.234375 22.332031 13.222656 22.308594 13.179688 C 22.074219 12.753906 21.792969 12.363281 21.460938 12.007812 C 21.417969 11.96875 21.375 11.925781 21.328125 11.890625 C 21.0625 11.640625 20.773438 11.421875 20.460938 11.234375 C 20.089844 11.007812 19.699219 10.800781 19.320312 10.578125 C 18.871094 10.320312 18.441406 10.027344 18.019531 9.726562 C 16.347656 8.523438 14.855469 7.089844 13.210938 5.84375 C 12.285156 5.140625 11.277344 4.382812 10.125 4.113281 C 10.101562 4.105469 9.914062 4.121094 9.980469 4.164062 C 11.617188 5.269531 12.507812 7.0625 13.730469 8.558594 C 14.039062 8.949219 14.390625 9.292969 14.796875 9.582031 C 15.230469 9.867188 15.695312 10.089844 16.191406 10.253906 C 17.238281 10.625 18.3125 10.941406 19.390625 11.210938 C 19.976562 11.367188 20.589844 11.476562 21.078125 11.871094 C 21.109375 11.894531 21.136719 11.921875 21.167969 11.949219 C 21.460938 12.226562 21.667969 12.554688 21.785156 12.9375 C 21.800781 12.984375 21.90625 12.984375 21.960938 12.964844 L 22.074219 13.148438 C 21.371094 13.140625 20.679688 13.058594 19.992188 12.90625 C 20.078125 12.894531 20.15625 12.859375 20.226562 12.808594 C 20.292969 12.757812 20.347656 12.695312 20.390625 12.617188 C 20.429688 12.542969 20.453125 12.460938 20.453125 12.375 C 20.457031 12.289062 20.441406 12.207031 20.40625 12.128906 C 20.371094 12.046875 20.320312 11.980469 20.253906 11.925781 C 20.1875 11.871094 20.109375 11.832031 20.027344 11.8125 C 19.941406 11.792969 19.859375 11.792969 19.773438 11.808594 C 19.691406 11.828125 19.613281 11.863281 19.546875 11.917969 C 19.480469 11.972656 19.425781 12.039062 19.390625 12.117188 C 19.351562 12.195312 19.335938 12.277344 19.335938 12.363281 C 19.335938 12.449219 19.355469 12.53125 19.394531 12.605469 C 19.433594 12.683594 19.488281 12.75 19.554688 12.800781 C 19.113281 12.683594 18.679688 12.539062 18.253906 12.363281 C 17.640625 12.105469 17.054688 11.792969 16.503906 11.421875 C 15.9375 11.042969 15.429688 10.601562 14.863281 10.222656 C 12.625 8.71875 9.804688 8.855469 7.238281 9.078125 C 5.703125 9.210938 4.164062 9.363281 2.617188 9.1875 C 2.589844 9.179688 2.421875 9.210938 2.515625 9.25 L 3.492188 9.519531 C 3.296875 9.445312 3.101562 9.371094 2.90625 9.292969 C 5.507812 9.511719 8.097656 8.875 10.699219 9.039062 Z M 20.210938 11.328125 C 19.675781 11.175781 19.148438 11.0625 18.621094 10.910156 C 18.054688 10.753906 17.488281 10.582031 16.929688 10.394531 C 16.40625 10.238281 15.898438 10.039062 15.410156 9.800781 C 14.925781 9.542969 14.503906 9.207031 14.144531 8.792969 C 13.484375 8.046875 12.960938 7.207031 12.375 6.414062 C 11.792969 5.617188 11.160156 4.863281 10.363281 4.277344 C 11.265625 4.578125 12.078125 5.175781 12.828125 5.734375 C 13.640625 6.335938 14.414062 6.988281 15.1875 7.640625 C 15.960938 8.289062 16.714844 8.929688 17.511719 9.535156 C 18.277344 10.09375 19.074219 10.601562 19.902344 11.0625 C 20.105469 11.175781 20.308594 11.296875 20.503906 11.425781 C 20.414062 11.390625 20.3125 11.355469 20.210938 11.328125 Z M 20.210938 11.328125 " fill-opacity="1" fill-rule="nonzero"/></g></g></g><g clip-path="url(#e084a9a75f)"><g clip-path="url(#4ba49b5d5c)"><g clip-path="url(#418c9d0cbb)"><path fill="#dbd484" d="M 5.695312 10.273438 C 6.699219 10.5625 7.714844 10.792969 8.742188 10.96875 L 3.492188 9.519531 C 4.21875 9.796875 4.953125 10.046875 5.695312 10.273438 Z M 5.695312 10.273438 " fill-opacity="1" fill-rule="nonzero"/></g></g></g><g clip-path="url(#11ce55a343)"><g clip-path="url(#fd5ede06d4)"><g clip-path="url(#f17908c489)"><path fill="#dbd484" d="M 16.84375 11.941406 C 16.886719 11.953125 17.089844 11.917969 16.988281 11.886719 L 12.585938 10.507812 C 11.894531 10.292969 11.210938 10.050781 10.503906 9.898438 C 9.859375 9.769531 9.207031 9.746094 8.554688 9.832031 C 7.785156 9.914062 7.019531 10.089844 6.234375 10.078125 C 6.113281 10.074219 6.113281 10.152344 6.234375 10.152344 C 7.582031 10.175781 8.890625 9.6875 10.234375 9.9375 C 10.953125 10.066406 11.644531 10.316406 12.339844 10.53125 L 14.445312 11.191406 L 16.085938 11.707031 C 15.46875 11.648438 14.828125 11.695312 14.214844 11.675781 C 13.265625 11.644531 12.296875 11.65625 11.363281 11.460938 C 10.511719 11.28125 9.628906 11.136719 8.742188 10.972656 L 10.074219 11.339844 C 9.984375 11.332031 9.898438 11.34375 9.8125 11.367188 C 9.742188 11.378906 9.675781 11.398438 9.609375 11.421875 C 8.78125 11.632812 8.058594 12.144531 7.289062 12.503906 C 6.355469 12.921875 5.402344 13.285156 4.429688 13.601562 C 4.296875 13.644531 4.464844 13.710938 4.535156 13.695312 C 5.824219 13.386719 7.121094 13.105469 8.402344 12.765625 C 9.003906 12.613281 9.597656 12.421875 10.179688 12.191406 C 10.71875 11.972656 11.261719 11.695312 11.855469 11.691406 C 11.949219 11.691406 11.972656 11.632812 11.925781 11.601562 C 12.460938 11.65625 12.996094 11.699219 13.53125 11.726562 C 14.042969 11.753906 14.558594 11.769531 15.070312 11.769531 C 15.664062 11.773438 16.273438 11.742188 16.84375 11.941406 Z M 8.421875 12.636719 C 7.46875 12.894531 6.507812 13.117188 5.546875 13.339844 C 6.128906 13.128906 6.703125 12.914062 7.265625 12.660156 C 7.695312 12.464844 8.109375 12.242188 8.523438 12.019531 C 8.804688 11.859375 9.101562 11.722656 9.40625 11.609375 L 9.410156 11.621094 C 9.386719 11.628906 9.363281 11.640625 9.339844 11.648438 C 9.285156 11.675781 9.324219 11.722656 9.363281 11.734375 C 9.386719 11.742188 9.410156 11.746094 9.433594 11.753906 L 9.289062 11.800781 C 9.214844 11.828125 9.238281 11.863281 9.285156 11.882812 C 9.265625 11.921875 9.371094 11.964844 9.433594 11.945312 L 9.445312 11.941406 L 9.453125 11.941406 L 9.609375 11.894531 C 9.605469 11.90625 9.605469 11.917969 9.625 11.925781 C 9.585938 11.960938 9.664062 12.007812 9.722656 12.007812 L 9.691406 12.019531 C 9.628906 12.039062 9.636719 12.066406 9.664062 12.085938 C 9.621094 12.101562 9.609375 12.121094 9.621094 12.136719 L 9.578125 12.15625 C 9.488281 12.207031 9.625 12.246094 9.699219 12.238281 C 9.277344 12.382812 8.851562 12.519531 8.421875 12.636719 Z M 9.796875 12.199219 L 9.957031 12.132812 Z M 10.71875 11.828125 Z M 10.90625 11.761719 C 10.925781 11.75 10.914062 11.730469 10.902344 11.71875 L 11.066406 11.675781 L 11.082031 11.671875 L 11.128906 11.683594 C 11.148438 11.6875 11.164062 11.683594 11.183594 11.679688 L 11.191406 11.683594 C 11.097656 11.699219 11 11.730469 10.90625 11.761719 Z M 10.90625 11.761719 " fill-opacity="1" fill-rule="nonzero"/></g></g></g><g clip-path="url(#77f33311e0)"><g clip-path="url(#d24cf67ece)"><g clip-path="url(#0895af4551)"><path fill="#dbd484" d="M 72.824219 14.066406 C 70.261719 14.101562 67.71875 14.320312 65.1875 14.722656 C 65.039062 14.746094 65.058594 14.855469 65.164062 14.886719 C 64.589844 14.824219 64.066406 14.636719 63.585938 14.324219 C 62.945312 13.90625 62.425781 13.335938 61.882812 12.800781 C 60.792969 11.726562 59.609375 10.710938 58.265625 9.957031 C 57.601562 9.582031 56.902344 9.289062 56.164062 9.078125 C 55.996094 9.035156 55.832031 8.992188 55.664062 8.957031 C 55.527344 8.929688 55.355469 8.875 55.222656 8.933594 C 54.976562 9.050781 55.15625 9.480469 55.222656 9.664062 C 55.730469 11.066406 57.1875 11.730469 58.347656 12.503906 C 58.695312 12.761719 59.058594 12.996094 59.4375 13.203125 C 59.839844 13.394531 60.253906 13.429688 60.6875 13.484375 C 61.59375 13.589844 62.324219 14.199219 63.21875 14.339844 C 63.246094 14.339844 63.269531 14.335938 63.292969 14.324219 C 63.433594 14.421875 63.574219 14.511719 63.722656 14.59375 C 64.308594 14.910156 64.9375 15.0625 65.605469 15.050781 L 65.476562 15.082031 L 64.660156 15.234375 L 61.574219 15.550781 C 61.539062 15.550781 61.507812 15.5625 61.480469 15.589844 L 59.25 15.910156 C 58.617188 15.785156 57.886719 15.632812 57.75 15.5625 C 57.753906 15.550781 57.757812 15.535156 57.722656 15.519531 L 57.664062 15.492188 C 57.660156 15.484375 57.652344 15.480469 57.644531 15.476562 C 57.308594 15.277344 56.984375 15.054688 56.675781 14.816406 L 56.660156 14.800781 C 56.378906 14.515625 56.070312 14.277344 55.722656 14.078125 L 55.644531 14.039062 C 55.570312 13.984375 55.492188 13.929688 55.417969 13.878906 C 54.613281 13.34375 53.703125 13.070312 52.808594 12.734375 C 51.84375 12.371094 50.902344 11.957031 49.964844 11.53125 C 49.507812 11.320312 49.054688 11.097656 48.589844 10.914062 C 48.132812 10.742188 47.667969 10.613281 47.1875 10.523438 C 46.070312 10.289062 45.027344 9.804688 43.910156 9.574219 C 43.871094 9.5625 43.726562 9.597656 43.789062 9.65625 C 44.617188 10.421875 45.425781 11.210938 46.269531 11.953125 C 47.054688 12.640625 47.898438 13.1875 48.910156 13.476562 C 49.425781 13.621094 49.953125 13.726562 50.480469 13.835938 C 51.035156 13.957031 51.589844 14.070312 52.148438 14.171875 C 53.230469 14.382812 54.320312 14.503906 55.417969 14.535156 C 55.59375 14.527344 55.761719 14.546875 55.929688 14.585938 C 56.089844 14.644531 56.230469 14.734375 56.347656 14.855469 C 56.539062 15.050781 56.738281 15.234375 56.949219 15.402344 C 57.382812 15.710938 57.863281 15.894531 58.390625 15.953125 L 58.734375 15.988281 L 58.289062 16.054688 L 57.613281 16.105469 C 57.59375 16.101562 57.574219 16.097656 57.554688 16.097656 C 56.511719 16.089844 55.46875 16.148438 54.433594 16.265625 C 54.324219 16.277344 54.304688 16.328125 54.335938 16.371094 L 53.953125 16.378906 C 53.070312 16.210938 52.179688 16.132812 51.285156 16.148438 C 50.128906 16.054688 48.96875 16 47.804688 15.984375 C 46.683594 15.871094 45.636719 15.523438 44.671875 14.941406 C 44.1875 14.664062 43.753906 14.328125 43.363281 13.929688 C 42.992188 13.527344 42.980469 13.011719 42.933594 12.492188 C 42.867188 11.964844 42.742188 11.449219 42.554688 10.949219 C 42.40625 10.441406 42.1875 9.964844 41.902344 9.519531 C 41.304688 8.667969 40.3125 8.257812 39.464844 7.710938 C 38.398438 7.019531 37.585938 6.03125 36.785156 5.058594 C 36.738281 5.003906 36.558594 5.019531 36.597656 5.117188 C 37.148438 6.546875 37.382812 8.066406 37.75 9.550781 C 37.914062 10.226562 38.085938 10.9375 38.453125 11.539062 C 38.601562 11.792969 38.792969 12.007812 39.027344 12.1875 C 39.332031 12.382812 39.660156 12.519531 40.011719 12.59375 C 40.929688 12.835938 41.847656 13.078125 42.765625 13.320312 C 42.785156 13.320312 42.800781 13.320312 42.816406 13.320312 C 42.863281 13.550781 42.964844 13.761719 43.113281 13.945312 C 43.484375 14.351562 43.90625 14.691406 44.378906 14.96875 C 45.140625 15.449219 45.964844 15.785156 46.84375 15.980469 C 46.589844 15.980469 46.332031 15.988281 46.078125 15.984375 L 45.914062 15.992188 C 45.667969 15.976562 45.417969 15.964844 45.167969 15.953125 C 44.34375 15.878906 42.488281 15.851562 42.496094 15.867188 L 42.035156 15.839844 C 42.003906 15.824219 41.976562 15.816406 41.941406 15.816406 L 40.488281 15.710938 C 40.453125 15.691406 40.417969 15.679688 40.375 15.683594 L 40.09375 15.664062 C 39.894531 15.609375 39.691406 15.558594 39.5 15.484375 C 39.132812 15.351562 38.773438 15.195312 38.425781 15.011719 C 36.679688 13.402344 34.902344 11.824219 33.050781 10.332031 C 32.566406 9.945312 32.082031 9.5625 31.589844 9.1875 C 31.113281 8.824219 30.617188 8.480469 30.175781 8.078125 C 29.347656 7.292969 28.878906 6.242188 28.195312 5.347656 C 27.679688 4.671875 27.070312 3.984375 26.820312 3.164062 L 26.707031 2.5625 C 26.695312 2.488281 26.496094 2.488281 26.5 2.5625 C 26.515625 2.765625 26.554688 2.96875 26.613281 3.164062 C 26.730469 3.796875 26.851562 4.433594 26.96875 5.070312 C 27.105469 5.804688 27.230469 6.554688 27.550781 7.238281 C 28.078125 8.378906 29.023438 9.242188 29.957031 10.042969 C 30.4375 10.457031 30.925781 10.863281 31.386719 11.296875 C 31.484375 11.449219 31.589844 11.59375 31.703125 11.734375 C 32.414062 12.617188 33.390625 13.234375 34.445312 13.628906 C 35.097656 13.867188 35.769531 14.035156 36.457031 14.136719 C 36.484375 14.144531 36.59375 14.125 36.585938 14.082031 C 36.878906 14.261719 37.171875 14.445312 37.46875 14.621094 C 37.726562 14.773438 37.992188 14.921875 38.257812 15.0625 L 38.488281 15.273438 C 38.550781 15.308594 38.613281 15.304688 38.671875 15.265625 C 38.769531 15.308594 38.867188 15.355469 38.964844 15.394531 C 39.164062 15.476562 39.355469 15.546875 39.5625 15.613281 L 37.90625 15.503906 C 37.675781 15.484375 37.445312 15.464844 37.214844 15.441406 C 37.210938 15.414062 37.179688 15.390625 37.105469 15.378906 L 34.523438 15.054688 C 34.480469 14.980469 34.421875 14.917969 34.351562 14.871094 C 34.277344 14.824219 34.199219 14.792969 34.113281 14.78125 C 34.027344 14.773438 33.941406 14.78125 33.859375 14.808594 C 33.777344 14.839844 33.707031 14.882812 33.648438 14.945312 L 32.527344 14.808594 C 32.484375 14.800781 32.441406 14.808594 32.402344 14.828125 L 32.324219 14.820312 C 32.335938 14.816406 32.347656 14.8125 32.355469 14.804688 L 32.375 14.800781 C 32.5 14.777344 32.34375 14.734375 32.292969 14.738281 L 32.128906 14.742188 C 31.601562 14.613281 31.148438 14.285156 30.664062 14.039062 C 30.253906 13.828125 29.820312 13.683594 29.367188 13.609375 C 28.953125 13.542969 28.539062 13.535156 28.125 13.582031 C 27.5 13.019531 25.734375 12.640625 24.894531 12.589844 C 24.476562 12.5625 24.070312 12.605469 23.667969 12.714844 C 23.25 12.847656 22.835938 13 22.433594 13.175781 C 21.984375 13.347656 21.519531 13.449219 21.042969 13.480469 C 20.628906 13.515625 20.226562 13.597656 19.835938 13.726562 C 19.050781 13.988281 18.328125 14.390625 17.574219 14.71875 C 17.125 14.917969 16.660156 15.074219 16.183594 15.191406 C 15.695312 15.3125 15.207031 15.425781 14.765625 15.6875 C 14.6875 15.738281 14.796875 15.777344 14.839844 15.78125 C 16.445312 15.882812 18.03125 15.605469 19.628906 15.484375 C 20.453125 15.417969 21.277344 15.421875 22.105469 15.488281 C 22.492188 15.527344 22.882812 15.535156 23.273438 15.507812 C 23.367188 15.5 23.457031 15.488281 23.550781 15.472656 C 23.144531 15.578125 22.746094 15.699219 22.355469 15.847656 C 21.878906 16.039062 21.421875 16.257812 20.976562 16.511719 C 19.933594 17.097656 18.972656 17.832031 18.019531 18.558594 C 17.960938 18.605469 18.121094 18.609375 18.136719 18.609375 C 18.609375 18.5625 19.066406 18.460938 19.511719 18.304688 C 19.984375 18.164062 20.464844 18.054688 20.953125 17.984375 C 21.921875 17.835938 22.90625 17.78125 23.878906 17.667969 C 24.828125 17.558594 25.746094 17.339844 26.644531 17.011719 C 27.117188 16.832031 27.597656 16.644531 28.066406 16.484375 C 28.539062 16.328125 29.023438 16.199219 29.492188 16.035156 C 29.976562 15.851562 30.445312 15.636719 30.902344 15.386719 C 31.277344 15.175781 31.671875 15.003906 32.085938 14.871094 L 32.191406 14.878906 L 32.332031 14.894531 C 32.320312 14.929688 32.34375 14.96875 32.4375 14.980469 L 33.53125 15.113281 C 33.515625 15.140625 33.507812 15.167969 33.5 15.199219 C 33.453125 15.367188 33.480469 15.523438 33.582031 15.667969 C 33.683594 15.8125 33.820312 15.890625 33.996094 15.90625 C 34.167969 15.917969 34.320312 15.863281 34.441406 15.738281 C 34.5625 15.613281 34.617188 15.460938 34.597656 15.289062 C 35.285156 15.390625 35.96875 15.480469 36.65625 15.558594 C 36.683594 15.59375 36.714844 15.609375 36.757812 15.605469 L 40.066406 15.84375 C 40.101562 15.890625 40.148438 15.914062 40.210938 15.910156 L 40.941406 15.949219 C 41.9375 16.152344 42.945312 16.28125 43.960938 16.339844 L 44.175781 16.347656 C 42.886719 16.566406 41.433594 16.808594 40.953125 16.804688 C 40.425781 16.785156 39.902344 16.839844 39.390625 16.964844 C 38.847656 17.121094 38.339844 17.378906 37.8125 17.578125 C 36.773438 17.964844 35.75 18.394531 34.957031 19.203125 C 34.554688 19.617188 34.300781 20.117188 34.058594 20.632812 C 33.84375 21.132812 33.570312 21.597656 33.246094 22.035156 C 32.488281 23.011719 31.480469 23.75 30.492188 24.476562 C 30.4375 24.515625 30.632812 24.53125 30.671875 24.507812 C 31.550781 23.988281 32.488281 23.578125 33.386719 23.09375 C 34.214844 22.640625 34.984375 22.101562 35.695312 21.476562 C 36.386719 20.871094 37.050781 20.230469 37.804688 19.699219 C 38.167969 19.4375 38.554688 19.214844 38.964844 19.03125 C 39.386719 18.847656 39.835938 18.730469 40.273438 18.570312 C 40.722656 18.425781 41.125 18.195312 41.472656 17.875 C 41.800781 17.558594 42.058594 17.214844 42.476562 17.007812 C 42.628906 16.945312 42.773438 16.871094 42.914062 16.785156 C 43.109375 16.757812 43.988281 16.542969 44.769531 16.351562 C 45.214844 16.34375 45.65625 16.324219 46.097656 16.308594 C 46.015625 16.339844 45.941406 16.386719 45.882812 16.453125 C 45.820312 16.519531 45.78125 16.59375 45.753906 16.683594 C 45.730469 16.769531 45.726562 16.855469 45.746094 16.941406 C 45.761719 17.03125 45.800781 17.109375 45.855469 17.179688 C 45.910156 17.25 45.980469 17.304688 46.058594 17.34375 C 46.140625 17.378906 46.226562 17.398438 46.316406 17.394531 C 46.40625 17.390625 46.488281 17.367188 46.566406 17.324219 C 46.644531 17.28125 46.710938 17.222656 46.761719 17.148438 C 46.8125 17.074219 46.839844 16.992188 46.851562 16.902344 C 46.863281 16.8125 46.855469 16.726562 46.824219 16.644531 C 46.792969 16.558594 46.746094 16.484375 46.679688 16.425781 C 46.613281 16.363281 46.539062 16.320312 46.453125 16.292969 C 46.671875 16.289062 46.886719 16.28125 47.105469 16.28125 L 47.164062 16.285156 C 47.144531 16.328125 47.335938 16.433594 47.394531 16.4375 L 50.359375 16.539062 C 50.632812 16.582031 51.359375 16.605469 51.222656 16.578125 C 51.0625 16.546875 50.902344 16.519531 50.742188 16.492188 C 50.742188 16.488281 50.742188 16.484375 50.742188 16.480469 C 50.835938 16.484375 51.949219 16.582031 52.261719 16.59375 L 52.628906 16.625 C 52.679688 16.628906 52.726562 16.625 52.777344 16.613281 L 52.785156 16.613281 C 51.828125 17.113281 50.859375 17.585938 49.796875 17.847656 C 48.734375 18.105469 47.632812 18.222656 46.566406 18.488281 C 45.621094 18.71875 44.679688 19.074219 43.921875 19.699219 C 43.144531 20.34375 42.617188 21.214844 41.933594 21.949219 C 41.527344 22.367188 41.074219 22.722656 40.574219 23.019531 C 40.082031 23.304688 39.625 23.640625 39.199219 24.019531 C 39.125 24.09375 39.289062 24.148438 39.34375 24.125 C 40.550781 23.535156 41.789062 23.015625 43.054688 22.566406 C 43.695312 22.339844 44.34375 22.132812 44.996094 21.945312 C 45.386719 21.832031 45.921875 21.675781 46.042969 21.242188 C 46.496094 21.382812 46.972656 21.210938 47.386719 21.023438 C 47.902344 20.792969 48.402344 20.527344 48.882812 20.226562 C 49.363281 19.925781 49.777344 19.554688 50.128906 19.109375 C 50.480469 18.632812 50.789062 18.128906 51.058594 17.601562 C 51.714844 17.335938 52.351562 17.035156 52.976562 16.699219 C 53.019531 16.675781 53.027344 16.648438 53.019531 16.621094 L 53.367188 16.628906 C 53.410156 16.636719 53.453125 16.625 53.488281 16.59375 L 54.203125 16.664062 C 54.226562 16.664062 54.253906 16.664062 54.28125 16.65625 L 54.492188 16.683594 C 54.585938 16.699219 54.761719 16.601562 54.671875 16.542969 L 56.25 16.515625 C 56.328125 16.515625 56.375 16.488281 56.390625 16.457031 L 56.621094 16.4375 L 56.773438 16.429688 C 57.636719 16.453125 58.5 16.429688 59.363281 16.367188 C 59.40625 16.363281 59.523438 16.359375 59.558594 16.359375 C 60.355469 16.386719 61.132812 16.277344 61.890625 16.039062 C 61.902344 16.035156 61.914062 16.03125 61.921875 16.023438 L 62.242188 15.976562 C 61.691406 16.332031 61.125 16.675781 60.503906 16.851562 C 60.457031 16.84375 60.414062 16.84375 60.367188 16.851562 C 60.316406 16.878906 60.261719 16.898438 60.207031 16.921875 C 60.0625 16.949219 59.917969 16.964844 59.773438 16.972656 C 58.992188 17 58.152344 16.855469 57.453125 17.285156 C 57.097656 17.503906 56.824219 17.824219 56.523438 18.105469 C 56.210938 18.386719 55.875 18.636719 55.515625 18.851562 C 54.808594 19.269531 54.070312 19.628906 53.304688 19.925781 C 52.4375 20.285156 51.5625 20.625 50.746094 21.085938 C 50.644531 21.144531 50.828125 21.175781 50.867188 21.164062 L 55.324219 20.003906 C 55.996094 19.832031 56.683594 19.675781 57.324219 19.398438 C 57.902344 19.132812 58.4375 18.796875 58.929688 18.390625 C 59.46875 17.945312 59.980469 17.46875 60.46875 16.96875 C 61.1875 16.792969 61.832031 16.398438 62.460938 15.996094 C 62.496094 15.972656 62.472656 15.953125 62.421875 15.941406 L 64.539062 15.632812 C 64.5625 15.636719 64.585938 15.636719 64.609375 15.632812 L 64.785156 15.59375 L 65.871094 15.4375 C 65.917969 15.515625 65.980469 15.542969 66.070312 15.515625 L 68.789062 14.953125 C 68.953125 14.921875 69.410156 14.769531 69.375 14.730469 C 69.820312 14.664062 70.265625 14.597656 70.710938 14.535156 C 71.429688 14.4375 72.148438 14.339844 72.867188 14.242188 C 73.054688 14.222656 72.976562 14.070312 72.824219 14.066406 Z M 61.15625 13.417969 C 60.78125 13.320312 60.382812 13.335938 60 13.246094 C 59.609375 13.132812 59.257812 12.953125 58.933594 12.707031 C 58.316406 12.28125 57.667969 11.90625 57.050781 11.484375 C 56.488281 11.097656 55.949219 10.632812 55.613281 10.027344 C 55.535156 9.890625 55.46875 9.746094 55.414062 9.59375 C 55.378906 9.488281 55.242188 9.171875 55.316406 9.070312 C 55.390625 8.96875 55.75 9.109375 55.851562 9.132812 C 56.039062 9.183594 56.226562 9.234375 56.414062 9.292969 C 57.125 9.527344 57.800781 9.84375 58.441406 10.234375 C 59.722656 11 60.847656 12.007812 61.902344 13.0625 L 62.292969 13.453125 C 61.71875 13.074219 61.113281 12.746094 60.476562 12.476562 C 59.945312 12.25 59.382812 12.078125 58.867188 11.8125 C 58.390625 11.554688 57.957031 11.238281 57.570312 10.855469 C 57.144531 10.429688 56.753906 9.972656 56.40625 9.480469 C 56.355469 9.414062 56.160156 9.460938 56.226562 9.550781 C 56.839844 10.390625 57.539062 11.199219 58.4375 11.746094 C 58.910156 12.015625 59.40625 12.234375 59.921875 12.414062 C 60.476562 12.625 61.007812 12.875 61.519531 13.167969 C 62.015625 13.449219 62.484375 13.769531 62.925781 14.125 C 62.324219 13.945312 61.777344 13.582031 61.15625 13.421875 Z M 55.957031 14.464844 C 55.730469 14.421875 55.503906 14.40625 55.277344 14.414062 C 54.976562 14.40625 54.675781 14.386719 54.375 14.359375 C 53.816406 14.3125 53.261719 14.238281 52.714844 14.148438 C 51.632812 13.96875 50.546875 13.746094 49.476562 13.492188 C 48.953125 13.378906 48.449219 13.207031 47.964844 12.96875 C 47.496094 12.71875 47.058594 12.417969 46.652344 12.066406 C 45.777344 11.328125 44.953125 10.519531 44.121094 9.738281 C 45.003906 9.957031 45.84375 10.335938 46.734375 10.539062 C 47.238281 10.636719 47.734375 10.757812 48.222656 10.90625 C 48.703125 11.078125 49.164062 11.296875 49.625 11.519531 C 50.519531 11.925781 51.414062 12.320312 52.320312 12.679688 C 53.191406 13.019531 54.113281 13.269531 54.925781 13.742188 C 54.382812 13.585938 53.828125 13.488281 53.261719 13.449219 C 52.316406 13.363281 51.347656 13.359375 50.433594 13.082031 C 49.519531 12.808594 48.851562 12.210938 48.113281 11.65625 C 47.277344 11.03125 46.339844 10.671875 45.355469 10.339844 C 45.273438 10.320312 45.121094 10.394531 45.25 10.441406 C 46.160156 10.746094 47.054688 11.070312 47.835938 11.640625 C 48.523438 12.148438 49.15625 12.734375 49.960938 13.058594 C 51.6875 13.742188 53.660156 13.265625 55.359375 14.046875 C 55.402344 14.066406 55.441406 14.085938 55.484375 14.109375 C 55.648438 14.226562 55.808594 14.34375 55.96875 14.46875 Z M 37.941406 7.476562 C 38.386719 7.761719 38.707031 8.152344 38.894531 8.648438 C 39.078125 9.136719 39.019531 9.679688 39.292969 10.136719 C 39.773438 10.929688 40.75 11.246094 41.449219 11.800781 C 41.910156 12.175781 42.296875 12.613281 42.609375 13.117188 L 40.460938 12.554688 C 40.082031 12.453125 39.683594 12.378906 39.339844 12.1875 C 39.046875 12.015625 38.8125 11.78125 38.636719 11.488281 C 38.285156 10.917969 38.121094 10.238281 37.960938 9.59375 C 37.785156 8.886719 37.640625 8.171875 37.476562 7.46875 C 37.335938 6.828125 37.167969 6.199219 36.964844 5.578125 C 37.5625 6.296875 38.191406 7 38.945312 7.5625 C 39.796875 8.199219 40.878906 8.574219 41.570312 9.410156 C 41.9375 9.851562 42.140625 10.394531 42.324219 10.933594 C 42.53125 11.46875 42.664062 12.023438 42.726562 12.59375 C 42.738281 12.730469 42.75 12.867188 42.761719 13.003906 C 42.519531 12.613281 42.230469 12.261719 41.898438 11.949219 C 41.507812 11.609375 41.089844 11.316406 40.644531 11.0625 C 40.246094 10.8125 39.828125 10.558594 39.550781 10.167969 C 39.226562 9.707031 39.292969 9.132812 39.101562 8.621094 C 38.902344 8.089844 38.5625 7.675781 38.085938 7.375 C 38.007812 7.320312 37.832031 7.40625 37.941406 7.476562 Z M 35.929688 13.503906 C 35.535156 13.203125 35.117188 12.9375 34.675781 12.710938 C 34.617188 12.683594 34.425781 12.722656 34.527344 12.789062 L 35.71875 13.527344 C 35.910156 13.671875 36.09375 13.828125 36.273438 13.988281 C 34.546875 13.679688 32.8125 12.925781 31.777344 11.519531 C 31.8125 11.511719 31.835938 11.496094 31.816406 11.46875 C 31.25 10.71875 30.9375 9.871094 30.886719 8.925781 C 30.882812 8.851562 30.679688 8.855469 30.679688 8.929688 C 30.683594 9.601562 30.835938 10.238281 31.144531 10.835938 C 30.421875 10.203125 29.664062 9.609375 28.992188 8.921875 C 28.546875 8.476562 28.171875 7.980469 27.867188 7.429688 C 27.519531 6.769531 27.371094 6.054688 27.230469 5.332031 C 27.144531 4.871094 27.058594 4.410156 26.972656 3.949219 C 27.203125 4.324219 27.457031 4.683594 27.734375 5.027344 C 28.058594 5.429688 28.359375 5.851562 28.636719 6.289062 C 28.917969 6.777344 29.234375 7.242188 29.585938 7.683594 C 29.996094 8.125 30.449219 8.519531 30.945312 8.863281 C 31.449219 9.238281 31.949219 9.621094 32.441406 10.015625 C 33.429688 10.796875 34.394531 11.601562 35.339844 12.429688 C 36.183594 13.164062 37.015625 13.914062 37.839844 14.667969 C 37.195312 14.296875 36.558594 13.898438 35.925781 13.5 Z M 31.726562 14.707031 L 31.808594 14.726562 L 31.636719 14.71875 C 31.664062 14.726562 31.695312 14.71875 31.726562 14.707031 Z M 23.175781 15.398438 C 22.761719 15.417969 22.347656 15.40625 21.9375 15.359375 C 20.445312 15.238281 18.96875 15.4375 17.484375 15.578125 C 16.683594 15.667969 15.882812 15.699219 15.082031 15.675781 C 15.769531 15.320312 16.585938 15.25 17.304688 14.972656 C 18.050781 14.679688 18.75 14.289062 19.492188 13.988281 C 19.867188 13.832031 20.25 13.714844 20.648438 13.636719 C 21.058594 13.566406 21.476562 13.578125 21.882812 13.476562 C 22.703125 13.28125 23.429688 12.804688 24.273438 12.710938 C 25.226562 12.601562 26.96875 13.023438 27.742188 13.648438 C 27.402344 13.71875 27.074219 13.835938 26.761719 13.996094 C 26.628906 14.070312 26.496094 14.148438 26.371094 14.234375 C 26.339844 14.21875 26.308594 14.210938 26.277344 14.210938 C 25.125 14.183594 23.980469 14.226562 22.835938 14.339844 C 22.265625 14.398438 21.703125 14.496094 21.132812 14.558594 C 20.824219 14.582031 20.519531 14.570312 20.210938 14.515625 C 19.980469 14.480469 19.75 14.492188 19.523438 14.550781 C 19.234375 14.644531 18.949219 14.757812 18.671875 14.886719 L 17.679688 15.304688 C 17.636719 15.324219 17.65625 15.359375 17.683594 15.382812 C 17.730469 15.40625 17.777344 15.40625 17.824219 15.382812 C 18.367188 15.15625 18.90625 14.902344 19.457031 14.703125 C 19.734375 14.605469 20.019531 14.585938 20.3125 14.640625 C 20.558594 14.683594 20.808594 14.691406 21.0625 14.671875 C 21.609375 14.625 22.148438 14.523438 22.6875 14.460938 C 23.230469 14.398438 23.816406 14.355469 24.382812 14.332031 C 24.945312 14.308594 25.542969 14.300781 26.121094 14.308594 C 26.058594 14.402344 25.980469 14.484375 25.894531 14.554688 C 25.808594 14.609375 25.722656 14.664062 25.636719 14.71875 C 25.546875 14.765625 25.453125 14.808594 25.359375 14.847656 C 25.027344 14.972656 24.679688 15.074219 24.335938 15.171875 C 23.957031 15.289062 23.566406 15.367188 23.171875 15.40625 Z M 29.8125 15.800781 C 29.347656 15.988281 28.875 16.148438 28.398438 16.285156 C 27.914062 16.433594 27.4375 16.597656 26.96875 16.777344 C 26.496094 16.957031 26.015625 17.140625 25.53125 17.277344 C 25.066406 17.402344 24.59375 17.496094 24.117188 17.558594 C 23.164062 17.691406 22.203125 17.738281 21.253906 17.863281 C 20.742188 17.925781 20.238281 18.019531 19.738281 18.144531 C 19.253906 18.269531 18.78125 18.457031 18.285156 18.519531 C 19.882812 17.304688 21.515625 16.109375 23.476562 15.574219 C 23.953125 15.445312 24.433594 15.339844 24.902344 15.175781 C 25.089844 15.113281 25.277344 15.035156 25.457031 14.945312 C 25.492188 14.929688 25.53125 14.917969 25.566406 14.902344 C 25.796875 14.8125 26 14.6875 26.179688 14.519531 L 26.230469 14.484375 C 26.636719 14.175781 27.078125 13.9375 27.5625 13.773438 C 27.648438 13.75 27.734375 13.726562 27.824219 13.699219 C 27.859375 13.726562 27.996094 13.695312 28.078125 13.652344 C 28.382812 13.609375 28.691406 13.597656 29 13.628906 C 29.558594 13.683594 30.082031 13.84375 30.574219 14.109375 C 30.90625 14.289062 31.230469 14.492188 31.574219 14.640625 L 31.113281 14.6875 C 30.835938 14.660156 30.558594 14.632812 30.273438 14.621094 C 29.710938 14.601562 29.15625 14.660156 28.609375 14.796875 C 27.472656 15.070312 26.421875 15.609375 25.390625 16.144531 C 25.328125 16.179688 25.519531 16.191406 25.550781 16.1875 C 26.535156 15.898438 27.527344 15.632812 28.523438 15.394531 C 28.578125 15.410156 28.628906 15.417969 28.683594 15.410156 C 28.6875 15.40625 28.695312 15.402344 28.699219 15.402344 C 28.773438 15.371094 28.84375 15.339844 28.914062 15.304688 C 29.660156 15.128906 30.410156 14.96875 31.164062 14.824219 C 31.394531 14.828125 31.625 14.839844 31.851562 14.863281 C 31.136719 15.082031 30.5 15.511719 29.808594 15.804688 Z M 28.484375 15.222656 C 28.445312 15.246094 28.402344 15.269531 28.359375 15.292969 C 28.316406 15.320312 28.359375 15.324219 28.402344 15.332031 C 27.578125 15.527344 26.761719 15.742188 25.945312 15.972656 C 26.851562 15.507812 27.777344 15.066406 28.765625 14.832031 C 28.964844 14.789062 29.164062 14.753906 29.367188 14.726562 C 29.054688 14.851562 28.761719 15.007812 28.488281 15.199219 C 28.472656 15.214844 28.476562 15.222656 28.484375 15.230469 Z M 29.21875 15.105469 C 29.242188 15.109375 29.261719 15.109375 29.28125 15.105469 L 29.414062 15.066406 L 29.441406 15.058594 C 29.464844 15.0625 29.488281 15.0625 29.511719 15.0625 L 30.25 14.863281 C 30.261719 14.863281 30.269531 14.859375 30.277344 14.851562 C 30.425781 14.835938 30.578125 14.828125 30.730469 14.820312 C 30.199219 14.925781 29.671875 15.039062 29.148438 15.15625 C 29.167969 15.148438 29.199219 15.128906 29.21875 15.113281 Z M 29.542969 14.851562 Z M 29.6875 14.699219 C 29.980469 14.679688 30.273438 14.679688 30.5625 14.703125 L 30.714844 14.714844 L 30.519531 14.730469 C 30.496094 14.722656 30.46875 14.71875 30.445312 14.71875 L 30.257812 14.738281 C 30.210938 14.714844 30.164062 14.703125 30.113281 14.710938 L 29.976562 14.734375 C 29.945312 14.722656 29.917969 14.714844 29.886719 14.710938 C 29.828125 14.714844 29.769531 14.71875 29.710938 14.722656 C 29.699219 14.71875 29.6875 14.714844 29.671875 14.710938 C 29.683594 14.710938 29.6875 14.707031 29.6875 14.703125 Z M 41.921875 16 L 42.570312 16.035156 C 42.558594 16.054688 42.558594 16.074219 42.570312 16.09375 C 42.351562 16.066406 42.132812 16.039062 41.917969 16.003906 Z M 42.984375 16.144531 L 43.496094 16.136719 C 43.488281 16.15625 43.488281 16.171875 43.496094 16.1875 C 43.320312 16.179688 43.152344 16.167969 42.980469 16.148438 Z M 41.9375 16.988281 C 41.578125 17.066406 41.230469 17.152344 40.890625 17.246094 C 40.207031 17.433594 39.535156 17.667969 38.882812 17.945312 C 37.75 18.429688 36.535156 19 35.753906 19.984375 C 35.28125 20.582031 34.816406 21.164062 34.230469 21.652344 C 34.210938 21.671875 34.382812 21.707031 34.429688 21.671875 C 34.921875 21.253906 35.359375 20.785156 35.746094 20.269531 C 35.933594 20.011719 36.140625 19.769531 36.367188 19.539062 C 36.605469 19.320312 36.863281 19.128906 37.140625 18.960938 C 38.195312 18.320312 39.3125 17.816406 40.492188 17.453125 C 41.042969 17.277344 41.601562 17.132812 42.167969 17.019531 C 41.925781 17.183594 41.710938 17.378906 41.519531 17.601562 C 41.210938 17.953125 40.839844 18.226562 40.414062 18.417969 C 39.996094 18.59375 39.550781 18.710938 39.121094 18.867188 C 38.710938 19.019531 38.324219 19.210938 37.953125 19.445312 C 37.195312 19.925781 36.523438 20.539062 35.859375 21.140625 C 35.160156 21.792969 34.398438 22.367188 33.578125 22.859375 C 32.851562 23.277344 32.089844 23.625 31.351562 24.007812 C 31.972656 23.554688 32.542969 23.046875 33.070312 22.492188 C 33.429688 22.101562 33.738281 21.675781 33.988281 21.210938 C 34.253906 20.710938 34.441406 20.1875 34.757812 19.714844 C 35.390625 18.765625 36.46875 18.183594 37.507812 17.792969 C 38.035156 17.59375 38.554688 17.375 39.082031 17.167969 C 39.644531 16.957031 40.226562 16.859375 40.828125 16.867188 C 41.433594 16.867188 42.03125 16.867188 42.632812 16.816406 C 42.398438 16.878906 42.167969 16.941406 41.929688 16.992188 Z M 44.625 16.25 C 44.421875 16.25 44.21875 16.246094 44.015625 16.230469 L 44.257812 16.21875 C 44.53125 16.207031 44.804688 16.199219 45.078125 16.195312 L 44.792969 16.242188 Z M 45.425781 16.195312 C 45.621094 16.195312 45.816406 16.191406 46.015625 16.195312 L 46.167969 16.207031 C 45.863281 16.21875 45.5625 16.226562 45.261719 16.234375 Z M 49.261719 16.21875 C 49.257812 16.210938 49.253906 16.207031 49.25 16.199219 L 49.746094 16.222656 C 49.765625 16.230469 49.785156 16.234375 49.808594 16.238281 L 49.929688 16.253906 C 49.699219 16.242188 49.476562 16.226562 49.253906 16.21875 Z M 50.015625 18.957031 C 49.699219 19.378906 49.328125 19.734375 48.890625 20.027344 C 48.464844 20.308594 48.019531 20.554688 47.554688 20.769531 C 47.09375 20.992188 46.53125 21.308594 46.019531 21.066406 C 45.964844 21.042969 45.871094 21.066406 45.859375 21.132812 C 45.835938 21.425781 45.570312 21.582031 45.320312 21.683594 C 45.042969 21.796875 44.742188 21.863281 44.453125 21.953125 C 43.867188 22.128906 43.289062 22.324219 42.714844 22.53125 C 41.738281 22.882812 40.785156 23.28125 39.84375 23.714844 C 40.496094 23.230469 41.242188 22.871094 41.835938 22.308594 C 42.554688 21.628906 43.066406 20.773438 43.769531 20.082031 C 45.320312 18.554688 47.613281 18.503906 49.609375 18.050781 C 49.925781 17.980469 50.234375 17.894531 50.542969 17.789062 C 50.121094 18.097656 49.675781 18.363281 49.203125 18.582031 C 48.628906 18.847656 48.023438 19.015625 47.429688 19.234375 C 47.152344 19.332031 46.886719 19.453125 46.628906 19.59375 C 46.359375 19.761719 46.109375 19.957031 45.878906 20.171875 C 45.382812 20.601562 44.757812 20.75 44.164062 20.988281 C 43.5 21.253906 42.898438 21.625 42.359375 22.097656 C 42.261719 22.179688 42.429688 22.265625 42.503906 22.203125 C 43 21.765625 43.550781 21.417969 44.160156 21.164062 C 44.722656 20.925781 45.339844 20.796875 45.839844 20.429688 C 46.101562 20.238281 46.316406 20 46.589844 19.820312 C 46.855469 19.648438 47.136719 19.507812 47.433594 19.398438 C 48.019531 19.171875 48.628906 19.011719 49.203125 18.753906 C 49.722656 18.519531 50.210938 18.234375 50.671875 17.898438 C 50.472656 18.265625 50.253906 18.617188 50.007812 18.957031 Z M 57.398438 19.234375 C 56.765625 19.542969 56.078125 19.703125 55.398438 19.878906 L 53.21875 20.449219 L 51.316406 20.949219 C 52.667969 20.265625 54.132812 19.832031 55.445312 19.070312 C 55.789062 18.875 56.113281 18.652344 56.421875 18.40625 C 56.75 18.140625 57.027344 17.820312 57.351562 17.550781 C 57.71875 17.246094 58.140625 17.09375 58.617188 17.082031 C 59.003906 17.0625 59.386719 17.09375 59.773438 17.078125 C 59.488281 17.160156 59.199219 17.222656 58.910156 17.28125 C 58.433594 17.378906 57.980469 17.53125 57.546875 17.746094 C 56.667969 18.1875 55.945312 18.855469 55.101562 19.347656 C 55 19.40625 55.191406 19.453125 55.246094 19.421875 C 56.089844 18.925781 56.8125 18.257812 57.683594 17.808594 C 58.453125 17.410156 59.328125 17.351562 60.136719 17.066406 C 59.3125 17.894531 58.449219 18.722656 57.390625 19.234375 Z M 67.050781 14.8125 C 67.015625 14.804688 66.984375 14.804688 66.949219 14.808594 L 66.464844 14.898438 C 66.441406 14.890625 66.417969 14.890625 66.394531 14.894531 C 66.289062 14.910156 66.183594 14.929688 66.078125 14.953125 C 66.046875 14.910156 66.007812 14.894531 65.957031 14.898438 C 65.71875 14.925781 65.480469 14.929688 65.242188 14.90625 L 67.277344 14.773438 C 67.203125 14.78125 67.121094 14.796875 67.042969 14.8125 Z M 67.660156 14.800781 C 67.636719 14.777344 67.609375 14.757812 67.574219 14.75 L 68.34375 14.699219 C 68.109375 14.734375 67.878906 14.769531 67.65625 14.800781 Z M 70.257812 14.421875 C 70.222656 14.40625 70.191406 14.398438 70.152344 14.402344 L 67.863281 14.550781 C 68.941406 14.433594 70.027344 14.351562 71.113281 14.300781 Z M 70.257812 14.421875 " fill-opacity="1" fill-rule="nonzero"/></g></g></g><g clip-path="url(#78b753dbcd)"><g clip-path="url(#27dafe5c6e)"><g clip-path="url(#83c6aa96e7)"><path fill="#dbd484" d="M 34.292969 14.378906 C 34.335938 14.230469 34.316406 14.089844 34.238281 13.957031 C 34.160156 13.820312 34.042969 13.734375 33.894531 13.695312 C 33.746094 13.65625 33.601562 13.675781 33.46875 13.753906 C 33.335938 13.832031 33.25 13.945312 33.210938 14.09375 C 33.171875 14.246094 33.1875 14.386719 33.265625 14.519531 C 33.34375 14.65625 33.460938 14.742188 33.609375 14.78125 C 33.757812 14.820312 33.902344 14.800781 34.035156 14.722656 C 34.167969 14.644531 34.253906 14.53125 34.292969 14.378906 Z M 34.292969 14.378906 " fill-opacity="1" fill-rule="nonzero"/></g></g></g><g clip-path="url(#b9243d1fb3)"><g clip-path="url(#bb19165f35)"><g clip-path="url(#9849f573a4)"><path fill="#dbd484" d="M 45.222656 14.59375 C 45.371094 14.632812 45.511719 14.613281 45.648438 14.535156 C 45.78125 14.457031 45.867188 14.34375 45.90625 14.191406 C 45.945312 14.042969 45.925781 13.898438 45.847656 13.765625 C 45.769531 13.632812 45.65625 13.546875 45.507812 13.507812 C 45.355469 13.46875 45.214844 13.488281 45.082031 13.566406 C 44.945312 13.644531 44.859375 13.757812 44.820312 13.90625 C 44.78125 14.058594 44.800781 14.199219 44.878906 14.332031 C 44.957031 14.464844 45.070312 14.554688 45.222656 14.59375 Z M 45.222656 14.59375 " fill-opacity="1" fill-rule="nonzero"/></g></g></g><g clip-path="url(#84e05b935c)"><g clip-path="url(#b633683607)"><g clip-path="url(#cd62c5f818)"><path fill="#dbd484" d="M 17.617188 12.644531 C 17.542969 12.625 17.472656 12.636719 17.40625 12.675781 C 17.339844 12.710938 17.296875 12.769531 17.277344 12.84375 C 17.257812 12.917969 17.269531 12.984375 17.304688 13.050781 C 17.34375 13.117188 17.402344 13.160156 17.476562 13.179688 C 17.546875 13.199219 17.617188 13.191406 17.683594 13.152344 C 17.75 13.113281 17.792969 13.058594 17.8125 12.984375 C 17.832031 12.910156 17.824219 12.839844 17.785156 12.773438 C 17.746094 12.707031 17.6875 12.664062 17.617188 12.644531 Z M 17.617188 12.644531 " fill-opacity="1" fill-rule="nonzero"/></g></g></g></g></g></g></svg>