<svg xmlns="http://www.w3.org/2000/svg" xmlns:xlink="http://www.w3.org/1999/xlink" width="70" zoomAndPan="magnify" viewBox="0 0 52.5 52.499999" height="70" preserveAspectRatio="xMidYMid meet" version="1.0"><defs><filter x="0%" y="0%" width="100%" height="100%" id="1f3c20059b"><feColorMatrix values="0 0 0 0 1 0 0 0 0 1 0 0 0 0 1 0 0 0 1 0" color-interpolation-filters="sRGB"/></filter><mask id="7cda3f1536"><g filter="url(#1f3c20059b)"><rect x="-5.25" width="63" fill="#000000" y="-5.25" height="62.999999" fill-opacity="0.3"/></g></mask><clipPath id="b365b9eb65"><path d="M 5.199219 0.328125 L 46 0.328125 L 46 48.828125 L 5.199219 48.828125 Z M 5.199219 0.328125 " clip-rule="nonzero"/></clipPath><clipPath id="8820bfe52c"><rect x="0" width="47" y="0" height="49"/></clipPath><clipPath id="dc8a71c25f"><path d="M 2.15625 17.390625 L 49.703125 17.390625 L 49.703125 43.390625 L 2.15625 43.390625 Z M 2.15625 17.390625 " clip-rule="nonzero"/></clipPath></defs><g mask="url(#7cda3f1536)"><g transform="matrix(1, 0, 0, 1, 0, 3)"><g clip-path="url(#8820bfe52c)"><g clip-path="url(#b365b9eb65)"><path fill="#8bac67" d="M 29.097656 1.074219 C 29.253906 1.480469 29.382812 2.160156 29.382812 2.585938 C 29.386719 3.066406 29.652344 2.851562 30.082031 2.03125 C 30.964844 0.335938 30.964844 0.339844 29.796875 0.339844 C 29.09375 0.339844 28.894531 0.546875 29.097656 1.074219 M 28.789062 6.152344 C 28.542969 8.085938 28.652344 10.164062 29.152344 12.902344 C 29.550781 15.074219 29.996094 17.585938 30.136719 18.484375 L 30.398438 20.113281 L 29.351562 18.484375 C 28.777344 17.585938 27.785156 15.816406 27.144531 14.546875 C 26.054688 12.394531 25.9375 12.304688 25.375 13.152344 C 23.40625 16.113281 23.253906 16.113281 23.511719 13.132812 C 23.644531 11.597656 23.882812 9.816406 24.039062 9.179688 C 24.277344 8.214844 24.238281 8.152344 23.820312 8.804688 C 23.539062 9.242188 23.027344 11.4375 22.683594 13.691406 C 22.335938 15.941406 21.523438 18.902344 20.878906 20.265625 L 19.703125 22.742188 L 18.679688 20.03125 C 17.847656 17.835938 17.699219 16.699219 17.894531 14.0625 C 18.03125 12.273438 18.265625 10.386719 18.417969 9.875 C 18.566406 9.363281 18.371094 9.636719 17.980469 10.476562 C 16.746094 13.125 16.597656 17 17.632812 19.699219 L 18.542969 22.078125 L 15.984375 20.628906 C 14.582031 19.832031 13.0625 18.585938 12.613281 17.855469 C 11.628906 16.261719 11.5 16.523438 10.78125 21.621094 C 10.410156 24.285156 10.445312 25.394531 10.964844 26.902344 L 11.621094 28.808594 L 10.585938 27.832031 C 10.015625 27.296875 9.332031 26.859375 9.070312 26.859375 C 8.242188 26.859375 7.515625 29.136719 7.515625 31.722656 C 7.515625 33.917969 7.679688 34.359375 8.890625 35.378906 C 9.652344 36.019531 10.46875 36.613281 10.714844 36.699219 C 10.960938 36.789062 10.648438 38.375 10.019531 40.246094 C 9.25 42.527344 9.015625 43.878906 9.296875 44.386719 C 9.628906 44.976562 10.097656 44.417969 11.519531 41.710938 C 13.714844 37.535156 17.097656 34.066406 20.792969 32.207031 C 23.292969 30.949219 24 30.8125 27.984375 30.8125 C 31.917969 30.8125 32.6875 30.957031 34.964844 32.125 C 38.234375 33.804688 39.742188 35.234375 42.035156 38.839844 C 43.054688 40.4375 44.078125 41.746094 44.3125 41.746094 C 45.082031 41.746094 44.75 39.863281 43.523438 37.269531 C 42.355469 34.796875 42.34375 34.683594 43.175781 34.054688 C 43.648438 33.695312 44.203125 33.394531 44.410156 33.386719 C 45.132812 33.359375 46.148438 30.117188 45.839844 28.832031 C 45.449219 27.203125 43.882812 24.066406 43.464844 24.066406 C 43.285156 24.066406 42.296875 24.882812 41.261719 25.878906 C 40.230469 26.875 38.945312 27.820312 38.410156 27.980469 L 37.433594 28.269531 L 38.277344 24.65625 C 38.738281 22.667969 39.441406 19.578125 39.839844 17.785156 C 40.234375 15.996094 40.972656 13.960938 41.484375 13.269531 C 42.503906 11.878906 42.613281 11.503906 41.996094 11.503906 C 41.769531 11.503906 41.449219 11.871094 41.285156 12.320312 C 41.121094 12.765625 40.585938 13.867188 40.097656 14.761719 C 39.609375 15.65625 39.066406 17.277344 38.894531 18.363281 C 38.46875 21.046875 37.859375 20.457031 37.820312 17.320312 C 37.804688 15.910156 37.480469 13.710938 37.101562 12.433594 C 36.722656 11.15625 36.527344 10.109375 36.675781 10.109375 C 36.820312 10.109375 36.671875 9.785156 36.34375 9.390625 C 35.933594 8.894531 35.597656 8.824219 35.265625 9.15625 C 34.929688 9.492188 35.003906 9.820312 35.507812 10.222656 C 35.910156 10.542969 36.472656 12.046875 36.761719 13.558594 C 37.535156 17.597656 37.441406 18.011719 36.128906 16.40625 L 35 15.023438 L 34.285156 16.738281 C 33.890625 17.683594 33.566406 18.585938 33.566406 18.75 C 33.566406 18.914062 33.085938 19.621094 32.496094 20.320312 L 31.425781 21.59375 L 30.554688 16.898438 C 30.074219 14.316406 29.5625 10.214844 29.414062 7.78125 L 29.148438 3.363281 Z M 24.726562 5.183594 C 24.726562 5.589844 25.058594 5.921875 25.464844 5.921875 C 25.871094 5.921875 26.117188 5.671875 26.015625 5.371094 C 25.730469 4.507812 24.726562 4.363281 24.726562 5.183594 M 18.292969 7.617188 C 18.382812 8.085938 18.839844 8.542969 19.308594 8.632812 C 19.921875 8.753906 20.113281 8.5625 19.996094 7.945312 C 19.90625 7.476562 19.449219 7.019531 18.980469 6.929688 C 18.367188 6.8125 18.175781 7.003906 18.292969 7.617188 M 18.679688 7.78125 C 18.679688 8.039062 18.902344 8.246094 19.171875 8.246094 C 19.445312 8.246094 19.535156 8.039062 19.378906 7.78125 C 19.21875 7.527344 19 7.316406 18.886719 7.316406 C 18.773438 7.316406 18.679688 7.527344 18.679688 7.78125 M -26.660156 13.9375 C -27.609375 14.472656 -28.777344 17.054688 -28.777344 18.632812 C -28.777344 19.242188 -28.285156 20.664062 -27.683594 21.796875 L -26.589844 23.851562 L -29.429688 23.84375 C -32.675781 23.832031 -35.128906 24.695312 -35.539062 25.984375 C -35.855469 26.976562 -34.277344 29.867188 -33.191406 30.285156 C -32.648438 30.492188 -32.757812 30.796875 -33.710938 31.75 C -35.027344 33.066406 -34.96875 34.707031 -33.558594 36.273438 C -32.890625 37.015625 -32.933594 37.230469 -34.039062 38.832031 C -35.878906 41.496094 -36.6875 43.800781 -36.6875 46.382812 C -36.6875 49.121094 -36 49.488281 -35.535156 46.996094 C -34.542969 41.703125 -29.253906 36.378906 -23.203125 34.582031 C -18.449219 33.167969 -12.492188 33.914062 -7.667969 36.527344 C -5.320312 37.796875 -0.464844 42.257812 1.195312 44.671875 C 1.699219 45.402344 2.261719 45.789062 2.488281 45.5625 C 3.117188 44.929688 1.328125 41.257812 -1 38.398438 L -3.097656 35.820312 L -2.214844 34.480469 C -0.589844 32.015625 -1.476562 29.648438 -4.023438 29.648438 L -5.253906 29.648438 L -4.21875 28.921875 C -2.828125 27.949219 -1.675781 25.628906 -2.03125 24.507812 C -2.1875 24.011719 -2.878906 23.449219 -3.566406 23.257812 C -5.730469 22.652344 -9.851562 22.914062 -11.445312 23.757812 C -12.277344 24.195312 -12.957031 24.488281 -12.957031 24.410156 C -12.957031 24.328125 -12.539062 23.441406 -12.027344 22.4375 C -11.121094 20.660156 -10.804688 17.460938 -11.386719 15.945312 C -11.75 15 -13.960938 13.832031 -15.390625 13.832031 C -15.984375 13.832031 -16.964844 14.175781 -17.566406 14.597656 C -18.582031 15.308594 -18.691406 15.308594 -19.089844 14.597656 C -19.625 13.636719 -21.03125 13.605469 -21.808594 14.539062 C -22.3125 15.148438 -22.503906 15.15625 -23.144531 14.605469 C -24.199219 13.695312 -25.714844 13.410156 -26.660156 13.9375 M -27.183594 16.40625 C -28.390625 19.292969 -27.515625 21.109375 -22.847656 25.410156 C -18.355469 29.546875 -17.921875 30.894531 -22.117188 27.675781 C -25.941406 24.742188 -29.183594 24.066406 -33.546875 25.296875 C -35.46875 25.835938 -33.992188 28.851562 -31.066406 30.367188 C -29.179688 31.339844 -25.355469 31.121094 -25.144531 30.027344 C -24.929688 28.882812 -27.09375 27.574219 -28.167969 28.203125 C -28.953125 28.660156 -28.953125 28.691406 -28.195312 28.707031 C -27.746094 28.710938 -27.378906 28.929688 -27.378906 29.183594 C -27.378906 29.933594 -29.535156 29.71875 -30.214844 28.902344 C -31.628906 27.195312 -27.277344 26.097656 -25.113281 27.613281 C -24.257812 28.214844 -24.074219 28.699219 -24.222656 29.96875 C -24.390625 31.402344 -24.304688 31.542969 -23.453125 31.308594 C -22.925781 31.164062 -21.738281 30.917969 -20.8125 30.761719 C -19.519531 30.546875 -18.96875 30.140625 -18.433594 29.019531 C -18.050781 28.214844 -16.554688 25.910156 -15.113281 23.902344 C -12.90625 20.824219 -12.492188 19.933594 -12.492188 18.257812 C -12.492188 15.890625 -13.253906 15.109375 -15.355469 15.3125 C -16.484375 15.421875 -17.160156 15.871094 -17.945312 17.039062 C -19.007812 18.625 -19.375 21.457031 -18.582031 21.945312 C -17.472656 22.632812 -15.355469 20.210938 -15.894531 18.878906 C -16.066406 18.457031 -16.253906 18.59375 -16.46875 19.296875 C -16.644531 19.875 -16.972656 20.34375 -17.199219 20.34375 C -17.871094 20.34375 -17.671875 19.589844 -16.6875 18.417969 C -15.898438 17.476562 -15.699219 17.417969 -15.28125 18.019531 C -14.714844 18.828125 -15.035156 21.113281 -15.847656 22.09375 C -16.742188 23.167969 -18.492188 23.660156 -19.5 23.121094 C -20.121094 22.789062 -20.402344 22.789062 -20.402344 23.121094 C -20.402344 24.171875 -23.125 23.605469 -24.113281 22.347656 C -25.320312 20.8125 -25.269531 17.878906 -24.035156 17.644531 C -23.054688 17.457031 -21.484375 20.21875 -22.175781 20.910156 C -22.476562 21.210938 -22.742188 20.871094 -22.949219 19.929688 C -23.371094 18.003906 -24.125 17.625 -24.125 19.335938 C -24.125 21.082031 -22.683594 22.933594 -21.636719 22.53125 C -20.636719 22.148438 -20.664062 21.355469 -21.769531 18.785156 C -23.574219 14.570312 -25.976562 13.515625 -27.183594 16.40625 M -21.117188 15.253906 C -21.519531 15.910156 -20.96875 18.019531 -20.394531 18.019531 C -20.140625 18.019531 -19.9375 17.285156 -19.9375 16.390625 C -19.9375 14.804688 -20.503906 14.261719 -21.117188 15.253906 M 23.871094 16.976562 C 21.320312 20.949219 20.515625 23.230469 21.015625 25.050781 C 21.683594 27.46875 22.4375 28.238281 23.851562 27.949219 C 24.988281 27.71875 25.054688 27.570312 24.839844 25.652344 C 24.691406 24.363281 24.792969 23.601562 25.105469 23.601562 C 25.378906 23.601562 25.667969 24.386719 25.746094 25.347656 C 25.878906 26.921875 26.03125 27.105469 27.34375 27.230469 C 28.523438 27.347656 28.847656 27.175781 29.082031 26.300781 C 29.796875 23.632812 29.378906 21.238281 27.636719 18.011719 C 26.675781 16.230469 25.757812 14.773438 25.589844 14.769531 C 25.425781 14.765625 24.652344 15.757812 23.871094 16.976562 M 34.527344 19.207031 C 33.96875 20.214844 32.792969 22.058594 31.910156 23.304688 C 30.019531 25.980469 29.820312 27.648438 31.359375 27.882812 C 32.132812 28.003906 32.6875 27.617188 33.492188 26.40625 C 34.445312 24.964844 34.554688 24.90625 34.371094 25.925781 C 34.253906 26.566406 34.078125 27.398438 33.980469 27.777344 C 33.871094 28.195312 34.183594 28.523438 34.78125 28.617188 C 35.515625 28.730469 35.921875 28.382812 36.410156 27.230469 C 37.277344 25.175781 37.203125 20.464844 36.277344 18.742188 L 35.539062 17.371094 Z M 11.988281 20.886719 C 11.828125 21.675781 11.699219 23.363281 11.699219 24.636719 C 11.699219 26.585938 11.910156 27.148438 13.046875 28.207031 C 14.335938 29.410156 17.6875 30.796875 18.164062 30.320312 C 18.289062 30.195312 17.933594 29.773438 17.375 29.382812 C 16.816406 28.992188 16.121094 28.222656 15.828125 27.675781 C 15.402344 26.878906 15.679688 26.980469 17.203125 28.1875 C 18.875 29.511719 19.242188 29.632812 20.175781 29.148438 C 20.761719 28.84375 21.304688 28.539062 21.386719 28.46875 C 21.46875 28.402344 21.003906 27.300781 20.355469 26.019531 C 19.207031 23.757812 17.234375 21.742188 16.167969 21.742188 C 15.875 21.742188 14.882812 21.226562 13.957031 20.597656 L 12.273438 19.453125 Z M -8.902344 24.109375 C -11.632812 24.75 -13.148438 25.707031 -15.277344 28.121094 L -17.238281 30.347656 L -15.214844 30.640625 C -14.101562 30.804688 -12.363281 31.164062 -11.355469 31.445312 C -9.597656 31.929688 -8.285156 31.792969 -9.867188 31.289062 C -10.289062 31.15625 -10.945312 30.945312 -11.328125 30.828125 C -13.386719 30.183594 -10.933594 26.394531 -8.460938 26.394531 C -7.339844 26.394531 -6.484375 27.542969 -7.148438 28.15625 C -7.34375 28.339844 -7.59375 28.226562 -7.710938 27.90625 C -8.015625 27.050781 -8.921875 27.195312 -10.089844 28.28125 C -12.117188 30.171875 -9.621094 30.804688 -6.46875 29.199219 C -4.566406 28.226562 -2.722656 26.238281 -2.722656 25.15625 C -2.722656 23.8125 -5.582031 23.328125 -8.902344 24.109375 M 41.464844 27.105469 C 40.578125 28.015625 39.242188 28.835938 38.367188 29 C 36.457031 29.355469 36.433594 29.683594 38.242188 30.75 C 39.554688 31.527344 39.746094 31.535156 40.800781 30.839844 C 42.160156 29.949219 42.355469 30.703125 41.011719 31.644531 C 40.082031 32.296875 40.082031 32.296875 41.011719 33.136719 C 41.914062 33.957031 41.976562 33.9375 43.335938 32.515625 C 44.105469 31.710938 44.734375 30.6875 44.730469 30.234375 C 44.726562 29.03125 43.828125 25.996094 43.394531 25.730469 C 43.1875 25.601562 42.320312 26.222656 41.464844 27.105469 M 8.730469 28.855469 C 8.105469 31.191406 8.425781 33.785156 9.460938 34.75 C 11.234375 36.402344 13.539062 35.613281 11.980469 33.886719 C 11.570312 33.433594 11.242188 32.769531 11.253906 32.40625 C 11.261719 32.007812 11.6875 32.253906 12.320312 33.027344 L 13.371094 34.3125 L 14.898438 32.734375 C 16.382812 31.203125 16.394531 31.167969 15.269531 31.382812 C 14.429688 31.542969 13.414062 31.085938 11.558594 29.71875 C 9.085938 27.890625 9 27.863281 8.730469 28.855469 M 23.875 28.96875 C 19.234375 29.972656 15.171875 32.867188 12.527344 37.035156 C 11.84375 38.121094 12.382812 37.761719 14.53125 35.699219 C 16.210938 34.085938 18.777344 32.230469 20.511719 31.378906 C 23.320312 29.996094 23.90625 29.882812 28.210938 29.882812 C 32.410156 29.882812 33.125 30.011719 35.429688 31.195312 C 36.835938 31.917969 38.511719 32.964844 39.152344 33.519531 C 39.789062 34.074219 39.625 33.773438 38.78125 32.855469 C 36.90625 30.816406 34.046875 29.339844 30.78125 28.71875 C 27.800781 28.15625 27.582031 28.164062 23.875 28.96875 M -6.675781 31.292969 C -7.699219 31.660156 -8.636719 31.964844 -8.757812 31.96875 C -9.019531 31.976562 -7.792969 32.8125 -5.40625 34.25 L -3.667969 35.296875 L -2.886719 33.660156 C -2.246094 32.3125 -2.210938 31.894531 -2.703125 31.300781 C -3.433594 30.421875 -4.257812 30.417969 -6.675781 31.292969 M -33.117188 32.285156 C -33.609375 32.777344 -33.480469 34.699219 -32.894531 35.636719 C -32.394531 36.4375 -32.21875 36.386719 -30.09375 34.816406 L -27.828125 33.140625 L -29.582031 32.59375 C -31.648438 31.949219 -32.691406 31.859375 -33.117188 32.285156 M -27.003906 32.292969 C -26.667969 32.429688 -26.265625 32.410156 -26.109375 32.257812 C -25.957031 32.101562 -26.230469 31.992188 -26.722656 32.011719 C -27.261719 32.035156 -27.375 32.144531 -27.003906 32.292969 M -22.960938 32.628906 C -25.742188 33.511719 -28.324219 34.988281 -30.40625 36.894531 C -32.027344 38.382812 -32.058594 38.441406 -30.636719 37.359375 C -23.90625 32.246094 -15.792969 31.519531 -8.074219 35.347656 C -6.535156 36.109375 -4.914062 37.054688 -4.464844 37.449219 C -4.019531 37.84375 -3.65625 37.980469 -3.660156 37.746094 C -3.675781 36.839844 -8.578125 33.789062 -11.4375 32.90625 C -14.886719 31.839844 -20.082031 31.714844 -22.960938 32.628906 " fill-opacity="1" fill-rule="evenodd"/></g></g></g></g><g clip-path="url(#dc8a71c25f)"><path fill="#769a8c" d="M 49.792969 32.015625 C 49.792969 34.832031 47.503906 37.058594 44.460938 37.058594 C 41.046875 37.058594 38.277344 33.40625 38.277344 28.902344 C 38.277344 28.832031 38.277344 28.765625 38.28125 28.699219 L 34.984375 38.3125 L 33.65625 38.425781 L 27.214844 19.625 C 27.164062 19.710938 27.109375 19.804688 27.054688 19.902344 L 22.632812 27.851562 L 27.113281 35.652344 C 28.15625 37.46875 28.527344 37.675781 29.714844 37.675781 L 30.117188 37.675781 L 30.117188 38.167969 L 24.945312 38.167969 L 24.945312 37.675781 L 25.496094 37.675781 C 26.476562 37.675781 26.910156 37.617188 26.910156 37.210938 C 26.910156 36.921875 26.707031 36.492188 26.304688 35.769531 L 22.199219 28.628906 L 18.34375 35.566406 C 14.9375 41.699219 12.277344 43.019531 8.171875 43.019531 C 6.746094 43.019531 5.605469 42.515625 4.707031 41.808594 C 3.328125 40.722656 2.203125 39.042969 2.203125 36.644531 C 2.203125 33.207031 4.648438 30.660156 7.71875 30.164062 L 7.765625 30.449219 C 4.824219 30.925781 2.492188 33.355469 2.492188 36.644531 C 2.492188 38.945312 3.5625 40.539062 4.886719 41.582031 C 5.65625 42.1875 6.773438 42.46875 7.558594 42.46875 C 11.074219 42.46875 13.753906 39.660156 16.582031 34.523438 L 20.8125 26.839844 L 20.398438 26.164062 C 19.863281 25.425781 18.964844 24.820312 17.894531 24.820312 C 16.957031 24.820312 16.253906 25.375 16.253906 26.164062 C 16.253906 26.777344 16.734375 27.160156 17.207031 27.160156 C 17.523438 27.160156 17.785156 26.988281 17.925781 26.808594 L 18.152344 26.984375 C 17.964844 27.226562 17.628906 27.449219 17.207031 27.449219 C 16.582031 27.449219 15.964844 26.945312 15.964844 26.164062 C 15.964844 25.167969 16.851562 24.53125 17.894531 24.53125 C 18.605469 24.53125 19.253906 24.78125 19.773438 25.144531 L 16.566406 19.902344 C 15.4375 18.113281 15.234375 17.679688 14.367188 17.679688 L 11.21875 17.679688 L 11.21875 17.390625 L 18.644531 17.390625 L 18.644531 17.910156 L 18.125 17.910156 C 17.203125 17.910156 16.765625 17.996094 16.765625 18.398438 C 16.765625 18.691406 17 19.152344 17.402344 19.816406 L 21.246094 26.058594 L 25.003906 19.296875 C 25.363281 18.652344 25.886719 18.214844 26.28125 18.023438 C 26.328125 18 26.375 17.984375 26.417969 17.96875 L 26.417969 17.910156 L 24.917969 17.910156 L 24.917969 17.390625 L 30.503906 17.390625 L 30.503906 17.910156 L 29.25 17.910156 C 28.949219 17.910156 28.710938 17.9375 28.476562 18.0625 C 28.789062 18.257812 29.03125 18.628906 29.175781 19.035156 L 34.578125 34.84375 C 34.78125 35.390625 34.808594 35.738281 34.808594 35.855469 L 34.808594 35.882812 L 35.042969 35.882812 L 35.042969 35.855469 C 35.042969 35.769531 35.070312 35.421875 35.332031 34.757812 L 40.675781 19.441406 C 40.792969 19.09375 40.875 18.78125 40.875 18.523438 C 40.875 17.996094 40.535156 17.679688 39.460938 17.679688 L 35.445312 17.679688 L 35.445312 17.390625 L 43.710938 17.390625 L 43.710938 17.910156 L 43.132812 17.910156 C 42.09375 17.910156 41.902344 18.144531 41.457031 19.441406 L 38.773438 27.257812 C 38.632812 27.804688 38.566406 28.359375 38.566406 28.902344 C 38.566406 33.246094 41.207031 36.769531 44.460938 36.769531 C 47.355469 36.769531 49.503906 34.660156 49.503906 32.015625 C 49.503906 29.476562 47.625 27.632812 45.191406 27.632812 C 43.453125 27.632812 42.289062 28.527344 41.609375 29.601562 L 41.363281 29.449219 C 42.085938 28.308594 43.339844 27.34375 45.191406 27.34375 C 47.78125 27.34375 49.792969 29.320312 49.792969 32.015625 Z M 26.417969 17.910156 L 26.417969 17.96875 C 26.375 17.984375 26.328125 18 26.28125 18.023438 C 26.074219 17.933594 25.8125 17.910156 25.449219 17.910156 Z M 26.417969 17.910156 " fill-opacity="1" fill-rule="nonzero"/></g></svg>