<svg xmlns="http://www.w3.org/2000/svg" xmlns:xlink="http://www.w3.org/1999/xlink" width="1080" zoomAndPan="magnify" viewBox="0 0 810 809.999993" height="1080" preserveAspectRatio="xMidYMid meet" version="1.0"><defs><clipPath id="3a48ce22fc"><path d="M 48.164062 180 L 296 180 L 296 630 L 48.164062 630 Z M 48.164062 180 " clip-rule="nonzero"/></clipPath><clipPath id="401b25a91e"><path d="M 82 147.183594 L 728 147.183594 L 728 455 L 82 455 Z M 82 147.183594 " clip-rule="nonzero"/></clipPath></defs><g clip-path="url(#3a48ce22fc)"><path fill="#67b3c6" d="M 295.519531 405.0625 L 65.011719 180.800781 C 54.621094 194.707031 48.457031 211.957031 48.457031 230.613281 L 48.457031 579.511719 C 48.457031 598.167969 54.621094 615.417969 65.011719 629.324219 L 295.519531 405.0625 " fill-opacity="1" fill-rule="nonzero"/></g><g clip-path="url(#401b25a91e)"><path fill="#67b3c6" d="M 363.976562 437.40625 C 386.980469 459.785156 423.019531 459.785156 446.023438 437.40625 L 727.558594 163.496094 C 713.722656 153.285156 696.640625 147.234375 678.160156 147.234375 L 131.839844 147.234375 C 113.359375 147.234375 96.277344 153.285156 82.441406 163.496094 L 363.976562 437.40625 " fill-opacity="1" fill-rule="nonzero"/></g><path fill="#67b3c6" d="M 744.984375 180.800781 L 514.480469 405.0625 L 744.984375 629.324219 C 755.378906 615.417969 761.542969 598.167969 761.542969 579.511719 L 761.542969 230.613281 C 761.542969 211.957031 755.378906 194.707031 744.984375 180.800781 " fill-opacity="1" fill-rule="nonzero"/><path fill="#67b3c6" d="M 496.871094 422.191406 L 463.144531 455.003906 C 447.492188 470.234375 426.84375 478.621094 405 478.621094 C 383.15625 478.621094 362.507812 470.234375 346.851562 455.003906 L 313.128906 422.191406 L 82.441406 646.628906 C 96.277344 656.839844 113.359375 662.890625 131.839844 662.890625 L 678.160156 662.890625 C 696.640625 662.890625 713.722656 656.839844 727.558594 646.628906 L 496.871094 422.191406 " fill-opacity="1" fill-rule="nonzero"/></svg>