<svg xmlns="http://www.w3.org/2000/svg" xmlns:xlink="http://www.w3.org/1999/xlink" width="70" zoomAndPan="magnify" viewBox="0 0 52.5 52.499999" height="70" preserveAspectRatio="xMidYMid meet" version="1.0"><defs><filter x="0%" y="0%" width="100%" height="100%" id="97e2014e0b"><feColorMatrix values="0 0 0 0 1 0 0 0 0 1 0 0 0 0 1 0 0 0 1 0" color-interpolation-filters="sRGB"/></filter><mask id="ac30ca15cf"><g filter="url(#97e2014e0b)"><rect x="-5.25" width="63" fill="#000000" y="-5.25" height="62.999999" fill-opacity="0.23"/></g></mask><clipPath id="73a1a058ae"><path d="M 0.839844 0.0351562 L 46.902344 0.0351562 L 46.902344 34 L 0.839844 34 Z M 0.839844 0.0351562 " clip-rule="nonzero"/></clipPath><clipPath id="b4a13db6f2"><rect x="0" width="48" y="0" height="35"/></clipPath><clipPath id="c4cfe983e7"><path d="M 1 17.390625 L 48.511719 17.390625 L 48.511719 43.390625 L 1 43.390625 Z M 1 17.390625 " clip-rule="nonzero"/></clipPath></defs><g mask="url(#ac30ca15cf)"><g transform="matrix(1, 0, 0, 1, 3, 9)"><g clip-path="url(#b4a13db6f2)"><path fill="#f8c8dc" d="M 7.363281 16.5 L 6.460938 14.945312 L 5.554688 16.5 L 6.460938 18.003906 Z M 7.363281 16.5 " fill-opacity="1" fill-rule="nonzero"/><path fill="#f8c8dc" d="M 17.597656 12.789062 L 16.742188 11.234375 L 15.839844 12.789062 L 16.742188 14.292969 Z M 17.597656 12.789062 " fill-opacity="1" fill-rule="nonzero"/><path fill="#f8c8dc" d="M 42.128906 16.5 L 41.226562 14.945312 L 40.320312 16.5 L 41.226562 18.003906 Z M 42.128906 16.5 " fill-opacity="1" fill-rule="nonzero"/><path fill="#f8c8dc" d="M 31.84375 12.789062 L 30.941406 11.234375 L 30.089844 12.789062 L 30.941406 14.292969 Z M 31.84375 12.789062 " fill-opacity="1" fill-rule="nonzero"/><g clip-path="url(#73a1a058ae)"><path fill="#f8c8dc" d="M 39.921875 22.921875 L 36.660156 12.136719 L 30.488281 20.210938 L 24.671875 8.675781 L 26.425781 5.164062 L 23.867188 0.046875 L 21.257812 5.164062 L 23.015625 8.675781 L 17.195312 20.164062 L 11.125 12.136719 L 7.863281 22.972656 L 0.839844 14.894531 L 5.65625 30.144531 L 5.707031 30.246094 L 5.707031 33.957031 L 41.976562 33.957031 L 41.976562 30.246094 L 42.078125 29.996094 L 46.84375 14.894531 Z M 40.273438 29.394531 L 36.308594 29.394531 L 39.269531 25.980469 Z M 36.058594 15.398438 L 38.765625 24.277344 L 34.855469 28.792969 L 31.292969 21.71875 Z M 33.449219 29.394531 L 25.421875 29.394531 L 30.238281 23.074219 Z M 22.914062 5.164062 L 23.816406 3.40625 L 24.71875 5.164062 L 23.816406 6.96875 Z M 23.867188 10.328125 L 29.484375 21.515625 L 23.867188 28.941406 L 18.25 21.46875 Z M 8.464844 26.03125 L 11.375 29.394531 L 7.460938 29.394531 Z M 22.3125 29.394531 L 14.234375 29.394531 L 17.445312 22.972656 Z M 11.726562 15.398438 L 16.441406 21.617188 L 12.878906 28.792969 L 9.019531 24.328125 Z M 4.453125 21.417969 L 7.3125 24.679688 L 6.410156 27.585938 Z M 40.472656 32.453125 L 7.210938 32.453125 L 7.210938 30.898438 L 40.472656 30.898438 Z M 41.273438 27.488281 L 40.421875 24.628906 L 43.230469 21.417969 Z M 41.273438 27.488281 " fill-opacity="1" fill-rule="nonzero"/></g></g></g></g><g clip-path="url(#c4cfe983e7)"><path fill="#f5a5b5" d="M 48.601562 32.015625 C 48.601562 34.832031 46.3125 37.058594 43.269531 37.058594 C 39.859375 37.058594 37.089844 33.40625 37.089844 28.902344 C 37.089844 28.832031 37.089844 28.765625 37.09375 28.699219 L 33.792969 38.3125 L 32.464844 38.425781 L 26.027344 19.625 C 25.976562 19.710938 25.921875 19.804688 25.867188 19.902344 L 21.445312 27.851562 L 25.925781 35.652344 C 26.96875 37.46875 27.339844 37.675781 28.523438 37.675781 L 28.929688 37.675781 L 28.929688 38.167969 L 23.757812 38.167969 L 23.757812 37.675781 L 24.304688 37.675781 C 25.289062 37.675781 25.722656 37.617188 25.722656 37.210938 C 25.722656 36.921875 25.519531 36.492188 25.113281 35.769531 L 21.011719 28.628906 L 17.15625 35.566406 C 13.746094 41.699219 11.089844 43.019531 6.984375 43.019531 C 5.558594 43.019531 4.414062 42.515625 3.519531 41.808594 C 2.140625 40.722656 1.015625 39.042969 1.015625 36.644531 C 1.015625 33.207031 3.460938 30.660156 6.527344 30.164062 L 6.574219 30.449219 C 3.636719 30.925781 1.304688 33.355469 1.304688 36.644531 C 1.304688 38.945312 2.371094 40.539062 3.695312 41.582031 C 4.46875 42.1875 5.585938 42.46875 6.371094 42.46875 C 9.886719 42.46875 12.566406 39.660156 15.394531 34.523438 L 19.625 26.839844 L 19.210938 26.164062 C 18.675781 25.425781 17.773438 24.820312 16.703125 24.820312 C 15.765625 24.820312 15.066406 25.375 15.066406 26.164062 C 15.066406 26.777344 15.546875 27.160156 16.015625 27.160156 C 16.335938 27.160156 16.59375 26.988281 16.734375 26.808594 L 16.964844 26.984375 C 16.777344 27.226562 16.441406 27.449219 16.015625 27.449219 C 15.394531 27.449219 14.777344 26.945312 14.777344 26.164062 C 14.777344 25.167969 15.664062 24.53125 16.703125 24.53125 C 17.414062 24.53125 18.066406 24.78125 18.585938 25.144531 L 15.378906 19.902344 C 14.25 18.113281 14.046875 17.679688 13.179688 17.679688 L 10.03125 17.679688 L 10.03125 17.390625 L 17.457031 17.390625 L 17.457031 17.910156 L 16.9375 17.910156 C 16.011719 17.910156 15.578125 17.996094 15.578125 18.398438 C 15.578125 18.691406 15.808594 19.152344 16.214844 19.816406 L 20.058594 26.058594 L 23.8125 19.296875 C 24.175781 18.652344 24.699219 18.214844 25.09375 18.023438 C 25.140625 18 25.1875 17.984375 25.230469 17.96875 L 25.230469 17.910156 L 23.726562 17.910156 L 23.726562 17.390625 L 29.316406 17.390625 L 29.316406 17.910156 L 28.0625 17.910156 C 27.761719 17.910156 27.523438 17.9375 27.289062 18.0625 C 27.597656 18.257812 27.84375 18.628906 27.988281 19.035156 L 33.390625 34.84375 C 33.59375 35.390625 33.621094 35.738281 33.621094 35.855469 L 33.621094 35.882812 L 33.851562 35.882812 L 33.851562 35.855469 C 33.851562 35.769531 33.882812 35.421875 34.140625 34.757812 L 39.488281 19.441406 C 39.605469 19.09375 39.683594 18.78125 39.683594 18.523438 C 39.683594 17.996094 39.347656 17.679688 38.273438 17.679688 L 34.257812 17.679688 L 34.257812 17.390625 L 42.523438 17.390625 L 42.523438 17.910156 L 41.945312 17.910156 C 40.902344 17.910156 40.714844 18.144531 40.265625 19.441406 L 37.585938 27.257812 C 37.445312 27.804688 37.378906 28.359375 37.378906 28.902344 C 37.378906 33.246094 40.019531 36.769531 43.269531 36.769531 C 46.167969 36.769531 48.3125 34.660156 48.3125 32.015625 C 48.3125 29.476562 46.4375 27.632812 44.003906 27.632812 C 42.261719 27.632812 41.101562 28.527344 40.417969 29.601562 L 40.175781 29.449219 C 40.898438 28.308594 42.152344 27.34375 44.003906 27.34375 C 46.59375 27.34375 48.601562 29.320312 48.601562 32.015625 Z M 25.230469 17.910156 L 25.230469 17.96875 C 25.1875 17.984375 25.140625 18 25.09375 18.023438 C 24.886719 17.933594 24.625 17.910156 24.257812 17.910156 Z M 25.230469 17.910156 " fill-opacity="1" fill-rule="nonzero"/></g></svg>