<svg xmlns="http://www.w3.org/2000/svg" xmlns:xlink="http://www.w3.org/1999/xlink" width="200" zoomAndPan="magnify" viewBox="0 0 150 30.000001" height="40" preserveAspectRatio="xMidYMid meet" version="1.0"><defs><g/><clipPath id="268f24189f"><path d="M 2.417969 1 L 147.578125 1 L 147.578125 27 L 2.417969 27 Z M 2.417969 1 " clip-rule="nonzero"/></clipPath><clipPath id="8f8e484b69"><rect x="0" width="146" y="0" height="26"/></clipPath></defs><g clip-path="url(#268f24189f)"><g transform="matrix(1, 0, 0, 1, 2, 1)"><g clip-path="url(#8f8e484b69)"><g fill="#c4a46a" fill-opacity="1"><g transform="translate(2.675017, 14.799741)"><g><path d="M 5.375 0.359375 C 5.46875 0.304688 5.554688 0.195312 5.640625 0.03125 C 5.734375 -0.132812 5.8125 -0.3125 5.875 -0.5 C 5.945312 -0.695312 6.003906 -0.851562 6.046875 -0.96875 C 6.328125 -1.6875 6.582031 -2.398438 6.8125 -3.109375 C 7.039062 -3.816406 7.300781 -4.539062 7.59375 -5.28125 C 7.632812 -5.40625 7.71875 -5.609375 7.84375 -5.890625 C 7.96875 -6.179688 8.113281 -6.507812 8.28125 -6.875 C 8.445312 -7.238281 8.628906 -7.609375 8.828125 -7.984375 C 9.023438 -8.367188 9.226562 -8.71875 9.4375 -9.03125 C 9.644531 -9.351562 9.847656 -9.613281 10.046875 -9.8125 C 10.253906 -10.019531 10.441406 -10.125 10.609375 -10.125 C 10.828125 -10.125 10.988281 -10.015625 11.09375 -9.796875 C 11.207031 -9.578125 11.269531 -9.300781 11.28125 -8.96875 C 11.300781 -8.632812 11.296875 -8.289062 11.265625 -7.9375 C 11.234375 -7.582031 11.195312 -7.265625 11.15625 -6.984375 C 11.113281 -6.703125 11.085938 -6.515625 11.078125 -6.421875 L 10.171875 -0.375 C 10.015625 0.707031 9.894531 1.765625 9.8125 2.796875 C 9.726562 3.828125 9.625 4.867188 9.5 5.921875 C 9.488281 6.179688 9.484375 6.46875 9.484375 6.78125 C 9.484375 7.09375 9.484375 7.382812 9.484375 7.65625 C 9.484375 7.789062 9.457031 7.890625 9.40625 7.953125 C 9.363281 8.015625 9.316406 8.046875 9.265625 8.046875 C 9.210938 8.046875 9.160156 8.007812 9.109375 7.9375 C 9.054688 7.875 9.023438 7.78125 9.015625 7.65625 C 9.003906 7.53125 9 7.4375 9 7.375 C 9 7.3125 8.992188 7.238281 8.984375 7.15625 L 9.421875 0.625 C 9.492188 0.0078125 9.5625 -0.554688 9.625 -1.078125 C 9.6875 -1.597656 9.753906 -2.125 9.828125 -2.65625 C 9.898438 -3.1875 9.992188 -3.773438 10.109375 -4.421875 C 10.140625 -4.585938 10.179688 -4.84375 10.234375 -5.1875 C 10.296875 -5.539062 10.359375 -5.9375 10.421875 -6.375 C 10.492188 -6.8125 10.554688 -7.25 10.609375 -7.6875 C 10.660156 -8.125 10.6875 -8.515625 10.6875 -8.859375 C 10.695312 -9.203125 10.671875 -9.445312 10.609375 -9.59375 C 10.421875 -9.5 10.242188 -9.34375 10.078125 -9.125 C 9.921875 -8.914062 9.789062 -8.71875 9.6875 -8.53125 C 9.488281 -8.207031 9.316406 -7.910156 9.171875 -7.640625 C 9.035156 -7.367188 8.898438 -7.097656 8.765625 -6.828125 C 8.640625 -6.554688 8.5 -6.242188 8.34375 -5.890625 C 8.101562 -5.359375 7.910156 -4.867188 7.765625 -4.421875 C 7.617188 -3.984375 7.445312 -3.523438 7.25 -3.046875 C 7.207031 -2.921875 7.140625 -2.703125 7.046875 -2.390625 C 6.953125 -2.085938 6.835938 -1.742188 6.703125 -1.359375 C 6.578125 -0.984375 6.441406 -0.625 6.296875 -0.28125 C 6.148438 0.0585938 6 0.347656 5.84375 0.578125 C 5.6875 0.804688 5.53125 0.921875 5.375 0.921875 C 5.21875 0.921875 5.097656 0.832031 5.015625 0.65625 C 4.929688 0.488281 4.867188 0.28125 4.828125 0.03125 C 4.796875 -0.21875 4.78125 -0.46875 4.78125 -0.71875 C 4.78125 -0.976562 4.785156 -1.1875 4.796875 -1.34375 L 5.015625 -4.265625 C 5.015625 -4.328125 5.007812 -4.394531 5 -4.46875 C 4.988281 -4.539062 4.984375 -4.628906 4.984375 -4.734375 C 4.898438 -4.710938 4.847656 -4.6875 4.828125 -4.65625 C 4.804688 -4.632812 4.769531 -4.585938 4.71875 -4.515625 C 4.519531 -4.242188 4.328125 -3.910156 4.140625 -3.515625 C 3.960938 -3.117188 3.796875 -2.695312 3.640625 -2.25 C 3.484375 -1.8125 3.347656 -1.382812 3.234375 -0.96875 C 3.117188 -0.550781 3.019531 -0.183594 2.9375 0.125 C 2.820312 0.582031 2.707031 1.046875 2.59375 1.515625 C 2.476562 1.992188 2.359375 2.445312 2.234375 2.875 C 2.160156 3.207031 2.066406 3.535156 1.953125 3.859375 C 1.847656 4.179688 1.726562 4.503906 1.59375 4.828125 C 1.519531 4.941406 1.453125 5.03125 1.390625 5.09375 C 1.328125 5.164062 1.222656 5.203125 1.078125 5.203125 C 0.910156 5.203125 0.769531 5.078125 0.65625 4.828125 C 0.539062 4.578125 0.445312 4.257812 0.375 3.875 C 0.3125 3.488281 0.257812 3.082031 0.21875 2.65625 C 0.1875 2.226562 0.164062 1.832031 0.15625 1.46875 C 0.144531 1.101562 0.140625 0.828125 0.140625 0.640625 L 0.296875 -2.3125 C 0.335938 -2.769531 0.390625 -3.222656 0.453125 -3.671875 C 0.515625 -4.128906 0.578125 -4.582031 0.640625 -5.03125 C 0.648438 -5.082031 0.675781 -5.226562 0.71875 -5.46875 C 0.757812 -5.71875 0.816406 -6.023438 0.890625 -6.390625 C 0.960938 -6.753906 1.039062 -7.128906 1.125 -7.515625 C 1.207031 -7.910156 1.296875 -8.28125 1.390625 -8.625 C 1.492188 -8.976562 1.597656 -9.257812 1.703125 -9.46875 C 1.804688 -9.6875 1.90625 -9.796875 2 -9.796875 C 2.132812 -9.796875 2.207031 -9.742188 2.21875 -9.640625 C 2.238281 -9.546875 2.226562 -9.429688 2.1875 -9.296875 C 2.15625 -9.171875 2.125 -9.0625 2.09375 -8.96875 C 1.9375 -8.40625 1.804688 -7.894531 1.703125 -7.4375 C 1.609375 -6.988281 1.519531 -6.53125 1.4375 -6.0625 C 1.351562 -5.601562 1.269531 -5.078125 1.1875 -4.484375 C 1.101562 -3.953125 1.023438 -3.328125 0.953125 -2.609375 C 0.890625 -1.898438 0.835938 -1.15625 0.796875 -0.375 C 0.753906 0.402344 0.742188 1.164062 0.765625 1.90625 C 0.785156 2.65625 0.84375 3.328125 0.9375 3.921875 L 1.078125 4.640625 C 1.160156 4.617188 1.207031 4.582031 1.21875 4.53125 C 1.238281 4.488281 1.269531 4.429688 1.3125 4.359375 L 1.671875 3.3125 C 1.890625 2.507812 2.101562 1.675781 2.3125 0.8125 C 2.53125 -0.0390625 2.769531 -0.878906 3.03125 -1.703125 C 3.289062 -2.523438 3.59375 -3.289062 3.9375 -4 C 4.03125 -4.175781 4.140625 -4.382812 4.265625 -4.625 C 4.398438 -4.863281 4.546875 -5.035156 4.703125 -5.140625 C 4.796875 -5.191406 4.894531 -5.21875 5 -5.21875 C 5.164062 -5.21875 5.28125 -5.148438 5.34375 -5.015625 C 5.414062 -4.878906 5.457031 -4.628906 5.46875 -4.265625 C 5.476562 -3.910156 5.46875 -3.507812 5.4375 -3.0625 C 5.40625 -2.613281 5.375 -2.175781 5.34375 -1.75 C 5.320312 -1.332031 5.3125 -1 5.3125 -0.75 C 5.3125 -0.457031 5.320312 -0.238281 5.34375 -0.09375 C 5.363281 0.0507812 5.375 0.203125 5.375 0.359375 Z M 5.375 0.359375 "/></g></g></g><g fill="#c4a46a" fill-opacity="1"><g transform="translate(13.857139, 14.799741)"><g><path d="M 0 -1.484375 C 0 -1.679688 0.046875 -1.929688 0.140625 -2.234375 C 0.242188 -2.535156 0.378906 -2.832031 0.546875 -3.125 C 0.722656 -3.425781 0.925781 -3.675781 1.15625 -3.875 C 1.382812 -4.070312 1.628906 -4.171875 1.890625 -4.171875 C 2.117188 -4.171875 2.304688 -4.101562 2.453125 -3.96875 C 2.597656 -3.832031 2.6875 -3.691406 2.71875 -3.546875 C 2.75 -3.398438 2.703125 -3.328125 2.578125 -3.328125 C 2.472656 -3.328125 2.367188 -3.382812 2.265625 -3.5 C 2.171875 -3.613281 2.054688 -3.671875 1.921875 -3.671875 C 1.804688 -3.671875 1.671875 -3.609375 1.515625 -3.484375 C 1.367188 -3.359375 1.191406 -3.109375 0.984375 -2.734375 C 0.878906 -2.578125 0.785156 -2.375 0.703125 -2.125 C 0.617188 -1.875 0.578125 -1.628906 0.578125 -1.390625 C 0.597656 -1.410156 0.601562 -1.414062 0.59375 -1.40625 C 0.59375 -1.40625 0.613281 -1.425781 0.65625 -1.46875 L 0.78125 -1.640625 C 0.851562 -1.753906 0.941406 -1.90625 1.046875 -2.09375 C 1.148438 -2.28125 1.253906 -2.46875 1.359375 -2.65625 C 1.460938 -2.84375 1.554688 -3 1.640625 -3.125 C 1.734375 -3.257812 1.804688 -3.328125 1.859375 -3.328125 C 2.035156 -3.328125 2.132812 -3.265625 2.15625 -3.140625 C 2.1875 -3.015625 2.195312 -2.859375 2.1875 -2.671875 C 2.1875 -2.492188 2.207031 -2.3125 2.25 -2.125 C 2.3125 -1.851562 2.398438 -1.65625 2.515625 -1.53125 C 2.640625 -1.414062 2.78125 -1.359375 2.9375 -1.359375 C 3.207031 -1.359375 3.507812 -1.523438 3.84375 -1.859375 C 3.976562 -1.984375 4.078125 -2.085938 4.140625 -2.171875 C 4.203125 -2.253906 4.28125 -2.347656 4.375 -2.453125 C 4.4375 -2.554688 4.523438 -2.609375 4.640625 -2.609375 C 4.742188 -2.609375 4.785156 -2.515625 4.765625 -2.328125 C 4.753906 -2.148438 4.566406 -1.878906 4.203125 -1.515625 L 3.765625 -1.171875 C 3.472656 -0.972656 3.195312 -0.875 2.9375 -0.875 C 2.695312 -0.875 2.484375 -0.945312 2.296875 -1.09375 C 2.117188 -1.238281 1.976562 -1.414062 1.875 -1.625 C 1.78125 -1.84375 1.734375 -2.054688 1.734375 -2.265625 C 1.671875 -2.210938 1.59375 -2.101562 1.5 -1.9375 C 1.414062 -1.78125 1.320312 -1.601562 1.21875 -1.40625 C 1.113281 -1.21875 1.007812 -1.050781 0.90625 -0.90625 C 0.800781 -0.769531 0.691406 -0.703125 0.578125 -0.703125 C 0.304688 -0.703125 0.140625 -0.765625 0.078125 -0.890625 C 0.0234375 -1.015625 0 -1.210938 0 -1.484375 Z M 0 -1.484375 "/></g></g></g><g fill="#c4a46a" fill-opacity="1"><g transform="translate(18.096113, 14.799741)"><g><path d="M 0.203125 -0.0625 C 0.109375 -0.0625 0.0507812 -0.117188 0.03125 -0.234375 C 0.0078125 -0.359375 0.00390625 -0.488281 0.015625 -0.625 C 0.0234375 -0.757812 0.03125 -0.84375 0.03125 -0.875 C 0.0195312 -1.050781 0.015625 -1.226562 0.015625 -1.40625 C 0.0234375 -1.59375 0.0234375 -1.773438 0.015625 -1.953125 C 0.015625 -2.023438 0.015625 -2.15625 0.015625 -2.34375 C 0.0234375 -2.53125 0.0390625 -2.734375 0.0625 -2.953125 C 0.09375 -3.171875 0.128906 -3.359375 0.171875 -3.515625 C 0.222656 -3.671875 0.285156 -3.75 0.359375 -3.75 C 0.554688 -3.75 0.65625 -3.679688 0.65625 -3.546875 C 0.664062 -3.421875 0.660156 -3.257812 0.640625 -3.0625 C 0.628906 -2.988281 0.625 -2.910156 0.625 -2.828125 C 0.625 -2.742188 0.625 -2.664062 0.625 -2.59375 C 0.625 -2.488281 0.617188 -2.421875 0.609375 -2.390625 C 0.597656 -2.367188 0.59375 -2.304688 0.59375 -2.203125 C 0.707031 -2.285156 0.804688 -2.375 0.890625 -2.46875 C 0.984375 -2.570312 1.140625 -2.625 1.359375 -2.625 C 1.429688 -2.625 1.519531 -2.625 1.625 -2.625 C 1.738281 -2.632812 1.859375 -2.640625 1.984375 -2.640625 C 2.203125 -2.640625 2.398438 -2.628906 2.578125 -2.609375 C 2.765625 -2.585938 2.859375 -2.523438 2.859375 -2.421875 C 2.859375 -2.328125 2.804688 -2.265625 2.703125 -2.234375 C 2.609375 -2.203125 2.488281 -2.1875 2.34375 -2.1875 C 2.238281 -2.1875 2.132812 -2.1875 2.03125 -2.1875 C 1.9375 -2.195312 1.847656 -2.203125 1.765625 -2.203125 C 1.492188 -2.203125 1.3125 -2.1875 1.21875 -2.15625 C 1.125 -2.132812 1.019531 -2.023438 0.90625 -1.828125 C 0.832031 -1.703125 0.765625 -1.566406 0.703125 -1.421875 C 0.640625 -1.273438 0.597656 -1.113281 0.578125 -0.9375 C 0.546875 -0.8125 0.53125 -0.679688 0.53125 -0.546875 C 0.539062 -0.410156 0.523438 -0.296875 0.484375 -0.203125 C 0.453125 -0.109375 0.359375 -0.0625 0.203125 -0.0625 Z M 0.203125 -0.0625 "/></g></g></g><g fill="#c4a46a" fill-opacity="1"><g transform="translate(20.478711, 14.799741)"><g><path d="M 1.21875 0.0625 C 1.019531 0.0625 0.84375 0 0.6875 -0.125 C 0.539062 -0.257812 0.425781 -0.394531 0.34375 -0.53125 C 0.175781 -0.863281 0.078125 -1.253906 0.046875 -1.703125 C 0.0234375 -2.160156 0.0507812 -2.570312 0.125 -2.9375 C 0.144531 -3.039062 0.171875 -3.164062 0.203125 -3.3125 C 0.242188 -3.46875 0.296875 -3.601562 0.359375 -3.71875 C 0.429688 -3.84375 0.515625 -3.90625 0.609375 -3.90625 C 0.835938 -3.90625 0.945312 -3.828125 0.9375 -3.671875 C 0.9375 -3.523438 0.894531 -3.289062 0.8125 -2.96875 C 0.738281 -2.65625 0.703125 -2.25 0.703125 -1.75 C 0.703125 -1.601562 0.71875 -1.425781 0.75 -1.21875 C 0.789062 -1.019531 0.851562 -0.84375 0.9375 -0.6875 C 1.019531 -0.53125 1.125 -0.453125 1.25 -0.453125 C 1.40625 -0.453125 1.582031 -0.519531 1.78125 -0.65625 C 1.988281 -0.789062 2.175781 -0.941406 2.34375 -1.109375 C 2.519531 -1.285156 2.640625 -1.414062 2.703125 -1.5 C 2.722656 -1.519531 2.773438 -1.585938 2.859375 -1.703125 C 2.953125 -1.816406 3.054688 -1.941406 3.171875 -2.078125 C 3.296875 -2.222656 3.414062 -2.347656 3.53125 -2.453125 C 3.65625 -2.566406 3.75 -2.625 3.8125 -2.625 C 3.882812 -2.625 3.921875 -2.5625 3.921875 -2.4375 C 3.921875 -2.375 3.875 -2.269531 3.78125 -2.125 C 3.6875 -1.988281 3.578125 -1.84375 3.453125 -1.6875 C 3.328125 -1.53125 3.203125 -1.378906 3.078125 -1.234375 C 2.953125 -1.097656 2.863281 -1.003906 2.8125 -0.953125 C 2.6875 -0.835938 2.546875 -0.695312 2.390625 -0.53125 C 2.234375 -0.375 2.054688 -0.234375 1.859375 -0.109375 C 1.660156 0.00390625 1.445312 0.0625 1.21875 0.0625 Z M 1.71875 -5.859375 C 1.71875 -5.921875 1.691406 -5.984375 1.640625 -6.046875 C 1.597656 -6.109375 1.546875 -6.140625 1.484375 -6.140625 C 1.335938 -6.140625 1.210938 -6.078125 1.109375 -5.953125 C 1.015625 -5.828125 0.925781 -5.675781 0.84375 -5.5 C 0.769531 -5.332031 0.679688 -5.179688 0.578125 -5.046875 C 0.535156 -4.972656 0.476562 -4.867188 0.40625 -4.734375 C 0.34375 -4.609375 0.359375 -4.5 0.453125 -4.40625 C 0.503906 -4.351562 0.5625 -4.328125 0.625 -4.328125 C 0.71875 -4.328125 0.796875 -4.363281 0.859375 -4.4375 C 0.921875 -4.519531 0.972656 -4.582031 1.015625 -4.625 C 1.085938 -4.71875 1.179688 -4.835938 1.296875 -4.984375 C 1.410156 -5.128906 1.507812 -5.28125 1.59375 -5.4375 C 1.675781 -5.601562 1.71875 -5.742188 1.71875 -5.859375 Z M 1.71875 -5.859375 "/></g></g></g><g fill="#c4a46a" fill-opacity="1"><g transform="translate(23.811418, 14.799741)"><g><path d="M 0 -1.484375 C 0 -1.679688 0.046875 -1.929688 0.140625 -2.234375 C 0.242188 -2.535156 0.378906 -2.832031 0.546875 -3.125 C 0.722656 -3.425781 0.925781 -3.675781 1.15625 -3.875 C 1.382812 -4.070312 1.628906 -4.171875 1.890625 -4.171875 C 2.117188 -4.171875 2.304688 -4.101562 2.453125 -3.96875 C 2.597656 -3.832031 2.6875 -3.691406 2.71875 -3.546875 C 2.75 -3.398438 2.703125 -3.328125 2.578125 -3.328125 C 2.472656 -3.328125 2.367188 -3.382812 2.265625 -3.5 C 2.171875 -3.613281 2.054688 -3.671875 1.921875 -3.671875 C 1.804688 -3.671875 1.671875 -3.609375 1.515625 -3.484375 C 1.367188 -3.359375 1.191406 -3.109375 0.984375 -2.734375 C 0.878906 -2.578125 0.785156 -2.375 0.703125 -2.125 C 0.617188 -1.875 0.578125 -1.628906 0.578125 -1.390625 C 0.597656 -1.410156 0.601562 -1.414062 0.59375 -1.40625 C 0.59375 -1.40625 0.613281 -1.425781 0.65625 -1.46875 L 0.78125 -1.640625 C 0.851562 -1.753906 0.941406 -1.90625 1.046875 -2.09375 C 1.148438 -2.28125 1.253906 -2.46875 1.359375 -2.65625 C 1.460938 -2.84375 1.554688 -3 1.640625 -3.125 C 1.734375 -3.257812 1.804688 -3.328125 1.859375 -3.328125 C 2.035156 -3.328125 2.132812 -3.265625 2.15625 -3.140625 C 2.1875 -3.015625 2.195312 -2.859375 2.1875 -2.671875 C 2.1875 -2.492188 2.207031 -2.3125 2.25 -2.125 C 2.3125 -1.851562 2.398438 -1.65625 2.515625 -1.53125 C 2.640625 -1.414062 2.78125 -1.359375 2.9375 -1.359375 C 3.207031 -1.359375 3.507812 -1.523438 3.84375 -1.859375 C 3.976562 -1.984375 4.078125 -2.085938 4.140625 -2.171875 C 4.203125 -2.253906 4.28125 -2.347656 4.375 -2.453125 C 4.4375 -2.554688 4.523438 -2.609375 4.640625 -2.609375 C 4.742188 -2.609375 4.785156 -2.515625 4.765625 -2.328125 C 4.753906 -2.148438 4.566406 -1.878906 4.203125 -1.515625 L 3.765625 -1.171875 C 3.472656 -0.972656 3.195312 -0.875 2.9375 -0.875 C 2.695312 -0.875 2.484375 -0.945312 2.296875 -1.09375 C 2.117188 -1.238281 1.976562 -1.414062 1.875 -1.625 C 1.78125 -1.84375 1.734375 -2.054688 1.734375 -2.265625 C 1.671875 -2.210938 1.59375 -2.101562 1.5 -1.9375 C 1.414062 -1.78125 1.320312 -1.601562 1.21875 -1.40625 C 1.113281 -1.21875 1.007812 -1.050781 0.90625 -0.90625 C 0.800781 -0.769531 0.691406 -0.703125 0.578125 -0.703125 C 0.304688 -0.703125 0.140625 -0.765625 0.078125 -0.890625 C 0.0234375 -1.015625 0 -1.210938 0 -1.484375 Z M 0 -1.484375 "/></g></g></g><g fill="#c4a46a" fill-opacity="1"><g transform="translate(28.050392, 14.799741)"><g/></g></g><g fill="#c4a46a" fill-opacity="1"><g transform="translate(31.836232, 14.799741)"><g><path d="M 5.375 0.359375 C 5.46875 0.304688 5.554688 0.195312 5.640625 0.03125 C 5.734375 -0.132812 5.8125 -0.3125 5.875 -0.5 C 5.945312 -0.695312 6.003906 -0.851562 6.046875 -0.96875 C 6.328125 -1.6875 6.582031 -2.398438 6.8125 -3.109375 C 7.039062 -3.816406 7.300781 -4.539062 7.59375 -5.28125 C 7.632812 -5.40625 7.71875 -5.609375 7.84375 -5.890625 C 7.96875 -6.179688 8.113281 -6.507812 8.28125 -6.875 C 8.445312 -7.238281 8.628906 -7.609375 8.828125 -7.984375 C 9.023438 -8.367188 9.226562 -8.71875 9.4375 -9.03125 C 9.644531 -9.351562 9.847656 -9.613281 10.046875 -9.8125 C 10.253906 -10.019531 10.441406 -10.125 10.609375 -10.125 C 10.828125 -10.125 10.988281 -10.015625 11.09375 -9.796875 C 11.207031 -9.578125 11.269531 -9.300781 11.28125 -8.96875 C 11.300781 -8.632812 11.296875 -8.289062 11.265625 -7.9375 C 11.234375 -7.582031 11.195312 -7.265625 11.15625 -6.984375 C 11.113281 -6.703125 11.085938 -6.515625 11.078125 -6.421875 L 10.171875 -0.375 C 10.015625 0.707031 9.894531 1.765625 9.8125 2.796875 C 9.726562 3.828125 9.625 4.867188 9.5 5.921875 C 9.488281 6.179688 9.484375 6.46875 9.484375 6.78125 C 9.484375 7.09375 9.484375 7.382812 9.484375 7.65625 C 9.484375 7.789062 9.457031 7.890625 9.40625 7.953125 C 9.363281 8.015625 9.316406 8.046875 9.265625 8.046875 C 9.210938 8.046875 9.160156 8.007812 9.109375 7.9375 C 9.054688 7.875 9.023438 7.78125 9.015625 7.65625 C 9.003906 7.53125 9 7.4375 9 7.375 C 9 7.3125 8.992188 7.238281 8.984375 7.15625 L 9.421875 0.625 C 9.492188 0.0078125 9.5625 -0.554688 9.625 -1.078125 C 9.6875 -1.597656 9.753906 -2.125 9.828125 -2.65625 C 9.898438 -3.1875 9.992188 -3.773438 10.109375 -4.421875 C 10.140625 -4.585938 10.179688 -4.84375 10.234375 -5.1875 C 10.296875 -5.539062 10.359375 -5.9375 10.421875 -6.375 C 10.492188 -6.8125 10.554688 -7.25 10.609375 -7.6875 C 10.660156 -8.125 10.6875 -8.515625 10.6875 -8.859375 C 10.695312 -9.203125 10.671875 -9.445312 10.609375 -9.59375 C 10.421875 -9.5 10.242188 -9.34375 10.078125 -9.125 C 9.921875 -8.914062 9.789062 -8.71875 9.6875 -8.53125 C 9.488281 -8.207031 9.316406 -7.910156 9.171875 -7.640625 C 9.035156 -7.367188 8.898438 -7.097656 8.765625 -6.828125 C 8.640625 -6.554688 8.5 -6.242188 8.34375 -5.890625 C 8.101562 -5.359375 7.910156 -4.867188 7.765625 -4.421875 C 7.617188 -3.984375 7.445312 -3.523438 7.25 -3.046875 C 7.207031 -2.921875 7.140625 -2.703125 7.046875 -2.390625 C 6.953125 -2.085938 6.835938 -1.742188 6.703125 -1.359375 C 6.578125 -0.984375 6.441406 -0.625 6.296875 -0.28125 C 6.148438 0.0585938 6 0.347656 5.84375 0.578125 C 5.6875 0.804688 5.53125 0.921875 5.375 0.921875 C 5.21875 0.921875 5.097656 0.832031 5.015625 0.65625 C 4.929688 0.488281 4.867188 0.28125 4.828125 0.03125 C 4.796875 -0.21875 4.78125 -0.46875 4.78125 -0.71875 C 4.78125 -0.976562 4.785156 -1.1875 4.796875 -1.34375 L 5.015625 -4.265625 C 5.015625 -4.328125 5.007812 -4.394531 5 -4.46875 C 4.988281 -4.539062 4.984375 -4.628906 4.984375 -4.734375 C 4.898438 -4.710938 4.847656 -4.6875 4.828125 -4.65625 C 4.804688 -4.632812 4.769531 -4.585938 4.71875 -4.515625 C 4.519531 -4.242188 4.328125 -3.910156 4.140625 -3.515625 C 3.960938 -3.117188 3.796875 -2.695312 3.640625 -2.25 C 3.484375 -1.8125 3.347656 -1.382812 3.234375 -0.96875 C 3.117188 -0.550781 3.019531 -0.183594 2.9375 0.125 C 2.820312 0.582031 2.707031 1.046875 2.59375 1.515625 C 2.476562 1.992188 2.359375 2.445312 2.234375 2.875 C 2.160156 3.207031 2.066406 3.535156 1.953125 3.859375 C 1.847656 4.179688 1.726562 4.503906 1.59375 4.828125 C 1.519531 4.941406 1.453125 5.03125 1.390625 5.09375 C 1.328125 5.164062 1.222656 5.203125 1.078125 5.203125 C 0.910156 5.203125 0.769531 5.078125 0.65625 4.828125 C 0.539062 4.578125 0.445312 4.257812 0.375 3.875 C 0.3125 3.488281 0.257812 3.082031 0.21875 2.65625 C 0.1875 2.226562 0.164062 1.832031 0.15625 1.46875 C 0.144531 1.101562 0.140625 0.828125 0.140625 0.640625 L 0.296875 -2.3125 C 0.335938 -2.769531 0.390625 -3.222656 0.453125 -3.671875 C 0.515625 -4.128906 0.578125 -4.582031 0.640625 -5.03125 C 0.648438 -5.082031 0.675781 -5.226562 0.71875 -5.46875 C 0.757812 -5.71875 0.816406 -6.023438 0.890625 -6.390625 C 0.960938 -6.753906 1.039062 -7.128906 1.125 -7.515625 C 1.207031 -7.910156 1.296875 -8.28125 1.390625 -8.625 C 1.492188 -8.976562 1.597656 -9.257812 1.703125 -9.46875 C 1.804688 -9.6875 1.90625 -9.796875 2 -9.796875 C 2.132812 -9.796875 2.207031 -9.742188 2.21875 -9.640625 C 2.238281 -9.546875 2.226562 -9.429688 2.1875 -9.296875 C 2.15625 -9.171875 2.125 -9.0625 2.09375 -8.96875 C 1.9375 -8.40625 1.804688 -7.894531 1.703125 -7.4375 C 1.609375 -6.988281 1.519531 -6.53125 1.4375 -6.0625 C 1.351562 -5.601562 1.269531 -5.078125 1.1875 -4.484375 C 1.101562 -3.953125 1.023438 -3.328125 0.953125 -2.609375 C 0.890625 -1.898438 0.835938 -1.15625 0.796875 -0.375 C 0.753906 0.402344 0.742188 1.164062 0.765625 1.90625 C 0.785156 2.65625 0.84375 3.328125 0.9375 3.921875 L 1.078125 4.640625 C 1.160156 4.617188 1.207031 4.582031 1.21875 4.53125 C 1.238281 4.488281 1.269531 4.429688 1.3125 4.359375 L 1.671875 3.3125 C 1.890625 2.507812 2.101562 1.675781 2.3125 0.8125 C 2.53125 -0.0390625 2.769531 -0.878906 3.03125 -1.703125 C 3.289062 -2.523438 3.59375 -3.289062 3.9375 -4 C 4.03125 -4.175781 4.140625 -4.382812 4.265625 -4.625 C 4.398438 -4.863281 4.546875 -5.035156 4.703125 -5.140625 C 4.796875 -5.191406 4.894531 -5.21875 5 -5.21875 C 5.164062 -5.21875 5.28125 -5.148438 5.34375 -5.015625 C 5.414062 -4.878906 5.457031 -4.628906 5.46875 -4.265625 C 5.476562 -3.910156 5.46875 -3.507812 5.4375 -3.0625 C 5.40625 -2.613281 5.375 -2.175781 5.34375 -1.75 C 5.320312 -1.332031 5.3125 -1 5.3125 -0.75 C 5.3125 -0.457031 5.320312 -0.238281 5.34375 -0.09375 C 5.363281 0.0507812 5.375 0.203125 5.375 0.359375 Z M 5.375 0.359375 "/></g></g></g><g fill="#c4a46a" fill-opacity="1"><g transform="translate(43.018354, 14.799741)"><g><path d="M 0.671875 -2.640625 C 0.859375 -2.742188 1.0625 -2.878906 1.28125 -3.046875 C 1.507812 -3.222656 1.632812 -3.425781 1.65625 -3.65625 C 1.53125 -3.632812 1.394531 -3.566406 1.25 -3.453125 C 1.101562 -3.335938 0.976562 -3.207031 0.875 -3.0625 C 0.78125 -2.914062 0.710938 -2.773438 0.671875 -2.640625 Z M 0.015625 -2.296875 C 0.015625 -2.535156 0.09375 -2.796875 0.25 -3.078125 C 0.414062 -3.367188 0.617188 -3.613281 0.859375 -3.8125 C 1.097656 -4.007812 1.332031 -4.109375 1.5625 -4.109375 C 1.882812 -4.109375 2.050781 -3.984375 2.0625 -3.734375 C 2.082031 -3.492188 1.976562 -3.234375 1.75 -2.953125 C 1.632812 -2.828125 1.457031 -2.679688 1.21875 -2.515625 C 0.988281 -2.347656 0.765625 -2.253906 0.546875 -2.234375 C 0.546875 -2.078125 0.550781 -1.9375 0.5625 -1.8125 C 0.570312 -1.695312 0.640625 -1.578125 0.765625 -1.453125 C 0.890625 -1.316406 1.050781 -1.25 1.25 -1.25 C 1.5 -1.25 1.757812 -1.328125 2.03125 -1.484375 C 2.300781 -1.648438 2.507812 -1.789062 2.65625 -1.90625 C 2.71875 -1.945312 2.765625 -1.984375 2.796875 -2.015625 C 2.835938 -2.046875 2.878906 -2.082031 2.921875 -2.125 C 3.128906 -2.28125 3.257812 -2.394531 3.3125 -2.46875 C 3.363281 -2.539062 3.410156 -2.585938 3.453125 -2.609375 C 3.492188 -2.628906 3.585938 -2.640625 3.734375 -2.640625 C 3.753906 -2.535156 3.757812 -2.460938 3.75 -2.421875 C 3.75 -2.390625 3.710938 -2.332031 3.640625 -2.25 C 3.460938 -2.070312 3.238281 -1.867188 2.96875 -1.640625 C 2.707031 -1.421875 2.421875 -1.226562 2.109375 -1.0625 C 1.804688 -0.894531 1.503906 -0.8125 1.203125 -0.8125 C 1.046875 -0.8125 0.894531 -0.835938 0.75 -0.890625 C 0.613281 -0.953125 0.476562 -1.046875 0.34375 -1.171875 C 0.175781 -1.347656 0.078125 -1.523438 0.046875 -1.703125 C 0.0234375 -1.890625 0.015625 -2.085938 0.015625 -2.296875 Z M 0.015625 -2.296875 "/></g></g></g><g fill="#c4a46a" fill-opacity="1"><g transform="translate(46.190273, 14.799741)"><g><path d="M 0.203125 -0.0625 C 0.109375 -0.0625 0.0507812 -0.117188 0.03125 -0.234375 C 0.0078125 -0.359375 0.00390625 -0.488281 0.015625 -0.625 C 0.0234375 -0.757812 0.03125 -0.84375 0.03125 -0.875 C 0.0195312 -1.050781 0.015625 -1.226562 0.015625 -1.40625 C 0.0234375 -1.59375 0.0234375 -1.773438 0.015625 -1.953125 C 0.015625 -2.023438 0.015625 -2.15625 0.015625 -2.34375 C 0.0234375 -2.53125 0.0390625 -2.734375 0.0625 -2.953125 C 0.09375 -3.171875 0.128906 -3.359375 0.171875 -3.515625 C 0.222656 -3.671875 0.285156 -3.75 0.359375 -3.75 C 0.554688 -3.75 0.65625 -3.679688 0.65625 -3.546875 C 0.664062 -3.421875 0.660156 -3.257812 0.640625 -3.0625 C 0.628906 -2.988281 0.625 -2.910156 0.625 -2.828125 C 0.625 -2.742188 0.625 -2.664062 0.625 -2.59375 C 0.625 -2.488281 0.617188 -2.421875 0.609375 -2.390625 C 0.597656 -2.367188 0.59375 -2.304688 0.59375 -2.203125 C 0.707031 -2.285156 0.804688 -2.375 0.890625 -2.46875 C 0.984375 -2.570312 1.140625 -2.625 1.359375 -2.625 C 1.429688 -2.625 1.519531 -2.625 1.625 -2.625 C 1.738281 -2.632812 1.859375 -2.640625 1.984375 -2.640625 C 2.203125 -2.640625 2.398438 -2.628906 2.578125 -2.609375 C 2.765625 -2.585938 2.859375 -2.523438 2.859375 -2.421875 C 2.859375 -2.328125 2.804688 -2.265625 2.703125 -2.234375 C 2.609375 -2.203125 2.488281 -2.1875 2.34375 -2.1875 C 2.238281 -2.1875 2.132812 -2.1875 2.03125 -2.1875 C 1.9375 -2.195312 1.847656 -2.203125 1.765625 -2.203125 C 1.492188 -2.203125 1.3125 -2.1875 1.21875 -2.15625 C 1.125 -2.132812 1.019531 -2.023438 0.90625 -1.828125 C 0.832031 -1.703125 0.765625 -1.566406 0.703125 -1.421875 C 0.640625 -1.273438 0.597656 -1.113281 0.578125 -0.9375 C 0.546875 -0.8125 0.53125 -0.679688 0.53125 -0.546875 C 0.539062 -0.410156 0.523438 -0.296875 0.484375 -0.203125 C 0.453125 -0.109375 0.359375 -0.0625 0.203125 -0.0625 Z M 0.203125 -0.0625 "/></g></g></g><g fill="#c4a46a" fill-opacity="1"><g transform="translate(48.572871, 14.799741)"><g><path d="M 0 -2 C 0 -2.175781 0.0351562 -2.378906 0.109375 -2.609375 C 0.179688 -2.847656 0.28125 -3.078125 0.40625 -3.296875 C 0.539062 -3.523438 0.695312 -3.710938 0.875 -3.859375 C 1.0625 -4.015625 1.265625 -4.09375 1.484375 -4.09375 C 1.785156 -4.09375 1.9375 -3.898438 1.9375 -3.515625 C 1.9375 -3.253906 1.875 -3.125 1.75 -3.125 C 1.601562 -3.125 1.515625 -3.253906 1.484375 -3.515625 C 1.328125 -3.390625 1.171875 -3.1875 1.015625 -2.90625 C 0.867188 -2.625 0.769531 -2.320312 0.71875 -2 C 0.664062 -1.675781 0.695312 -1.394531 0.8125 -1.15625 C 0.863281 -1.03125 0.9375 -0.921875 1.03125 -0.828125 C 1.125 -0.742188 1.257812 -0.703125 1.4375 -0.703125 C 1.769531 -0.703125 2.082031 -0.796875 2.375 -0.984375 C 2.664062 -1.171875 2.929688 -1.398438 3.171875 -1.671875 C 3.410156 -1.941406 3.613281 -2.195312 3.78125 -2.4375 C 3.894531 -2.582031 3.992188 -2.65625 4.078125 -2.65625 C 4.148438 -2.65625 4.195312 -2.617188 4.21875 -2.546875 C 4.25 -2.484375 4.242188 -2.40625 4.203125 -2.3125 C 4.179688 -2.257812 4.144531 -2.203125 4.09375 -2.140625 C 4.050781 -2.085938 4.015625 -2.035156 3.984375 -1.984375 C 3.773438 -1.734375 3.535156 -1.472656 3.265625 -1.203125 C 3.003906 -0.929688 2.71875 -0.695312 2.40625 -0.5 C 2.09375 -0.3125 1.765625 -0.21875 1.421875 -0.21875 C 1.085938 -0.21875 0.816406 -0.300781 0.609375 -0.46875 C 0.398438 -0.644531 0.242188 -0.867188 0.140625 -1.140625 C 0.046875 -1.410156 0 -1.695312 0 -2 Z M 0 -2 "/></g></g></g><g fill="#c4a46a" fill-opacity="1"><g transform="translate(52.110224, 14.799741)"><g><path d="M 0.671875 -2.640625 C 0.859375 -2.742188 1.0625 -2.878906 1.28125 -3.046875 C 1.507812 -3.222656 1.632812 -3.425781 1.65625 -3.65625 C 1.53125 -3.632812 1.394531 -3.566406 1.25 -3.453125 C 1.101562 -3.335938 0.976562 -3.207031 0.875 -3.0625 C 0.78125 -2.914062 0.710938 -2.773438 0.671875 -2.640625 Z M 0.015625 -2.296875 C 0.015625 -2.535156 0.09375 -2.796875 0.25 -3.078125 C 0.414062 -3.367188 0.617188 -3.613281 0.859375 -3.8125 C 1.097656 -4.007812 1.332031 -4.109375 1.5625 -4.109375 C 1.882812 -4.109375 2.050781 -3.984375 2.0625 -3.734375 C 2.082031 -3.492188 1.976562 -3.234375 1.75 -2.953125 C 1.632812 -2.828125 1.457031 -2.679688 1.21875 -2.515625 C 0.988281 -2.347656 0.765625 -2.253906 0.546875 -2.234375 C 0.546875 -2.078125 0.550781 -1.9375 0.5625 -1.8125 C 0.570312 -1.695312 0.640625 -1.578125 0.765625 -1.453125 C 0.890625 -1.316406 1.050781 -1.25 1.25 -1.25 C 1.5 -1.25 1.757812 -1.328125 2.03125 -1.484375 C 2.300781 -1.648438 2.507812 -1.789062 2.65625 -1.90625 C 2.71875 -1.945312 2.765625 -1.984375 2.796875 -2.015625 C 2.835938 -2.046875 2.878906 -2.082031 2.921875 -2.125 C 3.128906 -2.28125 3.257812 -2.394531 3.3125 -2.46875 C 3.363281 -2.539062 3.410156 -2.585938 3.453125 -2.609375 C 3.492188 -2.628906 3.585938 -2.640625 3.734375 -2.640625 C 3.753906 -2.535156 3.757812 -2.460938 3.75 -2.421875 C 3.75 -2.390625 3.710938 -2.332031 3.640625 -2.25 C 3.460938 -2.070312 3.238281 -1.867188 2.96875 -1.640625 C 2.707031 -1.421875 2.421875 -1.226562 2.109375 -1.0625 C 1.804688 -0.894531 1.503906 -0.8125 1.203125 -0.8125 C 1.046875 -0.8125 0.894531 -0.835938 0.75 -0.890625 C 0.613281 -0.953125 0.476562 -1.046875 0.34375 -1.171875 C 0.175781 -1.347656 0.078125 -1.523438 0.046875 -1.703125 C 0.0234375 -1.890625 0.015625 -2.085938 0.015625 -2.296875 Z M 0.015625 -2.296875 "/></g></g></g><g fill="#c4a46a" fill-opacity="1"><g transform="translate(55.282143, 14.799741)"><g><path d="M 0.515625 -1.0625 C 0.515625 -0.976562 0.535156 -0.9375 0.578125 -0.9375 C 0.640625 -0.9375 0.726562 -1.03125 0.84375 -1.21875 C 0.957031 -1.414062 1.078125 -1.660156 1.203125 -1.953125 C 1.328125 -2.253906 1.445312 -2.550781 1.5625 -2.84375 C 1.675781 -3.144531 1.769531 -3.40625 1.84375 -3.625 C 1.925781 -3.851562 1.96875 -3.984375 1.96875 -4.015625 C 1.800781 -4.003906 1.671875 -3.957031 1.578125 -3.875 C 1.492188 -3.789062 1.410156 -3.691406 1.328125 -3.578125 C 1.078125 -3.265625 0.878906 -2.878906 0.734375 -2.421875 C 0.585938 -1.972656 0.515625 -1.519531 0.515625 -1.0625 Z M 2.171875 -4.421875 C 2.171875 -4.523438 2.1875 -4.613281 2.21875 -4.6875 C 2.257812 -4.769531 2.296875 -4.859375 2.328125 -4.953125 L 2.625 -6.609375 C 2.65625 -6.710938 2.691406 -6.875 2.734375 -7.09375 C 2.785156 -7.3125 2.847656 -7.515625 2.921875 -7.703125 C 3.003906 -7.898438 3.101562 -8.007812 3.21875 -8.03125 C 3.238281 -8.03125 3.253906 -8.03125 3.265625 -8.03125 C 3.273438 -8.039062 3.285156 -8.046875 3.296875 -8.046875 C 3.429688 -8.046875 3.503906 -7.96875 3.515625 -7.8125 C 3.535156 -7.664062 3.523438 -7.484375 3.484375 -7.265625 C 3.441406 -7.054688 3.390625 -6.851562 3.328125 -6.65625 C 3.265625 -6.457031 3.222656 -6.316406 3.203125 -6.234375 C 2.972656 -5.441406 2.820312 -4.628906 2.75 -3.796875 C 2.675781 -2.972656 2.644531 -2.140625 2.65625 -1.296875 C 2.675781 -0.460938 2.691406 0.363281 2.703125 1.1875 C 2.710938 1.5 2.738281 1.75 2.78125 1.9375 C 2.832031 2.125 2.851562 2.253906 2.84375 2.328125 C 2.832031 2.410156 2.738281 2.453125 2.5625 2.453125 C 2.457031 2.453125 2.367188 2.332031 2.296875 2.09375 C 2.234375 1.851562 2.1875 1.539062 2.15625 1.15625 C 2.132812 0.769531 2.125 0.359375 2.125 -0.078125 C 2.125 -0.515625 2.128906 -0.941406 2.140625 -1.359375 C 2.148438 -1.773438 2.15625 -2.132812 2.15625 -2.4375 C 2.164062 -2.738281 2.171875 -2.941406 2.171875 -3.046875 C 2.140625 -3.003906 2.117188 -2.976562 2.109375 -2.96875 C 2.097656 -2.957031 2.082031 -2.921875 2.0625 -2.859375 L 1.546875 -1.609375 C 1.484375 -1.460938 1.40625 -1.296875 1.3125 -1.109375 C 1.226562 -0.921875 1.117188 -0.757812 0.984375 -0.625 C 0.859375 -0.488281 0.703125 -0.421875 0.515625 -0.421875 C 0.304688 -0.421875 0.164062 -0.519531 0.09375 -0.71875 C 0.0195312 -0.914062 0 -1.164062 0.03125 -1.46875 C 0.0625 -1.78125 0.128906 -2.101562 0.234375 -2.4375 C 0.347656 -2.78125 0.488281 -3.101562 0.65625 -3.40625 C 0.832031 -3.71875 1.023438 -3.96875 1.234375 -4.15625 C 1.441406 -4.351562 1.660156 -4.453125 1.890625 -4.453125 C 1.960938 -4.453125 2 -4.445312 2 -4.4375 C 2.007812 -4.425781 2.066406 -4.421875 2.171875 -4.421875 Z M 2.171875 -4.421875 "/></g></g></g><g fill="#c4a46a" fill-opacity="1"><g transform="translate(58.556388, 14.799741)"><g><path d="M 0.671875 -2.640625 C 0.859375 -2.742188 1.0625 -2.878906 1.28125 -3.046875 C 1.507812 -3.222656 1.632812 -3.425781 1.65625 -3.65625 C 1.53125 -3.632812 1.394531 -3.566406 1.25 -3.453125 C 1.101562 -3.335938 0.976562 -3.207031 0.875 -3.0625 C 0.78125 -2.914062 0.710938 -2.773438 0.671875 -2.640625 Z M 0.015625 -2.296875 C 0.015625 -2.535156 0.09375 -2.796875 0.25 -3.078125 C 0.414062 -3.367188 0.617188 -3.613281 0.859375 -3.8125 C 1.097656 -4.007812 1.332031 -4.109375 1.5625 -4.109375 C 1.882812 -4.109375 2.050781 -3.984375 2.0625 -3.734375 C 2.082031 -3.492188 1.976562 -3.234375 1.75 -2.953125 C 1.632812 -2.828125 1.457031 -2.679688 1.21875 -2.515625 C 0.988281 -2.347656 0.765625 -2.253906 0.546875 -2.234375 C 0.546875 -2.078125 0.550781 -1.9375 0.5625 -1.8125 C 0.570312 -1.695312 0.640625 -1.578125 0.765625 -1.453125 C 0.890625 -1.316406 1.050781 -1.25 1.25 -1.25 C 1.5 -1.25 1.757812 -1.328125 2.03125 -1.484375 C 2.300781 -1.648438 2.507812 -1.789062 2.65625 -1.90625 C 2.71875 -1.945312 2.765625 -1.984375 2.796875 -2.015625 C 2.835938 -2.046875 2.878906 -2.082031 2.921875 -2.125 C 3.128906 -2.28125 3.257812 -2.394531 3.3125 -2.46875 C 3.363281 -2.539062 3.410156 -2.585938 3.453125 -2.609375 C 3.492188 -2.628906 3.585938 -2.640625 3.734375 -2.640625 C 3.753906 -2.535156 3.757812 -2.460938 3.75 -2.421875 C 3.75 -2.390625 3.710938 -2.332031 3.640625 -2.25 C 3.460938 -2.070312 3.238281 -1.867188 2.96875 -1.640625 C 2.707031 -1.421875 2.421875 -1.226562 2.109375 -1.0625 C 1.804688 -0.894531 1.503906 -0.8125 1.203125 -0.8125 C 1.046875 -0.8125 0.894531 -0.835938 0.75 -0.890625 C 0.613281 -0.953125 0.476562 -1.046875 0.34375 -1.171875 C 0.175781 -1.347656 0.078125 -1.523438 0.046875 -1.703125 C 0.0234375 -1.890625 0.015625 -2.085938 0.015625 -2.296875 Z M 0.015625 -2.296875 "/></g></g></g><g fill="#c4a46a" fill-opacity="1"><g transform="translate(61.728307, 14.799741)"><g><path d="M 0.171875 2.40625 C 0.171875 2.613281 0.234375 2.71875 0.359375 2.71875 C 0.429688 2.71875 0.503906 2.691406 0.578125 2.640625 C 0.660156 2.597656 0.726562 2.554688 0.78125 2.515625 C 0.96875 2.367188 1.132812 2.144531 1.28125 1.84375 C 1.4375 1.550781 1.550781 1.28125 1.625 1.03125 C 1.675781 0.875 1.703125 0.707031 1.703125 0.53125 C 1.710938 0.363281 1.71875 0.175781 1.71875 -0.03125 C 1.59375 0.0390625 1.453125 0.160156 1.296875 0.328125 C 1.148438 0.492188 1.035156 0.632812 0.953125 0.75 C 0.773438 0.957031 0.597656 1.210938 0.421875 1.515625 C 0.253906 1.816406 0.171875 2.113281 0.171875 2.40625 Z M 0.046875 -2.375 C 0.046875 -2.625 0.113281 -2.847656 0.25 -3.046875 C 0.382812 -3.242188 0.546875 -3.40625 0.734375 -3.53125 C 0.929688 -3.65625 1.097656 -3.71875 1.234375 -3.71875 C 1.335938 -3.71875 1.414062 -3.675781 1.46875 -3.59375 C 1.519531 -3.519531 1.523438 -3.390625 1.484375 -3.203125 C 1.359375 -3.171875 1.269531 -3.148438 1.21875 -3.140625 C 1.175781 -3.140625 1.140625 -3.128906 1.109375 -3.109375 C 1.078125 -3.085938 1.023438 -3.03125 0.953125 -2.9375 C 0.753906 -2.726562 0.660156 -2.554688 0.671875 -2.421875 C 0.691406 -2.285156 0.769531 -2.160156 0.90625 -2.046875 C 1.050781 -1.941406 1.226562 -1.804688 1.4375 -1.640625 C 1.644531 -1.472656 1.84375 -1.25 2.03125 -0.96875 C 2.25 -1.113281 2.46875 -1.285156 2.6875 -1.484375 L 4.046875 -2.421875 C 4.171875 -2.515625 4.28125 -2.578125 4.375 -2.609375 C 4.46875 -2.640625 4.550781 -2.65625 4.625 -2.65625 C 4.738281 -2.65625 4.785156 -2.609375 4.765625 -2.515625 C 4.742188 -2.421875 4.648438 -2.320312 4.484375 -2.21875 L 3.5 -1.53125 C 3.457031 -1.507812 3.375 -1.453125 3.25 -1.359375 C 3.125 -1.273438 2.984375 -1.175781 2.828125 -1.0625 C 2.679688 -0.945312 2.550781 -0.835938 2.4375 -0.734375 C 2.332031 -0.640625 2.273438 -0.582031 2.265625 -0.5625 C 2.253906 -0.507812 2.269531 -0.414062 2.3125 -0.28125 C 2.351562 -0.144531 2.378906 0.03125 2.390625 0.25 C 2.398438 0.46875 2.367188 0.734375 2.296875 1.046875 C 2.222656 1.367188 2.066406 1.742188 1.828125 2.171875 C 1.609375 2.523438 1.375 2.785156 1.125 2.953125 C 0.875 3.128906 0.632812 3.21875 0.40625 3.21875 C 0.207031 3.21875 0.0390625 3.148438 -0.09375 3.015625 C -0.226562 2.878906 -0.296875 2.675781 -0.296875 2.40625 C -0.296875 2.082031 -0.210938 1.765625 -0.046875 1.453125 C 0.105469 1.140625 0.296875 0.847656 0.515625 0.578125 C 0.742188 0.316406 0.953125 0.0898438 1.140625 -0.09375 C 1.335938 -0.28125 1.460938 -0.421875 1.515625 -0.515625 C 1.398438 -0.710938 1.257812 -0.882812 1.09375 -1.03125 C 0.925781 -1.1875 0.757812 -1.328125 0.59375 -1.453125 C 0.4375 -1.585938 0.304688 -1.722656 0.203125 -1.859375 C 0.0976562 -2.003906 0.046875 -2.175781 0.046875 -2.375 Z M 0.046875 -2.375 "/></g></g></g><g fill="#c4a46a" fill-opacity="1"><g transform="translate(65.952662, 14.799741)"><g/></g></g><g fill="#c4a46a" fill-opacity="1"><g transform="translate(69.738503, 14.799741)"><g><path d="M 4 6.75 C 4.226562 6.75 4.476562 6.671875 4.75 6.515625 C 5.03125 6.367188 5.296875 6.191406 5.546875 5.984375 C 5.796875 5.785156 5.984375 5.597656 6.109375 5.421875 C 6.191406 5.328125 6.257812 5.242188 6.3125 5.171875 C 6.375 5.097656 6.441406 5.007812 6.515625 4.90625 C 6.554688 4.8125 6.601562 4.722656 6.65625 4.640625 C 6.71875 4.554688 6.769531 4.46875 6.8125 4.375 C 6.96875 4.070312 7.070312 3.804688 7.125 3.578125 C 7.175781 3.359375 7.195312 3.140625 7.1875 2.921875 C 7.1875 2.703125 7.171875 2.453125 7.140625 2.171875 C 7.066406 2.191406 7.007812 2.21875 6.96875 2.25 C 6.9375 2.289062 6.882812 2.335938 6.8125 2.390625 C 6.769531 2.421875 6.726562 2.453125 6.6875 2.484375 C 6.644531 2.515625 6.597656 2.550781 6.546875 2.59375 L 5.765625 3.296875 C 5.503906 3.535156 5.289062 3.726562 5.125 3.875 C 4.957031 4.03125 4.796875 4.191406 4.640625 4.359375 C 4.492188 4.523438 4.304688 4.757812 4.078125 5.0625 C 4.015625 5.144531 3.929688 5.265625 3.828125 5.421875 C 3.722656 5.578125 3.628906 5.742188 3.546875 5.921875 C 3.472656 6.097656 3.4375 6.253906 3.4375 6.390625 C 3.4375 6.566406 3.472656 6.671875 3.546875 6.703125 C 3.617188 6.734375 3.742188 6.75 3.921875 6.75 C 3.941406 6.75 3.957031 6.75 3.96875 6.75 C 3.988281 6.75 4 6.75 4 6.75 Z M 0 -1.734375 C 0 -2.265625 0.0859375 -2.816406 0.265625 -3.390625 C 0.453125 -3.960938 0.679688 -4.523438 0.953125 -5.078125 C 1.234375 -5.640625 1.515625 -6.140625 1.796875 -6.578125 C 1.921875 -6.816406 2.082031 -7.066406 2.28125 -7.328125 C 2.488281 -7.597656 2.703125 -7.863281 2.921875 -8.125 C 3.140625 -8.394531 3.34375 -8.625 3.53125 -8.8125 C 3.851562 -9.132812 4.1875 -9.429688 4.53125 -9.703125 C 4.875 -9.972656 5.242188 -10.191406 5.640625 -10.359375 C 6.035156 -10.523438 6.472656 -10.609375 6.953125 -10.609375 C 7.421875 -10.578125 7.800781 -10.394531 8.09375 -10.0625 C 8.394531 -9.738281 8.617188 -9.335938 8.765625 -8.859375 C 8.910156 -8.378906 8.984375 -7.890625 8.984375 -7.390625 C 8.984375 -6.804688 8.921875 -6.21875 8.796875 -5.625 C 8.679688 -5.03125 8.554688 -4.476562 8.421875 -3.96875 C 8.367188 -3.738281 8.316406 -3.535156 8.265625 -3.359375 C 8.210938 -3.191406 8.101562 -3.109375 7.9375 -3.109375 C 7.820312 -3.109375 7.757812 -3.195312 7.75 -3.375 C 7.738281 -3.550781 7.753906 -3.765625 7.796875 -4.015625 C 7.847656 -4.265625 7.898438 -4.492188 7.953125 -4.703125 C 8.003906 -4.921875 8.039062 -5.066406 8.0625 -5.140625 C 8.125 -5.554688 8.179688 -6.003906 8.234375 -6.484375 C 8.296875 -6.960938 8.304688 -7.441406 8.265625 -7.921875 C 8.222656 -8.398438 8.097656 -8.835938 7.890625 -9.234375 C 7.742188 -9.515625 7.566406 -9.707031 7.359375 -9.8125 C 7.160156 -9.925781 6.945312 -9.984375 6.71875 -9.984375 C 6.507812 -9.984375 6.300781 -9.945312 6.09375 -9.875 C 5.882812 -9.800781 5.679688 -9.710938 5.484375 -9.609375 C 5.347656 -9.523438 5.191406 -9.425781 5.015625 -9.3125 C 4.847656 -9.195312 4.707031 -9.082031 4.59375 -8.96875 C 4.519531 -8.894531 4.453125 -8.835938 4.390625 -8.796875 C 4.328125 -8.753906 4.265625 -8.691406 4.203125 -8.609375 L 2.46875 -6.546875 C 2.269531 -6.242188 2.113281 -5.992188 2 -5.796875 C 1.894531 -5.597656 1.773438 -5.375 1.640625 -5.125 C 1.503906 -4.90625 1.363281 -4.625 1.21875 -4.28125 C 1.070312 -3.945312 0.941406 -3.609375 0.828125 -3.265625 C 0.722656 -2.921875 0.644531 -2.628906 0.59375 -2.390625 C 0.570312 -2.160156 0.554688 -1.9375 0.546875 -1.71875 C 0.535156 -1.507812 0.5625 -1.296875 0.625 -1.078125 C 0.726562 -0.835938 0.910156 -0.664062 1.171875 -0.5625 C 1.429688 -0.457031 1.722656 -0.394531 2.046875 -0.375 C 2.367188 -0.351562 2.660156 -0.34375 2.921875 -0.34375 C 3.273438 -0.320312 3.59375 -0.304688 3.875 -0.296875 C 4.15625 -0.296875 4.4375 -0.28125 4.71875 -0.25 C 5 -0.21875 5.3125 -0.144531 5.65625 -0.03125 C 5.851562 0.0273438 6.070312 0.128906 6.3125 0.265625 C 6.550781 0.398438 6.765625 0.5625 6.953125 0.75 C 7.148438 0.9375 7.273438 1.128906 7.328125 1.328125 C 7.546875 1.179688 7.796875 0.992188 8.078125 0.765625 C 8.359375 0.535156 8.640625 0.296875 8.921875 0.046875 C 9.210938 -0.191406 9.46875 -0.398438 9.6875 -0.578125 L 10.8125 -1.5625 C 10.90625 -1.664062 10.992188 -1.75 11.078125 -1.8125 C 11.171875 -1.882812 11.265625 -1.96875 11.359375 -2.0625 C 11.523438 -2.238281 11.648438 -2.351562 11.734375 -2.40625 C 11.816406 -2.46875 11.890625 -2.5 11.953125 -2.5 C 11.984375 -2.5 12.015625 -2.492188 12.046875 -2.484375 C 12.078125 -2.472656 12.113281 -2.460938 12.15625 -2.453125 C 12.15625 -2.359375 12.164062 -2.300781 12.1875 -2.28125 C 12.207031 -2.257812 12.210938 -2.238281 12.203125 -2.21875 C 12.203125 -2.207031 12.164062 -2.175781 12.09375 -2.125 C 12.03125 -2.070312 11.921875 -1.960938 11.765625 -1.796875 C 11.441406 -1.484375 11.144531 -1.207031 10.875 -0.96875 C 10.601562 -0.738281 10.316406 -0.476562 10.015625 -0.1875 L 9.078125 0.578125 C 9.003906 0.628906 8.890625 0.71875 8.734375 0.84375 C 8.585938 0.96875 8.425781 1.097656 8.25 1.234375 C 8.082031 1.367188 7.929688 1.488281 7.796875 1.59375 C 7.671875 1.707031 7.59375 1.789062 7.5625 1.84375 C 7.601562 2 7.632812 2.15625 7.65625 2.3125 C 7.6875 2.476562 7.703125 2.65625 7.703125 2.84375 C 7.703125 3.351562 7.582031 3.863281 7.34375 4.375 C 7.101562 4.894531 6.796875 5.375 6.421875 5.8125 C 6.046875 6.25 5.648438 6.59375 5.234375 6.84375 C 4.816406 7.101562 4.425781 7.234375 4.0625 7.234375 C 3.925781 7.234375 3.769531 7.21875 3.59375 7.1875 C 3.425781 7.164062 3.28125 7.109375 3.15625 7.015625 C 3.03125 6.921875 2.96875 6.769531 2.96875 6.5625 C 2.96875 6.207031 3.023438 5.894531 3.140625 5.625 C 3.265625 5.363281 3.4375 5.085938 3.65625 4.796875 C 3.976562 4.347656 4.3125 3.957031 4.65625 3.625 C 5.007812 3.289062 5.382812 2.957031 5.78125 2.625 L 6.953125 1.65625 C 6.679688 1.15625 6.347656 0.8125 5.953125 0.625 C 5.554688 0.4375 5.066406 0.304688 4.484375 0.234375 L 3.3125 0.140625 C 2.851562 0.128906 2.425781 0.117188 2.03125 0.109375 C 1.632812 0.109375 1.269531 0.0390625 0.9375 -0.09375 C 0.625 -0.207031 0.390625 -0.40625 0.234375 -0.6875 C 0.078125 -0.96875 0 -1.316406 0 -1.734375 Z M 0 -1.734375 "/></g></g></g><g fill="#c4a46a" fill-opacity="1"><g transform="translate(81.373758, 14.799741)"><g><path d="M 0 -1.484375 C 0 -1.679688 0.046875 -1.929688 0.140625 -2.234375 C 0.242188 -2.535156 0.378906 -2.832031 0.546875 -3.125 C 0.722656 -3.425781 0.925781 -3.675781 1.15625 -3.875 C 1.382812 -4.070312 1.628906 -4.171875 1.890625 -4.171875 C 2.117188 -4.171875 2.304688 -4.101562 2.453125 -3.96875 C 2.597656 -3.832031 2.6875 -3.691406 2.71875 -3.546875 C 2.75 -3.398438 2.703125 -3.328125 2.578125 -3.328125 C 2.472656 -3.328125 2.367188 -3.382812 2.265625 -3.5 C 2.171875 -3.613281 2.054688 -3.671875 1.921875 -3.671875 C 1.804688 -3.671875 1.671875 -3.609375 1.515625 -3.484375 C 1.367188 -3.359375 1.191406 -3.109375 0.984375 -2.734375 C 0.878906 -2.578125 0.785156 -2.375 0.703125 -2.125 C 0.617188 -1.875 0.578125 -1.628906 0.578125 -1.390625 C 0.597656 -1.410156 0.601562 -1.414062 0.59375 -1.40625 C 0.59375 -1.40625 0.613281 -1.425781 0.65625 -1.46875 L 0.78125 -1.640625 C 0.851562 -1.753906 0.941406 -1.90625 1.046875 -2.09375 C 1.148438 -2.28125 1.253906 -2.46875 1.359375 -2.65625 C 1.460938 -2.84375 1.554688 -3 1.640625 -3.125 C 1.734375 -3.257812 1.804688 -3.328125 1.859375 -3.328125 C 2.035156 -3.328125 2.132812 -3.265625 2.15625 -3.140625 C 2.1875 -3.015625 2.195312 -2.859375 2.1875 -2.671875 C 2.1875 -2.492188 2.207031 -2.3125 2.25 -2.125 C 2.3125 -1.851562 2.398438 -1.65625 2.515625 -1.53125 C 2.640625 -1.414062 2.78125 -1.359375 2.9375 -1.359375 C 3.207031 -1.359375 3.507812 -1.523438 3.84375 -1.859375 C 3.976562 -1.984375 4.078125 -2.085938 4.140625 -2.171875 C 4.203125 -2.253906 4.28125 -2.347656 4.375 -2.453125 C 4.4375 -2.554688 4.523438 -2.609375 4.640625 -2.609375 C 4.742188 -2.609375 4.785156 -2.515625 4.765625 -2.328125 C 4.753906 -2.148438 4.566406 -1.878906 4.203125 -1.515625 L 3.765625 -1.171875 C 3.472656 -0.972656 3.195312 -0.875 2.9375 -0.875 C 2.695312 -0.875 2.484375 -0.945312 2.296875 -1.09375 C 2.117188 -1.238281 1.976562 -1.414062 1.875 -1.625 C 1.78125 -1.84375 1.734375 -2.054688 1.734375 -2.265625 C 1.671875 -2.210938 1.59375 -2.101562 1.5 -1.9375 C 1.414062 -1.78125 1.320312 -1.601562 1.21875 -1.40625 C 1.113281 -1.21875 1.007812 -1.050781 0.90625 -0.90625 C 0.800781 -0.769531 0.691406 -0.703125 0.578125 -0.703125 C 0.304688 -0.703125 0.140625 -0.765625 0.078125 -0.890625 C 0.0234375 -1.015625 0 -1.210938 0 -1.484375 Z M 0 -1.484375 "/></g></g></g><g fill="#c4a46a" fill-opacity="1"><g transform="translate(85.612732, 14.799741)"><g><path d="M 0.03125 -1.125 C 0.03125 -1.613281 0.0546875 -2.140625 0.109375 -2.703125 C 0.171875 -3.265625 0.25 -3.820312 0.34375 -4.375 C 0.445312 -4.9375 0.554688 -5.441406 0.671875 -5.890625 C 0.722656 -6.035156 0.769531 -6.195312 0.8125 -6.375 C 0.863281 -6.5625 0.925781 -6.71875 1 -6.84375 C 1.082031 -6.976562 1.1875 -7.046875 1.3125 -7.046875 C 1.425781 -7.046875 1.5 -7 1.53125 -6.90625 C 1.5625 -6.820312 1.5625 -6.71875 1.53125 -6.59375 C 1.507812 -6.476562 1.476562 -6.367188 1.4375 -6.265625 C 1.40625 -6.160156 1.382812 -6.09375 1.375 -6.0625 C 1.289062 -5.757812 1.195312 -5.359375 1.09375 -4.859375 C 1 -4.359375 0.90625 -3.8125 0.8125 -3.21875 C 0.71875 -2.625 0.644531 -2.035156 0.59375 -1.453125 C 0.550781 -0.867188 0.539062 -0.34375 0.5625 0.125 C 0.59375 0.601562 0.671875 0.972656 0.796875 1.234375 C 0.960938 1.140625 1.097656 1.003906 1.203125 0.828125 C 1.316406 0.660156 1.410156 0.492188 1.484375 0.328125 C 1.710938 -0.105469 1.929688 -0.5625 2.140625 -1.03125 C 2.359375 -1.507812 2.585938 -1.960938 2.828125 -2.390625 C 2.898438 -2.546875 2.984375 -2.625 3.078125 -2.625 C 3.109375 -2.625 3.132812 -2.601562 3.15625 -2.5625 C 3.1875 -2.53125 3.203125 -2.492188 3.203125 -2.453125 C 3.203125 -2.421875 3.160156 -2.328125 3.078125 -2.171875 C 3.003906 -2.015625 2.925781 -1.851562 2.84375 -1.6875 C 2.757812 -1.53125 2.703125 -1.425781 2.671875 -1.375 C 2.578125 -1.164062 2.46875 -0.925781 2.34375 -0.65625 C 2.226562 -0.382812 2.109375 -0.117188 1.984375 0.140625 C 1.867188 0.410156 1.757812 0.632812 1.65625 0.8125 C 1.601562 0.894531 1.535156 1 1.453125 1.125 C 1.367188 1.257812 1.273438 1.375 1.171875 1.46875 C 1.078125 1.570312 0.96875 1.625 0.84375 1.625 C 0.65625 1.625 0.503906 1.523438 0.390625 1.328125 C 0.273438 1.128906 0.191406 0.882812 0.140625 0.59375 C 0.0976562 0.300781 0.0664062 0 0.046875 -0.3125 C 0.0351562 -0.625 0.03125 -0.894531 0.03125 -1.125 Z M 0.03125 -1.125 "/></g></g></g><g fill="#c4a46a" fill-opacity="1"><g transform="translate(88.185349, 14.799741)"><g><path d="M 0 -1.484375 C 0 -1.679688 0.046875 -1.929688 0.140625 -2.234375 C 0.242188 -2.535156 0.378906 -2.832031 0.546875 -3.125 C 0.722656 -3.425781 0.925781 -3.675781 1.15625 -3.875 C 1.382812 -4.070312 1.628906 -4.171875 1.890625 -4.171875 C 2.117188 -4.171875 2.304688 -4.101562 2.453125 -3.96875 C 2.597656 -3.832031 2.6875 -3.691406 2.71875 -3.546875 C 2.75 -3.398438 2.703125 -3.328125 2.578125 -3.328125 C 2.472656 -3.328125 2.367188 -3.382812 2.265625 -3.5 C 2.171875 -3.613281 2.054688 -3.671875 1.921875 -3.671875 C 1.804688 -3.671875 1.671875 -3.609375 1.515625 -3.484375 C 1.367188 -3.359375 1.191406 -3.109375 0.984375 -2.734375 C 0.878906 -2.578125 0.785156 -2.375 0.703125 -2.125 C 0.617188 -1.875 0.578125 -1.628906 0.578125 -1.390625 C 0.597656 -1.410156 0.601562 -1.414062 0.59375 -1.40625 C 0.59375 -1.40625 0.613281 -1.425781 0.65625 -1.46875 L 0.78125 -1.640625 C 0.851562 -1.753906 0.941406 -1.90625 1.046875 -2.09375 C 1.148438 -2.28125 1.253906 -2.46875 1.359375 -2.65625 C 1.460938 -2.84375 1.554688 -3 1.640625 -3.125 C 1.734375 -3.257812 1.804688 -3.328125 1.859375 -3.328125 C 2.035156 -3.328125 2.132812 -3.265625 2.15625 -3.140625 C 2.1875 -3.015625 2.195312 -2.859375 2.1875 -2.671875 C 2.1875 -2.492188 2.207031 -2.3125 2.25 -2.125 C 2.3125 -1.851562 2.398438 -1.65625 2.515625 -1.53125 C 2.640625 -1.414062 2.78125 -1.359375 2.9375 -1.359375 C 3.207031 -1.359375 3.507812 -1.523438 3.84375 -1.859375 C 3.976562 -1.984375 4.078125 -2.085938 4.140625 -2.171875 C 4.203125 -2.253906 4.28125 -2.347656 4.375 -2.453125 C 4.4375 -2.554688 4.523438 -2.609375 4.640625 -2.609375 C 4.742188 -2.609375 4.785156 -2.515625 4.765625 -2.328125 C 4.753906 -2.148438 4.566406 -1.878906 4.203125 -1.515625 L 3.765625 -1.171875 C 3.472656 -0.972656 3.195312 -0.875 2.9375 -0.875 C 2.695312 -0.875 2.484375 -0.945312 2.296875 -1.09375 C 2.117188 -1.238281 1.976562 -1.414062 1.875 -1.625 C 1.78125 -1.84375 1.734375 -2.054688 1.734375 -2.265625 C 1.671875 -2.210938 1.59375 -2.101562 1.5 -1.9375 C 1.414062 -1.78125 1.320312 -1.601562 1.21875 -1.40625 C 1.113281 -1.21875 1.007812 -1.050781 0.90625 -0.90625 C 0.800781 -0.769531 0.691406 -0.703125 0.578125 -0.703125 C 0.304688 -0.703125 0.140625 -0.765625 0.078125 -0.890625 C 0.0234375 -1.015625 0 -1.210938 0 -1.484375 Z M 0 -1.484375 "/></g></g></g><g fill="#c4a46a" fill-opacity="1"><g transform="translate(92.424323, 14.799741)"><g><path d="M 1.390625 -0.34375 C 1.460938 -0.351562 1.5 -0.363281 1.5 -0.375 C 1.507812 -0.394531 1.550781 -0.429688 1.625 -0.484375 C 1.675781 -0.523438 1.710938 -0.554688 1.734375 -0.578125 C 1.753906 -0.597656 1.785156 -0.625 1.828125 -0.65625 L 3.140625 -1.5625 C 3.253906 -1.632812 3.378906 -1.703125 3.515625 -1.765625 C 3.648438 -1.835938 3.789062 -1.875 3.9375 -1.875 C 4.050781 -1.875 4.15625 -1.84375 4.25 -1.78125 C 4.382812 -1.707031 4.46875 -1.597656 4.5 -1.453125 C 4.53125 -1.304688 4.539062 -1.160156 4.53125 -1.015625 C 4.53125 -0.867188 4.53125 -0.753906 4.53125 -0.671875 C 4.726562 -0.816406 4.929688 -0.976562 5.140625 -1.15625 C 5.347656 -1.34375 5.53125 -1.523438 5.6875 -1.703125 L 6.53125 -2.46875 C 6.625 -2.53125 6.6875 -2.5625 6.71875 -2.5625 C 6.738281 -2.5625 6.796875 -2.53125 6.890625 -2.46875 C 6.878906 -2.375 6.863281 -2.316406 6.84375 -2.296875 C 6.832031 -2.273438 6.796875 -2.234375 6.734375 -2.171875 C 6.609375 -2.015625 6.441406 -1.835938 6.234375 -1.640625 C 6.023438 -1.453125 5.8125 -1.265625 5.59375 -1.078125 C 5.382812 -0.890625 5.203125 -0.722656 5.046875 -0.578125 C 4.992188 -0.535156 4.957031 -0.503906 4.9375 -0.484375 C 4.914062 -0.472656 4.882812 -0.445312 4.84375 -0.40625 C 4.65625 -0.25 4.523438 -0.132812 4.453125 -0.0625 C 4.390625 0.0078125 4.347656 0.0820312 4.328125 0.15625 C 4.304688 0.226562 4.273438 0.335938 4.234375 0.484375 C 4.203125 0.640625 4.117188 0.875 3.984375 1.1875 C 3.804688 1.582031 3.617188 1.945312 3.421875 2.28125 C 3.222656 2.625 3.015625 2.96875 2.796875 3.3125 C 2.753906 3.351562 2.71875 3.390625 2.6875 3.421875 C 2.664062 3.460938 2.632812 3.503906 2.59375 3.546875 L 2.078125 4.234375 C 1.972656 4.359375 1.816406 4.523438 1.609375 4.734375 C 1.410156 4.941406 1.191406 5.128906 0.953125 5.296875 C 0.722656 5.472656 0.507812 5.5625 0.3125 5.5625 C 0.269531 5.5625 0.234375 5.554688 0.203125 5.546875 C 0.171875 5.546875 0.140625 5.539062 0.109375 5.53125 C -0.0351562 5.46875 -0.125 5.363281 -0.15625 5.21875 C -0.1875 5.070312 -0.1875 4.914062 -0.15625 4.75 C -0.125 4.582031 -0.0820312 4.4375 -0.03125 4.3125 C 0.101562 4.03125 0.238281 3.769531 0.375 3.53125 C 0.519531 3.289062 0.695312 3.050781 0.90625 2.8125 C 0.96875 2.71875 1.023438 2.632812 1.078125 2.5625 C 1.128906 2.488281 1.1875 2.410156 1.25 2.328125 C 1.300781 2.296875 1.34375 2.265625 1.375 2.234375 C 1.40625 2.203125 1.441406 2.164062 1.484375 2.125 C 1.660156 1.894531 1.890625 1.648438 2.171875 1.390625 C 2.460938 1.140625 2.707031 0.90625 2.90625 0.6875 L 3.796875 -0.0625 C 3.878906 -0.144531 3.9375 -0.269531 3.96875 -0.4375 C 4 -0.613281 4.015625 -0.789062 4.015625 -0.96875 C 4.023438 -1.144531 4.015625 -1.273438 3.984375 -1.359375 C 3.796875 -1.359375 3.617188 -1.3125 3.453125 -1.21875 C 3.285156 -1.125 3.144531 -1.039062 3.03125 -0.96875 C 2.800781 -0.832031 2.613281 -0.710938 2.46875 -0.609375 C 2.320312 -0.503906 2.179688 -0.394531 2.046875 -0.28125 C 1.910156 -0.175781 1.738281 -0.0429688 1.53125 0.109375 C 1.46875 0.160156 1.363281 0.242188 1.21875 0.359375 C 1.070312 0.484375 0.9375 0.546875 0.8125 0.546875 C 0.769531 0.546875 0.734375 0.53125 0.703125 0.5 C 0.617188 0.414062 0.613281 0.285156 0.6875 0.109375 C 0.757812 -0.0546875 0.847656 -0.226562 0.953125 -0.40625 C 1.066406 -0.582031 1.144531 -0.707031 1.1875 -0.78125 L 2.203125 -2.46875 C 2.304688 -2.644531 2.414062 -2.847656 2.53125 -3.078125 C 2.644531 -3.316406 2.742188 -3.550781 2.828125 -3.78125 C 2.921875 -4.019531 2.96875 -4.226562 2.96875 -4.40625 C 2.84375 -4.382812 2.703125 -4.316406 2.546875 -4.203125 C 2.390625 -4.085938 2.269531 -3.988281 2.1875 -3.90625 C 2.125 -3.84375 2.066406 -3.796875 2.015625 -3.765625 C 1.960938 -3.734375 1.90625 -3.679688 1.84375 -3.609375 C 1.78125 -3.546875 1.726562 -3.488281 1.6875 -3.4375 C 1.65625 -3.382812 1.601562 -3.328125 1.53125 -3.265625 C 1.25 -2.984375 1.0625 -2.753906 0.96875 -2.578125 C 0.875 -2.398438 0.816406 -2.265625 0.796875 -2.171875 C 0.785156 -2.085938 0.75 -2.03125 0.6875 -2 C 0.632812 -1.96875 0.507812 -1.953125 0.3125 -1.953125 C 0.21875 -2.097656 0.175781 -2.21875 0.1875 -2.3125 C 0.195312 -2.414062 0.253906 -2.53125 0.359375 -2.65625 C 0.472656 -2.789062 0.617188 -2.960938 0.796875 -3.171875 C 0.867188 -3.253906 0.988281 -3.378906 1.15625 -3.546875 C 1.332031 -3.710938 1.53125 -3.890625 1.75 -4.078125 C 1.976562 -4.273438 2.203125 -4.441406 2.421875 -4.578125 C 2.648438 -4.710938 2.84375 -4.78125 3 -4.78125 C 3.164062 -4.78125 3.269531 -4.703125 3.3125 -4.546875 C 3.351562 -4.398438 3.347656 -4.222656 3.296875 -4.015625 C 3.242188 -3.804688 3.164062 -3.585938 3.0625 -3.359375 C 2.957031 -3.128906 2.851562 -2.921875 2.75 -2.734375 C 2.65625 -2.546875 2.578125 -2.398438 2.515625 -2.296875 C 2.484375 -2.234375 2.410156 -2.109375 2.296875 -1.921875 C 2.179688 -1.734375 2.054688 -1.523438 1.921875 -1.296875 C 1.785156 -1.066406 1.664062 -0.859375 1.5625 -0.671875 C 1.457031 -0.484375 1.398438 -0.375 1.390625 -0.34375 Z M 0.21875 5.046875 C 0.21875 5.117188 0.253906 5.15625 0.328125 5.15625 C 0.453125 5.15625 0.609375 5.078125 0.796875 4.921875 C 0.992188 4.765625 1.195312 4.570312 1.40625 4.34375 C 1.613281 4.113281 1.796875 3.894531 1.953125 3.6875 C 2.109375 3.488281 2.21875 3.347656 2.28125 3.265625 C 2.363281 3.128906 2.476562 2.945312 2.625 2.71875 C 2.769531 2.488281 2.910156 2.242188 3.046875 1.984375 C 3.191406 1.722656 3.320312 1.46875 3.4375 1.21875 C 3.550781 0.976562 3.628906 0.773438 3.671875 0.609375 C 3.585938 0.671875 3.476562 0.753906 3.34375 0.859375 C 3.207031 0.972656 3.070312 1.085938 2.9375 1.203125 C 2.8125 1.328125 2.707031 1.425781 2.625 1.5 C 2.445312 1.644531 2.285156 1.800781 2.140625 1.96875 C 1.992188 2.144531 1.835938 2.320312 1.671875 2.5 L 1.234375 3.046875 C 1.097656 3.210938 0.953125 3.410156 0.796875 3.640625 C 0.648438 3.867188 0.515625 4.101562 0.390625 4.34375 C 0.273438 4.582031 0.21875 4.816406 0.21875 5.046875 Z M 0.21875 5.046875 "/></g></g></g><g fill="#c4a46a" fill-opacity="1"><g transform="translate(98.636611, 14.799741)"><g><path d="M 0 -1.484375 C 0 -1.679688 0.046875 -1.929688 0.140625 -2.234375 C 0.242188 -2.535156 0.378906 -2.832031 0.546875 -3.125 C 0.722656 -3.425781 0.925781 -3.675781 1.15625 -3.875 C 1.382812 -4.070312 1.628906 -4.171875 1.890625 -4.171875 C 2.117188 -4.171875 2.304688 -4.101562 2.453125 -3.96875 C 2.597656 -3.832031 2.6875 -3.691406 2.71875 -3.546875 C 2.75 -3.398438 2.703125 -3.328125 2.578125 -3.328125 C 2.472656 -3.328125 2.367188 -3.382812 2.265625 -3.5 C 2.171875 -3.613281 2.054688 -3.671875 1.921875 -3.671875 C 1.804688 -3.671875 1.671875 -3.609375 1.515625 -3.484375 C 1.367188 -3.359375 1.191406 -3.109375 0.984375 -2.734375 C 0.878906 -2.578125 0.785156 -2.375 0.703125 -2.125 C 0.617188 -1.875 0.578125 -1.628906 0.578125 -1.390625 C 0.597656 -1.410156 0.601562 -1.414062 0.59375 -1.40625 C 0.59375 -1.40625 0.613281 -1.425781 0.65625 -1.46875 L 0.78125 -1.640625 C 0.851562 -1.753906 0.941406 -1.90625 1.046875 -2.09375 C 1.148438 -2.28125 1.253906 -2.46875 1.359375 -2.65625 C 1.460938 -2.84375 1.554688 -3 1.640625 -3.125 C 1.734375 -3.257812 1.804688 -3.328125 1.859375 -3.328125 C 2.035156 -3.328125 2.132812 -3.265625 2.15625 -3.140625 C 2.1875 -3.015625 2.195312 -2.859375 2.1875 -2.671875 C 2.1875 -2.492188 2.207031 -2.3125 2.25 -2.125 C 2.3125 -1.851562 2.398438 -1.65625 2.515625 -1.53125 C 2.640625 -1.414062 2.78125 -1.359375 2.9375 -1.359375 C 3.207031 -1.359375 3.507812 -1.523438 3.84375 -1.859375 C 3.976562 -1.984375 4.078125 -2.085938 4.140625 -2.171875 C 4.203125 -2.253906 4.28125 -2.347656 4.375 -2.453125 C 4.4375 -2.554688 4.523438 -2.609375 4.640625 -2.609375 C 4.742188 -2.609375 4.785156 -2.515625 4.765625 -2.328125 C 4.753906 -2.148438 4.566406 -1.878906 4.203125 -1.515625 L 3.765625 -1.171875 C 3.472656 -0.972656 3.195312 -0.875 2.9375 -0.875 C 2.695312 -0.875 2.484375 -0.945312 2.296875 -1.09375 C 2.117188 -1.238281 1.976562 -1.414062 1.875 -1.625 C 1.78125 -1.84375 1.734375 -2.054688 1.734375 -2.265625 C 1.671875 -2.210938 1.59375 -2.101562 1.5 -1.9375 C 1.414062 -1.78125 1.320312 -1.601562 1.21875 -1.40625 C 1.113281 -1.21875 1.007812 -1.050781 0.90625 -0.90625 C 0.800781 -0.769531 0.691406 -0.703125 0.578125 -0.703125 C 0.304688 -0.703125 0.140625 -0.765625 0.078125 -0.890625 C 0.0234375 -1.015625 0 -1.210938 0 -1.484375 Z M 0 -1.484375 "/></g></g></g><g fill="#c4a46a" fill-opacity="1"><g transform="translate(102.875585, 14.799741)"><g><path d="M 0.203125 -0.0625 C 0.109375 -0.0625 0.0507812 -0.117188 0.03125 -0.234375 C 0.0078125 -0.359375 0.00390625 -0.488281 0.015625 -0.625 C 0.0234375 -0.757812 0.03125 -0.84375 0.03125 -0.875 C 0.0195312 -1.050781 0.015625 -1.226562 0.015625 -1.40625 C 0.0234375 -1.59375 0.0234375 -1.773438 0.015625 -1.953125 C 0.015625 -2.023438 0.015625 -2.15625 0.015625 -2.34375 C 0.0234375 -2.53125 0.0390625 -2.734375 0.0625 -2.953125 C 0.09375 -3.171875 0.128906 -3.359375 0.171875 -3.515625 C 0.222656 -3.671875 0.285156 -3.75 0.359375 -3.75 C 0.554688 -3.75 0.65625 -3.679688 0.65625 -3.546875 C 0.664062 -3.421875 0.660156 -3.257812 0.640625 -3.0625 C 0.628906 -2.988281 0.625 -2.910156 0.625 -2.828125 C 0.625 -2.742188 0.625 -2.664062 0.625 -2.59375 C 0.625 -2.488281 0.617188 -2.421875 0.609375 -2.390625 C 0.597656 -2.367188 0.59375 -2.304688 0.59375 -2.203125 C 0.707031 -2.285156 0.804688 -2.375 0.890625 -2.46875 C 0.984375 -2.570312 1.140625 -2.625 1.359375 -2.625 C 1.429688 -2.625 1.519531 -2.625 1.625 -2.625 C 1.738281 -2.632812 1.859375 -2.640625 1.984375 -2.640625 C 2.203125 -2.640625 2.398438 -2.628906 2.578125 -2.609375 C 2.765625 -2.585938 2.859375 -2.523438 2.859375 -2.421875 C 2.859375 -2.328125 2.804688 -2.265625 2.703125 -2.234375 C 2.609375 -2.203125 2.488281 -2.1875 2.34375 -2.1875 C 2.238281 -2.1875 2.132812 -2.1875 2.03125 -2.1875 C 1.9375 -2.195312 1.847656 -2.203125 1.765625 -2.203125 C 1.492188 -2.203125 1.3125 -2.1875 1.21875 -2.15625 C 1.125 -2.132812 1.019531 -2.023438 0.90625 -1.828125 C 0.832031 -1.703125 0.765625 -1.566406 0.703125 -1.421875 C 0.640625 -1.273438 0.597656 -1.113281 0.578125 -0.9375 C 0.546875 -0.8125 0.53125 -0.679688 0.53125 -0.546875 C 0.539062 -0.410156 0.523438 -0.296875 0.484375 -0.203125 C 0.453125 -0.109375 0.359375 -0.0625 0.203125 -0.0625 Z M 0.203125 -0.0625 "/></g></g></g><g fill="#c4a46a" fill-opacity="1"><g transform="translate(105.258183, 14.799741)"><g/></g></g><g fill="#c4a46a" fill-opacity="1"><g transform="translate(109.044024, 14.799741)"><g><path d="M -0.140625 0.953125 C -0.140625 0.0234375 -0.0585938 -0.882812 0.09375 -1.78125 C 0.25 -2.675781 0.441406 -3.53125 0.671875 -4.34375 C 0.910156 -5.164062 1.164062 -5.90625 1.4375 -6.5625 C 1.625 -7.03125 1.847656 -7.523438 2.109375 -8.046875 C 2.367188 -8.566406 2.664062 -9.0625 3 -9.53125 C 3.34375 -10.007812 3.707031 -10.40625 4.09375 -10.71875 C 4.363281 -10.9375 4.660156 -11.117188 4.984375 -11.265625 C 5.316406 -11.410156 5.640625 -11.484375 5.953125 -11.484375 C 6.179688 -11.484375 6.40625 -11.429688 6.625 -11.328125 C 6.84375 -11.222656 7.035156 -11.0625 7.203125 -10.84375 C 7.421875 -10.519531 7.539062 -10.210938 7.5625 -9.921875 C 7.59375 -9.628906 7.609375 -9.300781 7.609375 -8.9375 C 7.609375 -8.613281 7.554688 -8.25 7.453125 -7.84375 C 7.359375 -7.4375 7.226562 -7.019531 7.0625 -6.59375 C 6.90625 -6.164062 6.738281 -5.753906 6.5625 -5.359375 C 6.394531 -4.960938 6.238281 -4.617188 6.09375 -4.328125 C 6.050781 -4.210938 6.007812 -4.125 5.96875 -4.0625 C 5.925781 -4 5.832031 -3.953125 5.6875 -3.921875 C 5.5625 -4.003906 5.5 -4.078125 5.5 -4.140625 C 5.507812 -4.210938 5.546875 -4.316406 5.609375 -4.453125 C 5.648438 -4.566406 5.691406 -4.664062 5.734375 -4.75 C 5.773438 -4.84375 5.8125 -4.9375 5.84375 -5.03125 C 6.132812 -5.707031 6.40625 -6.394531 6.65625 -7.09375 C 6.90625 -7.800781 7.03125 -8.550781 7.03125 -9.34375 C 7.03125 -9.84375 6.925781 -10.207031 6.71875 -10.4375 C 6.519531 -10.664062 6.269531 -10.78125 5.96875 -10.78125 C 5.445312 -10.78125 4.9375 -10.523438 4.4375 -10.015625 C 4.007812 -9.597656 3.617188 -9.082031 3.265625 -8.46875 C 2.910156 -7.863281 2.59375 -7.210938 2.3125 -6.515625 C 2.03125 -5.816406 1.785156 -5.117188 1.578125 -4.421875 C 1.367188 -3.734375 1.207031 -3.097656 1.09375 -2.515625 C 0.957031 -1.867188 0.835938 -1.160156 0.734375 -0.390625 C 0.640625 0.367188 0.609375 1.128906 0.640625 1.890625 C 0.671875 2.660156 0.804688 3.367188 1.046875 4.015625 C 1.179688 4.429688 1.390625 4.789062 1.671875 5.09375 C 1.960938 5.40625 2.34375 5.5625 2.8125 5.5625 C 3.226562 5.5625 3.632812 5.453125 4.03125 5.234375 C 4.4375 5.015625 4.785156 4.789062 5.078125 4.5625 L 5.578125 4.125 C 5.671875 4.039062 5.753906 3.96875 5.828125 3.90625 C 5.910156 3.84375 6 3.765625 6.09375 3.671875 C 6.632812 3.128906 7.117188 2.535156 7.546875 1.890625 C 7.972656 1.253906 8.375 0.59375 8.75 -0.09375 C 9.125 -0.789062 9.488281 -1.476562 9.84375 -2.15625 C 9.925781 -2.320312 10.007812 -2.4375 10.09375 -2.5 C 10.175781 -2.5625 10.253906 -2.59375 10.328125 -2.59375 C 10.390625 -2.59375 10.441406 -2.566406 10.484375 -2.515625 C 10.523438 -2.460938 10.546875 -2.414062 10.546875 -2.375 L 8.359375 1.609375 C 8.222656 1.816406 8.085938 2.015625 7.953125 2.203125 C 7.828125 2.398438 7.691406 2.597656 7.546875 2.796875 C 7.335938 3.066406 7.054688 3.390625 6.703125 3.765625 C 6.359375 4.148438 5.96875 4.523438 5.53125 4.890625 C 5.101562 5.253906 4.65625 5.554688 4.1875 5.796875 C 3.71875 6.035156 3.253906 6.15625 2.796875 6.15625 C 2.304688 6.15625 1.890625 6.035156 1.546875 5.796875 C 1.203125 5.554688 0.914062 5.238281 0.6875 4.84375 C 0.46875 4.457031 0.296875 4.03125 0.171875 3.5625 C 0.0546875 3.101562 -0.0195312 2.644531 -0.0625 2.1875 C -0.113281 1.726562 -0.140625 1.316406 -0.140625 0.953125 Z M -0.140625 0.953125 "/></g></g></g><g fill="#c4a46a" fill-opacity="1"><g transform="translate(118.998302, 14.799741)"><g><path d="M 0 -1.484375 C 0 -1.679688 0.046875 -1.929688 0.140625 -2.234375 C 0.242188 -2.535156 0.378906 -2.832031 0.546875 -3.125 C 0.722656 -3.425781 0.925781 -3.675781 1.15625 -3.875 C 1.382812 -4.070312 1.628906 -4.171875 1.890625 -4.171875 C 2.117188 -4.171875 2.304688 -4.101562 2.453125 -3.96875 C 2.597656 -3.832031 2.6875 -3.691406 2.71875 -3.546875 C 2.75 -3.398438 2.703125 -3.328125 2.578125 -3.328125 C 2.472656 -3.328125 2.367188 -3.382812 2.265625 -3.5 C 2.171875 -3.613281 2.054688 -3.671875 1.921875 -3.671875 C 1.804688 -3.671875 1.671875 -3.609375 1.515625 -3.484375 C 1.367188 -3.359375 1.191406 -3.109375 0.984375 -2.734375 C 0.878906 -2.578125 0.785156 -2.375 0.703125 -2.125 C 0.617188 -1.875 0.578125 -1.628906 0.578125 -1.390625 C 0.597656 -1.410156 0.601562 -1.414062 0.59375 -1.40625 C 0.59375 -1.40625 0.613281 -1.425781 0.65625 -1.46875 L 0.78125 -1.640625 C 0.851562 -1.753906 0.941406 -1.90625 1.046875 -2.09375 C 1.148438 -2.28125 1.253906 -2.46875 1.359375 -2.65625 C 1.460938 -2.84375 1.554688 -3 1.640625 -3.125 C 1.734375 -3.257812 1.804688 -3.328125 1.859375 -3.328125 C 2.035156 -3.328125 2.132812 -3.265625 2.15625 -3.140625 C 2.1875 -3.015625 2.195312 -2.859375 2.1875 -2.671875 C 2.1875 -2.492188 2.207031 -2.3125 2.25 -2.125 C 2.3125 -1.851562 2.398438 -1.65625 2.515625 -1.53125 C 2.640625 -1.414062 2.78125 -1.359375 2.9375 -1.359375 C 3.207031 -1.359375 3.507812 -1.523438 3.84375 -1.859375 C 3.976562 -1.984375 4.078125 -2.085938 4.140625 -2.171875 C 4.203125 -2.253906 4.28125 -2.347656 4.375 -2.453125 C 4.4375 -2.554688 4.523438 -2.609375 4.640625 -2.609375 C 4.742188 -2.609375 4.785156 -2.515625 4.765625 -2.328125 C 4.753906 -2.148438 4.566406 -1.878906 4.203125 -1.515625 L 3.765625 -1.171875 C 3.472656 -0.972656 3.195312 -0.875 2.9375 -0.875 C 2.695312 -0.875 2.484375 -0.945312 2.296875 -1.09375 C 2.117188 -1.238281 1.976562 -1.414062 1.875 -1.625 C 1.78125 -1.84375 1.734375 -2.054688 1.734375 -2.265625 C 1.671875 -2.210938 1.59375 -2.101562 1.5 -1.9375 C 1.414062 -1.78125 1.320312 -1.601562 1.21875 -1.40625 C 1.113281 -1.21875 1.007812 -1.050781 0.90625 -0.90625 C 0.800781 -0.769531 0.691406 -0.703125 0.578125 -0.703125 C 0.304688 -0.703125 0.140625 -0.765625 0.078125 -0.890625 C 0.0234375 -1.015625 0 -1.210938 0 -1.484375 Z M 0 -1.484375 "/></g></g></g><g fill="#c4a46a" fill-opacity="1"><g transform="translate(123.237276, 14.799741)"><g><path d="M 0.78125 -1.1875 C 0.570312 -1.1875 0.425781 -1.285156 0.34375 -1.484375 C 0.257812 -1.691406 0.222656 -1.945312 0.234375 -2.25 C 0.242188 -2.550781 0.28125 -2.851562 0.34375 -3.15625 C 0.414062 -3.457031 0.503906 -3.710938 0.609375 -3.921875 C 0.710938 -4.128906 0.816406 -4.234375 0.921875 -4.234375 C 1.109375 -4.234375 1.21875 -4.191406 1.25 -4.109375 C 1.28125 -4.023438 1.269531 -3.894531 1.21875 -3.71875 C 1.175781 -3.539062 1.125 -3.316406 1.0625 -3.046875 C 1 -2.773438 0.96875 -2.457031 0.96875 -2.09375 C 0.988281 -2.113281 1.003906 -2.128906 1.015625 -2.140625 C 1.023438 -2.148438 1.03125 -2.160156 1.03125 -2.171875 L 1.71875 -3.3125 C 1.78125 -3.414062 1.863281 -3.546875 1.96875 -3.703125 C 2.070312 -3.867188 2.179688 -4.015625 2.296875 -4.140625 C 2.421875 -4.273438 2.539062 -4.34375 2.65625 -4.34375 C 2.882812 -4.34375 3.03125 -4.226562 3.09375 -4 C 3.164062 -3.769531 3.203125 -3.539062 3.203125 -3.3125 C 3.304688 -3.320312 3.4375 -3.40625 3.59375 -3.5625 C 3.75 -3.726562 3.890625 -3.875 4.015625 -4 C 4.085938 -4.070312 4.148438 -4.132812 4.203125 -4.1875 C 4.253906 -4.25 4.320312 -4.300781 4.40625 -4.34375 C 4.5 -4.394531 4.585938 -4.421875 4.671875 -4.421875 C 4.765625 -4.421875 4.84375 -4.378906 4.90625 -4.296875 C 4.976562 -4.222656 5.019531 -4.078125 5.03125 -3.859375 C 5.039062 -3.648438 5.035156 -3.410156 5.015625 -3.140625 C 4.992188 -2.867188 4.96875 -2.597656 4.9375 -2.328125 C 4.914062 -2.054688 4.90625 -1.816406 4.90625 -1.609375 C 4.90625 -1.160156 4.941406 -0.84375 5.015625 -0.65625 C 5.097656 -0.476562 5.203125 -0.390625 5.328125 -0.390625 C 5.472656 -0.390625 5.632812 -0.488281 5.8125 -0.6875 C 5.988281 -0.882812 6.164062 -1.113281 6.34375 -1.375 C 6.53125 -1.632812 6.6875 -1.875 6.8125 -2.09375 C 6.882812 -2.195312 6.953125 -2.300781 7.015625 -2.40625 C 7.078125 -2.519531 7.1875 -2.578125 7.34375 -2.578125 C 7.375 -2.578125 7.40625 -2.554688 7.4375 -2.515625 C 7.46875 -2.472656 7.484375 -2.429688 7.484375 -2.390625 C 7.484375 -2.328125 7.453125 -2.238281 7.390625 -2.125 C 7.335938 -2.019531 7.28125 -1.914062 7.21875 -1.8125 C 7.15625 -1.71875 7.101562 -1.640625 7.0625 -1.578125 C 7.019531 -1.515625 6.984375 -1.457031 6.953125 -1.40625 C 6.929688 -1.351562 6.894531 -1.289062 6.84375 -1.21875 C 6.800781 -1.15625 6.757812 -1.101562 6.71875 -1.0625 C 6.6875 -1.019531 6.644531 -0.957031 6.59375 -0.875 C 6.40625 -0.601562 6.179688 -0.363281 5.921875 -0.15625 C 5.671875 0.0390625 5.421875 0.140625 5.171875 0.140625 C 5.035156 0.140625 4.90625 0.0976562 4.78125 0.015625 C 4.65625 -0.0664062 4.550781 -0.21875 4.46875 -0.4375 C 4.332031 -0.800781 4.265625 -1.179688 4.265625 -1.578125 C 4.273438 -1.972656 4.304688 -2.359375 4.359375 -2.734375 C 4.421875 -3.117188 4.453125 -3.457031 4.453125 -3.75 C 4.359375 -3.675781 4.238281 -3.5625 4.09375 -3.40625 C 3.957031 -3.25 3.816406 -3.101562 3.671875 -2.96875 C 3.523438 -2.84375 3.382812 -2.78125 3.25 -2.78125 C 3.019531 -2.78125 2.863281 -2.882812 2.78125 -3.09375 C 2.695312 -3.3125 2.65625 -3.53125 2.65625 -3.75 C 2.488281 -3.632812 2.328125 -3.441406 2.171875 -3.171875 C 2.023438 -2.898438 1.875 -2.613281 1.71875 -2.3125 C 1.570312 -2.007812 1.421875 -1.75 1.265625 -1.53125 C 1.117188 -1.3125 0.960938 -1.195312 0.796875 -1.1875 Z M 0.78125 -1.1875 "/></g></g></g><g fill="#c4a46a" fill-opacity="1"><g transform="translate(130.063486, 14.799741)"><g><path d="M 1.015625 0.90625 C 1.171875 0.820312 1.332031 0.691406 1.5 0.515625 C 1.675781 0.335938 1.832031 0.148438 1.96875 -0.046875 C 2.101562 -0.242188 2.1875 -0.414062 2.21875 -0.5625 L 1.484375 0.078125 C 1.367188 0.179688 1.285156 0.257812 1.234375 0.3125 C 1.179688 0.363281 1.140625 0.425781 1.109375 0.5 C 1.085938 0.582031 1.054688 0.71875 1.015625 0.90625 Z M 1.375 -0.375 C 1.425781 -0.40625 1.457031 -0.425781 1.46875 -0.4375 C 1.476562 -0.457031 1.5 -0.488281 1.53125 -0.53125 C 1.59375 -0.5625 1.648438 -0.597656 1.703125 -0.640625 C 1.910156 -0.828125 2.070312 -0.960938 2.1875 -1.046875 C 2.300781 -1.140625 2.378906 -1.210938 2.421875 -1.265625 C 2.460938 -1.328125 2.484375 -1.394531 2.484375 -1.46875 C 2.492188 -1.550781 2.5 -1.675781 2.5 -1.84375 C 2.5 -2.0625 2.457031 -2.171875 2.375 -2.171875 C 2.300781 -2.171875 2.207031 -2.101562 2.09375 -1.96875 C 1.988281 -1.84375 1.882812 -1.679688 1.78125 -1.484375 C 1.675781 -1.285156 1.582031 -1.082031 1.5 -0.875 C 1.425781 -0.675781 1.382812 -0.507812 1.375 -0.375 Z M 0 -0.0625 C 0 -0.175781 0.0078125 -0.398438 0.03125 -0.734375 C 0.0507812 -1.078125 0.0820312 -1.460938 0.125 -1.890625 C 0.164062 -2.328125 0.21875 -2.75 0.28125 -3.15625 C 0.351562 -3.5625 0.4375 -3.894531 0.53125 -4.15625 C 0.632812 -4.425781 0.75 -4.5625 0.875 -4.5625 C 0.945312 -4.5625 1.015625 -4.539062 1.078125 -4.5 C 1.109375 -4.394531 1.125 -4.316406 1.125 -4.265625 C 1.125 -4.222656 1.113281 -4.171875 1.09375 -4.109375 C 1.082031 -4.046875 1.0625 -3.929688 1.03125 -3.765625 C 0.882812 -3.078125 0.78125 -2.398438 0.71875 -1.734375 C 0.65625 -1.066406 0.625 -0.367188 0.625 0.359375 C 0.695312 0.316406 0.769531 0.1875 0.84375 -0.03125 C 0.914062 -0.25 1 -0.503906 1.09375 -0.796875 C 1.195312 -1.085938 1.304688 -1.375 1.421875 -1.65625 C 1.535156 -1.9375 1.671875 -2.164062 1.828125 -2.34375 C 1.984375 -2.53125 2.164062 -2.625 2.375 -2.625 C 2.582031 -2.625 2.738281 -2.523438 2.84375 -2.328125 C 2.945312 -2.128906 3 -1.925781 3 -1.71875 C 3.050781 -1.738281 3.113281 -1.773438 3.1875 -1.828125 C 3.269531 -1.890625 3.34375 -1.9375 3.40625 -1.96875 C 3.5 -2.039062 3.613281 -2.125 3.75 -2.21875 C 3.882812 -2.320312 4.015625 -2.410156 4.140625 -2.484375 C 4.265625 -2.566406 4.367188 -2.609375 4.453125 -2.609375 C 4.535156 -2.609375 4.578125 -2.546875 4.578125 -2.421875 C 4.578125 -2.378906 4.503906 -2.296875 4.359375 -2.171875 C 4.210938 -2.054688 4.039062 -1.929688 3.84375 -1.796875 C 3.644531 -1.660156 3.460938 -1.535156 3.296875 -1.421875 C 3.128906 -1.304688 3.019531 -1.21875 2.96875 -1.15625 C 2.9375 -1.113281 2.890625 -1.003906 2.828125 -0.828125 C 2.765625 -0.648438 2.675781 -0.4375 2.5625 -0.1875 C 2.457031 0.0585938 2.304688 0.3125 2.109375 0.5625 C 1.921875 0.8125 1.675781 1.023438 1.375 1.203125 C 1.3125 1.234375 1.242188 1.257812 1.171875 1.28125 C 1.097656 1.3125 1.039062 1.347656 1 1.390625 C 0.925781 1.429688 0.867188 1.546875 0.828125 1.734375 C 0.785156 1.929688 0.753906 2.128906 0.734375 2.328125 C 0.710938 2.535156 0.703125 2.6875 0.703125 2.78125 C 0.703125 2.957031 0.710938 3.148438 0.734375 3.359375 C 0.765625 3.566406 0.773438 3.742188 0.765625 3.890625 C 0.753906 4.035156 0.691406 4.109375 0.578125 4.109375 C 0.472656 4.109375 0.410156 4.070312 0.390625 4 C 0.367188 3.9375 0.351562 3.84375 0.34375 3.71875 C 0.25 3.101562 0.164062 2.472656 0.09375 1.828125 C 0.03125 1.191406 0 0.5625 0 -0.0625 Z M 0 -0.0625 "/></g></g></g><g fill="#c4a46a" fill-opacity="1"><g transform="translate(134.156284, 14.799741)"><g><path d="M 0.734375 -0.34375 C 0.878906 -0.375 1.007812 -0.5 1.125 -0.71875 C 1.238281 -0.9375 1.320312 -1.1875 1.375 -1.46875 C 1.425781 -1.757812 1.4375 -2.023438 1.40625 -2.265625 C 1.382812 -2.503906 1.3125 -2.664062 1.1875 -2.75 C 1.15625 -2.644531 1.097656 -2.488281 1.015625 -2.28125 C 0.941406 -2.082031 0.867188 -1.863281 0.796875 -1.625 C 0.722656 -1.382812 0.671875 -1.148438 0.640625 -0.921875 C 0.617188 -0.691406 0.648438 -0.5 0.734375 -0.34375 Z M 0 -0.828125 C 0 -0.960938 0.0234375 -1.148438 0.078125 -1.390625 C 0.128906 -1.640625 0.203125 -1.90625 0.296875 -2.1875 C 0.398438 -2.476562 0.507812 -2.753906 0.625 -3.015625 C 0.75 -3.273438 0.882812 -3.488281 1.03125 -3.65625 C 1.175781 -3.820312 1.320312 -3.90625 1.46875 -3.90625 C 1.5625 -3.90625 1.625 -3.859375 1.65625 -3.765625 C 1.695312 -3.679688 1.710938 -3.609375 1.703125 -3.546875 C 1.679688 -3.503906 1.640625 -3.457031 1.578125 -3.40625 C 1.523438 -3.351562 1.484375 -3.300781 1.453125 -3.25 C 1.472656 -3.175781 1.519531 -3.097656 1.59375 -3.015625 C 1.675781 -2.929688 1.753906 -2.820312 1.828125 -2.6875 C 1.898438 -2.550781 1.945312 -2.363281 1.96875 -2.125 C 2 -1.894531 1.976562 -1.59375 1.90625 -1.21875 C 1.789062 -0.707031 1.613281 -0.320312 1.375 -0.0625 C 1.144531 0.1875 0.921875 0.3125 0.703125 0.3125 C 0.515625 0.3125 0.347656 0.210938 0.203125 0.015625 C 0.0664062 -0.171875 0 -0.453125 0 -0.828125 Z M 0 -0.828125 "/></g></g></g><g fill="#c4a46a" fill-opacity="1"><g transform="translate(136.728908, 14.799741)"><g><path d="M 0.421875 5.859375 C 0.703125 5.859375 0.953125 5.773438 1.171875 5.609375 C 1.398438 5.453125 1.597656 5.253906 1.765625 5.015625 C 1.941406 4.785156 2.085938 4.566406 2.203125 4.359375 C 2.316406 4.148438 2.4375 3.851562 2.5625 3.46875 C 2.695312 3.09375 2.820312 2.679688 2.9375 2.234375 C 3.050781 1.796875 3.148438 1.378906 3.234375 0.984375 C 3.316406 0.585938 3.367188 0.28125 3.390625 0.0625 C 3.273438 0.125 3.171875 0.195312 3.078125 0.28125 L 1.640625 1.546875 C 1.597656 1.585938 1.554688 1.632812 1.515625 1.6875 C 1.484375 1.738281 1.4375 1.789062 1.375 1.84375 C 1.144531 2.070312 0.9375 2.300781 0.75 2.53125 C 0.5625 2.769531 0.375 3.03125 0.1875 3.3125 C 0.101562 3.445312 0.0117188 3.609375 -0.078125 3.796875 C -0.179688 3.992188 -0.265625 4.203125 -0.328125 4.421875 C -0.390625 4.640625 -0.410156 4.851562 -0.390625 5.0625 C -0.378906 5.28125 -0.300781 5.46875 -0.15625 5.625 C -0.03125 5.78125 0.160156 5.859375 0.421875 5.859375 Z M 0.765625 -1.28125 C 0.910156 -1.363281 1.078125 -1.519531 1.265625 -1.75 C 1.460938 -1.976562 1.664062 -2.25 1.875 -2.5625 C 2.09375 -2.882812 2.304688 -3.210938 2.515625 -3.546875 C 2.722656 -3.878906 2.910156 -4.1875 3.078125 -4.46875 C 3.242188 -4.757812 3.378906 -4.992188 3.484375 -5.171875 C 3.597656 -5.367188 3.675781 -5.5 3.71875 -5.5625 C 3.757812 -5.625 3.859375 -5.65625 4.015625 -5.65625 C 4.097656 -5.65625 4.15625 -5.597656 4.1875 -5.484375 C 4.226562 -5.378906 4.257812 -5.242188 4.28125 -5.078125 C 4.300781 -4.921875 4.3125 -4.769531 4.3125 -4.625 C 4.3125 -4.476562 4.3125 -4.363281 4.3125 -4.28125 L 4.3125 -3.15625 C 4.3125 -2.914062 4.296875 -2.65625 4.265625 -2.375 C 4.242188 -2.101562 4.222656 -1.847656 4.203125 -1.609375 C 4.191406 -1.378906 4.1875 -1.195312 4.1875 -1.0625 L 6.28125 -2.28125 C 6.320312 -2.3125 6.421875 -2.378906 6.578125 -2.484375 C 6.734375 -2.585938 6.863281 -2.640625 6.96875 -2.640625 C 7.0625 -2.640625 7.109375 -2.585938 7.109375 -2.484375 C 7.109375 -2.421875 7.023438 -2.328125 6.859375 -2.203125 C 6.703125 -2.085938 6.53125 -1.976562 6.34375 -1.875 C 6.164062 -1.78125 6.050781 -1.71875 6 -1.6875 C 5.695312 -1.519531 5.394531 -1.335938 5.09375 -1.140625 C 4.800781 -0.953125 4.515625 -0.765625 4.234375 -0.578125 C 4.160156 -0.523438 4.117188 -0.476562 4.109375 -0.4375 C 4.109375 -0.40625 4.097656 -0.335938 4.078125 -0.234375 C 4.015625 0.242188 3.914062 0.785156 3.78125 1.390625 C 3.65625 1.992188 3.5 2.582031 3.3125 3.15625 C 3.132812 3.726562 2.921875 4.210938 2.671875 4.609375 C 2.535156 4.867188 2.351562 5.128906 2.125 5.390625 C 1.894531 5.648438 1.640625 5.863281 1.359375 6.03125 C 1.078125 6.195312 0.773438 6.28125 0.453125 6.28125 C 0.0859375 6.28125 -0.210938 6.160156 -0.453125 5.921875 C -0.691406 5.679688 -0.8125 5.34375 -0.8125 4.90625 C -0.8125 4.582031 -0.726562 4.234375 -0.5625 3.859375 C -0.40625 3.492188 -0.183594 3.117188 0.09375 2.734375 C 0.375 2.347656 0.675781 1.976562 1 1.625 C 1.320312 1.269531 1.640625 0.945312 1.953125 0.65625 C 2.273438 0.375 2.566406 0.140625 2.828125 -0.046875 C 2.867188 -0.0859375 2.910156 -0.117188 2.953125 -0.140625 C 2.992188 -0.171875 3.039062 -0.207031 3.09375 -0.25 C 3.238281 -0.363281 3.34375 -0.441406 3.40625 -0.484375 C 3.46875 -0.535156 3.503906 -0.625 3.515625 -0.75 C 3.566406 -1.238281 3.617188 -1.691406 3.671875 -2.109375 C 3.722656 -2.535156 3.757812 -2.96875 3.78125 -3.40625 C 3.800781 -3.851562 3.8125 -4.351562 3.8125 -4.90625 C 3.78125 -4.894531 3.695312 -4.78125 3.5625 -4.5625 C 3.4375 -4.351562 3.289062 -4.109375 3.125 -3.828125 C 2.957031 -3.554688 2.800781 -3.300781 2.65625 -3.0625 C 2.507812 -2.820312 2.410156 -2.660156 2.359375 -2.578125 C 2.210938 -2.335938 2.03125 -2.054688 1.8125 -1.734375 C 1.601562 -1.421875 1.40625 -1.175781 1.21875 -1 C 1.03125 -0.832031 0.859375 -0.75 0.703125 -0.75 C 0.546875 -0.75 0.410156 -0.820312 0.296875 -0.96875 C 0.191406 -1.125 0.140625 -1.328125 0.140625 -1.578125 C 0.140625 -1.734375 0.160156 -1.925781 0.203125 -2.15625 C 0.242188 -2.394531 0.300781 -2.628906 0.375 -2.859375 C 0.457031 -3.085938 0.546875 -3.28125 0.640625 -3.4375 C 0.742188 -3.59375 0.859375 -3.671875 0.984375 -3.671875 C 1.148438 -3.671875 1.234375 -3.609375 1.234375 -3.484375 C 1.234375 -3.367188 1.191406 -3.207031 1.109375 -3 C 1.035156 -2.789062 0.957031 -2.539062 0.875 -2.25 C 0.800781 -1.957031 0.765625 -1.632812 0.765625 -1.28125 Z M 0.765625 -1.28125 "/></g></g></g><g fill="#c4a46a" fill-opacity="1"><g transform="translate(143.310462, 14.799741)"><g/></g></g></g></g></g></svg>