<svg xmlns="http://www.w3.org/2000/svg" xmlns:xlink="http://www.w3.org/1999/xlink" width="70" zoomAndPan="magnify" viewBox="0 0 52.5 52.499999" height="70" preserveAspectRatio="xMidYMid meet" version="1.0"><defs><clipPath id="8f19593d06"><path d="M 4.066406 2.613281 L 47.898438 2.613281 L 47.898438 49.417969 L 4.066406 49.417969 Z M 4.066406 2.613281 " clip-rule="nonzero"/></clipPath></defs><g clip-path="url(#8f19593d06)"><path fill="#ffffff" d="M 7.082031 24.378906 L 8.464844 24.378906 L 8.464844 44.898438 C 8.464844 47.375 10.480469 49.386719 12.957031 49.386719 L 39.046875 49.386719 C 41.523438 49.386719 43.535156 47.375 43.535156 44.898438 L 43.535156 24.378906 L 44.917969 24.378906 C 46.582031 24.378906 47.933594 23.027344 47.933594 21.367188 L 47.933594 16.25 C 47.933594 14.585938 46.582031 13.234375 44.917969 13.234375 L 37.804688 13.234375 C 38.878906 12.65625 39.839844 11.898438 40.589844 10.925781 C 41.335938 9.949219 41.734375 8.796875 41.707031 7.683594 C 41.667969 6.171875 40.804688 4.65625 39.457031 3.726562 C 36.480469 1.675781 32.804688 2.800781 30.558594 4.390625 C 28.425781 5.902344 26.875 7.886719 26 10.171875 C 25.125 7.886719 23.578125 5.902344 21.441406 4.390625 C 19.195312 2.800781 15.519531 1.675781 12.542969 3.726562 C 11.195312 4.65625 10.332031 6.171875 10.292969 7.6875 C 10.265625 8.796875 10.664062 9.949219 11.414062 10.925781 C 12.160156 11.898438 13.121094 12.65625 14.195312 13.234375 L 7.082031 13.234375 C 5.417969 13.234375 4.066406 14.585938 4.066406 16.25 L 4.066406 21.367188 C 4.066406 23.027344 5.417969 24.378906 7.082031 24.378906 Z M 10.023438 44.898438 L 10.023438 24.378906 L 25.257812 24.378906 L 25.257812 47.828125 L 12.957031 47.828125 C 11.339844 47.828125 10.023438 46.511719 10.023438 44.898438 Z M 41.976562 44.898438 C 41.976562 46.511719 40.664062 47.828125 39.046875 47.828125 L 26.816406 47.828125 L 26.816406 24.378906 L 41.976562 24.378906 Z M 44.917969 14.792969 C 45.722656 14.792969 46.375 15.445312 46.375 16.25 L 46.375 21.367188 C 46.375 22.167969 45.722656 22.820312 44.917969 22.820312 L 26.816406 22.820312 L 26.816406 14.792969 L 29.863281 14.792969 C 29.878906 14.796875 29.894531 14.800781 29.910156 14.800781 C 30.53125 14.835938 31.191406 14.832031 31.863281 14.792969 Z M 31.457031 5.664062 C 33.292969 4.363281 36.257812 3.414062 38.570312 5.007812 C 39.519531 5.660156 40.121094 6.703125 40.148438 7.726562 C 40.167969 8.480469 39.882812 9.28125 39.351562 9.972656 C 37.679688 12.152344 34.546875 13.058594 31.808594 13.234375 L 26.828125 13.234375 C 27.21875 10.183594 28.839844 7.519531 31.457031 5.664062 Z M 12.648438 9.972656 C 12.117188 9.28125 11.832031 8.480469 11.851562 7.726562 C 11.878906 6.703125 12.484375 5.660156 13.429688 5.007812 C 15.742188 3.414062 18.707031 4.363281 20.542969 5.664062 C 23.164062 7.519531 24.78125 10.183594 25.171875 13.234375 L 20.191406 13.234375 C 17.449219 13.058594 14.324219 12.152344 12.648438 9.972656 Z M 5.625 16.25 C 5.625 15.445312 6.28125 14.792969 7.082031 14.792969 L 20.140625 14.792969 C 20.8125 14.832031 21.46875 14.835938 22.089844 14.800781 C 22.105469 14.800781 22.121094 14.796875 22.136719 14.792969 L 25.257812 14.792969 L 25.257812 22.820312 L 7.082031 22.820312 C 6.28125 22.820312 5.625 22.167969 5.625 21.367188 C 5.625 21.367188 5.625 16.25 5.625 16.25 Z M 5.625 16.25 " fill-opacity="1" fill-rule="nonzero"/></g></svg>