<svg xmlns="http://www.w3.org/2000/svg" xmlns:xlink="http://www.w3.org/1999/xlink" width="200" zoomAndPan="magnify" viewBox="0 0 150 30.000001" height="40" preserveAspectRatio="xMidYMid meet" version="1.0"><defs><clipPath id="1b5876cd54"><path d="M 23 1.480469 L 32 1.480469 L 32 18 L 23 18 Z M 23 1.480469 " clip-rule="nonzero"/></clipPath><clipPath id="74a774cd95"><path d="M 20 1.480469 L 32 1.480469 L 32 21 L 20 21 Z M 20 1.480469 " clip-rule="nonzero"/></clipPath><clipPath id="aae58fb3a6"><path d="M 18.308594 1.480469 L 32 1.480469 L 32 23 L 18.308594 23 Z M 18.308594 1.480469 " clip-rule="nonzero"/></clipPath><clipPath id="33ef3c2595"><path d="M 26 1.480469 L 32 1.480469 L 32 15 L 26 15 Z M 26 1.480469 " clip-rule="nonzero"/></clipPath><clipPath id="0e51872ead"><path d="M 28 1.480469 L 43 1.480469 L 43 23 L 28 23 Z M 28 1.480469 " clip-rule="nonzero"/></clipPath><clipPath id="08a00cdca8"><path d="M 88 9 L 124 9 L 124 27.609375 L 88 27.609375 Z M 88 9 " clip-rule="nonzero"/></clipPath><clipPath id="4797f6ae2c"><path d="M 128 6 L 131.535156 6 L 131.535156 9 L 128 9 Z M 128 6 " clip-rule="nonzero"/></clipPath></defs><g clip-path="url(#1b5876cd54)"><path fill="#ffffff" d="M 31.75 15.632812 L 26.300781 15.632812 C 25.695312 15.632812 25.5 15.261719 25.5 14.753906 C 25.5 14.339844 25.496094 1.804688 25.496094 1.804688 L 23.582031 1.804688 L 23.582031 16.519531 C 23.582031 17.136719 24.113281 17.542969 24.507812 17.542969 L 31.75 17.542969 Z M 31.75 15.632812 " fill-opacity="1" fill-rule="evenodd"/></g><g clip-path="url(#74a774cd95)"><path fill="#ffffff" d="M 31.75 18.273438 L 31.75 20.1875 L 22.074219 20.1875 C 21.414062 20.1875 20.953125 19.691406 20.953125 19.050781 C 20.960938 18.300781 20.953125 1.804688 20.953125 1.804688 L 22.863281 1.804688 L 22.863281 17.082031 C 22.863281 17.753906 23.152344 18.273438 23.96875 18.273438 Z M 31.75 18.273438 " fill-opacity="1" fill-rule="evenodd"/></g><g clip-path="url(#aae58fb3a6)"><path fill="#ffffff" d="M 18.308594 1.804688 L 20.226562 1.804688 L 20.226562 19.589844 C 20.226562 20.234375 20.550781 20.914062 21.488281 20.914062 L 31.75 20.914062 L 31.75 22.824219 L 20.589844 22.824219 C 19.316406 22.824219 18.308594 21.769531 18.308594 20.507812 Z M 18.308594 1.804688 " fill-opacity="1" fill-rule="evenodd"/></g><g clip-path="url(#33ef3c2595)"><path fill="#ffffff" d="M 26.214844 1.804688 L 28.132812 1.804688 L 28.132812 12.25 C 28.132812 12.628906 28.304688 12.992188 28.847656 12.992188 L 31.75 12.992188 L 31.75 14.90625 L 27.1875 14.90625 C 26.488281 14.90625 26.214844 14.460938 26.214844 13.953125 Z M 26.214844 1.804688 " fill-opacity="1" fill-rule="evenodd"/></g><path fill="#ffffff" d="M 28.859375 8.996094 L 34.308594 8.996094 C 34.914062 8.996094 35.109375 9.367188 35.109375 9.875 C 35.109375 10.289062 35.113281 22.824219 35.113281 22.824219 L 37.027344 22.824219 L 37.027344 8.109375 C 37.027344 7.492188 36.492188 7.085938 36.101562 7.085938 L 28.859375 7.085938 Z M 28.859375 8.996094 " fill-opacity="1" fill-rule="evenodd"/><path fill="#ffffff" d="M 28.855469 6.355469 L 28.855469 4.441406 L 38.53125 4.441406 C 39.195312 4.441406 39.652344 4.9375 39.652344 5.578125 C 39.648438 6.328125 39.652344 22.824219 39.652344 22.824219 L 37.746094 22.824219 L 37.746094 7.546875 C 37.746094 6.875 37.453125 6.355469 36.640625 6.355469 Z M 28.855469 6.355469 " fill-opacity="1" fill-rule="evenodd"/><g clip-path="url(#0e51872ead)"><path fill="#ffffff" d="M 42.296875 22.824219 L 40.378906 22.824219 L 40.378906 5.039062 C 40.378906 4.394531 40.058594 3.714844 39.117188 3.714844 L 28.855469 3.714844 L 28.855469 1.804688 L 40.019531 1.804688 C 41.292969 1.804688 42.296875 2.859375 42.296875 4.121094 Z M 42.296875 22.824219 " fill-opacity="1" fill-rule="evenodd"/></g><path fill="#ffffff" d="M 34.394531 22.824219 L 32.476562 22.824219 L 32.476562 12.382812 C 32.476562 12.003906 32.304688 11.640625 31.757812 11.640625 L 28.859375 11.640625 L 28.859375 9.722656 L 33.417969 9.722656 C 34.121094 9.722656 34.394531 10.167969 34.394531 10.679688 Z M 34.394531 22.824219 " fill-opacity="1" fill-rule="evenodd"/><path fill="#ffffff" d="M 86.304688 13.738281 C 86.304688 13.082031 86.796875 12.554688 87.449219 12.554688 L 89.164062 12.554688 L 89.164062 10.621094 L 87.132812 10.621094 C 85.589844 10.621094 84.367188 11.875 84.367188 13.417969 L 84.367188 22.824219 L 86.304688 22.824219 Z M 86.304688 13.738281 " fill-opacity="1" fill-rule="evenodd"/><path fill="#ffffff" d="M 56.191406 10.585938 L 58.128906 10.585938 L 58.128906 22.824219 L 56.191406 22.824219 Z M 56.191406 10.585938 " fill-opacity="1" fill-rule="evenodd"/><g clip-path="url(#08a00cdca8)"><path fill="#ffffff" d="M 95.359375 11.929688 C 97.855469 11.929688 99.886719 13.964844 99.886719 16.464844 C 99.886719 18.964844 97.855469 21 95.359375 21 C 92.863281 21 90.832031 18.964844 90.832031 16.464844 C 90.832031 13.964844 92.863281 11.929688 95.359375 11.929688 Z M 106.355469 11.929688 C 108.855469 11.929688 110.886719 13.964844 110.886719 16.464844 C 110.886719 18.964844 108.855469 21 106.355469 21 C 103.859375 21 101.828125 18.964844 101.828125 16.464844 C 101.828125 13.964844 103.859375 11.929688 106.355469 11.929688 Z M 117.355469 11.929688 C 119.855469 11.929688 121.882812 13.964844 121.882812 16.464844 C 121.882812 18.964844 119.855469 21 117.355469 21 C 114.859375 21 112.828125 18.964844 112.828125 16.464844 C 112.828125 13.964844 114.859375 11.929688 117.355469 11.929688 Z M 88.898438 27.515625 L 90.851562 27.515625 L 90.851562 21.09375 C 92.011719 22.230469 93.601562 22.933594 95.359375 22.933594 C 97.683594 22.933594 99.722656 21.703125 100.859375 19.859375 C 101.996094 21.703125 104.035156 22.933594 106.355469 22.933594 C 108.679688 22.933594 110.722656 21.703125 111.855469 19.859375 C 112.996094 21.703125 115.03125 22.933594 117.355469 22.933594 C 120.925781 22.933594 123.816406 20.039062 123.816406 16.464844 C 123.816406 12.890625 120.925781 9.992188 117.355469 9.992188 C 115.03125 9.992188 112.996094 11.222656 111.855469 13.070312 C 110.722656 11.222656 108.679688 9.992188 106.355469 9.992188 C 104.035156 9.992188 101.996094 11.222656 100.859375 13.070312 C 99.722656 11.222656 97.683594 9.992188 95.359375 9.992188 C 91.792969 9.992188 88.898438 12.890625 88.898438 16.464844 Z M 88.898438 27.515625 " fill-opacity="1" fill-rule="evenodd"/></g><path fill="#ffffff" d="M 76.953125 11.863281 C 78.902344 11.863281 80.671875 13.101562 81.320312 15.039062 L 72.578125 15.039062 C 73.226562 13.101562 75.003906 11.863281 76.953125 11.863281 M 76.953125 22.867188 C 79.925781 22.867188 82.460938 20.863281 83.160156 17.980469 L 81.289062 17.980469 C 80.644531 19.828125 78.910156 21.066406 76.953125 21.066406 C 74.578125 21.066406 72.601562 19.273438 72.367188 16.839844 L 83.34375 16.839844 L 83.34375 16.464844 C 83.34375 12.933594 80.476562 10.0625 76.953125 10.0625 C 73.425781 10.0625 70.558594 12.933594 70.558594 16.464844 C 70.558594 19.992188 73.425781 22.867188 76.953125 22.867188 " fill-opacity="1" fill-rule="evenodd"/><path fill="#ffffff" d="M 66.292969 22.824219 L 71.140625 10.585938 L 68.929688 10.585938 L 65.027344 20.433594 L 61.128906 10.585938 L 58.917969 10.585938 L 63.765625 22.824219 Z M 66.292969 22.824219 " fill-opacity="1" fill-rule="evenodd"/><path fill="#ffffff" d="M 124.773438 6.390625 L 126.710938 6.390625 L 126.710938 22.824219 L 124.773438 22.824219 Z M 124.773438 6.390625 " fill-opacity="1" fill-rule="evenodd"/><path fill="#ffffff" d="M 49.535156 6.390625 L 49.535156 19.746094 C 49.539062 20.410156 49.921875 20.925781 50.679688 20.925781 L 55.4375 20.925781 L 55.4375 22.820312 L 48.882812 22.820312 C 48.054688 22.820312 47.574219 22.316406 47.574219 21.582031 L 47.574219 6.390625 Z M 49.535156 6.390625 " fill-opacity="1" fill-rule="evenodd"/><g clip-path="url(#4797f6ae2c)"><path fill="#ffffff" d="M 130.203125 7.589844 C 130.375 7.589844 130.484375 7.527344 130.484375 7.382812 C 130.484375 7.257812 130.382812 7.179688 130.242188 7.179688 L 129.882812 7.179688 L 129.882812 7.589844 Z M 129.660156 6.992188 L 130.265625 6.992188 C 130.605469 6.992188 130.71875 7.203125 130.71875 7.351562 C 130.71875 7.574219 130.5625 7.734375 130.332031 7.746094 L 130.332031 7.757812 C 130.449219 7.796875 130.535156 7.914062 130.648438 8.097656 L 130.8125 8.363281 L 130.546875 8.363281 L 130.421875 8.148438 C 130.25 7.84375 130.183594 7.78125 130.019531 7.78125 L 129.882812 7.78125 L 129.882812 8.363281 L 129.660156 8.363281 Z M 130.21875 6.59375 C 129.632812 6.59375 129.160156 7.066406 129.160156 7.65625 C 129.160156 8.246094 129.632812 8.726562 130.21875 8.726562 C 130.804688 8.726562 131.285156 8.246094 131.285156 7.65625 C 131.285156 7.066406 130.804688 6.59375 130.21875 6.59375 Z M 130.21875 8.9375 C 129.515625 8.9375 128.945312 8.363281 128.945312 7.65625 C 128.945312 6.949219 129.515625 6.382812 130.21875 6.382812 C 130.925781 6.382812 131.496094 6.949219 131.496094 7.65625 C 131.496094 8.363281 130.925781 8.9375 130.21875 8.9375 Z M 130.21875 8.9375 " fill-opacity="1" fill-rule="evenodd"/></g><path fill="#ffffff" d="M 56.191406 6.390625 L 58.128906 6.390625 L 58.128906 8.355469 L 56.191406 8.355469 Z M 56.191406 6.390625 " fill-opacity="1" fill-rule="evenodd"/></svg>