<svg xmlns="http://www.w3.org/2000/svg" xmlns:xlink="http://www.w3.org/1999/xlink" width="70" zoomAndPan="magnify" viewBox="0 0 52.5 52.499999" height="70" preserveAspectRatio="xMidYMid meet" version="1.0"><defs><clipPath id="74c7e648dd"><path d="M 8.671875 2.171875 L 43 2.171875 L 43 49.71875 L 8.671875 49.71875 Z M 8.671875 2.171875 " clip-rule="nonzero"/></clipPath><clipPath id="0b587801aa"><path d="M 8.671875 13 L 43 13 L 43 44 L 8.671875 44 Z M 8.671875 13 " clip-rule="nonzero"/></clipPath></defs><g clip-path="url(#74c7e648dd)"><path fill="#f4eadc" d="M 39.011719 21.800781 L 42.453125 19.78125 L 42.511719 19.808594 C 42.523438 19.816406 42.539062 19.816406 42.550781 19.816406 C 42.589844 19.816406 42.621094 19.796875 42.640625 19.761719 C 42.660156 19.714844 42.640625 19.660156 42.59375 19.636719 L 42.507812 19.597656 L 41.488281 16.769531 L 41.523438 16.746094 C 41.566406 16.714844 41.578125 16.65625 41.546875 16.613281 C 41.515625 16.570312 41.457031 16.5625 41.414062 16.589844 L 41.367188 16.621094 L 39.148438 15.589844 L 39.144531 15.535156 C 39.140625 15.496094 39.113281 15.464844 39.078125 15.453125 C 39.046875 15.433594 39.003906 15.433594 38.972656 15.457031 L 38.925781 15.488281 L 36.703125 14.457031 L 36.699219 14.402344 C 36.695312 14.351562 36.652344 14.3125 36.597656 14.316406 C 36.542969 14.320312 36.503906 14.367188 36.507812 14.417969 L 36.511719 14.445312 L 33.644531 15.484375 L 33.558594 15.445312 C 33.511719 15.421875 33.453125 15.441406 33.433594 15.488281 C 33.410156 15.539062 33.429688 15.59375 33.476562 15.617188 L 33.539062 15.644531 L 34.171875 19.554688 C 33.859375 20.210938 33.84375 20.929688 34.074219 21.566406 C 32.902344 21.246094 31.710938 21.125 30.539062 21.183594 C 29.121094 16.683594 24.875 13.417969 19.859375 13.417969 C 13.679688 13.417969 8.671875 18.375 8.671875 24.496094 C 8.671875 30.613281 13.679688 35.574219 19.859375 35.574219 C 20.054688 35.574219 20.246094 35.566406 20.4375 35.558594 C 21.34375 38.417969 23.410156 40.90625 26.363281 42.277344 C 31.960938 44.875 38.621094 42.492188 41.242188 36.949219 C 43.589844 31.992188 41.90625 26.1875 37.511719 23.164062 C 38.152344 22.929688 38.699219 22.460938 39.011719 21.800781 M 19.992188 33.480469 C 19.949219 33.480469 19.90625 33.480469 19.859375 33.480469 C 14.855469 33.480469 10.785156 29.449219 10.785156 24.496094 C 10.785156 19.539062 14.855469 15.507812 19.859375 15.507812 C 23.804688 15.507812 27.167969 18.011719 28.417969 21.5 C 25.261719 22.277344 22.472656 24.402344 20.984375 27.546875 C 20.074219 29.46875 19.769531 31.515625 19.992188 33.480469 Z M 22.894531 28.433594 C 24.09375 25.902344 26.339844 24.179688 28.886719 23.539062 C 28.917969 23.855469 28.9375 24.171875 28.9375 24.496094 C 28.9375 28.6875 26.019531 32.21875 22.089844 33.207031 C 21.917969 31.625 22.164062 29.976562 22.894531 28.433594 Z M 39.332031 36.0625 C 37.207031 40.550781 31.792969 42.488281 27.261719 40.386719 C 24.976562 39.324219 23.34375 37.433594 22.5625 35.246094 C 27.4375 34.050781 31.046875 29.691406 31.046875 24.496094 C 31.046875 24.078125 31.023438 23.667969 30.980469 23.261719 C 32.316406 23.242188 33.675781 23.511719 34.964844 24.109375 C 39.496094 26.214844 41.457031 31.574219 39.332031 36.0625 Z M 30.601562 11.671875 L 32.921875 12.101562 L 30.601562 12.53125 L 30.167969 14.824219 L 29.734375 12.53125 L 27.417969 12.101562 L 29.734375 11.671875 L 30.167969 9.375 Z M 34.316406 7.179688 L 30.695312 6.507812 L 34.316406 5.835938 L 34.992188 2.25 L 35.671875 5.835938 L 39.292969 6.507812 L 35.671875 7.179688 L 34.992188 10.765625 Z M 14.175781 40.605469 L 11.855469 41.035156 L 11.421875 43.328125 L 10.988281 41.035156 L 8.671875 40.605469 L 10.988281 40.175781 L 11.421875 37.878906 L 11.855469 40.175781 Z M 17.75 44.710938 L 21.371094 45.382812 L 17.75 46.054688 L 17.070312 49.640625 L 16.394531 46.054688 L 12.773438 45.382812 L 16.394531 44.710938 L 17.070312 41.125 Z M 17.75 44.710938 " fill-opacity="1" fill-rule="nonzero"/></g><g clip-path="url(#0b587801aa)"><path fill="#d59f35" d="M 37.511719 23.164062 C 38.152344 22.929688 38.699219 22.460938 39.011719 21.800781 L 37.5 21.101562 L 37.492188 21.109375 C 37.476562 21.136719 37.445312 21.152344 37.414062 21.152344 C 37.394531 21.152344 37.378906 21.148438 37.359375 21.140625 C 37.320312 21.113281 37.308594 21.0625 37.328125 21.019531 L 35.855469 20.335938 C 35.839844 20.371094 35.804688 20.390625 35.769531 20.390625 C 35.761719 20.390625 35.75 20.390625 35.742188 20.386719 C 35.691406 20.371094 35.660156 20.316406 35.679688 20.265625 L 35.683594 20.253906 L 35.308594 20.082031 L 34.171875 19.554688 C 33.859375 20.210938 33.84375 20.929688 34.074219 21.566406 C 32.902344 21.246094 31.710938 21.125 30.539062 21.183594 C 29.121094 16.683594 24.875 13.417969 19.859375 13.417969 C 13.679688 13.417969 8.671875 18.375 8.671875 24.496094 C 8.671875 30.613281 13.679688 35.574219 19.859375 35.574219 C 20.054688 35.574219 20.246094 35.566406 20.4375 35.558594 C 21.34375 38.417969 23.410156 40.90625 26.363281 42.277344 C 31.960938 44.875 38.621094 42.492188 41.242188 36.949219 C 43.589844 31.992188 41.90625 26.1875 37.511719 23.164062 Z M 19.992188 33.480469 C 19.949219 33.480469 19.90625 33.480469 19.859375 33.480469 C 14.855469 33.480469 10.785156 29.449219 10.785156 24.496094 C 10.785156 19.539062 14.855469 15.507812 19.859375 15.507812 C 23.804688 15.507812 27.167969 18.011719 28.417969 21.5 C 25.261719 22.277344 22.472656 24.402344 20.984375 27.546875 C 20.074219 29.46875 19.769531 31.515625 19.992188 33.480469 Z M 22.894531 28.433594 C 24.09375 25.902344 26.339844 24.179688 28.886719 23.539062 C 28.917969 23.855469 28.9375 24.171875 28.9375 24.496094 C 28.9375 28.6875 26.019531 32.21875 22.089844 33.207031 C 21.917969 31.625 22.164062 29.976562 22.894531 28.433594 Z M 39.332031 36.0625 C 37.207031 40.550781 31.792969 42.488281 27.261719 40.386719 C 24.976562 39.324219 23.34375 37.433594 22.5625 35.246094 C 27.4375 34.050781 31.046875 29.691406 31.046875 24.496094 C 31.046875 24.078125 31.023438 23.667969 30.980469 23.261719 C 32.316406 23.242188 33.675781 23.511719 34.964844 24.109375 C 39.496094 26.214844 41.457031 31.574219 39.332031 36.0625 Z M 39.332031 36.0625 " fill-opacity="1" fill-rule="nonzero"/></g><path fill="#dd855f" d="M 42.59375 19.636719 L 42.507812 19.597656 L 39.457031 18.183594 L 41.488281 16.769531 L 41.523438 16.746094 C 41.566406 16.714844 41.578125 16.65625 41.546875 16.613281 C 41.515625 16.570312 41.457031 16.5625 41.414062 16.589844 L 41.367188 16.621094 L 39.351562 18.027344 L 39.148438 15.589844 L 39.144531 15.535156 C 39.140625 15.496094 39.113281 15.464844 39.078125 15.453125 C 39.046875 15.433594 39.003906 15.433594 38.972656 15.457031 L 38.925781 15.488281 L 36.90625 16.890625 L 36.703125 14.457031 L 36.699219 14.402344 C 36.695312 14.351562 36.652344 14.3125 36.597656 14.316406 C 36.542969 14.320312 36.503906 14.367188 36.507812 14.417969 L 36.511719 14.445312 L 36.714844 16.910156 L 33.644531 15.484375 L 33.558594 15.445312 C 33.511719 15.421875 33.453125 15.441406 33.433594 15.488281 C 33.410156 15.539062 33.429688 15.59375 33.476562 15.617188 L 33.539062 15.644531 L 36.6875 17.105469 L 35.683594 20.253906 L 35.679688 20.265625 C 35.664062 20.316406 35.691406 20.371094 35.742188 20.386719 C 35.75 20.390625 35.761719 20.390625 35.769531 20.390625 C 35.804688 20.390625 35.839844 20.371094 35.855469 20.335938 C 35.855469 20.332031 35.859375 20.328125 35.859375 20.324219 L 36.863281 17.1875 L 39.128906 18.238281 L 37.332031 21.007812 C 37.328125 21.011719 37.328125 21.015625 37.328125 21.019531 C 37.308594 21.0625 37.320312 21.113281 37.359375 21.136719 C 37.378906 21.148438 37.394531 21.152344 37.414062 21.152344 C 37.445312 21.152344 37.476562 21.136719 37.492188 21.109375 L 37.5 21.097656 L 39.304688 18.320312 L 42.453125 19.78125 L 42.511719 19.808594 C 42.523438 19.816406 42.539062 19.816406 42.550781 19.816406 C 42.589844 19.816406 42.621094 19.796875 42.640625 19.761719 C 42.660156 19.714844 42.640625 19.660156 42.59375 19.636719 Z M 37.015625 17.046875 L 38.964844 15.695312 L 39.160156 18.042969 Z M 37.015625 17.046875 " fill-opacity="1" fill-rule="nonzero"/></svg>