<svg xmlns="http://www.w3.org/2000/svg" xmlns:xlink="http://www.w3.org/1999/xlink" width="70" zoomAndPan="magnify" viewBox="0 0 52.5 52.499999" height="70" preserveAspectRatio="xMidYMid meet" version="1.0"><defs><clipPath id="3617152ea2"><path d="M 9.738281 3.578125 L 42.261719 3.578125 L 42.261719 48.144531 L 9.738281 48.144531 Z M 9.738281 3.578125 " clip-rule="nonzero"/></clipPath></defs><g clip-path="url(#3617152ea2)"><path fill="#899c35" d="M 12.816406 47.484375 L 39.183594 47.484375 C 40.363281 47.484375 41.320312 46.53125 41.320312 45.351562 L 41.320312 6.65625 C 41.320312 5.476562 40.363281 4.519531 39.183594 4.519531 L 12.816406 4.519531 C 11.636719 4.519531 10.679688 5.476562 10.679688 6.65625 L 10.679688 45.351562 C 10.679688 46.53125 11.636719 47.484375 12.816406 47.484375 Z M 40.128906 48.429688 L 11.871094 48.429688 C 10.691406 48.429688 9.738281 47.472656 9.738281 46.292969 L 9.738281 5.710938 C 9.738281 4.53125 10.691406 3.578125 11.871094 3.578125 L 40.128906 3.578125 C 41.308594 3.578125 42.261719 4.53125 42.261719 5.710938 L 42.261719 46.292969 C 42.261719 47.472656 41.308594 48.429688 40.128906 48.429688 " fill-opacity="1" fill-rule="nonzero"/></g><path fill="#899c35" d="M 14.167969 21.195312 L 13.089844 19.8125 C 12.988281 19.679688 12.996094 19.492188 13.113281 19.371094 C 13.25 19.230469 13.441406 19.046875 13.570312 19.195312 L 14.160156 19.859375 C 14.300781 20.019531 14.550781 20.011719 14.679688 19.84375 L 15.863281 18.335938 C 15.953125 18.222656 16.125 18.210938 16.226562 18.3125 L 16.566406 18.65625 C 16.695312 18.78125 16.699219 18.988281 16.578125 19.121094 L 14.683594 21.214844 C 14.542969 21.371094 14.296875 21.363281 14.167969 21.195312 " fill-opacity="1" fill-rule="nonzero"/><path fill="#899c35" d="M 14.167969 27.902344 L 13.089844 26.519531 C 12.988281 26.386719 12.996094 26.199219 13.113281 26.078125 C 13.25 25.9375 13.441406 25.753906 13.570312 25.902344 L 14.160156 26.566406 C 14.300781 26.722656 14.550781 26.71875 14.679688 26.550781 L 15.707031 25.242188 C 15.878906 25.019531 16.207031 25 16.40625 25.199219 L 16.566406 25.359375 C 16.695312 25.488281 16.699219 25.691406 16.578125 25.824219 L 14.683594 27.921875 C 14.542969 28.078125 14.296875 28.070312 14.167969 27.902344 " fill-opacity="1" fill-rule="nonzero"/><path fill="#899c35" d="M 14.167969 35.285156 L 13.089844 33.898438 C 12.988281 33.765625 12.996094 33.578125 13.113281 33.457031 C 13.25 33.316406 13.441406 33.132812 13.570312 33.28125 L 14.160156 33.945312 C 14.300781 34.105469 14.550781 34.097656 14.679688 33.933594 L 15.707031 32.621094 C 15.878906 32.402344 16.207031 32.382812 16.40625 32.578125 L 16.566406 32.742188 C 16.695312 32.867188 16.699219 33.074219 16.578125 33.207031 L 14.683594 35.300781 C 14.542969 35.457031 14.296875 35.449219 14.167969 35.285156 " fill-opacity="1" fill-rule="nonzero"/><path fill="#899c35" d="M 25.421875 12.609375 C 24.914062 13.109375 24.113281 13.714844 23.652344 13.675781 C 22.90625 13.617188 21.941406 12.613281 21.941406 12.613281 C 21.941406 12.613281 19.648438 10.96875 21.027344 9.367188 C 22.015625 8.21875 23.652344 10.058594 23.652344 10.058594 C 23.652344 10.058594 25.179688 8.109375 26.375 8.777344 C 27.816406 9.582031 26.308594 11.730469 25.421875 12.609375 Z M 27.066406 7.890625 C 25.332031 6.921875 23.65625 8.75 23.65625 8.75 C 23.027344 8.253906 22.167969 7.851562 21.355469 7.851562 C 20.03125 7.855469 19.042969 9.238281 19.238281 10.511719 C 19.460938 11.980469 20.972656 13.195312 22.066406 14.039062 C 22.402344 14.300781 22.753906 14.558594 23.15625 14.703125 C 24.363281 15.132812 25.445312 14.011719 26.222656 13.242188 C 27.507812 11.96875 29.152344 9.058594 27.066406 7.890625 " fill-opacity="1" fill-rule="nonzero"/><path fill="#899c35" d="M 30.183594 14.074219 C 29.675781 14.574219 28.875 15.179688 28.414062 15.140625 C 27.667969 15.082031 26.707031 14.078125 26.707031 14.078125 C 26.707031 14.078125 24.117188 12.433594 25.496094 10.828125 C 26.484375 9.679688 28.414062 11.523438 28.414062 11.523438 C 28.414062 11.523438 29.570312 9.714844 30.765625 10.382812 C 32.203125 11.1875 31.070312 13.195312 30.183594 14.074219 Z M 31.828125 9.355469 C 30.09375 8.386719 28.425781 10.460938 28.425781 10.460938 C 27.796875 9.964844 26.929688 9.316406 26.117188 9.320312 C 24.792969 9.320312 23.804688 10.707031 24 11.976562 C 24.222656 13.449219 25.734375 14.660156 26.828125 15.503906 C 27.164062 15.765625 27.515625 16.023438 27.917969 16.167969 C 29.125 16.597656 30.207031 15.476562 30.984375 14.707031 C 32.269531 13.433594 33.914062 10.523438 31.828125 9.355469 " fill-opacity="1" fill-rule="nonzero"/><path fill="#899c35" d="M 37.640625 19.765625 L 18.835938 19.765625 C 18.5 19.765625 18.230469 19.492188 18.230469 19.15625 C 18.230469 18.824219 18.5 18.550781 18.835938 18.550781 L 37.640625 18.550781 C 37.976562 18.550781 38.246094 18.824219 38.246094 19.15625 C 38.246094 19.492188 37.976562 19.765625 37.640625 19.765625 " fill-opacity="1" fill-rule="nonzero"/><path fill="#899c35" d="M 37.640625 23.601562 L 18.835938 23.601562 C 18.5 23.601562 18.230469 23.332031 18.230469 22.996094 C 18.230469 22.660156 18.5 22.386719 18.835938 22.386719 L 37.640625 22.386719 C 37.976562 22.386719 38.246094 22.660156 38.246094 22.996094 C 38.246094 23.332031 37.976562 23.601562 37.640625 23.601562 " fill-opacity="1" fill-rule="nonzero"/><path fill="#899c35" d="M 37.640625 27.441406 L 18.835938 27.441406 C 18.5 27.441406 18.230469 27.167969 18.230469 26.832031 C 18.230469 26.496094 18.5 26.226562 18.835938 26.226562 L 37.640625 26.226562 C 37.976562 26.226562 38.246094 26.496094 38.246094 26.832031 C 38.246094 27.167969 37.976562 27.441406 37.640625 27.441406 " fill-opacity="1" fill-rule="nonzero"/><path fill="#899c35" d="M 37.640625 31.277344 L 18.835938 31.277344 C 18.5 31.277344 18.230469 31.007812 18.230469 30.671875 C 18.230469 30.335938 18.5 30.0625 18.835938 30.0625 L 37.640625 30.0625 C 37.976562 30.0625 38.246094 30.335938 38.246094 30.671875 C 38.246094 31.007812 37.976562 31.277344 37.640625 31.277344 " fill-opacity="1" fill-rule="nonzero"/><path fill="#899c35" d="M 37.640625 35.117188 L 18.835938 35.117188 C 18.5 35.117188 18.230469 34.84375 18.230469 34.507812 C 18.230469 34.171875 18.5 33.902344 18.835938 33.902344 L 37.640625 33.902344 C 37.976562 33.902344 38.246094 34.171875 38.246094 34.507812 C 38.246094 34.84375 37.976562 35.117188 37.640625 35.117188 " fill-opacity="1" fill-rule="nonzero"/><path fill="#899c35" d="M 24.464844 43.085938 L 19.070312 43.085938 C 18.75 43.085938 18.488281 42.828125 18.488281 42.507812 C 18.488281 42.183594 18.75 41.925781 19.070312 41.925781 L 24.464844 41.925781 C 24.785156 41.925781 25.042969 42.183594 25.042969 42.507812 C 25.042969 42.828125 24.785156 43.085938 24.464844 43.085938 " fill-opacity="1" fill-rule="nonzero"/><path fill="#899c35" d="M 34.609375 37.730469 C 32.355469 37.492188 30.464844 39.382812 30.703125 41.636719 C 30.878906 43.277344 32.195312 44.597656 33.839844 44.769531 C 36.09375 45.007812 37.984375 43.121094 37.742188 40.867188 C 37.570312 39.226562 36.25 37.90625 34.609375 37.730469 Z M 34.632812 45.710938 C 31.84375 45.957031 29.515625 43.632812 29.765625 40.84375 C 29.957031 38.703125 31.675781 36.984375 33.816406 36.792969 C 36.605469 36.542969 38.929688 38.871094 38.683594 41.660156 C 38.492188 43.796875 36.769531 45.519531 34.632812 45.710938 " fill-opacity="1" fill-rule="nonzero"/><path fill="#899c35" d="M 36.5 41.695312 C 36.308594 41.628906 36.191406 41.4375 36.191406 41.238281 C 36.183594 40.164062 35.3125 39.292969 34.238281 39.285156 C 34.035156 39.28125 33.84375 39.167969 33.78125 38.972656 C 33.675781 38.648438 33.914062 38.347656 34.222656 38.347656 C 35.824219 38.347656 37.128906 39.648438 37.128906 41.25 C 37.128906 41.5625 36.824219 41.800781 36.5 41.695312 " fill-opacity="1" fill-rule="nonzero"/><path fill="#899c35" d="M 34.222656 44.15625 C 32.628906 44.15625 31.328125 42.859375 31.320312 41.265625 C 31.320312 41.039062 31.476562 40.832031 31.699219 40.792969 C 31.996094 40.734375 32.257812 40.964844 32.257812 41.25 C 32.257812 42.332031 33.136719 43.214844 34.21875 43.21875 C 34.453125 43.21875 34.664062 43.398438 34.6875 43.632812 C 34.71875 43.914062 34.5 44.15625 34.222656 44.15625 " fill-opacity="1" fill-rule="nonzero"/></svg>