<svg xmlns="http://www.w3.org/2000/svg" xmlns:xlink="http://www.w3.org/1999/xlink" width="70" zoomAndPan="magnify" viewBox="0 0 52.5 52.499999" height="70" preserveAspectRatio="xMidYMid meet" version="1.0"><defs><clipPath id="05f0deac84"><path d="M 6.257812 5.199219 L 45.632812 5.199219 L 45.632812 47.546875 L 6.257812 47.546875 Z M 6.257812 5.199219 " clip-rule="nonzero"/></clipPath></defs><g clip-path="url(#05f0deac84)"><path fill="#899c35" d="M 25.675781 40.597656 C 25.84375 40.773438 26.140625 40.773438 26.316406 40.597656 L 31.117188 35.804688 C 34.347656 32.285156 29.273438 27.601562 26 31.097656 C 23.917969 28.671875 19.855469 30.140625 19.871094 33.355469 C 19.871094 34.285156 20.238281 35.15625 20.894531 35.8125 Z M 21.515625 31.527344 C 22.480469 30.53125 24.199219 30.53125 25.164062 31.527344 C 25.164062 31.527344 25.675781 32.042969 25.675781 32.042969 C 25.84375 32.21875 26.140625 32.21875 26.308594 32.042969 C 26.90625 31.363281 27.695312 30.730469 28.652344 30.773438 C 30.902344 30.730469 32.105469 33.613281 30.476562 35.183594 C 30.476562 35.183594 25.992188 39.660156 25.992188 39.660156 L 21.515625 35.175781 C 20.503906 34.21875 20.503906 32.492188 21.515625 31.527344 Z M 45.277344 44.78125 L 42.777344 44.78125 L 42.777344 42.058594 C 43.210938 42.050781 44.03125 42.191406 44.015625 41.550781 L 42.835938 28.363281 C 43.234375 28.371094 43.988281 28.554688 44.015625 27.941406 C 44.015625 27.941406 44.015625 18.03125 44.015625 18.03125 L 45.277344 18.03125 C 45.527344 18.03125 45.726562 17.832031 45.726562 17.582031 L 45.726562 15.015625 C 45.710938 14.851562 45.632812 14.691406 45.476562 14.617188 L 26.183594 5.257812 C 26.058594 5.199219 25.917969 5.199219 25.792969 5.257812 L 6.507812 14.625 C 6.359375 14.703125 6.269531 14.859375 6.257812 15.027344 L 6.257812 17.59375 C 6.257812 17.839844 6.457031 18.039062 6.707031 18.039062 L 7.96875 18.039062 L 7.96875 27.949219 C 7.996094 28.5625 8.75 28.371094 9.148438 28.371094 L 7.96875 41.5625 C 7.953125 42.199219 8.785156 42.058594 9.207031 42.066406 L 9.207031 44.792969 L 6.707031 44.792969 C 6.457031 44.792969 6.257812 44.992188 6.257812 45.238281 L 6.257812 47.132812 C 6.257812 47.382812 6.457031 47.582031 6.707031 47.582031 L 45.285156 47.582031 C 45.535156 47.582031 45.734375 47.382812 45.734375 47.132812 L 45.734375 45.238281 C 45.726562 44.984375 45.527344 44.78125 45.277344 44.78125 Z M 43.085938 41.179688 C 41.964844 41.203125 40.75 40.914062 39.789062 40.339844 L 39.789062 27.714844 C 40.484375 27.964844 41.199219 28.164062 41.929688 28.273438 Z M 41.890625 41.992188 L 41.890625 44.78125 L 41.023438 44.78125 L 41.023438 41.808594 C 41.308594 41.894531 41.597656 41.941406 41.890625 41.992188 Z M 13.085938 38.164062 C 13.890625 37.921875 14.65625 37.582031 15.355469 37.140625 C 15.835938 36.835938 16.285156 36.484375 16.707031 36.078125 C 16.808594 35.988281 16.855469 35.855469 16.847656 35.714844 L 16.5 31.71875 C 17.621094 31.277344 19.089844 29.785156 19.207031 28.378906 C 19.207031 28.378906 17.976562 22.617188 17.976562 22.617188 C 18.71875 21.203125 19.140625 19.636719 19.207031 18.039062 L 32.785156 18.039062 C 32.851562 19.636719 33.269531 21.203125 34.015625 22.617188 L 32.785156 28.378906 C 32.902344 29.785156 34.371094 31.277344 35.492188 31.71875 L 35.144531 35.714844 C 35.136719 35.847656 35.1875 35.980469 35.285156 36.078125 C 36.316406 37.066406 37.546875 37.757812 38.914062 38.164062 L 38.914062 40.589844 C 38.964844 41.113281 39.753906 41.261719 40.152344 41.496094 L 40.152344 44.78125 L 11.847656 44.78125 L 11.847656 41.496094 C 12.214844 41.277344 13.042969 41.105469 13.085938 40.589844 C 13.085938 40.589844 13.085938 38.164062 13.085938 38.164062 Z M 15.945312 35.582031 C 15.113281 36.328125 14.148438 36.886719 13.085938 37.242188 L 13.085938 27.332031 C 13.808594 26.992188 14.480469 26.5625 15.113281 26.070312 C 15.34375 28.746094 15.710938 32.890625 15.945312 35.582031 Z M 15.945312 25.339844 C 16.449219 24.851562 16.890625 24.300781 17.304688 23.738281 L 18.308594 28.453125 C 18.054688 29.394531 17.222656 30.367188 16.417969 30.773438 C 16.308594 29.566406 16.042969 26.511719 15.945312 25.339844 Z M 36.007812 25.65625 L 35.558594 30.765625 C 34.769531 30.375 33.925781 29.394531 33.667969 28.457031 C 33.667969 28.457031 34.671875 23.738281 34.671875 23.738281 C 35.085938 24.300781 35.527344 24.851562 36.035156 25.339844 Z M 36.398438 31.476562 C 36.398438 31.476562 36.839844 26.410156 36.839844 26.410156 L 36.871094 26.070312 C 37.503906 26.5625 38.175781 26.992188 38.898438 27.332031 L 38.898438 37.234375 C 37.835938 36.886719 36.871094 36.328125 36.042969 35.574219 Z M 43.125 27.5 C 38.144531 27.359375 33.800781 23.046875 33.667969 18.046875 L 37.363281 18.046875 C 37.480469 21.835938 39.761719 25.433594 43.125 27.160156 Z M 43.125 26.136719 C 40.277344 24.484375 38.367188 21.347656 38.25 18.039062 L 43.125 18.039062 Z M 25.992188 6.15625 L 43.34375 14.578125 L 8.644531 14.578125 Z M 7.148438 17.152344 L 7.148438 15.472656 L 44.828125 15.472656 L 44.828125 17.152344 Z M 13.734375 18.039062 C 13.609375 21.347656 11.714844 24.476562 8.859375 26.136719 L 8.859375 18.039062 Z M 8.859375 27.5 L 8.859375 27.160156 C 12.230469 25.421875 14.507812 21.84375 14.621094 18.046875 L 18.320312 18.046875 C 18.1875 23.039062 13.84375 27.351562 8.859375 27.5 Z M 8.902344 41.179688 L 10.046875 28.273438 C 10.777344 28.164062 11.5 27.964844 12.199219 27.714844 C 12.199219 29.578125 12.199219 38.679688 12.199219 40.339844 C 11.191406 40.921875 10.0625 41.195312 8.902344 41.179688 Z M 10.953125 41.816406 L 10.953125 44.792969 L 10.097656 44.792969 L 10.097656 42 C 10.386719 41.941406 10.679688 41.894531 10.953125 41.816406 Z M 44.835938 46.683594 L 7.148438 46.683594 L 7.148438 45.679688 L 44.828125 45.679688 L 44.828125 46.683594 Z M 33.839844 11.953125 L 26.191406 8.230469 C 26.066406 8.171875 25.925781 8.171875 25.800781 8.230469 L 18.152344 11.953125 C 17.738281 12.144531 17.886719 12.816406 18.34375 12.800781 C 18.34375 12.800781 33.648438 12.800781 33.648438 12.800781 C 34.097656 12.816406 34.265625 12.144531 33.839844 11.953125 Z M 20.277344 11.910156 L 25.992188 9.136719 L 31.707031 11.910156 Z M 20.277344 11.910156 " fill-opacity="1" fill-rule="nonzero"/></g></svg>