<svg xmlns="http://www.w3.org/2000/svg" xmlns:xlink="http://www.w3.org/1999/xlink" width="70" zoomAndPan="magnify" viewBox="0 0 52.5 52.499999" height="70" preserveAspectRatio="xMidYMid meet" version="1.0"><defs><clipPath id="5cc2949815"><path d="M 6 0 L 49.433594 0 L 49.433594 45 L 6 45 Z M 6 0 " clip-rule="nonzero"/></clipPath></defs><g clip-path="url(#5cc2949815)"><path fill="#769a8c" d="M 74.867188 -5.078125 C 75.03125 -4.660156 75.164062 -3.953125 75.164062 -3.507812 C 75.167969 -3.011719 75.445312 -3.234375 75.890625 -4.085938 C 76.808594 -5.84375 76.808594 -5.84375 75.59375 -5.84375 C 74.863281 -5.84375 74.660156 -5.628906 74.867188 -5.078125 M 74.546875 0.195312 C 74.289062 2.203125 74.40625 4.363281 74.925781 7.203125 C 75.339844 9.464844 75.800781 12.074219 75.949219 13.003906 L 76.21875 14.695312 L 75.132812 13.003906 C 74.535156 12.074219 73.503906 10.234375 72.839844 8.917969 C 71.707031 6.679688 71.585938 6.582031 71 7.464844 C 68.957031 10.542969 68.800781 10.539062 69.066406 7.445312 C 69.203125 5.851562 69.453125 4.003906 69.613281 3.339844 C 69.859375 2.339844 69.820312 2.273438 69.386719 2.949219 C 69.097656 3.402344 68.566406 5.6875 68.203125 8.023438 C 67.84375 10.363281 67 13.4375 66.332031 14.851562 L 65.109375 17.429688 L 64.046875 14.613281 C 63.183594 12.332031 63.027344 11.152344 63.234375 8.414062 C 63.371094 6.550781 63.613281 4.59375 63.773438 4.0625 C 63.929688 3.53125 63.726562 3.8125 63.320312 4.6875 C 62.035156 7.4375 61.886719 11.460938 62.957031 14.265625 L 63.902344 16.738281 L 61.25 15.234375 C 59.789062 14.40625 58.210938 13.109375 57.746094 12.351562 C 56.722656 10.695312 56.589844 10.96875 55.84375 16.265625 C 55.457031 19.03125 55.496094 20.183594 56.035156 21.746094 L 56.714844 23.726562 L 55.636719 22.714844 C 55.046875 22.15625 54.339844 21.703125 54.066406 21.703125 C 53.207031 21.703125 52.449219 24.066406 52.449219 26.757812 C 52.449219 29.035156 52.621094 29.492188 53.878906 30.554688 C 54.667969 31.214844 55.519531 31.832031 55.773438 31.925781 C 56.027344 32.015625 55.703125 33.664062 55.050781 35.609375 C 54.253906 37.976562 54.007812 39.382812 54.300781 39.90625 C 54.648438 40.523438 55.132812 39.941406 56.609375 37.132812 C 58.886719 32.792969 62.402344 29.191406 66.238281 27.257812 C 68.835938 25.953125 69.574219 25.808594 73.710938 25.808594 C 77.796875 25.808594 78.59375 25.960938 80.960938 27.171875 C 84.359375 28.917969 85.925781 30.402344 88.308594 34.144531 C 89.363281 35.808594 90.425781 37.167969 90.667969 37.167969 C 91.472656 37.167969 91.128906 35.210938 89.851562 32.515625 C 88.636719 29.949219 88.625 29.832031 89.488281 29.175781 C 89.980469 28.804688 90.558594 28.492188 90.773438 28.484375 C 91.523438 28.453125 92.578125 25.089844 92.257812 23.753906 C 91.851562 22.058594 90.226562 18.800781 89.789062 18.800781 C 89.605469 18.800781 88.578125 19.648438 87.503906 20.683594 C 86.429688 21.71875 85.097656 22.699219 84.539062 22.867188 L 83.527344 23.167969 L 84.402344 19.414062 C 84.882812 17.351562 85.613281 14.140625 86.023438 12.277344 C 86.433594 10.417969 87.203125 8.304688 87.734375 7.585938 C 88.792969 6.140625 88.90625 5.753906 88.265625 5.753906 C 88.03125 5.753906 87.699219 6.136719 87.527344 6.601562 C 87.355469 7.066406 86.800781 8.207031 86.292969 9.136719 C 85.785156 10.066406 85.222656 11.75 85.042969 12.878906 C 84.601562 15.664062 83.96875 15.050781 83.929688 11.796875 C 83.910156 10.332031 83.574219 8.046875 83.179688 6.71875 C 82.785156 5.390625 82.585938 4.304688 82.738281 4.304688 C 82.890625 4.304688 82.734375 3.96875 82.394531 3.558594 C 81.964844 3.042969 81.621094 2.96875 81.273438 3.316406 C 80.925781 3.664062 81.003906 4.003906 81.527344 4.421875 C 81.941406 4.757812 82.527344 6.316406 82.828125 7.890625 C 83.632812 12.082031 83.535156 12.515625 82.171875 10.84375 L 81 9.410156 L 80.253906 11.191406 C 79.847656 12.171875 79.511719 13.109375 79.511719 13.28125 C 79.511719 13.449219 79.011719 14.183594 78.398438 14.910156 L 77.285156 16.234375 L 76.378906 11.355469 C 75.882812 8.675781 75.347656 4.414062 75.195312 1.886719 L 74.921875 -2.703125 Z M 70.328125 -0.808594 C 70.328125 -0.390625 70.675781 -0.0429688 71.09375 -0.0429688 C 71.515625 -0.0429688 71.773438 -0.304688 71.667969 -0.617188 C 71.371094 -1.515625 70.328125 -1.664062 70.328125 -0.808594 M 63.644531 1.71875 C 63.738281 2.203125 64.214844 2.679688 64.699219 2.773438 C 65.339844 2.894531 65.539062 2.695312 65.414062 2.058594 C 65.320312 1.574219 64.847656 1.097656 64.359375 1.003906 C 63.722656 0.882812 63.523438 1.078125 63.644531 1.71875 M 64.046875 1.886719 C 64.046875 2.152344 64.277344 2.371094 64.558594 2.371094 C 64.839844 2.371094 64.9375 2.152344 64.773438 1.886719 C 64.609375 1.621094 64.378906 1.40625 64.261719 1.40625 C 64.144531 1.40625 64.046875 1.621094 64.046875 1.886719 M 16.953125 8.285156 C 15.964844 8.835938 14.753906 11.519531 14.753906 13.15625 C 14.753906 13.792969 15.265625 15.269531 15.890625 16.441406 L 17.023438 18.578125 L 14.078125 18.570312 C 10.703125 18.558594 8.152344 19.453125 7.726562 20.796875 C 7.402344 21.824219 9.042969 24.828125 10.167969 25.261719 C 10.730469 25.476562 10.617188 25.792969 9.628906 26.785156 C 8.261719 28.148438 8.320312 29.855469 9.789062 31.480469 C 10.480469 32.25 10.4375 32.476562 9.289062 34.140625 C 7.378906 36.90625 6.539062 39.300781 6.539062 41.984375 C 6.539062 44.828125 7.25 45.207031 7.734375 42.621094 C 8.765625 37.121094 14.257812 31.589844 20.542969 29.722656 C 25.480469 28.257812 31.667969 29.03125 36.679688 31.746094 C 39.121094 33.066406 44.160156 37.699219 45.882812 40.203125 C 46.410156 40.964844 46.992188 41.367188 47.230469 41.128906 C 47.882812 40.476562 46.027344 36.65625 43.605469 33.6875 L 41.425781 31.007812 L 42.34375 29.617188 C 44.03125 27.058594 43.109375 24.601562 40.464844 24.601562 L 39.183594 24.601562 L 40.261719 23.847656 C 41.707031 22.835938 42.902344 20.421875 42.535156 19.261719 C 42.371094 18.746094 41.652344 18.160156 40.9375 17.960938 C 38.691406 17.335938 34.410156 17.605469 32.753906 18.480469 C 31.890625 18.9375 31.183594 19.242188 31.183594 19.160156 C 31.183594 19.074219 31.621094 18.152344 32.152344 17.109375 C 33.09375 15.261719 33.421875 11.941406 32.816406 10.367188 C 32.441406 9.382812 30.140625 8.171875 28.660156 8.171875 C 28.039062 8.171875 27.023438 8.527344 26.398438 8.964844 C 25.34375 9.707031 25.230469 9.707031 24.816406 8.964844 C 24.257812 7.96875 22.796875 7.9375 21.992188 8.90625 C 21.46875 9.539062 21.269531 9.546875 20.605469 8.976562 C 19.507812 8.03125 17.933594 7.734375 16.953125 8.285156 M 16.40625 10.847656 C 15.15625 13.84375 16.0625 15.730469 20.910156 20.195312 C 25.578125 24.492188 26.027344 25.894531 21.671875 22.550781 C 17.699219 19.503906 14.332031 18.804688 9.800781 20.078125 C 7.804688 20.640625 9.335938 23.773438 12.378906 25.347656 C 14.335938 26.359375 18.308594 26.132812 18.523438 24.996094 C 18.75 23.804688 16.503906 22.449219 15.382812 23.097656 C 14.570312 23.574219 14.570312 23.605469 15.359375 23.621094 C 15.824219 23.628906 16.203125 23.851562 16.203125 24.117188 C 16.203125 24.898438 13.964844 24.671875 13.261719 23.824219 C 11.789062 22.054688 16.308594 20.910156 18.558594 22.488281 C 19.449219 23.109375 19.636719 23.613281 19.484375 24.933594 C 19.3125 26.421875 19.398438 26.570312 20.285156 26.324219 C 20.832031 26.175781 22.066406 25.917969 23.023438 25.757812 C 24.367188 25.535156 24.941406 25.113281 25.496094 23.945312 C 25.894531 23.109375 27.449219 20.71875 28.945312 18.628906 C 31.238281 15.4375 31.667969 14.507812 31.667969 12.769531 C 31.667969 10.3125 30.878906 9.496094 28.695312 9.707031 C 27.519531 9.820312 26.820312 10.289062 26.003906 11.503906 C 24.898438 13.148438 24.515625 16.089844 25.34375 16.601562 C 26.492188 17.3125 28.695312 14.796875 28.132812 13.414062 C 27.953125 12.972656 27.757812 13.117188 27.535156 13.847656 C 27.355469 14.445312 27.015625 14.9375 26.777344 14.9375 C 26.082031 14.9375 26.289062 14.152344 27.308594 12.9375 C 28.128906 11.957031 28.339844 11.898438 28.773438 12.519531 C 29.359375 13.359375 29.027344 15.734375 28.179688 16.753906 C 27.253906 17.871094 25.4375 18.382812 24.386719 17.820312 C 23.742188 17.472656 23.453125 17.472656 23.453125 17.820312 C 23.453125 18.910156 20.625 18.320312 19.597656 17.015625 C 18.34375 15.421875 18.394531 12.375 19.679688 12.132812 C 20.699219 11.9375 22.328125 14.804688 21.609375 15.523438 C 21.296875 15.835938 21.023438 15.484375 20.804688 14.507812 C 20.367188 12.507812 19.585938 12.109375 19.585938 13.886719 C 19.585938 15.703125 21.082031 17.625 22.167969 17.207031 C 23.207031 16.808594 23.179688 15.988281 22.03125 13.316406 C 20.15625 8.941406 17.660156 7.84375 16.40625 10.847656 M 22.710938 9.648438 C 22.289062 10.328125 22.863281 12.519531 23.460938 12.519531 C 23.722656 12.519531 23.9375 11.757812 23.9375 10.828125 C 23.9375 9.183594 23.347656 8.617188 22.710938 9.648438 M 69.4375 11.4375 C 66.789062 15.5625 65.953125 17.933594 66.472656 19.828125 C 67.167969 22.335938 67.949219 23.132812 69.417969 22.835938 C 70.601562 22.597656 70.667969 22.441406 70.445312 20.449219 C 70.292969 19.109375 70.394531 18.320312 70.722656 18.320312 C 71.003906 18.320312 71.304688 19.136719 71.386719 20.132812 C 71.523438 21.769531 71.683594 21.957031 73.042969 22.089844 C 74.273438 22.210938 74.609375 22.03125 74.851562 21.125 C 75.59375 18.351562 75.160156 15.867188 73.351562 12.511719 C 72.351562 10.664062 71.398438 9.148438 71.226562 9.144531 C 71.054688 9.140625 70.25 10.171875 69.4375 11.4375 M 80.507812 13.753906 C 79.925781 14.804688 78.707031 16.71875 77.789062 18.011719 C 75.824219 20.789062 75.617188 22.523438 77.214844 22.769531 C 78.019531 22.890625 78.597656 22.492188 79.433594 21.230469 C 80.425781 19.738281 80.535156 19.675781 80.34375 20.734375 C 80.226562 21.398438 80.042969 22.265625 79.941406 22.65625 C 79.828125 23.089844 80.152344 23.433594 80.773438 23.527344 C 81.535156 23.644531 81.957031 23.285156 82.464844 22.089844 C 83.363281 19.953125 83.289062 15.0625 82.324219 13.273438 L 81.558594 11.847656 Z M 57.09375 15.5 C 56.933594 16.320312 56.796875 18.070312 56.796875 19.394531 C 56.796875 21.421875 57.015625 22 58.195312 23.101562 C 59.535156 24.355469 63.015625 25.792969 63.511719 25.300781 C 63.640625 25.167969 63.273438 24.730469 62.691406 24.324219 C 62.113281 23.917969 61.386719 23.121094 61.085938 22.550781 C 60.640625 21.722656 60.929688 21.832031 62.511719 23.085938 C 64.25 24.460938 64.632812 24.582031 65.601562 24.078125 C 66.207031 23.761719 66.773438 23.445312 66.859375 23.375 C 66.941406 23.304688 66.460938 22.160156 65.785156 20.832031 C 64.597656 18.480469 62.546875 16.386719 61.4375 16.386719 C 61.132812 16.386719 60.101562 15.851562 59.140625 15.199219 L 57.394531 14.011719 Z M 35.398438 18.847656 C 32.5625 19.515625 30.984375 20.507812 28.777344 23.015625 L 26.742188 25.328125 L 28.84375 25.632812 C 29.996094 25.800781 31.800781 26.175781 32.847656 26.464844 C 34.675781 26.96875 36.039062 26.828125 34.394531 26.304688 C 33.957031 26.164062 33.273438 25.949219 32.875 25.824219 C 30.742188 25.15625 33.289062 21.21875 35.855469 21.21875 C 37.019531 21.21875 37.90625 22.414062 37.21875 23.050781 C 37.015625 23.238281 36.753906 23.121094 36.636719 22.789062 C 36.320312 21.902344 35.378906 22.050781 34.164062 23.179688 C 32.054688 25.144531 34.648438 25.800781 37.925781 24.132812 C 39.898438 23.125 41.816406 21.054688 41.816406 19.933594 C 41.816406 18.539062 38.847656 18.035156 35.398438 18.847656 M 87.714844 21.957031 C 86.792969 22.90625 85.40625 23.753906 84.496094 23.925781 C 82.511719 24.296875 82.488281 24.636719 84.367188 25.746094 C 85.730469 26.550781 85.925781 26.558594 87.023438 25.839844 C 88.4375 24.914062 88.640625 25.695312 87.242188 26.675781 C 86.277344 27.351562 86.277344 27.351562 87.242188 28.222656 C 88.179688 29.074219 88.246094 29.054688 89.660156 27.578125 C 90.457031 26.742188 91.109375 25.679688 91.105469 25.210938 C 91.101562 23.957031 90.167969 20.808594 89.71875 20.53125 C 89.503906 20.398438 88.601562 21.039062 87.714844 21.957031 M 53.714844 23.777344 C 53.0625 26.203125 53.398438 28.898438 54.472656 29.898438 C 56.316406 31.617188 58.707031 30.796875 57.085938 29.003906 C 56.664062 28.535156 56.324219 27.839844 56.332031 27.464844 C 56.34375 27.050781 56.785156 27.308594 57.441406 28.109375 L 58.53125 29.441406 L 60.117188 27.808594 C 61.660156 26.214844 61.671875 26.175781 60.503906 26.402344 C 59.632812 26.566406 58.574219 26.09375 56.652344 24.671875 C 54.082031 22.773438 53.992188 22.746094 53.714844 23.777344 M 69.441406 23.894531 C 64.625 24.9375 60.402344 27.941406 57.65625 32.273438 C 56.945312 33.402344 57.507812 33.027344 59.738281 30.882812 C 61.480469 29.207031 64.148438 27.28125 65.949219 26.394531 C 68.867188 24.960938 69.472656 24.84375 73.945312 24.84375 C 78.308594 24.84375 79.050781 24.976562 81.445312 26.207031 C 82.90625 26.960938 84.644531 28.042969 85.308594 28.621094 C 85.976562 29.195312 85.800781 28.886719 84.925781 27.933594 C 82.980469 25.816406 80.007812 24.277344 76.613281 23.636719 C 73.523438 23.050781 73.292969 23.058594 69.441406 23.894531 M 37.710938 26.308594 C 36.644531 26.691406 35.671875 27.007812 35.546875 27.011719 C 35.277344 27.019531 36.550781 27.886719 39.03125 29.382812 L 40.832031 30.46875 L 41.644531 28.765625 C 42.3125 27.367188 42.347656 26.929688 41.835938 26.316406 C 41.078125 25.402344 40.222656 25.402344 37.710938 26.308594 M 10.242188 27.339844 C 9.734375 27.847656 9.867188 29.84375 10.476562 30.820312 C 10.996094 31.652344 11.179688 31.597656 13.386719 29.96875 L 15.738281 28.226562 L 13.917969 27.660156 C 11.769531 26.992188 10.6875 26.898438 10.242188 27.339844 M 16.597656 27.347656 C 16.945312 27.488281 17.363281 27.46875 17.523438 27.308594 C 17.683594 27.148438 17.398438 27.035156 16.890625 27.054688 C 16.324219 27.078125 16.210938 27.195312 16.597656 27.347656 M 20.796875 27.695312 C 17.90625 28.613281 15.226562 30.148438 13.0625 32.128906 C 11.375 33.671875 11.34375 33.734375 12.820312 32.609375 C 19.8125 27.296875 28.238281 26.546875 36.257812 30.523438 C 37.855469 31.3125 39.539062 32.292969 40.003906 32.703125 C 40.46875 33.113281 40.847656 33.253906 40.84375 33.011719 C 40.828125 32.070312 35.734375 28.902344 32.765625 27.984375 C 29.179688 26.878906 23.785156 26.746094 20.796875 27.695312 " fill-opacity="1" fill-rule="evenodd"/></g></svg>