<svg xmlns="http://www.w3.org/2000/svg" xmlns:xlink="http://www.w3.org/1999/xlink" width="70" zoomAndPan="magnify" viewBox="0 0 52.5 52.499999" height="70" preserveAspectRatio="xMidYMid meet" version="1.0"><defs><clipPath id="267311f342"><path d="M 3.640625 3 L 45 3 L 45 52 L 3.640625 52 Z M 3.640625 3 " clip-rule="nonzero"/></clipPath></defs><g clip-path="url(#267311f342)"><path fill="#769a8c" d="M 27.539062 4.074219 C 27.695312 4.480469 27.820312 5.160156 27.824219 5.585938 C 27.824219 6.066406 28.09375 5.851562 28.519531 5.03125 C 29.40625 3.335938 29.40625 3.339844 28.234375 3.339844 C 27.535156 3.339844 27.335938 3.546875 27.539062 4.074219 M 27.230469 9.152344 C 26.980469 11.085938 27.09375 13.164062 27.59375 15.902344 C 27.992188 18.074219 28.433594 20.585938 28.578125 21.484375 L 28.839844 23.113281 L 27.792969 21.484375 C 27.21875 20.585938 26.222656 18.816406 25.582031 17.546875 C 24.496094 15.394531 24.378906 15.304688 23.8125 16.152344 C 21.847656 19.113281 21.695312 19.113281 21.953125 16.132812 C 22.085938 14.597656 22.324219 12.816406 22.480469 12.179688 C 22.71875 11.214844 22.679688 11.152344 22.257812 11.804688 C 21.980469 12.242188 21.46875 14.4375 21.121094 16.691406 C 20.777344 18.941406 19.964844 21.902344 19.320312 23.265625 L 18.144531 25.742188 L 17.117188 23.03125 C 16.289062 20.835938 16.140625 19.699219 16.335938 17.0625 C 16.46875 15.273438 16.703125 13.386719 16.855469 12.875 C 17.007812 12.363281 16.8125 12.636719 16.417969 13.476562 C 15.183594 16.125 15.039062 20 16.070312 22.699219 L 16.980469 25.078125 L 14.425781 23.628906 C 13.019531 22.832031 11.5 21.585938 11.050781 20.855469 C 10.066406 19.261719 9.9375 19.523438 9.222656 24.621094 C 8.847656 27.285156 8.886719 28.394531 9.40625 29.902344 L 10.0625 31.808594 L 9.023438 30.832031 C 8.453125 30.296875 7.773438 29.859375 7.511719 29.859375 C 6.683594 29.859375 5.953125 32.136719 5.953125 34.722656 C 5.953125 36.917969 6.121094 37.359375 7.332031 38.378906 C 8.089844 39.019531 8.910156 39.613281 9.15625 39.699219 C 9.398438 39.789062 9.089844 41.375 8.457031 43.246094 C 7.691406 45.527344 7.457031 46.878906 7.738281 47.386719 C 8.070312 47.976562 8.539062 47.417969 9.957031 44.710938 C 12.152344 40.535156 15.535156 37.066406 19.230469 35.207031 C 21.730469 33.949219 22.441406 33.8125 26.425781 33.8125 C 30.359375 33.8125 31.125 33.957031 33.402344 35.125 C 36.675781 36.804688 38.183594 38.234375 40.476562 41.839844 C 41.492188 43.4375 42.519531 44.746094 42.75 44.746094 C 43.523438 44.746094 43.191406 42.863281 41.964844 40.269531 C 40.792969 37.796875 40.78125 37.683594 41.613281 37.054688 C 42.089844 36.695312 42.644531 36.394531 42.847656 36.386719 C 43.570312 36.359375 44.589844 33.117188 44.277344 31.832031 C 43.886719 30.203125 42.324219 27.066406 41.902344 27.066406 C 41.726562 27.066406 40.734375 27.882812 39.703125 28.878906 C 38.667969 29.875 37.386719 30.820312 36.847656 30.980469 L 35.875 31.269531 L 36.714844 27.65625 C 37.179688 25.667969 37.882812 22.578125 38.277344 20.785156 C 38.671875 18.996094 39.414062 16.960938 39.921875 16.269531 C 40.945312 14.878906 41.050781 14.503906 40.4375 14.503906 C 40.210938 14.503906 39.890625 14.871094 39.726562 15.320312 C 39.5625 15.765625 39.027344 16.867188 38.539062 17.761719 C 38.046875 18.65625 37.507812 20.277344 37.335938 21.363281 C 36.910156 24.046875 36.296875 23.457031 36.261719 20.320312 C 36.246094 18.910156 35.917969 16.710938 35.539062 15.433594 C 35.160156 14.15625 34.96875 13.109375 35.113281 13.109375 C 35.257812 13.109375 35.109375 12.785156 34.785156 12.390625 C 34.371094 11.894531 34.039062 11.824219 33.703125 12.15625 C 33.371094 12.492188 33.445312 12.820312 33.949219 13.222656 C 34.347656 13.542969 34.914062 15.046875 35.203125 16.558594 C 35.976562 20.597656 35.882812 21.011719 34.570312 19.40625 L 33.441406 18.023438 L 32.722656 19.738281 C 32.332031 20.683594 32.007812 21.585938 32.007812 21.75 C 32.007812 21.914062 31.527344 22.621094 30.9375 23.320312 L 29.867188 24.59375 L 28.992188 19.898438 C 28.511719 17.316406 28 13.214844 27.855469 10.78125 L 27.589844 6.363281 Z M 23.167969 8.183594 C 23.167969 8.589844 23.5 8.921875 23.90625 8.921875 C 24.308594 8.921875 24.558594 8.671875 24.457031 8.371094 C 24.167969 7.507812 23.167969 7.363281 23.167969 8.183594 M 16.734375 10.617188 C 16.824219 11.085938 17.28125 11.542969 17.75 11.632812 C 18.363281 11.753906 18.554688 11.5625 18.4375 10.945312 C 18.347656 10.476562 17.890625 10.019531 17.421875 9.929688 C 16.808594 9.8125 16.617188 10.003906 16.734375 10.617188 M 17.121094 10.78125 C 17.121094 11.039062 17.339844 11.246094 17.613281 11.246094 C 17.882812 11.246094 17.976562 11.039062 17.816406 10.78125 C 17.660156 10.527344 17.4375 10.316406 17.324219 10.316406 C 17.210938 10.316406 17.121094 10.527344 17.121094 10.78125 M -28.21875 16.9375 C -29.171875 17.472656 -30.335938 20.054688 -30.335938 21.632812 C -30.335938 22.242188 -29.84375 23.664062 -29.242188 24.796875 L -28.152344 26.851562 L -30.988281 26.84375 C -34.234375 26.832031 -36.691406 27.695312 -37.101562 28.984375 C -37.414062 29.976562 -35.835938 32.867188 -34.75 33.285156 C -34.210938 33.492188 -34.316406 33.796875 -35.269531 34.75 C -36.585938 36.066406 -36.53125 37.707031 -35.117188 39.273438 C -34.453125 40.015625 -34.492188 40.230469 -35.597656 41.832031 C -37.4375 44.496094 -38.246094 46.800781 -38.246094 49.382812 C -38.246094 52.121094 -37.5625 52.488281 -37.09375 49.996094 C -36.101562 44.703125 -30.8125 39.378906 -24.761719 37.582031 C -20.007812 36.167969 -14.054688 36.914062 -9.226562 39.527344 C -6.878906 40.796875 -2.027344 45.257812 -0.367188 47.671875 C 0.136719 48.402344 0.699219 48.789062 0.929688 48.5625 C 1.558594 47.929688 -0.230469 44.257812 -2.558594 41.398438 L -4.660156 38.820312 L -3.777344 37.480469 C -2.152344 35.015625 -3.035156 32.648438 -5.582031 32.648438 L -6.816406 32.648438 L -5.777344 31.921875 C -4.386719 30.949219 -3.238281 28.628906 -3.589844 27.507812 C -3.75 27.011719 -4.441406 26.449219 -5.128906 26.257812 C -7.292969 25.652344 -11.414062 25.914062 -13.003906 26.757812 C -13.835938 27.195312 -14.519531 27.488281 -14.519531 27.410156 C -14.519531 27.328125 -14.097656 26.441406 -13.585938 25.4375 C -12.679688 23.660156 -12.363281 20.460938 -12.945312 18.945312 C -13.308594 18 -15.523438 16.832031 -16.949219 16.832031 C -17.546875 16.832031 -18.523438 17.175781 -19.125 17.597656 C -20.140625 18.308594 -20.25 18.308594 -20.648438 17.597656 C -21.1875 16.636719 -22.59375 16.605469 -23.367188 17.539062 C -23.871094 18.148438 -24.0625 18.15625 -24.703125 17.605469 C -25.757812 16.695312 -27.273438 16.410156 -28.21875 16.9375 M -28.746094 19.40625 C -29.949219 22.292969 -29.074219 24.109375 -24.40625 28.410156 C -19.914062 32.546875 -19.480469 33.894531 -23.679688 30.675781 C -27.503906 27.742188 -30.742188 27.066406 -35.105469 28.296875 C -37.027344 28.835938 -35.550781 31.851562 -32.625 33.367188 C -30.738281 34.339844 -26.914062 34.121094 -26.707031 33.027344 C -26.488281 31.882812 -28.652344 30.574219 -29.730469 31.203125 C -30.511719 31.660156 -30.515625 31.691406 -29.753906 31.707031 C -29.308594 31.710938 -28.941406 31.929688 -28.941406 32.183594 C -28.941406 32.933594 -31.09375 32.71875 -31.773438 31.902344 C -33.1875 30.195312 -28.839844 29.097656 -26.671875 30.613281 C -25.816406 31.214844 -25.632812 31.699219 -25.78125 32.96875 C -25.949219 34.402344 -25.867188 34.542969 -25.011719 34.308594 C -24.484375 34.164062 -23.296875 33.917969 -22.375 33.761719 C -21.082031 33.546875 -20.53125 33.140625 -19.992188 32.019531 C -19.609375 31.214844 -18.117188 28.910156 -16.675781 26.902344 C -14.46875 23.824219 -14.050781 22.933594 -14.050781 21.257812 C -14.050781 18.890625 -14.8125 18.109375 -16.914062 18.3125 C -18.046875 18.421875 -18.71875 18.871094 -19.503906 20.039062 C -20.566406 21.625 -20.9375 24.457031 -20.144531 24.945312 C -19.035156 25.632812 -16.914062 23.210938 -17.457031 21.878906 C -17.628906 21.457031 -17.816406 21.59375 -18.03125 22.296875 C -18.203125 22.875 -18.535156 23.34375 -18.757812 23.34375 C -19.429688 23.34375 -19.230469 22.589844 -18.25 21.417969 C -17.460938 20.476562 -17.257812 20.417969 -16.839844 21.019531 C -16.277344 21.828125 -16.59375 24.113281 -17.410156 25.09375 C -18.300781 26.167969 -20.050781 26.660156 -21.0625 26.121094 C -21.683594 25.789062 -21.960938 25.789062 -21.960938 26.121094 C -21.960938 27.171875 -24.683594 26.605469 -25.671875 25.347656 C -26.878906 23.8125 -26.832031 20.878906 -25.59375 20.644531 C -24.613281 20.457031 -23.042969 23.21875 -23.734375 23.910156 C -24.035156 24.210938 -24.300781 23.871094 -24.507812 22.929688 C -24.933594 21.003906 -25.683594 20.625 -25.683594 22.335938 C -25.683594 24.082031 -24.246094 25.933594 -23.199219 25.53125 C -22.199219 25.148438 -22.226562 24.355469 -23.328125 21.785156 C -25.132812 17.570312 -27.539062 16.515625 -28.746094 19.40625 M -22.675781 18.253906 C -23.082031 18.910156 -22.53125 21.019531 -21.953125 21.019531 C -21.703125 21.019531 -21.496094 20.285156 -21.496094 19.390625 C -21.496094 17.804688 -22.0625 17.261719 -22.675781 18.253906 M 22.308594 19.976562 C 19.761719 23.949219 18.953125 26.230469 19.457031 28.050781 C 20.125 30.46875 20.875 31.238281 22.292969 30.949219 C 23.429688 30.71875 23.496094 30.570312 23.277344 28.652344 C 23.132812 27.363281 23.230469 26.601562 23.546875 26.601562 C 23.820312 26.601562 24.109375 27.386719 24.1875 28.347656 C 24.316406 29.921875 24.472656 30.105469 25.78125 30.230469 C 26.964844 30.347656 27.285156 30.175781 27.519531 29.300781 C 28.234375 26.632812 27.820312 24.238281 26.074219 21.011719 C 25.117188 19.230469 24.195312 17.773438 24.03125 17.769531 C 23.867188 17.765625 23.089844 18.757812 22.308594 19.976562 M 32.964844 22.207031 C 32.410156 23.214844 31.230469 25.058594 30.351562 26.304688 C 28.460938 28.980469 28.257812 30.648438 29.796875 30.882812 C 30.574219 31.003906 31.128906 30.617188 31.933594 29.40625 C 32.886719 27.964844 32.996094 27.90625 32.8125 28.925781 C 32.695312 29.566406 32.519531 30.398438 32.421875 30.777344 C 32.3125 31.195312 32.625 31.523438 33.222656 31.617188 C 33.957031 31.730469 34.363281 31.382812 34.851562 30.230469 C 35.71875 28.175781 35.644531 23.464844 34.71875 21.742188 L 33.980469 20.371094 Z M 10.425781 23.886719 C 10.269531 24.675781 10.140625 26.363281 10.140625 27.636719 C 10.140625 29.585938 10.351562 30.148438 11.484375 31.207031 C 12.773438 32.410156 16.128906 33.796875 16.601562 33.320312 C 16.730469 33.195312 16.375 32.773438 15.816406 32.382812 C 15.257812 31.992188 14.558594 31.222656 14.265625 30.675781 C 13.839844 29.878906 14.117188 29.980469 15.640625 31.1875 C 17.3125 32.511719 17.683594 32.632812 18.613281 32.148438 C 19.199219 31.84375 19.746094 31.539062 19.828125 31.46875 C 19.90625 31.402344 19.441406 30.300781 18.792969 29.019531 C 17.648438 26.757812 15.675781 24.742188 14.605469 24.742188 C 14.316406 24.742188 13.320312 24.226562 12.398438 23.597656 L 10.714844 22.453125 Z M -10.460938 27.109375 C -13.191406 27.75 -14.710938 28.707031 -16.835938 31.121094 L -18.796875 33.347656 L -16.773438 33.640625 C -15.660156 33.804688 -13.925781 34.164062 -12.914062 34.445312 C -11.15625 34.929688 -9.84375 34.792969 -11.425781 34.289062 C -11.847656 34.15625 -12.503906 33.945312 -12.890625 33.828125 C -14.945312 33.183594 -12.492188 29.394531 -10.019531 29.394531 C -8.902344 29.394531 -8.046875 30.542969 -8.707031 31.15625 C -8.902344 31.339844 -9.15625 31.226562 -9.269531 30.90625 C -9.574219 30.050781 -10.480469 30.195312 -11.648438 31.28125 C -13.679688 33.171875 -11.183594 33.804688 -8.03125 32.199219 C -6.128906 31.226562 -4.28125 29.238281 -4.28125 28.15625 C -4.28125 26.8125 -7.140625 26.328125 -10.460938 27.109375 M 39.90625 30.105469 C 39.019531 31.015625 37.683594 31.835938 36.808594 32 C 34.898438 32.355469 34.875 32.683594 36.683594 33.75 C 37.996094 34.527344 38.183594 34.535156 39.242188 33.839844 C 40.601562 32.949219 40.796875 33.703125 39.453125 34.644531 C 38.523438 35.296875 38.523438 35.296875 39.449219 36.136719 C 40.355469 36.957031 40.417969 36.9375 41.777344 35.515625 C 42.546875 34.710938 43.171875 33.6875 43.171875 33.234375 C 43.167969 32.03125 42.269531 28.996094 41.835938 28.730469 C 41.628906 28.601562 40.761719 29.222656 39.90625 30.105469 M 7.171875 31.855469 C 6.546875 34.191406 6.867188 36.785156 7.902344 37.75 C 9.675781 39.402344 11.980469 38.613281 10.417969 36.886719 C 10.011719 36.433594 9.683594 35.769531 9.691406 35.40625 C 9.703125 35.007812 10.128906 35.253906 10.761719 36.027344 L 11.8125 37.3125 L 13.335938 35.734375 C 14.824219 34.203125 14.832031 34.167969 13.707031 34.382812 C 12.871094 34.542969 11.851562 34.085938 10 32.71875 C 7.527344 30.890625 7.4375 30.863281 7.171875 31.855469 M 22.316406 31.96875 C 17.675781 32.972656 13.609375 35.867188 10.96875 40.035156 C 10.28125 41.121094 10.824219 40.761719 12.96875 38.699219 C 14.648438 37.085938 17.21875 35.230469 18.953125 34.378906 C 21.757812 32.996094 22.34375 32.882812 26.652344 32.882812 C 30.847656 32.882812 31.5625 33.011719 33.867188 34.195312 C 35.277344 34.917969 36.953125 35.964844 37.589844 36.519531 C 38.230469 37.074219 38.0625 36.773438 37.21875 35.855469 C 35.347656 33.816406 32.484375 32.339844 29.21875 31.71875 C 26.242188 31.15625 26.023438 31.164062 22.316406 31.96875 M -8.238281 34.292969 C -9.261719 34.660156 -10.195312 34.964844 -10.316406 34.96875 C -10.578125 34.976562 -9.351562 35.8125 -6.964844 37.25 L -5.230469 38.296875 L -4.445312 36.660156 C -3.804688 35.3125 -3.773438 34.894531 -4.261719 34.300781 C -4.992188 33.421875 -5.816406 33.417969 -8.238281 34.292969 M -34.679688 35.285156 C -35.167969 35.777344 -35.039062 37.699219 -34.453125 38.636719 C -33.953125 39.4375 -33.777344 39.386719 -31.652344 37.816406 L -29.386719 36.140625 L -31.140625 35.59375 C -33.207031 34.949219 -34.253906 34.859375 -34.679688 35.285156 M -28.5625 35.292969 C -28.226562 35.429688 -27.824219 35.410156 -27.671875 35.257812 C -27.515625 35.101562 -27.789062 34.992188 -28.28125 35.011719 C -28.824219 35.035156 -28.933594 35.144531 -28.5625 35.292969 M -24.519531 35.628906 C -27.300781 36.511719 -29.882812 37.988281 -31.964844 39.894531 C -33.589844 41.382812 -33.621094 41.441406 -32.199219 40.359375 C -25.464844 35.246094 -17.355469 34.519531 -9.632812 38.347656 C -8.097656 39.109375 -6.476562 40.054688 -6.027344 40.449219 C -5.578125 40.84375 -5.214844 40.980469 -5.21875 40.746094 C -5.234375 39.839844 -10.136719 36.789062 -12.996094 35.90625 C -16.445312 34.839844 -21.640625 34.714844 -24.519531 35.628906 " fill-opacity="1" fill-rule="evenodd"/></g></svg>