<svg xmlns="http://www.w3.org/2000/svg" xmlns:xlink="http://www.w3.org/1999/xlink" width="70" zoomAndPan="magnify" viewBox="0 0 52.5 52.499999" height="70" preserveAspectRatio="xMidYMid meet" version="1.0"><defs><clipPath id="644dc822f4"><path d="M 3 3 L 49.457031 3 L 49.457031 49.398438 L 3 49.398438 Z M 3 3 " clip-rule="nonzero"/></clipPath></defs><g clip-path="url(#644dc822f4)"><path fill="#898989" d="M 6.671875 49.3125 C 5.996094 49.203125 5.222656 48.789062 4.640625 48.226562 C 3.03125 46.671875 2.65625 43.855469 3.644531 40.726562 C 4.4375 38.230469 6.097656 35.894531 8.472656 33.941406 C 8.742188 33.722656 8.988281 33.515625 9.019531 33.488281 C 9.054688 33.457031 8.976562 33.320312 8.847656 33.179688 C 8.386719 32.6875 8.285156 32.398438 8.285156 31.570312 C 8.285156 30.839844 8.292969 30.800781 8.597656 30.179688 C 9.519531 28.304688 11.589844 26.808594 13.851562 26.386719 C 14.773438 26.210938 16.253906 26.257812 16.730469 26.476562 C 17.105469 26.648438 17.289062 26.828125 17.351562 27.089844 C 17.410156 27.328125 17.273438 27.691406 17.082031 27.792969 C 16.992188 27.839844 16.503906 27.882812 15.980469 27.894531 C 14.894531 27.914062 14.199219 28.074219 13.230469 28.523438 C 11.808594 29.191406 10.585938 30.339844 10.304688 31.28125 C 10.179688 31.699219 10.226562 31.816406 10.546875 31.875 C 11.019531 31.964844 11.417969 31.859375 12.121094 31.464844 C 13.417969 30.738281 15.148438 30.105469 15.851562 30.105469 C 16.554688 30.105469 17.03125 30.519531 17.03125 31.136719 C 17.03125 31.753906 16.535156 32.183594 15.179688 32.75 C 14.328125 33.109375 12.542969 33.710938 12.339844 33.710938 C 12.191406 33.710938 11.101562 34.4375 10.308594 35.066406 C 9.027344 36.085938 7.773438 37.378906 7.058594 38.425781 C 6.210938 39.667969 5.542969 41.25 5.3125 42.566406 C 5.195312 43.246094 5.191406 44.722656 5.308594 45.210938 C 5.5 46.015625 6.007812 46.765625 6.546875 47.046875 C 7.320312 47.449219 8.5625 47.09375 9.9375 46.082031 C 10.660156 45.546875 12.511719 43.667969 13.25 42.71875 C 15.003906 40.453125 17.847656 35.738281 18.523438 33.980469 C 18.648438 33.652344 18.816406 33.316406 18.898438 33.226562 C 18.976562 33.140625 19.199219 32.683594 19.394531 32.207031 C 20.078125 30.519531 20.46875 29.957031 20.945312 29.957031 C 21.378906 29.957031 21.753906 30.277344 21.757812 30.652344 C 21.757812 30.769531 21.542969 31.546875 21.277344 32.378906 C 21.015625 33.214844 20.640625 34.4375 20.449219 35.097656 C 20.257812 35.757812 20.082031 36.347656 20.0625 36.410156 C 19.988281 36.628906 20.117188 36.417969 20.792969 35.242188 C 22.574219 32.121094 23.976562 30.464844 25.078125 30.171875 C 25.898438 29.953125 26.632812 30.445312 26.761719 31.304688 C 26.835938 31.800781 26.679688 32.585938 26.1875 34.195312 C 25.585938 36.175781 25.316406 37.152344 25.140625 38.015625 C 24.941406 38.984375 24.945312 39.058594 25.183594 38.777344 C 25.289062 38.652344 25.554688 38.347656 25.773438 38.101562 C 26.625 37.140625 26.796875 36.929688 27.878906 35.511719 C 29.144531 33.84375 30.3125 32.355469 30.4375 32.246094 C 30.484375 32.203125 30.714844 31.898438 30.953125 31.570312 C 32.550781 29.351562 34.339844 28.570312 35.601562 29.53125 C 35.917969 29.773438 36.304688 30.519531 36.367188 31.019531 C 36.394531 31.222656 36.445312 31.363281 36.476562 31.332031 C 36.507812 31.296875 37.015625 30.476562 37.601562 29.503906 C 40.074219 25.414062 41.980469 22.605469 43.378906 20.984375 C 44.046875 20.210938 45.34375 18.921875 45.910156 18.46875 C 46.585938 17.921875 46.90625 17.847656 47.410156 18.105469 C 47.964844 18.390625 48.164062 18.953125 47.933594 19.578125 C 47.886719 19.710938 47.402344 20.335938 46.863281 20.964844 C 41.839844 26.816406 38.539062 32.164062 37.519531 36.109375 C 37.34375 36.792969 37.226562 37.613281 37.304688 37.613281 C 37.339844 37.613281 37.609375 37.414062 37.914062 37.171875 C 38.523438 36.683594 39.21875 35.972656 40.335938 34.699219 C 41.320312 33.574219 41.570312 33.449219 42.03125 33.835938 C 42.253906 34.023438 42.265625 34.0625 42.238281 34.417969 C 42.144531 35.535156 39.902344 38.816406 38.527344 39.851562 C 37.875 40.34375 37.363281 40.539062 36.742188 40.539062 C 35.859375 40.539062 35.199219 40.039062 34.863281 39.113281 L 34.695312 38.648438 L 34.09375 39.425781 C 33.332031 40.410156 32.445312 41.253906 31.816406 41.589844 C 31.375 41.828125 31.273438 41.855469 30.730469 41.855469 C 30.210938 41.855469 30.082031 41.824219 29.777344 41.648438 C 29.03125 41.207031 28.675781 40.507812 28.601562 39.308594 L 28.554688 38.5625 L 28.261719 39.007812 C 26.976562 40.957031 25.527344 42.222656 24.460938 42.324219 C 23.660156 42.402344 22.917969 41.957031 22.578125 41.199219 C 22.421875 40.851562 22.402344 40.695312 22.40625 39.902344 C 22.414062 38.910156 22.589844 37.96875 23.066406 36.367188 C 23.210938 35.878906 23.316406 35.46875 23.300781 35.453125 C 23.265625 35.414062 22.394531 36.960938 21.308594 39.003906 C 19.660156 42.09375 19.089844 42.792969 18.199219 42.792969 C 17.640625 42.792969 17.253906 42.515625 16.996094 41.9375 L 16.832031 41.570312 L 16.265625 42.386719 C 13.839844 45.890625 11.179688 48.320312 8.9375 49.089844 C 8.464844 49.25 7.621094 49.402344 7.269531 49.386719 C 7.167969 49.382812 6.898438 49.351562 6.671875 49.3125 Z M 31.640625 38.664062 C 32.273438 37.957031 33.460938 36.265625 34.628906 34.398438 C 35.050781 33.726562 35.0625 33.6875 34.984375 33.421875 C 34.941406 33.269531 34.882812 32.859375 34.859375 32.511719 C 34.832031 32.136719 34.757812 31.742188 34.671875 31.550781 C 34.535156 31.246094 34.515625 31.230469 34.355469 31.3125 C 34 31.503906 33.359375 32.195312 32.902344 32.886719 C 31.84375 34.472656 31.109375 36.582031 30.953125 38.488281 C 30.921875 38.824219 30.921875 39.136719 30.953125 39.183594 C 31.015625 39.285156 31.214844 39.136719 31.636719 38.664062 Z M 19.894531 47.253906 C 18.582031 47.0625 17.402344 46.640625 16.6875 46.113281 C 16.125 45.699219 16.003906 45.109375 16.402344 44.734375 C 16.636719 44.515625 17.039062 44.507812 17.273438 44.71875 C 17.730469 45.140625 18.722656 45.410156 20.039062 45.472656 C 21.886719 45.558594 22.90625 45.347656 30.730469 43.28125 C 33.867188 42.453125 35.242188 42.226562 37.148438 42.234375 C 38.335938 42.238281 38.625 42.261719 39.136719 42.402344 C 39.832031 42.589844 40.816406 43.054688 41.242188 43.394531 C 42.113281 44.082031 42.203125 45.039062 41.414062 45.234375 C 41.304688 45.261719 41.152344 45.25 41.074219 45.207031 C 40.996094 45.164062 40.453125 45.089844 39.867188 45.039062 C 38.21875 44.894531 37.125 45.015625 32.945312 45.820312 C 25.863281 47.1875 22.195312 47.589844 19.894531 47.253906 Z M 43.875 36.128906 C 43.851562 36.058594 43.78125 35.628906 43.714844 35.179688 C 43.53125 33.921875 43.246094 33.316406 42.667969 32.957031 C 42.289062 32.722656 42.320312 32.53125 42.789062 32.210938 C 43 32.066406 43.40625 31.671875 43.695312 31.332031 C 44.003906 30.964844 44.253906 30.730469 44.316406 30.753906 C 44.371094 30.773438 44.488281 31 44.582031 31.253906 C 44.796875 31.863281 45.160156 32.429688 45.386719 32.515625 C 45.484375 32.550781 45.664062 32.582031 45.785156 32.582031 C 46.007812 32.582031 46.191406 32.785156 46.097656 32.929688 C 46.066406 32.96875 45.917969 33.078125 45.765625 33.171875 C 45.113281 33.570312 44.621094 34.402344 44.429688 35.441406 C 44.378906 35.707031 44.308594 36 44.273438 36.09375 C 44.195312 36.292969 43.933594 36.316406 43.875 36.128906 Z M 46.191406 34.953125 C 46.101562 34.8125 46.089844 34.734375 46.152344 34.621094 C 46.253906 34.425781 46.507812 34.347656 46.648438 34.460938 C 46.808594 34.59375 46.785156 34.964844 46.613281 35.058594 C 46.398438 35.171875 46.324219 35.152344 46.191406 34.953125 Z M 47.992188 31.273438 C 47.546875 30.824219 47.980469 29.878906 48.636719 29.878906 C 48.890625 29.878906 49.089844 30.023438 49.203125 30.292969 C 49.34375 30.628906 49.269531 30.960938 48.992188 31.234375 C 48.703125 31.527344 48.265625 31.542969 47.992188 31.273438 Z M 46.773438 29.632812 C 46.734375 29.582031 46.644531 29.203125 46.578125 28.792969 C 46.421875 27.847656 46.214844 27.242188 45.867188 26.722656 C 45.648438 26.398438 45.492188 26.265625 45.074219 26.054688 C 44.253906 25.632812 44.21875 25.398438 44.945312 25.15625 C 45.558594 24.945312 45.714844 24.796875 46.097656 24.023438 C 46.292969 23.632812 46.5 23.300781 46.558594 23.289062 C 46.617188 23.277344 46.773438 23.4375 46.90625 23.648438 C 47.203125 24.109375 47.613281 24.453125 48.242188 24.769531 C 48.78125 25.039062 48.835938 25.203125 48.484375 25.460938 C 47.960938 25.847656 47.550781 26.875 47.28125 28.453125 C 47.195312 28.96875 47.109375 29.449219 47.089844 29.515625 C 47.042969 29.679688 46.863281 29.746094 46.773438 29.632812 Z M 43.007812 29.21875 C 42.722656 28.933594 42.722656 28.824219 43.007812 28.539062 C 43.414062 28.132812 44.070312 28.148438 44.175781 28.570312 C 44.269531 28.945312 43.96875 29.300781 43.472656 29.398438 C 43.273438 29.4375 43.199219 29.410156 43.007812 29.21875 Z M 10.910156 26.445312 C 10.613281 24.582031 10.296875 24.070312 9.285156 23.808594 C 8.65625 23.644531 8.617188 23.480469 9.164062 23.320312 C 9.382812 23.257812 9.636719 23.152344 9.730469 23.085938 C 10.003906 22.890625 10.304688 22.292969 10.390625 21.773438 C 10.457031 21.367188 10.496094 21.285156 10.617188 21.285156 C 10.71875 21.285156 10.828125 21.410156 10.972656 21.699219 C 11.242188 22.222656 11.722656 22.726562 12.132812 22.910156 C 12.5 23.078125 12.523438 23.1875 12.265625 23.527344 C 11.992188 23.886719 11.726562 24.660156 11.511719 25.707031 C 11.410156 26.214844 11.324219 26.65625 11.324219 26.679688 C 11.324219 26.707031 11.242188 26.726562 11.140625 26.726562 C 10.984375 26.726562 10.949219 26.683594 10.910156 26.445312 Z M 18.007812 26.453125 C 17.5 26.191406 17.15625 25.710938 17.027344 25.09375 C 16.910156 24.542969 16.976562 22.835938 17.144531 22.078125 C 17.863281 18.816406 19.839844 14.398438 22.367188 10.417969 C 22.65625 9.964844 22.882812 9.582031 22.871094 9.570312 C 22.859375 9.558594 22.140625 9.863281 21.273438 10.25 C 18.675781 11.398438 17.496094 11.789062 16.621094 11.789062 C 15.527344 11.789062 14.875 10.996094 15.179688 10.03125 C 15.34375 9.503906 15.671875 9.140625 16.21875 8.867188 C 16.730469 8.609375 17.238281 8.5625 17.65625 8.738281 C 17.925781 8.851562 18.304688 9.257812 18.304688 9.433594 C 18.304688 9.515625 18.351562 9.53125 18.476562 9.496094 C 18.851562 9.378906 21.78125 7.976562 25.210938 6.265625 C 29.835938 3.957031 30.605469 3.621094 32.0625 3.265625 C 34.777344 2.605469 36.589844 3.308594 36.933594 5.15625 C 37.089844 6.003906 36.660156 7.347656 36.070312 7.867188 C 35.707031 8.183594 35.285156 8.203125 35 7.917969 C 34.789062 7.707031 34.78125 7.488281 34.96875 6.5625 C 35.035156 6.214844 35.039062 6.03125 34.972656 5.789062 C 34.855469 5.347656 34.558594 5.222656 33.65625 5.234375 C 32.308594 5.25 30.695312 5.832031 26.578125 7.789062 C 25.84375 8.140625 25.792969 8.175781 25.542969 8.597656 C 25.191406 9.175781 23.582031 12.070312 22.851562 13.433594 C 20.980469 16.917969 19.53125 20.710938 19.167969 23.050781 C 19.039062 23.871094 19.03125 24.101562 19.121094 24.101562 C 19.351562 24.101562 21.355469 21.25 22.636719 19.109375 C 23.308594 17.980469 23.550781 17.558594 25.476562 14.117188 C 28.351562 8.988281 29.144531 7.886719 29.941406 7.886719 C 30.734375 7.886719 31.238281 8.589844 30.992188 9.359375 C 30.941406 9.519531 30.265625 10.882812 29.488281 12.390625 C 28.320312 14.652344 26.914062 17.570312 26.683594 18.203125 C 26.65625 18.28125 26.949219 18.039062 27.339844 17.664062 C 28.152344 16.878906 28.640625 16.59375 29.167969 16.59375 C 29.921875 16.597656 30.398438 17.109375 30.453125 17.984375 C 30.488281 18.519531 30.363281 19.179688 29.859375 21.167969 C 29.652344 21.96875 29.496094 22.679688 29.507812 22.742188 C 29.539062 22.890625 30.234375 21.777344 30.753906 20.757812 C 31.039062 20.195312 31.15625 19.867188 31.214844 19.445312 C 31.632812 16.613281 34.1875 13.085938 36.667969 11.921875 C 37.878906 11.355469 38.90625 11.675781 39.25 12.71875 C 39.390625 13.160156 39.308594 14.175781 39.0625 14.941406 C 38.800781 15.753906 38.195312 16.964844 37.59375 17.871094 C 37.042969 18.703125 36 19.769531 35.453125 20.0625 C 34.730469 20.449219 33.824219 20.582031 33.300781 20.382812 C 33.183594 20.335938 33.167969 20.382812 33.167969 20.773438 C 33.167969 21.277344 33.335938 21.988281 33.519531 22.265625 C 33.851562 22.773438 34.746094 22.855469 35.726562 22.472656 C 37.539062 21.765625 39.773438 19.523438 40.703125 17.484375 C 41.339844 16.089844 41.683594 14.617188 41.6875 13.285156 C 41.691406 12.382812 41.679688 12.328125 41.488281 12.035156 C 41.21875 11.628906 41.167969 11.402344 41.277344 11.074219 C 41.441406 10.574219 41.996094 10.382812 42.535156 10.640625 C 43.417969 11.058594 43.914062 12.199219 43.910156 13.804688 C 43.910156 14.796875 43.765625 15.640625 43.414062 16.695312 C 42.726562 18.769531 41.726562 20.367188 40.121094 21.960938 C 37.632812 24.425781 34.964844 25.375 33.042969 24.480469 C 32.535156 24.242188 31.945312 23.746094 31.769531 23.402344 L 31.65625 23.1875 L 31.21875 23.925781 C 30.707031 24.792969 30.207031 25.378906 29.738281 25.652344 C 29.007812 26.082031 28.089844 25.804688 27.695312 25.039062 C 27.527344 24.714844 27.5 24.554688 27.476562 23.792969 C 27.449219 22.785156 27.542969 22.183594 27.980469 20.609375 C 28.140625 20.03125 28.261719 19.546875 28.25 19.535156 C 28.171875 19.445312 26.800781 21.152344 26.148438 22.148438 C 25.425781 23.246094 24.5625 24.957031 24.421875 25.558594 C 24.269531 26.214844 24.222656 26.300781 23.910156 26.496094 C 23.550781 26.71875 23.21875 26.699219 22.972656 26.445312 C 22.8125 26.285156 22.746094 26.105469 22.664062 25.648438 C 22.550781 24.996094 22.609375 24.375 22.894531 23.246094 C 22.976562 22.921875 23.03125 22.644531 23.011719 22.625 C 22.996094 22.609375 22.855469 22.792969 22.695312 23.027344 C 21.648438 24.609375 20.300781 26.105469 19.636719 26.421875 C 19.441406 26.515625 19.085938 26.609375 18.847656 26.628906 C 18.480469 26.660156 18.359375 26.632812 18.003906 26.453125 Z M 34.574219 18.425781 C 35.035156 18.109375 35.402344 17.6875 35.90625 16.90625 C 36.527344 15.945312 37.351562 14.039062 37.148438 14.039062 C 37.113281 14.039062 36.824219 14.25 36.511719 14.5 C 35.449219 15.355469 34.363281 16.789062 33.808594 18.066406 C 33.667969 18.386719 33.574219 18.679688 33.597656 18.71875 C 33.679688 18.847656 34.175781 18.699219 34.574219 18.425781 Z M 14.296875 24.132812 C 14.136719 23.972656 14.148438 23.832031 14.332031 23.644531 C 14.554688 23.421875 14.882812 23.472656 14.914062 23.734375 C 14.929688 23.875 14.878906 23.976562 14.734375 24.089844 C 14.492188 24.28125 14.449219 24.285156 14.296875 24.132812 Z M 14.699219 21.476562 C 14.453125 21.230469 14.398438 20.792969 14.585938 20.546875 C 14.78125 20.289062 15.371094 20.027344 15.644531 20.078125 C 16.117188 20.167969 16.28125 20.773438 15.957031 21.253906 C 15.625 21.75 15.066406 21.847656 14.699219 21.476562 Z M 12.875 20.183594 C 12.855469 20.085938 12.785156 19.546875 12.722656 18.984375 C 12.601562 17.925781 12.441406 17.355469 12.152344 16.992188 C 11.90625 16.679688 11.378906 16.332031 10.855469 16.136719 C 10.597656 16.042969 10.363281 15.929688 10.335938 15.890625 C 10.257812 15.773438 10.414062 15.542969 10.570312 15.542969 C 10.816406 15.542969 12.027344 14.882812 12.425781 14.53125 C 12.636719 14.34375 12.96875 13.953125 13.160156 13.660156 C 13.351562 13.371094 13.5625 13.109375 13.628906 13.085938 C 13.796875 13.023438 13.9375 13.246094 13.992188 13.65625 C 14.132812 14.730469 14.753906 15.34375 15.914062 15.5625 C 16.3125 15.636719 16.488281 15.765625 16.394531 15.914062 C 16.375 15.945312 16.183594 15.996094 15.972656 16.023438 C 15.398438 16.101562 14.976562 16.332031 14.519531 16.828125 C 13.847656 17.554688 13.5 18.417969 13.300781 19.859375 C 13.25 20.242188 13.214844 20.3125 13.074219 20.332031 C 12.949219 20.351562 12.898438 20.3125 12.875 20.183594 Z M 8.816406 19.871094 C 8.421875 19.480469 8.636719 19.007812 9.238281 18.941406 C 9.664062 18.894531 9.867188 19.085938 9.792969 19.46875 C 9.734375 19.777344 9.558594 19.953125 9.242188 20.015625 C 9.054688 20.054688 8.96875 20.023438 8.816406 19.871094 Z M 8.816406 19.871094 " fill-opacity="1" fill-rule="nonzero"/></g></svg>