<svg xmlns="http://www.w3.org/2000/svg" xmlns:xlink="http://www.w3.org/1999/xlink" width="70" zoomAndPan="magnify" viewBox="0 0 52.5 52.499999" height="70" preserveAspectRatio="xMidYMid meet" version="1.0"><defs><clipPath id="8bb3381b94"><path d="M 25 8 L 41.140625 8 L 41.140625 46 L 25 46 Z M 25 8 " clip-rule="nonzero"/></clipPath><clipPath id="5bc3b3b5e1"><path d="M 10.679688 11 L 27 11 L 27 48.914062 L 10.679688 48.914062 Z M 10.679688 11 " clip-rule="nonzero"/></clipPath><clipPath id="4223d24199"><path d="M 22 2.851562 L 29 2.851562 L 29 10 L 22 10 Z M 22 2.851562 " clip-rule="nonzero"/></clipPath></defs><g clip-path="url(#8bb3381b94)"><path fill="#f0eded" d="M 37.878906 42.347656 C 37.40625 42.304688 36.828125 41.96875 36.667969 41.078125 L 34.671875 30.511719 C 35.332031 29.902344 36.316406 28.890625 36.902344 27.796875 C 37.21875 27.277344 37.394531 26.714844 37.402344 26.148438 C 37.402344 26.050781 37.402344 25.953125 37.390625 25.855469 C 37.382812 25.792969 37.375 25.734375 37.367188 25.671875 C 37.074219 23.921875 32.5625 9.863281 32.125 8.5 C 32.148438 8.476562 32.164062 8.457031 32.167969 8.453125 C 32.199219 8.410156 32.191406 8.351562 32.152344 8.320312 C 32.113281 8.289062 32.054688 8.296875 32.023438 8.335938 C 32.019531 8.339844 31.992188 8.371094 31.945312 8.429688 L 28.992188 9.097656 L 28.90625 9.117188 L 25.957031 9.789062 C 25.890625 9.757812 25.847656 9.738281 25.847656 9.738281 C 25.800781 9.714844 25.746094 9.734375 25.722656 9.78125 C 25.699219 9.828125 25.71875 9.882812 25.765625 9.90625 C 25.773438 9.910156 25.789062 9.917969 25.820312 9.929688 C 26.007812 11.328125 28.019531 25.976562 28.511719 27.683594 C 28.527344 27.742188 28.546875 27.800781 28.570312 27.859375 C 28.601562 27.953125 28.640625 28.042969 28.6875 28.128906 C 28.933594 28.636719 29.339844 29.070312 29.847656 29.402344 C 30.855469 30.136719 32.191406 30.625 33.046875 30.890625 L 35.8125 41.273438 C 36.003906 41.964844 35.804688 42.457031 35.511719 42.753906 C 34.34375 43.394531 32.402344 44.59375 32.476562 45.421875 L 41.3125 43.414062 C 41.050781 42.71875 39.214844 42.449219 37.878906 42.347656 Z M 37.878906 42.347656 " fill-opacity="1" fill-rule="nonzero"/></g><g clip-path="url(#5bc3b3b5e1)"><path fill="#f0eded" d="M 26.273438 13.472656 C 26.25 13.425781 26.195312 13.40625 26.148438 13.429688 C 26.144531 13.429688 26.105469 13.449219 26.039062 13.476562 L 23.089844 12.808594 L 23.003906 12.789062 L 20.050781 12.117188 C 20.023438 12.085938 19.972656 12.027344 19.972656 12.027344 C 19.941406 11.984375 19.882812 11.980469 19.84375 12.011719 C 19.800781 12.042969 19.796875 12.101562 19.828125 12.140625 C 19.832031 12.148438 19.847656 12.164062 19.867188 12.191406 C 19.859375 12.21875 19.847656 12.257812 19.832031 12.296875 C 19.238281 14.15625 14.914062 27.648438 14.628906 29.363281 C 14.617188 29.421875 14.609375 29.484375 14.605469 29.546875 C 14.59375 29.644531 14.589844 29.742188 14.59375 29.839844 C 14.597656 30.40625 14.777344 30.96875 15.089844 31.488281 C 15.679688 32.582031 16.660156 33.589844 17.320312 34.199219 L 15.324219 44.769531 C 15.167969 45.660156 14.585938 45.996094 14.117188 46.039062 C 12.78125 46.140625 10.945312 46.410156 10.679688 47.105469 L 19.519531 49.113281 C 19.589844 48.28125 17.652344 47.085938 16.484375 46.441406 C 16.191406 46.148438 15.992188 45.65625 16.183594 44.964844 L 18.949219 34.578125 C 19.804688 34.316406 21.136719 33.828125 22.148438 33.089844 C 22.65625 32.757812 23.058594 32.328125 23.308594 31.820312 C 23.355469 31.730469 23.394531 31.640625 23.425781 31.546875 C 23.445312 31.492188 23.464844 31.433594 23.484375 31.375 C 23.957031 29.734375 25.824219 16.203125 26.144531 13.859375 C 26.15625 13.757812 26.167969 13.675781 26.175781 13.621094 C 26.203125 13.605469 26.222656 13.597656 26.230469 13.59375 C 26.273438 13.574219 26.292969 13.519531 26.273438 13.472656 Z M 26.273438 13.472656 " fill-opacity="1" fill-rule="nonzero"/></g><path fill="#ebe5dc" d="M 22.917969 19.070312 C 21.207031 19.113281 18.84375 17.703125 18.644531 17.582031 C 16.492188 24.390625 15.234375 28.59375 15.09375 29.441406 C 15.085938 29.488281 15.078125 29.539062 15.074219 29.597656 C 15.0625 29.675781 15.0625 29.753906 15.0625 29.839844 C 15.066406 30.3125 15.21875 30.804688 15.496094 31.265625 L 15.503906 31.277344 L 15.507812 31.285156 C 16.058594 32.308594 16.976562 33.261719 17.652344 33.886719 C 17.804688 34.027344 18.007812 34.136719 18.226562 34.183594 C 18.4375 34.234375 18.65625 34.226562 18.847656 34.164062 C 19.726562 33.894531 20.972656 33.429688 21.917969 32.742188 L 21.933594 32.726562 C 22.386719 32.433594 22.734375 32.054688 22.945312 31.628906 C 22.980469 31.554688 23.011719 31.480469 23.039062 31.402344 C 23.058594 31.351562 23.074219 31.304688 23.085938 31.257812 C 23.324219 30.4375 24.214844 24.675781 25.214844 17.625 C 25.082031 17.875 24.394531 19.03125 22.917969 19.070312 Z M 17.183594 27.890625 C 16.917969 27.890625 16.917969 27.476562 17.183594 27.476562 C 17.453125 27.476562 17.453125 27.890625 17.183594 27.890625 Z M 17.433594 26.953125 C 17.164062 26.953125 17.164062 26.535156 17.433594 26.535156 C 17.703125 26.535156 17.703125 26.953125 17.433594 26.953125 Z M 17.917969 24.910156 C 17.648438 24.910156 17.648438 24.492188 17.917969 24.492188 C 18.1875 24.492188 18.1875 24.910156 17.917969 24.910156 Z M 18.546875 30.808594 C 18.277344 30.808594 18.277344 30.390625 18.546875 30.390625 C 18.816406 30.390625 18.816406 30.808594 18.546875 30.808594 Z M 18.761719 30.042969 C 18.492188 30.042969 18.492188 29.628906 18.761719 29.628906 C 19.03125 29.628906 19.03125 30.042969 18.761719 30.042969 Z M 23.164062 22.875 L 21.191406 31.675781 C 21.179688 31.71875 21.144531 31.746094 21.101562 31.746094 C 21.09375 31.746094 21.085938 31.746094 21.082031 31.746094 C 21.03125 31.734375 21 31.683594 21.011719 31.636719 L 22.980469 22.835938 C 22.992188 22.785156 23.042969 22.753906 23.09375 22.765625 C 23.140625 22.777344 23.171875 22.824219 23.164062 22.875 Z M 25.222656 17.574219 C 25.222656 17.578125 25.222656 17.578125 25.222656 17.578125 L 21.929688 17.578125 Z M 36.488281 27.59375 L 36.492188 27.585938 L 36.5 27.574219 C 36.777344 27.117188 36.925781 26.625 36.933594 26.152344 C 36.933594 26.0625 36.929688 25.984375 36.921875 25.910156 C 36.917969 25.847656 36.910156 25.800781 36.902344 25.75 C 36.761719 24.90625 35.5 20.699219 33.351562 13.894531 C 33.152344 14.011719 30.789062 15.425781 29.078125 15.378906 C 27.601562 15.34375 26.910156 14.183594 26.78125 13.9375 C 27.777344 20.984375 28.667969 26.746094 28.90625 27.566406 C 28.921875 27.613281 28.9375 27.664062 28.957031 27.714844 C 28.980469 27.789062 29.011719 27.863281 29.050781 27.9375 C 29.261719 28.363281 29.609375 28.742188 30.058594 29.039062 L 30.070312 29.042969 L 30.078125 29.050781 C 31.019531 29.738281 32.269531 30.203125 33.148438 30.472656 C 33.339844 30.535156 33.558594 30.542969 33.769531 30.496094 C 33.988281 30.445312 34.191406 30.339844 34.339844 30.195312 C 35.019531 29.570312 35.9375 28.617188 36.488281 27.59375 Z M 29.226562 21.078125 C 28.957031 21.078125 28.957031 20.660156 29.226562 20.660156 C 29.496094 20.660156 29.496094 21.078125 29.226562 21.078125 Z M 29.691406 22.773438 C 29.960938 22.773438 29.960938 23.191406 29.691406 23.191406 C 29.421875 23.191406 29.421875 22.773438 29.691406 22.773438 Z M 29.878906 24.171875 C 29.613281 24.171875 29.613281 23.753906 29.878906 23.753906 C 30.148438 23.753906 30.148438 24.171875 29.878906 24.171875 Z M 32.296875 25.054688 C 32.566406 25.054688 32.566406 25.472656 32.296875 25.472656 C 32.027344 25.472656 32.027344 25.054688 32.296875 25.054688 Z M 32.4375 26.277344 C 32.167969 26.277344 32.167969 25.859375 32.4375 25.859375 C 32.707031 25.859375 32.707031 26.277344 32.4375 26.277344 Z M 33.074219 16.890625 C 33.0625 16.839844 33.09375 16.789062 33.144531 16.777344 C 33.195312 16.765625 33.242188 16.796875 33.253906 16.847656 L 35.359375 25.894531 C 35.371094 25.945312 35.339844 25.992188 35.289062 26.003906 C 35.28125 26.007812 35.277344 26.007812 35.269531 26.007812 C 35.226562 26.007812 35.1875 25.980469 35.179688 25.9375 Z M 30.070312 13.886719 L 26.773438 13.890625 C 26.773438 13.886719 26.773438 13.886719 26.773438 13.886719 Z M 30.070312 13.886719 " fill-opacity="1" fill-rule="nonzero"/><path fill="#afafaf" d="M 21.929688 17.578125 L 25.238281 17.578125 C 25.238281 17.578125 25.230469 17.597656 25.214844 17.625 C 25.082031 17.875 24.394531 19.03125 22.917969 19.070312 C 21.207031 19.113281 18.84375 17.703125 18.644531 17.582031 C 18.636719 17.578125 18.628906 17.574219 18.628906 17.574219 Z M 26.148438 13.429688 C 26.144531 13.429688 26.105469 13.449219 26.039062 13.476562 C 25.621094 13.65625 24.101562 14.246094 22.78125 13.949219 C 21.464844 13.648438 20.347656 12.457031 20.050781 12.117188 C 20.003906 12.0625 19.976562 12.027344 19.972656 12.027344 C 19.941406 11.984375 19.882812 11.980469 19.84375 12.011719 C 19.800781 12.042969 19.796875 12.101562 19.828125 12.140625 C 19.832031 12.148438 19.847656 12.164062 19.867188 12.191406 C 20.101562 12.464844 21.28125 13.796875 22.742188 14.128906 C 23.019531 14.191406 23.304688 14.21875 23.582031 14.21875 C 24.785156 14.21875 25.917969 13.738281 26.175781 13.621094 C 26.203125 13.605469 26.222656 13.597656 26.230469 13.59375 C 26.273438 13.574219 26.292969 13.519531 26.273438 13.472656 C 26.25 13.425781 26.195312 13.40625 26.148438 13.429688 Z M 29.078125 15.378906 C 30.789062 15.425781 33.152344 14.011719 33.351562 13.894531 C 33.359375 13.886719 33.367188 13.882812 33.367188 13.882812 L 26.773438 13.890625 L 26.757812 13.890625 C 26.757812 13.890625 26.765625 13.90625 26.78125 13.9375 C 26.910156 14.183594 27.601562 15.34375 29.078125 15.378906 Z M 29.253906 10.4375 C 30.714844 10.105469 31.894531 8.777344 32.125 8.5 C 32.148438 8.476562 32.164062 8.457031 32.167969 8.453125 C 32.199219 8.410156 32.191406 8.351562 32.152344 8.320312 C 32.113281 8.289062 32.054688 8.296875 32.023438 8.335938 C 32.019531 8.339844 31.992188 8.371094 31.945312 8.429688 C 31.644531 8.769531 30.53125 9.957031 29.210938 10.257812 C 27.894531 10.558594 26.375 9.964844 25.957031 9.789062 C 25.890625 9.757812 25.847656 9.738281 25.847656 9.738281 C 25.800781 9.714844 25.746094 9.734375 25.722656 9.78125 C 25.699219 9.828125 25.71875 9.882812 25.765625 9.90625 C 25.773438 9.910156 25.789062 9.917969 25.820312 9.929688 C 26.074219 10.046875 27.210938 10.527344 28.410156 10.527344 C 28.691406 10.527344 28.976562 10.503906 29.253906 10.4375 Z M 29.253906 10.4375 " fill-opacity="1" fill-rule="nonzero"/><g clip-path="url(#4223d24199)"><path fill="#d2d2d2" d="M 23.476562 8.632812 L 22.191406 8.394531 L 23.476562 8.152344 L 23.714844 6.871094 L 23.957031 8.152344 L 25.238281 8.394531 L 23.957031 8.632812 L 23.714844 9.917969 Z M 26.386719 7.648438 L 26.761719 5.640625 L 28.765625 5.265625 L 26.761719 4.890625 L 26.386719 2.886719 L 26.011719 4.890625 L 24.003906 5.265625 L 26.011719 5.640625 Z M 26.386719 7.648438 " fill-opacity="1" fill-rule="nonzero"/></g></svg>