<svg xmlns="http://www.w3.org/2000/svg" xmlns:xlink="http://www.w3.org/1999/xlink" width="70" zoomAndPan="magnify" viewBox="0 0 52.5 52.499999" height="70" preserveAspectRatio="xMidYMid meet" version="1.0"><defs><clipPath id="e799e1c3b7"><path d="M 3.242188 5.609375 L 47 5.609375 L 47 47.953125 L 3.242188 47.953125 Z M 3.242188 5.609375 " clip-rule="nonzero"/></clipPath></defs><g clip-path="url(#e799e1c3b7)"><path fill="#b7cada" d="M 10.609375 5.617188 C 10.253906 5.640625 9.878906 5.707031 9.582031 5.792969 C 9.480469 5.824219 9.277344 5.859375 9.121094 5.871094 C 4.265625 6.304688 2.152344 10.410156 3.808594 16.195312 C 5.476562 22.023438 10.617188 28.523438 16.789062 32.605469 C 16.945312 32.710938 17.070312 32.804688 17.066406 32.816406 C 17.0625 32.828125 17.027344 32.882812 16.992188 32.9375 C 16.953125 32.988281 16.8125 33.222656 16.671875 33.457031 C 14.609375 36.933594 14.285156 40.78125 15.917969 42.371094 C 16.101562 42.550781 16.117188 42.574219 16.21875 42.8125 C 18.472656 48.15625 25.589844 48.953125 33.011719 44.695312 C 39.917969 40.734375 45.445312 33.453125 46.589844 26.808594 C 47.652344 20.644531 44.765625 16.382812 39.203125 15.914062 C 38.855469 15.882812 37.683594 15.882812 37.597656 15.910156 C 37.5625 15.925781 37.425781 15.949219 37.292969 15.96875 C 37.023438 16.003906 36.640625 16.097656 36.484375 16.160156 C 36.429688 16.183594 36.265625 16.21875 36.125 16.238281 C 34.476562 16.46875 31.804688 17.34375 30.113281 18.207031 L 29.980469 18.273438 L 29.933594 18.1875 C 29.855469 18.042969 29.191406 17.230469 28.613281 16.566406 C 23.003906 10.144531 15.042969 5.300781 10.609375 5.617188 M 11.894531 6.1875 C 16.835938 6.832031 24.25 11.917969 29.199219 18.058594 L 29.554688 18.5 L 29.4375 18.5625 C 28.640625 18.996094 27.625 19.734375 26.460938 20.734375 L 26.082031 21.058594 L 25.707031 20.695312 C 24.625 19.640625 22.273438 17.730469 20.433594 16.40625 C 15.203125 12.644531 10.828125 10.746094 8.136719 11.066406 C 8.085938 11.074219 7.964844 10.636719 7.878906 10.152344 C 7.375 7.234375 8.835938 5.789062 11.894531 6.1875 M 8.070312 6.6875 C 4.992188 10.015625 11.109375 19.953125 20.140625 26.289062 C 20.375 26.457031 20.601562 26.621094 20.636719 26.65625 C 20.675781 26.691406 20.71875 26.71875 20.730469 26.71875 C 20.746094 26.71875 20.964844 26.855469 21.214844 27.019531 C 27.007812 30.824219 31.992188 31.648438 33.582031 29.066406 L 33.683594 28.902344 L 33.703125 28.988281 C 33.738281 29.160156 33.722656 30.472656 33.679688 30.8125 C 32.699219 38.882812 21.03125 37.210938 11.601562 27.652344 C 2.914062 18.839844 1.09375 8.398438 7.933594 6.59375 C 8.070312 6.558594 8.191406 6.527344 8.203125 6.527344 C 8.210938 6.527344 8.152344 6.601562 8.070312 6.6875 M 9.503906 11.59375 C 12.203125 11.933594 16.058594 13.855469 20.46875 17.066406 C 22.199219 18.328125 24.398438 20.125 25.367188 21.074219 L 25.699219 21.402344 L 25.558594 21.527344 C 24.394531 22.574219 22.988281 23.894531 21.515625 25.332031 L 20.746094 26.082031 L 20.453125 25.878906 C 15.261719 22.246094 10.519531 16.90625 8.664062 12.605469 C 8.503906 12.242188 8.261719 11.621094 8.261719 11.582031 C 8.261719 11.527344 9.042969 11.535156 9.503906 11.59375 M 39.710938 16.480469 C 46.269531 17.28125 48.242188 24.242188 44.1875 32.257812 C 39.492188 41.535156 28.953125 48.289062 21.675781 46.683594 C 19.636719 46.230469 17.941406 44.996094 17.027344 43.292969 L 16.917969 43.09375 L 17.109375 43.1875 C 20.632812 44.960938 28.332031 43.46875 32.820312 40.140625 C 35.855469 37.890625 39.28125 33.613281 41.03125 29.878906 C 43.035156 25.605469 43.304688 22.195312 41.863281 19.316406 C 41.074219 17.742188 40.382812 17.011719 39.179688 16.496094 L 38.976562 16.40625 L 39.160156 16.421875 C 39.257812 16.429688 39.507812 16.453125 39.710938 16.480469 M 38.113281 16.6875 C 38.574219 16.761719 39.28125 17.042969 39.675781 17.304688 C 40.359375 17.757812 41.164062 18.871094 41.621094 19.988281 L 41.667969 20.101562 L 41.554688 20.074219 C 40.625 19.828125 39.074219 19.953125 37.53125 20.398438 C 33.414062 21.589844 28.398438 24.964844 25.578125 28.445312 C 25.46875 28.582031 25.371094 28.703125 25.359375 28.710938 C 25.316406 28.761719 23.761719 27.960938 22.777344 27.382812 C 22.199219 27.042969 21.226562 26.425781 21.199219 26.382812 C 21.167969 26.328125 24.789062 22.882812 25.972656 21.84375 C 28.085938 19.984375 28.902344 19.386719 30.28125 18.695312 C 32.222656 17.722656 34.75 16.914062 36.484375 16.714844 C 36.652344 16.695312 36.835938 16.667969 36.890625 16.65625 C 37.039062 16.625 37.855469 16.648438 38.113281 16.6875 M 43.816406 16.882812 C 43.910156 16.933594 43.996094 16.96875 44.007812 16.964844 C 44.03125 16.957031 43.703125 16.792969 43.667969 16.792969 C 43.65625 16.792969 43.722656 16.832031 43.816406 16.882812 M 43.386719 17.1875 C 43.386719 17.191406 43.429688 17.21875 43.480469 17.242188 C 43.589844 17.300781 43.597656 17.285156 43.488281 17.222656 C 43.40625 17.175781 43.386719 17.167969 43.386719 17.1875 M 40.722656 20.46875 C 41.140625 20.5 41.804688 20.648438 41.890625 20.726562 C 41.914062 20.742188 42.066406 21.40625 42.113281 21.664062 C 42.5 23.90625 42.050781 26.378906 40.726562 29.3125 C 38.84375 33.46875 35.140625 38.015625 31.859375 40.191406 C 28.824219 42.203125 24.042969 43.578125 20.640625 43.417969 C 19.640625 43.367188 19.589844 43.351562 19.441406 43.070312 C 18.941406 42.125 19.128906 40.535156 20.011719 38.167969 C 20.359375 37.234375 21.046875 35.601562 21.257812 35.199219 L 21.324219 35.074219 L 21.769531 35.253906 C 29.546875 38.359375 34.980469 35.394531 34.171875 28.488281 C 34.125 28.074219 34.121094 28.058594 34.0625 27.988281 L 34.007812 27.925781 L 34.039062 27.664062 C 34.140625 26.800781 33.988281 25.730469 33.601562 24.558594 C 33.40625 23.96875 33.078125 23.167969 32.984375 23.042969 C 32.929688 22.976562 32.902344 22.996094 33.386719 22.726562 C 36.195312 21.167969 38.914062 20.332031 40.722656 20.46875 M 32.558594 23.277344 C 32.558594 23.292969 32.605469 23.410156 32.664062 23.539062 C 33.5625 25.5625 33.789062 27.320312 33.300781 28.488281 C 32.53125 30.34375 29.890625 30.5625 26.179688 29.082031 C 25.875 28.960938 25.839844 28.941406 25.863281 28.910156 C 27.121094 27.285156 29.386719 25.269531 31.554688 23.84375 C 32.363281 23.308594 32.558594 23.199219 32.558594 23.277344 M 17.804688 33.25 C 18.578125 33.730469 19.871094 34.421875 20.683594 34.792969 L 20.847656 34.863281 L 20.714844 35.140625 C 18.941406 38.878906 18.292969 41.664062 18.867188 43.058594 C 18.949219 43.253906 18.972656 43.242188 18.632812 43.164062 C 16.464844 42.667969 15.457031 41.589844 15.402344 39.703125 C 15.355469 38.183594 15.648438 36.957031 16.53125 34.964844 C 16.898438 34.136719 17.453125 33.085938 17.527344 33.082031 C 17.527344 33.082031 17.65625 33.15625 17.804688 33.25 M 38.515625 40.691406 C 38.371094 40.832031 38.132812 41.058594 37.984375 41.199219 C 37.625 41.542969 37.71875 41.484375 38.15625 41.101562 C 38.59375 40.710938 38.722656 40.585938 38.769531 40.503906 C 38.839844 40.386719 38.78125 40.429688 38.515625 40.691406 M 17.140625 45.644531 C 17.34375 45.851562 17.828125 46.277344 17.863281 46.277344 C 17.894531 46.277344 17.757812 46.148438 17.578125 46 C 17.484375 45.925781 17.304688 45.765625 17.171875 45.648438 L 16.9375 45.4375 L 17.140625 45.644531 M 19.609375 46.828125 C 19.609375 46.851562 19.902344 47.046875 19.933594 47.046875 C 20.015625 47.046875 19.960938 46.996094 19.789062 46.910156 C 19.691406 46.859375 19.609375 46.824219 19.609375 46.828125 M 28.691406 47.023438 C 28.640625 47.046875 28.625 47.0625 28.65625 47.054688 C 28.71875 47.039062 28.835938 46.980469 28.804688 46.980469 C 28.789062 46.980469 28.738281 47 28.691406 47.023438 M 38.449219 47.125 L 38.300781 47.179688 L 38.414062 47.167969 C 38.59375 47.148438 38.644531 47.136719 38.660156 47.101562 C 38.675781 47.054688 38.621094 47.0625 38.449219 47.125 M 19.214844 47.15625 C 19.273438 47.21875 19.820312 47.519531 19.875 47.519531 C 19.882812 47.519531 19.796875 47.464844 19.675781 47.398438 C 19.558594 47.335938 19.40625 47.246094 19.339844 47.203125 C 19.152344 47.082031 19.140625 47.078125 19.214844 47.15625 M 19.992188 47.574219 C 19.992188 47.625 20.261719 47.691406 20.304688 47.648438 C 20.351562 47.605469 20.335938 47.59375 20.226562 47.597656 C 20.164062 47.597656 20.089844 47.589844 20.054688 47.582031 C 20.019531 47.570312 19.992188 47.566406 19.992188 47.574219 M 24.933594 48.222656 C 24.890625 48.234375 24.816406 48.253906 24.769531 48.265625 C 24.628906 48.300781 24.6875 48.3125 24.875 48.285156 C 24.992188 48.265625 25.046875 48.25 25.046875 48.226562 C 25.046875 48.191406 25.042969 48.191406 24.933594 48.222656 " fill-opacity="1" fill-rule="evenodd"/></g></svg>