<svg xmlns="http://www.w3.org/2000/svg" xmlns:xlink="http://www.w3.org/1999/xlink" width="70" zoomAndPan="magnify" viewBox="0 0 52.5 52.499999" height="70" preserveAspectRatio="xMidYMid meet" version="1.0"><defs><clipPath id="c70647bc85"><path d="M 14 11 L 44.65625 11 L 44.65625 28 L 14 28 Z M 14 11 " clip-rule="nonzero"/></clipPath><clipPath id="d0c804306a"><path d="M 19 47 L 37 47 L 37 50.117188 L 19 50.117188 Z M 19 47 " clip-rule="nonzero"/></clipPath></defs><g clip-path="url(#c70647bc85)"><path fill="#edf3f8" d="M 29.386719 27.492188 L 27.179688 27.492188 L 14.039062 14.6875 L 14.691406 14.019531 L 27.558594 26.5625 L 29.007812 26.5625 L 43.347656 12.582031 C 43.5 12.433594 43.453125 12.269531 43.425781 12.203125 C 43.402344 12.136719 43.316406 11.988281 43.105469 11.988281 L 17.195312 11.988281 L 17.195312 11.054688 L 43.105469 11.054688 C 43.628906 11.054688 44.09375 11.367188 44.289062 11.851562 C 44.488281 12.335938 44.371094 12.882812 44 13.25 Z M 29.386719 27.492188 " fill-opacity="1" fill-rule="nonzero"/></g><path fill="#edf3f8" d="M 29.578125 48.703125 L 26.988281 48.703125 L 26.988281 26.5625 L 29.578125 26.5625 Z M 27.917969 47.769531 L 28.644531 47.769531 L 28.644531 27.492188 L 27.917969 27.492188 Z M 27.917969 47.769531 " fill-opacity="1" fill-rule="nonzero"/><g clip-path="url(#d0c804306a)"><path fill="#edf3f8" d="M 36.648438 50.164062 L 19.917969 50.164062 L 19.917969 49.699219 C 19.917969 48.667969 20.753906 47.832031 21.785156 47.832031 L 34.777344 47.832031 C 35.808594 47.832031 36.648438 48.667969 36.648438 49.699219 Z M 20.972656 49.234375 L 35.589844 49.234375 C 35.429688 48.953125 35.125 48.761719 34.777344 48.761719 L 21.785156 48.761719 C 21.4375 48.761719 21.136719 48.953125 20.972656 49.234375 Z M 20.972656 49.234375 " fill-opacity="1" fill-rule="nonzero"/></g><path fill="#edf3f8" d="M 12.859375 16.078125 C 12.738281 16.078125 12.613281 16.027344 12.523438 15.933594 C 10.039062 13.367188 10.109375 9.253906 12.679688 6.773438 C 13.925781 5.570312 15.570312 4.925781 17.292969 4.953125 C 19.023438 4.984375 20.640625 5.683594 21.839844 6.929688 C 22.019531 7.113281 22.015625 7.410156 21.832031 7.589844 C 21.644531 7.765625 21.351562 7.761719 21.171875 7.578125 C 20.140625 6.511719 18.757812 5.910156 17.277344 5.886719 C 15.796875 5.859375 14.394531 6.414062 13.328125 7.441406 C 11.128906 9.570312 11.066406 13.085938 13.191406 15.289062 C 13.371094 15.472656 13.367188 15.765625 13.183594 15.945312 C 13.089844 16.03125 12.976562 16.078125 12.859375 16.078125 Z M 12.859375 16.078125 " fill-opacity="1" fill-rule="nonzero"/><path fill="#edf3f8" d="M 11.289062 17.335938 C 11.253906 17.335938 11.21875 17.335938 11.183594 17.332031 C 10.785156 17.300781 10.421875 17.101562 10.179688 16.78125 C 7.511719 13.234375 7.90625 8.230469 11.105469 5.140625 C 14.300781 2.054688 19.316406 1.828125 22.769531 4.617188 C 23.078125 4.867188 23.265625 5.238281 23.285156 5.636719 C 23.300781 6.03125 23.148438 6.414062 22.867188 6.691406 L 12.25 16.949219 C 11.992188 17.199219 11.644531 17.335938 11.289062 17.335938 Z M 17.238281 3.597656 C 15.253906 3.597656 13.273438 4.34375 11.75 5.8125 C 8.890625 8.574219 8.535156 13.050781 10.925781 16.222656 C 11.003906 16.328125 11.121094 16.394531 11.253906 16.402344 C 11.386719 16.414062 11.507812 16.371094 11.601562 16.28125 L 22.21875 6.019531 C 22.3125 5.929688 22.359375 5.808594 22.355469 5.679688 C 22.347656 5.546875 22.289062 5.425781 22.183594 5.34375 C 20.738281 4.175781 18.988281 3.597656 17.238281 3.597656 Z M 17.238281 3.597656 " fill-opacity="1" fill-rule="nonzero"/><path fill="#edf3f8" d="M 17.234375 11.949219 C 17.109375 11.949219 16.988281 11.902344 16.898438 11.808594 L 12.667969 7.429688 C 12.492188 7.246094 12.496094 6.953125 12.679688 6.773438 C 12.863281 6.59375 13.160156 6.597656 13.339844 6.785156 L 16.8125 10.378906 L 17.027344 5.40625 C 17.035156 5.148438 17.257812 4.949219 17.511719 4.960938 C 17.769531 4.972656 17.96875 5.191406 17.957031 5.445312 L 17.699219 11.503906 C 17.691406 11.691406 17.574219 11.855469 17.398438 11.921875 C 17.34375 11.941406 17.289062 11.949219 17.234375 11.949219 Z M 17.234375 11.949219 " fill-opacity="1" fill-rule="nonzero"/><path fill="#edf3f8" d="M 11.171875 12 C 10.914062 12 10.707031 11.792969 10.703125 11.539062 C 10.703125 11.28125 10.910156 11.070312 11.167969 11.070312 L 17.230469 11.019531 L 17.234375 11.019531 C 17.488281 11.019531 17.695312 11.226562 17.699219 11.480469 C 17.703125 11.738281 17.496094 11.949219 17.238281 11.949219 L 11.175781 12 Z M 11.171875 12 " fill-opacity="1" fill-rule="nonzero"/><path fill="#edf3f8" d="M 41.386719 15.613281 L 15.179688 15.613281 C 14.921875 15.613281 14.714844 15.402344 14.714844 15.144531 C 14.714844 14.890625 14.921875 14.679688 15.179688 14.679688 L 41.386719 14.679688 C 41.640625 14.679688 41.851562 14.890625 41.851562 15.144531 C 41.851562 15.402344 41.640625 15.613281 41.386719 15.613281 Z M 41.386719 15.613281 " fill-opacity="1" fill-rule="nonzero"/></svg>