<svg xmlns="http://www.w3.org/2000/svg" xmlns:xlink="http://www.w3.org/1999/xlink" width="70" zoomAndPan="magnify" viewBox="0 0 52.5 52.499999" height="70" preserveAspectRatio="xMidYMid meet" version="1.0"><defs><clipPath id="b56a3d6832"><path d="M 3.207031 11.359375 L 48.527344 11.359375 L 48.527344 47 L 3.207031 47 Z M 3.207031 11.359375 " clip-rule="nonzero"/></clipPath></defs><g clip-path="url(#b56a3d6832)"><path fill="#edf3f8" d="M 44.800781 45.785156 L 7.210938 45.785156 C 5.558594 45.785156 4.214844 44.441406 4.214844 42.789062 L 4.214844 23.777344 L 16.003906 23.777344 C 14.527344 25.8125 13.65625 28.3125 13.65625 31.015625 C 13.65625 37.828125 19.195312 43.367188 26.007812 43.367188 C 29.289062 43.367188 32.273438 42.082031 34.488281 39.988281 C 34.601562 41.308594 35.710938 42.347656 37.0625 42.347656 C 38.488281 42.347656 39.648438 41.1875 39.648438 39.761719 C 39.648438 38.335938 38.488281 37.175781 37.0625 37.175781 C 36.9375 37.175781 36.8125 37.1875 36.691406 37.207031 C 37.75 35.382812 38.359375 33.269531 38.359375 31.015625 C 38.359375 28.3125 37.484375 25.8125 36.007812 23.777344 L 47.796875 23.777344 L 47.796875 42.789062 C 47.796875 44.441406 46.453125 45.785156 44.800781 45.785156 Z M 26.007812 42.363281 C 19.75 42.363281 14.660156 37.273438 14.660156 31.015625 C 14.660156 24.757812 19.75 19.667969 26.007812 19.667969 C 32.265625 19.667969 37.355469 24.757812 37.355469 31.015625 C 37.355469 37.273438 32.265625 42.363281 26.007812 42.363281 Z M 37.0625 38.179688 C 37.933594 38.179688 38.644531 38.890625 38.644531 39.761719 C 38.644531 40.636719 37.933594 41.34375 37.0625 41.34375 C 36.1875 41.34375 35.480469 40.636719 35.480469 39.761719 C 35.480469 38.890625 36.1875 38.179688 37.0625 38.179688 Z M 7.210938 16.246094 L 18.941406 16.246094 C 18.945312 16.246094 18.945312 16.246094 18.945312 16.246094 L 44.800781 16.246094 C 46.453125 16.246094 47.796875 17.589844 47.796875 19.242188 L 47.796875 22.773438 L 35.199219 22.773438 C 32.933594 20.253906 29.652344 18.664062 26.007812 18.664062 C 22.359375 18.664062 19.074219 20.253906 16.8125 22.777344 C 16.804688 22.777344 16.796875 22.773438 16.785156 22.773438 L 4.214844 22.773438 L 4.214844 19.242188 C 4.214844 17.589844 5.558594 16.246094 7.210938 16.246094 Z M 7.175781 13.773438 C 7.175781 13.324219 7.539062 12.960938 7.988281 12.960938 L 13.910156 12.960938 C 14.355469 12.960938 14.71875 13.324219 14.71875 13.773438 L 14.71875 15.246094 L 7.210938 15.246094 C 7.199219 15.246094 7.1875 15.246094 7.175781 15.246094 Z M 20.613281 12.382812 L 31.398438 12.382812 L 32.371094 15.246094 L 19.644531 15.246094 Z M 44.800781 15.246094 L 33.429688 15.246094 L 32.234375 11.722656 C 32.164062 11.515625 31.972656 11.378906 31.757812 11.378906 L 20.253906 11.378906 C 20.039062 11.378906 19.847656 11.515625 19.777344 11.722656 L 18.582031 15.246094 L 15.722656 15.246094 L 15.722656 13.773438 C 15.722656 12.773438 14.910156 11.957031 13.910156 11.957031 L 7.988281 11.957031 C 6.988281 11.957031 6.175781 12.773438 6.175781 13.773438 L 6.175781 15.382812 C 4.46875 15.839844 3.210938 17.398438 3.210938 19.242188 L 3.210938 42.789062 C 3.210938 44.996094 5.007812 46.789062 7.210938 46.789062 L 44.800781 46.789062 C 47.007812 46.789062 48.800781 44.996094 48.800781 42.789062 L 48.800781 19.242188 C 48.800781 17.039062 47.007812 15.246094 44.800781 15.246094 " fill-opacity="1" fill-rule="nonzero"/></g><path fill="#edf3f8" d="M 26.007812 39.261719 C 21.460938 39.261719 17.761719 35.5625 17.761719 31.015625 C 17.761719 26.46875 21.460938 22.773438 26.007812 22.773438 C 30.554688 22.773438 34.25 26.46875 34.25 31.015625 C 34.25 35.5625 30.554688 39.261719 26.007812 39.261719 Z M 26.007812 21.769531 C 20.90625 21.769531 16.757812 25.917969 16.757812 31.015625 C 16.757812 36.113281 20.90625 40.265625 26.007812 40.265625 C 31.105469 40.265625 35.253906 36.113281 35.253906 31.015625 C 35.253906 25.917969 31.105469 21.769531 26.007812 21.769531 " fill-opacity="1" fill-rule="nonzero"/><path fill="#edf3f8" d="M 26.007812 25.835938 C 23.148438 25.835938 20.828125 28.160156 20.828125 31.015625 C 20.828125 31.292969 21.050781 31.515625 21.328125 31.515625 C 21.605469 31.515625 21.828125 31.292969 21.828125 31.015625 C 21.828125 28.714844 23.703125 26.839844 26.007812 26.839844 C 26.285156 26.839844 26.507812 26.613281 26.507812 26.335938 C 26.507812 26.0625 26.285156 25.835938 26.007812 25.835938 " fill-opacity="1" fill-rule="nonzero"/><path fill="#edf3f8" d="M 40.355469 20.214844 L 43.78125 20.214844 C 44.058594 20.214844 44.285156 19.992188 44.285156 19.714844 C 44.285156 19.4375 44.058594 19.210938 43.78125 19.210938 L 40.355469 19.210938 C 40.078125 19.210938 39.851562 19.4375 39.851562 19.714844 C 39.851562 19.992188 40.078125 20.214844 40.355469 20.214844 " fill-opacity="1" fill-rule="nonzero"/></svg>