<svg xmlns="http://www.w3.org/2000/svg" xmlns:xlink="http://www.w3.org/1999/xlink" width="70" zoomAndPan="magnify" viewBox="0 0 52.5 52.499999" height="70" preserveAspectRatio="xMidYMid meet" version="1.0"><defs><clipPath id="9246bb8938"><path d="M 0 0 L 50.519531 0 L 50.519531 52 L 0 52 Z M 0 0 " clip-rule="nonzero"/></clipPath></defs><g clip-path="url(#9246bb8938)"><path fill="#edf3f8" d="M 48.769531 8.789062 C 40.410156 -7.574219 16.207031 0.972656 19.265625 17.699219 C 19.34375 18.148438 19.140625 17.261719 15.652344 18.226562 C 15.089844 18.390625 16.191406 16.742188 16.179688 12.949219 C 16.179688 9.300781 16.566406 8.316406 15.019531 8.148438 C 13.585938 7.992188 12.4375 7.890625 10.910156 8.410156 C 9.300781 8.96875 8.195312 9.019531 7.585938 9.351562 C 5.394531 10.542969 4.734375 10.957031 4.128906 11.511719 C 3.574219 12.019531 2.507812 12.863281 0.335938 13.816406 C -0.46875 14.171875 0.441406 16.445312 0.355469 17.960938 C 0.253906 19.757812 0.4375 20.433594 2.101562 20.867188 C 3.640625 21.265625 8.214844 22.289062 7.667969 22.820312 C -1.3125 31.375 1.496094 47.496094 15.328125 51.375 C 27.277344 54.722656 38.167969 44.074219 36.097656 31.613281 C 36.015625 31.109375 37.542969 31.734375 40.601562 30.132812 C 50.90625 24.738281 51.996094 15.101562 48.769531 8.789062 Z M 13.429688 8.953125 C 15.171875 8.5625 15.3125 8.929688 15.28125 9.476562 C 15.25 10.0625 15.28125 10.699219 15.085938 12.433594 C 15.019531 13.054688 14.484375 11.796875 13.285156 9.25 C 13.226562 9.128906 13.296875 8.984375 13.429688 8.953125 Z M 23.667969 23.558594 C 24.90625 25.660156 26.953125 27.375 29.988281 28.667969 C 30.929688 29.070312 31.414062 30.132812 30.96875 30.023438 C 24.347656 28.410156 22.292969 23.402344 22.460938 23.175781 C 22.496094 23.128906 22.796875 23.144531 23.273438 23.265625 C 23.4375 23.308594 23.582031 23.414062 23.667969 23.558594 Z M 25.082031 23.941406 C 26.390625 24.570312 28.015625 25.636719 29.53125 27.355469 C 27.59375 26.40625 26.105469 25.265625 25.082031 23.941406 Z M 31.210938 31.007812 C 31.792969 31.128906 32.988281 36.585938 30.0625 41.785156 C 24.324219 51.988281 7.144531 46.898438 6.777344 36.832031 C 6.558594 30.792969 10.324219 25.804688 15.257812 23.601562 C 17.34375 22.667969 20.789062 22.449219 21.042969 23.035156 C 22.867188 27.269531 26.710938 30.089844 31.210938 31.007812 Z M 13.296875 20.757812 C 13.128906 19.066406 13.492188 18.011719 12.71875 16.300781 C 12.601562 16.039062 12.667969 16.09375 14.773438 14.335938 C 15.703125 13.558594 13.425781 22.023438 13.296875 20.757812 Z M 12.503906 10.167969 C 14.109375 12.535156 14.453125 12.910156 14.035156 13.324219 C 13.109375 14.25 12.253906 15.40625 11.882812 14.609375 C 11.082031 12.910156 11.074219 12.960938 11.132812 12.851562 C 12.589844 9.996094 12.453125 10.097656 12.503906 10.167969 Z M 11.667969 21.796875 C 10.359375 20.855469 8.855469 19.523438 7.148438 17.800781 C 6.695312 17.351562 7.613281 17.261719 11.164062 16.257812 C 12.121094 15.988281 12.210938 22.191406 11.667969 21.796875 Z M 11.617188 9.683594 C 10.394531 11.996094 10.347656 12.367188 9.890625 12.226562 C 7.855469 11.613281 7.636719 11.539062 6.332031 11.113281 C 5.273438 10.765625 12.292969 8.410156 11.617188 9.683594 Z M 5.421875 14.980469 C 5.953125 12.1875 5.707031 11.453125 6.203125 11.640625 C 9.972656 13.078125 9.882812 12.96875 10.015625 13.25 C 10.820312 14.953125 10.972656 15.125 10.746094 15.1875 L 6.4375 16.414062 C 5.703125 16.621094 5.277344 15.746094 5.421875 14.980469 Z M 1.378906 14.269531 C 1.996094 13.628906 3.128906 13.492188 3.632812 13.101562 C 6.269531 10.464844 4.742188 12.257812 4.53125 15.570312 C 1.398438 14.4375 1.207031 14.4375 1.378906 14.269531 Z M 1.179688 18.578125 C 1.386719 17.359375 0.988281 16.503906 0.882812 15.261719 C 0.859375 14.984375 1.125 15.082031 1.335938 15.148438 C 1.886719 15.328125 3.722656 15.636719 5.132812 17.050781 C 5.402344 17.320312 5.03125 17.339844 1.449219 18.792969 C 1.304688 18.847656 1.15625 18.726562 1.179688 18.578125 Z M 2.058594 19.882812 C 1.519531 19.800781 2.660156 19.453125 5.671875 18.222656 C 6.171875 18.019531 5.941406 18.820312 9.359375 21.507812 C 11.046875 22.804688 5.789062 20.460938 2.058594 19.882812 Z M 34.625 39.433594 C 31.863281 49.289062 21.042969 53.40625 12.484375 49.175781 C 6.207031 46.074219 1.382812 37.945312 4.769531 29.109375 C 5.375 27.535156 7.914062 22.773438 9.492188 23.222656 C 11.101562 23.679688 12.449219 23.878906 11.820312 24.355469 C -0.671875 33.925781 7.691406 49.902344 21.570312 48.480469 C 27.789062 47.847656 32.21875 42.542969 32.875 36.699219 C 34.132812 25.5 23.597656 18.78125 14.449219 22.710938 C 13.648438 23.0625 14.476562 21.382812 14.980469 20.042969 C 15.691406 18.167969 21.097656 19.113281 22.699219 19.390625 C 30.183594 20.6875 37.464844 29.316406 34.625 39.433594 Z M 24.273438 10.21875 C 26.847656 5.769531 31.4375 3.558594 36.527344 4.625 C 48.847656 7.1875 50.867188 24.25 35.042969 27.910156 C 34.183594 28.125 33.019531 20.75 23.417969 18.402344 C 22.523438 18.183594 22.652344 13.019531 24.273438 10.21875 Z M 36.386719 30.363281 C 35.515625 30.472656 35.253906 29.070312 35.769531 28.894531 C 52.859375 24.835938 49.480469 4.15625 35.078125 3.265625 C 27.289062 2.78125 22.046875 8.953125 21.878906 14.972656 C 21.816406 17.222656 22.074219 18.027344 21.773438 18.027344 C 20.992188 18.027344 20.425781 18.128906 20.367188 17.769531 C 20.023438 15.722656 18.550781 8 27.050781 3.25 C 39.332031 -3.617188 51.699219 6.875 48.585938 19.734375 C 47.285156 25.144531 41.320312 29.742188 36.386719 30.363281 Z M 36.386719 30.363281 " fill-opacity="1" fill-rule="nonzero"/></g></svg>