<svg xmlns="http://www.w3.org/2000/svg" xmlns:xlink="http://www.w3.org/1999/xlink" width="70" zoomAndPan="magnify" viewBox="0 0 52.5 52.499999" height="70" preserveAspectRatio="xMidYMid meet" version="1.0"><defs><clipPath id="242f6f6ad3"><path d="M 14.121094 5.199219 L 37.894531 5.199219 L 37.894531 46.804688 L 14.121094 46.804688 Z M 14.121094 5.199219 " clip-rule="nonzero"/></clipPath></defs><g clip-path="url(#242f6f6ad3)"><path fill="#b7cada" d="M 37.359375 39.90625 C 37.042969 39.585938 36.671875 39.347656 36.277344 39.144531 C 35.277344 38.625 34.203125 38.328125 33.113281 38.070312 C 32.984375 38.039062 32.910156 38.003906 32.910156 37.84375 C 32.917969 34.144531 32.914062 30.449219 32.914062 26.75 C 32.914062 26.679688 32.90625 26.609375 32.953125 26.542969 C 33.402344 25.921875 33.480469 25.199219 33.492188 24.476562 C 33.515625 22.917969 33.5 21.363281 33.503906 19.804688 C 33.507812 19.335938 33.296875 18.988281 32.929688 18.722656 C 32.40625 18.347656 31.808594 18.140625 31.195312 17.984375 C 30.082031 17.699219 28.945312 17.574219 27.796875 17.535156 C 27.390625 17.523438 26.988281 17.496094 26.582031 17.476562 C 26.519531 17.472656 26.453125 17.480469 26.453125 17.375 C 26.453125 17.289062 26.46875 17.25 26.570312 17.242188 C 26.734375 17.222656 26.902344 17.179688 27.066406 17.148438 C 27.769531 17.003906 28.425781 16.742188 28.941406 16.226562 C 30.164062 15.007812 30.453125 13.519531 30.109375 11.882812 C 29.828125 10.550781 29.214844 9.347656 28.503906 8.199219 C 27.898438 7.21875 27.234375 6.273438 26.457031 5.417969 C 26.191406 5.125 25.925781 5.140625 25.679688 5.4375 C 24.582031 6.757812 23.578125 8.148438 22.804688 9.683594 C 22.179688 10.933594 21.695312 12.230469 21.867188 13.675781 C 22.003906 14.828125 22.472656 15.785156 23.433594 16.46875 C 24.054688 16.910156 24.761719 17.09375 25.496094 17.203125 C 25.574219 17.21875 25.671875 17.203125 25.671875 17.347656 C 25.667969 17.492188 25.582031 17.472656 25.496094 17.476562 C 25.40625 17.480469 25.316406 17.488281 25.226562 17.488281 C 23.988281 17.480469 22.757812 17.5625 21.535156 17.78125 C 20.808594 17.914062 20.09375 18.082031 19.445312 18.460938 C 18.890625 18.785156 18.597656 19.242188 18.601562 19.917969 C 18.617188 23.582031 18.609375 27.246094 18.609375 30.910156 C 18.609375 31.425781 18.664062 31.925781 18.96875 32.363281 C 19.003906 32.417969 19 32.46875 19 32.523438 C 19 34.308594 19 36.09375 19.003906 37.875 C 19.003906 38 18.96875 38.046875 18.835938 38.078125 C 17.828125 38.316406 16.832031 38.585938 15.902344 39.042969 C 15.511719 39.238281 15.132812 39.449219 14.8125 39.753906 C 14.035156 40.484375 13.925781 41.152344 14.417969 42.113281 C 15.109375 43.464844 16.226562 44.378906 17.542969 45.074219 C 19.277344 45.992188 21.160156 46.394531 23.082031 46.628906 C 24.242188 46.769531 25.40625 46.816406 26.574219 46.792969 C 28.066406 46.761719 29.550781 46.625 31.015625 46.296875 C 32.828125 45.886719 34.53125 45.242188 35.984375 44.046875 C 36.753906 43.414062 37.382812 42.664062 37.75 41.722656 C 38.015625 41.03125 37.871094 40.429688 37.359375 39.90625 Z M 23.78125 15.863281 C 22.941406 15.28125 22.558594 14.445312 22.503906 13.449219 C 22.425781 12.0625 22.960938 10.84375 23.589844 9.660156 C 24.277344 8.375 25.132812 7.199219 26.078125 6.0625 C 26.367188 6.359375 26.609375 6.6875 26.851562 7.019531 C 27.8125 8.332031 28.691406 9.691406 29.238281 11.234375 C 29.625 12.320312 29.742188 13.421875 29.316406 14.523438 C 28.828125 15.773438 27.621094 16.492188 26.398438 16.511719 C 26.554688 16.449219 26.652344 16.410156 26.75 16.375 C 27.660156 16.023438 28.222656 15.113281 28.164062 14.136719 C 28.117188 13.359375 27.796875 12.691406 27.398438 12.046875 C 27.125 11.609375 26.804688 11.199219 26.476562 10.800781 C 26.21875 10.492188 25.996094 10.5 25.746094 10.804688 C 25.234375 11.425781 24.722656 12.039062 24.367188 12.765625 C 24.054688 13.410156 23.871094 14.085938 24.03125 14.804688 C 24.226562 15.683594 24.765625 16.253906 25.648438 16.503906 C 24.96875 16.460938 24.34375 16.253906 23.78125 15.863281 Z M 25.667969 15.773438 C 24.84375 15.464844 24.460938 14.640625 24.714844 13.714844 C 24.945312 12.859375 25.488281 12.183594 26.035156 11.515625 C 26.082031 11.457031 26.109375 11.445312 26.160156 11.511719 C 26.699219 12.199219 27.230469 12.886719 27.449219 13.757812 C 27.644531 14.542969 27.332031 15.292969 26.65625 15.667969 C 26.4375 15.792969 26.421875 15.785156 26.421875 15.539062 C 26.425781 15.25 26.429688 14.957031 26.425781 14.664062 C 26.425781 14.382812 26.308594 14.238281 26.082031 14.230469 C 25.839844 14.222656 25.675781 14.382812 25.671875 14.664062 C 25.664062 15.027344 25.667969 15.394531 25.667969 15.773438 Z M 19.5 19.25 C 19.808594 18.933594 20.214844 18.789062 20.621094 18.667969 C 21.503906 18.402344 22.414062 18.285156 23.335938 18.214844 C 24.054688 18.160156 24.773438 18.121094 25.492188 18.117188 C 25.65625 18.113281 25.695312 18.164062 25.691406 18.316406 C 25.6875 18.617188 25.703125 18.917969 25.707031 19.214844 C 25.710938 19.441406 25.824219 19.5625 26.042969 19.578125 C 26.222656 19.585938 26.394531 19.433594 26.40625 19.226562 C 26.425781 18.910156 26.425781 18.59375 26.429688 18.277344 C 26.429688 18.175781 26.433594 18.113281 26.566406 18.117188 C 28.242188 18.191406 29.925781 18.246094 31.546875 18.753906 C 31.882812 18.859375 32.207031 19 32.496094 19.210938 C 32.859375 19.484375 32.847656 19.710938 32.449219 19.941406 C 32.019531 20.183594 31.546875 20.308594 31.066406 20.410156 C 29.507812 20.734375 27.925781 20.808594 26.078125 20.804688 C 25.242188 20.824219 24.152344 20.761719 23.066406 20.644531 C 22.089844 20.542969 21.109375 20.433594 20.171875 20.121094 C 19.941406 20.042969 19.71875 19.953125 19.53125 19.796875 C 19.308594 19.609375 19.296875 19.457031 19.5 19.25 Z M 19.242188 20.546875 C 19.242188 20.492188 19.242188 20.4375 19.242188 20.363281 C 19.90625 20.820312 20.65625 20.960938 21.40625 21.082031 C 22.917969 21.328125 24.441406 21.445312 25.972656 21.464844 C 27.175781 21.480469 28.382812 21.425781 29.582031 21.296875 C 30.449219 21.203125 31.304688 21.078125 32.136719 20.800781 C 32.378906 20.71875 32.605469 20.601562 32.867188 20.464844 C 32.867188 20.558594 32.867188 20.625 32.867188 20.695312 C 32.851562 22.070312 32.914062 23.449219 32.816406 24.828125 C 32.78125 25.339844 32.695312 25.839844 32.320312 26.230469 C 31.832031 26.746094 31.160156 26.699219 30.742188 26.128906 C 30.527344 25.835938 30.425781 25.5 30.335938 25.15625 C 30.269531 24.898438 30.195312 24.644531 30.082031 24.40625 C 29.539062 23.285156 28.425781 23.070312 27.5 23.898438 C 26.957031 24.382812 26.585938 24.980469 26.246094 25.609375 C 25.964844 26.132812 25.707031 26.675781 25.277344 27.105469 C 24.867188 27.511719 24.480469 27.578125 23.964844 27.308594 C 23.640625 27.140625 23.375 26.886719 23.089844 26.664062 C 22.792969 26.4375 22.503906 26.207031 22.105469 26.195312 C 21.722656 26.183594 21.460938 26.363281 21.265625 26.671875 C 21.058594 27.007812 20.984375 27.390625 20.949219 27.777344 C 20.863281 28.761719 20.867188 29.75 20.851562 30.738281 C 20.84375 31.125 20.8125 31.515625 20.703125 31.886719 C 20.570312 32.328125 20.222656 32.464844 19.8125 32.25 C 19.515625 32.09375 19.339844 31.847656 19.289062 31.511719 C 19.261719 31.351562 19.242188 31.191406 19.242188 31.027344 C 19.242188 27.535156 19.242188 24.039062 19.242188 20.546875 Z M 32.289062 40.085938 C 32.292969 40.527344 32.117188 40.824219 31.769531 41.054688 C 31.175781 41.449219 30.5 41.632812 29.816406 41.765625 C 28.089844 42.101562 26.347656 42.175781 24.597656 42.066406 C 23.339844 41.988281 22.09375 41.847656 20.894531 41.425781 C 20.484375 41.28125 20.105469 41.070312 19.820312 40.71875 C 19.707031 40.578125 19.644531 40.429688 19.644531 40.253906 C 19.640625 37.8125 19.644531 35.375 19.644531 32.914062 C 19.914062 32.996094 20.1875 33.054688 20.460938 32.988281 C 21.058594 32.835938 21.277344 32.375 21.382812 31.832031 C 21.515625 31.128906 21.519531 30.414062 21.527344 29.703125 C 21.535156 29 21.527344 28.292969 21.625 27.59375 C 21.648438 27.425781 21.699219 27.265625 21.769531 27.113281 C 21.914062 26.816406 22.074219 26.761719 22.34375 26.953125 C 22.65625 27.171875 22.949219 27.417969 23.253906 27.644531 C 23.792969 28.046875 24.382812 28.273438 25.058594 28.035156 C 25.566406 27.859375 25.886719 27.460938 26.183594 27.039062 C 26.511719 26.570312 26.753906 26.050781 27.042969 25.558594 C 27.3125 25.097656 27.601562 24.648438 28.039062 24.324219 C 28.660156 23.867188 29.144531 23.992188 29.480469 24.6875 C 29.605469 24.949219 29.679688 25.226562 29.753906 25.507812 C 29.863281 25.914062 30.042969 26.289062 30.308594 26.621094 C 30.757812 27.175781 31.417969 27.371094 32.117188 27.152344 C 32.160156 27.136719 32.207031 27.121094 32.285156 27.09375 C 32.285156 31.445312 32.28125 35.765625 32.289062 40.085938 Z M 35.179688 43.875 C 33.898438 44.777344 32.460938 45.316406 30.941406 45.660156 C 28.914062 46.121094 26.855469 46.234375 24.789062 46.132812 C 22.683594 46.03125 20.613281 45.714844 18.648438 44.890625 C 17.632812 44.460938 16.707031 43.894531 15.917969 43.109375 C 17.078125 43.726562 18.34375 44.015625 19.617188 44.261719 C 20.695312 44.472656 21.789062 44.597656 22.882812 44.6875 C 23.917969 44.773438 24.957031 44.804688 25.992188 44.804688 C 27.230469 44.804688 28.46875 44.765625 29.703125 44.644531 C 31.03125 44.511719 32.351562 44.328125 33.644531 44 C 34.441406 43.800781 35.222656 43.546875 35.96875 43.1875 C 35.742188 43.460938 35.464844 43.671875 35.179688 43.875 Z M 37.027344 41.617188 C 36.742188 42.027344 36.324219 42.28125 35.890625 42.5 C 34.855469 43.027344 33.742188 43.332031 32.613281 43.570312 C 30.046875 44.105469 27.441406 44.214844 24.832031 44.144531 C 22.730469 44.089844 20.636719 43.890625 18.589844 43.375 C 17.695312 43.148438 16.820312 42.875 16.003906 42.441406 C 15.628906 42.242188 15.273438 42.019531 15.011719 41.675781 C 14.671875 41.226562 14.691406 40.828125 15.070312 40.40625 C 15.5 39.933594 16.066406 39.667969 16.640625 39.429688 C 17.34375 39.136719 18.074219 38.9375 18.804688 38.753906 C 18.960938 38.714844 19.011719 38.75 19.007812 38.921875 C 18.996094 39.339844 19.011719 39.761719 19 40.183594 C 18.992188 40.691406 19.207031 41.09375 19.578125 41.414062 C 20.148438 41.914062 20.851562 42.136719 21.570312 42.296875 C 23.457031 42.722656 25.363281 42.800781 27.289062 42.703125 C 28.460938 42.644531 29.625 42.519531 30.757812 42.199219 C 31.359375 42.03125 31.941406 41.816406 32.410156 41.378906 C 32.742188 41.070312 32.925781 40.703125 32.917969 40.242188 C 32.910156 39.730469 32.914062 39.222656 32.914062 38.691406 C 34.15625 39.011719 35.378906 39.308594 36.449219 40.011719 C 36.667969 40.152344 36.863281 40.324219 37.015625 40.535156 C 37.269531 40.890625 37.277344 41.257812 37.027344 41.617188 Z M 37.027344 41.617188 " fill-opacity="1" fill-rule="nonzero"/></g></svg>